<svg version="1.1" xmlns="http://www.w3.org/2000/svg" xmlns:xlink="http://www.w3.org/1999/xlink" width="354.15774" height="285.73409" viewBox="0,0,354.15774,285.73409"><g transform="translate(67.9201,91.63736)"><g data-paper-data="{&quot;isPaintingLayer&quot;:true}" fill-opacity="0.49804" fill="#bfc7ff" fill-rule="nonzero" stroke="none" stroke-width="0.5" stroke-linecap="butt" stroke-linejoin="miter" stroke-miterlimit="10" stroke-dasharray="" stroke-dashoffset="0" style="mix-blend-mode: normal"><path d="M-32.21857,-23.73496c1.10745,-0.24115 2.22645,-0.45195 3.22335,-0.96606c5.22629,-2.69523 8.54643,-6.58784 13.00681,-10.86742c5.775,-4.1375 11.67431,-8.36809 17.27985,-12.67376c1.22124,-0.93805 2.1049,-2.27936 3.3629,-3.16752c2.54065,-1.79371 5.57715,-2.80569 8.11703,-4.60047c1.67274,-1.18203 3.07015,-2.76093 4.85343,-3.76846c1.2824,-0.72454 2.85721,-0.76178 4.20725,-1.35075c2.5777,-1.12454 3.28697,-2.57329 5.89593,-3.85164c1.91138,-0.93655 4.15481,-1.03027 6.09343,-1.90903c7.07538,-3.20723 111.67608,-7.7298 118.92913,-10.56746c10.81188,-4.23 22.57917,-6.91216 33.87873,-9.26902c7.0705,-1.40078 14.22096,-2.38065 21.36755,-3.31902c8.36508,-1.09837 16.99727,-2.38656 25.43387,-0.96317c6.18104,1.04284 13.43463,3.02921 18.78644,6.38526c2.47813,1.554 4.56352,3.66836 6.96862,5.33316c1.00069,0.69267 2.30495,0.96619 3.15545,1.83671c1.64918,1.688 2.63746,3.93145 4.20425,5.6962c3.54332,3.991 7.80409,7.42636 11.08106,11.72262c3.66352,4.80304 5.55926,10.05252 7.28811,15.72709c1.28439,4.54235 2.19099,11.55335 -0.00964,15.92611c-1.7293,3.4362 -5.72865,5.31572 -9.20786,6.95678c-2.36176,1.11399 -4.62769,2.48965 -7.12153,3.26403c-0.35003,0.10869 -3.86909,1.57181 -5.82593,1.54942c0.0786,2.056 -0.24976,4.12201 -0.59384,6.15182c-0.17954,1.05917 -0.9252,1.99491 -0.98924,3.06729c-0.09371,1.56925 0.56709,3.11518 0.52619,4.68669c-0.04214,1.61906 -0.63245,3.18343 -0.773,4.79693c-0.53803,6.1767 -1.05958,12.86123 -3.80134,18.63806c-3.11334,6.55975 -8.32306,10.40871 -13.84188,14.69642c-5.19905,1.6882 -10.65959,3.95378 -16.04457,4.97434c-8.11432,1.53782 -16.26125,1.8499 -24.19105,4.26585c-3.0837,0.9395 -6.33481,1.19917 -9.49873,1.81677c-0.41984,0.08195 -0.82873,0.2471 -1.23332,0.4341c0.76744,0.78657 1.54535,1.56361 2.30045,2.36159c7.03158,7.43084 12.91284,16.66858 10.07738,27.49217c-0.51663,1.9721 -1.86023,3.6282 -2.79035,5.4423c-1.17172,1.38175 -2.10223,3.01134 -3.51516,4.14526c-0.64578,0.51826 -8.77052,4.84829 -9.99515,5.50642c-0.65829,0.35377 -9.16703,4.93675 -9.53989,5.09233c-4.59556,1.91754 -9.75841,2.46501 -14.34883,4.37161c-6.62603,2.75208 -11.62112,7.51344 -15.88367,13.07947c-0.44379,0.57949 -4.97402,6.05235 -5.25083,6.31688c-0.91938,0.87856 -2.43028,1.37954 -2.7934,2.59825c-0.35359,1.1867 0.64427,2.39208 1.01878,3.57234c1.02653,3.23506 1.33124,4.41161 2.25465,7.67732c-0.02489,3.75053 0.34264,7.9306 0.09066,11.64643c-0.61219,9.02779 -4.461,19.68362 -9.78583,26.92257c-2.24222,3.04825 -10.33364,9.39253 -13.16869,11.24718c-10.91826,7.14256 -24.64545,11.59819 -37.7266,8.92247c-6.09046,-1.24579 -101.21777,-3.40877 -105.19426,-8.732c-0.96126,-1.28681 -1.14405,-3.0026 -1.65869,-4.52413c-1.43952,-4.25592 -2.62636,-8.63404 -3.91859,-12.93499c-0.87135,-6.5145 -1.44287,-13.04991 -1.56054,-19.62924c-0.03426,-1.91518 0.26315,-4.36285 -0.03383,-6.27894c-0.84614,-5.4594 -3.65965,-10.53948 -5.7574,-15.46617c-1.30586,-3.06689 -1.58282,-6.51008 -2.91441,-9.56589c-0.54903,-1.25994 -1.59642,-2.26515 -2.12235,-3.53491c-1.37283,-3.31446 -1.65701,-7.0225 -3.10422,-10.30517c-1.0109,-2.293 -3.01561,-4.05028 -4.05488,-6.33056c-0.49523,-1.08657 -0.39078,-2.40729 -0.98078,-3.44546c-0.80298,-1.41295 -2.24733,-2.37736 -3.11077,-3.75419c-1.20908,-1.92798 -2.04554,-4.06591 -3.06831,-6.09887c-5.58367,-11.99675 -10.01586,-24.76228 -9.18926,-38.08048c0.15649,-2.52139 -0.24741,-5.11834 0.36155,-7.57008c0.53445,-2.15178 -5.64172,-7.22844 -4.78386,-9.27291c1.35586,-3.23136 1.43243,-3.43831 3.08151,-6.53033c1.41846,-2.65963 3.815,-4.68189 5.46562,-7.20402c1.24832,-1.90742 2.03724,-4.08339 3.20337,-6.04215c3.6521,-6.13443 8.11816,-12.28464 11.0552,-18.8974c-1.41135,-1.03097 -2.69331,-2.83307 -2.1706,-5.91669c0.6688,-3.9455 0.43564,-4.93652 2.33963,-5.13897c0.11185,-0.98876 0.17606,-1.99062 0.18721,-3.00672c0,0 0.16259,-6.24788 6.41048,-6.08529c6.24789,0.1626 6.08529,6.41048 6.08529,6.41048c-0.01046,0.29286 -0.02313,0.58923 -0.03805,0.88866z"/></g></g></svg>