<svg version="1.1" xmlns="http://www.w3.org/2000/svg" xmlns:xlink="http://www.w3.org/1999/xlink" width="345.86648" height="158.84695" viewBox="0,0,345.86648,158.84695"><g transform="translate(-323.80596,-212.32278)"><g data-paper-data="{&quot;isPaintingLayer&quot;:true}" fill-opacity="0.49804" fill="#ffd9f1" fill-rule="nonzero" stroke="none" stroke-width="0.5" stroke-linecap="butt" stroke-linejoin="miter" stroke-miterlimit="10" stroke-dasharray="" stroke-dashoffset="0" style="mix-blend-mode: normal"><path d="M347.3867,299.9743c3.76475,-3.24994 7.69335,-6.07471 12.0627,-8.90956c0.93172,-0.32498 6.82626,-2.42782 7.7448,-2.55482c1.72942,-0.23913 3.50042,0.14111 5.2375,-0.03388c1.03472,-0.10424 2.00698,-0.54664 3.01622,-0.79758c0.47195,-0.11735 1.32872,0.19041 1.43086,-0.28507c0.4898,-2.2802 1.76659,-4.46034 2.14728,-6.71532c0.3329,-1.9719 -0.08071,-3.99906 -0.08071,-5.99886c0,-5.07486 0.09795,-10.10591 1.08071,-15.00114c0.5591,-2.78499 2.27582,-5.20849 3.55482,-7.7448c0.56588,-1.12216 0.60725,-2.48989 1.2979,-3.53987c0.85697,-1.30284 2.34029,-2.0994 3.24631,-3.36862c0.93196,-1.30556 1.15169,-3.06925 2.20985,-4.27479c1.62709,-1.85371 3.79477,-3.15187 5.69216,-4.72781c9.80248,-9.81128 21.83811,-19.22061 35.71473,-22.42158c9.44213,-2.17805 9.71522,-1.12257 18.20659,-0.12583c6.94199,0.81486 13.98736,1.85746 20.50696,4.37739c10.57576,4.08769 19.10493,9.81153 27.72644,17.01349c1.81237,1.51396 3.82804,2.79746 5.50144,4.46373c0.69846,0.69548 2.00937,2.32268 2.54626,3.33688c0.81124,-0.55005 2.4087,-1.20251 3.17075,-1.5772c1.70733,-0.83947 3.62661,-1.32797 5.14064,-2.4801c2.14869,-1.63506 3.58295,-4.07726 5.69201,-5.76313c5.18973,-4.1484 45.00572,6.55139 50.41216,2.68965c2.2681,-1.49024 4.37007,-3.27092 6.80433,-4.47073c8.08143,-3.98324 20.08032,-5.38721 28.60583,-1.94283c1.46656,0.5925 2.40458,2.05718 3.55953,3.13789c3.67223,3.43617 6.58965,7.56716 10.06849,11.06956c1.07283,1.0801 7.08263,5.39766 8.38894,6.44755c1.88366,1.51391 3.56424,3.28588 5.54408,4.67164c1.17778,0.82439 2.64722,1.14983 3.86489,1.91409c2.47303,1.55216 4.85837,3.54485 7.71532,4.14728c3.57894,0.75466 9.06048,-1.54469 12.39063,0.39505c2.59984,1.51435 4.8121,3.81608 6.38248,6.38248c0.83452,1.36381 0.21056,3.19437 0.44534,4.77591c0.22793,1.53539 0.62713,3.04044 0.94069,4.56065c1.97046,13.76403 5.23334,27.51913 4.074,41.49827c-0.65158,7.85661 -2.68538,16.23314 -9.30504,21.41736c-9.38465,7.34964 -21.50955,3.97818 -32.27486,3.38002c-5.8112,-0.32289 -11.65436,-0.3168 -17.42959,-1.0387c-2.53821,-0.31727 -5.06177,-0.7802 -7.61314,-0.96381c-2.7656,-0.19903 -5.61833,0.49084 -8.36647,0.35195c-0.01786,1.53092 -0.07464,3.06133 -0.10795,4.59204c-0.89623,2.29337 -1.50423,4.72145 -2.68869,6.88011c-6.5242,11.89028 -53.7568,0.65241 -65.89038,3.32751c-4.29096,0.94603 -8.52617,2.20279 -12.87617,2.82314c-6.55219,0.93439 -13.23789,0.14887 -19.85539,0.03492c-13.58729,-0.23397 -27.36821,-1.79111 -40.54728,-5.24756c-10.0847,-2.64489 -21.4945,-6.85934 -30.07301,-13.03312c-0.5972,-0.4298 -2.94789,-2.64817 -4.65455,-4.73729c-0.18914,0.55086 -0.40407,1.09542 -0.58301,1.62421c-2.32091,6.85877 -4.36102,9.64001 -8.00182,15.93988c-7.27237,7.3417 -15.14989,14.90441 -25.66947,17.32014c-3.3457,0.76831 -6.86469,0.12071 -10.29744,0.13615c-9.75509,0.04386 -19.7476,-0.15707 -28.74595,-4.63553c-7.87367,-3.91872 -17.76721,-11.99699 -20.27728,-20.94613c-0.69061,-2.46221 -0.18435,-5.11146 -0.22678,-7.66834c-0.03125,-1.88342 0.00431,-13.74458 0.16719,-14.43595c0.64097,-2.72071 2.30315,-5.09757 3.60402,-7.5716c2.39485,-4.5546 4.67481,-9.25536 7.90986,-13.25712c1.05707,-1.30759 2.73469,-1.95709 4.10204,-2.93564c0,0 4.27609,-2.85073 7.65823,0.49541z"/></g></g></svg>