<svg version="1.1" xmlns="http://www.w3.org/2000/svg" xmlns:xlink="http://www.w3.org/1999/xlink" width="55.87225" height="46.7991" viewBox="0,0,55.87225,46.7991"><defs><linearGradient x1="234.75052" y1="216.03196" x2="234.75052" y2="259.7449" gradientUnits="userSpaceOnUse" id="color-1"><stop offset="0" stop-color="#e6e6e6"/><stop offset="1" stop-color="#f2f2f2"/></linearGradient><linearGradient x1="239.96729" y1="217.83084" x2="239.96729" y2="259.38514" gradientUnits="userSpaceOnUse" id="color-2"><stop offset="0" stop-color="#f2f2f2"/><stop offset="1" stop-color="#e7e7e7"/></linearGradient></defs><g transform="translate(-218.47981,-214.1958)"><g data-paper-data="{&quot;isPaintingLayer&quot;:true}" fill-rule="nonzero" stroke-linejoin="miter" stroke-miterlimit="10" stroke-dasharray="" stroke-dashoffset="0" style="mix-blend-mode: normal"><path d="M266.51975,218.26845c-0.67082,-0.33541 -0.33541,-1.00623 -0.33541,-1.00623l0.29797,-0.591c0.42278,-0.70463 0.88593,-1.8602 1.70746,-2.19893c4.05325,-1.67121 6.86235,4.65628 6.00916,7.65217c-0.34102,1.19745 -0.90021,1.79716 -1.58793,2.19003c0.25967,0.48318 0.32986,1.02819 0.03195,1.62565c-0.43394,0.87025 -3.51241,1.66875 -4.24554,0.87842c-0.37465,-0.40388 -0.24305,-1.07464 -0.36458,-1.61196c0.5946,-0.65623 1.38006,-0.97207 2.14661,-1.27361c-2.97047,-2.18998 -6.96786,-3.69345 -10.62157,-3.69345c-0.05085,-0.00013 -0.19848,0.01494 -0.39709,0.03376c1.08214,0.45273 2.24965,1.11685 2.51475,1.26148c2.87475,1.56838 6.41953,4.84539 3.81807,8.21481c-4.21988,3.31259 -10.7939,-0.21781 -15.33208,3.4337c0,0 -0.58565,0.46852 -1.05417,-0.11713c-0.46852,-0.58565 0.11713,-1.05417 0.11713,-1.05417c2.75405,-2.19217 5.85264,-2.46165 9.25231,-2.46165c1.71884,0 4.59346,0.26476 5.95616,-0.86141c2.57137,-3.00493 -3.85064,-6.18206 -5.83776,-7.02c-0.6085,-0.2566 -2.72607,-0.36997 -2.86471,-1.15617c-0.35913,-2.03656 2.76297,-1.7709 3.8274,-1.77323c4.01706,0 7.73862,1.63212 11.07674,3.76489c0.31098,0.19869 0.67851,0.4421 1.02335,0.72606c0.4921,-0.33258 0.88904,-0.78746 1.09669,-1.51102c0.89042,-3.10277 -2.73335,-8.03106 -4.98609,-4.27649l-0.24257,0.49008c0,0 -0.33541,0.67082 -1.00623,0.33541zM271.20831,224.89865c-0.55758,0.19665 -1.14959,0.40976 -1.74703,0.7657c-0.64088,0.06567 1.42504,-0.00355 1.87637,-0.46327c0.04515,-0.04598 -0.01851,-0.16247 -0.12934,-0.30243z" fill="#595959" stroke="none" stroke-width="0.5" stroke-linecap="butt"/><path d="M219.72981,220.34928h9.5341v39.39562h-9.35421v-39.21573l20.32743,-4.49723l9.5341,0.71955" fill="url(#color-1)" stroke="#ffffff" stroke-width="2.5" stroke-linecap="round"/><path d="M230.16336,220.34928l19.60786,-2.51844v18.52854l-19.60786,23.02576" fill="url(#color-2)" stroke="#ffffff" stroke-width="2.5" stroke-linecap="round"/><path d="M226.008,255.73642c0,-0.19537 0.15838,-0.35376 0.35375,-0.35376c0.19537,0 0.35375,0.15839 0.35375,0.35376c0,0.12571 -0.06556,0.23609 -0.16437,0.29884c0.08167,0.0648 0.13405,0.16492 0.13405,0.27727v0.39419h-0.00114c0.06424,0.13274 0.13174,0.2635 0.20689,0.39031c0.07068,0.02409 0.31202,0.12919 0.23852,0.4232c-0.08579,0.34319 -0.42898,0.25739 -0.42898,0.25739l-0.33394,-0.1836c-0.04566,-0.07273 -0.09582,-0.14335 -0.14398,-0.21129c-0.21089,0.12881 -0.43041,0.10062 -0.60362,0.00466c-0.29889,0.52054 -0.81217,0.16097 -1.05944,-0.29161c-0.6319,0.76301 -1.97377,0.06385 -2.43581,-1.0414c0,0 -0.13607,-0.32654 0.19047,-0.46259c0.32654,-0.13607 0.46259,0.19049 0.46259,0.19049c0.43021,1.03625 1.21869,1.53186 1.38607,0.44394l0.00114,-0.00205l-0.00079,-0.00013l0.0597,-0.35814c0.02533,-0.17052 0.17233,-0.30134 0.3499,-0.30134c0.15005,0 0.27826,0.09342 0.32968,0.22527l0.14846,0.35629l-0.1679,0.06996c0.1638,0.43129 0.22959,0.80617 0.21637,0.52092h-0.00102v-0.36387c0,-0.19537 0.15838,-0.35375 0.35375,-0.35375c0.18661,0 0.33948,0.1445 0.35282,0.3277l0.03004,0.36053l-0.02911,0.00242v0.02695h-0.034c0.00256,0.00443 0.00511,0.00869 0.00765,0.01278l0.02605,0.00192c-0.00136,0.0098 -0.00276,0.01952 -0.00417,0.02913c0.05594,0.06838 0.10943,0.04321 0.17631,-0.15008v-0.31826c0,-0.12571 0.06557,-0.2361 0.16437,-0.29885c-0.08167,-0.0648 -0.13404,-0.16492 -0.13404,-0.27727z" fill="#d9d9d9" stroke="none" stroke-width="0.5" stroke-linecap="butt"/><path d="M224.88609,255.52416c0,-0.19537 0.15838,-0.35376 0.35375,-0.35376c0.19537,0 0.35375,0.15839 0.35375,0.35376c0,0.19537 -0.15838,0.35375 -0.35375,0.35375c-0.19537,0 -0.35375,-0.15838 -0.35375,-0.35375z" fill="#d9d9d9" stroke="none" stroke-width="0.5" stroke-linecap="butt"/><path d="M224.17966,256.61258c0.08634,0.04523 0.17073,0.13361 0.17073,0.30639c0,0.35375 -0.35375,0.35375 -0.35375,0.35375l-0.32013,-0.15088c-0.07582,-0.11372 -0.2187,-0.57896 -0.12736,-0.2154c0,0 -0.16939,0.31056 -0.47994,0.14116c-0.31055,-0.1694 -0.14116,-0.47994 -0.14116,-0.47994c0.51949,-0.6513 0.80558,-0.54487 1.25162,0.04494z" fill="#d9d9d9" stroke="none" stroke-width="0.5" stroke-linecap="butt"/><path d="M221.32887,253.59719c0,-0.35375 0.35375,-0.35375 0.35375,-0.35375l0.06106,0.00123c2.60194,0.21902 2.44496,-1.82399 0.06112,-1.63905c0,0 -0.35272,0.02714 -0.37985,-0.32558c-0.02713,-0.35272 0.32558,-0.37985 0.32558,-0.37985c3.32655,-0.25384 3.41805,3.33714 -0.06562,3.04954l-0.00229,0.00123c0,0 -0.35375,0 -0.35375,-0.35375z" fill="#d9d9d9" stroke="none" stroke-width="0.5" stroke-linecap="butt"/><path d="M221.13879,234.81115c0,-0.35375 0.35375,-0.35375 0.35375,-0.35375h0.03167c0.44135,0.00034 0.80832,0.03338 1.23505,0.15002c2.29351,1.13637 1.78859,5.79017 1.39673,7.94716c-0.15267,1.99844 0.79262,6.30132 -2.4733,5.72c0,0 -0.34805,-0.06328 -0.28477,-0.41133c0.06328,-0.34805 0.41133,-0.28477 0.41133,-0.28477c2.43198,0.45333 1.53042,-3.6342 1.64505,-5.11445c0.31283,-1.7192 0.89462,-6.26361 -0.94756,-7.19573c-0.33715,-0.09165 -0.63316,-0.1037 -0.98254,-0.10341h-0.03167c0,0 -0.35375,0 -0.35375,-0.35375z" fill="#d9d9d9" stroke="none" stroke-width="0.5" stroke-linecap="butt"/><path d="M221.42872,226.16779c0.05815,-0.34894 0.40709,-0.29078 0.40709,-0.29078l0.1613,0.02809c1.95461,0.16452 1.24656,-1.00337 -0.3093,-1.26268c0,0 -0.34893,-0.05816 -0.29078,-0.4071c0.05815,-0.34894 0.40709,-0.29078 0.40709,-0.29078c2.28113,0.3802 2.8844,2.89266 0.13422,2.66561l-0.21885,-0.03527c0,0 -0.34894,-0.05814 -0.29078,-0.40708z" fill="#d9d9d9" stroke="none" stroke-width="0.5" stroke-linecap="butt"/><path d="M221.23383,230.02751c0,-0.35375 0.35375,-0.35375 0.35375,-0.35375h0.25343c1.77926,0 1.85385,-1.69921 -0.0023,-1.54298c0,0 -0.35254,0.02938 -0.38191,-0.32314c-0.02937,-0.35252 0.32315,-0.3819 0.32315,-0.3819c2.72995,-0.22538 2.74498,2.95553 0.06106,2.95553h-0.25343c0,0 -0.35375,0 -0.35375,-0.35375z" fill="#d9d9d9" stroke="none" stroke-width="0.5" stroke-linecap="butt"/><path d="M225.56989,225.36551c0.45522,2.42346 0.36369,5.14771 0.36369,7.61149c-0.00539,2.7504 -0.1292,5.74376 -0.39202,8.47414c0.00423,2.88431 -0.4475,5.74409 -0.43991,8.62081c0,3.00445 0.97832,5.56069 1.56044,1.11473c0,-3.0561 -0.09548,-6.11638 -0.09881,-9.18557c0.00265,-3.34684 0.14682,-6.68676 0.14682,-10.0409c0,-1.268 0.26274,-6.47179 -1.1402,-6.59468zM225.28532,224.68202c2.30952,-0.44753 1.96958,5.36883 1.96958,7.27816c0,3.35365 -0.14966,6.69484 -0.14682,10.0409c-0.00307,3.09008 0.09695,6.16666 0.09695,9.24393c-0.12841,1.01855 -0.87722,4.90531 -2.23314,3.00738c-0.6814,-0.95377 -0.41511,-3.00107 -0.41511,-4.18046c0.00654,-2.89299 0.43718,-5.76504 0.44097,-8.66478c0.26089,-2.71025 0.39708,-5.70039 0.39098,-8.43017c0,-2.42379 0.10328,-5.12962 -0.35962,-7.50785c-0.02922,-0.02513 -0.05774,-0.06145 -0.08399,-0.11258c-0.09278,-0.18074 -0.04313,-0.32448 0.00902,-0.40851c0.01406,-0.09714 0.06086,-0.20638 0.19174,-0.25495c0.05414,-0.02009 0.10029,-0.02149 0.13943,-0.01108z" fill="#d9d9d9" stroke="none" stroke-width="0.5" stroke-linecap="butt"/><path d="M247.46169,220.75411c0,0.35375 -0.35375,0.35375 -0.35375,0.35375l-0.25325,-0.01361c-0.64806,0.18368 -1.32694,0.26265 -1.99947,0.26391c0,0 -0.35375,0 -0.35375,-0.35375c0,-0.35375 0.35375,-0.35376 0.35375,-0.35376c0.60494,0.00126 1.22275,-0.06878 1.8051,-0.23668l0.44761,-0.01362c0,0 0.35375,0.00001 0.35375,0.35376z" fill="#d9d9d9" stroke="none" stroke-width="0.5" stroke-linecap="butt"/></g></g></svg>