<svg version="1.1" xmlns="http://www.w3.org/2000/svg" xmlns:xlink="http://www.w3.org/1999/xlink" width="15.04684" height="40.13787" viewBox="0,0,15.04684,40.13787"><g transform="translate(-232.47658,-159.93106)"><g data-paper-data="{&quot;isPaintingLayer&quot;:true}" fill-rule="nonzero" stroke="none" stroke-width="0" stroke-linecap="butt" stroke-linejoin="miter" stroke-miterlimit="10" stroke-dasharray="" stroke-dashoffset="0" style="mix-blend-mode: normal"><g><path d="M234.56355,200.06893l-2.04356,-2.02248l-0.03462,-38.11538l12.98108,0.15206l2.05697,2.07818v37.90763z" fill="#d9d9d9"/><path d="M232.47658,197.92596v-37.90763h12.95988v37.90763z" fill="#f2f2f2"/><path d="M236.39912,177.35154c0,-1.47533 1.19599,-2.67132 2.67132,-2.67132c1.47533,0 2.67132,1.19599 2.67132,2.67132c0,1.47533 -1.19599,2.67132 -2.67132,2.67132c-1.47533,0 -2.67132,-1.19599 -2.67132,-2.67132z" fill="#d9d9d9"/><path d="M237.60121,186.96829c0,-0.81143 0.6578,-1.46922 1.46923,-1.46922c0.81143,0 1.46922,0.65779 1.46922,1.46922c0,0.81143 -0.65779,1.46922 -1.46922,1.46922c-0.81143,0 -1.46923,-0.65779 -1.46923,-1.46922z" fill="#d9d9d9"/><path d="M237.66679,190.97406c0,-0.81143 0.6578,-1.46922 1.46923,-1.46922c0.81143,0 1.46922,0.65779 1.46922,1.46922c0,0.81143 -0.65779,1.46922 -1.46922,1.46922c-0.81143,0 -1.46923,-0.65779 -1.46923,-1.46922z" fill="#d9d9d9"/><path d="M235.66451,182.66079c0,-0.46104 0.37374,-0.83478 0.83478,-0.83478c0.46104,0 0.83479,0.37374 0.83479,0.83478c0,0.46104 -0.37375,0.83479 -0.83479,0.83479c-0.46104,0 -0.83478,-0.37375 -0.83478,-0.83479z" fill="#d9d9d9"/><path d="M238.26784,182.65958c0,-0.46104 0.37374,-0.83478 0.83478,-0.83478c0.46104,0 0.83479,0.37374 0.83479,0.83478c0,0.46104 -0.37375,0.83479 -0.83479,0.83479c-0.46104,0 -0.83478,-0.37375 -0.83478,-0.83479z" fill="#d9d9d9"/><path d="M241.13951,182.65958c0,-0.46104 0.37374,-0.83478 0.83478,-0.83478c0.46104,0 0.83478,0.37374 0.83478,0.83478c0,0.46104 -0.37374,0.83479 -0.83478,0.83479c-0.46104,0 -0.83478,-0.37375 -0.83478,-0.83479z" fill="#d9d9d9"/><path d="M233.59424,163.05999v-2.07027h3.67306v2.07027z" fill="#d9d9d9"/><path d="M237.93513,171.80856v-5.54298h1.93671v5.54298z" fill="#d9d9d9"/><path d="M236.19877,169.80507v-1.53601h5.40942v1.53601z" fill="#d9d9d9"/><path d="M235.2832,195.53911v-1.15901h1.23628v1.15901z" fill="#d9d9d9"/><path d="M237.40556,195.53841v-1.15901h1.23628v1.15901z" fill="#d9d9d9"/><path d="M239.64587,195.5377v-1.15901h1.23628v1.15901z" fill="#d9d9d9"/><path d="M241.80756,195.53699v-1.15901h1.23628v1.15901z" fill="#d9d9d9"/></g></g></g></svg>