<svg version="1.1" xmlns="http://www.w3.org/2000/svg" xmlns:xlink="http://www.w3.org/1999/xlink" width="54.75" height="54.75" viewBox="0,0,54.75,54.75"><g transform="translate(-212.625,-152.625)"><g data-paper-data="{&quot;isPaintingLayer&quot;:true}" fill-rule="nonzero" stroke-linecap="butt" stroke-linejoin="miter" stroke-miterlimit="10" stroke-dasharray="" stroke-dashoffset="0" style="mix-blend-mode: normal"><g><path d="M213.125,180c0,-14.84265 12.03235,-26.875 26.875,-26.875c14.84265,0 26.875,12.03235 26.875,26.875c0,14.84265 -12.03235,26.875 -26.875,26.875c-14.84265,0 -26.875,-12.03235 -26.875,-26.875z" fill="#e6e6e6" stroke="#d3d3d3" stroke-width="1"/><path d="M232.5326,180c0,-4.12413 3.34327,-7.4674 7.4674,-7.4674c4.12413,0 7.4674,3.34327 7.4674,7.4674c0,4.12413 -3.34327,7.4674 -7.4674,7.4674c-4.12413,0 -7.4674,-3.34327 -7.4674,-7.4674z" fill="#b3b3b3" stroke="none" stroke-width="0"/></g><text transform="translate(217.89513,182.27443) scale(0.19713,0.19713)" font-size="40" xml:space="preserve" fill="#000000" fill-rule="nonzero" stroke="none" stroke-width="1" stroke-linecap="butt" stroke-linejoin="miter" stroke-miterlimit="10" stroke-dasharray="" stroke-dashoffset="0" font-family="Sans Serif" font-weight="normal" text-anchor="start" style="mix-blend-mode: normal"><tspan x="0" dy="0">Wii</tspan></text></g></g></svg>