<svg version="1.1" xmlns="http://www.w3.org/2000/svg" xmlns:xlink="http://www.w3.org/1999/xlink" width="128.52845" height="178.43528" viewBox="0,0,128.52845,178.43528"><g transform="translate(-175.73577,-67.95889)"><g data-paper-data="{&quot;isPaintingLayer&quot;:true}" fill="#2d0033" fill-rule="nonzero" stroke="none" stroke-width="0.5" stroke-linecap="butt" stroke-linejoin="miter" stroke-miterlimit="10" stroke-dasharray="" stroke-dashoffset="0" style="mix-blend-mode: normal"><path d="M252.1964,133.60553c-0.21596,0.18191 -0.43112,0.36434 -0.5411,0.61652c-0.12583,0.28853 0.0443,1.25796 0.01991,0.94413c-0.04002,-0.51508 0.76219,-0.94976 0.58526,-1.43515c-0.01654,-0.04538 -0.0382,-0.08699 -0.06408,-0.1255zM250.1941,130.25245c0.71508,-1.10659 2.13116,-0.75257 2.13116,-0.75257l1.98664,0.877c0.62466,0.86174 1.72064,1.53198 1.87398,2.58521c1.00026,6.87036 -9.40618,8.15638 -8.45021,0.46218c0.11794,-0.94927 1.0159,-1.62113 1.52385,-2.43169c0,0 0.34993,-0.4899 0.93458,-0.74014z"/><path d="M243.36718,112.99343c1.25495,0.15398 1.5962,1.51899 1.5962,1.51899l0.29801,1.43827c-0.00333,2.45326 -0.17154,10.96988 -5.25375,9.52296c-1.35935,-0.38702 -1.44055,-2.46581 -1.8322,-3.82384c-0.84582,-2.9328 0.73472,-5.9258 2.23036,-8.23832c0,0 1.1094,-1.6641 2.7735,-0.5547c0.06705,0.0447 0.12959,0.09029 0.18788,0.13665z"/><path d="M290.45324,101.7208c1.6,1.2 0.4,2.8 0.4,2.8l-1.2549,1.4492c-0.80501,0.47267 -1.61003,0.94533 -2.41504,1.41799c-1.05185,0.008 -2.12464,0.23298 -3.15556,0.024c-2.47595,-0.50191 -4.74415,-2.33091 -6.21809,-4.66063c-2.26097,0.14699 -4.53679,-0.19308 -6.55306,-1.18957c-0.96744,-0.47813 -2.23928,-0.72381 -2.78126,-1.65698c-0.10728,-0.18472 -0.19768,-0.37586 -0.2745,-0.57216l-0.07749,0.03444l-0.93555,-2.10498c-0.01648,-0.03496 -0.03199,-0.07048 -0.04647,-0.10652c-2.48167,0.14919 -4.96058,0.36624 -7.44271,0.53962c-0.82437,-0.06254 -1.87781,-0.1003 -3.00808,-0.18009c-0.49992,0.52286 -0.98985,0.98175 -1.34675,1.31564c-3.27309,3.06207 -7.06978,6.3715 -11.46076,7.25092c0.15372,0.20569 0.28142,0.46902 0.36545,0.80515c0.48507,1.94029 -1.45522,2.42535 -1.45522,2.42535l-1.00441,0.25039c-3.69809,0.81687 -10.07406,4.64415 -5.45373,8.78669c0,0 1.41422,1.41422 0,2.82843c-1.41422,1.41421 -2.82843,0 -2.82843,0c-0.5896,-0.6272 -1.3717,-1.11784 -1.76879,-1.8816c-3.4051,-6.54935 2.1048,-11.42026 7.66098,-13.22142c-0.14069,-0.02906 -0.28192,-0.06097 -0.42368,-0.09581c-0.94555,-0.23235 -1.97734,-0.62556 -2.96422,-1.14926c-0.05527,0.03959 -0.11057,0.07914 -0.1659,0.11866c-3.05141,2.17958 -6.24155,4.09656 -9.32008,6.21432c-2.13431,1.46823 -4.49027,3.4588 -7.05805,4.10012c-3.11179,0.77719 -6.27925,-0.15856 -8.22796,-2.41828c-3.87096,1.69406 -7.91232,3.00438 -11.73424,3.64924c0,0 -1.97279,0.3288 -2.30159,-1.64399c-0.3288,-1.97279 1.64399,-2.30159 1.64399,-2.30159c3.79453,-0.62371 7.24572,-2.01101 10.62071,-3.65155c-0.17052,-1.62188 0.33558,-3.22938 0.67947,-4.78011c1.80849,-3.96941 4.00958,-7.39114 8.57897,-8.45959c3.4035,-0.79583 8.54978,-0.32073 8.41881,4.47594c-0.07514,2.75214 -3.94691,5.93121 -5.92089,7.25567c-1.89386,1.27071 -3.97087,2.49878 -6.15198,3.62707c0.75024,0.60114 1.84627,0.81655 3.37045,0.38053c2.79794,-0.80042 5.1265,-3.24813 7.54573,-4.76157c2.28644,-1.43037 4.51552,-2.88278 6.72434,-4.39932c-1.4887,-1.83489 -1.87975,-4.14164 0.35998,-6.56579c0.71671,-0.77572 1.94741,-0.81812 2.92111,-1.22718c3.08418,-0.02899 8.96599,-0.8391 7.69935,4.84364c-0.24138,1.08294 -1.81905,1.27112 -2.71654,1.92346c-0.38902,0.28276 -0.77719,0.56649 -1.16502,0.85058c0.04318,0.01398 0.0802,0.02493 0.11035,0.03265c2.41518,0.61844 4.75948,-0.02497 6.75929,-1.3901c1.35045,-0.92185 3.57043,-2.34304 5.39704,-3.90149c-1.11365,-0.32971 -2.08615,-0.80479 -2.74153,-1.50252c-1.07574,-1.14523 -2.2041,-2.87714 -1.74356,-4.37936c0.40827,-1.33169 2.35147,-1.57285 3.68829,-1.96402c3.36844,-0.98565 7.47508,0.80804 7.55461,4.67614c0.28968,0.02044 0.58069,0.04116 0.87341,0.06404c4.2082,-0.30783 8.40412,-0.71569 12.62442,-0.71491c0.98224,0.00019 3.47814,-0.07059 4.88198,0.19905c0.13421,-0.2071 0.28116,-0.40968 0.44128,-0.60712c2.50329,-3.08671 7.81322,-2.74103 10.27048,0.40995c3.13428,4.01914 -0.55931,6.56099 -3.7732,8.09377c-0.629,0.29999 -1.28697,0.56718 -1.96495,0.79607c1.03972,1.0016 2.40181,1.63944 3.89102,1.67097c0.46592,-0.32166 0.93185,-0.64333 1.39776,-0.965l0.1749,-0.45721c0,0 1.2,-1.6 2.8,-0.4zM280.37483,95.90995c0.34507,0.7716 0.44373,1.62087 0.18895,2.47978c1.96482,-0.41438 3.76819,-1.19725 4.59826,-2.43913c0.3356,-0.5021 -3.12876,-1.69788 -3.55149,-1.64509c-0.6782,0.0847 -1.04951,0.79363 -1.23572,1.60444zM254.84701,93.17875c-0.12946,-0.14924 -0.44829,-0.19933 -0.8442,-0.21351c0.09555,0.0358 0.18607,0.06506 0.26982,0.0855c0.19176,0.04678 0.38317,0.08927 0.57437,0.12801zM235.92199,99.89349c0.52864,-0.471 1.14327,-1.04625 1.77642,-1.48712c-0.3303,-0.01019 -0.66066,-0.0239 -0.99086,-0.02836c-1.39858,0.3178 -1.38453,0.90216 -0.78556,1.51547zM213.74352,106.71031c0.54083,-0.284 1.08262,-0.56895 1.6265,-0.85272c2.96482,-1.54693 6.10306,-2.89805 7.7861,-6.02117c0.25165,-0.46698 -0.98659,-0.47927 -1.51706,-0.48081c-0.66276,-0.00192 -1.33537,0.0331 -1.97911,0.19076c-3.11152,0.76208 -4.4921,3.13058 -5.71901,5.8384c-0.09607,0.431 -0.16345,0.87792 -0.19741,1.32555z"/><path d="M259.29769,117.70789c-0.16382,-0.42679 -0.16382,-0.80401 -0.16382,-0.80401l0.08435,-1.05129c0.33018,-0.98434 0.29181,-2.18508 0.99054,-2.95301c5.26504,-5.78651 8.65215,2.02029 6.05458,6.31964c-0.64466,1.067 -1.12568,2.64589 -2.3429,2.91506c-3.79012,0.83814 -4.88453,-1.79522 -4.62274,-4.42639z"/><path d="M269.55873,118.38844c-1.96116,-0.39223 -1.56893,-2.35339 -1.56893,-2.35339l0.19946,-0.79927c0.005,-5.58553 -0.93169,-7.76126 -6.83452,-7.06762c0,0 -1.98776,0.22086 -2.20863,-1.7669c-0.22087,-1.98776 1.7669,-2.20863 1.7669,-2.20863c4.7758,-0.5058 9.53937,0.12972 10.97356,5.53545c0.37993,1.43202 0.30143,3.98323 0.30269,5.50771l-0.27714,1.58373c0,0 -0.39224,1.96116 -2.3534,1.56893z"/><path d="M251.03168,134.29976c0,-1.10457 0.89543,-2 2,-2c1.10457,0 2,0.89543 2,2c0,1.10457 -0.89543,2 -2,2c-1.10457,0 -2,-0.89543 -2,-2z"/><path d="M280.92833,103.09808c1.41422,-1.41421 2.82842,0 2.82842,0l1.17334,1.42687c0.32545,0.86786 1.61086,4.14357 1.54007,4.77578c-0.10156,0.90708 -0.98599,1.53909 -1.4093,2.34775c-0.43318,0.82752 -0.29592,1.83467 -0.42072,2.76901c1.87653,-0.64931 5.21729,-0.32909 7.10668,-0.22545c0.71822,0.0394 1.42873,0.16917 2.1447,0.2383c0.668,0.06449 2.16789,0.68628 2.01306,0.03328c-1.17615,-4.96071 -4.35836,-8.13439 -0.92659,-13.20778c1.59848,-2.55832 6.42242,-7.43022 5.24604,-10.88567c-1.00034,-2.93837 -7.22428,-4.35841 -9.61152,-5.46551c-1.12753,-0.5229 -2.59503,-0.68479 -3.32229,-1.69268c-3.56405,-4.93929 0.75974,-5.4611 3.96902,-6.95964c0.09026,-0.04215 0.3461,-0.20296 0.67564,-0.38123c-1.56719,-0.27723 -3.35242,-0.81595 -4.63682,-1.07337c-6.53641,-0.61169 -12.97277,-3.15014 -19.66031,-2.14786c-3.87462,0.5807 -7.27261,3.35127 -11.02241,3.8213c-0.0187,0.00235 -5.14196,-0.46521 -5.17054,-0.4674c-6.23274,-0.47897 -12.56704,-1.18635 -18.81628,-1.18738c-1.60226,0.14013 -2.73897,0.0873 -4.21446,0.75102c-1.18915,0.53492 -1.56161,2.23076 -2.73744,2.79436c-1.08562,0.52036 -2.37479,0.56029 -3.5771,0.49858c-3.12625,-0.16045 -7.81854,-4.50333 -10.97905,-2.8702c-1.09327,0.56492 -1.27047,2.11649 -2.03887,3.07769c-0.92665,1.15916 -2.35764,2.33553 -3.63145,3.0896c-4.75248,2.81341 -10.67216,4.10109 -15.921,5.67534c-1.26325,0.41526 -2.50971,0.88563 -3.78977,1.24578c-1.29202,0.36352 -2.61159,0.62088 -3.91929,0.92319c-0.39004,0.09017 -0.77617,0.20656 -1.16778,0.289c1.23387,0.18465 1.7319,0.75149 3.52786,1.74921c3.20482,1.78039 6.49107,3.46108 9.47852,5.59707c1.92317,1.37506 4.14285,2.79959 3.91692,5.76583c-0.13467,1.76799 -3.17284,3.24563 -4.33286,4.12726c-3.24656,2.46742 -10.87279,10.5142 -4.85083,13.54152c3.23902,1.45461 6.51344,1.50452 10.01793,1.0023c2.67502,-0.38335 4.4051,-1.3225 6.89837,1.02338c0.5068,0.47684 -0.17226,1.40307 -0.0445,2.0871c0.05736,0.3071 2.3205,-1.91541 2.37369,-2.03282c0.40652,-0.89726 1.62867,-4.46544 1.18805,-5.35329c-0.511,-1.02966 -2.154,-0.81493 -3.26507,-1.1096c-1.75083,-0.46434 -3.49506,-0.9532 -5.24259,-1.4298c0,0 -1.92953,-0.52623 -1.40329,-2.45576c0.52624,-1.92953 2.45576,-1.40329 2.45576,-1.40329c3.21234,0.8761 9.24122,1.31607 11.03291,4.60959c0.51373,0.94436 0.25926,2.14517 0.20307,3.21874c-0.18901,3.61097 -1.95196,9.56796 -6.55869,9.67433c-1.36255,0.03146 -2.87347,-0.32326 -3.904,-1.2152c-0.55518,-0.48051 0.25233,-1.53072 -0.0445,-2.20229c-0.12052,-0.27266 -0.59636,0.03651 -0.88996,0.08813c-1.5101,0.26547 -3.01305,0.62824 -4.54385,0.71495c-3.69607,0.20936 -6.67355,-0.14477 -10.05865,-1.63701c-0.88875,-0.52234 -1.95737,-0.81855 -2.66625,-1.56702c-5.03486,-5.31612 0.88639,-13.02602 4.77591,-16.89796c0.65744,-0.65447 1.35955,-1.26651 2.09488,-1.83205c0.66354,-0.51032 1.36381,-0.97652 2.09253,-1.38846c0.21812,-0.1233 0.73103,0.04697 0.7236,-0.20348c-0.02664,-0.89754 -4.89997,-3.61655 -5.01325,-3.68441c-3.06668,-1.8372 -6.53478,-3.21307 -9.49091,-5.21858c-1.18458,-0.80365 -3.04127,-1.30061 -3.33875,-2.70082c-0.30518,-1.43645 0.88634,-2.92347 1.92283,-3.96377c0.76604,-0.76886 2.03533,-0.76152 3.07966,-1.05707c2.51282,-0.71112 5.06193,-1.30273 7.54212,-2.12042c4.94345,-1.48341 10.5652,-2.66519 15.05796,-5.28646c2.53732,-1.48038 3.28011,-4.99817 5.76807,-6.22428c3.13941,-1.54716 6.36735,-0.31822 9.33154,0.83044c0.89691,0.34757 4.05584,2.32652 5.18487,1.56392c0.43108,-0.29117 0.40852,-0.98749 0.7799,-1.35177c2.25771,-2.21461 5.02945,-2.45054 7.99598,-2.72843c5.23987,-0.00074 10.48533,0.60702 15.71314,0.95557c2.30674,0.1538 5.63174,0.97006 7.95997,0.72584c0.43274,-0.04539 3.22443,-1.50159 3.27001,-1.52072c2.38742,-1.00193 5.05921,-1.8975 7.63116,-2.28357c7.15073,-1.07337 13.87323,1.52724 20.85063,2.14153c2.13985,0.42709 5.66187,0.36633 7.50409,1.61332c1.11959,0.75785 2.84908,1.59593 2.78722,2.94648c-0.05606,1.22415 -4.51451,5.04823 -7.08693,5.40116c0.3711,0.13568 0.73783,0.28499 1.10676,0.42589c0.79922,0.30523 1.59674,0.61596 2.38299,0.9532c2.4867,1.06659 5.56023,2.27002 7.51614,4.21493c5.49215,5.46124 -0.75414,12.24611 -3.77943,17.08525c-2.20402,2.84099 -0.07394,5.67105 0.7208,8.76978c0.27855,1.08606 1.11331,2.22653 0.7356,3.28221c-1.8419,5.14799 -10.2299,2.06307 -14.23971,2.81712c-1.12764,0.21206 -2.3745,1.44705 -3.341,0.82864c-2.60562,-1.6672 -1.82925,-7.23723 -0.64812,-9.40941c0.22093,-0.40631 0.88691,-0.53417 0.97369,-0.98844c0.19644,-1.02823 -0.95196,-1.86964 -1.31952,-2.84981l-0.25645,-0.00293c0,0 -1.41422,-1.41421 0,-2.82843z"/><path d="M265.18495,157.27013c-2,0 -2,-2 -2,-2v-1.9064c0.00326,-2.68125 -0.11226,-5.33809 -0.8503,-7.90115c-2.19243,0.82069 -4.56596,1.30805 -7.25791,1.31988c-2.50083,-0.24757 -4.97801,-0.56203 -7.43403,-0.94885c-0.89809,2.7526 -1.43212,5.04748 -1.42813,8.00672v1.6681c0,0 0,2 -2,2c-2,0 -2,-2 -2,-2v-1.6681c0.00389,-3.17293 0.53512,-5.78083 1.45102,-8.70071c-6.87633,-1.3192 -13.5947,-3.23979 -20.21185,-5.88536c-7.05452,-2.82044 -13.11263,-5.56966 -17.1757,-12.266c0,0 -1.02899,-1.71499 0.68599,-2.74398c1.71499,-1.02899 2.74398,0.686 2.74398,0.686c3.5079,5.92563 9.06342,8.14168 15.23306,10.61078c9.8157,3.92826 19.85764,6.18719 30.33492,7.24637c5.10156,0.0284 9.05602,-2.15766 12.9469,-5.28176c7.43984,-5.97367 14.52309,-12.20126 18.4878,-21.17576l1.12831,-1.31683c0,0 1.41421,-1.41421 2.82842,0c0.06212,0.06212 0.11878,0.12423 0.17034,0.18623c-0.00665,-0.06637 -0.01006,-0.1337 -0.01006,-0.20181v-2.383c0.00183,-5.04193 0.35867,-10.02044 0.94181,-15.01307c-0.83829,1.14343 -1.84667,2.25547 -3.21411,3.61479l-1.5405,-4.32949c0.00093,-2.0076 0.12966,-3.98424 0.26154,-5.96644l-1.81137,1.35853c-0.33699,0.25849 -0.75863,0.41213 -1.21616,0.41213c-1.10457,0 -2,-0.89543 -2,-2v-2.1447c0,-1.18933 -0.31984,-3.50639 -0.2871,-5.53893c-1.00499,1.51775 -1.97188,3.05871 -2.89344,4.63582c-0.52848,0.90442 -0.76452,2.02185 -1.51379,2.75386c-0.05018,0.04903 -0.10121,0.09699 -0.15301,0.14398l0.02537,0.02175l-1.42134,1.65823c-0.36687,0.43325 -0.9148,0.70829 -1.52697,0.70829c-1.10457,0 -2,-0.89543 -2,-2v-2.1447h0.02814l-0.02642,-0.08312c0.20265,-2.43185 -0.15472,-5.4482 -0.0469,-8.2414c-0.87212,1.77695 -1.73299,3.55902 -2.57478,5.35366c-0.5321,1.13441 -0.72504,2.5063 -1.60339,3.39989c-0.08254,0.08398 -0.16837,0.16365 -0.25707,0.23954l0.03073,0.03074l-1.4298,1.4298c-0.36193,0.36193 -0.86193,0.58579 -1.41422,0.58579c-1.10457,0 -2,-0.89543 -2,-2v-2.1447h0.02134l-0.02022,-0.06656c0.09123,-1.36841 0.15061,-2.71258 0.18715,-4.05675c-0.28531,0.73268 -0.56735,1.46692 -0.8433,2.20426c-0.42533,1.13649 -2.0019,5.37999 -2.24731,5.70974c-0.04136,0.05557 -0.08339,0.11051 -0.12609,0.16487l0.02014,0.01343l-1.88919,2.83379c-0.35611,0.5514 -0.97608,0.91641 -1.68131,0.91641c-1.05045,0 -1.91175,-0.80984 -1.99363,-1.83924l-0.23646,-2.60098l0.02813,-0.00256l-0.03429,-0.08788c-0.00242,-3.47234 -0.1544,-6.89129 -0.32541,-10.32996c-0.49009,1.56197 -0.98083,3.12402 -1.49847,4.67599c-0.45147,1.35358 -1.7263,5.32046 -2.28026,6.03332c-0.0461,0.05931 -0.09293,0.11792 -0.14049,0.17586l0.02307,0.01597l-2.12836,3.0743c-0.35912,0.53391 -0.9689,0.88518 -1.66072,0.88518c-1.10457,0 -2,-0.89543 -2,-2c0,-0.05491 0.00222,-0.1093 0.00656,-0.16309l0.23636,-3.309c0.01826,-0.2914 0.03097,-0.58536 0.03985,-0.88123c-0.36363,1.25786 -0.88587,2.92185 -1.54666,3.67062c-0.02303,0.02609 -0.04617,0.05208 -0.06942,0.07795l0.01635,0.01041l-1.65002,2.59289c-0.3518,0.5727 -0.98399,0.95466 -1.70539,0.95466c-1.10457,0 -2,-0.89543 -2,-2v-3.09789c0,-1.4023 -0.18234,-3.00432 -0.38017,-4.67451c-1.29637,3.93826 -2.99935,7.74892 -5.12155,11.22956l0.31302,0.1204l-1.17473,3.05432c-0.27672,0.77277 -1.01553,1.32561 -1.88345,1.32561c-1.10457,0 -2,-0.89543 -2,-2v-2.62129h0.03368l-0.03163,-0.09063c0.1729,-1.88693 0.47135,-3.75193 0.76422,-5.61862c-0.37935,1.00881 -0.76474,2.03014 -0.77248,2.03963c-0.03616,0.04427 -0.07264,0.08825 -0.10942,0.13195l0.03039,0.01773l-1.64898,2.82682c-0.34211,0.61158 -0.9961,1.02503 -1.74668,1.02503c-1.10457,0 -2,-0.89543 -2,-2c0,-0.07634 0.00428,-0.15166 0.0126,-0.22577l0.22816,-2.28162c-0.00256,-3.49 -0.0195,-6.92671 -0.23289,-10.40999c-0.55775,1.70464 -1.22248,3.42656 -1.56448,4.64537c-1.2486,4.4497 -2.69712,9.21357 -4.92474,13.33747c-0.00497,0.04958 -0.00994,0.09918 -0.01489,0.14878l-0.01909,-0.00026l0.42239,0.12672l-0.70199,2.33996c-0.23283,0.8465 -1.00809,1.46834 -1.92857,1.46834c-1.10457,0 -2,-0.89543 -2,-2c0,-0.08458 0.00526,-0.16793 0.01544,-0.24974l0.23418,-2.10765c0.26815,-2.6789 0.51957,-5.3449 0.75108,-8.01147c-0.56385,1.50941 -1.11706,3.0259 -1.63,4.56412c-0.61698,1.85022 -1.54738,5.88808 -2.71034,7.37184c-0.0491,0.06265 -0.0995,0.12403 -0.15108,0.18423l0.03772,0.02357l-1.17315,1.87704c-0.34995,0.58087 -0.98678,0.96936 -1.71435,0.96936c-1.10457,0 -2,-0.89543 -2,-2c0,-0.06387 0.003,-0.12705 0.00885,-0.18939l0.23635,-2.8363l0.00239,0.0002l-0.00175,-0.00769c0.35485,-3.90277 0.59657,-7.86038 0.56812,-11.79918c-1.20817,4.83805 -2.67259,9.68982 -4.9214,13.85801l0.39749,0.11925l-0.70199,2.33996c-0.16323,0.59341 -0.593,1.07643 -1.1525,1.3122c0.1842,1.3124 0.15039,2.83931 0.06128,4.33244l0.58691,-1.76071c0.25134,-0.81725 1.01227,-1.4113 1.91195,-1.4113c0.76626,0 1.43187,0.43091 1.76772,1.06363l1.1721,2.10978l-0.04073,0.02262c0.05565,0.07832 0.10976,0.15785 0.16216,0.23872c0.22866,0.35286 0.98513,4.7684 1.04387,5.08004c0.00295,0.01569 0.00602,0.03183 0.00917,0.04841c0.46601,-1.42662 1.21914,-3.15825 1.52428,-3.88645c0.05661,-0.49376 0.36011,-1.81716 1.98701,-1.81716c2,0 2,2 2,2l-0.12734,0.94055c-0.8408,2.24097 -2.34173,9.08517 -5.7738,8.92139c-1.36126,-0.06496 -2.18402,-1.71095 -2.92977,-2.85161c-0.50844,-0.77769 -0.98169,-2.33862 -1.18188,-3.893c-0.29912,0.48286 -0.61378,0.89991 -0.99131,1.3063l0.26237,0.22958l-1.66065,1.89789c-0.36673,0.42355 -0.90837,0.6915 -1.5126,0.6915c-0.9692,0 -1.77739,-0.68941 -1.96092,-1.6046l-0.46805,-2.10624l0.06668,-0.01481l-0.10236,-0.20081c-0.01305,-2.5823 0.07545,-5.18037 -0.01021,-7.76071c-0.00382,-0.11503 -0.01368,-0.24153 -0.02708,-0.37594c-1.40248,2.97973 -2.52033,6.07957 -3.74328,9.13779c0,0 -0.74278,1.85695 -2.59974,1.11417c-1.85695,-0.74278 -1.11417,-2.59973 -1.11417,-2.59973c1.44672,-3.61575 2.62381,-8.66511 5.13852,-11.71158c0.88505,-1.0722 1.63586,-3.10505 3.00914,-2.88816c0.33086,0.05226 0.62436,0.18295 0.88784,0.37047c0.2083,-2.03581 0.49483,-4.05293 0.73537,-6.07745c-0.04214,0.05981 -0.08507,0.11866 -0.12881,0.17651l-0.93465,2.10298c-0.30172,0.72205 -1.01469,1.22944 -1.84617,1.22944c-1.10457,0 -2,-0.89543 -2,-2v-2.383c0.00163,-1.34443 -0.36272,-2.97604 -0.386,-4.45843c-1.29092,1.12318 -2.64065,2.14956 -4.03959,3.19883c0,0 -1.6,1.2 -2.8,-0.4c-1.2,-1.6 0.4,-2.8 0.4,-2.8c1.77137,-1.32843 3.52675,-2.60187 5.10448,-4.15852l3.36482,-3.11975c0.84582,1.76761 1.3941,3.28984 1.74667,4.79371c0.25323,-0.8717 0.51022,-1.74117 0.79604,-2.59614l0.06767,-0.07546l-0.03063,-0.01362l0.93466,-2.10298c0.30172,-0.72205 1.01469,-1.22944 1.84617,-1.22944c0.99445,0 1.81937,0.72578 1.97397,1.67654l0.47036,2.58698l-0.03099,0.00564c0.01906,0.05724 0.03746,0.11474 0.05517,0.17252c0.01547,0.05045 0.02808,0.11871 0.03815,0.20239c0.7772,-2.68688 1.53731,-5.38036 2.21762,-8.10149l0.46377,-2.08698c0.18353,-0.91518 0.99172,-1.6046 1.96092,-1.6046c0.9831,0 1.80053,0.70932 1.96842,1.6441l0.70764,3.53817l-0.03085,0.00617c0.02064,0.06274 0.04064,0.12573 0.05996,0.18899c0.33434,1.09463 -0.04102,2.29012 0.00725,3.43364c0.13819,3.27348 0.21737,6.5119 0.17512,9.75251c1.86545,-4.93209 3.62617,-9.96745 4.97789,-15.0284l0.07121,-0.07809l-0.03901,-0.01463l0.6985,-1.86268c0.27224,-0.78105 1.01521,-1.34147 1.88906,-1.34147c1.10457,0 2,0.89543 2,2v2.14469h-0.01218c0.00385,0.02077 0.00759,0.04157 0.0112,0.06241c0.05077,0.29242 -0.16775,2.97092 -0.32643,4.9349c0.24076,-0.7866 0.46882,-1.58432 0.68036,-2.39962c0.29949,-1.15421 1.09667,-4.84906 1.80685,-5.85724c3.12347,-4.43409 4.01444,-4.07798 6.35705,1.57425c0.03564,0.08601 0.39485,5.33371 0.50537,7.04901c0.85408,-2.4032 1.66143,-4.76483 2.30045,-7.32353l0.02964,-0.03963l-0.01681,-0.00504l0.70199,-2.33996c0.23283,-0.8465 1.00809,-1.46834 1.92857,-1.46834c1.06761,0 1.93985,0.83652 1.99702,1.88986l0.23738,3.79818l-0.02396,0.0015c0.00963,0.05339 0.0188,0.10689 0.0275,0.16051c0.21841,1.34621 -0.30513,2.71128 -0.40181,4.07166c-0.04158,0.5851 -0.09163,1.16853 -0.14808,1.75069c1.45511,-4.08642 2.67131,-8.11738 3.2827,-12.54186l0.15784,-0.18182l-0.09057,-0.03396l0.6985,-1.86268c0.27224,-0.78105 1.01521,-1.34147 1.88906,-1.34147c1.06761,0 1.93985,0.83651 1.99702,1.88985l0.23739,3.79818l-0.43759,0.02735c0.59238,3.03238 0.89339,6.10093 1.03744,9.21027c0.74086,-2.39125 1.54291,-4.77894 2.41345,-7.11417l0.68761,-2.29205c0.23283,-0.8465 1.00808,-1.46834 1.92856,-1.46834c1.02962,0 1.87752,0.77804 1.98784,1.77826l0.47331,3.78647l-0.02656,0.00332c0.01429,0.06076 0.02797,0.12169 0.04105,0.18282c0.12659,0.5919 0.16559,1.38532 0.15129,2.27729c1.20147,-3.70888 2.3064,-7.451 3.63801,-11.10781l0.08704,-0.08485l-0.03865,-0.01932l0.93382,-1.86765c0.32069,-0.67649 1.00983,-1.14432 1.80823,-1.14432c1.05045,0 1.91176,0.80984 1.99364,1.83924l0.23645,2.60098l-0.47768,0.04342c0.89944,4.06434 1.01018,8.39062 0.99572,12.64406c1.50003,-3.8431 3.0176,-7.64404 4.43112,-11.53119l0.00734,-0.00793l-0.00386,-0.00145l0.6985,-1.86268c0.27224,-0.78105 1.01521,-1.34148 1.88906,-1.34148c1.10457,0 2,0.89543 2,2v2.8596h-0.43916c0.34524,2.11984 0.46121,4.21738 0.45112,6.36291c1.17969,-2.46197 2.40734,-4.89821 3.63094,-7.34122l0.07422,-0.06555l-0.02582,-0.01614l1.17315,-1.87703c0.34996,-0.58087 0.98678,-0.96936 1.71435,-0.96936c0.97417,0 1.78567,0.69649 1.96369,1.61868l0.70681,3.29846l-0.03108,0.00666c0.02209,0.06699 0.04355,0.13421 0.06435,0.2017c0.56183,1.82344 0.52324,4.36539 0.32703,6.85589c1.11485,-1.78527 2.28567,-3.52948 3.49728,-5.25766l0.09125,-0.06373l-0.02229,-0.0195l1.66065,-1.89789c0.36672,-0.42355 0.90837,-0.69151 1.5126,-0.69151c0.9692,0 1.77739,0.68941 1.96092,1.6046l0.46806,2.10624l-0.02669,0.00593c0.02211,0.06938 0.04294,0.13927 0.06237,0.2097c0.3509,1.27147 0.35656,2.90259 0.27318,4.55161c0.0648,-0.11639 0.12633,-0.23112 0.18336,-0.34395l0.67064,-1.78837c0.27224,-0.78105 1.01521,-1.34147 1.88906,-1.34147c1.05505,0 1.91929,0.81694 1.99466,1.85276l0.23673,2.84074l-0.01783,0.00149c0.00777,0.02712 0.01544,0.05429 0.02301,0.08149c0.28909,1.03964 0.3528,2.22929 0.30324,3.48046l0.11363,-0.28407c0.28362,-0.75958 1.01578,-1.30048 1.87426,-1.30048c0.96386,0 1.76846,0.68182 1.95782,1.58946l0.70586,3.05872l-0.0423,0.00976c0.03372,0.11405 0.06426,0.22926 0.0913,0.34575c0.59734,2.57376 -0.6519,5.24405 -0.95472,7.86881c-0.06309,0.54682 -0.12178,1.09382 -0.17616,1.64104c0.03315,-0.09405 0.06498,-0.18668 0.09533,-0.2778l0.17451,-0.95128c0,0 0.39223,-1.96116 2.35339,-1.56893c1.96116,0.39223 1.56893,2.3534 1.56893,2.3534l-0.3021,1.43172c-1.05322,3.15859 -1.60211,7.52085 -3.36056,10.31574c-0.01315,0.02091 -0.02638,0.04177 -0.03969,0.06257l0.01283,0.00535l-1.17367,2.81682c-0.29072,0.74541 -1.01568,1.27355 -1.86398,1.27355c-0.61633,0 -1.16755,-0.27879 -1.53443,-0.71714c0.05041,0.88488 -0.62586,1.56115 -0.62586,1.56115l-0.30149,0.11296c-3.49757,7.82773 -9.43116,14.59595 -16.08387,19.82622c-2.81773,2.21526 -5.45807,4.32866 -8.29748,5.95036c0.98013,3.14349 1.19671,6.33505 1.20036,9.63269v1.9064c0,0 0,2 -2,2z"/><path d="M244.91684,148.8023c0,0 -1.87266,0.70225 -2.57491,-1.17041c-0.70225,-1.87266 1.17041,-2.57491 1.17041,-2.57491c2.82649,-1.04831 5.37888,-1.33178 8.38808,-1.5493l2.33527,-0.23353c0.07411,-0.00833 0.14944,-0.0126 0.22578,-0.0126c1.10457,0 2,0.89543 2,2c0,0.38815 -0.11057,0.75046 -0.30193,1.05718l-0.77238,1.28731c0.91459,-0.15677 1.88925,-0.27768 2.94619,-0.4877l2.08624,-0.46361c0.15255,-0.03724 0.31195,-0.05698 0.47597,-0.05698c1.10457,0 2,0.89543 2,2c0,0.87385 -0.56043,1.6168 -1.34147,1.88905l-1.86268,0.69851l-0.09387,-0.25032l-0.41281,0.09173l-0.00753,-0.03389c-0.00566,0.00364 -0.01133,0.00726 -0.017,0.01089l0.00275,0.02772c-0.02244,0.00447 -0.04482,0.00891 -0.06716,0.01334c-2.09992,1.33283 -4.33957,2.22559 -7.02996,3.23843l-2.85672,-0.1264c0,0 -1.62246,-0.20281 -1.75001,-1.70867c-0.57297,-0.35174 -0.95512,-0.98408 -0.95512,-1.70568c0,-0.70523 0.36501,-1.3252 0.91641,-1.68131l1.97779,-1.31852c-1.50323,0.18115 -2.93416,0.47189 -4.48134,1.0597z"/><path d="M261.19264,184.94005c-1.19893,-0.59946 -1.19254,-1.6007 -1.05793,-2.19588c-1.99649,-1.30492 -4.24277,-0.67384 -6.73703,-1.17053c-1.31835,-0.26253 -3.20473,-0.11825 -3.81129,-1.31786c-0.6151,-1.21651 0.72872,-2.6285 1.16244,-3.92083c0.44924,-1.33856 1.18509,-3.15218 2.11266,-4.82002c-0.47501,0.20805 -0.89555,0.36907 -1.20537,0.45804c-2.98403,0.85697 -4.97794,0.18707 -6.79562,-1.69868c-0.78078,2.56795 0.36422,5.74485 0.62906,8.38652c0.33162,3.30776 0.64035,7.04995 0.31622,10.56347c1.39924,-0.48084 2.98577,-0.35552 4.45066,-0.64697c3.918,-0.77951 7.74667,-1.66927 11.70836,-2.38907c1.16932,-0.21245 3.30383,-0.79341 5.19731,-0.91284c-1.87271,-7.88967 -2.70669,-15.98629 -5.44826,-23.69461c-0.37034,-0.29036 -0.67359,-0.7659 -0.67359,-1.54468c0,-2 2,-2 2,-2l2.11096,1.29775c3.32736,8.88751 3.9994,18.29071 6.49096,27.34218c0,0 0.26781,0.98198 -0.2792,1.73593c0.13225,1.01543 0.1248,2.08676 0.30311,2.88895c0.69494,3.12631 1.46073,6.24454 2.14301,9.3884c0.43939,0.02923 0.76693,0.17481 0.76693,0.17481l0.96731,0.81443c0.62456,-1.4398 1.88902,-2.27998 2.72561,-3.62989c1.93756,-3.12642 2.94688,-6.64263 4.59745,-9.91559c3.59596,-11.69659 -5.12705,-29.03777 -17.4004,-31.62549c0,0 -1.95237,-0.43386 -1.51851,-2.38624c0.43386,-1.95237 2.38624,-1.51851 2.38624,-1.51851c14.8397,3.42809 24.45151,22.76141 20.25095,37.00482c-3.07569,6.19861 -4.7053,11.52161 -10.31111,16.00368l-1.53738,-0.50534c0.70702,3.19636 1.53641,6.36598 2.18023,9.5851c0.37719,1.88595 0.56079,4.14763 1.47206,5.88594c0.85784,1.63637 2.65733,2.76975 3.93848,4.05387c2.53726,2.54313 5.70731,6.15479 6.27289,9.87445c0.56963,3.7463 -0.32757,9.74382 -4.27933,11.48941c-0.97132,0.42906 -2.10697,0.26627 -3.16046,0.3994c-6.66845,-0.62559 -15.57236,-6.20367 -18.29945,-12.673c-1.84382,-4.374 -0.89268,-10.34406 -1.10339,-14.97272c-0.14113,-3.10026 -0.4139,-6.27179 -0.75231,-9.38108c-0.03109,0.10296 -0.06209,0.20595 -0.09299,0.30897c-1.81761,6.66611 -3.0173,13.41398 -3.99657,20.24393c-0.41513,2.89536 -0.00461,6.11246 -1.43895,8.80538c-3.3965,6.37679 -13.6378,7.12937 -19.37164,3.84812c-2.74951,-1.57344 -2.58593,-2.10622 -4.31603,-4.84507c0.3216,-4.42307 1.50566,-7.3492 5.39978,-9.79968c1.10588,-0.6959 2.69659,-0.59321 3.60995,-1.52756c0.43363,-0.44358 0.17035,-5.12457 0.23368,-5.78897c0.29841,-3.13053 0.51093,-6.32958 0.65779,-9.54377c-0.6256,0.14786 -1.2057,-0.0455 -1.2057,-0.0455l-1.14244,-0.43967c-3.24961,-2.03101 -7.53332,-4.14905 -9.49749,-7.62129c-1.6518,-2.92003 -1.68578,-6.81018 -1.6894,-10.04079c0,-13.1531 -1.93888,-35.03575 14.91092,-38.88883c0,0 1.95237,-0.43386 2.38624,1.51851c0.43386,1.95237 -1.51851,2.38624 -1.51851,2.38624c-11.87825,2.54412 -11.77864,18.16864 -11.77864,27.59679c0,2.46243 0,4.92486 0,7.38729c-0.00304,2.49741 -0.10326,5.78549 1.1702,8.06999c1.54944,2.7796 5.56148,4.59059 8.13669,6.20009l0.28736,0.03693c0,0 0.03156,0.01052 0.08517,0.03291c0.06051,-1.98256 0.09913,-3.96287 0.1206,-5.92846c-1.64673,-0.22043 -1.64673,-1.97738 -1.64673,-1.97738l0.01223,-0.45916c0.17151,-1.48019 0.4539,-3.10362 0.99352,-4.61149c-0.51253,-0.78469 -0.18822,-1.7576 -0.18822,-1.7576c1.53068,-4.39615 0.9257,-10.9113 0.16272,-15.48238c-0.58242,-3.48934 -1.09608,-6.28046 0.42239,-9.56276l1.73096,-1.62051c0,0 1.56174,-1.24939 2.81113,0.31235c0.01067,0.01334 0.02113,0.02665 0.03139,0.03994c0.61642,0.24231 0.98753,0.76187 0.98753,0.76187c1.57322,2.73926 5.30426,0.62748 7.22819,-0.98925c0.79772,-0.67034 1.18287,-2.12378 2.22217,-2.1985c1.35674,-0.09754 2.44979,1.18303 3.67468,1.77454l0.0439,0.06251l0.01456,-0.01873l2.12843,1.65544c0.47917,0.36538 0.78839,0.94226 0.78839,1.59136c0,1.10457 -0.89543,2 -2,2c-0.07633,0 -0.15167,-0.00428 -0.22578,-0.0126l-1.82639,-0.18264c-1.08285,0.47234 -1.76135,1.21674 -2.92963,3.07663c-0.28384,0.45187 -0.91141,2.45003 -1.67965,3.72063c0.61662,-0.00589 1.24261,0.07316 1.85423,0.1312c3.03758,0.28828 5.24089,1.12782 7.41293,3.19735l-0.10196,3.26184c0,0 -0.89443,1.78885 -2.68328,0.89443zM265.54401,202.8713c-0.30517,0.61034 -0.71446,0.90832 -1.1213,1.03603c-0.03379,0.08492 -0.07322,0.16698 -0.11784,0.24572c0.40045,1.17782 0.6518,5.0812 0.72848,5.99822c0.44128,5.2769 0.69411,10.52486 0.95805,15.80324c0.09731,1.94596 -0.21574,4.37912 0.56471,6.23595c1.51097,3.59484 5.90321,6.1747 8.99203,8.13073c2.24901,1.42422 2.943,1.84298 5.59388,2.07304c3.89254,-0.18716 4.2778,-5.67303 2.94173,-8.63897c-2.11568,-4.69656 -6.88897,-6.96382 -9.22554,-11.29743c-1.13239,-2.10025 -1.40411,-4.68214 -1.86413,-6.98225c-0.78416,-3.92081 -1.83552,-7.76562 -2.6213,-11.67668c-0.78224,-3.91217 -1.75313,-7.76684 -2.61357,-11.63987c-0.16343,-0.73562 -0.25473,-1.49236 -0.25781,-2.2459c-0.00129,-0.31491 0.48079,-0.70382 0.24489,-0.91245c-0.2238,-0.19793 -0.4921,0.36722 -0.78264,0.43686c-2.29063,0.54897 -4.81246,0.73938 -7.13733,1.16179c-3.00189,0.54542 -5.80599,1.30164 -8.78542,1.90033c-1.36116,0.27352 -2.82218,0.10402 -4.12336,0.58826c-0.85798,0.3193 -1.42601,1.17199 -1.80971,2.18102c0.86845,0.5568 0.86845,1.70365 0.86845,1.70365c-0.00553,7.89028 -0.2145,16.16161 -0.96225,24.02001c-0.21675,2.27789 0.3127,6.12851 -1.19612,8.03241c-0.59018,0.74472 -1.73012,0.78778 -2.57706,1.21862c-2.95366,1.50255 -5.0073,3.13296 -5.57079,6.51812c3.28506,4.37215 13.39213,5.59718 16.34668,-0.04376c1.07038,-2.04361 0.63278,-5.21262 0.94405,-7.399c0.99633,-6.99834 2.24267,-13.91436 4.10562,-20.74362c0.46304,-1.54332 0.94579,-3.08099 1.45517,-4.60964l0.11424,-0.34271c-0.51431,-0.18334 -1.00848,-0.4122 -1.47333,-0.69851l-0.03701,-0.05424l-0.0137,0.01918l-1.64641,-1.17601c-0.51931,-0.36126 -0.85921,-0.96241 -0.85921,-1.64296c0,-1.10457 0.89543,-2 2,-2c0.07633,0 0.15167,0.00428 0.22578,0.0126l2.35623,0.23562l-0.03633,0.3633c1.41908,-0.00251 2.64186,0.36509 4.82896,1.18392l0.66878,0.3221c0,0 1.78885,0.89443 0.89443,2.68328z"/><path d="M271.75828,205.67729c-0.89443,-1.78886 0.89443,-2.68329 0.89443,-2.68329l0.71279,-0.06178c0.37062,-0.55593 0.74124,-1.11185 1.11185,-1.66778c0,0 1.1094,-1.6641 2.7735,-0.5547c1.6641,1.1094 0.5547,2.7735 0.5547,2.7735c-0.37062,0.55593 -0.74124,1.11186 -1.11185,1.66778l-2.25214,1.42069c0,0 -1.78886,0.89443 -2.68329,-0.89442z"/><path d="M266.53752,172.60336c1.71518,-0.85759 2.60809,0.75163 2.67873,0.88564c5.57653,4.73505 5.30646,11.72413 2.44545,18.038c0,0 -0.8276,1.82073 -2.64834,0.99312c-1.82074,-0.82761 -0.99313,-2.64834 -0.99313,-2.64834c2.11075,-4.6278 2.89026,-10.11722 -1.63085,-13.53025l-0.74628,-1.0549c0,0 -0.89443,-1.78885 0.89443,-2.68328z"/><path d="M277.93032,222.78994c0.89443,1.78886 -0.89443,2.68328 -0.89443,2.68328l-0.40778,0.16047c-3.82537,2.97515 -6.78698,5.00968 -11.79048,5.05402c0,0 -2,0 -2,-2c0,-2 2,-2 2,-2c4.03609,0.04584 6.2613,-1.82087 9.33472,-4.21143l1.07468,-0.58076c0,0 1.78886,-0.89443 2.68329,0.89442z"/><path d="M240.68491,227.37177c0.57469,-1.91565 2.49035,-1.34096 2.49035,-1.34096l1.72811,0.5228c3.71359,0.85708 7.42044,1.65263 11.2205,1.9954c0,0 1.99179,0.18107 1.81072,2.17285c-0.18107,1.99178 -2.17286,1.81071 -2.17286,1.81071c-3.98197,-0.36462 -7.86553,-1.18328 -11.75779,-2.0814l-1.97806,-0.58906c0,0 -1.91566,-0.5747 -1.34096,-2.49035z"/><path d="M242.12116,196.95561c0.40462,0.13487 0.69419,0.32727 0.89938,0.54652c0.80868,0.25648 1.39471,1.01319 1.39471,1.90677c0,0.06955 -0.00355,0.13827 -0.01048,0.206l-0.18304,2.01347l-0.04005,-0.00365l0.02999,0.09226c-0.26967,1.49031 -0.51604,2.98492 -0.74622,4.48184c0,0 -0.30412,1.97674 -2.28086,1.67263c-0.34424,-0.05296 -0.61931,-0.15664 -0.83886,-0.29178c-0.22067,0.08383 -0.46004,0.12973 -0.71012,0.12973c-1.05045,0 -1.91175,-0.80984 -1.99363,-1.83924l-0.18347,-2.01808l0.35607,-0.03237c-0.27914,-1.52862 0.16396,-2.69695 1.6394,-4.96428l0.13735,-0.63491c0,0 0.63245,-1.89736 2.52982,-1.26491z"/><path d="M270.46774,189.50034c1.94029,-0.48507 2.42536,1.45521 2.42536,1.45521l0.03388,0.33188c1.40329,2.81047 1.74578,7.58535 4.25706,9.3224c0,0 1.5787,1.22788 0.35082,2.80659c-1.22788,1.5787 -2.80659,0.35082 -2.80659,0.35082c-3.32795,-2.76298 -3.48587,-6.91028 -5.379,-10.69095l-0.33674,-1.15059c0,0 -0.48507,-1.94029 1.45521,-2.42536z"/><path d="M232.24487,166.34669c-1.96116,0.39223 -2.3534,-1.56893 -2.3534,-1.56893l-0.40945,-2.24532c0.0775,-7.63458 6.55254,-15.55501 14.59676,-14.9634c0,0 1.99178,0.18107 1.81071,2.17285c-0.18107,1.99178 -2.17285,1.81071 -2.17285,1.81071c-5.56593,-0.65156 -10.30383,5.87845 -10.23462,10.97984l0.33177,1.46086c0,0 0.39223,1.96116 -1.56893,2.35339z"/><path d="M269.82503,150.60005c0.13899,0.00992 0.27878,-0.00759 0.41873,-0.04019c-0.29542,-0.1751 -0.60003,-0.34065 -0.91351,-0.49675c0.07404,0.29806 0.21512,0.51698 0.49479,0.53694zM275.35839,159.31658c-1.97279,0.3288 -2.30159,-1.64399 -2.30159,-1.64399c-0.08122,-1.07156 -1.11362,-3.24607 -2.32972,-3.60842c-0.64516,-0.19223 -1.36152,0.64827 -1.98206,0.38731c-3.19107,-1.34197 -2.869,-2.41802 -3.46613,-5.08882l-0.03126,-0.70576c-0.47332,-0.10407 -0.95864,-0.19388 -1.45537,-0.26959c0,0 -1.97674,-0.30411 -1.67263,-2.28086c0.30411,-1.97674 2.28086,-1.67263 2.28086,-1.67263c9.02589,1.40028 15.14751,6.93313 15.95776,16.26474l-0.01893,-0.35772c0,0 0.89443,1.78885 -0.89443,2.68328c-1.78885,0.89443 -2.68328,-0.89443 -2.68328,-0.89443l-0.38955,-1.09895c-0.05414,-0.68343 -0.14317,-1.33817 -0.26571,-1.9646c-0.2025,0.11288 -0.44876,0.20056 -0.74796,0.25043z"/><path d="M243.58107,151.61602c1.28037,1.53644 -0.25607,2.81681 -0.25607,2.81681l-1.70874,1.26969c-2.765,0.98234 -4.22598,2.66409 -6.38729,4.61034c0,0 -1.48659,1.33793 -2.82452,-0.14866c-1.33793,-1.48659 0.14866,-2.82452 0.14866,-2.82452c2.54912,-2.2929 4.4224,-4.18382 7.69618,-5.39634l0.51497,-0.5834c0,0 1.53644,-1.28037 2.81681,0.25607z"/></g></g></svg>