<svg version="1.1" xmlns="http://www.w3.org/2000/svg" xmlns:xlink="http://www.w3.org/1999/xlink" width="367.51812" height="186.06755" viewBox="0,0,367.51812,186.06755"><g transform="translate(77.47921,-253.71074)"><g data-paper-data="{&quot;isPaintingLayer&quot;:true}" fill-opacity="0.49804" fill="#ffd9d9" fill-rule="nonzero" stroke="none" stroke-width="0.5" stroke-linecap="butt" stroke-linejoin="miter" stroke-miterlimit="10" stroke-dasharray="" stroke-dashoffset="0" style="mix-blend-mode: normal"><path d="M-21.39167,286.33229l1.69166,-3.15574c2.34507,-1.19776 6.66807,-4.11049 10.16951,-4.13358c0.25008,-1.57367 1.26582,-2.48874 1.77964,-4.46828c0.52966,-2.04056 0.306,-4.20585 0.52003,-6.30314c1.78134,-4.40986 3.09732,-9.55773 7.32062,-12.408c4.73726,-3.19714 5.92245,-2.0386 11.04543,-1.49247c9.33308,0.99495 19.24584,3.31918 28.13434,6.33429c4.41927,1.49908 88.71314,3.61095 92.78871,5.91596c0.42272,0.23908 6.67576,4.45275 8.18921,5.779c1.50617,-0.37054 3.13283,0.01869 4.65388,-0.29937c2.38917,-0.49959 4.64096,-1.52517 7.00456,-2.13434c5.25037,-1.35318 10.49881,-2.2498 15.81653,-3.23909c6.49132,-1.42004 10.84541,-2.68124 17.5507,-2.89477c2.16469,-0.06894 4.31088,0.49778 6.47657,0.5196c2.36483,0.02383 4.72521,-0.54652 7.08449,-0.38294c6.79154,0.47089 16.62373,4.43003 21.48004,9.3343c3.74748,3.78449 2.72498,9.11257 6.73765,12.33366c3.08374,2.47542 8.64887,0.75313 12.16674,1.0191c8.47914,0.64106 15.60366,2.99996 23.32048,6.44797c2.24993,1.91994 4.83425,3.46857 6.87596,5.60861c0.98587,1.03336 1.54445,2.40652 2.40976,3.54275c4.8605,6.38233 8.68125,12.85989 12.09317,20.12381c2.54526,5.41881 4.42084,9.59509 5.35092,15.54588c0.27916,1.78609 0.94447,3.57972 0.72706,5.37438c-0.55326,4.56709 -4.80252,12.73246 -8.56768,15.27291c-1.62319,1.09521 -3.77624,1.04183 -5.68354,1.48505c-3.5999,0.83656 -8.25274,1.61809 -12.78786,1.67101c1.87527,3.2004 3.60157,6.60393 4.7252,9.43359c2.05987,5.18743 4.24527,14.12331 3.12741,19.80821c-1.31142,6.66925 -5.80362,13.25156 -9.07048,19.01711c-2.66464,4.7027 -5.56008,10.46291 -10.1427,13.793c-0.6752,0.49066 -5.28041,2.29734 -6.52112,2.79481c-3.99505,1.60184 -7.72965,3.42501 -12.11644,3.73185c-2.10305,0.14709 -4.20015,-0.66796 -6.30314,-0.52004c-1.19888,0.08433 -2.34418,0.6035 -3.54473,0.65946c-2.63173,0.12268 -5.21926,-0.78769 -7.85086,-0.91287c-4.34008,-0.20645 -8.80066,0.83848 -13.15282,0.8062c-0.72486,-0.00538 -1.43145,-0.4281 -2.14958,-0.32933c-3.07008,0.42226 -6.42345,2.41487 -9.43908,3.1525c-1.88799,0.46181 -3.89661,0.30012 -5.77683,0.7926c-1.72074,0.45071 -3.24799,1.47028 -4.94139,2.01479c-7.0902,2.27985 -15.2886,3.44853 -22.67156,3.33487c-2.62669,0.10265 -5.29377,0.77821 -7.88006,0.30797c-2.76717,-0.50313 -5.22487,-2.0843 -7.82234,-3.16296c-14.37626,-5.9701 -103.74697,-16.58733 -114.41458,-27.6415c-5.76383,-5.97269 -7.57783,-7.86924 -12.17929,-14.38878c-2.51849,-3.56829 -5.05706,-7.00012 -6.12199,-11.25068c-0.43992,0.15947 -0.9375,0.23136 -1.37786,0.27716c-2.72753,0.28368 -5.49554,-0.15843 -8.2262,0.09337c-5.20739,0.48018 -10.41116,1.66055 -15.63093,1.34207c-3.56002,-0.21722 -7.08596,-0.82167 -10.63321,-1.19312c-2.39738,-0.25104 -4.88334,-0.00818 -7.19996,-0.67428c-8.60148,-2.47321 -16.1236,-7.57878 -23.54597,-12.35602c-6.08199,-5.39212 -10.08973,-9.72597 -13.91191,-17.14736c-1.98721,-3.85848 -2.5378,-8.31311 -3.42939,-12.56068c-1.08581,-5.17284 -2.75835,-7.15285 -2.0753,-12.5294c1.34127,-10.5575 6.92567,-18.08359 15.32126,-24.03994c2.77249,-1.96697 5.41032,-4.16206 8.39249,-5.79373c10.00464,-5.47395 21.50033,-8.30843 32.21481,-12.25541z"/></g></g></svg>