<svg version="1.1" xmlns="http://www.w3.org/2000/svg" xmlns:xlink="http://www.w3.org/1999/xlink" width="94.10092" height="161.16017" viewBox="0,0,94.10092,161.16017"><defs><linearGradient x1="337.33116" y1="239.74118" x2="337.33116" y2="246.71792" gradientUnits="userSpaceOnUse" id="color-1"><stop offset="0" stop-color="#163159"/><stop offset="1" stop-color="#0f1826"/></linearGradient><linearGradient x1="313.72651" y1="239.74117" x2="313.72651" y2="246.71792" gradientUnits="userSpaceOnUse" id="color-2"><stop offset="0" stop-color="#163159"/><stop offset="1" stop-color="#0f1826"/></linearGradient><linearGradient x1="326.47374" y1="200.90601" x2="326.47374" y2="240.27002" gradientUnits="userSpaceOnUse" id="color-3"><stop offset="0" stop-color="#295ba6"/><stop offset="1" stop-color="#213859"/></linearGradient><linearGradient x1="287.54345" y1="174.81057" x2="353.75252" y2="174.81057" gradientUnits="userSpaceOnUse" id="color-4"><stop offset="0" stop-color="#8b6a16"/><stop offset="1" stop-color="#614a10"/></linearGradient><linearGradient x1="316.71562" y1="100.29161" x2="316.71562" y2="139.42024" gradientUnits="userSpaceOnUse" id="color-5"><stop offset="0" stop-color="#ffc940"/><stop offset="1" stop-color="#ffb142"/></linearGradient><linearGradient x1="318.45521" y1="133.43437" x2="318.45521" y2="162.16498" gradientUnits="userSpaceOnUse" id="color-6"><stop offset="0" stop-color="#ffc940"/><stop offset="1" stop-color="#ffb142"/></linearGradient></defs><g transform="translate(-260.42204,-99.41991)"><g data-paper-data="{&quot;isPaintingLayer&quot;:true}" fill-rule="nonzero" stroke="none" stroke-linecap="butt" stroke-linejoin="miter" stroke-miterlimit="10" stroke-dasharray="" stroke-dashoffset="0" style="mix-blend-mode: normal"><path d="M268.13696,159.37492l2.88983,2.21381l-4.61618,7.9713l-4.40038,-3.15624c0,0 0.37544,-3.67879 1.36348,-4.81232c1.05039,-1.20505 4.76325,-2.21655 4.76325,-2.21655z" data-paper-data="{&quot;index&quot;:null}" fill="#e6c77a" stroke-width="0"/><path d="M340.87193,258.4621c-1.61052,0 -7.55814,-1.97674 -7.55814,-1.97674c0,0 -0.96403,-1.91521 -0.98229,-3.13876c-0.02029,-1.35909 -1.44621,-5.00368 -1.44621,-5.00368c0,0 8.21446,-1.04361 11.49826,-1.04361c2.80234,0 8.83721,1.04651 8.83721,1.04651c0,0 1.86047,2.33646 1.86047,3.72093c0,1.44259 -1.86047,4.76744 -1.86047,4.76744c0,0 -7.07625,1.62791 -10.34883,1.62791z" data-paper-data="{&quot;index&quot;:null}" fill="#1a1a1a" stroke-width="0"/><path d="M301.86604,257.64815c0,0 -1.86047,-3.32485 -1.86047,-4.76744c0,-1.38448 1.86047,-3.72093 1.86047,-3.72093c0,0 6.03487,-1.04651 8.83721,-1.04651c3.2838,0 9.76744,1.74419 9.76744,1.74419c0,0 0.88629,3.17657 0.86601,4.53566c-0.01826,1.22354 -0.98229,3.25504 -0.98229,3.25504c0,0 -6.52901,1.62791 -8.13953,1.62791c-3.27258,0 -10.34884,-1.62791 -10.34884,-1.62791z" fill="#1a1a1a" stroke-width="0"/><path d="M330.81953,248.34583l-0.93024,-8.02326l16.39535,-0.69767l1.27907,7.44186z" data-paper-data="{&quot;index&quot;:null}" fill="url(#color-1)" stroke-width="0"/><path d="M306.33031,247.54212l0.53573,-7.80094l14.30233,0.5814l-1.34233,8.64141z" fill="url(#color-2)" stroke-width="0"/><path d="M306.78539,239.4874l0.11628,-38.5814l14.75349,2.44186c0,0 13.64414,-3.23346 13.68519,-1.63857c0.04033,1.56681 3.19183,11.57186 4.47365,17.42451c0.66588,3.04031 4.31502,14.92255 6.105,18.759c1.17353,2.51522 -1.98582,1.63311 -7.66303,2.33903c-1.02099,0.12695 -6.25237,-0.08994 -9.20023,-0.25247c-1.03709,-0.05718 -4.86366,-25.98406 -6.15891,-26.08731c-1.44687,-0.11534 -0.31143,25.59534 -0.31143,25.59534z" fill="url(#color-3)" stroke-width="0"/><path d="M288.30192,156.89387c0,0 21.3369,-16.02416 27.50399,-13.60523c0.61302,0.24045 6.76535,-0.57311 11.57139,0.65617c5.06977,1.29674 8.81227,4.64457 9.73236,5.11509c6.49538,3.32167 11.30827,6.68305 12.3979,8.76198c1.53316,2.92516 1.95964,4.93274 2.17558,7.8689c0.08295,1.12786 0.13483,2.39275 0.20644,3.89929c0.02495,0.52478 0.24685,4.56182 0.90243,8.77428c0.4827,3.1016 1.96363,6.50178 -0.12658,7.6249c-7.53258,4.04744 -7.01454,2.72625 -11.60483,2.43216c-2.04591,-0.13108 -1.51729,-2.96162 -2.37984,-7.84141c-0.22501,-1.27292 -0.40119,-4.45373 -0.68095,-7.836c-0.40235,-4.86442 -1.01896,-10.14554 -2.30317,-10.767c-1.26873,-0.61396 -0.46804,-0.89267 -1.23292,-0.90093c-3.19284,-0.03447 -1.10064,12.33043 -0.90346,12.42244c0.17849,0.08328 1.8725,16.1049 1.0331,24.59766c-0.84646,8.56422 -26.67602,2.26484 -27.74974,1.86076c-1.71879,-0.64684 -3.16974,-36.56286 -3.02666,-36.47358c0.5207,0.32492 1.26008,1.19429 -1.34164,-1.34071c-0.29363,-0.28609 -7.75484,7.74941 -9.23943,7.45494c-1.72579,-0.34231 -23.83228,2.13433 -25.19268,0.58318c-0.9364,-1.06771 0.84524,-9.45118 4.00727,-9.4007c4.12619,0.06587 8.7247,0.44388 11.20993,-0.21523c2.35687,-0.62506 5.0415,-3.67097 5.0415,-3.67097z" fill="url(#color-4)" stroke-width="0"/><path d="M347.05828,198.70357c-1.62104,0.85555 -5.35158,-5.56987 -5.35158,-5.56987l0.12195,-3.78049l9.7561,-1.82927v5.60976c0,0 -3.44707,5.00018 -4.52648,5.56987z" data-paper-data="{&quot;index&quot;:null}" fill="#e6c77a" stroke-width="0"/><path d="" fill="#e6c77a" stroke-width="0"/><path d="M354.3167,183.30385c0,0.60393 -0.29179,0.91607 -0.59341,1.07741c-1.24768,2.08175 -2.4564,3.36056 -4.52796,4.83219c-0.94324,0.47317 -1.88956,1.01393 -2.92638,1.27186c-3.92982,0.9776 -7.74119,-1.34341 -8.77079,-5.26952c-1.37491,-5.24284 -0.77186,-10.87494 -1.95344,-16.21472c-0.21636,-1.73084 -0.56921,-3.49539 -1.09085,-5.16429c-0.03543,-0.11335 -0.08343,-0.22754 -0.1353,-0.34271c-0.00122,0.11253 -0.00218,0.2131 -0.00187,0.29366c0.00498,1.29027 0,2.58069 0,3.87097c0,4.01684 0.16688,8.00242 0.15888,12.0191c0.40078,3.20628 0.30707,6.46997 0.48474,9.69282c0.30192,5.47683 1.61119,10.50392 1.63908,16.00923c0.07669,0.31903 -2.4163,-0.06216 -2.4163,-0.06216c-0.06716,-5.33112 -1.42222,-10.50763 -1.71968,-15.82253c-0.17981,-3.21273 -0.08346,-6.46565 -0.483,-9.66202c-0.00869,-4.92504 -0.1637,-9.82569 -0.1637,-14.75509c0,-1.15666 -0.38792,-3.95025 0.68869,-4.75485c4.14904,-3.10076 5.19935,5.82492 5.50264,8.25119c0.31745,1.422 0.64483,2.8119 0.81618,4.26035c0.50867,4.29988 -0.86935,17.16542 6.84669,15.22316c0.70239,-0.17681 1.60345,-0.67178 2.23491,-0.9862c1.88051,-1.35167 2.76599,-2.37847 3.91429,-4.388l1.2466,-0.62983c0,0 1.25,0 1.25,1.25z" fill="#000000" stroke-width="0.5"/><path d="M334.78373,200.08009c0.64312,1.07187 -0.42874,1.71499 -0.42874,1.71499l-0.89056,0.53004c-5.01651,2.50825 -9.82968,2.0874 -15.31471,1.74241c-3.98323,-0.25054 -8.30157,-0.41786 -11.83222,-2.42031c0,0 -1.08531,-0.62017 -0.46513,-1.70548c0.62018,-1.08531 1.70548,-0.46513 1.70548,-0.46513c3.13937,1.80978 7.20169,1.87427 10.74842,2.09582c5.01858,0.3135 9.46134,0.806 14.04012,-1.48339l0.72235,-0.4377c0,0 1.07186,-0.64312 1.71498,0.42874z" fill="#000000" stroke-width="0.5"/><path d="M265.77816,159.73164c0.40997,-3.55429 3.93535,-1.6192 5.21619,-0.65579l0.0122,-0.02104c0,0 0.32144,0.16072 0.53343,0.48216c1.17962,-0.20684 2.66384,-0.01531 3.73726,-0.01531c2.43268,0 5.9522,0.12494 8.58647,-0.89155c2.39932,-0.92583 14.85173,-11.30828 23.86462,-15.66561c4.89134,-1.81023 12.58924,-2.58263 17.64548,-1.01542c3.4921,1.0824 6.66299,3.01014 9.81871,4.81831c2.90404,2.07432 6.03075,3.87691 9.03226,5.80645c1.87834,1.2075 4.41302,2.21221 5.80303,4.00352c2.24556,2.89385 2.28165,7.46382 2.66833,10.94328c0.59661,5.37046 0.77747,10.73495 1.4496,16.11203l0.00966,0.63891c0,0 0,1.25 -1.25,1.25c-1.25,0 -1.25,-1.25 -1.25,-1.25l0.00965,-0.32883c-0.67354,-5.38827 -0.85566,-10.76543 -1.45362,-16.14604c-0.33056,-2.97553 -0.27276,-7.20063 -2.17038,-9.70188c-1.1431,-1.50672 -3.59319,-2.40557 -5.16471,-3.41583c-3.00145,-1.92951 -6.12831,-3.73221 -9.03226,-5.80645c-7.77305,-4.42844 -16.25282,-6.9999 -25.11646,-3.61646c-3.72651,1.85557 -14.39855,8.98134 -18.1283,11.40089c-2.69461,2.01933 -5.61433,5.16058 -9.77388,5.36339c-2.67329,0.13034 -6.58132,-0.82184 -9.11255,0.04991c-0.8034,0.27669 -1.4518,1.79657 -1.92077,2.41485c-0.24626,0.56418 -1.3366,3.24932 -1.43588,4.51949c0.14029,0.14274 0.32454,0.38192 0.37721,0.69154c0.95012,0.15681 4.02866,0.11468 4.59695,0.14046c5.54764,0.25166 11.57807,0.30037 17.03108,-0.79143c3.77447,-0.37744 5.63968,-2.55052 8.30502,-5.03419c0.83375,-0.77693 3.09041,-2.99259 4.34963,-2.71612c0.46591,0.1023 0.73646,0.53826 1.00413,0.97912c0.66394,0.31621 1.02228,0.94304 1.24956,1.62221c2.41744,0.58243 6.89223,1.08606 8.12242,3.55486c1.06267,2.13262 0.59997,7.56664 0.59997,9.9772c0.90395,8.1356 -0.55278,16.49025 0.47613,24.5915c0,0 0.15504,1.24034 -1.0853,1.39539c-1.24034,0.15505 -1.39539,-1.0853 -1.39539,-1.0853c-1.00673,-8.17013 0.41916,-16.5664 -0.49161,-24.76334c0,-2.37262 0.41433,-6.88646 -0.36777,-9.05506c-0.36851,-1.02179 -3.40047,-1.61582 -5.3003,-1.96752c0.42996,2.8673 0.42424,5.81691 0.42424,8.69539c0,9.13756 0.47834,18.4458 1.61048,27.50297c0,0.83601 0.04872,1.67393 0.15405,2.50327l0.00965,1.12279c0,0 0,1.25 -1.25,1.25h-0.00001c-1.25,0 -1.25,-1.25 -1.25,-1.25l0.00966,-0.8127c-0.10857,-0.88112 -0.16853,-1.77024 -0.16853,-2.65802c-1.13842,-9.10734 -1.61531,-18.47037 -1.61531,-27.65831c0,-2.35324 -0.03895,-4.61262 -0.31396,-6.95023c-0.1046,-0.88904 -0.19135,-1.7803 -0.31149,-2.66737c-0.007,-0.05168 -0.01567,-0.11693 -0.02466,-0.18984c-0.27569,-0.20913 -0.41354,-0.48483 -0.41354,-0.48483l-0.34378,-0.70016c0.18533,-0.87562 -2.1552,1.7756 -2.87797,2.49837c-2.60345,2.60345 -4.99671,4.39853 -8.73534,4.77239c-5.97434,1.19357 -12.86158,1.25226 -18.92149,0.67781c-1.26684,-0.12009 -4.36928,0.01409 -5.26095,-0.97917c-0.18956,-0.21116 -0.32902,-0.46224 -0.42636,-0.74354c-1.81711,-1.22088 -3.84474,-2.45909 -4.92734,-4.39328c-2.36988,-4.23408 1.15026,-5.88589 4.58373,-6.16021c-0.00759,-0.06225 -0.00813,-0.12483 -0.00088,-0.18764zM267.69647,162.41125c-0.82344,-0.06932 -1.61225,-0.17039 -2.44035,-0.11025c-4.28024,0.31086 -1.46645,3.15932 0.91764,5.06149c0.36626,-1.63019 1.072,-3.27669 1.46244,-4.14305c0.13977,-0.18822 0.27376,-0.38368 0.40578,-0.58213z" fill="#000000" stroke-width="0.5"/><path d="M334.42672,172.12063c0.17678,1.23744 -1.06066,1.41421 -1.06066,1.41421l-1.15076,0.1642c-6.85946,0.84451 -13.63141,0.35824 -20.47138,-0.48387c0,0 -1.24035,-0.15505 -1.08531,-1.39539c0.15504,-1.24034 1.39539,-1.08531 1.39539,-1.08531c6.61798,0.83836 13.21618,1.32439 19.8512,0.48387l1.1073,-0.15838c0,0 1.23744,-0.17677 1.41421,1.06066z" fill="#000000" stroke-width="0.5"/><path d="M307.62315,171.04579c0,-0.69036 0.55964,-1.25 1.25,-1.25c0.69036,0 1.25,0.55964 1.25,1.25c0,0.69036 -0.55964,1.25 -1.25,1.25c-0.69036,0 -1.25,-0.55964 -1.25,-1.25z" fill="#403210" stroke-width="0.5"/><path d="M308.10702,175.72321c0,-0.69036 0.55964,-1.25 1.25,-1.25c0.69036,0 1.25,0.55964 1.25,1.25c0,0.69036 -0.55964,1.25 -1.25,1.25c-0.69036,0 -1.25,-0.55964 -1.25,-1.25z" fill="#403210" stroke-width="0.5"/><path d="M308.10702,181.04579c0,-0.69036 0.55964,-1.25 1.25,-1.25c0.69036,0 1.25,0.55964 1.25,1.25c0,0.69036 -0.55964,1.25 -1.25,1.25c-0.69036,0 -1.25,-0.55964 -1.25,-1.25z" fill="#403210" stroke-width="0.5"/><path d="M308.4296,187.01353c0,-0.69036 0.55964,-1.25 1.25,-1.25c0.69036,0 1.25,0.55964 1.25,1.25c0,0.69036 -0.55964,1.25 -1.25,1.25c-0.69036,0 -1.25,-0.55964 -1.25,-1.25z" fill="#403210" stroke-width="0.5"/><path d="M307.94573,192.4974c0,-0.69036 0.55964,-1.25 1.25,-1.25c0.69036,0 1.25,0.55964 1.25,1.25c0,0.69036 -0.55964,1.25 -1.25,1.25c-0.69036,0 -1.25,-0.55964 -1.25,-1.25z" fill="#403210" stroke-width="0.5"/><path d="M308.26831,197.17482c0,-0.69036 0.55964,-1.25 1.25,-1.25c0.69036,0 1.25,0.55964 1.25,1.25c0,0.69036 -0.55964,1.25 -1.25,1.25c-0.69036,0 -1.25,-0.55964 -1.25,-1.25z" fill="#403210" stroke-width="0.5"/><path d="M329.8409,176.00547c-0.75383,-0.00133 -1.50871,-0.04076 -2.25905,-0.11728c0.31403,1.23681 0.68158,2.46144 1.03984,3.67908c0.24307,0.82614 -0.175,2.55722 0.68364,2.4914c0.48753,-0.03737 0.87842,-2.12617 0.9168,-2.35525c0.20328,-1.21321 0.2359,-2.45608 0.17989,-3.69795zM327.41529,173.35383c0.80365,0.10207 1.6155,0.15326 2.42561,0.15164h0.35222c-0.04445,-0.39444 -0.09234,-0.78665 -0.14096,-1.1756l-0.14667,-0.71635c0,0 -0.24515,-1.22573 0.98058,-1.47088c1.22573,-0.24515 1.47087,0.98058 1.47087,0.98058l0.17592,0.89656c0.37,2.95997 0.99303,6.98125 -0.24486,9.82225c-0.49457,1.13506 -1.64557,2.8394 -3.20187,2.70701c-1.64438,-0.13989 -2.14195,-1.79262 -2.53548,-2.97032c-0.42741,-1.27904 -0.82718,-2.60698 -1.17201,-3.95187c-0.00052,0.84848 0.01761,1.69642 0.06518,2.54336c0.26533,4.72425 1.29516,9.55231 1.7692,14.29276c0.22789,2.05082 0.33974,4.09029 0.56953,6.13528c0.08254,0.24334 0.08254,0.44755 0.08254,0.44755l-0.02959,0.00568c0.00655,0.05395 0.0132,0.1079 0.01995,0.16186l-0.63956,-0.04303l-1.84114,0.35311c-0.28348,-2.26785 -0.3955,-4.52606 -0.64791,-6.79802c-0.47889,-4.78888 -1.48751,-9.64219 -1.77918,-14.41693c-0.23399,-3.8304 0.15938,-7.68902 0.15938,-11.52074c0,0 0,-1.25 1.25,-1.25c1.25,0 1.25,1.25 1.25,1.25c0,0.81985 -0.01761,1.64058 -0.04305,2.4618c1.17469,-0.09938 1.32371,1.09283 1.32371,1.09283c0.04243,0.34255 0.09315,0.68384 0.1509,1.02398c0.21446,-0.03278 0.3767,-0.01251 0.3767,-0.01251z" fill="#000000" stroke-width="0.5"/><path d="M328.75219,188.46514c0,-0.69036 0.55964,-1.25 1.25,-1.25c0.69036,0 1.25,0.55964 1.25,1.25c0,0.69036 -0.55964,1.25 -1.25,1.25c-0.69036,0 -1.25,-0.55964 -1.25,-1.25z" fill="#403210" stroke-width="0.5"/><path d="M329.07477,193.30385c0,-0.69036 0.55964,-1.25 1.25,-1.25c0.69036,0 1.25,0.55964 1.25,1.25c0,0.69036 -0.55964,1.25 -1.25,1.25c-0.69036,0 -1.25,-0.55964 -1.25,-1.25z" fill="#403210" stroke-width="0.5"/><path d="M329.39735,197.01353c0,-0.69036 0.55964,-1.25 1.25,-1.25c0.69036,0 1.25,0.55964 1.25,1.25c0,0.69036 -0.55964,1.25 -1.25,1.25c-0.69036,0 -1.25,-0.55964 -1.25,-1.25z" fill="#403210" stroke-width="0.5"/><path d="M334.83237,203.92912c1.14893,-0.4924 1.64133,0.65653 1.64133,0.65653l0.50535,1.18253c0.16898,0.45253 0.33796,0.90506 0.50693,1.35759c2.44609,9.78437 7.01412,18.88282 9.21663,28.79413c0.71163,2.84651 1.43513,5.76886 1.79798,8.68053c0.10233,0.8212 0.42149,2.66656 0.00208,3.3631c-0.91521,1.51995 -3.29938,1.58522 -4.79081,1.59033c-3.27949,0.01123 -6.55921,0 -9.83871,0c-0.5303,0 -3.13373,0.02876 -3.43342,-0.11801c-0.6198,-0.30356 -0.9272,-1.02252 -1.3908,-1.53378c-1.86532,-6.89315 -2.27166,-14.029 -4.27916,-20.86163c-0.14752,-0.50209 -1.01704,-8.28057 -1.38331,-9.1806c-0.4441,8.43593 1.03452,23.84945 -2.50041,31.81177c-3.57358,1.48264 -7.62797,-0.20332 -11.44542,-0.44275c-1.77706,-0.11146 -3.5233,0.54402 -4.6027,-1.52384c-0.14617,-0.28002 -0.11845,-2.9175 -0.11801,-3.43342c0.00322,-3.7638 0.38728,-7.61588 0.80836,-11.35945c0.00335,-8.67165 0.23041,-17.40293 0.23041,-26.10578c0,0 0.04587,-1.20413 1.29587,-1.20413c1.25,0 1.15826,1.52523 1.15826,1.52523c0,8.74822 -0.19178,17.20615 -0.18836,25.92293c-0.46294,4.21417 -1.47951,9.38529 -0.92255,13.59423c0.02281,0.17233 3.53602,0.21944 3.85327,0.25655c2.34425,0.27421 5.91843,1.51581 8.16312,1.00266c0.79302,-3.39697 1.83344,-6.45741 2.05566,-10.00024c0.35246,-5.61946 -0.6104,-18.16647 0.00621,-23.77856l0.00366,-0.00816l-0.00263,-0.00033l0.15924,-1.27387c0.06896,-0.62514 0.5989,-1.11141 1.24241,-1.11141c0.38936,0 0.73713,0.17802 0.96638,0.4571l0.72125,1.2224c1.66485,2.00226 2.40148,11.42902 3.22219,14.22101c1.82043,6.1929 2.40566,12.81061 3.78536,19.13837c0.37864,0.68482 1.87754,0.28369 2.59513,0.28369c2.84946,0 5.69893,0 8.54839,0c0.5405,0 3.59051,0.31434 3.91886,-0.34515c0.17341,-0.34831 -0.39753,-2.6023 -0.47311,-3.03022c-0.42441,-2.40302 -1.00599,-4.81698 -1.5978,-7.18421c-2.18987,-9.85442 -6.73805,-18.89558 -9.17046,-28.62523c-0.1536,-0.40768 -0.30721,-0.81538 -0.4608,-1.22306l-0.4624,-1.07554c0,0 -0.49239,-1.14893 0.65654,-1.64133z" fill="#000000" stroke-width="0.5"/><path d="M346.8167,247.4974c0,-1.25 1.25,-1.25 1.25,-1.25l1.04289,0.13197c1.70486,0.85313 3.84152,1.79071 4.74908,3.6166c2.094,4.21289 -1.10777,7.45928 -4.79732,8.70158c-3.84231,0.95528 -9.04001,1.74801 -12.87994,0.29479c-4.16629,-1.57673 -6.39621,-6.73863 -6.9357,-10.85602c0,0 -0.15504,-1.24034 1.08531,-1.39539c1.24034,-0.15505 1.39539,1.0853 1.39539,1.0853c0.3292,2.80266 1.77886,6.69164 4.28255,8.30246c3.20456,2.06174 8.92655,1.03104 12.35343,0.16856c2.19818,-0.72346 4.65961,-2.41639 3.2672,-5.16939c-0.63693,-1.25931 -2.48304,-1.93543 -3.63803,-2.51243l0.07515,0.13196c0,0 -1.25,0 -1.25,-1.25z" fill="#000000" stroke-width="0.5"/><path d="M308.34896,248.14256c0,1.25 -1.25,1.25 -1.25,1.25h-0.32258c-1.08237,-0.00215 -2.25618,-0.0815 -3.24255,0.47572c-1.86274,1.05229 -3.03263,4.59028 -1.83551,6.46852c0.78873,1.2375 2.41487,1.36461 3.70412,1.52593c4.43339,-0.00883 15.76488,2.50662 14.33875,-4.97451c-0.23889,-1.25314 -0.62236,-2.47162 -1.0707,-3.66159c0,0 -0.4389,-1.17041 0.73151,-1.60932c1.17041,-0.43891 1.60932,0.73151 1.60932,0.73151c0.49484,1.32521 0.9293,2.68444 1.18736,4.08034c1.88722,10.20826 -10.65307,7.93985 -16.95158,7.92873c-1.58142,-0.19752 -3.08119,-0.35968 -4.39074,-1.38324c-3.53641,-2.7641 -2.26989,-9.14488 1.42065,-11.26748c1.40778,-0.80968 2.93982,-0.81186 4.49938,-0.81461h0.32258c0,0 1.25,0 1.25,1.25z" fill="#000000" stroke-width="0.5"/><path d="" fill="#000000" stroke-width="0.5"/><path d="M338.97304,193.63875c-0.56446,-2.25786 -1.00094,-4.41749 -1.00506,-6.75478c0,0 0,-1.25 1.25,-1.25c1.25,0 1.25,1.25 1.25,1.25c-0.00041,0.20542 0.00313,0.40927 0.01032,0.61177c0.14209,-0.05486 0.31162,-0.08758 0.51387,-0.08758c1.25,0 1.25,1.25 1.25,1.25c-0.01668,2.31284 0.65559,4.98971 2.25367,6.73772c2.06842,2.26247 5.02439,1.47772 6.1429,-1.39731c0.58165,-1.49509 0.71874,-3.1906 0.71874,-4.77292c0.16035,-1.28285 0.15887,-2.50177 0.15887,-3.7933v-0.16129c0,0 0,-1.25 1.25,-1.25c1.25,0 1.25,1.25 1.25,1.25v0.16129c0,1.33902 0.00256,2.61857 -0.1637,3.94864c0,1.82814 -0.19462,3.83418 -0.89416,5.54966c-1.47456,3.61602 -5.76543,5.8114 -9.17668,3.26927c-1.34445,-1.00191 -2.31328,-2.4204 -2.96455,-3.99515z" fill="#000000" stroke-width="0.5"/><path d="M322.56476,240.27106c0,1.25 -1.25,1.25 -1.25,1.25h-1.12904c-4.65017,0 -9.23989,-0.6286 -13.84771,-1.13668c0,0 -1.24235,-0.13804 -1.10431,-1.3804c0.13804,-1.24236 1.38039,-1.10431 1.38039,-1.10431c4.51505,0.50522 9.01482,1.12139 13.57164,1.12139h1.12904c0,0 1.25,0 1.25,1.25z" fill="#000000" stroke-width="0.5"/><path d="M347.01674,239.06932c0.39529,1.18586 -0.79057,1.58114 -0.79057,1.58114l-0.57599,0.18812c-5.64852,1.41213 -11.15516,1.59891 -16.86466,0.33013c0,0 -1.22023,-0.27116 -0.94907,-1.49139c0.27116,-1.22024 1.49139,-0.94907 1.49139,-0.94907c5.33181,1.18484 10.44372,1.00304 15.71599,-0.31502l0.39175,-0.13447c0,0 1.18586,-0.39529 1.58114,0.79057z" fill="#000000" stroke-width="0.5"/><path d="" fill="#000000" stroke-width="0.5"/><path d="" fill="#000000" stroke-width="0.5"/><path d="" fill="#000000" stroke-width="0.5"/><g><g><path d="M302.03647,147.29426c0,0 -7.33431,-12.99828 -7.72537,-14.84786c-0.94705,-4.4792 2.03572,-12.062 2.03572,-12.062c0,0 10.34564,-13.23943 13.62115,-13.79472c2.90189,-0.49195 18.96072,2.32037 23.81358,3.84704c6.70493,2.10932 7.04802,30.84721 7.04802,30.84721l-14.65517,14.88922c0,0 -9.85917,3.58185 -11.42379,3.07184c-4.58432,-1.49432 -12.71414,-11.95073 -12.71414,-11.95073z" fill="#ffdd86" stroke-width="0"/><path d="M301.64367,142.50273c2.63556,3.47839 5.10952,6.70042 8.1896,9.9541c1.28115,1.35336 2.86454,3.81132 4.7352,4.72389c2.91555,1.42229 8.0941,-2.60566 10.09814,-3.79958c5.1737,-3.05877 9.50655,-7.14984 11.94597,-11.89404c2.19618,-4.27113 0.92989,-10.18769 0.94292,-14.69103c0.01265,-4.37135 -1.16523,-10.34878 -5.24912,-13.46879c-6.31015,-3.73065 -12.68471,-7.10587 -20.98296,-5.3197c-3.07981,0.66292 -4.64667,3.50458 -6.49014,5.45195c-2.55401,2.69796 -6.12374,5.76218 -7.36849,9.02361c-0.60992,1.59807 -0.47522,4.36362 -0.46485,6.07354c-0.00779,1.28458 0.65003,4.49003 0.96916,5.74949c0,0 2.19088,6.23838 3.67458,8.19656zM291.99994,128.55667c0.01018,-2.00571 -0.06907,-5.2308 0.64627,-7.13095c1.42818,-3.79367 5.23242,-7.22183 8.18707,-10.34301c2.71747,-2.87063 4.50987,-5.72543 9.06541,-6.87226c9.80181,-2.46755 18.22841,1.67459 25.6837,6.12421c5.98762,4.85623 6.97311,12.1212 6.97311,18.66217c0,4.46595 0.8371,9.66409 -1.27931,13.91872c-2.71041,5.44876 -7.73897,10.13084 -13.60958,13.63467c-4.20203,2.49092 -9.81542,6.48494 -15.45742,4.12311c-2.62064,-1.09704 -4.63944,-4.00538 -6.37591,-5.8397c-3.17773,-3.35682 -5.76002,-6.70316 -8.47707,-10.2928c-1.51655,-2.0036 -2.83695,-5.73753 -3.78733,-9.09657c-0.9805,-3.46551 -1.56714,-6.53199 -1.56894,-6.88759z" fill="#bfa665" stroke-width="0.5"/></g><path d="M331.35627,105.25343c1.06213,0.90745 2.01763,1.84682 2.89222,2.82156c0.31428,0.24519 0.60692,0.56941 0.86546,0.94434c0.62349,0.14578 1.11448,0.53243 1.47874,1.05764c0.89787,0.42151 1.61827,1.41165 2.07208,2.57603c0.16518,0.15164 0.33021,0.33166 0.49569,0.54482c0.27068,0.34868 0.50892,0.80488 0.68983,1.30873c0.48064,0.42729 0.84211,1.03192 1.0771,1.69553c0.18027,0.03159 0.34862,0.09419 0.49748,0.20753c1.25125,0.95271 1.46386,1.87221 1.1438,2.67238c0.08455,0.14853 0.15378,0.27371 0.20389,0.36518c0.45394,0.82867 0.8423,1.64231 1.16039,2.45363c0.22112,0.22549 0.35748,0.53439 0.35748,0.87516c0,0.03807 -0.0017,0.07574 -0.00503,0.11294c0.10852,0.33841 0.2045,0.67731 0.28758,1.01762c0.03607,0.0398 0.0696,0.08193 0.10036,0.12614l0.7479,1.04705l-0.04417,0.03155l0.12376,0.0953c0.8879,2.23078 2.17063,11.94248 0.54525,14.15077c-0.59141,0.80351 -1.17767,2.08506 -2.17494,2.05624c-0.20779,-0.00601 -0.41118,-0.15815 -0.59249,-0.38727c-0.12307,0.12006 -0.26357,0.23967 -0.4228,0.35859c-0.32975,0.24627 -1.92901,0.08333 -3.01626,-0.05227c-1.07731,0.00426 -2.04897,-0.29773 -2.61275,-0.99399c-0.32623,-0.21608 -0.64799,-0.49487 -1.06632,-0.94964c-1.10602,-1.20235 -1.43553,-2.21761 -1.24895,-3.03051c-1.31859,-1.79238 -1.20908,-10.90044 0.26531,-12.16031c-0.03454,-0.11447 -0.05311,-0.23588 -0.05311,-0.36162c0,-0.3792 0.16885,-0.71896 0.43547,-0.9482c-0.00254,-0.36133 -0.03239,-0.71739 -0.10521,-1.06504c-0.19639,-0.93762 -1.23262,-1.57425 -1.3802,-2.52078c-0.00901,-0.05777 0.03191,-0.17956 0.09262,-0.3383c-0.23321,-0.31866 -0.38795,-0.71322 -0.43389,-1.18752c-0.21137,-0.22811 -0.40809,-0.47831 -0.58922,-0.74159c-0.76813,-0.00445 -1.59264,-0.24247 -2.10324,-0.32727l-0.05281,-0.04521l-0.00881,0.02643l-1.33629,-0.44544c-0.22847,-0.07027 -0.42903,-0.20425 -0.58094,-0.38122c-0.21281,-0.01268 -0.41959,-0.02406 -0.61549,-0.03185c-0.5766,1.07349 -1.4865,1.72146 -2.92183,1.31305c-0.20573,-0.05854 -0.37718,-0.17267 -0.52402,-0.32286c-0.35887,0.05231 -0.71955,0.09609 -1.08176,0.1326c-0.00558,0.02228 -0.01133,0.04473 -0.01724,0.06736c-0.38031,1.45611 -2.59893,1.39755 -3.82481,1.00762c-0.30235,0.14249 -0.60414,0.2161 -0.88859,0.204c-0.02773,0.03133 -0.05392,0.06132 -0.07841,0.08988l-0.04851,0.01933l0.01524,0.01524l-0.90909,0.90909c-0.2262,0.2262 -0.5387,0.36611 -0.88388,0.36611c-0.13205,0 -0.25931,-0.02048 -0.37879,-0.05842c-0.11948,0.03794 -0.24674,0.05842 -0.37879,0.05842c-0.61444,0 -1.12533,-0.44332 -1.23026,-1.02756l-0.29849,-1.49245l0.01537,-0.00307c-0.00459,-0.01052 -0.00914,-0.02107 -0.01364,-0.03164c-2.43583,0.00696 -4.83821,0.1399 -7.12502,0.76261c-0.40154,0.55727 -1.03807,0.89586 -2.03848,0.70842c-0.30041,0.12941 -0.59824,0.26991 -0.89325,0.4224c0.08806,0.46218 0.12578,0.93291 0.10042,1.40932c-0.005,0.09392 -0.00651,0.19216 -0.00605,0.29332c0.11033,0.85111 0.06057,1.6797 -0.15944,2.32561c-0.2638,0.77446 -0.46091,1.88785 -1.21798,2.15263c-0.0151,0.073 -0.03656,0.14369 -0.06379,0.21143l-0.44443,1.18515l-0.07765,-0.02912l0.00353,0.19074c-0.20085,0.26361 -0.43274,0.50015 -0.688,0.71288c-0.13905,0.17609 -0.29014,0.34954 -0.3922,0.5337l-0.0284,0.0202l0.01169,0.00732c0,0 -2.82018,4.39721 -2.99181,4.57v0.92007c0.32698,0.96995 0.81427,2.89312 0.59439,3.72916c-0.13608,0.51744 -0.35186,0.95543 -0.62926,1.32504c-0.05138,0.26153 -0.18445,0.51523 -0.42329,0.75455c-0.35462,0.35534 -0.78126,0.50382 -1.23877,0.51035c-1.6418,0.71326 -3.78643,0.65989 -5.38921,0.47847c-2.28726,-0.70163 -3.34673,-1.44997 -3.78805,-3.19182c-0.60919,-0.37962 -0.97496,-2.50114 -1.16381,-3.25828c-0.09851,-0.39496 -0.04615,-0.9663 0.10879,-1.61893c-0.38149,-2.07222 -0.22289,-4.22106 0.50563,-6.34834c-0.01042,-0.06494 -0.01583,-0.13155 -0.01583,-0.19943c0,-0.30226 0.10729,-0.57946 0.28585,-0.79561c0.0976,-0.38187 0.22715,-0.74242 0.51861,-0.98086c0.59947,-0.49042 1.13766,-0.76569 1.62078,-0.84938c0.01214,-0.30808 0.13578,-0.58751 0.33168,-0.79905c0.16068,-1.7483 1.17586,-3.8259 1.61692,-4.70879c1.5489,-3.10048 4.12772,-5.08364 7.04696,-6.58782c0.36058,-0.72628 0.7606,-1.43049 1.24987,-2.08431c1.54269,-2.06152 3.49159,-3.51095 5.72246,-4.56537c0.85206,-2.70276 2.51558,-4.67298 4.71373,-2.57954c0.03472,-0.07458 0.07615,-0.1465 0.12533,-0.21527c1.27832,-1.78736 2.89729,-1.25343 4.30837,-0.45287c0.45076,-0.05159 0.90541,-0.08576 1.36278,-0.10351c0.04446,-0.00464 0.08976,-0.00775 0.13594,-0.00927c0.07225,-0.00238 0.14286,-0.00271 0.21186,-0.00106c0.2756,-0.00571 0.55208,-0.00556 0.82916,0.0002c0.68029,-0.28686 1.58922,-0.30337 2.77711,0.0618c0.19919,0.06123 0.39675,0.15221 0.59095,0.26891c3.00059,0.5152 5.95002,1.58603 8.52114,2.94239c0.66779,0.03439 1.15441,0.35505 1.50743,0.85368c0.1114,0.06766 0.22186,0.1358 0.33132,0.20442zM294.25988,125.33651c0.03711,0.00929 0.07444,0.0187 0.11199,0.02823c-0.0108,-0.0181 -0.021,-0.03663 -0.03058,-0.05563c-0.02711,0.00907 -0.05424,0.01821 -0.08141,0.0274z" fill="url(#color-5)" stroke-width="0.5"/><path d="M325.45697,144.85459c0.88389,0.88389 0,1.76777 0,1.76777l-0.14202,0.13957c-3.57898,3.09956 -10.77295,2.24616 -14.66393,0.06185c0,0 -1.08531,-0.62017 -0.46513,-1.70548c0.62018,-1.08531 1.70548,-0.46513 1.70548,-0.46513c2.76074,1.61309 9.21176,2.6746 11.75117,0.25052l0.04667,-0.0491c0,0 0.88388,-0.88389 1.76776,0z" fill="#403210" stroke-width="0.5"/><path d="M312.40709,133.1952c-1.25,0 -1.25,-1.25 -1.25,-1.25v-0.18868c0.00146,-2.87433 -0.01126,-5.80696 0.19186,-8.67396c0,0 0.08905,-1.24683 1.33588,-1.15776c1.24683,0.08906 1.15776,1.33588 1.15776,1.33588c-0.20222,2.80652 -0.18703,5.68208 -0.1855,8.49585v0.18868c0,0 0,1.25 -1.25,1.25z" fill="#403210" stroke-width="0.5"/><path d="M324.28198,132.89962c-1.23744,0.17678 -1.41421,-1.06066 -1.41421,-1.06066l-0.1069,-0.83715c0.00164,-2.82451 -0.01963,-5.6908 -0.18652,-8.5115c0,0 -0.0734,-1.24784 1.17444,-1.32125c1.24784,-0.0734 1.32124,1.17444 1.32124,1.17444c0.16789,2.87019 0.18927,5.78414 0.19084,8.65831l0.08178,0.4836c0,0 0.17677,1.23744 -1.06066,1.41421z" fill="#403210" stroke-width="0.5"/><path d="M342.77359,139.16882c0.13962,0.3102 0.21606,0.65462 0.20428,1.03795c-0.01351,0.43949 -0.21258,0.86188 -0.53687,1.25103c0.73668,0.41021 1.09013,1.3144 0.98986,2.69886c-0.04462,0.61599 -0.92497,1.72157 -1.81978,2.72847c-0.09576,0.22984 -0.28106,0.41113 -0.51176,0.56551c-0.51853,0.56455 -0.98613,1.05387 -1.2289,1.34343c-3.24088,2.72133 -5.64328,5.77937 -9.5394,7.24284c-0.53257,0.58446 -1.45909,1.06632 -2.32406,1.49106c-0.23488,0.47857 -0.67811,0.9375 -1.39346,1.35291c-0.45675,0.26523 -1.10948,0.36082 -1.83802,0.35589c-0.43577,1.20355 -1.35309,2.13772 -3.04952,2.62368c-1.09636,0.31407 -3.22864,0.56061 -4.46866,-0.18991c-0.01731,0.0102 -0.03481,0.02018 -0.05248,0.02994c-1.33409,0.73651 -2.67061,0.28107 -3.40645,-0.68298c-0.09633,0.02029 -0.19484,0.04174 -0.2957,0.06495v0.01322h-1.45162c-0.57416,0 -1.05791,-0.38711 -1.20448,-0.91458c-1.16755,-0.41503 -2.23818,-1.0932 -3.22622,-1.92791l-0.5466,-0.06832c-0.62514,-0.06895 -1.1114,-0.5989 -1.1114,-1.24241c0,-0.09215 0.00997,-0.18198 0.0289,-0.26845c-1.18689,-1.29556 -2.2438,-2.75739 -3.20388,-4.13899c-0.84355,-0.48856 -1.48374,-1.11781 -1.73776,-1.90792c-0.06951,-0.21621 -0.11056,-0.43004 -0.12587,-0.64051c-2.32052,-2.45551 -3.8415,-5.50454 -5.34105,-8.51221l0.00224,-0.07081l-0.02686,0.01007l-0.25329,-0.67545c-0.54816,-0.13247 -0.95533,-0.62622 -0.95533,-1.21507c0,-0.01965 0.00045,-0.03919 0.00135,-0.05861c-1.02602,-0.71252 -1.41706,-1.98242 0.2327,-3.56211c1.03831,-0.99421 4.85548,-0.53252 6.17724,-0.53252c2.59597,0 5.16514,-0.22179 7.73275,-0.43252c1.07079,-0.36352 2.20234,-0.611 3.35734,-0.84166l0.04762,0.01304l-0.00244,-0.01952l1.27076,-0.15885c0.05706,-0.00797 0.11535,-0.0121 0.1746,-0.0121c0.05466,0 0.10849,0.00351 0.16129,0.01031c0.0528,-0.0068 0.10663,-0.01031 0.16129,-0.01031c0.04584,0 0.09109,0.00246 0.13565,0.00727c0.22843,-0.29857 0.58841,-0.49114 0.99338,-0.49114h1.29032v0.13567l0.29933,0.03326l-0.00506,0.04549l0.01356,-0.04451c0.29285,0.0366 0.56645,0.07059 0.82372,0.10407c1.62508,-0.11888 3.26803,0.06568 4.93142,0.29731c0.22436,-0.01252 0.44879,-0.02409 0.67324,-0.03464c0.11417,-0.03433 0.23521,-0.05279 0.36057,-0.05279c0.08809,0 0.17405,0.00911 0.25699,0.02644c0.61131,-0.02336 1.22261,-0.03847 1.83324,-0.0435c0.22912,-0.28466 0.58043,-0.46681 0.97429,-0.46681c0.40346,0 0.76228,0.19115 0.99083,0.48782c2.43208,0.075 4.84245,0.34256 7.18992,0.9196c0.16064,-0.07513 0.33988,-0.1171 0.52893,-0.1171c0.43201,0 0.81284,0.21917 1.03737,0.55238c0.16401,0.05106 0.32765,0.1038 0.49093,0.15827c1.18464,0.39518 5.08902,1.32209 5.7432,2.34555c0.34763,0.54386 0.51159,0.99508 0.54782,1.38794zM306.84267,144.8391c0.24885,0.24209 2.89188,3.51675 2.60498,3.74579c3.34487,2.82658 11.81196,1.82222 14.66684,1.19154c1.37482,-0.5113 3.04903,-1.19446 3.80115,-2.51101c0.2413,-0.42239 1.14249,-3.08669 1.12288,-3.43346c-3.17208,0.21183 -14.10841,-0.59436 -14.10841,-0.59436c-1.75943,-0.12029 -3.62577,-0.0644 -3.62577,-0.0644c-0.2262,0.2262 -2.95719,0.49585 -3.03177,0.48198c-0.50078,0.34843 -0.97875,0.74143 -1.42991,1.18392z" fill="url(#color-6)" stroke-width="0.5"/><path d="M342.11113,144.24047c0.01817,-0.00454 0.03614,-0.00875 0.05391,-0.01262c0.0755,-0.23198 0.11031,-0.47612 0.06948,-0.74124c-0.14483,-0.9402 -1.34694,-1.89279 -0.86437,-2.94341c0.3771,-0.82101 1.2929,-1.38045 2.15851,-1.63925c0.52532,-0.15707 1.34512,0.89889 1.59302,0.40983c1.02137,-2.01499 0.5868,-4.96022 0.59,-7.12484c-0.2894,-2.60455 -0.18066,-5.24978 -1.38096,-7.68372c-0.64579,-1.30952 -1.97429,-2.0548 -2.49101,-3.49003c-1.06134,-2.94797 -1.01873,-5.23609 -3.4911,-7.70846c-1.59597,-1.59597 -3.25583,-2.71805 -4.61534,-4.62137c-5.95803,-5.91527 -16.74297,-8.53094 -24.60719,-5.57126c-1.30671,0.49513 -1.06902,1.64854 -2.34452,2.59553c-1.37644,1.02193 -3.12031,1.19767 -4.39246,2.44559c-0.97111,0.95261 -1.1217,2.40294 -2.14888,3.36015c-1.31161,1.22227 -3.22251,1.6516 -4.5577,2.89015c-2.22312,2.06222 -3.53503,4.50381 -4.18478,7.44191c-0.25303,0.63245 -0.29893,1.39508 -0.7591,1.89735c-0.58773,0.6415 -1.78872,0.34923 -2.44045,0.9256c-0.6381,0.56433 -0.28416,3.59822 -0.24185,4.35002c0.31204,5.54439 0.78101,8.0367 6.31203,10.11083c0,0 0.35446,0.13293 0.6001,0.44754c0.08417,0.08413 0.12967,0.14784 0.12967,0.14784c1.56901,2.19661 2.91558,4.44649 4.29614,6.74846c0.5669,0.94526 1.05584,2.60944 1.89127,3.35629c0.68754,0.61464 1.63064,0.9346 2.23405,1.63202c2.04725,2.3662 2.69404,4.96049 5.9796,5.69061c1.28849,0.65065 2.67287,2.62176 4.04723,2.82681c1.4119,0.21065 2.62413,-0.54819 4.09091,-0.30303c1.31621,0.21999 3.128,1.70123 4.54701,1.25169c1.44631,-0.45818 2.3478,-2.62033 3.81178,-3.2846c2.59707,-1.17839 4.36518,-1.80361 6.75223,-3.51189c2.82516,-2.01797 6.88062,-3.92493 8.25923,-7.26031c-0.05409,-0.4548 0.18333,-0.85049 0.18333,-0.85049l0.14345,-0.23657l-0.13275,-0.02926c0,0 -0.30317,-1.21268 0.90951,-1.51585zM334.20145,156.16729c-2.48454,1.77101 -4.42404,2.61741 -7.18716,3.76083c-1.63933,0.67838 -2.27732,2.82616 -4.06701,3.38207c-2.13822,0.66416 -3.81993,-0.80243 -5.75602,-1.17255c-1.39449,-0.26658 -2.63199,0.58118 -4.09091,0.30303c-2.01078,-0.38337 -2.73689,-2.09473 -4.43762,-2.93077c-3.78939,-0.84209 -4.79722,-3.68442 -7.0507,-6.4306c-0.51746,-0.6306 -1.41515,-0.83837 -2.00838,-1.39829c-2.71221,-2.55992 -4.24476,-7.19131 -6.41415,-10.32259c-2.5283,-0.96122 -5.59128,-2.32201 -6.76533,-4.94165c-0.83671,-1.86694 -0.60208,-3.9324 -0.71251,-5.8945c-0.10397,-1.84728 -0.48923,-3.99174 0.03236,-5.81438c0.69362,-2.4238 3.02191,-1.74335 3.34442,-3.52781c0.75304,-3.3729 2.34443,-6.26366 4.90612,-8.6187c1.33254,-1.22505 3.23758,-1.68981 4.53321,-2.86743c0.95837,-0.87108 1.15632,-2.35712 2.09355,-3.30651c1.37036,-1.38814 3.16219,-1.68226 4.69845,-2.70593c1.39594,-0.93018 1.05973,-1.8845 2.80699,-2.85902c8.9164,-3.33419 20.79292,-0.51554 27.51403,6.24692c2.33882,3.27434 5.81211,5.33492 7.72518,9.00811c0.73161,1.40471 0.36249,2.733 0.83504,4.11661c0.41303,1.20932 1.78046,2.03407 2.35747,3.17664c1.38678,2.74604 1.32142,5.72855 1.64934,8.67992c0.00311,2.32909 0.67863,7.13057 -1.22818,8.93577c-0.57407,0.54348 -1.35679,0.92098 -2.14112,1.01972c-0.11972,0.01507 -0.28462,-0.0523 -0.45244,-0.15264c0.89225,1.2935 0.02083,3.4339 -0.55074,4.61316l-0.14477,0.24335c-1.26123,4.59277 -5.80954,6.82894 -9.48914,9.45723z" fill="#000000" stroke-width="0.5"/></g></g></g></svg>