<svg version="1.1" xmlns="http://www.w3.org/2000/svg" xmlns:xlink="http://www.w3.org/1999/xlink" width="161.51773" height="247.23136" viewBox="0,0,161.51773,247.23136"><g transform="translate(-145.40219,-55.78394)"><g data-paper-data="{&quot;isPaintingLayer&quot;:true}" fill-rule="nonzero" stroke-linecap="butt" stroke-linejoin="miter" stroke-miterlimit="10" stroke-dasharray="" stroke-dashoffset="0" style="mix-blend-mode: normal"><g stroke="#000000" stroke-width="0"><path d="M229.77985,114.04157c-1.62491,-0.81245 -0.81245,-2.43738 -0.81245,-2.43738l1.00781,-1.38052c3.89706,-2.31028 7.45377,-2.47592 10.54454,-0.48195l0.22939,0.03824l0.3054,-0.50903l1.55938,0.93562c0.54423,0.31381 0.91057,0.90157 0.91057,1.57494c0,1.00333 -0.81334,1.8167 -1.8167,1.8167c-0.11353,0 -0.22464,-0.01042 -0.33243,-0.03033l-1.75992,-0.29331c-1.08258,0.0032 -2.16517,0.00492 -3.24775,0.00564c0.19882,0.53775 0.28616,1.168 0.29261,1.84553l0.02868,0.02528c0.264,0.77997 1.61522,4.55127 1.42339,5.10597c-0.03694,0.10685 -0.07417,0.21098 -0.11169,0.31247c1.07762,0.40985 1.07759,1.69237 1.07759,1.69237l-0.88201,2.51058c-4.15024,1.7264 -5.72622,-0.39147 -6.02331,-3.43655c-1.12269,-2.05772 -1.79298,-4.95726 -1.44883,-7.06822c-0.27638,0.01199 -0.59115,-0.04947 -0.9443,-0.22602z" fill="#000000"/><path d="M254.86905,109.20382c0.19557,-0.09316 0.39084,-0.17986 0.58588,-0.2604l1.19824,-1.17703c1.80306,-0.28002 5.24614,-0.57512 6.98114,0.47067c0.40146,0.04878 0.80701,0.10331 1.21736,0.16115l0.0193,0.01269l0.00155,-0.00935l1.87604,0.31267c0.87568,0.13008 1.54749,0.88502 1.54749,1.79688c0,1.00333 -0.81337,1.8167 -1.8167,1.8167h-1.9055v-0.29253l-0.28358,-0.04726c-1.03392,-0.14996 -2.08272,-0.30763 -3.11976,-0.36787c2.23537,2.52136 3.05926,7.14874 0.52936,8.70456c-0.30554,0.18789 -0.71639,0.2355 -1.18078,0.19032c-2.54294,4.13711 -5.44683,0.84653 -6.29663,-3.12931c-1.65097,-1.72507 -1.55889,-3.79387 -0.17498,-5.76283c-0.79121,-1.61272 0.82151,-2.41909 0.82151,-2.41909zM258.21735,113.48534c-0.0061,0.01557 -0.01241,0.03355 -0.01889,0.05373c0.07524,-0.06019 0.15047,-0.12038 0.2257,-0.18055c-0.06601,-0.08558 -0.13414,-0.05864 -0.20681,0.12683z" fill="#000000"/><path d="M256.96988,126.07284c1.68677,0.6747 1.01205,2.36147 1.01205,2.36147l-0.59365,1.40675c-2.53519,3.94485 -4.70882,4.3556 -9.14028,3.26054c0,0 -1.76243,-0.44063 -1.32182,-2.20307c0.44061,-1.76244 2.20308,-1.32183 2.20308,-1.32183c2.90105,0.73504 3.57548,1.0042 5.1779,-1.66133l0.30124,-0.83045c0,0 0.67469,-1.68677 2.36146,-1.01207z" fill="#000000"/><path d="M226.79615,205.59714c0,-1.00333 0.81337,-1.8167 1.8167,-1.8167c1.00333,0 1.8167,0.81337 1.8167,1.8167c0,1.00333 -0.81337,1.8167 -1.8167,1.8167c-1.00333,0 -1.8167,-0.81337 -1.8167,-1.8167z" fill="#261400"/><path d="M224.66737,217.30553c0,-1.00333 0.81337,-1.8167 1.8167,-1.8167c1.00333,0 1.8167,0.81337 1.8167,1.8167c0,1.00333 -0.81337,1.8167 -1.8167,1.8167c-1.00333,0 -1.8167,-0.81337 -1.8167,-1.8167z" fill="#261400"/><path d="M267.81304,288.19808c-2.09722,-0.77718 -4.1696,-1.67009 -6.21526,-2.6905c0,0 -1.62491,-0.81245 -0.81245,-2.43736c0.35726,-0.7145 0.8716,-0.95774 1.33581,-1.006c-0.21125,-0.35955 -0.38726,-0.73379 -0.52379,-1.12344c-2.14337,-6.11729 -1.5059,-13.97006 -2.00534,-20.92487c-0.34619,-0.41339 -0.44328,-0.89878 -0.44328,-0.89878l-0.00007,-0.00002c-0.0217,-0.11172 -0.04426,-0.22306 -0.06768,-0.33403c0.05595,1.65823 0.0515,3.14284 0.0569,4.18814v2.40594c0,0.73903 -0.44131,1.37503 -1.07476,1.6588c1.40985,6.95684 3.14177,14.65267 0.8598,19.64896c-0.29155,0.63835 -1.26747,1.39083 -2.38491,2.10963c0.50583,0.32253 0.84132,0.88855 0.84132,1.53292c0,0.70127 -0.39733,1.30973 -0.97917,1.61255l-2.18301,1.19073l-0.09373,-0.17185c-5.18661,4.83801 -12.15192,8.88191 -19.03326,9.04425c-2.33243,0.45459 -4.63539,0.7723 -6.71731,1.00552c0,0 -1.80559,0.20063 -2.00621,-1.60496c-0.07244,-0.65194 0.11668,-1.09465 0.38791,-1.39421c-0.02294,-0.01258 -0.04587,-0.02522 -0.06879,-0.03793l-1.24317,-0.52247c0,0 -1.6698,-0.71564 -0.95417,-2.38545c0.02564,-0.05984 0.05251,-0.11661 0.08048,-0.17046c-0.64837,-3.59366 3.9299,-8.83618 7.75883,-11.99621c-0.28888,-0.43809 -0.55932,-0.95847 -0.81022,-1.56881c-1.67636,-6.69049 -2.93281,-13.32602 -3.66777,-20.13496c-1.0774,-9.98144 -5.46332,-19.54302 -5.97893,-29.63878c-0.49633,-0.40948 -0.97746,-0.8459 -1.44222,-1.31017c-3.15202,-4.70591 -3.21641,-13.29732 -4.27787,-17.19432c-4.82123,-0.28036 -16.60929,-2.86616 -23.54681,-2.38741c1.40909,-8.57738 7.28183,-21.64101 9.80084,-33.27224c-0.43249,-0.53067 -0.43249,-1.2285 -0.43249,-1.2285l0.09323,-1.77746c0.80926,-2.31489 0.09573,-4.6834 1.34554,-6.93694c3.1386,-5.65919 10.51612,-7.09247 15.77227,-9.73502c1.73705,-0.8733 3.95304,-3.03217 5.56392,-3.67952c0.3318,-0.13334 2.94686,-0.14353 4.48965,-0.14101c0.13456,-0.49538 0.28706,-0.99558 0.45558,-1.49999c0.02185,-0.06535 0.70646,-1.46712 1.59366,-3.03822c-0.44466,0.04069 -0.88982,-0.02902 -1.3314,-0.23414c-0.61613,-0.28621 -0.94912,-1.53884 -1.05611,-3.03655c-0.64433,-0.08888 -1.27954,-0.18377 -1.90345,-0.28399c-0.5907,0.75417 -1.19667,1.48301 -1.86074,2.18445l0.34634,0.20779l-0.93563,1.55938c-0.31381,0.54423 -0.90159,0.91055 -1.57493,0.91055c-1.00335,0 -1.8167,-0.81335 -1.8167,-1.8167c0,-0.18782 0.02848,-0.36901 0.08141,-0.53944l0.59493,-2.08225c0.0592,-0.46183 0.13475,-0.92141 0.22253,-1.37895c-0.5087,-0.11668 -1.00212,-0.23632 -1.47841,-0.35833c-0.99892,0 -2.1555,-0.01465 -3.37746,-0.08073l-0.04605,0.03057l0.02687,0.01793l-1.25471,1.88205c-0.32347,0.50086 -0.88662,0.83244 -1.52721,0.83244c-1.00335,0 -1.8167,-0.81335 -1.8167,-1.8167c0,-0.33948 0.09311,-0.65721 0.25521,-0.92903l0.26422,-0.46239c-0.51444,-0.09074 -1.02299,-0.19686 -1.51932,-0.32088c-0.88454,0.35726 -1.80347,0.72051 -2.81947,1.15901l0.25138,-0.06763c0,0 -1.1608,1.1608 -2.37893,0.17206c-0.44085,0.14863 -1.00749,0.14114 -1.62847,-0.35566c-0.97734,-0.78188 -0.74266,-1.69842 -0.50211,-2.19295c-1.89249,-0.53077 -3.28067,-1.52242 -3.0024,-3.39442l-0.00003,0.00005c0.0398,-0.26775 0.24327,-0.55528 0.56318,-0.84322c-2.02722,-0.14665 -3.75575,-0.5731 -4.27148,-1.59726c-0.70503,-1.40009 0.19001,-2.74297 1.72071,-3.79489c-0.31974,-0.47268 -0.63558,-0.95255 -0.94687,-1.43824c-2.81225,-0.64643 -5.12,-1.84346 -5.03565,-4.17303c0.02263,-0.6249 0.59884,-1.3322 1.47328,-2.01904c-0.24477,-0.4759 -0.48322,-0.95194 -0.71476,-1.42705h-1.80517c-1.00335,0 -1.8167,-0.81337 -1.8167,-1.8167c0,-0.43461 0.1526,-0.83355 0.40713,-1.14619l1.12131,-1.40165c-0.63008,-0.08902 -1.25883,-0.20727 -1.88898,-0.35804l-0.12237,0.55068l-2.82332,-0.62741c-0.83132,-0.16672 -1.45752,-0.90082 -1.45752,-1.78119c0,-0.68785 0.38228,-1.28644 0.94597,-1.59485l2.19249,-1.25282l0.0071,0.0124l0.03701,-0.03679c0.3506,-0.1753 0.80576,-0.39427 1.339,-0.63829l-0.40595,-0.80123c-12.09236,-5.88953 -18.20326,-22.71681 -7.63915,-33.59993c1.49153,-1.48473 2.14632,-3.13802 4.09838,-3.65009c-0.21435,0.035 -0.45183,0.06387 -0.58374,0.05164c-0.35671,-0.03308 -3.82956,-0.92104 -3.86395,-0.94011c-4.00485,-2.22129 -4.07263,-2.23095 -1.06182,-5.58528c3.52444,-3.92659 15.2657,-8.08913 20.45219,-5.82582c3.19519,1.39436 2.23607,3.83069 5.91261,3.92472c2.01697,-1.0718 3.5741,-2.72481 5.54895,-3.83004c5.26824,-2.94833 19.84098,-7.49483 20.4658,0.56919c0.88975,-0.58551 1.86134,-1.07512 2.49939,-1.50064c3.91431,-2.61048 9.02551,-5.75288 13.83259,-6.31313c2.61132,-0.30434 13.0166,-2.13785 15.2275,-0.2441c0.24475,0.20965 1.60497,1.96986 1.83555,3.23816c0.5188,-0.22261 1.0368,-0.40287 1.382,-0.4659c1.69399,-0.30927 3.46905,-0.10333 5.13961,-0.52096c4.85316,-0.02965 16.41895,-2.22122 18.96165,3.11506c2.03001,4.26031 -1.71582,13.39042 -4.21906,16.81152c-1.13691,1.55376 -2.50341,2.48624 -4.29269,3.12826c0.0913,0.02674 0.17474,0.05024 0.24869,0.06867c2.77609,0.69476 8.44569,1.12471 9.32696,4.74861c0.79417,3.26577 -5.06133,12.13093 -10.17221,14.85699c2.91612,-0.44478 6.62997,-0.57677 7.38494,2.31486c0.27004,1.03423 -1.89625,3.32214 -4.40494,5.38312c0.55881,0.30983 0.93705,0.90569 0.93705,1.5899c0,0.40142 -0.1302,0.77244 -0.35067,1.07314l-1.57563,2.20588l-0.01346,-0.00959l-0.01587,0.04949c-0.83728,1.04731 -2.12435,3.18438 -3.50563,5.02971c-0.14941,0.80421 -0.33137,1.59201 -0.55165,2.35803c0.37654,0.33287 0.61398,0.8195 0.61398,1.36158c0,0.72522 -0.42496,1.35119 -1.03945,1.64249l-0.94314,0.47159c-0.34697,0.66383 -0.73871,1.29888 -1.18051,1.90023c-0.76335,1.03901 -1.63581,1.96285 -2.5669,2.82322c0.74332,0.22772 1.28383,0.91937 1.28383,1.73728c0,0.91187 -0.67182,1.66681 -1.54751,1.79691l-1.80035,0.30004c-1.6182,0.46021 -2.75589,0.98371 -3.85836,1.70232c1.81426,-0.24247 5.17432,-0.60571 5.99315,0.9802c2.80576,5.4343 -9.58043,8.78907 -13.21744,5.38774c-0.20153,0.14715 -0.39807,0.30528 -0.58997,0.47322c0.9123,0.40246 1.01314,1.51169 1.01314,1.51169c0.3016,3.51728 -0.34512,6.45059 -1.72686,9.22583c17.11871,0.54271 28.6588,11.0622 35.28239,22.47466c2.27197,3.91461 3.76679,10.19742 4.23793,13.51115c0.33925,2.38604 -0.87593,6.91774 -0.37478,19.8891c0.13078,5.9344 -3.45538,5.9991 -5.58594,7.01485c-4.07617,1.94336 -8.91838,0.35165 -10.30135,-1.95331c-3.21752,-5.36251 -0.11157,-14.91358 -1.86971,-6.46875c-0.86052,7.63653 -2.36494,10.40986 -7.48962,14.25339c-0.52132,0.52132 -1.07341,1.04092 -1.65368,1.55698c1.08958,14.43925 8.84396,28.61273 8.89645,43.38499c-0.0068,1.39353 -0.74058,3.08114 0.11775,4.17901c1.02958,1.31694 7.39709,1.88244 9.02575,2.58039c6.07385,2.60291 15.76004,12.59573 8.32283,16.21244c-0.06162,0.49636 -0.32347,0.93062 -0.7022,1.21941l-1.79782,1.3983l-0.47626,-0.61233c-7.92753,6.16192 -20.14578,-0.084 -29.27289,-4.56228zM261.20594,241.38728c0,1.8167 -1.8167,1.8167 -1.8167,1.8167h-0.80559c-0.41199,0 -0.81751,-0.00036 -1.21866,0.00119c0.01874,0.44368 0.0448,0.88841 0.07677,1.33401l0.78951,1.18426l-0.06588,0.04394l0.18628,0.16562c0.93725,2.75908 2.12217,5.3516 3.08344,8.04143c1.08288,0.25593 1.28695,1.48034 1.28695,1.48034c0.96191,5.8286 1.8197,11.88111 1.82918,17.74174c0.00223,1.36858 -0.13095,6.81672 1.09048,7.57855c4.688,2.92399 10.06907,4.92175 15.64532,6.31584c2.88194,1.00297 5.68762,0.26793 8.69336,0.53789c1.85221,0.16636 3.69653,0.82122 5.54484,0.61611c5.49861,-0.61027 3.90539,-3.83292 0.90517,-6.45808c-4.03872,-3.53387 -13.38728,-3.63977 -16.38278,-7.35591c-1.38212,-1.71463 -1.07694,-4.68601 -1.08523,-6.64772c0.0559,-13.91403 -6.72552,-27.13853 -8.56661,-40.7109c-12.01965,8.9021 -31.67794,15.57264 -44.69311,8.98309c0.99989,9.01686 4.72974,17.7151 5.75322,26.69395c0.75361,6.61126 1.92696,13.05526 3.55008,19.56307c0.03113,0.22556 0.07717,0.40954 0.13605,0.55722c0.44287,-0.26163 0.83404,-0.4556 1.15411,-0.56979c0,0 0.71031,-0.23677 1.3709,0.04968c0.20851,-0.15742 0.41161,-0.3102 0.60179,-0.43928l-0.80896,0.30863c0,0 0,-1.8167 1.8167,-1.8167c1.8167,0 1.8167,1.8167 1.8167,1.8167l-0.80899,2.71456c-1.81851,1.19491 -3.483,1.95928 -4.93546,1.8907c-1.69985,1.25754 -3.02868,3.20403 -4.21297,4.86483c-0.58204,0.81621 -1.2049,1.60249 -1.80446,2.40594c-0.46689,0.6257 -2.17865,1.80338 -1.4014,1.87653c9.67209,0.91029 14.77093,-5.4237 23.17963,-8.16667c0.70357,-0.47758 4.38268,-2.21841 4.60979,-2.83417c0.81793,-2.21739 -0.27541,-7.32666 -0.77217,-9.57096c-1.22843,-5.54985 -1.82559,-12.14129 -1.84873,-17.84008v-2.40749c0,0 0,-1.33677 1.1467,-1.71695c-0.34691,-2.13555 -0.55737,-4.23591 -0.26674,-6.33655l-0.82572,-0.20643l0.59226,-2.3691c0.0224,-0.09878 0.0529,-0.19453 0.09069,-0.28648c-0.0236,-0.29991 -0.04475,-0.59994 -0.06297,-0.90011c-0.63782,0.05547 -1.28128,0.13412 -1.93945,0.24564c0,0 -1.79198,0.29866 -2.09064,-1.49331c-0.29866,-1.79198 1.49332,-2.09064 1.49332,-2.09064c0.93898,-0.1542 1.85214,-0.25288 2.76026,-0.31599c0.24599,-0.40856 0.69627,-0.78247 1.52045,-0.78247l0.00002,-0.00007c0.75271,0 1.19355,0.31188 1.45174,0.67718c0.53124,-0.00539 1.06831,-0.00617 1.61519,-0.00617h0.80559c0,0 1.8167,0 1.8167,1.8167zM231.84115,176.92438h0.90681c4.88966,0.00278 9.64369,1.21266 14.49595,1.20912c4.41249,-0.00322 7.36568,-1.29295 10.70747,-0.09152l0.28149,-0.67558l1.25194,0.52164c2.96355,-4.39984 8.06526,-5.26784 13.22183,-1.00608c0,0 1.39564,1.16303 0.23262,2.55864c-1.16303,1.39564 -2.55865,0.23261 -2.55865,0.23261c-4.61606,-3.88387 -8.28856,-1.93815 -9.47496,4.28967c-0.0127,0.06666 -0.02521,0.13337 -0.03752,0.20011c0.19572,0.11162 0.39391,0.22916 0.59479,0.35255c1.89598,1.16458 4.81539,2.57054 2.59691,5.93514c-0.47929,0.72692 -2.13188,0.86041 -3.8701,0.78149c-0.16438,7.50612 1.1103,15.21758 1.10465,22.62588c-0.20384,1.84492 -0.42694,3.68921 -0.73154,5.5202l-0.35479,2.1288c0,0 -0.29866,1.792 -2.09063,1.49333c-1.79199,-0.29866 -1.49333,-2.09063 -1.49333,-2.09063l0.35478,-2.12881c0.28384,-1.6997 0.49618,-3.41123 0.68766,-5.1238c-0.00334,-4.14985 -0.41365,-8.41276 -0.74402,-12.68502l-0.31534,1.69947c-2.50099,0.99087 -3.01209,2.06811 -2.82865,3.78026l0.92412,1.84822c0.13291,0.25245 0.20815,0.54003 0.20815,0.84516c0,1.00333 -0.81337,1.81669 -1.8167,1.81669c-0.11353,0 -0.22464,-0.01041 -0.33243,-0.03035l-1.98689,-0.33115c-2.25329,-0.02587 -3.94137,0.26805 -5.85089,-1.75265c-2.01717,-2.1346 -4.20471,-13.13634 -7.67047,-7.30587c-0.24971,5.15661 -0.79223,10.31997 -0.79223,15.40888c0,4.56544 -1.12047,9.08895 -1.06439,13.48238l-0.44802,1.63888c0,0 -0.57449,1.72347 -2.29796,1.14898c-1.72347,-0.57449 -1.14898,-2.29796 -1.14898,-2.29796l0.26158,-0.4899c0.04348,-4.48558 1.06439,-8.85748 1.06439,-13.48238c0,-4.28792 0.33328,-8.56194 0.56952,-12.83927c-0.96639,-0.79959 -0.42264,-2.06835 -0.42264,-2.06835c0.21738,-0.49252 0.3895,-1.01013 0.58837,-1.51292c0.04816,-1.38706 0.07352,-2.77499 0.06145,-4.16436c-1.64479,0.89214 -3.77523,0.67479 -6.23935,-1.49282c-0.44686,-0.39309 -0.85489,-0.8282 -1.22966,-1.29657c-0.00875,0.00012 -0.01748,0.00019 -0.02623,0.00019c-0.96171,0 -1.74887,-0.74727 -1.81253,-1.69285c-1.83455,1.56379 -1.95799,5.52691 -2.52516,7.77058c-0.19025,0.75255 -0.37574,1.54139 -0.55259,2.35968c0.60682,0.53552 0.60682,1.4101 0.60682,1.4101l-0.09323,1.17598c-0.42382,1.22758 -0.95997,2.49389 -1.58949,3.77556c-0.9169,7.54529 -0.61613,15.96712 3.05714,21.53739c0.12732,-0.02318 0.26625,-0.03583 0.41779,-0.03583c1.8167,0 1.8167,1.8167 1.8167,1.8167c-0.0001,0.06085 -0.00003,0.1217 0.00019,0.1825c5.6244,4.20995 11.26659,3.23566 18.21624,1.65833c9.12339,-2.0707 18.77203,-4.80372 26.32007,-10.78608c-0.0304,-0.62618 -0.04779,-1.25328 -0.05103,-1.8815v-1.20297c0,0 0,-1.8167 1.8167,-1.8167l-0.00005,0.00005c1.66458,0 1.80395,1.5252 1.81563,1.78063c9.00335,-7.30814 7.12655,-19.1446 -4.41826,-22.99287l-2.014,-1.32335c0,0 -1.51159,-1.00771 -0.50388,-2.51931c1.00771,-1.51159 2.51933,-0.50387 2.51933,-0.50387l1.59489,1.08258c1.75414,0.58471 3.32216,1.34545 4.70101,2.24609c0.57926,-1.70591 2.29314,-1.13461 2.29314,-1.13461l2.33269,0.88123c4.97325,6.91293 6.47823,11.32942 10.26382,18.94573c4.94751,-1.18246 4.34805,-0.24271 6.62145,-2.45469c0.30948,-4.59787 0.67042,-11.1165 0.71938,-21.40835c0.00146,-0.30626 -0.7898,-4.67971 -4.80019,-12.38919c-4.32927,-8.32249 -16.08703,-20.40181 -33.1547,-20.33406c0,0 -0.19439,-0.00003 -0.45599,-0.06361c-0.26139,0.35944 -0.53402,0.71936 -0.81737,1.08069c-0.67787,0.86436 -5.37198,5.44017 -5.18442,6.13735c0.41207,1.53189 5.14502,3.20739 6.3945,3.75521l0.13574,0.24695l0.07799,-0.09362l1.43878,1.19897c0.40561,0.33318 0.66433,0.83864 0.66433,1.40451c0,1.00335 -0.81336,1.8167 -1.81671,1.8167c-0.27679,0 -0.53912,-0.06189 -0.77391,-0.17261l-2.13806,-0.95026l0.09628,-0.21667c-1.18037,-0.24516 -2.31104,-0.61043 -3.86148,-1.19185l-1.24468,-0.49741c0,0 -1.60926,-0.64371 -1.05534,-2.24549c-0.78981,-0.77134 -1.36153,-1.63661 -1.52132,-2.5921c-0.40597,-2.42762 3.13145,-5.56007 4.52113,-7.20156c0.67767,-0.80049 1.32297,-1.58823 1.91681,-2.37997l-0.11621,0.14509c-0.48777,0.56909 -1.04742,1.06817 -1.65056,1.51861l0.20112,0.1724l-1.44176,1.68204c-0.33326,0.39354 -0.83096,0.64337 -1.38701,0.64337c-1.00335,0 -1.8167,-0.81334 -1.8167,-1.81669c0,-0.33948 0.09311,-0.65719 0.25518,-0.92904l0.89634,-1.56858c0.30431,-0.80814 0.54709,-1.46748 0.73363,-1.99714c-1.83138,2.2538 -4.41117,4.52012 -5.26424,5.4943l-0.0584,0.02711l0.01635,0.01637l-1.44943,1.44941c-0.32878,0.32878 -0.78293,0.53209 -1.2846,0.53209c-1.00335,0 -1.81669,-0.81334 -1.81669,-1.81669c0,-0.23298 0.04384,-0.45571 0.12378,-0.66041l0.9519,-2.61772l0.0466,0.01693c0.03744,-0.12523 0.08001,-0.24928 0.12838,-0.37199c0.09992,-0.25341 0.33911,-0.59748 0.68252,-1.00119c-0.63393,0.28808 -1.26471,0.56553 -1.86749,0.81895c-0.63182,1.10303 -1.34951,2.0713 -1.78095,2.66929l-0.2602,0.1161l0.05077,0.06767l-1.9179,1.43842c-0.3061,0.23481 -0.68911,0.37433 -1.1047,0.37433c-0.9823,0 -1.78249,-0.77961 -1.81563,-1.75384l-0.33069,0.14173c-0.2293,0.10449 -0.48411,0.1627 -0.75254,0.1627c-0.79423,0 -1.46942,-0.50969 -1.71634,-1.2198c-0.62206,3.27248 0.04009,6.63165 2.77228,8.55392l0.7228,0.33655c0,0 1.62491,0.81245 0.81246,2.43736c-0.81245,1.62491 -2.43736,0.81246 -2.43736,0.81246l-1.20975,-0.62972c-3.47234,-2.5107 -4.64687,-5.72731 -4.43374,-9.34007c-6.46294,0.92976 -18.96548,6.494 -22.01182,11.57446c-0.95541,1.59337 -0.48619,4.21263 -1.00153,6.09745c0.83004,0.6373 0.60058,1.78456 0.60058,1.78456c-2.38903,11.87692 -8.37957,22.77927 -10.17412,34.55809c-0.01334,0.08755 6.78342,0.44733 9.49788,-0.20884c8.54991,-3.12616 8.08382,-0.22446 11.16535,-6.12207c0.38519,-3.03784 0.95708,-5.95332 1.60564,-8.57358c1.02058,-4.12316 1.26286,-8.49048 5.10089,-10.50447c-0.69267,-1.88154 -1.23293,-3.81289 -1.80008,-5.5138c0,0 -0.21366,-0.64098 0.01051,-1.27142c-0.51415,-0.08793 -1.52288,-0.43291 -1.52288,-1.78664c0,-1.8167 1.8167,-1.8167 1.8167,-1.8167c1.90483,0.00244 6.18482,-0.97086 8.97059,-0.68028c0.48224,-0.27546 0.99881,-0.27546 0.99881,-0.27546zM256.92489,182.22245c0.00128,0.06774 -0.00022,0.13666 -0.00463,0.20681c-0.00561,0.08928 -0.02073,0.17608 -0.04457,0.26043c0.18838,0.02246 0.37832,0.05309 0.57009,0.09177c0.05471,-0.2349 0.11316,-0.46567 0.17526,-0.69223c-0.20828,0.04191 -0.44123,0.08656 -0.69616,0.13322zM235.76759,183.42537c0.00006,-0.1348 0.0148,-0.26614 0.04272,-0.39256l-0.07241,-0.01207c0.00904,0.07342 0.01368,0.14819 0.01368,0.22406l-0.00002,-0.00002c0,0.07824 -0.00496,0.15534 -0.01455,0.23098c0.01001,-0.01714 0.0202,-0.03394 0.03058,-0.05038zM225.89328,183.20802c-0.08825,0.08257 -0.18973,0.16345 -0.30443,0.23421c0.93015,3.07643 1.97151,6.62609 4.25171,8.75265c1.92393,1.7943 3.05193,0.8197 3.55269,-0.84685c-0.04234,-0.47884 -0.09117,-0.95793 -0.1471,-1.43727c-0.00097,0.00637 -0.00195,0.01271 -0.00291,0.01908c0,0 -0.29866,1.79199 -2.09063,1.49333c-1.79199,-0.29866 -1.49333,-2.09063 -1.49333,-2.09063c0.00967,-0.05421 0.01972,-0.10835 0.03011,-0.16244c-0.22123,0.09587 -0.46527,0.14902 -0.72174,0.14902c-0.92525,0 -1.68897,-0.6917 -1.80221,-1.58622l-0.35101,-2.45715l0.54128,-0.07731c-0.2617,-0.89237 -0.64614,-1.59969 -1.46242,-1.99033zM230.67347,183.39151c0.10193,-0.05893 0.20589,-0.11554 0.31167,-0.16994l-0.24952,-0.58221l1.03545,-0.44377c-0.2476,-0.57882 -0.53718,-1.0336 -0.87681,-1.2823c-0.32318,-0.23666 -1.13789,-0.27725 -2.15817,-0.21812c1.07128,0.70473 1.88516,1.62681 1.93738,2.69634zM254.17861,186.83708c0.60452,0.06855 1.56595,0.10101 2.58992,0.15992c0.02798,-0.2695 0.05854,-0.53859 0.0918,-0.8072c-1.16448,-0.29602 -1.88063,-0.02522 -2.68171,0.64725zM255.67184,190.71947c-0.85702,-0.12428 -1.72644,-0.34551 -2.60284,-0.61545c-0.13504,0.53827 -0.53922,1.34383 -1.74895,1.34383c-1.8167,0 -1.8167,-1.8167 -1.8167,-1.8167l0.04265,-0.74998c-2.0269,-0.71939 -4.05221,-1.35773 -6.01045,-1.33622c-2.08104,0.02284 -4.17773,0.25213 -6.28466,0.44403c0.03667,0.90138 -0.03161,1.82011 -0.19613,2.70811c0.2012,1.78458 0.29487,3.57697 0.31664,5.37366c5.0318,-2.63303 8.25191,7.68883 10.41044,10.53344c0.3084,0.40641 1.53078,0.43986 2.4167,0.41568c-1.68793,-2.10449 1.10063,-5.26975 3.55184,-6.9003c0.0143,-0.49642 0.23097,-1.0774 1.01479,-1.4693c0.94098,-0.47047 1.60947,-0.12361 2.00554,0.25175c-0.18419,-2.69642 -0.30523,-5.38988 -0.2407,-8.05433c-0.35874,-0.05268 -0.6538,-0.09856 -0.85818,-0.12821zM234.14441,154.02237l0.40067,0.34346c0.02659,-0.04256 0.05341,-0.08522 0.08042,-0.12795c0.0545,-0.21246 0.10903,-0.42494 0.16352,-0.63739c0,0 0.2946,-0.78559 1.01726,-1.08881c0.82902,-1.11223 1.7552,-2.14337 2.70342,-2.82388c-0.03146,-0.26657 -0.05719,-0.54128 -0.07761,-0.82137c-0.17426,-0.00414 -0.34859,-0.00892 -0.52297,-0.01426c-0.71486,0.82931 -1.77584,1.45013 -2.4751,2.24275c-1.06667,1.2091 -1.94365,2.73416 -2.52347,4.36694zM252.50499,147.98752c0.6519,-0.28222 1.181,-0.40147 1.51033,-0.28983c0.15849,0.05372 0.3047,0.11821 0.4393,0.19257c0.02081,-0.21284 0.03757,-0.426 0.04808,-0.63967c0.00928,-0.18862 0.0173,-0.37179 0.02401,-0.54964c-0.1599,0.06395 -0.321,0.12635 -0.48337,0.18717c-0.84886,0.31795 -1.75277,0.59321 -2.70148,0.82909c0.41857,0.02286 0.81374,0.10541 1.1631,0.27032zM259.62878,146.44042c-0.61126,0.93534 -1.17694,1.93519 -1.71865,2.92835c-0.00741,0.07897 -0.01499,0.1579 -0.02269,0.23685l0.20267,0.04506l-0.62741,2.82332c-0.0294,0.14667 -0.0765,0.28699 -0.13891,0.41859c0.15093,0.39553 0.10779,0.77941 0.0109,1.08685c1.41969,-2.2607 2.32419,-4.65078 2.29413,-7.53902zM247.1699,148.47923c-0.06961,0.08519 -0.13945,0.17009 -0.20948,0.25458c0.27624,-0.10575 0.6029,-0.23072 0.96157,-0.35637c-0.24884,0.03597 -0.49958,0.06988 -0.75211,0.10179zM203.91516,112.50546h2.54069c1.00335,0 1.8167,0.81337 1.8167,1.8167c0,1.00333 -0.81335,1.8167 -1.8167,1.8167c-0.47239,0 -3.48545,0 -3.95784,0c-1.10555,0.24715 -2.21659,0.46391 -3.32822,0.6911c-0.05874,0.0142 -0.11407,0.02519 -0.1645,0.03369c-0.90312,0.1855 -1.8064,0.37918 -2.70731,0.603c1.83908,0.00301 3.68535,0.06813 5.24423,-0.19121l0.14984,0.06576v-0.07194h1.90551c1.00335,0 1.8167,0.81337 1.8167,1.8167c0,0.93526 -0.70672,1.70544 -1.61527,1.80566l-2.51678,0.31458l-0.02679,-0.21437c-0.26008,0.04111 -0.51825,0.08028 -0.77466,0.11729c-0.55264,0.20785 -1.10358,0.4152 -1.65155,0.63253c1.62464,0.07621 3.25294,0.2914 4.13316,0.2914h2.85825c1.00335,0 1.8167,0.81337 1.8167,1.8167c0,0.72522 -0.42496,1.35119 -1.03944,1.64249l-1.87031,0.93516l-0.23131,-0.46262c-1.55144,0.94364 -3.0708,1.45566 -4.75054,2.16616c0.31,0.54193 0.62715,1.08033 0.95045,1.61337c2.42299,0.27248 4.83455,0.60864 7.25878,0.87799l0.02687,0.01265l0.00125,-0.00885l2.19665,0.31381c0.89452,0.11327 1.58623,0.87696 1.58623,1.80222c0,0.68785 -0.38228,1.28641 -0.94597,1.59484l-2.19249,1.25285l-0.0288,-0.05039c-0.09239,0.06627 -0.18661,0.13017 -0.28297,0.19143c-0.16156,0.10275 -0.64182,0.24358 -1.28244,0.39684c1.2595,0.08064 2.37234,0.19672 2.91595,0.19672h1.9055c0.32531,0 0.63066,0.0855 0.89476,0.23525l0.18213,-0.1457c0.31265,-0.25454 0.71159,-0.40714 1.1462,-0.40714c1.00335,0 1.8167,0.81337 1.8167,1.8167c0,0.25765 -0.05363,0.50281 -0.15037,0.72486c0.39825,-0.19124 0.75863,-0.38008 1.02108,-0.5654l1.85693,-1.54744c0.3164,-0.26746 0.72546,-0.42872 1.17218,-0.42872c1.00335,0 1.8167,0.81337 1.8167,1.8167c0,0.10793 -0.0094,0.21365 -0.02747,0.3164c0.93887,-0.25816 1.91786,-0.2336 2.91385,0.18322c1.69937,0.71117 2.21364,2.15068 2.20467,3.79908c0.18041,-0.20083 0.34484,-0.39018 0.48637,-0.56548l1.52893,-2.4463c0.31789,-0.52765 0.89637,-0.88052 1.55723,-0.88052c0.81723,0 1.50842,0.53959 1.73672,1.28194l0.62192,1.86575l-0.85233,0.28411c0.23717,0.71166 0.4714,1.46962 0.6678,2.20637c0.39241,0.02454 0.81127,0.05378 1.23802,0.09081c1.35954,-1.92629 2.94148,-3.86584 3.15505,-4.1498l0.11411,-0.06802l-0.02628,-0.02629l1.58791,-1.58794c0.32878,-0.32875 0.78292,-0.5321 1.2846,-0.5321c0.93524,0 1.70544,0.70672 1.80566,1.61526l0.31459,2.51678l-0.20054,0.02507c0.27416,1.08132 0.46832,2.17759 0.5299,3.28563c0.00356,0.06424 0.0068,0.13323 0.00968,0.20636c0.85503,-0.02732 1.69944,-0.07405 2.52803,-0.14218c3.87151,-4.3556 11.34994,-11.45078 13.01569,-4.24466c2.76509,-1.83175 5.24984,-4.0485 7.96617,-6.07761c0.10316,-0.10253 0.20728,-0.204 0.31231,-0.30453c-0.26521,-0.15134 -0.49344,-0.33662 -0.67293,-0.55845c-3.2252,-3.98591 4.13905,-7.39278 8.78553,-9.26374c0.02035,-0.24942 0.0911,-0.4846 0.20204,-0.69531l0.93642,-1.87282l0.41757,0.2088c0.72406,-1.57496 1.64274,-2.99155 2.6713,-4.37343c0.02495,-0.20025 0.04801,-0.40156 0.0693,-0.60385l-0.04106,0.01175c-0.17043,0.05293 -0.3516,0.08141 -0.53944,0.08141c-1.00335,0 -1.8167,-0.81337 -1.8167,-1.8167c0,-0.38175 0.11775,-0.73598 0.31889,-1.02837l1.25655,-1.88484l0.36136,0.24089c0.21244,-0.35815 0.43543,-0.68792 0.67397,-1.00097c-0.02166,-1.87869 -0.11922,-3.75354 -0.22369,-5.54171c-0.18329,-0.02854 -0.30889,-0.06468 -0.3623,-0.10913c-1.78795,-1.48788 -1.77508,-3.16511 -0.94374,-4.78633c-0.35399,-0.78934 -0.39364,-1.67458 -0.23237,-2.60003c-1.95101,0.13247 -3.78365,0.1035 -4.8773,0.10268l-0.12257,-0.05263l-0.00557,0.03895l-2.18667,-0.31238c-2.36239,0.76558 -4.75544,1.41622 -7.33869,2.11471c-1.67088,0.45177 -6.89792,2.18784 -8.8094,0.87362c-6.36661,-4.3773 1.58448,-10.1796 3.5406,-13.84861c0.61336,-1.15045 -2.60115,0.22728 -3.88432,0.45788c-4.99161,1.25437 -9.02396,3.14856 -13.7694,4.93905c-1.56571,0.59077 -3.98994,0.85782 -4.97352,2.50397c-1.14527,1.91676 2.70647,3.23888 5.95863,3.93582c1.13265,-0.04377 2.11835,-0.01172 2.87293,0.49085c0.45831,0.05631 0.8096,0.08529 1.00388,0.08665h2.0348c1.00335,0 1.8167,0.81337 1.8167,1.8167c0,1.00333 -0.81335,1.8167 -1.8167,1.8167h-2.50901v-0.01194c-1.44653,-0.05799 -3.41341,-0.3256 -5.38414,-0.85819c-1.34586,-0.02364 -2.75215,0.02815 -4.30836,0.33553c-4.99837,0.98729 -9.77551,4.96431 -14.27,7.18474l-1.3484,1.34837c-0.32878,0.32875 -0.78293,0.5321 -1.2846,0.5321c-1.00335,0 -1.8167,-0.81337 -1.8167,-1.8167v-2.50901h0.41288c-0.11121,-1.71402 -0.00208,-3.28642 0.06053,-5.1635c-1.07476,1.19016 -2.58121,2.24426 -3.48804,3.02331c-4.17751,3.58883 -8.20427,4.76355 -12.65574,6.57715c1.08174,-0.15188 2.0722,-0.16842 2.87644,0.01758c0.41411,0 0.82849,0 1.2426,0zM284.71723,93.6838l0.12148,-0.85036l2.19666,0.31382c0.15786,0.01999 0.3094,0.06022 0.45195,0.11804c1.42829,-1.92842 2.48157,-3.68669 2.32402,-4.2582c-0.44277,-1.60604 -5.51914,-1.97403 -6.7307,-2.27662c-1.7014,-0.42646 -6.02197,-1.31071 -6.37065,-2.97684c-0.77091,-3.68359 5.59974,-3.60915 7.25442,-4.77559c2.88785,-2.03575 5.96074,-10.89263 4.90366,-14.39046c-0.39965,-1.32239 -3.69912,-0.88779 -4.34319,-0.88573c-3.60559,0.01143 -7.21215,0.01388 -10.81767,-0.01361c-2.9282,0.73206 -9.81856,2.74641 -11.99676,-0.27304c-0.54712,-0.75841 2.21747,-2.57061 1.28545,-2.49368c-4.25583,0.35128 -8.60813,0.31274 -12.87338,0.7595c-7.09114,0.74276 -11.93001,7.16112 -18.05667,9.15367l0.21043,0.84173l-1.96768,0.49194c-0.15294,0.04181 -0.31393,0.06412 -0.48014,0.06412c-1.00335,0 -1.8167,-0.81337 -1.8167,-1.8167c0,-0.41561 0.13954,-0.79859 0.37436,-1.10469l1.32684,-1.76913c0.8359,-3.81545 -3.31887,-2.72263 -6.68773,-2.34829c-5.74833,0.63873 -9.81633,5.06227 -14.85864,7.49202c-5.07336,0.06707 -4.51544,-2.61632 -8.13784,-4.1041c-1.56967,-0.64468 -5.46516,0.43516 -7.11165,0.62647c-2.57387,0.29905 -5.61549,1.90092 -7.79749,3.25489c-0.39696,0.24635 -1.00587,0.74967 -1.54289,1.09964c2.17195,0.26904 6.72799,1.60793 6.92068,3.87841c0.05758,0.67829 -4.72259,5.47173 -5.55011,6.30262c-8.63279,8.27707 -3.63592,22.37469 5.81899,27.5458c1.26335,-0.36867 1.94229,0.77248 2.03688,0.94541c0.86518,0.33262 1.75881,0.59118 2.67493,0.76623l-1.08641,-2.05885c3.31511,-1.6392 7.35592,-1.90637 10.56951,-3.52808c4.64176,-2.3424 6.83997,-6.48891 10.82528,-8.88053l-0.31911,-0.63825l1.97454,-0.98727c0.25247,-0.13291 0.54003,-0.20814 0.84516,-0.20814c1.00335,0 1.81669,0.81336 1.81669,1.81669c0,0.13497 -0.01472,0.2665 -0.04265,0.39307l-0.46798,2.33986c0.00257,1.57207 0.13546,3.79932 -0.33897,5.53303c4.5785,-2.44833 8.81242,-5.14484 13.6704,-6.38216c-1.82256,-1.46283 -2.77226,-3.45459 -1.76368,-6.09162c2.15625,-5.63773 16.20508,-8.32536 21.40125,-9.61824c1.40714,-0.16658 2.86504,-0.90956 4.22146,-0.49974c7.87934,2.38061 1.17036,6.80476 -0.72644,10.59035c-0.21336,0.42579 -1.65354,3.44427 -0.82791,3.61595c4.21183,0.87577 8.72963,-0.41968 13.14983,-2.41466c0.1185,-0.21602 0.27963,-0.40532 0.47208,-0.55659l1.57484,-1.25986l0.35583,0.4448c1.81817,-1.48804 3.87286,-2.39819 6.21551,-3.13018c1.06664,-0.58987 2.10851,-1.16051 3.11857,-1.68621l-0.19361,-0.25814l1.99253,-1.49439c0.3061,-0.23481 0.68912,-0.37434 1.1047,-0.37434c1.00335,0 1.8167,0.81336 1.8167,1.81669c0,0.16619 -0.02231,0.32718 -0.06412,0.48012l-0.49191,1.96771l-0.06843,-0.0171l0.00981,0.20678c-0.25911,0.52398 -0.51856,1.0478 -0.77847,1.57142c0.42167,-0.0228 0.84583,-0.02742 1.27421,-0.00935zM270.63781,130.45917c-0.05617,0.03345 -0.12012,0.07168 -0.19022,0.11351c0.11739,-0.00341 0.23658,-0.00269 0.3573,0.00179c0.29031,-0.23009 0.57927,-0.46185 0.86558,-0.69672c-0.34631,0.1846 -0.69064,0.37773 -1.03269,0.58144zM237.8529,144.88271c0.16745,0.10687 0.2993,0.22508 0.38749,0.35595c0.06225,0.00198 0.12448,0.00387 0.18668,0.00569c0.03236,-0.52387 0.07757,-1.02716 0.13287,-1.49204c-0.21973,0.35186 -0.45609,0.73284 -0.70704,1.1304zM223.34854,141.77005c-0.2896,0.43703 -0.72028,0.90636 -1.2409,1.36649c0.26872,0.06121 0.54215,0.12194 0.81996,0.18201c0.27207,-0.81046 0.73498,-2.02237 0.42096,-1.54851zM283.1079,107.83962c0.47271,-0.38938 1.13946,-1.06889 1.78846,-1.62156c-0.85453,0.09144 -1.87992,0.16282 -2.87235,0.20439c0.03258,0.73465 0.06451,1.48024 0.09173,2.23294c0.31114,-0.25633 0.64118,-0.52662 0.99219,-0.81577zM268.13413,140.48191c0.73613,-0.01921 1.46882,-0.09444 2.13842,-0.24794c-0.27001,0.00104 -0.52187,0.00678 -0.73179,0.02998c-0.50426,0.05576 -0.96877,0.12783 -1.40663,0.21796zM252.78283,143.48036c0.53966,-0.20264 1.06357,-0.42489 1.57411,-0.66407c-0.505,-2.34822 -1.94113,-1.01677 -3.84384,1.37195c0.79319,-0.20328 1.55204,-0.43838 2.26973,-0.70788z" fill="#261400"/><path d="M266.88851,184.30916c0,-1.00333 0.81337,-1.8167 1.8167,-1.8167c1.00333,0 1.8167,0.81337 1.8167,1.8167c0,1.00333 -0.81337,1.8167 -1.8167,1.8167c-1.00333,0 -1.8167,-0.81337 -1.8167,-1.8167z" fill="#261400"/><path d="M265.8241,202.40395c0,-1.00333 0.81337,-1.8167 1.8167,-1.8167c1.00333,0 1.8167,0.81337 1.8167,1.8167c0,1.00333 -0.81337,1.8167 -1.8167,1.8167c-1.00333,0 -1.8167,-0.81337 -1.8167,-1.8167z" fill="#261400"/><path d="M268.66249,215.17672c0,-1.00333 0.81337,-1.8167 1.8167,-1.8167c1.00333,0 1.81669,0.81337 1.81669,1.8167c0,1.00333 -0.81336,1.8167 -1.81669,1.8167c-1.00333,0 -1.8167,-0.81337 -1.8167,-1.8167z" fill="#261400"/></g><path d="M288.43998,64.50361c1.18586,0.39529 0.79057,1.58114 0.79057,1.58114l-0.24138,0.67577c-0.55683,3.31858 -1.23826,7.32582 -2.58185,10.67261c-0.0009,0.15851 -0.00161,0.31755 -0.00205,0.47715l-0.22187,0.06755l0.20911,0.03485l-0.05316,0.31898l0.0459,0.00918l-0.28397,1.41988c-0.10494,0.58424 -0.61583,1.02756 -1.23027,1.02756c-0.69036,0 -1.25,-0.55965 -1.25,-1.25c0,-0.07812 0.00716,-0.15457 0.02087,-0.22872l0.25369,-1.52213c-0.06854,-0.28636 -0.05303,-0.58192 -0.0008,-0.88039c-0.014,-0.34313 -0.03488,-0.70464 -0.05978,-1.08023c-0.08023,1.51503 -0.19096,3.03329 -0.30703,4.5425c0.38491,0.12558 0.68768,0.43292 0.80692,0.82066l0.56792,1.70375l-0.42798,0.14267c1.25804,3.27861 1.35038,7.08784 1.35768,10.63924l0.22437,0.47026c0,0 0.39529,1.18586 -0.79057,1.58114c-1.18586,0.39529 -1.58114,-0.79057 -1.58114,-0.79057l-0.35267,-1.26084c0.00177,-0.761 -0.14859,-1.75561 -0.33005,-2.84221c-0.35913,1.06713 -0.81822,2.13076 -1.39373,3.22351l-1.16139,-3.26647c0,-3.15963 0.1288,-6.30559 0.26469,-9.45102c-0.43984,1.44978 -0.94519,2.86787 -1.56951,4.22845l0.29451,0.08415l-0.56944,1.99304c-0.14026,0.53693 -0.62861,0.93317 -1.2095,0.93317c-0.69036,0 -1.25,-0.55965 -1.25,-1.25v-1.44259h0.0375l-0.03436,-0.08861c0.11457,-0.80196 0.19693,-1.61015 0.25499,-2.42254c-0.05309,0.00688 -0.10724,0.01043 -0.1622,0.01043c-0.69036,0 -1.25,-0.55965 -1.25,-1.25v-1.44259c0,-0.11389 0.00002,-0.22782 0.00007,-0.34179c-0.79807,2.64314 -1.32744,5.14363 -2.41012,7.47496c-0.00044,0.13278 -0.00071,0.26552 -0.0008,0.39823l0.23042,0.07681l-0.56792,1.70376c-0.15708,0.51078 -0.63267,0.88206 -1.19497,0.88206c-0.69036,0 -1.25,-0.55965 -1.25,-1.25c0,-0.09287 0.01013,-0.18336 0.02934,-0.27045l0.26526,-1.32633c0.00002,-0.12162 0.00016,-0.24326 0.00041,-0.36494c-0.08524,0.65175 -0.21138,1.27329 -0.40375,1.84658c-0.01846,0.05503 -0.03807,0.10953 -0.05874,0.16353l0.02274,0.00649l-0.56945,1.99305c-0.14026,0.53693 -0.6286,0.93317 -1.2095,0.93317c-0.63664,0 -1.16211,-0.47594 -1.24003,-1.09142l-0.28233,-1.97628c-0.16065,-0.81951 -0.2972,-1.64827 -0.41626,-2.48367c-0.78269,2.35676 -1.68079,4.66084 -2.76587,6.87596l0.14683,0.0367l-0.5707,2.28277c-0.12633,0.55665 -0.62414,0.97219 -1.21902,0.97219c-0.69036,0 -1.25,-0.55965 -1.25,-1.25v-0.64933c-0.47102,-0.14664 -0.82254,-0.56437 -0.87201,-1.07066l-0.27159,-2.4443c-0.24118,-1.4461 -0.44137,-2.89624 -0.61803,-4.34856c-0.20702,0.15202 -0.46257,0.2418 -0.73909,0.2418c-0.69036,0 -1.25,-0.55965 -1.25,-1.25v-1.44259c0,-4.59875 0.32117,-9.32962 0.06666,-13.93271c-0.01593,-0.09329 -0.03204,-0.18655 -0.04832,-0.2798c-0.05339,-0.30571 -0.148,-0.74064 -0.25358,-1.2467c-0.04032,0.14457 -0.08031,0.28927 -0.12002,0.43405c-0.54541,2.63402 -1.02875,5.29921 -1.1864,7.8899c-0.15144,2.4886 -0.227,4.43031 -0.66395,6.47994l0.35777,0.03975l-0.27441,2.46972c-0.06181,0.6326 -0.59519,1.12695 -1.24402,1.12695c-0.63664,0 -1.16211,-0.47594 -1.24004,-1.09142l-0.28224,-1.97564c-0.09164,-0.45802 -0.17837,-0.91671 -0.26076,-1.376c-0.15965,0.074 -0.33756,0.11531 -0.52511,0.11531c-0.69036,0 -1.25,-0.55965 -1.25,-1.25v-2.01962c0,-2.3064 0.14438,-4.66271 -0.01028,-6.96301c-0.02061,-0.30663 -0.0493,-0.61146 -0.08138,-0.91428c-0.63043,2.6168 -1.18771,5.27175 -2.0864,7.7373l0.05213,0.00652l-0.28646,2.29168c-0.04737,0.42941 -0.31224,0.7933 -0.68203,0.97907l-0.23095,0.69286c-0.15708,0.51078 -0.63267,0.88206 -1.19497,0.88206c-0.69036,0 -1.25,-0.55965 -1.25,-1.25v-1.44259c0,-2.25589 -0.09403,-4.50858 -0.17473,-6.75699c-0.17282,-1.02332 -0.37955,-2.03565 -0.64894,-3.02027c-0.06302,-0.23033 -0.13803,-0.4703 -0.21936,-0.71731c-0.48579,1.89454 -0.99953,3.83374 -1.59735,5.71941c-0.35591,2.87694 -0.83822,5.70163 -1.91401,8.22602l0.35435,0.11812l-0.56792,1.70376c-0.15708,0.51078 -0.63267,0.88206 -1.19497,0.88206c-0.61444,0 -1.12533,-0.44333 -1.23027,-1.02756l-0.16412,-0.82059c-0.42602,-0.1992 -0.72116,-0.6316 -0.72116,-1.13295v-2.01962c0,-0.23481 -0.00516,-0.48122 -0.01421,-0.73749c-0.13631,-0.77461 -0.26771,-1.54989 -0.39629,-2.32564c-0.56624,1.92536 -1.164,3.84057 -1.76229,5.7429c-0.7311,2.3246 -0.98609,4.15782 -1.67458,6.09326v0.04272l0.27151,0.04525l-0.28514,1.71083c-0.0867,0.58367 -0.57688,1.03572 -1.17782,1.06343c-0.39209,1.60317 -0.66779,3.03676 -1.25733,4.50678l0.36501,0.12167l-0.56792,1.70375c-0.15708,0.51078 -0.63267,0.88206 -1.19497,0.88206c-0.61444,0 -1.12533,-0.44333 -1.23026,-1.02756l-0.28397,-1.41988l0.01211,-0.00242l-0.01844,-0.03168c-0.24738,-1.73671 -0.50366,-3.47347 -0.76993,-5.20918c-0.62072,2.39507 -0.91343,4.31195 -1.65281,6.30986v0.00259l0.27151,0.04525l-0.28514,1.71084c-0.0895,0.60251 -0.60895,1.06477 -1.23637,1.06477c-0.69036,0 -1.25,-0.55965 -1.25,-1.25v-1.71507c-0.06392,1.16035 -0.1543,2.29022 -0.34429,3.44617h0.24763v1.7311c0,0.69035 -0.55964,1.25 -1.25,1.25c-0.49901,0 -0.92971,-0.29239 -1.13014,-0.7152l-0.56492,-1.12985l0.04257,-0.02128l-0.08951,-0.08458c-0.78188,-2.71686 -1.49731,-5.4605 -2.16481,-8.21983c-0.13153,0.04703 -0.27325,0.07265 -0.42094,0.07265c-0.69036,0 -1.25,-0.55965 -1.25,-1.25c0,-0.05925 0.00412,-0.11754 0.0121,-0.1746l0.27928,-2.23425c0.00568,-0.7437 0.02038,-1.48817 0.0407,-2.23324c-0.50727,-2.3106 -0.99032,-4.62667 -1.45983,-6.94184c-0.39549,1.71148 -0.79488,3.42198 -1.19409,5.13241c0.034,1.35427 0.09704,2.70227 0.20131,4.04028c0.20992,2.69376 0.52161,5.10394 0.24247,7.60454h0.33882v1.7311c0,0.69035 -0.55964,1.25 -1.25,1.25c-0.49901,0 -0.92971,-0.2924 -1.13014,-0.7152l-0.56492,-1.12985l0.01843,-0.00921l-0.04069,-0.03774c-0.08425,-0.21041 -0.1689,-0.42061 -0.25394,-0.6306l-0.24853,1.98823c-0.06895,0.62514 -0.59889,1.11141 -1.2424,1.11141c-0.69036,0 -1.25,-0.55965 -1.25,-1.25v-1.44258h0.00592l-0.00585,-0.01351c0.04675,-2.11875 0.1343,-4.23269 0.22732,-6.346c-0.61009,-1.40015 -1.22789,-2.79648 -1.84636,-4.19278c-0.44591,1.30562 -0.89605,2.60989 -1.34063,3.91505c0.37604,1.77814 1.99505,5.77057 1.41512,7.32855c-0.04173,0.11212 -0.09019,0.22055 -0.14426,0.32592l0.06009,0.02404l-0.56622,1.41555c-0.17726,0.47474 -0.63486,0.8128 -1.17141,0.8128c-0.61444,0 -1.12533,-0.44333 -1.23027,-1.02756l-0.2592,-1.29598c-0.11452,-0.22541 -0.22944,-0.4508 -0.34475,-0.67616c-0.00028,0.00095 -0.00057,0.00189 -0.00085,0.00284c-0.51725,1.72374 -0.58902,4.28795 -1.53265,5.75356c-0.00122,0.23752 -0.00216,0.47508 -0.00282,0.71268l-0.05118,0.09599l0.03842,0.00641l-0.28513,1.71083c-0.0895,0.60251 -0.60896,1.06477 -1.23638,1.06477c-0.69036,0 -1.25,-0.55965 -1.25,-1.25c0,-0.07812 0.00717,-0.15457 0.02088,-0.22873l0.27182,-1.6309c-0.01381,-4.49268 0.09827,-8.97038 0.20833,-13.44547c-0.32443,-0.59296 -0.65085,-1.18522 -0.9791,-1.77666c-0.29764,2.51514 -0.3154,4.87208 -0.71735,7.12694l0.22065,-0.03153l0.28851,2.01962l-0.58365,0.08338c-0.01613,0.39402 -0.04721,0.79728 -0.09476,1.21143l-0.243,-0.13287l-0.56363,1.69091c-0.12052,0.39187 -0.4285,0.70163 -0.81928,0.82462l0.7846,2.09228c0.05786,0.14397 0.08971,0.30121 0.08971,0.46588c0,0.69035 -0.55964,1.25 -1.25,1.25c-0.41415,0 -0.78127,-0.20142 -1.00873,-0.51164l-0.85682,-1.14243l0.03838,-0.02878l-0.10169,-0.06406c-1.73088,-3.46176 -4.03275,-6.63699 -6.18605,-9.85516c-0.29242,0.76679 -0.55751,1.54161 -0.78128,2.32848c0,0 -0.05664,0.19825 -0.20444,0.41071c0.57542,1.72298 1.32715,3.37592 2.35073,4.89988c0,0 0.69338,1.04006 -0.34669,1.73344c-1.04006,0.69338 -1.73344,-0.34669 -1.73344,-0.34669c-2.82181,-4.26073 -3.80255,-9.31288 -4.51852,-14.32255l-0.27835,-1.39176c-0.01921,-0.08709 -0.02934,-0.17759 -0.02934,-0.27046c0,-0.69035 0.55964,-1.25 1.25,-1.25c0.26266,0 0.5064,0.08101 0.70759,0.21942l1.71688,1.14459l-0.01744,0.02615c0.06163,0.03406 0.12267,0.0693 0.18308,0.10585c0.10538,0.06376 0.20965,0.14205 0.31268,0.23242c-1.15407,-2.41629 -2.25262,-4.8556 -3.23543,-7.33516l0.01482,-0.11951l-0.04237,0.00848l-0.28346,-1.41728c-0.01921,-0.08709 -0.02934,-0.17759 -0.02934,-0.27045c0,-0.69035 0.55964,-1.25 1.25,-1.25c0.38261,0 0.72507,0.1719 0.95436,0.44268l1.62169,1.89197l-0.33476,0.28693c1.15277,1.24253 2.18879,2.63464 3.15982,4.10444c0.37188,-1.04873 0.68172,-2.11244 0.89221,-3.20021l0.01964,-0.02616c-1.42687,-4.16536 -2.70362,-8.41669 -3.42063,-12.54248l-0.03895,0.01299l-0.5678,-1.70343c-0.04749,-0.1321 -0.07337,-0.27451 -0.07337,-0.42296c0,-0.69035 0.55964,-1.25 1.25,-1.25c0.53655,0 0.99415,0.33805 1.17141,0.81279l0.56622,1.41555l-0.05793,0.02317l0.1011,0.10424c0.0337,0.20223 0.06897,0.40458 0.10571,0.60702c1.93624,1.4534 2.95379,5.46408 4.02925,7.32855c0.03469,0.06015 0.06941,0.12029 0.10414,0.18042c0.14288,-1.6816 0.23549,-3.35613 0.23763,-5.01717l0.07185,-0.11124l-0.05365,-0.01074l0.28397,-1.41987c0.10494,-0.58424 0.61583,-1.02757 1.23027,-1.02757c0.69036,0 1.25,0.55965 1.25,1.25v1.44259h-0.26376l-0.00847,0.04237c0.37906,1.80098 0.40667,3.5262 0.55761,5.63936c0.12626,1.76771 0.20952,3.54032 0.26295,5.316c0.06974,0.11868 0.13947,0.23737 0.20919,0.35607c0.38217,-2.30426 0.78137,-4.60618 1.08203,-6.90877c0.23466,-1.79713 0.37599,-3.60567 0.52667,-5.41072c-0.18009,-0.88595 -0.35787,-1.7731 -0.53237,-2.66186l0.04789,-0.12317h-0.05398v-1.44259c0,-0.65122 0.49799,-1.18612 1.13393,-1.24468c0.05264,-0.34052 0.10942,-0.68037 0.17107,-1.01944c-0.01,-0.2051 0.01292,-0.40045 0.1093,-0.57403c0.00933,-0.04682 0.01876,-0.09363 0.02829,-0.14041v-1.3492c0,-0.69035 0.55964,-1.25 1.25,-1.25c0.69036,0 1.25,0.55965 1.25,1.25v1.44259h-0.35423c0.00261,0.01226 0.00521,0.02451 0.00779,0.03677l0.34036,0.0864c-0.05802,0.29595 -0.11477,0.59252 -0.17033,0.8897c0.28737,2.05186 0.16051,4.10819 0.15182,6.30766c1.02126,2.44479 1.91206,4.91878 3.08294,7.44644c0.47882,1.03366 0.9534,2.06534 1.42365,3.09614c0.89175,-2.81677 1.68899,-5.65979 2.27003,-8.56248l0.28265,-1.69591c0.0895,-0.60251 0.60896,-1.06477 1.23638,-1.06477c0.44474,0 0.83523,0.23225 1.05679,0.58209c0.00088,-0.25839 0.00134,-0.51661 0.00134,-0.77468v-1.44259c0,-0.69035 0.55964,-1.25 1.25,-1.25c0.58089,0 1.06923,0.39624 1.2095,0.93317l0.56945,1.99304l-0.26998,0.07714c0.15616,0.33285 0.30419,0.66789 0.44491,1.00512c0.29317,-1.37579 0.57883,-2.75329 0.85486,-4.13296l0.28266,-1.69591c0.0895,-0.60251 0.60895,-1.06477 1.23637,-1.06477c0.61444,0 1.12533,0.44333 1.23027,1.02756l0.28397,1.41988l-0.34108,0.06822c1.19357,3.26693 1.43167,7.12294 1.33845,11.02785c0.65485,-2.30182 1.36478,-4.58852 2.05969,-6.87819c-0.02683,-1.9096 -0.05096,-3.81293 -0.05096,-5.70383v-1.7311c0,-0.69035 0.55964,-1.25 1.25,-1.25c0.45227,0 0.84843,0.24019 1.0679,0.59996c0.1072,-0.44151 0.21088,-0.88388 0.31058,-1.32726l0.10031,-0.10333l-0.04948,-0.0231l0.59989,-1.28485c0.19367,-0.43966 0.63323,-0.74659 1.14449,-0.74659c0.69036,0 1.25,0.55965 1.25,1.25v1.44258h-0.31274c0.382,2.77237 -0.17372,5.32211 -0.26542,8.42001c-0.03765,1.27184 -0.08788,2.542 -0.14635,3.81097c0.13683,0.74424 0.27251,1.49549 0.41474,2.25387c0.16378,0.87336 0.32795,1.74638 0.49172,2.6193c0.56344,-2.78102 1.10399,-5.57067 1.66529,-8.38049l0.28266,-1.69595c0.0895,-0.60251 0.60895,-1.06477 1.23637,-1.06477c0.59488,0 1.09269,0.41555 1.21902,0.9722l0.57069,2.28276l-0.41556,0.10389c0.39063,1.22944 0.67168,2.50015 0.87281,3.79623c0.24134,-2.71886 0.46657,-5.43607 0.84549,-8.11585l0.00673,-0.01361l-0.00442,-0.00074l0.28514,-1.71083c0.0895,-0.60251 0.60895,-1.06477 1.23637,-1.06477c0.52567,0 0.97556,0.32449 1.16028,0.78408l0.64104,1.49574l0.1774,-0.53221c0.15708,-0.51078 0.63267,-0.88206 1.19497,-0.88206c0.69036,0 1.25,0.55965 1.25,1.25v2.5h-0.29416c0.23928,1.80871 0.31818,3.62356 0.33481,5.45109c0.07402,-0.2368 0.14806,-0.47366 0.22209,-0.71061c0.55896,-3.40013 0.97424,-6.8644 1.88506,-10.11863l0.27671,-1.38353c0.10494,-0.58424 0.61583,-1.02756 1.23027,-1.02756c0.16622,0 0.32487,0.03245 0.46995,0.09135l0.36901,-0.98403c0.17015,-0.48815 0.63451,-0.83842 1.18066,-0.83842c0.61444,0 1.12533,0.44332 1.23027,1.02756l0.48575,2.42875l-0.3448,0.06896c0.47677,1.77559 0.74955,3.60086 0.90168,5.45086c0.50245,-3.26146 1.05038,-6.48445 1.71228,-9.77806l0.04589,-0.06658l-0.02362,-0.00787l0.56792,-1.70376c0.15708,-0.51078 0.63267,-0.88206 1.19497,-0.88206c0.59488,0 1.09269,0.41555 1.21902,0.9722l0.57069,2.28276l-0.3695,0.09238c1.02945,3.23685 1.44135,6.80696 1.73568,10.40925c0.41047,-1.33947 0.75779,-2.69026 1.12564,-4.03565c0.26208,-1.44934 0.54277,-2.89723 0.83207,-4.34569l0.28224,-1.97571c0.07792,-0.61548 0.6034,-1.09142 1.24003,-1.09142c0.30469,0 0.58392,0.10901 0.80081,0.29017c0.02145,-0.00109 0.04303,-0.00165 0.06474,-0.00165c0.65308,0 1.18917,0.50083 1.24517,1.13937l0.24739,2.47384l-0.31075,0.03108c0.40114,1.88837 0.6212,3.83129 0.73228,5.79855c0.12446,0.74589 0.23803,1.49299 0.34313,2.24107c0.44277,-1.76718 0.97293,-3.48891 1.72619,-5.0076l0.26205,-1.5723c0.0895,-0.60251 0.60895,-1.06477 1.23637,-1.06477c0.63664,0 1.16211,0.47594 1.24004,1.09142l0.11838,0.82868c0.1918,-0.11978 0.41841,-0.18899 0.6612,-0.18899c0.49901,0 0.92971,0.2924 1.13014,0.71521l0.56492,1.12984l-0.37216,0.18608c0.56491,1.12977 0.81977,2.28972 0.99021,3.54842c0.86444,-3.20871 1.76949,-6.39965 2.81349,-9.51319l0.27292,-1.63748c0.0895,-0.60251 0.60895,-1.06477 1.23637,-1.06477c0.4046,0 0.7643,0.19223 0.99276,0.49034c0.21323,-0.97438 0.41668,-1.94913 0.60632,-2.92447l0.01445,-0.02307l-0.00874,-0.00208l0.34687,-1.45969c0.12124,-0.56348 0.62231,-0.98582 1.22203,-0.98582c0.58089,0 1.06923,0.39623 1.2095,0.93317l0.56944,1.99305l-0.36585,0.10453c0.80928,2.20489 1.2533,4.61369 1.48563,7.09769c0.08848,-0.01986 0.1805,-0.03034 0.27497,-0.03034c0.69036,0 1.25,0.55965 1.25,1.25v0.60816c0.4178,-1.38883 0.84881,-2.76569 1.29668,-4.1196l0.56205,-2.24819c0.12633,-0.55665 0.62414,-0.9722 1.21902,-0.9722c0.69036,0 1.25,0.55965 1.25,1.25v1.35384c0.22133,-0.35102 0.61249,-0.58422 1.05813,-0.58422c0.64884,0 1.18221,0.49435 1.24402,1.12695l0.27441,2.46972l-0.33612,0.03734c0.15861,0.72335 0.28069,1.44448 0.37428,2.16632c0.1483,-0.61762 0.27979,-1.24018 0.3841,-1.87067l0.33566,-1.05533c0,0 0.39529,-1.18586 1.58114,-0.79057zM261.90869,74.53119c-0.49284,2.00357 -0.87003,4.05558 -1.34709,6.06873c0.07984,0.79864 0.15892,1.59744 0.24009,2.39612c0.33337,-2.31569 0.74122,-4.64186 1.18043,-6.95952c-0.00225,-0.45433 -0.03479,-0.965 -0.07344,-1.50532zM229.67148,83.08908c-0.06562,-0.91599 -0.25041,-1.87501 -0.43527,-2.84451c-0.5589,2.81813 -1.12723,5.62446 -1.75162,8.4297c0.35143,1.95152 0.69179,3.90546 1.01274,5.86449c0.38114,-1.17775 0.84234,-2.33667 1.17235,-3.2888c0.01734,-2.70207 0.19423,-5.47478 0.00181,-8.16088zM215.48052,77.07765c-0.13451,0.61392 -0.27027,1.22756 -0.4071,1.84095c0.18613,0.73023 0.35691,1.46999 0.51921,2.21943c0.00186,-1.35468 -0.02875,-2.70851 -0.11211,-4.06038zM209.97214,101.2997l0.08946,0.01119c-0.02773,-0.0681 -0.0555,-0.13618 -0.08331,-0.20424c-0.00213,0.0644 -0.00418,0.12875 -0.00616,0.19305zM208.02873,84.78973c-0.31509,1.02952 -0.64299,2.05589 -0.97901,3.0802c0.29303,0.65557 0.58427,1.3113 0.87372,1.96748c0.05805,-1.67987 0.09904,-3.36173 0.10529,-5.04768zM198.63027,83.66841c-0.21509,1.90331 -0.43052,3.80299 -0.66266,5.68967c0.19218,0.33057 0.38401,0.66133 0.57537,0.99231c0.04606,-2.22639 0.08041,-4.4532 0.08728,-6.68198zM195.89693,103.44825l0.36003,0.12001l-0.33464,-0.18299c-0.0084,0.021 -0.01686,0.04199 -0.02539,0.06297zM210.26263,76.84498c0.0148,0.08667 0.02928,0.17343 0.04342,0.26028c0.0011,-0.08677 0.0022,-0.17354 0.00327,-0.26028zM224.70708,89.60704c0.09856,-0.42836 0.19564,-0.85668 0.29142,-1.285c-0.0553,-0.32725 -0.111,-0.65441 -0.16712,-0.98147c-0.04287,0.7554 -0.0846,1.51085 -0.1243,2.26647zM263.82477,85.61641c0.56787,-1.92523 1.10227,-3.87332 1.6256,-5.83067c-0.15958,-1.85904 -0.32605,-3.71337 -0.56817,-5.53538c-0.02578,0.13263 -0.05154,0.26528 -0.07726,0.39794c0.03517,3.58465 -0.49271,7.31296 -0.98016,10.9681zM273.13775,72.32536c0,2.42436 -0.06077,4.85256 -0.12711,7.27734c0.74892,-2.39601 1.49616,-4.79466 2.22061,-7.20112c-0.03282,-2.40842 -0.1055,-4.81382 -0.2626,-7.20054c-0.03737,-0.56765 -0.14858,-1.14535 -0.27559,-1.72448c-0.49009,2.34051 -1.00331,4.67752 -1.53238,7.01045c-0.01209,0.59853 -0.02294,1.21017 -0.02294,1.83834zM234.59013,74.26194c-0.00524,-0.03167 -0.01062,-0.06311 -0.01611,-0.09434c-0.02838,0.25226 -0.05622,0.50453 -0.08364,0.75681c0.04417,-0.15778 0.08785,-0.31564 0.13097,-0.4736c-0.01039,-0.06296 -0.02079,-0.12592 -0.03121,-0.18887zM222.87045,76.97205c-0.00457,0.29067 -0.00939,0.58129 -0.01447,0.87187c0.01266,-0.26183 0.02501,-0.52369 0.03702,-0.78561c-0.00742,-0.02867 -0.01494,-0.05742 -0.02256,-0.08626zM202.10514,82.92587c0.50143,2.42113 0.99045,4.84466 1.45087,7.27772c0.2502,-0.72566 0.49968,-1.45153 0.7463,-2.17822c-0.74405,-1.69299 -1.48059,-3.39057 -2.19717,-5.0995zM190.67865,81.62284c0.07882,0.23644 0.15826,0.47272 0.23822,0.7088c0.07398,0.006 0.14614,0.01844 0.21592,0.03676c-0.14995,-0.24882 -0.30158,-0.49728 -0.45414,-0.74556zM184.05483,95.06213c0.09841,0.59346 0.20425,1.18653 0.32089,1.77711c0.11543,-0.28019 0.23397,-0.55961 0.35486,-0.83844c-0.23287,-0.30837 -0.46165,-0.62117 -0.67575,-0.93867zM219.4055,98.10923c0.16224,-1.42621 0.37277,-2.71341 0.46292,-3.43458c0.49749,-3.9799 0.65746,-8.032 0.68512,-12.09735c-0.89843,3.3996 -1.46793,6.71631 -2.51933,9.92596c0.43811,1.8745 0.89517,3.74461 1.3713,5.60598zM268.12361,81.25799c0.14031,-0.87241 0.2948,-1.74389 0.46062,-2.6146c-0.16736,0.66616 -0.33711,1.33154 -0.51072,1.9954c0.01673,0.20626 0.03339,0.41269 0.05009,0.6192zM283.28472,63.66985c0.00382,0.01937 0.00762,0.03875 0.0114,0.05814l0.01163,-0.05814zM193.31634,102.28953c0.00065,-0.26714 0.00157,-0.53435 0.0027,-0.80161c-0.07957,-0.1091 -0.15878,-0.21842 -0.23765,-0.32795c-0.02803,0.10763 -0.05845,0.21183 -0.09141,0.31227c0.11188,0.27211 0.22076,0.54454 0.32636,0.81728zM201.0598,90.4865c-0.02654,1.37692 -0.05782,2.7537 -0.09051,4.13069c0.22489,0.40359 0.44854,0.80772 0.67083,1.21244c0.08411,-0.2555 0.16881,-0.51085 0.254,-0.76606c-0.26324,-1.5309 -0.543,-3.05591 -0.83432,-4.57706z" fill="#261400" stroke="none" stroke-width="0.5"/><path d="M210.15847,215.06131c-1.2568,-0.6884 -12.62135,-0.67915 -16.41859,-1.05862c0,0 -0.80575,-0.08058 -1.05535,-0.76053c-0.06052,-0.16485 -0.08834,-0.36494 -0.06407,-0.60764c0.12438,-1.2438 1.52608,-2.38264 1.52608,-2.38264c3.77409,0.37767 7.3776,0.53043 11.14917,0.72874c4.54973,-0.02815 8.04574,-0.49898 9.66475,0.65584c1.45345,1.03673 -4.32744,3.68479 -4.802,3.42485z" fill="#261400" stroke="none" stroke-width="0.5"/><path d="M300.66839,213.72413c0.88389,0.88388 0,1.76777 0,1.76777l-0.57443,0.44799c-1.81049,0.76111 -3.73733,1.20174 -5.6754,1.59933c-2.31669,0.47526 -4.64942,0.88904 -6.81864,1.71524c0,0 -1.17041,0.43891 -1.60932,-0.7315c-0.4389,-1.17041 0.73151,-1.60932 0.73151,-1.60932c3.96695,-1.46808 8.4816,-1.55711 12.38705,-3.2716l-0.20853,0.0821c0,0 0.88388,-0.88388 1.76776,0z" fill="#261400" stroke="none" stroke-width="0.5"/><path d="M210.91931,212.33527c1.77581,0.25368 1.52213,2.02951 1.52213,2.02951l-0.14026,0.85435c-0.00394,4.6367 1.73017,9.15456 1.42116,13.72461c-0.07256,1.07315 -0.55558,5.20292 -1.34967,5.92895c-2.94726,2.69465 -4.79869,1.2329 -5.59278,-1.20072l-1.17751,1.17752c-0.32462,0.32462 -0.77309,0.5254 -1.26845,0.5254c-0.94978,0 -1.72716,-0.73813 -1.78978,-1.67203l-0.10949,-1.42337c-1.06968,1.91192 -2.47722,3.20826 -4.29715,2.49621c-1.23293,-0.48238 -1.23539,-2.36328 -1.59527,-3.63737c-0.42117,-1.49103 -0.57907,-4.58004 0.02766,-6.81114c-1.78395,0.75579 -3.80219,1.04364 -5.3615,-0.3852c-3.67861,-3.37081 1.78697,-9.87207 4.44628,-11.52739c0,0 1.53821,-0.92292 2.46114,0.61529c0.92293,1.53821 -0.61528,2.46113 -0.61528,2.46113c-2.89792,1.64468 -5.90787,8.4582 -0.4197,4.46874l1.39039,-1.08141c0.30598,-0.24272 0.69304,-0.38768 1.11394,-0.38768c0.99071,0 1.79385,0.80313 1.79385,1.79385c0,0.18547 -0.02815,0.36436 -0.08041,0.53265l-0.62178,2.17625l-0.29288,-0.08368c-0.18449,1.85034 -0.42384,3.67171 -0.42959,5.61513c-0.00007,0.02241 0.0426,0.20725 0.08736,0.47408c0.60643,-2.10482 1.4682,-4.88584 1.61398,-5.39527l0.46248,-1.69576c0.1942,-0.78082 0.89997,-1.35945 1.74089,-1.35945c0.95532,0 1.73622,0.74678 1.7908,1.68842l0.15737,2.36049l-0.47073,0.03139c0.15161,0.77385 0.24543,1.52434 0.31504,2.30081c0.09544,-0.28772 0.18088,-0.56313 0.246,-0.81999l0.30283,-1.81699c0.12844,-0.86465 0.87389,-1.52803 1.77429,-1.52803c0.91889,0 1.67641,0.6909 1.78142,1.58157l0.31328,2.34958l-0.3324,0.04432c0.15993,0.59285 0.25042,1.17589 0.32508,1.90482c0.05763,-0.84671 0.09781,-1.53133 0.0822,-1.72239c-0.32629,-3.99312 -1.42754,-7.62078 -1.43075,-11.7033l0.17633,-1.36173c0,0 0.25369,-1.77581 2.0295,-1.52213z" fill="#261400" stroke="none" stroke-width="0.5"/><path d="M286.18289,214.75037c1.77311,0 1.7731,1.77311 1.7731,1.77311l-0.00612,0.46017c-0.19718,2.36622 0.08399,5.25594 0.13915,7.98044c0.29682,-0.22386 0.66623,-0.35659 1.06665,-0.35659c0.8312,0 1.52882,0.57193 1.72077,1.34374l0.45925,1.68392c0.06704,0.24666 0.35352,1.52403 0.59871,2.70724c0.07526,-1.03748 0.31005,-2.13303 0.46525,-2.58801c0.00481,-0.0141 0.00965,-0.02818 0.01451,-0.04225l-0.00926,-0.00124l0.30966,-2.32242c0.10379,-0.88037 0.85255,-1.56328 1.76083,-1.56328c0.73176,0 1.35999,0.44327 1.6308,1.07596l0.76569,1.68451c0.10842,0.23861 0.24433,0.49969 0.39401,0.77612c-0.07034,-1.695 -0.15085,-3.36216 -0.0419,-5.0492h-0.45369v-2.03401c0,-0.97926 0.79385,-1.77311 1.77311,-1.77311c0.4549,0 0.86978,0.1713 1.18366,0.45291l1.21212,1.07744c1.20436,0.44785 2.63043,1.72565 1.74944,0.89496c-1.3232,-1.24764 -2.00767,-2.79271 -3.51272,-3.94646c0,0 -1.39961,-1.08858 -0.31103,-2.48819c1.08859,-1.39961 2.48819,-0.31103 2.48819,-0.31103c1.44655,1.13816 6.2622,5.49438 5.48192,7.77522c-1.02207,2.98764 -3.86362,2.47451 -6.1255,1.70809c0.81798,2.65251 0.19651,7.44378 0.0504,9.27331l-0.09377,0.14829l0.0573,0.01563l-0.45926,1.68392c-0.19196,0.7718 -0.88957,1.34374 -1.72077,1.34374c-0.68444,0 -1.2783,-0.38781 -1.57385,-0.95568l-0.92153,-1.68946l0.31301,-0.17074c-0.2074,-0.30236 -0.40018,-0.60545 -0.5834,-0.91342c-0.58366,2.4452 -2.38958,4.45826 -5.35578,2.736c-0.426,-0.24735 -0.83033,-1.0319 -1.18958,-1.99049c-0.26542,0.28843 -0.57978,0.48747 -0.93559,0.54966c-1.37419,0.24021 -2.72857,-1.00135 -3.64869,-2.04991c-0.61046,-0.69567 -0.41178,-1.80698 -0.54004,-2.72359c-0.56432,-4.03304 -0.02764,-8.20961 0.30794,-12.23652l-0.00612,-0.16567c0,0 0,-1.77311 1.77311,-1.77311z" fill="#261400" stroke="none" stroke-width="0.5"/><path d="M281.37397,204.32325c-1.94029,0.48507 -2.42536,-1.45521 -2.42536,-1.45521l-0.48727,-1.95045c-1.60181,-6.94116 -3.35996,-15.57532 -8.31534,-20.97582c0,0 -1.33793,-1.48659 0.14866,-2.82452c1.48659,-1.33793 2.82452,0.14866 2.82452,0.14866c5.39062,6.08052 7.45613,15.02332 9.23972,22.75224l0.47028,1.87975c0,0 0.48507,1.94029 -1.45521,2.42536z" fill="#261400" stroke="none" stroke-width="0.5"/><g fill="#261400" stroke="none" stroke-width="0.5"><g><path d="M174.91833,90.19406c5.88942,-2.55731 12.52419,-3.17856 18.63106,-5.01157c4.83041,-1.31563 9.63674,-2.29186 14.40331,-3.8546c1.86638,-0.6119 4.79038,-1.95628 6.70264,-0.29284c1.0896,0.94781 0.64064,7.11401 0.58431,8.47493c-0.25822,6.23842 -0.75028,12.47292 -0.51733,18.72906c0.15982,4.29219 0.4269,7.81038 -0.57768,12.02664c-8.32198,6.54279 -18.57243,10.6405 -26.12463,18.16895c-4.20085,4.18764 -6.45124,9.89955 -10.98377,13.82079c0,0 -1.22934,1.05373 -2.4239,0.15886c-1.37499,0.46467 -3.01461,0.31096 -4.30965,0.32263c-4.96062,0.0447 -9.74037,1.53483 -14.65147,2.22931c-0.34073,0.09868 -0.60979,0.09868 -0.60979,0.09868l-0.0021,-0.01652c-0.00283,0.00036 -0.00567,0.00072 -0.0085,0.00108l0.00017,-0.06648l-0.03005,-0.23631c-1.44219,-0.33215 -1.4422,-1.94043 -1.4422,-1.94043c0,-15.7503 -3.38042,-31.63795 -7.18913,-46.87624c-0.23621,-1.06258 -1.29998,-5.38015 -0.86338,-6.03668c0.90128,-1.35528 2.79413,-1.70374 4.31243,-2.29014c3.51205,-1.35645 7.86199,-1.08385 11.55992,-1.85462c0.73941,-0.15412 3.37163,-1.00075 5.03058,-1.28562c2.90865,-1.28567 5.5915,-3.00196 8.50914,-4.26886zM185.1772,135.62066c7.0606,-7.08002 16.98795,-12.55575 25.60844,-17.52687c0.77807,-6.39502 -0.27462,-12.97074 -0.06072,-19.41517c0.10329,-3.11185 0.38728,-6.21302 0.5177,-9.32215c0.06759,-1.61121 -0.34046,-3.26129 -0.00147,-4.83789c0.06158,-0.28639 0.60918,-0.36311 0.58578,-0.65511c-0.02172,-0.2711 -0.34846,0.44177 -0.59341,0.55997c-0.25219,0.12169 -4.25833,1.44669 -4.34388,1.47518c-4.01753,1.33785 -8.16194,2.0158 -12.23922,3.12936c-5.9059,1.77087 -12.42351,2.31252 -18.0994,4.81771c-2.62601,1.15905 -5.07545,2.63589 -7.6597,3.86825c0.21192,1.6259 0.24431,3.34972 0.29784,3.93988c0.74866,8.25285 0.92798,16.48838 2.56074,24.6522c1.05305,5.79091 2.4278,11.50622 3.85574,17.22052c0.14596,0.58409 0.5764,2.13206 0.8952,3.64813c3.17437,-3.60022 5.25835,-8.12659 8.67637,-11.554zM157.53721,150.57861c3.35287,-0.67653 6.70821,-1.63864 10.05455,-1.83784c0.90205,-0.0537 1.80734,-0.01313 2.71093,-0.00386c0.70924,0.00727 1.41819,0.03202 2.12714,0.0535c0.24421,0.0074 0.72031,0.27716 0.7322,0.03313c0.02329,-0.47813 -0.52111,-0.81488 -0.67198,-1.26917c-0.00275,-0.00828 -1.14281,-4.56881 -1.28233,-5.12701c-1.2739,-5.09646 -2.44772,-10.20507 -3.38689,-15.37131c-1.21739,-6.08692 -1.7764,-12.18754 -2.10173,-18.37098c-0.11866,-2.25539 -0.30585,-4.39051 -0.51083,-6.64055c-0.09265,-1.01707 -0.30313,-2.03939 -0.29064,-3.05712c-1.62276,0.73463 -3.17863,0.65545 -4.88508,0.95351c-3.02356,0.52812 -6.05025,0.98735 -9.08032,1.49828c-0.63063,0.10634 -1.45601,-0.16804 -1.89553,0.29651c-0.27384,0.28944 0.55681,0.59901 0.69448,0.97293c0.27163,0.73774 0.34097,1.5349 0.51146,2.30235c3.70617,14.82124 6.97988,30.23878 7.27457,45.56764z"/><path d="M215.80598,81.55483c0.89443,1.78886 -0.89443,2.68328 -0.89443,2.68328l-1.16369,0.45437c-8.08531,1.01066 -16.16432,1.16866 -24.25577,2.06109c-7.49121,1.50399 -14.44803,3.49126 -21.73421,5.63456c-3.35372,0.98653 -6.8648,1.52001 -10.05579,2.99413c-2.80671,1.2966 -5.17834,3.59658 -7.89733,5.11123c0,0 -1.74832,0.97128 -2.7196,-0.77703c-0.97129,-1.74831 0.77703,-2.7196 0.77703,-2.7196c2.82417,-1.56435 5.22642,-3.86459 8.13992,-5.23538c3.37937,-1.58999 7.08413,-2.16889 10.63743,-3.21383c7.44698,-2.18999 14.58136,-4.22071 22.23889,-5.74672c8.13102,-0.90969 16.24945,-1.06207 24.3733,-2.07755l-0.12903,-0.06297c0,0 1.78886,-0.89443 2.68328,0.89443z"/><path d="M156.78277,110.38512c0,1.69914 -1.44353,1.95475 -1.87784,1.9932c-0.58263,0.21848 -1.16527,0.43698 -1.7479,0.65546c0,0 -0.01655,0.0062 -0.04711,0.0159c1.05303,0.01921 2.04232,0.06701 2.2625,0.18025c2.96152,1.52307 2.78716,4.67309 2.95848,7.37754c0.215,3.39396 0.34251,6.84761 0.76441,10.22281c0.17534,1.40274 0.72762,4.47812 -0.14948,5.61754c-0.68936,0.89553 -2.1071,0.81786 -3.16066,1.22679l-1.38617,0.27954c0,0 -1.96116,0.39223 -2.35339,-1.56893c-0.39223,-1.96116 1.56893,-2.35339 1.56893,-2.35339l1.20049,-0.23779c0.326,0.06404 0.73534,0.41906 0.97798,0.19213c0.20168,-0.18862 -0.35258,-0.44637 -0.41972,-0.71422c-0.15897,-0.6341 -0.166,-1.29685 -0.24709,-1.94553c-0.17658,-1.41267 -0.18144,-2.84154 -0.27024,-4.26244c-0.16899,-2.70376 -0.26198,-5.46397 -0.50621,-8.1572c-0.06509,-0.71779 0.01833,-1.85396 -0.67395,-2.0545c-1.0552,-0.30567 -2.19176,0.18882 -3.29034,0.18882c0,0 -2,0 -2,-2c0,-2 2,-2 2,-2c0.23275,0 0.70388,-0.00365 1.26843,-0.00339c-0.41429,-0.1596 -0.8189,-0.50005 -1.07176,-1.17434c-0.70225,-1.87266 1.17041,-2.57491 1.17041,-2.57491c0.68977,-0.25867 1.37955,-0.51733 2.06932,-0.77599l0.96091,-0.12735c0,0 2,0 2,2z"/><path d="M155.72091,105.14168c0.3288,1.97279 -1.64399,2.30159 -1.64399,2.30159l-0.60043,-0.17768c-0.51733,0.43111 -1.03466,0.86222 -1.55199,1.29333c0,0 -1.53644,1.28037 -2.81681,-0.25608c-1.28037,-1.53644 0.25607,-2.81681 0.25607,-2.81681c0.51733,-0.43111 1.03466,-0.86221 1.55199,-1.29332l2.50356,-0.69501c0,0 1.97279,-0.3288 2.30159,1.64399z"/><path d="M166.28248,144.50713c-1.78886,0.89443 -2.68328,-0.89442 -2.68328,-0.89442l-0.41009,-0.92669c-3.03689,-12.14756 -2.7261,-24.55364 -5.44406,-36.78168c0,0 -0.43386,-1.95237 1.51851,-2.38623c1.95237,-0.43386 2.38623,1.51851 2.38623,1.51851c2.70944,12.19519 2.39463,24.57826 5.41988,36.67926l0.10723,0.10798c0,0 0.89443,1.78885 -0.89443,2.68328z"/><path d="M161.67732,141.40078c0.28285,1.9799 -1.69706,2.26274 -1.69706,2.26274l-2.0935,0.27876c-0.68977,0 -1.37955,0 -2.06933,0c0,0 -2,0 -2,-2c0,-2 2,-2 2,-2c0.68977,0 1.37955,0 2.06933,0l1.52781,-0.23856c0,0 1.97989,-0.28284 2.26274,1.69706z"/><path d="M209.48204,88.79501c1.41422,1.41422 0,2.82843 0,2.82843l-0.77846,0.63331c-2.21267,1.09332 -4.23514,1.62521 -6.61732,2.22075c0,0 -1.94029,0.48507 -2.42536,-1.45521c-0.48507,-1.94028 1.45521,-2.42536 1.45521,-2.42536c0.38101,-0.09525 0.75058,-0.18665 1.11189,-0.2783c-0.2216,0.22555 -0.35828,0.53481 -0.35828,0.87598c0,0.66148 0.5138,1.20295 1.16408,1.24709c0.73771,0.49181 1.72192,-0.42838 2.59403,-0.5881c0.84457,-0.15467 1.70971,-0.11867 2.54264,-0.34558c1.04045,-0.28345 1.32949,-1.38779 0.46582,-2.30396c-0.38512,-0.40853 -1.23806,-0.45278 -2.2136,-0.28573c0.1629,-0.07588 0.3268,-0.1555 0.49204,-0.2393l-0.26112,0.11597c0,0 1.41422,-1.41422 2.82843,0z"/></g><path d="M211.94059,92.50988c1.89736,0.63245 1.26491,2.52982 1.26491,2.52982l-0.2378,0.70251c-0.81517,2.03779 -1.34455,3.27706 -2.16064,4.46678l0.34787,0.15812l-0.96822,2.13008c-0.17924,0.41876 -0.4973,0.76395 -0.89631,0.97773c0.12667,0.21913 0.21296,0.46454 0.24871,0.72603l0.32216,2.09409c0.84884,0.2313 1.47292,1.00768 1.47292,1.92982c0,0.13578 -0.01353,0.2684 -0.03931,0.39659l-0.38773,2.13252c-0.41298,2.26097 -0.78942,3.90231 -1.43032,5.45963c-0.05197,0.29059 -0.10064,0.56765 -0.1438,0.82802l-0.0184,0.11045l0.18329,0.04583l-0.58203,2.32815c-0.20211,0.89064 -0.99863,1.55551 -1.95043,1.55551c-0.79861,0 -1.48791,-0.46808 -1.80849,-1.14486c-2.26617,3.58973 -4.86831,7.02513 -7.48277,10.25932c-1.05665,1.30712 -3.90326,4.71219 -5.99592,3.99182c-0.96884,-0.33351 -1.47394,-1.40242 -1.72588,-2.61897c-1.11579,2.51679 -2.20246,5.48326 -3.84957,7.21201c-1.86046,1.95266 -3.00271,2.91172 -4.05206,2.16682c-0.0588,0.30472 -0.11998,0.60891 -0.18505,0.91225l-0.03391,0.04792l0.02014,0.00549l-0.58075,2.12943c-0.21652,0.87056 -1.0034,1.51568 -1.94096,1.51568c-0.9909,0 -1.81349,-0.72062 -1.9723,-1.66639l-0.58563,-3.12335l0.03329,-0.00624c-0.02024,-0.05884 -0.0399,-0.11792 -0.05896,-0.17725c-0.21509,-0.66948 -0.17805,-1.59784 -0.03229,-2.55741c-0.11208,0.01949 -0.22737,0.02965 -0.34503,0.02965c-1.06761,0 -1.93985,-0.83651 -1.99702,-1.88986l-0.19648,-3.1437l0.01121,-0.0007c-0.00477,-0.02053 -0.00948,-0.04108 -0.01413,-0.06165c-0.66119,-2.92155 0.34027,-6.7976 0.59869,-9.7102c0.02783,-0.31368 0.05177,-0.62722 0.07236,-0.94064c-0.52505,-0.36046 -0.86942,-0.96502 -0.86942,-1.65001c0,-0.02704 0.00054,-0.05396 0.0016,-0.08074l-0.47002,1.17505c-0.28362,0.75958 -1.01578,1.30048 -1.87426,1.30048c-1.10457,0 -2,-0.89543 -2,-2c0,-0.0549 0.00221,-0.1093 0.00655,-0.16309l0.19592,-2.74293l0.01253,0.0009c-0.00249,-0.02062 -0.0049,-0.04126 -0.00723,-0.06191c-0.21882,-1.93564 0.47932,-3.08391 0.91291,-4.70727c-1.06293,-0.04693 -1.91027,-0.92352 -1.91027,-1.99802c0,-0.14858 0.01621,-0.29339 0.04694,-0.43273l0.38668,-1.93345l0.04505,0.00901l-0.01689,-0.13012c0.90467,-2.72497 1.87369,-5.44983 2.71842,-8.19811c-1.02586,1.09438 -2.01875,2.2173 -2.87182,3.50423c0,0 -1.1094,1.6641 -2.7735,0.5547c-1.6641,-1.1094 -0.5547,-2.7735 -0.5547,-2.7735c1.89163,-2.82336 4.36791,-4.92439 6.49782,-7.5362l0.09227,-0.04863l-0.02358,-0.02357l1.57916,-1.57915c0.36193,-0.36193 0.86193,-0.58579 1.41422,-0.58579c0.81881,0 1.5227,0.49206 1.83209,1.19661c1.54004,-2.30807 4.15095,-5.69266 6.07512,-5.72801c1.43328,-0.02633 2.88628,0.91468 3.79473,2.02361c0.56372,0.68813 0.6567,1.61619 0.75235,2.53827c0.0891,-0.16298 0.17892,-0.32567 0.26948,-0.48803l0.09823,-0.07894l-0.0297,-0.0216l1.56419,-2.15077c0.36234,-0.51085 0.95845,-0.84422 1.63243,-0.84422c1.03413,0 1.88495,0.78487 1.98925,1.79142l0.11459,0.97397l0.37486,-0.89966c0.23737,-0.60862 0.76423,-1.0724 1.41136,-1.22212l1.08751,-1.81252c0.34546,-0.59914 0.99255,-1.00244 1.73384,-1.00244c1.06511,0 1.93576,0.83259 1.99661,1.88245l0.19636,2.94543l-0.01193,0.0008c0.00515,0.02187 0.01024,0.04377 0.01525,0.06569c0.05026,0.21955 0.09135,0.44197 0.1241,0.66688c0.55672,-1.13449 1.11759,-2.26772 1.68574,-3.40031l0.12041,-0.09509l-0.04057,-0.0284l1.36571,-1.95101c0.35991,-0.52875 0.96666,-0.876 1.65452,-0.876c1.06761,0 1.93985,0.83651 1.99702,1.88986l0.07771,1.24331c-1.17548,0.03438 -2.76514,0.53886 -3.91741,1.13606c-0.07346,-0.01344 -0.14916,-0.02047 -0.2265,-0.02047c-0.69036,0 -1.25,0.55964 -1.25,1.25c0,0.66148 0.5138,1.20295 1.16408,1.24709c0.73771,0.49181 1.72192,-0.42838 2.59403,-0.5881c0.84457,-0.15467 1.70971,-0.11867 2.54264,-0.34558c1.04045,-0.28345 1.32949,-1.38779 0.46582,-2.30396c-0.19925,-0.21136 -0.52371,-0.32521 -0.92559,-0.36274c0.31495,-0.69112 1.01181,-1.17154 1.82088,-1.17154c1.10457,0 2,0.89543 2,2v2.7381c0.12929,0.02081 0.26553,0.05417 0.40901,0.102zM199.30287,107.66528c-1.44513,4.10869 -2.95407,8.16262 -4.85567,12.12936c0.19378,0.30804 0.30586,0.67267 0.30586,1.06346c0,0.14858 -0.0162,0.29339 -0.04694,0.43273l-0.37089,1.85444c-0.12237,1.38697 -0.09483,3.09756 -0.23588,4.6548c1.05533,-1.37761 2.37676,-2.76653 3.32509,-3.99839c0.14841,-0.19278 0.29642,-0.38604 0.44396,-0.57981c-0.00604,-0.06333 -0.00914,-0.12752 -0.00914,-0.19243c0,-0.06955 0.00355,-0.13827 0.01048,-0.206l0.1942,-2.13618c0.33625,-4.34031 0.80856,-8.68436 1.23893,-13.02198zM186.52665,122.56286c-0.81726,1.87081 -1.6619,3.74357 -2.45864,5.63565c0.60481,0.34396 1.01273,0.99421 1.01273,1.73974c0,0.10784 -0.00853,0.21369 -0.02497,0.3169l-0.02956,0.20691l0.23207,-1.27638l0.03663,0.00666l-0.01935,-0.09131c2.00533,-7.37386 3.97976,-14.7646 5.8746,-22.17717c-1.61383,3.54361 -3.25867,7.07184 -4.86909,10.62127c-0.01403,0.03091 -0.02801,0.06196 -0.04195,0.09313c0.71188,0.30624 1.21034,1.01394 1.21034,1.83807c0,0.23753 -0.0414,0.46538 -0.1174,0.67675l-0.77481,2.32444l-0.03112,-0.01037zM175.51281,109.60737c-0.11726,0.53542 -0.23152,1.06728 -0.34434,1.59394c-0.00946,0.04413 -0.01866,0.08855 -0.02764,0.13324l0.28815,-0.25614c0.35405,-0.31765 0.82202,-0.51087 1.33513,-0.51087c0.14646,0 0.28924,0.01574 0.42675,0.04563c1.10367,-2.89613 2.25787,-5.77225 3.1896,-8.72454c-0.97304,1.43461 -1.96728,2.85814 -2.94902,4.30188c-0.72392,1.06459 -1.20581,2.34817 -1.91864,3.41687zM205.41798,104.14567c-0.32069,0.67649 -1.00982,1.14433 -1.80823,1.14433c-0.02105,0 -0.04203,-0.00033 -0.06293,-0.00097c-0.05233,0.43602 -0.09272,0.8555 -0.11047,1.24991c-0.06525,1.45055 -0.18201,2.89322 -0.32356,4.33231c0.71021,-1.64794 1.37586,-3.31373 1.9435,-5.01927l0.57278,-1.90928c0.14657,-0.53285 0.50804,-0.97667 0.98538,-1.23242c-0.09492,-0.16422 -0.16717,-0.34319 -0.21247,-0.53262zM178.65042,123.49912c1.25444,-4.03261 2.8304,-7.91593 4.46367,-11.79937c-0.33451,0.67273 -0.67776,1.34185 -1.03217,2.00635c-1.01887,1.91038 -1.51877,4.17581 -2.98522,5.76866c-0.02368,0.02572 -0.04753,0.05125 -0.07156,0.07659l0.01848,0.01176l-0.19053,0.2994c-0.05126,1.2129 -0.11973,2.42273 -0.20267,3.6366zM195.18555,107.32173c0.1972,-0.55479 0.39263,-1.11067 0.58716,-1.66754c-0.05003,-0.02626 -0.0988,-0.05457 -0.14622,-0.08483c-0.14628,0.58428 -0.29327,1.16841 -0.44094,1.75238zM184.90241,132.24554c-0.03826,-0.13935 -0.06182,-0.28478 -0.06891,-0.43453l-0.10309,0.72159c0.06556,-0.10978 0.12372,-0.20641 0.172,-0.28706z"/></g></g></g></svg>