<svg version="1.1" xmlns="http://www.w3.org/2000/svg" xmlns:xlink="http://www.w3.org/1999/xlink" width="161.88124" height="109.65984" viewBox="0,0,161.88124,109.65984"><g transform="translate(-186.78718,65.495)"><g data-paper-data="{&quot;isPaintingLayer&quot;:true}" fill-opacity="0.49804" fill="#deffbf" fill-rule="nonzero" stroke="none" stroke-width="0.5" stroke-linecap="butt" stroke-linejoin="miter" stroke-miterlimit="10" stroke-dasharray="" stroke-dashoffset="0" style="mix-blend-mode: normal"><path d="M187.68305,-46.35704c-2.82128,-4.9196 2.04542,-8.16406 2.04542,-8.16406l3.72093,-2.41416c3.64303,-1.27068 6.99337,-2.91913 10.57753,-4.24731c13.53213,-5.01459 29.69308,-6.53365 42.91436,0.24731c3.94756,2.02464 6.57649,5.35442 10.21648,7.78108c1.9692,1.9447 4.16184,3.69415 5.87096,5.87096c0.54001,0.68778 0.6516,1.69342 1.30288,2.27694c1.74101,1.55989 4.82379,1.45607 6.86373,1.43549c3.33316,-0.03363 6.66667,0 10,0c9.94683,0 19.66138,-0.07927 29.5155,1.0213c1.15487,0.12898 2.34656,-0.17052 3.48564,0.05941c5.24179,1.05808 5.20222,1.96116 9.60869,5.06718c7.99573,5.63599 13.5673,11.29176 18.67149,19.75994c4.08976,6.13463 7.13675,10.1734 5.92186,18.10583c-0.40005,2.61203 -1.0676,5.34262 -2.61741,7.48291c-1.08558,1.4992 -5.03857,1.92758 -6.2692,4.03926c-1.26057,2.16307 -1.65384,6.15145 -2.31582,8.4616c-2.13371,7.44618 -6.01999,16.464 -13.60898,20.02682c-1.93396,0.90794 -4.25802,0.36767 -6.39177,0.47575c-6.97069,0.35311 -13.09235,-1.58548 -19.74742,-3.24925c-1.76022,-0.58409 -3.42549,-1.51984 -5.25372,-1.83145c-4.19099,-0.71435 -8.98633,2.06064 -12.60709,3.60495c-4.93288,2.10394 -10.45314,3.77508 -15.77591,4.44534c-9.14177,1.15115 -22.23289,-1.45601 -29.57829,-7.38619c-4.47841,-3.61557 -8.38283,-8.33982 -12.45699,-12.41397c-0.32412,-0.54839 -0.37092,-1.43525 -0.97235,-1.64517c-0.83056,-0.28989 -1.73746,0.51189 -2.60937,0.39505c-1.43639,-0.19248 -2.78934,-0.79795 -4.1486,-1.30064c-5.59645,-2.06971 -6.40449,-2.27164 -10.94528,-6.14707c-2.24806,-1.91866 -3.9066,-4.43976 -5.73838,-6.75916c-0.7543,-0.95509 -1.86763,-1.62672 -2.48318,-2.67661c-1.74584,-2.97774 -2.10806,-6.74042 -3.45768,-9.89405c-0.65032,-1.5196 -1.69523,-2.87556 -2.16939,-4.459c-3.3659,-11.24015 -2.30636,-23.36145 -2.30636,-34.93278c0,0 0,-1.50389 0.73771,-3.03625z"/></g></g></svg>