<svg version="1.1" xmlns="http://www.w3.org/2000/svg" xmlns:xlink="http://www.w3.org/1999/xlink" width="253.85121" height="115.78281" viewBox="0,0,253.85121,115.78281"><g transform="translate(-402.70276,-92.2055)"><g data-paper-data="{&quot;isPaintingLayer&quot;:true}" fill-opacity="0.49804" fill="#fff8bf" fill-rule="nonzero" stroke="none" stroke-width="0.5" stroke-linecap="butt" stroke-linejoin="miter" stroke-miterlimit="10" stroke-dasharray="" stroke-dashoffset="0" style="mix-blend-mode: normal"><path d="M634.20991,176.69261c1.61974,0.44567 3.33645,1.62127 4.04882,4.47075c1.51585,6.06339 -4.54754,7.57924 -4.54754,7.57924c-5.57842,1.37165 -8.33418,3.40981 -13.37881,6.3423c-5.9026,3.43123 -12.37059,5.54544 -18.57669,8.29581c-3.1705,1.40508 -6.36355,3.01201 -9.7967,3.50167c-1.24165,0.1771 -2.52089,-0.21126 -3.76251,-0.03388c-3.31703,0.47389 -6.69147,1.5156 -10.00228,1c-2.25189,-0.35069 -4.29357,-1.55439 -6.50544,-2.1036c-7.59144,-1.88496 -61.81974,2.25801 -69.34058,-0.09489c-7.25382,-2.26937 -14.69223,-3.91143 -22,-6c-2.18154,-0.73219 -4.40659,-1.34566 -6.54462,-2.19656c-1.91545,-0.76231 -3.56922,-2.30853 -5.60937,-2.60495c-2.18206,-0.31704 -4.42395,0.30014 -6.61472,0.05029c-9.69474,-1.10566 -20.02447,-6.63939 -26.21753,-14.25715c-3.1321,-3.85264 -5.80373,-8.43657 -7.16736,-13.21501c-0.46896,-1.64332 -0.95223,-3.29326 -1.20242,-4.98378c-0.11374,-0.76856 0.31581,-1.57574 0.12037,-2.32769c-1.16828,-4.49488 -6.52896,-8.16764 -9.57163,-11.36569c-3.43447,-1.64157 -7.49235,-3.61344 -10.30799,-6.23688c-1.42743,-1.32999 -3.24989,-2.57328 -3.81182,-4.44162c-0.87015,-2.89315 -0.94561,-6.12035 -0.24897,-9.06011c1.23874,-5.22737 7.00239,-10.78305 11.06079,-14.16505c0.76747,-0.63956 1.8366,-0.87961 2.54301,-1.58603c0.45316,-0.45316 0.62608,-1.15819 0.91732,-1.74224c-3.79788,-2.30395 -5.60252,-13.84744 -5.06737,-14.67445c2.15402,-3.32878 7.22692,-3.35612 11.05397,-4.39259c2.95326,-0.79983 7.8829,0.57123 10.64226,1.08111c6.42869,1.1879 13.50287,2.82572 18.15906,7.83103c4.03091,1.34364 6.80179,4.07034 9.54757,7.35414c0.67712,0.8098 0.95906,1.9224 1.70695,2.66733c1.03642,1.03232 2.42869,1.6397 3.55468,2.57351c2.91859,2.42046 5.40253,5.56017 8.55943,7.65132c7.37224,4.88342 17.10997,9.0851 25.96142,9.85068c9.72025,0.84072 66.84986,-6.12496 76.62049,-5.98359c7.61929,-1.90482 15.92199,-1.04683 23.76365,-1.04683c7,0 14,0 21,0c4.68504,0 8.78719,-0.16293 13.39177,1.47575c1.25282,0.44586 2.16927,1.55616 3.35418,2.15978c4.83507,2.46312 10.83433,1.87984 14.3629,7.01417c3.00057,4.36606 2.1556,10.43887 2.09432,15.36395c-0.86177,3.57186 -1.94481,10.1427 -3.76442,13.31572c-2.9049,5.06553 -9.76047,7.24715 -14.6928,9.5351c-1.54591,0.7171 -2.7216,1.98 -3.73137,3.39893z"/></g></g></svg>