<svg version="1.1" xmlns="http://www.w3.org/2000/svg" xmlns:xlink="http://www.w3.org/1999/xlink" width="244.53607" height="187.10927" viewBox="0,0,244.53607,187.10927"><g transform="translate(-433.04076,55.63389)"><g data-paper-data="{&quot;isPaintingLayer&quot;:true}" fill-opacity="0.49804" fill="#d9ffe9" fill-rule="nonzero" stroke="none" stroke-width="0.5" stroke-linecap="butt" stroke-linejoin="miter" stroke-miterlimit="10" stroke-dasharray="" stroke-dashoffset="0" style="mix-blend-mode: normal"><path d="M663.39363,58.64036c0.74303,-0.40117 1.66965,-0.67952 2.82496,-0.75843c6.23547,-0.42593 6.6614,5.80954 6.6614,5.80954c0.10383,1.5387 0.22852,3.09932 0.36073,4.67622c1.64719,0.56352 5.04485,2.31369 4.20462,7.0171c-0.46988,2.63031 -1.86338,3.93526 -3.30489,4.56732c0.66647,11.82523 0.03254,23.79432 -7.05419,33.72319c-7.53954,10.5633 -21.11654,14.94306 -33.24774,16.68643c-3.77465,0.54245 -7.57435,1.19424 -11.38674,1.10548c-0.53411,-0.01244 -18.78141,-3.29373 -18.96226,-3.32609c-8.0612,-1.44198 -80.3026,-2.4296 -87.80243,-6.03719c-2.16609,-1.04194 -4.10116,-2.50815 -6.15174,-3.76223c-1.00308,-2.66598 -2.74676,-5.16161 -3.00923,-7.99793c-0.18043,-1.94979 1.09172,-3.76349 1.75019,-5.60757c0.75934,-2.12655 1.84743,-4.0439 3.09895,-5.86167c-4.6408,0.08792 -6.28799,0.36055 -11.93462,-0.3435c-6.80993,-0.8491 -8.67198,-1.69161 -15.34602,-3.47227c-10.21652,-2.7258 -21.70963,-5.82839 -28.82252,-14.37265c-8.11224,-9.74474 -2.44181,-24.12493 -0.4537,-35.25397c0.4145,-2.32029 0.829,-4.64058 1.2435,-6.96087c0.15731,-0.88058 0.09976,-1.83002 0.43892,-2.65234c-0.11341,-0.03209 -0.22683,-0.06339 -0.34058,-0.08405c-5.75119,-2.12848 -8.76844,-5.95036 -12.66679,-10.40158c-5.09049,-5.81245 -11.41795,-10.82903 -10.32914,-19.50838c0.90074,-7.18023 5.10804,-13.36829 8.9997,-19.12684c1.49378,-2.21036 2.57758,-4.7044 4.25675,-6.77743c6.29573,-7.7725 7.53185,-8.01011 14.98454,-13.2228c6.71068,-4.69369 13.02767,-9.64429 20.56081,-12.94971c2.13687,-0.93762 10.10284,-3.48519 10.83959,-3.33088c3.62752,0.75979 2.70031,6.61343 3.10022,3.42703c9.67399,-1.64288 19.34596,-3.06732 28.94074,-5.19292c8.78084,-1.94528 80.28115,-4.01846 89.35326,-4.27361c11.12345,-0.31285 21.32159,5.68438 24.27369,16.74347c0.38097,1.42715 0.05931,2.95636 0.19805,4.42695c0.38921,4.12542 0.84606,8.346 0.14702,12.43035c-1.44486,8.44208 -5.61027,15.68405 -6.06962,24.31811c1.32187,4.48077 5.74805,6.83234 9.31745,9.29074c6.04114,4.16079 13.26927,8.34534 15.93044,15.66588c0.49579,1.36387 -0.01945,2.92262 0.26612,4.34544c0.89152,4.44191 3.15062,7.92757 3.65862,12.66073c0.48081,4.47976 -0.1081,9.93693 1.47191,14.38097z"/></g></g></svg>