<svg version="1.1" xmlns="http://www.w3.org/2000/svg" xmlns:xlink="http://www.w3.org/1999/xlink" width="253.61071" height="93.63767" viewBox="0,0,253.61071,93.63767"><g transform="translate(27.0947,-164.42833)"><g data-paper-data="{&quot;isPaintingLayer&quot;:true}" fill-opacity="0.49804" fill="#fff3d9" fill-rule="nonzero" stroke="none" stroke-width="0.5" stroke-linecap="butt" stroke-linejoin="miter" stroke-miterlimit="10" stroke-dasharray="" stroke-dashoffset="0" style="mix-blend-mode: normal"><path d="M-14.33635,244.29806c-0.16195,-1.22923 -0.36118,-2.4436 -0.90706,-3.53949c-0.26555,-0.53312 -1.01823,-0.65537 -1.39464,-1.11694c-2.30917,-2.83155 -5.1709,-6.94588 -6.78108,-10.21648c-2.24636,-4.56282 -4.18583,-11.69766 -3.55483,-16.74709c0.13071,-1.04596 0.85092,-1.9565 1,-3c0.48207,-3.37431 -0.06268,-7.17948 1.73055,-10.07823c3.6295,-5.86707 8.67944,-6.01008 14.43989,-4.08993c6.64995,-0.05987 13.0029,2.33236 19.61472,2.94971c10.94153,1.02163 35.21112,-11.15618 46.14779,-9.98359c1.36654,0.14652 44.63474,10.842 46,11c10.14693,1.17428 19.88009,-0.63966 28.95054,-5.1134c2.39756,-1.79817 5.19266,-3.01175 7.63138,-4.7537c1.26895,-0.90639 2.0251,-2.45463 3.36862,-3.2463c1.60824,-0.94767 3.45013,-1.50789 5.28468,-1.85273c3.18795,-0.59924 8.03319,-0.55811 11.00114,0.9193c0.67547,0.33624 0.71772,-1.40177 1.34556,-1.82026c1.2404,-0.82681 2.74428,-1.19664 4,-2c5.07484,-3.24668 6.97568,-10.99322 15.0904,-9.01254c1.65895,0.40492 3.64245,1.92197 5.17141,3.85546c0.31254,-0.58957 0.61674,-1.18342 0.91385,-1.78021c2.70909,-4.31858 4.72318,-9.79889 11.09043,-10.23037c2.73088,-0.18506 5.24773,1.65475 7.67418,2.92135c4.1251,2.15331 6.26545,5.63184 9.67661,8.48318c1.95668,1.63556 4.51072,2.50863 6.33267,4.29305c1.3366,1.30908 2.30825,2.94542 3.42649,4.44532c1.14461,1.53527 2.91002,2.79798 3.36122,4.65906c0.433,1.78603 -0.73296,3.60822 -0.91351,5.43709c-0.3804,3.85332 0.09202,8.13382 0.0807,11.99886c-0.01709,5.833 1.0726,11.13419 1,17c-0.01831,1.47959 0.25597,3.01805 -0.16719,4.43596c-1.59024,5.32846 -4.53247,7.88165 -8.23648,11.49033c-0.61492,0.37492 -10.37377,6.35352 -11.13007,6.70261c-14.01213,6.46766 -31.81792,11.0302 -47.33212,9.59069c-8.90534,-0.8263 -16.70567,-6.42992 -22.21753,-13.25715c-1.05764,-1.31004 -2.00231,-2.72373 -2.78108,-4.21648c-0.15374,-0.29468 -0.26594,-0.60696 -0.35668,-0.92763c-1.90982,1.98983 -4.89906,3.93083 -5.54142,4.36824c-5.88603,4.00798 -11.672,7.38134 -18.30551,9.95067c-3.3354,0.07259 -9.72077,0.89874 -12.99307,-0.1554c-2.60022,-0.83764 -4.48708,-3.15432 -6.9348,-4.36735c-1.12607,-0.55806 -2.51079,-0.57647 -3.53987,-1.2979c-1.66285,-1.16573 -2.74624,-3.02488 -4.36862,-4.2463c-1.02791,-0.77387 -2.36949,-1.01924 -3.4826,-1.66458c-2.35425,-1.3649 -28.08269,6.38475 -30.30353,4.81207c-0.90404,-0.64019 -33.11928,-11.60263 -34.12348,-11.13495c-5.92143,2.75777 -10.54185,8.89313 -15.01654,13.33661c-0.05775,0.05735 -0.11533,0.11489 -0.17274,0.17263c0.20447,1.86115 -0.2382,4.39142 -3.45159,5.99812c-0.65441,0.3272 -1.27051,0.53949 -1.84831,0.6593c-0.20081,0.31932 -0.39668,0.64142 -0.58745,0.96613c0,0 -3.2156,5.35933 -8.57493,2.14373c-5.35933,-3.2156 -2.14373,-8.57493 -2.14373,-8.57493c0.90657,-1.48692 1.84878,-2.8629 2.82764,-4.16555z"/></g></g></svg>