<svg version="1.1" xmlns="http://www.w3.org/2000/svg" xmlns:xlink="http://www.w3.org/1999/xlink" width="119.85435" height="246.99745" viewBox="0,0,119.85435,246.99745"><g transform="translate(-187.04833,-56.6412)"><g data-paper-data="{&quot;isPaintingLayer&quot;:true}" fill-rule="nonzero" stroke-linecap="butt" stroke-linejoin="miter" stroke-miterlimit="10" stroke-dasharray="" stroke-dashoffset="0" style="mix-blend-mode: normal"><path d="" fill="#261400" stroke="#000000" stroke-width="0"/><path d="" fill="#261400" stroke="#000000" stroke-width="0"/><path d="M216.60326,146.22664c0.83438,-1.13875 1.73301,-3.14425 1.0524,-4.33531c-1.59915,-2.79852 -4.83412,-1.00304 -7.00591,-2.57064c-1.05719,-0.76308 -2.07169,-1.80351 -3.02254,-2.98784c0.82012,0.02818 1.62316,0.12543 2.24474,0.20851c-0.9536,-0.62158 -1.93354,-1.09717 -3.22801,-1.5121c-1.62151,-2.27883 -3.01396,-4.86948 -4.05589,-6.99986c-3.22895,-6.60203 -4.64226,-13.18222 -5.87169,-20.21455c0.01003,0.00838 0.01998,0.01663 0.02985,0.02475h-0.00003c0.35101,0.28915 0.68105,0.55944 0.99219,0.81577c0.02722,-0.7527 0.05915,-1.49829 0.09173,-2.23294c-0.4553,-0.01907 -0.91754,-0.04442 -1.36703,-0.0751c-0.09077,-0.53162 -0.18114,-1.06596 -0.2718,-1.60322c-0.10734,-0.63612 -0.19782,-1.32522 -0.28571,-2.04685c0.28226,0.03379 0.56065,0.0725 0.83212,0.1139c-0.2919,-0.15569 -0.58622,-0.33141 -0.8816,-0.52497c-0.36824,-3.0881 -0.73835,-6.68497 -2.1775,-9.26179l1.33682,-0.19098l0.12148,0.85036l-0.00007,0.00004c0.42838,-0.01807 0.85254,-0.01345 1.27421,0.00935c-0.25991,-0.52362 -0.51936,-1.04744 -0.77847,-1.57142l0.00981,-0.20678l-0.06843,0.0171l-0.49191,-1.96771c-0.04181,-0.15294 -0.06412,-0.31393 -0.06412,-0.48012c0,-1.00333 0.81335,-1.81669 1.8167,-1.81669c0.41558,0 0.7986,0.13953 1.1047,0.37434l1.99253,1.49439l-0.19361,0.25814c1.01006,0.5257 2.05193,1.09634 3.11857,1.68621c2.34265,0.73199 4.39734,1.64214 6.21551,3.13018l0.35583,-0.4448l1.57484,1.25986c0.19245,0.15127 0.35358,0.34057 0.47208,0.55659c4.4202,1.99498 8.938,3.29043 13.14983,2.41466c0.82563,-0.17168 -0.61455,-3.19016 -0.82791,-3.61595c-1.8968,-3.78559 -8.60578,-8.20974 -0.72644,-10.59035c1.35642,-0.40982 2.81432,0.33316 4.22146,0.49974c5.19617,1.29288 19.245,3.98051 21.40125,9.61824c1.00858,2.63703 0.05888,4.62879 -1.76368,6.09162c4.85798,1.23732 9.0919,3.93383 13.6704,6.38216c-0.47443,-1.73371 -0.34154,-3.96096 -0.33897,-5.53303l-0.46798,-2.33986c-0.02793,-0.12657 -0.04265,-0.2581 -0.04265,-0.39307c0,-1.00333 0.81334,-1.81669 1.81669,-1.81669c0.30513,0 0.59269,0.07523 0.84516,0.20814l1.97454,0.98727l-0.31911,0.63825c3.98531,2.39162 6.18352,6.53813 10.82528,8.88053c3.21359,1.62171 7.2544,1.88888 10.56951,3.52808l-1.08641,2.05885c0.91612,-0.17505 1.80975,-0.43361 2.67493,-0.76623c0.09459,-0.17293 0.77353,-1.31408 2.03688,-0.94541c9.45491,-5.17111 14.45178,-19.26873 5.81899,-27.5458c-0.82752,-0.83089 -5.60769,-5.62433 -5.55011,-6.30262c0.19269,-2.27048 4.74873,-3.60937 6.92068,-3.87841c-0.53702,-0.34997 -1.14593,-0.85329 -1.54289,-1.09964c-2.182,-1.35397 -5.22362,-2.95584 -7.79749,-3.25489c-1.64649,-0.19131 -5.54198,-1.27115 -7.11165,-0.62647c-3.6224,1.48778 -3.06448,4.17117 -8.13784,4.1041c-5.04231,-2.42975 -9.11031,-6.85329 -14.85864,-7.49202c-3.36886,-0.37434 -7.52363,-1.46716 -6.68773,2.34829l1.32684,1.76913c0.23482,0.3061 0.37436,0.68908 0.37436,1.10469c0,1.00333 -0.81335,1.8167 -1.8167,1.8167c-0.16621,0 -0.3272,-0.02231 -0.48014,-0.06412l-1.96768,-0.49194l0.21043,-0.84173c-6.12666,-1.99255 -10.96553,-8.41091 -18.05667,-9.15367c-4.26525,-0.44676 -8.61755,-0.40822 -12.87338,-0.7595c-0.93202,-0.07693 1.83257,1.73527 1.28545,2.49368c-2.1782,3.01945 -9.06856,1.0051 -11.99676,0.27304c-3.60552,0.02749 -7.21208,0.02504 -10.81767,0.01361c-0.64407,-0.00206 -3.94354,-0.43666 -4.34319,0.88573c-1.05708,3.49783 2.01581,12.35471 4.90366,14.39046c1.65468,1.16644 8.02533,1.092 7.25442,4.77559c-0.34868,1.66613 -4.66925,2.55038 -6.37065,2.97684c-0.30971,0.07735 -0.87196,0.15897 -1.54479,0.26446c0.00731,-0.09381 0.01556,-0.19184 0.0252,-0.29445c0.05259,-0.55952 0.41912,-1.49565 0.11286,-2.0316c-0.27459,-0.48052 -0.56377,-0.86307 -0.86485,-1.16248c0.50993,-0.1019 0.98162,-0.19849 1.39054,-0.30083c0.07395,-0.01843 0.15739,-0.04193 0.24869,-0.06867c-1.78928,-0.64202 -3.15578,-1.5745 -4.29269,-3.12826c-2.50324,-3.4211 -6.24907,-12.55121 -4.21906,-16.81152c2.5427,-5.33628 14.10849,-3.14471 18.96165,-3.11506c1.67056,0.41763 3.44562,0.21169 5.13961,0.52096c0.3452,0.06303 0.8632,0.24329 1.382,0.4659c0.23058,-1.2683 1.5908,-3.02851 1.83555,-3.23816c2.2109,-1.89375 12.61618,-0.06024 15.2275,0.2441c4.80708,0.56025 9.91828,3.70265 13.83259,6.31313c0.63805,0.42552 1.60964,0.91513 2.49939,1.50064c0.62482,-8.06402 15.19756,-3.51752 20.4658,-0.56919c1.97485,1.10523 3.53198,2.75824 5.54895,3.83004c3.67654,-0.09403 2.71742,-2.53036 5.91261,-3.92472c5.18649,-2.26331 16.92775,1.89923 20.45219,5.82582c3.01081,3.35433 2.94303,3.36399 -1.06182,5.58528c-0.03439,0.01907 -3.50724,0.90703 -3.86395,0.94011c-0.13191,0.01223 -0.36939,-0.01664 -0.58374,-0.05164c1.95206,0.51207 2.60685,2.16536 4.09838,3.65009c10.24353,10.55286 4.80874,26.6946 -6.55511,33.03402c-1.08474,-0.39547 -2.31372,-0.32762 -3.27639,0.49752c-3.03617,2.60243 -3.85192,8.49984 -5.20507,12.15775c-1.6676,4.50795 -7.75196,10.31729 -11.9015,12.38737c-5.13916,2.56378 -11.22622,5.80035 -17.00226,6.71775c-1.43037,0.22718 -2.73422,-0.45034 -4.08164,-0.38726c-0.16343,0.00765 -0.31713,0.03646 -0.46247,0.08343c-1.75034,0.31673 -32.44115,3.50037 -32.38838,0.56166zM277.18154,112.50543c0.80424,-0.186 1.7947,-0.16946 2.87644,-0.01758c-4.45147,-1.8136 -8.47823,-2.98832 -12.65574,-6.57715c-0.90683,-0.77905 -2.41328,-1.83315 -3.48804,-3.02331c0.06261,1.87708 0.17174,3.44948 0.06053,5.1635h0.41288v2.50901c0,1.00333 -0.81335,1.8167 -1.8167,1.8167c-0.50167,0 -0.95582,-0.20335 -1.2846,-0.5321l-1.3484,-1.34837c-4.49449,-2.22043 -9.27163,-6.19745 -14.27,-7.18474c-1.55621,-0.30738 -2.9625,-0.35917 -4.30836,-0.33553c-1.97073,0.53259 -3.93761,0.8002 -5.38414,0.85819v0.01194h-2.50901c-1.00335,0 -1.8167,-0.81337 -1.8167,-1.8167c0,-1.00333 0.81335,-1.8167 1.8167,-1.8167h2.0348c0.19428,-0.00136 0.54557,-0.03034 1.00388,-0.08665c0.75458,-0.50257 1.74028,-0.53462 2.87293,-0.49085c3.25216,-0.69694 7.1039,-2.01906 5.95863,-3.93582c-0.98358,-1.64615 -3.40781,-1.9132 -4.97352,-2.50397c-4.74544,-1.79049 -8.77779,-3.68468 -13.7694,-4.93905c-1.28317,-0.2306 -4.49768,-1.60833 -3.88432,-0.45788c1.95612,3.66901 9.90721,9.47131 3.5406,13.84861c-1.91148,1.31422 -7.13852,-0.42185 -8.8094,-0.87362c-2.58325,-0.69849 -4.9763,-1.34913 -7.33869,-2.11471l-2.18667,0.31238l-0.00557,-0.03895l-0.12257,0.05263c-1.09365,0.00082 -2.92629,0.02979 -4.8773,-0.10268c0.16127,0.92545 0.12162,1.81069 -0.23237,2.60003c0.83134,1.62122 0.84421,3.29845 -0.94374,4.78633c-0.05341,0.04445 -0.17901,0.08059 -0.3623,0.10913c-0.10447,1.78817 -0.20203,3.66302 -0.22369,5.54171c0.23854,0.31305 0.46153,0.64282 0.67397,1.00097l0.36136,-0.24089l1.25655,1.88484c0.20114,0.29239 0.31889,0.64662 0.31889,1.02837c0,1.00333 -0.81335,1.8167 -1.8167,1.8167c-0.18784,0 -0.36901,-0.02848 -0.53944,-0.08141l-0.04106,-0.01175c0.02129,0.20229 0.04435,0.4036 0.0693,0.60385c1.02856,1.38188 1.94724,2.79847 2.6713,4.37343l0.41757,-0.2088l0.93642,1.87282c0.11094,0.21071 0.18169,0.44589 0.20204,0.69531c1.64356,0.6618 3.62717,1.51577 5.36187,2.51956c-0.35098,0.57884 -0.69803,1.16573 -1.11116,1.60832l0.60236,2.03915c0.04599,0.82775 2.0185,1.81509 4.22237,2.69666c-0.085,0.13267 -0.18147,0.26603 -0.28991,0.40004c-0.17949,0.22183 -0.40772,0.40711 -0.67293,0.55845c0.10503,0.10053 0.20915,0.202 0.31231,0.30453c2.71633,2.02911 5.20108,4.24586 7.96617,6.07761c0.61954,-2.68017 2.04316,-3.38202 3.78622,-2.98229c0.32874,0.11282 0.65656,0.2207 0.98363,0.32373c2.7766,1.1638 6.07713,4.46334 8.24584,6.90322c0.82859,0.06813 1.673,0.11486 2.52803,0.14218c0.00288,-0.07313 0.00612,-0.14212 0.00968,-0.20636c0.06158,-1.10804 0.25574,-2.20431 0.5299,-3.28563l-0.20054,-0.02507l0.21683,-1.73463c0.53617,0.00776 1.07532,0.00604 1.61812,-0.00472c-0.31601,0.54963 -0.49674,1.18692 -0.49674,1.86642c0,2.05163 1.64755,3.71844 3.69177,3.74956c0.01937,0.00029 0.03879,0.00044 0.05823,0.00044c0.84929,0 1.63263,-0.28232 2.2613,-0.75824c2.42994,-0.91741 5.86686,-2.35727 6.84709,-2.57511c0.32126,-0.07139 0.64095,-0.14491 0.95896,-0.22065c0.02134,0.02395 0.04292,0.04807 0.06474,0.07236c-0.00016,-0.02934 -0.00015,-0.05862 0.00002,-0.08782c3.74545,-0.89614 7.25881,-2.10102 10.40152,-3.76818c0.17132,0.09337 0.35922,0.18747 0.55639,0.28216c-0.06923,-0.15889 -0.11638,-0.32962 -0.1376,-0.50828c0.37742,-0.20741 0.74929,-0.42174 1.11536,-0.64325c0.96999,-0.31921 1.91341,-0.67332 2.8233,-1.07033c0.02927,-0.0014 0.05873,-0.00211 0.08836,-0.00211h1.9055c0.54361,0 1.65645,-0.11608 2.91595,-0.19672c-0.64062,-0.15326 -1.12088,-0.29409 -1.28244,-0.39684c-0.09636,-0.06126 -0.19058,-0.12516 -0.28297,-0.19143l-0.0288,0.05039l-0.86237,-0.49278c2.20074,-1.266 4.12782,-2.87646 5.65699,-4.97434c1.04473,-0.131 2.08964,-0.26064 3.1367,-0.37838c0.3233,-0.53304 0.64045,-1.07144 0.95045,-1.61337c-0.81658,-0.34539 -1.59525,-0.64389 -2.35813,-0.96787c0.5778,-1.25692 1.04514,-2.64818 1.38696,-4.19112c0.08478,-0.38269 0.15957,-0.75428 0.22374,-1.11533c0.53404,-0.0452 1.09922,-0.08849 1.66395,-0.11498c-0.51434,-0.20399 -1.03129,-0.3992 -1.54981,-0.59427c0.20011,-1.39791 0.22123,-2.63081 0.0221,-3.73465c1.27205,0.09403 2.66755,0.05619 4.05894,0.05392c-0.90091,-0.22382 -1.80419,-0.4175 -2.70731,-0.603c-0.05043,-0.0085 -0.10576,-0.01949 -0.1645,-0.03369c-0.46596,-0.09523 -0.93183,-0.18863 -1.39722,-0.2832c-0.10055,-0.3248 -0.22381,-0.63789 -0.37105,-0.94036c-0.57022,-1.17142 -1.50002,-2.18369 -2.86306,-3.10094c0.37613,0 0.75244,0 1.12853,0zM220.22531,146.4404c-0.03006,2.88824 0.6113,0.93534 0.00004,0zM229.34103,144.18822c-1.90271,-2.38872 -3.33884,-3.72017 -3.84384,-1.37195c0.51054,0.23918 1.03445,0.46143 1.57411,0.66407c0.71769,0.2695 1.47654,0.5046 2.26973,0.70788zM225.81079,146.8881c-0.16237,-0.06082 -0.32347,-0.12322 -0.48337,-0.18717c0.00671,0.17785 1.33223,0.50512 0.48337,0.18717zM256.50557,141.77002c-0.31402,-0.47386 0.14889,0.73805 0.42096,1.54851c0.27781,-0.06007 0.55124,-0.1208 0.81996,-0.18201c-0.52062,-0.46013 -0.9513,-0.92946 -1.2409,-1.36649zM209.21635,130.45917c-0.34205,-0.20371 -0.68638,-0.39684 -1.03269,-0.58144c0.28631,0.23487 0.57527,0.46663 0.86558,0.69672c0.12072,-0.00448 0.23991,-0.0052 0.3573,-0.00179c-0.0701,-0.04183 -0.13405,-0.08006 -0.19022,-0.11351z" data-paper-data="{&quot;index&quot;:null}" fill="#261400" stroke="#000000" stroke-width="0"/><path d="M273.39828,112.50544h0.8098l-2.27249,1.29857c-0.1376,0.07863 -0.24925,0.17339 -0.33871,0.28131c0.11605,-0.89144 0.87831,-1.57988 1.8014,-1.57988z" data-paper-data="{&quot;index&quot;:null}" fill="#261400" stroke="#000000" stroke-width="0"/><path d="" data-paper-data="{&quot;index&quot;:null}" fill="#261400" stroke="#000000" stroke-width="0"/><path d="" data-paper-data="{&quot;index&quot;:null}" fill="#261400" stroke="#000000" stroke-width="0"/><path d="" data-paper-data="{&quot;index&quot;:null}" fill="#261400" stroke="#000000" stroke-width="0"/><path d="" fill="#261400" stroke="#000000" stroke-width="0"/><path d="" fill="#261400" stroke="#000000" stroke-width="0"/><path d="" fill="#261400" stroke="#000000" stroke-width="0"/><path d="" fill="#261400" stroke="none" stroke-width="0.5"/><path d="" fill="#261400" stroke="none" stroke-width="0.5"/><path d="" fill="#261400" stroke="none" stroke-width="0.5"/><path d="" fill="#261400" stroke="none" stroke-width="0.5"/><path d="M272.81487,231.32141c0,-0.19268 0.01857,-0.36678 0.05211,-0.52412c-0.51893,0.13762 -1.0481,0.28579 -1.59947,0.44308c-5.3553,1.19156 -10.72474,3.691 -16.21853,4.09563c-8.05291,0.59312 -15.47742,-1.71773 -22.61963,-5.08428c-0.83094,-0.39167 -1.65611,-0.7437 -2.47388,-1.08657c0.06405,0.12914 0.12821,0.25823 0.19249,0.38728c4.03748,8.10599 7.77737,15.89354 9.99372,24.78509c0.47784,4.28081 1.08567,9.93838 -0.03808,14.14864c-0.88115,3.30131 -3.14958,5.63064 -5.36773,8.04874c-2.42059,2.6388 -4.5195,5.59987 -6.40357,8.63907c-2.14625,3.46213 -4.26967,7.52072 -5.56712,11.39059c-0.18722,0.5584 -1.31093,3.11564 -0.45787,3.24082c8.80748,-0.42032 14.48314,-6.76039 20.9453,-11.75022c2.21803,-1.71267 6.17395,-2.17813 7.64122,-4.69168c2.73798,-4.69038 2.78904,-10.7499 3.16523,-16.00066c0.00797,-9.27906 0.8026,-18.5934 2.62485,-27.70994l0.27848,-1.94931c0.12468,-0.98477 0.96544,-1.74626 1.98406,-1.74626c0.55228,0 1.05229,0.22385 1.41422,0.58578l1.7311,1.73111l-0.02621,0.02622c0.0682,0.05658 0.13538,0.11453 0.20141,0.17401c0.8876,0.79932 1.96708,3.83633 2.32543,4.90291c1.04016,3.0959 2.18609,6.14741 3.18305,9.26102c3.7429,11.68938 6.4946,23.60095 10.4013,35.22861c4.49967,3.51675 12.09299,4.1419 17.55935,2.95514c2.70824,-0.58796 4.94913,-1.67458 4.50289,-4.72661c-1.35068,-9.23774 -9.23514,-15.11464 -14.99632,-21.61031c-4.74702,-4.23073 -5.18247,-12.07153 -6.33364,-18.07537c-0.86293,-4.50054 -1.56828,-9.00613 -2.19088,-13.51962c-0.32596,0.11956 -0.67972,0.2369 -1.06531,0.35427l-0.83796,0.07695c0,0 -2,0 -2,-2zM223.16192,225.73595c0,0 -1.52422,-1.08873 -0.56887,-2.63401c-2.01271,-4.27776 -3.9952,-8.57108 -6.11637,-12.8134c0,0 -0.15336,-0.3067 -0.20606,-0.72962c-0.12052,0.1881 -0.25347,0.38764 -0.40152,0.60235c-1.04934,1.52176 -3.22509,2.84947 -3.78466,4.68505c-0.53128,1.74277 -0.49482,3.65368 -1.20575,5.3312c-2.27143,5.35975 -5.96787,9.20137 -9.60138,13.56159c-1.70392,1.67807 -4.27525,5.10263 -7.40053,4.26391c-1.18136,-0.31704 -1.38272,-2.02259 -1.97346,-3.09365c-1.82305,-3.30539 -2.21999,-7.6356 -2.46598,-11.3387c-0.85058,-12.80462 3.78252,-23.34839 8.84294,-34.73433c2.11402,-4.22822 4.20979,-8.51739 7.17303,-12.22709c3.44778,-4.31629 7.84231,-7.76887 11.23773,-12.09949c3.74005,-4.77017 8.19324,-9.36068 14.14503,-8.67249l-0.74669,-2.91576c1.47987,-2.58774 2.44223,-4.89586 4.46812,-6.79663c-4.1561,-0.90946 -7.73457,-2.98075 -10.06224,-6.18817c-0.20079,0.01908 -0.40212,0.03676 -0.60401,0.05305c-0.76458,0.06168 -4.75446,0.47878 -5.46723,0.18462c-0.11682,-0.04821 -0.23223,-0.0991 -0.34638,-0.15242l-0.01819,0.04547l-3.17149,-1.2686c-0.75958,-0.28362 -1.30047,-1.01577 -1.30047,-1.87426c0,-0.76626 0.43091,-1.43187 1.06364,-1.76772l1.89392,-1.05218l0.01015,0.01828l0.05204,-0.05141c1.77447,-0.82835 3.4685,-1.49606 5.13626,-2.00733c0.01602,-0.20185 0.06096,-0.47393 0.17732,-0.7476c-2.53035,-0.62847 -5.0517,-1.32463 -7.57993,-2.12955c-2.82654,-0.89989 -4.6093,-1.18572 -6.81142,-3.27863l-0.69747,-1.42471c0,0 -0.36257,-1.0877 0.28488,-1.89052c-0.03646,-0.0003 -0.07281,-0.00084 -0.10904,-0.00163c-0.02218,-0.00048 -0.04434,-0.00105 -0.06649,-0.00171l0.00262,0.0144l-2.31866,0.42158c-0.12819,0.02578 -0.26081,0.03932 -0.39659,0.03932c-1.10457,0 -2,-0.89543 -2,-2c0,-0.72756 0.3885,-1.3644 0.96936,-1.71435l1.51405,-0.94628c-1.09664,-0.58836 -1.92466,-1.61539 -2.25834,-3.34742c-0.04641,-0.24089 -0.04034,-0.52022 0.00614,-0.82742c-0.6974,-0.43421 -1.31472,-0.9928 -1.82183,-1.69589c-0.57618,-0.79886 -0.48535,-1.9092 -0.72802,-2.86381c0,0 -0.35661,-1.78307 1.31042,-2.28888c-0.70395,0.06076 -1.40776,0.12196 -2.1114,0.18371l-0.00341,-0.00072l0.00008,0.00101l-3.25826,0.27455c-0.06301,0.00598 -0.12686,0.00905 -0.19143,0.00905c-1.10457,0 -2,-0.89543 -2,-2c0,-0.76626 0.43091,-1.43187 1.06364,-1.76771l1.89392,-1.05219l0.01339,0.0241c0.04564,-0.03423 0.09193,-0.06771 0.13893,-0.10042c0.61045,-0.42476 1.31291,-0.67388 2.03784,-0.87671c0.01541,-0.24111 0.07355,-0.47059 0.16692,-0.68097l0.62904,-1.50969c-0.46693,0.14731 -1.05699,0.1271 -1.71462,-0.36612c-1.6,-1.2 -0.4,-2.8 -0.4,-2.8c0.54937,-0.73194 1.08485,-1.47279 1.61114,-2.21956c-0.4769,-0.94806 -0.86664,-1.87708 -1.18019,-2.80877c-0.18146,1.0866 -0.33182,2.08121 -0.33005,2.84221l-0.35267,1.26084c0,0 -0.39528,1.18586 -1.58114,0.79057c-1.18586,-0.39528 -0.79057,-1.58114 -0.79057,-1.58114l0.22437,-0.47026c0.0073,-3.5514 0.09964,-7.36063 1.35768,-10.63924l-0.42798,-0.14267l0.56792,-1.70375c0.11924,-0.38774 0.42201,-0.69508 0.80692,-0.82066c-0.11607,-1.50921 -0.2268,-3.02747 -0.30703,-4.5425c-0.0249,0.37559 -0.04578,0.7371 -0.05978,1.08023c0.05223,0.29847 0.06774,0.59403 -0.0008,0.88039l0.25369,1.52213c0.01371,0.07415 0.02087,0.1506 0.02087,0.22872c0,0.69035 -0.55964,1.25 -1.25,1.25c-0.61444,0 -1.12533,-0.44332 -1.23027,-1.02756l-0.28397,-1.41988l0.0459,-0.00918l-0.05316,-0.31898l0.20911,-0.03485l-0.22187,-0.06755c-0.00044,-0.1596 -0.00115,-0.31864 -0.00205,-0.47715c-1.34359,-3.34679 -2.02502,-7.35403 -2.58185,-10.67261l-0.24138,-0.67577c0,0 -0.39529,-1.18585 0.79057,-1.58114l0.00009,-0.00002c1.18585,-0.39529 1.58114,0.79057 1.58114,0.79057l0.33566,1.05533c0.10431,0.63049 0.2358,1.25305 0.3841,1.87067c0.09359,-0.72184 0.21567,-1.44297 0.37428,-2.16632l-0.33612,-0.03734l0.27441,-2.46972c0.06181,-0.6326 0.59518,-1.12695 1.24402,-1.12695c0.44564,0 0.8368,0.2332 1.05813,0.58422v-1.35384c0,-0.69035 0.55964,-1.25 1.25,-1.25c0.59488,0 1.09269,0.41555 1.21902,0.9722l0.56205,2.24819c0.44787,1.35391 0.87888,2.73077 1.29668,4.1196v-0.60816c0,-0.69035 0.55964,-1.25 1.25,-1.25c0.09447,0 0.18649,0.01048 0.27497,0.03034c0.23233,-2.484 0.67635,-4.8928 1.48563,-7.09769l-0.36585,-0.10453l0.56944,-1.99305c0.14027,-0.53694 0.62861,-0.93317 1.2095,-0.93317c0.59972,0 1.10079,0.42234 1.22203,0.98582l0.34687,1.45969l-0.00874,0.00208l0.01445,0.02307c0.18964,0.97534 0.39309,1.95009 0.60632,2.92447c0.22846,-0.29811 0.58816,-0.49034 0.99276,-0.49034c0.62742,0 1.14687,0.46226 1.23637,1.06477l0.26622,1.59731c0.09294,-0.02383 0.18603,-0.04717 0.27927,-0.07004c0.3562,-0.38047 0.72347,-0.72693 1.10518,-1.02753c0.0722,-0.05686 0.14559,-0.11181 0.22007,-0.16502l-0.01724,-0.02155l2.13073,-1.70458c0.34419,-0.28022 0.78339,-0.44822 1.26183,-0.44822c0.06445,0 0.12817,0.00305 0.19106,0.00901c0.55118,-1.6968 1.24112,-3.42865 1.74836,-3.67864c3.38359,-1.66761 4.65765,2.03806 5.46982,3.80724c0.20227,0.44062 0.40122,0.88216 0.59798,1.32417c0.15659,-0.07061 0.33033,-0.1099 0.51325,-0.1099c0.63663,0 1.16211,0.47594 1.24003,1.09142l0.28224,1.97571c0.1198,0.59979 0.23811,1.19948 0.35425,1.79922c0.09429,-0.13979 0.19821,-0.27033 0.31255,-0.39012c0.74985,-0.78557 1.59504,-1.26632 2.49509,-1.52423c0.15649,-0.6486 0.33245,-1.28692 0.5315,-1.91278l-0.3695,-0.09238l0.57069,-2.28276c0.12633,-0.55665 0.62414,-0.9722 1.21902,-0.9722c0.5623,0 1.03789,0.37128 1.19497,0.88206l0.56792,1.70376l-0.02362,0.00787l0.04589,0.06658c0.17902,0.89079 0.3497,1.77642 0.5134,2.65904c0.66061,0.1519 1.31873,0.35022 1.96173,0.56937l0.27978,-1.39892c0.10494,-0.58424 0.61583,-1.02756 1.23027,-1.02756c0.54615,0 1.01051,0.35027 1.18066,0.83842l0.36901,0.98403c0.14508,-0.0589 0.30373,-0.09135 0.46995,-0.09135c0.61444,0 1.12533,0.44332 1.23027,1.02756l0.27671,1.38353c0.02685,0.09591 0.05325,0.19199 0.07925,0.28826c0.20554,0.08935 0.41043,0.18007 0.61461,0.27215c1.53337,-0.94787 3.22071,-1.71739 4.63985,-2.17211c3.17805,-1.01832 6.11997,-1.07282 9.22032,-0.82552v-0.45498c0,-0.69035 0.55964,-1.25 1.25,-1.25c0.51126,0 0.95082,0.30693 1.14449,0.74659l0.58853,1.26051c0.0444,0.00509 0.08884,0.0102 0.13334,0.01533c2.78422,0.62931 5.37537,1.37984 7.76042,2.72734c2.471,-0.31512 4.90514,-0.40105 7.55268,-0.39761c1.5194,0.00198 4.62858,-0.21609 6.08731,0.66528c0.25546,0.15435 0.49362,0.31567 0.71521,0.48344c0.01385,-0.11764 0.02895,-0.23525 0.04542,-0.35283c-0.05556,-0.29718 -0.11231,-0.59375 -0.17033,-0.8897l0.34036,-0.0864c0.00258,-0.01226 0.00518,-0.02451 0.00779,-0.03677h-0.35423v-1.44259c0,-0.69035 0.55964,-1.25 1.25,-1.25c0.69036,0 1.25,0.55965 1.25,1.25v1.3492c0.00953,0.04678 0.01896,0.09359 0.02829,0.14041c0.09638,0.17358 0.1193,0.36893 0.1093,0.57403c0.06165,0.33907 0.11843,0.67892 0.17107,1.01944c0.63594,0.05856 1.13393,0.59346 1.13393,1.24468v0.51274c1.40837,-0.22692 2.63475,-0.05365 3.10213,0.98963v-0.09853h0.17857l0.02044,-0.20439l2.12116,0.21211c1.02166,0.08959 1.82299,0.94736 1.82299,1.99228c0,1.10457 -0.89543,2 -2,2h-0.63346c0.00678,0.80191 0.03398,1.60684 0.07709,2.4141c0.18239,0.55268 0.33454,1.12684 0.46332,1.71721c1.00534,-1.98183 2.01319,-5.59382 3.82898,-6.9568c0.03674,-0.20244 0.07201,-0.40479 0.10571,-0.60702l0.1011,-0.10424l-0.05793,-0.02317l0.56622,-1.41555c0.17726,-0.47474 0.63486,-0.81279 1.17141,-0.81279c0.69036,0 1.25,0.55965 1.25,1.25c0,0.14845 -0.02588,0.29086 -0.07337,0.42296l-0.5678,1.70343l-0.03895,-0.01299c-0.71701,4.12579 -1.99376,8.37712 -3.42063,12.54248l0.01964,0.02616c0.21049,1.08777 0.52033,2.15148 0.89221,3.20021c0.97103,-1.4698 2.00705,-2.86191 3.15982,-4.10444l-0.33476,-0.28693l1.62169,-1.89197c0.22929,-0.27078 0.57175,-0.44268 0.95436,-0.44268c0.69036,0 1.25,0.55965 1.25,1.25c0,0.09286 -0.01013,0.18336 -0.02934,0.27045l-0.28346,1.41728l-0.04237,-0.00848l0.01482,0.11951c-0.04713,0.1189 -0.09452,0.23772 -0.14218,0.35644c0.56169,0.35411 0.93486,0.98002 0.93486,1.69308c0,0.125 -0.01147,0.24732 -0.03341,0.36596l-0.42244,2.53463l-0.01457,-0.00243c0.00011,0.02695 0.00008,0.05392 -0.00012,0.08089c-0.0018,0.24689 -0.01267,0.495 -0.03194,0.74415c0.37482,0.21582 0.62716,0.62045 0.62716,1.08402c0,0.09287 -0.01013,0.18337 -0.02934,0.27046l-0.27835,1.39176c-0.71597,5.00967 -1.69671,10.06182 -4.51852,14.32255c0,0 -0.69338,1.04007 -1.73344,0.34669c-1.04007,-0.69338 -0.34669,-1.73344 -0.34669,-1.73344c1.02358,-1.52396 1.77531,-3.1769 2.35073,-4.89988c-0.02702,-0.03884 -0.051,-0.0772 -0.07213,-0.11397c-0.60032,1.15498 -1.17678,2.26858 -1.65413,3.31844c-0.6004,1.32048 -2.84671,7.39571 -4.69468,7.43075c-1.53433,0.02908 -2.50722,-0.75633 -3.14978,-1.86375c-0.45738,-0.18577 -0.77991,-0.63452 -0.77991,-1.15859c0,-0.16467 0.03185,-0.32191 0.08971,-0.46588l0.00486,-0.01296c-0.05095,-0.16815 -0.0981,-0.33801 -0.14193,-0.5085c-0.3207,0.90403 -0.72418,2.0232 -1.06146,2.87555c0.41337,0.3664 0.67392,0.90137 0.67392,1.49719c0,0.60423 -0.26794,1.14588 -0.6915,1.51261l-1.70602,1.49276l-0.09005,-0.10291c-0.22582,0.21943 -0.47983,0.4055 -0.77273,0.5455c-0.13013,0.06221 -0.69598,-0.0294 -1.46214,-0.19789c0.38941,2.10658 0.48012,4.90597 -0.14436,5.44558c-1.80876,1.56293 -3.63324,0.86692 -5.20968,-0.04603c-0.33715,0.51409 -0.70495,1.00751 -1.09699,1.48539l0.31635,0.21901l-1.91251,2.76252c-0.06185,0.09195 -0.13114,0.1785 -0.207,0.25876c0.03587,0.04107 0.07097,0.08476 0.10519,0.13121c2.73035,-0.84596 5.20025,-2.08207 7.52838,-4.41922c0,0 1.41421,-1.41421 2.82843,0c1.41422,1.41421 0,2.82842 0,2.82842c-3.93092,3.91742 -8.17511,5.30464 -13.19852,6.42271c0.52362,1.81109 -1.29949,2.41878 -1.29949,2.41878l-0.94661,0.28974c-0.83362,0.13889 -1.6739,0.28416 -2.5199,0.43365c-0.56985,0.46132 -1.14329,0.90732 -1.72765,1.31779c-0.86924,0.61058 -1.6407,1.63204 -2.70133,1.69062c-1.32097,0.07296 -2.44847,-1.03802 -3.73769,-1.33499c-0.17057,-0.03929 -0.34161,-0.07471 -0.51304,-0.10649c-0.25533,0.04486 -0.51089,0.08947 -0.76664,0.13376l-1.82318,1.41234c-0.64162,0.36764 -1.53011,0.93918 -2.54261,1.55571c1.04918,1.68008 1.02676,3.55643 -1.39132,5.41544c-2.50641,1.9269 -6.78628,2.24886 -9.92298,2.16574c0.04813,1.05833 -0.93435,1.71331 -0.93435,1.71331c-2.41309,1.52975 -3.17435,4.1035 -4.56622,6.5411l0.84405,-0.57868c0,0 0.8323,1.38716 -0.24773,2.4149c0.3756,0.2001 1.62165,1.00394 0.94807,2.57561c-0.78784,1.83829 -2.62613,1.05045 -2.62613,1.05045c-5.54047,-2.52517 -9.55086,2.68362 -12.64052,6.60787c-3.41752,4.34065 -7.80204,7.81236 -11.2666,12.13594c-2.76716,3.45326 -4.7056,7.49112 -6.67578,11.43131c-2.32119,5.22267 -5.26093,10.32203 -6.80787,15.84508c-1.35909,4.85235 -1.65414,10.02749 -1.65635,15.03822c-0.00142,3.22073 0.22246,6.9466 1.32703,10.00514c0.23446,0.64922 0.6823,1.22526 0.8194,1.90177c0.06463,0.31891 -0.56772,0.94243 -0.24236,0.94559c0.39774,0.00385 0.46432,-0.64844 0.73399,-0.94082c0.72694,-0.78816 1.50138,-1.53114 2.25208,-2.29671c3.34777,-4.01732 6.72841,-7.48835 8.86371,-12.40495c0.68706,-1.58198 0.52839,-3.42899 1.10238,-5.05541c1.28299,-3.63537 4.68784,-5.83711 6.08356,-9.59085l1.46499,-1.98973c0,0 1.24939,-1.56173 2.81113,-0.31234c1.56174,1.24939 0.31235,2.81112 0.31235,2.81112l-0.84315,0.89544c-0.36431,0.96429 -0.58909,1.63825 -0.84607,2.26189c0.03193,-0.01753 0.06479,-0.03476 0.0986,-0.05167c1.78886,-0.89443 2.68328,0.89443 2.68328,0.89443c2.4999,4.99979 4.81618,10.06284 7.20519,15.09489c2.19646,1.20505 4.50932,1.92739 6.84792,3.02618c6.56107,3.08273 13.25261,5.23432 20.65793,4.7253c5.22732,-0.35931 10.4206,-2.85147 15.51835,-3.98284c1.93212,-0.55294 3.65732,-0.98941 5.54931,-1.28082c-0.73375,-5.94261 -1.38953,-11.90138 -2.13721,-17.88279c-0.90305,-7.23837 -1.85893,-14.87938 -1.74655,-22.17536c0.02688,-1.74488 -0.48721,-6.07205 2.83371,-6.30193c2.76466,-0.19138 5.29437,3.64513 6.39623,5.61879c4.19488,7.51389 6.39441,16.53106 8.8427,24.70248c1.18295,5.31782 2.01712,10.661 3.19689,15.96773c0.23919,1.07592 -0.08788,3.52493 1.4175,3.94831c2.54298,0.71519 3.46612,-5.55667 3.92461,-6.94549c0.36349,-1.10105 0.39685,-2.41144 1.16949,-3.276c0.44833,-0.50167 1.50084,0.18014 2.0002,-0.27077c0.3738,-0.33754 -0.08207,-1.01002 -0.02735,-1.51068c0.11919,-1.09067 0.46365,-2.15171 0.54713,-3.2457c0.2944,-3.85795 0.02684,-7.52029 -0.83206,-11.26478c-1.60055,-8.80187 -4.77774,-16.73453 -7.71843,-25.12956c-1.45412,-4.1512 -3.12103,-9.74209 -6.66151,-12.73206c-3.32297,-2.80627 -7.94077,-4.41096 -12.06362,-5.59047c-4.4802,-0.63098 -8.96706,-1.08072 -13.42603,-1.70722l-1.43094,0.01986l-0.26556,0.1765c0,0 -1.97278,0.3288 -2.30158,-1.64399c-0.28413,-1.70474 1.15039,-2.18188 1.54545,-2.28007c0.02751,-0.01384 0.05503,-0.02692 0.08247,-0.03928c-0.32389,-3.50516 -1.62619,-7.47314 -2.93601,-10.49338c0,0 -0.78784,-1.83829 1.05045,-2.62613c1.83829,-0.78784 2.62613,1.05045 2.62613,1.05045c1.51115,3.56172 2.90028,7.99829 3.25097,12.02591c4.19408,0.57954 8.42768,0.99586 12.63887,1.60532c4.78933,1.36697 10.08284,3.21512 13.90292,6.52724c4.06068,3.52073 6.06635,9.53305 7.76434,14.38854c2.99565,8.5662 6.22864,16.66759 7.86149,25.64944c1.15152,5.16381 1.55954,10.85519 0.2921,16.07232c-0.12034,0.49534 -0.20361,1.0179 -0.31037,1.53072c1.00842,0.24649 1.82886,0.79402 1.51551,1.70999c-0.60505,1.76864 -1.63809,1.37357 -2.56311,0.58441c-0.49977,0.25198 -1.3919,-0.21911 -1.86248,0.16378c-0.34656,0.28198 0.08952,0.89967 0.01542,1.34027c-0.11797,0.7014 -0.38924,1.36822 -0.58592,2.05174c-1.03473,3.59596 -3.21491,9.0427 -8.18422,7.73677c-3.89107,-1.02257 -3.68183,-3.99452 -4.35284,-7.01534c-1.16413,-5.24074 -1.98492,-10.51812 -3.15049,-15.76915c-2.12804,-7.08379 -4.38202,-13.92802 -7.13136,-20.81556c-0.75556,-1.89281 -2.14715,-3.54618 -3.065,-5.34043c0.00615,0.37515 -0.01351,0.75355 -0.00568,1.12743c0.04571,2.18238 0.16561,4.35685 0.28604,6.53626c0.27769,5.02552 0.80436,10.15097 1.42962,15.14296c0.74881,5.99051 1.4027,11.95841 2.13702,17.90989l0.24494,-0.02722c0.08182,-0.01019 0.16517,-0.01544 0.24975,-0.01544c1.10457,0 2,0.89543 2,2c0,0.4918 -0.17751,0.94215 -0.47196,1.29046l-1.39324,1.6719c0.67332,5.05228 1.43973,10.09392 2.40695,15.12872c0.9362,4.87332 1.16444,12.67909 5.20704,15.96964c6.25577,7.02288 15.15184,13.81124 16.16352,23.97537c0.52179,5.24233 -2.77128,8.02727 -7.61482,9.12221c-7.23559,1.63569 -16.04044,0.2968 -21.67897,-4.5463c-4.69308,-11.75001 -7.09702,-24.27881 -10.94896,-36.32361c-0.99048,-3.09718 -2.14479,-6.11908 -3.16433,-9.20407c-0.18133,-0.54868 -0.44497,-1.05401 -0.69851,-1.54118c-1.41593,8.05229 -2.03243,16.23073 -2.047,24.39425c-0.41589,5.83912 -0.4882,12.81797 -3.75211,17.94554c-2.19132,3.44254 -5.61167,3.36244 -8.51575,5.69493c-2.60734,2.09415 -4.88356,4.68333 -7.57709,6.69493c-4.64118,3.46614 -11.32844,5.91997 -17.0633,5.79028c-0.99004,-0.74531 -2.42255,-1.12424 -2.97011,-2.23593c-0.51705,-1.04975 -0.0084,-2.3471 0.14111,-3.50769c0.39389,-3.05769 1.99946,-5.90148 3.35082,-8.60567c2.00644,-4.01502 4.1894,-7.87709 6.80478,-11.53064c2.42899,-3.39317 6.64423,-6.09397 7.76807,-10.31383c0.96739,-3.63241 0.37055,-8.6966 -0.03808,-12.39493c-2.13634,-8.51474 -5.73807,-15.93824 -9.62544,-23.68577c-0.82703,-1.64828 -1.6329,-3.30545 -2.42759,-4.96758c-0.33209,-0.20577 -0.66206,-0.42354 -0.9898,-0.65576zM241.93028,141.93759c-1.50628,-0.53759 -1.84905,-2.30099 -1.84708,-4.01391c-0.90215,0.04604 -1.80125,0.07538 -2.69627,0.08563l-0.36803,0.58885c-0.34995,0.58086 -0.98678,0.96936 -1.71435,0.96936c-0.91577,0 -1.68778,-0.61548 -1.92494,-1.45536c-0.67879,0.21561 -1.35901,0.41429 -2.04192,0.59588c-0.53336,0.36237 -1.08019,0.69171 -1.60894,0.98069c2.39519,1.87458 5.62822,2.82976 9.07616,2.95251c1.90661,0.06787 2.95632,0.091 4.7875,-0.36662c1.11462,-0.27856 3.4556,-0.10269 3.22078,-1.22733c-0.00127,-0.00609 -0.00256,-0.01217 -0.00389,-0.01824c-1.81617,0.84291 -3.60941,1.36166 -4.87902,0.90855zM243.68098,138.34106c0.08174,-0.05107 0.16353,-0.10205 0.24537,-0.15292c-0.02106,-0.01101 -0.04217,-0.02197 -0.06332,-0.03289c-0.15107,0.14829 -0.29288,0.25505 -0.18205,0.18581zM258.08027,125.01828c0.02103,-0.00913 0.04206,-0.01832 0.06306,-0.02754c-0.01449,0.0006 -0.02884,0.00118 -0.04304,0.00174c-1.04939,0.042 -2.09776,0.05875 -3.14513,0.05358c-0.31725,0.27421 -0.63219,0.55423 -0.94494,0.83701l0.14297,0.08798l-0.17546,0.28512c1.41003,-0.27501 2.78475,-0.66596 4.10255,-1.23789zM259.67843,128.68514c-0.37863,0.16386 -0.76017,0.3141 -1.14432,0.45202c2.30878,-0.34052 4.64003,-0.75537 7.0164,-1.24435c0.23982,-0.04935 0.47766,-0.09803 0.71356,-0.14638c0.78411,-0.55398 1.59226,-1.07178 2.45657,-1.52071c-0.26806,-0.31193 -0.44159,-0.70744 -0.47616,-1.14209l-0.13421,-1.47636l-1.58526,1.18895c-0.33699,0.25849 -0.75864,0.41212 -1.21617,0.41212c-0.00687,0 -0.01372,-0.00003 -0.02057,-0.0001c-1.73818,1.36786 -3.59479,2.60485 -5.60984,3.47691zM222.49013,136.00531c-0.08623,0.02817 -0.17258,0.05683 -0.25906,0.08597c0.09454,-0.00415 0.18912,-0.00813 0.28376,-0.01202c-0.00829,-0.02461 -0.01652,-0.04926 -0.0247,-0.07395zM234.10381,129.89017c0.20358,0.04107 0.40736,0.08211 0.61137,0.12316c0.24474,0.01726 0.48893,0.03374 0.73257,0.04946c0.04092,-0.18399 0.11096,-0.34926 0.19656,-0.49581c-0.49397,0.07574 -1.01114,0.19035 -1.5405,0.32319zM248.55577,126.60508l-0.07011,0.27066c0.13425,-0.00784 0.26844,-0.01596 0.40254,-0.0244l0.50518,-2.02073c-2.2356,-0.15493 -4.46703,-0.38318 -6.69466,-0.65192c-0.92658,0.47878 -1.79926,0.97444 -2.56042,1.39623c2.80467,0.10796 5.60853,0.4701 8.41747,1.03016zM268.08243,123.30104c-0.02301,-0.01966 -0.046,-0.03916 -0.06899,-0.05851l0.07245,0.09661zM218.79062,122.79824c0.18983,0.11865 0.37627,0.24093 0.55961,0.36541c0.01585,-0.00326 0.03121,-0.00629 0.04604,-0.00908c1.94083,-0.36445 3.89762,-1.03352 5.75146,-1.76599c-0.27004,-0.07259 -0.53914,-0.14845 -0.80736,-0.22792c-2.05074,0.25328 -4.04867,0.70251 -5.72645,1.5447c0.11201,0.05244 0.17669,0.09287 0.17669,0.09287zM234.48447,124.28659c-0.04482,0.25728 0.40656,-0.33068 0.63039,-0.46523c0.30608,-0.18399 0.61635,-0.36082 0.92801,-0.53525c-0.39872,-0.0569 -0.79733,-0.11405 -1.19583,-0.17126c-0.15208,0.38732 -0.29374,0.77665 -0.36257,1.17174zM210.6267,123.21883l-0.26884,-0.13881c0.92326,1.00353 1.86292,1.38565 2.93568,1.68367c-0.07861,-0.32719 -0.1249,-0.69072 -0.13445,-1.09394c-0.02434,-1.02717 0.30367,-1.85275 0.84037,-2.52464c-1.32676,0.40469 -2.70352,0.82526 -4.02881,1.10826c0.47078,0.40969 0.65605,0.96546 0.65605,0.96546zM208.91217,109.05296c-0.27211,0.81283 -0.68537,1.63199 -1.10526,2.44795c0.51337,-0.00532 1.03124,-0.05519 1.52308,-0.1346c0.09704,-0.01567 0.19301,-0.03202 0.28795,-0.04905l0.11626,-1.74389l0.07312,0.00487c-0.00875,-0.11701 -0.01519,-0.2343 -0.01908,-0.35189c-0.0291,-0.87844 0.2937,-1.70122 0.70609,-2.50522c-0.07672,-0.03297 -0.15305,-0.06711 -0.22871,-0.1025c-0.64837,0.05388 -1.29667,0.10781 -1.94491,0.16186c-0.01257,0.01954 -0.02515,0.03907 -0.03772,0.05862c1.10304,0.79233 0.62919,2.21386 0.62919,2.21386zM212.74292,114.79513l3.29384,-0.61759c0.13171,-0.02729 0.26816,-0.04164 0.40796,-0.04164c1.03779,0 1.89095,0.79042 1.99033,1.80209c0.69699,-0.15233 1.39476,-0.30339 2.09324,-0.45258c0.46928,-0.52621 0.97493,-1.0102 1.5594,-1.40268c0.40375,-0.27113 0.87029,-0.39365 1.36051,-0.45473c-0.24867,-0.91779 -0.43728,-1.79591 -0.5458,-2.35022c-0.12402,0.17123 -0.24932,0.3415 -0.37598,0.51075l-0.02747,0.01803l0.00815,0.00652l-1.70299,2.12874c-0.36617,0.46584 -0.93479,0.76503 -1.57328,0.76503c-1.03725,0 -1.89007,-0.7896 -1.99017,-1.80052c-0.17915,0.1043 -0.34587,0.19784 -0.49679,0.27884c-1.13557,0.60951 -2.58881,1.19109 -4.17221,1.6196c0.05709,-0.00324 0.11418,-0.00645 0.17127,-0.00962zM233.44567,113.08748c0.40276,-0.05946 0.80567,-0.11713 1.20872,-0.17291l0.23473,-0.78243l0.01316,0.00395l-0.00424,-0.0329c0.07803,-0.23418 0.15509,-0.46864 0.23117,-0.70337c-0.36223,-0.50466 -0.77231,-0.80113 -1.39542,-0.39059c-0.57263,0.52021 -1.13584,1.28183 -1.72682,2.10281c0.47968,-0.01067 0.95937,-0.01861 1.4387,-0.02456zM245.08215,89.14141c0.71801,0.3043 1.45085,0.56841 2.17962,0.78298c0.18125,-0.04161 0.36248,-0.08322 0.54367,-0.12486c-0.10694,-0.43837 -0.21852,-0.88828 -0.34405,-1.35581c-0.79621,0.21209 -1.5894,0.44404 -2.37924,0.69769zM252.30641,88.87883c0,0 0.47214,-0.08585 0.99591,0.05783c-0.12122,-0.55146 -0.2404,-1.10299 -0.3579,-1.65467c-0.595,0.09655 -1.18877,0.20159 -1.78118,0.31587c0.00587,0.49447 0.01607,0.98948 0.02747,1.48408zM213.50617,68.16272c-0.1317,0.17845 -0.26325,0.35286 -0.39025,0.52274c-0.21051,0.28157 -0.42487,0.57188 -0.64317,0.86845c0.23284,0.80613 0.46031,1.61508 0.684,2.42589c0.10136,-1.28527 0.22323,-2.56167 0.34942,-3.81709zM282.91192,96.04387c-0.08765,-0.13071 -0.16989,-0.26721 -0.24725,-0.40812c-0.0596,0.10864 -0.11914,0.21731 -0.1786,0.32599c0.04138,1.68273 0.08306,3.36583 0.11822,5.04995c0.32896,0.14225 0.61215,0.37028 0.82139,0.6559c0.07085,-0.174 0.14174,-0.34799 0.21263,-0.52197c-0.30001,-1.7082 -0.54275,-3.40723 -0.72638,-5.10175zM277.76415,87.57267c-0.22728,0.08647 -0.45527,0.1701 -0.68399,0.25112c-0.15425,0.35319 -0.30895,0.70612 -0.46397,1.05885c0.24662,0.72669 0.4961,1.45256 0.7463,2.17822c0.21578,-1.14028 0.43784,-2.27846 0.66452,-3.41528c-0.08763,-0.02535 -0.17523,-0.04964 -0.26286,-0.07291zM273.8209,88.81068c-0.00243,0.01348 -0.00493,0.02693 -0.00747,0.04037c0.00647,-0.01449 0.01295,-0.02899 0.01942,-0.04348c-0.00399,0.00104 -0.00797,0.00207 -0.01196,0.00311zM230.28723,101.04258c-0.41945,-0.198 -0.83917,-0.39574 -1.21681,-0.63634c-0.12117,0.26209 -0.24462,0.52323 -0.36998,0.78341c0.52914,-0.04817 1.05809,-0.09717 1.58679,-0.14707zM220.86003,100.53227c-0.47055,0.08204 -0.94217,0.15738 -1.41251,0.23575c-0.15184,0.41173 -0.30752,0.82215 -0.46687,1.23095c0.60988,-0.04726 1.21971,-0.09497 1.82945,-0.14321c0.02529,-0.0483 0.05021,-0.09605 0.0747,-0.14321c0.22824,-0.43952 0.4614,-0.87458 0.69926,-1.30548c-0.24223,0.04133 -0.48362,0.08328 -0.72403,0.1252zM265.63814,79.78337c-0.09505,0.02213 -0.19007,0.04435 -0.28508,0.06669c-0.01042,0.37041 -0.01762,0.74093 -0.02199,1.11153c0.0707,0.01693 0.1421,0.03415 0.21415,0.0517c0.09199,-0.39841 0.1873,-0.79404 0.287,-1.18691c-0.06469,-0.01435 -0.12938,-0.02868 -0.19408,-0.043zM237.77642,80.33148c0.75503,-0.1549 1.44454,-0.28983 1.88181,-0.37329c-0.06961,-0.48193 -0.13335,-0.96655 -0.19349,-1.45266c-0.22018,-0.69448 -0.42894,-1.39622 -0.62911,-2.10031c-0.52857,1.23515 -0.92581,2.60469 -1.05921,3.92627zM231.06732,83.27388c-0.00443,-0.00592 -0.00886,-0.01184 -0.01329,-0.01776v0.02457c0,0.00126 0,0.00251 -0.00001,0.00376c0.00442,-0.00354 0.00885,-0.00707 0.0133,-0.01057zM232.18488,78.00804c0.04407,0.05867 0.08823,0.11729 0.13245,0.17586c-0.3623,-1.34129 -0.67567,-2.70998 -0.99846,-4.07404c-0.07972,-0.00772 -0.15943,-0.01535 -0.23913,-0.02289c-0.00553,0.07027 -0.0107,0.14064 -0.01543,0.2111c-0.04173,0.62068 -0.06169,1.24545 -0.06859,1.87221c0.37167,0.62906 0.7725,1.23867 1.18916,1.83777zM267.21171,90.2797c0.08554,-0.05366 0.17707,-0.10939 0.27287,-0.1671c-0.54463,0.08166 -1.0586,0.14666 -1.437,0.17029c-0.0491,0.22961 -0.09843,0.45919 -0.14796,0.68873c0.462,-0.20528 0.90209,-0.43474 1.31209,-0.69192zM261.18615,88.34764c-0.24021,-0.05934 -0.47956,-0.12624 -0.71765,-0.20024c0.05618,1.41289 0.13818,2.82138 0.25473,4.22296c0.58177,-0.0918 1.17114,-0.19891 1.75644,-0.3264c-0.23895,-0.82737 -0.45363,-1.66151 -0.65759,-2.50201c-0.33627,-0.30515 -0.5682,-0.7232 -0.63594,-1.1943zM224.79104,73.90767c-0.26034,0.00866 -0.52919,0.01669 -0.80473,0.02534c-0.06482,2.78722 0.03204,5.60717 0.09548,8.40331c0.53426,-0.47957 1.12736,-1.10235 1.70108,-1.73386c-0.03725,-0.59028 -0.07181,-1.20645 -0.1116,-1.86037c-0.0834,-1.37059 -0.25797,-2.76203 -0.48465,-4.15868c-0.13394,-0.22374 -0.26586,-0.44894 -0.39558,-0.67573zM206.55152,70.39928c-0.09419,0.0709 -0.18768,0.14355 -0.28045,0.21799c-0.18498,0.14844 -0.3658,0.30286 -0.54201,0.46282c-0.0032,0.12626 -0.00625,0.25254 -0.00916,0.37884c0.28171,-0.33398 0.55826,-0.68953 0.83162,-1.05966zM220.79691,67.14203c-0.0452,-0.58889 -1.03527,-0.22501 -1.74253,-0.07183c0.07871,0.13446 0.13302,0.28493 0.15685,0.44535l0.26205,1.5723c0.13372,0.2696 0.26041,0.5456 0.38083,0.82711c0.49438,-0.89737 1.01809,-1.79209 0.9428,-2.77293zM262.56568,72.64444c-0.59602,0.14684 -1.33022,0.30662 -2.1113,0.50802c-0.0058,0.47326 -0.01216,0.94702 -0.01875,1.42118c0.78481,0.16051 1.56913,0.32362 2.35293,0.4892c0.12154,-0.88392 0.28349,-1.74671 0.4946,-2.58078c-0.2375,0.05108 -0.47658,0.10514 -0.71748,0.16237zM276.49651,74.00004c0.59296,-0.39119 1.20657,-0.76381 1.84563,-1.11372c-0.02028,-0.09753 -0.04354,-0.19572 -0.06995,-0.2946c-0.41161,-1.54144 -4.41382,-0.96335 -5.03365,-0.96247c-0.97526,0.00137 -1.91562,0.01169 -2.83754,0.04142c0.11417,0.1886 0.17987,0.40981 0.17987,0.64637v0.00096c0.36379,0.52336 0.68595,1.07167 0.96403,1.6377c0.03107,-0.00231 0.06244,-0.00349 0.0941,-0.00349c0.31664,0 0.60579,0.11774 0.82605,0.31182c1.35582,-0.16239 2.70264,-0.25785 4.03145,-0.26399zM277.22939,78.23237c-0.04856,0.03727 -0.09701,0.07468 -0.14536,0.11222c0.02792,0.00687 0.05585,0.01375 0.08377,0.02062c0.02074,-0.0442 0.04128,-0.08848 0.06159,-0.13285zM240.59565,86.51937c0.20221,-0.07343 0.40457,-0.14566 0.60707,-0.21673c-0.04379,-0.11084 -0.08652,-0.22222 -0.12823,-0.33411c-0.31221,0.05821 -0.62448,0.11441 -0.93679,0.16845c0.14757,0.12886 0.30037,0.2564 0.45795,0.3824zM274.68674,82.20015c0.07328,-0.08724 0.14586,-0.17516 0.21769,-0.26375c-0.17075,-0.0414 -0.34153,-0.08273 -0.51235,-0.12398c0.03614,0.12939 0.07259,0.25869 0.10932,0.38792c0.06178,-0.00007 0.12356,-0.00013 0.18534,-0.0002zM219.61237,62.68354c-0.0315,0.14316 -0.06975,0.286 -0.11195,0.43013c0.09644,0.00189 0.19158,0.00491 0.28542,0.00905c-0.0583,-0.14621 -0.11608,-0.29263 -0.17346,-0.43918zM254.64611,77.51797c0.03773,0.27966 0.11951,0.57096 0.22705,0.85683c0.21893,-0.05543 0.43877,-0.1118 0.65949,-0.16898c0.00032,-0.00172 0.00064,-0.00345 0.00095,-0.00517c-0.00795,-0.17252 -0.01574,-0.34505 -0.02338,-0.51761c-0.28798,-0.0554 -0.57602,-0.11043 -0.86411,-0.16506zM253.81281,106.69981c0.08798,0.02288 0.17598,0.04636 0.26403,0.07041c0.15285,-1.17672 0.3282,-2.36159 0.56387,-3.48784c-0.15346,0.01478 -0.30694,0.02936 -0.46044,0.04376c-0.6376,0.95334 -1.25327,1.93201 -1.87177,2.90609c0.49649,0.17261 0.99586,0.33536 1.50431,0.46758zM279.64857,109.38624c-0.00745,0.01332 -0.01491,0.02665 -0.02236,0.03998c0.00426,0.00339 0.00851,0.0068 0.01274,0.01023c0.00321,-0.01675 0.00642,-0.03348 0.00962,-0.05021zM202.71115,107.41209l0.08303,-0.16605c-0.16785,0.01434 -0.33569,0.02869 -0.50352,0.04307c0.15446,0.02474 0.29419,0.06731 0.42049,0.12298zM208.19182,99.08871c1.23764,-1.67678 2.42199,-3.45209 3.55868,-5.24901c0.1012,-0.19926 0.19778,-0.40206 0.29063,-0.60771c-0.22722,-0.16729 -0.39578,-0.40961 -0.46913,-0.69042l-0.27633,-0.96713c-1.43496,1.46323 -2.85992,2.93683 -4.26858,4.42813c-1.04699,1.69966 -2.13943,3.28603 -3.09543,4.61352c1.28689,-0.35481 2.58109,-0.6894 3.87501,-1.02261c0.13407,-0.17088 0.26295,-0.33922 0.38514,-0.50477zM242.14011,77.53791c0.07403,0.23695 0.14807,0.47381 0.22209,0.71061c0.00848,-0.93169 0.03314,-1.86008 0.08699,-2.78604c-0.21715,-0.03168 -0.4343,-0.06307 -0.65146,-0.09419c0.11173,0.72435 0.22382,1.44843 0.34238,2.16962zM248.34805,70.95748l-0.00442,0.00074l0.00673,0.01361c0.06535,0.46218 0.12613,0.92546 0.18321,1.38967c0.59105,0.09808 1.182,0.19802 1.77283,0.29975c0.19762,-0.43004 0.63214,-0.72865 1.13641,-0.72865c0.53245,0 0.98715,0.33292 1.1673,0.80195c0.72788,-0.7259 1.59758,-1.31478 2.53792,-1.8038c-0.05628,-0.65417 -0.10764,-1.29488 -0.13593,-1.93212c-2.35315,-0.22535 -4.59718,-0.28876 -6.94647,0.26436zM267.377,75.0755c0.03653,-0.08755 0.07356,-0.17495 0.11109,-0.2622c-0.07658,-0.11465 -0.15616,-0.22765 -0.23865,-0.3388c0.04235,0.20037 0.08488,0.4007 0.12756,0.601zM216.53405,96.29267c0.04722,-0.15317 0.09436,-0.30635 0.14149,-0.45951c0.16841,-0.54722 0.3456,-1.09179 0.52057,-1.63702c-0.14055,-0.29809 -0.27786,-0.5977 -0.41213,-0.89876c-0.69182,1.1283 -1.40038,2.25048 -2.12647,3.36203c-0.24002,0.43846 -0.48543,0.8732 -0.73543,1.30494c0.58855,-0.15989 1.17777,-0.31838 1.76761,-0.47557c0.2762,-0.40219 0.55785,-0.80099 0.84437,-1.19611zM231.73173,107.54632c1.08342,-0.29523 2.14117,-1.06144 3.25024,-0.88567c0.54024,0.08562 0.99688,0.28083 1.39858,0.54651c0.21287,-0.77743 0.41622,-1.55741 0.61049,-2.33974c-1.47869,0.18563 -2.95577,0.37721 -4.43241,0.56945c-0.34431,0.77322 -0.6975,1.54449 -1.05894,2.315c0.07709,-0.06893 0.15445,-0.13745 0.23204,-0.20556zM238.69118,96.72407c0.03899,-0.22624 0.06705,-0.46491 0.08936,-0.71137c-0.09772,0.02307 -0.19544,0.04615 -0.29317,0.06923c-0.52034,0.77396 -1.03938,1.54737 -1.55508,2.32256l1.24559,1.10719c0.18188,-0.92668 0.35274,-1.85599 0.5133,-2.78762zM241.53599,111.57743c0.31735,0.02451 0.63298,0.02307 0.9471,0.00209c0.79306,-2.49242 1.67366,-4.98289 2.40827,-7.49929c-0.3838,0.031 -0.76755,0.06256 -1.15122,0.09489c-1.25832,2.28059 -2.56022,4.53465 -3.96613,6.70752c0.48613,0.37761 1.05098,0.63987 1.76199,0.69479zM251.8654,111.65471c0.45569,0.36944 0.63374,1.03605 0.8382,1.65254c0.12357,0.00471 0.24714,0.00951 0.3707,0.01438l0.2127,-0.8508c0.1051,-0.52774 0.19681,-1.09393 0.28167,-1.68703c-0.25614,-0.07539 -0.51191,-0.14716 -0.76722,-0.21397c-0.64842,-0.16967 -1.72827,-0.41531 -2.87453,-0.76399c-0.17486,0.24107 -0.35205,0.47922 -0.53204,0.71392c0.8208,0.12768 1.64284,0.46393 2.47052,1.13494zM259.27711,112.51017c-0.34917,-0.07591 -0.69886,-0.16341 -1.04886,-0.25915c-0.23115,0.32095 -0.46645,0.63954 -0.7065,0.95575l0.22893,0.11446c0.35562,-0.08988 0.71464,-0.17365 1.07626,-0.25162c0.3965,-0.14204 0.79765,-0.27669 1.20273,-0.40463c-0.25124,-0.04887 -0.50211,-0.10036 -0.75256,-0.15481zM271.46243,109.51105c0.10892,-0.97073 0.2891,-1.93219 0.44778,-2.89604c0.05362,-0.3257 0.46386,-1.15484 0.18903,-0.97204c-1.04887,0.69765 -1.45738,2.05962 -2.27811,3.01526c-0.33999,0.39588 -0.66497,0.77272 -0.97945,1.13388c0.85508,0.09416 1.70979,0.19541 2.56246,0.31564c0.01689,-0.19913 0.036,-0.39807 0.05829,-0.59671zM261.05723,107.99429c-0.01948,0.0124 -0.03933,0.02428 -0.05953,0.03561c-0.13603,0.2243 -0.27276,0.4476 -0.41034,0.66989c0.12061,0.02474 0.24133,0.04883 0.36214,0.07231c0.03538,-0.25793 0.07092,-0.51755 0.10773,-0.77781zM226.49968,108.04216c0.29385,-0.60642 0.66593,-1.31734 1.00773,-1.953c-0.43988,0.05563 -0.87983,0.11079 -1.3199,0.16533c0.13906,0.59503 0.23619,1.21 0.31217,1.78767zM216.08675,108.46607c0.47776,-0.33779 0.95295,-0.69224 1.43991,-1.05782c-0.31894,0.03242 -0.63745,0.06069 -0.95408,0.08358c-0.15992,0.32698 -0.3219,0.6518 -0.48583,0.97424zM229.99459,84.51626c0.11042,0.06027 0.21496,0.12579 0.31391,0.19618c0.00692,-0.10525 0.022,-0.20829 0.04458,-0.30847c-0.11122,0.05446 -0.23172,0.0929 -0.35849,0.11229zM242.63376,97.39941c-0.02066,0.11977 -0.04148,0.23951 -0.06247,0.35921c0.29997,-0.51631 0.59834,-1.03349 0.89367,-1.55234c-0.18136,-0.03086 -0.3626,-0.06204 -0.54371,-0.09358c-0.11121,0.42994 -0.21374,0.8591 -0.28749,1.2867zM266.23726,99.2049v3.42907h-0.02981c0.00772,0.05979 0.01497,0.11965 0.02173,0.17961c0.11879,1.0536 -0.04562,2.29658 -0.32063,3.57832c0.62169,-0.67315 1.28027,-1.27873 1.92523,-1.78033c-0.20486,-0.22262 -0.32995,-0.5198 -0.32995,-0.84619v-1.7311h0.33882c-0.27914,-2.5006 0.03255,-4.91078 0.24247,-7.60454c0.00148,-0.01898 0.00295,-0.03797 0.00441,-0.05696c-0.74966,0.31793 -1.53124,0.5974 -2.31844,0.84242l0.18139,1.45118c0.00798,0.05706 0.0121,0.11535 0.0121,0.1746c0,0.34906 -0.14309,0.66472 -0.3738,0.8915c0.39743,0.36553 0.64648,0.88989 0.64648,1.47242zM275.90985,106.97777c0.21718,-0.28557 0.43744,-0.56543 0.65501,-0.83698c-0.27626,-0.06021 -0.5184,-0.21177 -0.69319,-0.42145c0.03572,0.40864 0.0462,0.83095 0.03817,1.25844zM278.30805,103.97225l0.03478,-0.02611l-0.00838,-0.00686l0.40818,-0.49888c-0.02405,-0.09125 -0.04909,-0.1806 -0.07526,-0.2678c-0.00028,-0.00095 -0.00057,-0.00189 -0.00085,-0.00284c-0.11531,0.22536 -0.23023,0.45075 -0.34475,0.67616l-0.02945,0.14726c0.00527,-0.007 0.01051,-0.01398 0.01574,-0.02094zM276.42561,96.2626c-0.44458,-1.30516 -0.89472,-2.60943 -1.34063,-3.91505c-0.61847,1.3963 -1.23627,2.79263 -1.84636,4.19278c0.07814,1.77527 0.15242,3.55099 0.2019,5.32963c0.61513,0.21159 1.08816,0.55488 1.44753,0.99405c-0.05465,-1.83882 1.21078,-5.0562 1.53756,-6.60141zM205.66442,81.20781c0.00005,0.11397 0.00007,0.2279 0.00007,0.34179v1.44259c0,0.69035 -0.55964,1.25 -1.25,1.25c-0.05496,0 -0.10911,-0.00355 -0.1622,-0.01043c0.05579,0.78068 0.13403,1.55749 0.24173,2.32861c0.62844,-0.90811 1.26764,-1.80944 1.92591,-2.69868c-0.24232,-0.86732 -0.48328,-1.7523 -0.7555,-2.65387zM202.05092,88.50233l-0.56944,-1.99304l0.29451,-0.08415c-0.62432,-1.36058 -1.12967,-2.77867 -1.56951,-4.22845c0.13589,3.14543 0.26469,6.29139 0.26469,9.45102l-0.63809,1.79466c0.95225,-1.37991 1.88103,-2.77497 2.81554,-4.16657c-0.29182,-0.16411 -0.5111,-0.44197 -0.5977,-0.77347zM220.00519,83.09568c0.06249,0.01429 0.12362,0.02965 0.18345,0.04604c0.05637,-0.56153 0.11212,-1.12308 0.16825,-1.68454c-0.14113,-0.59555 -0.27351,-1.1945 -0.40274,-1.79459c-0.13666,0.198 -0.27058,0.40584 -0.40494,0.6121c0.16154,0.94087 0.31449,1.88162 0.45598,2.82099zM270.94636,102.15696c-0.00198,-0.0643 -0.00403,-0.12865 -0.00616,-0.19305c-0.02781,0.06806 -0.05558,0.13614 -0.08331,0.20424l0.08946,-0.01119zM206.22543,64.33382c-0.12701,0.57913 -0.23822,1.15683 -0.27559,1.72448c-0.0001,0.00154 -0.0002,0.0031 -0.0003,0.00464c0.19073,-0.10304 0.38357,-0.20257 0.57833,-0.29872c-0.10173,-0.47665 -0.20256,-0.95345 -0.30244,-1.4304zM207.90785,80.45996c-0.0466,-1.70351 -0.09046,-3.4087 -0.11243,-5.11307c-0.3726,0.37779 -0.75374,0.7379 -1.14366,1.07403c0.41567,1.34779 0.83562,2.69383 1.25609,4.03904zM290.00162,83.1889c0.07996,-0.23608 0.1594,-0.47236 0.23822,-0.7088c-0.10082,0.16409 -0.20125,0.32826 -0.30104,0.49255c0.0217,0.07076 0.03957,0.14319 0.05339,0.21705c0.00314,-0.00028 0.00628,-0.00055 0.00943,-0.0008zM197.61074,64.52711l0.01163,0.05814c0.00378,-0.01939 0.00758,-0.03877 0.0114,-0.05814zM227.0295,92.10113c-0.54127,-0.19043 -1.08095,-0.38705 -1.61898,-0.59018c-1.17379,1.43168 -2.35355,2.88685 -3.49363,4.36854c0.96976,-0.24349 1.94067,-0.48424 2.91246,-0.72263c0.70926,-1.03758 1.44392,-2.05461 2.20015,-3.05573zM262.22731,96.10947c-0.36602,0.07359 -0.72369,0.14033 -1.06989,0.20069c0.0736,0.51141 0.16496,1.13358 0.25273,1.81251l0.3123,0.01952c0.17079,-0.67657 0.33908,-1.35422 0.50486,-2.03272zM234.75042,69.71689c-0.24053,-0.09539 -0.48968,-0.19065 -0.74319,-0.28225c0.05169,0.31418 0.10277,0.62844 0.1533,0.94285c0.16428,0.01641 0.3272,0.03248 0.48871,0.04812c0.03118,-0.23681 0.06485,-0.47307 0.10118,-0.70872zM249.33789,78.25035c-0.07829,-0.07764 -0.15712,-0.15478 -0.23647,-0.23144c0.03098,0.35078 0.06186,0.70166 0.093,1.05257c0.00132,-0.00002 0.00265,-0.00004 0.00396,-0.00006c0.0428,-0.27488 0.08921,-0.54862 0.13951,-0.82107zM252.11934,83.28975c-0.27755,0.07727 -0.55557,0.15435 -0.83404,0.23113c-0.00552,0.05154 -0.01073,0.10296 -0.01561,0.15426c0.29829,-0.0539 0.59692,-0.10598 0.89588,-0.15629c-0.01542,-0.07636 -0.03083,-0.15273 -0.04623,-0.22911zM223.99983,126.08975c0.90174,0.22395 1.79529,0.04708 2.74397,-0.82996c-0.06524,-0.0756 -0.13086,-0.1508 -0.197,-0.22545c-0.8263,0.38286 -1.67223,0.73765 -2.54698,1.05541z" fill="#261400" stroke="none" stroke-width="0.5"/><path d="M218.82192,205.54457c0.00018,0.0329 0.00053,0.06585 0.00104,0.09883zM218.84311,204.83694c0.19425,0.21353 1.26317,1.50562 -0.02891,2.7977c-1.41422,1.41422 -2.82843,0 -2.82843,0l-1.16282,-1.99124c0.0407,-3.56259 1.37039,-6.57597 2.87109,-9.61897c-0.07821,-0.02628 -0.15847,-0.05751 -0.24078,-0.09409c-1.82763,-0.81227 -1.01535,-2.6399 -1.01535,-2.6399c1.39371,-3.13573 2.63885,-6.21173 4.91786,-8.84746c2.0982,-2.42663 4.40017,-4.55948 6.63336,-6.74762c1.7697,-2.37301 3.71909,-4.60129 5.90144,-6.62453c0.18749,-0.26208 0.37167,-0.52804 0.55227,-0.79827l1.10907,-1.94087c0.33953,-0.62058 0.99849,-1.04143 1.75575,-1.04143c1.10457,0 2,0.89543 2,2c0,0.37373 -0.1025,0.72351 -0.28094,1.02277l-1.13665,1.98913l-0.02875,-0.01643l-0.00643,0.07561c-0.024,0.03605 -0.04807,0.07202 -0.07218,0.10792c-0.00007,0.00035 -0.00012,0.0007 -0.00019,0.00104c-0.11309,0.61517 -0.56551,1.06752 -1.06685,1.49589c-1.70153,2.25683 -3.61868,4.24415 -5.58711,6.1904c-3.39104,4.40683 -5.79763,9.18452 -8.16916,14.22267c-1.58765,3.37285 -3.87227,6.69833 -4.1163,10.45769z" fill="#261400" stroke="none" stroke-width="0.5"/><path d="M243.011,219.73606c-1.1094,1.6641 -2.7735,0.5547 -2.7735,0.5547l-2.43533,-1.97511c0.45932,-12.77515 8.01899,-25.08698 17.17556,-33.74657c0.05687,-0.05379 0.11496,-0.10919 0.17423,-0.16611c-7.32698,1.9474 -14.75801,3.24002 -22.45489,2.15857c0,0 -1.9799,-0.28284 -1.69706,-2.26274c0.28285,-1.9799 2.26274,-1.69706 2.26274,-1.69706c10.04211,1.46176 19.69696,-1.59911 29.19633,-4.47786c0.79138,-0.44253 1.57049,-0.7505 2.30692,-0.84988c0.06651,-0.00897 0.13308,-0.01703 0.19967,-0.02421l-0.01579,-0.04735l2.55237,-0.85079c0.21136,-0.07599 0.43922,-0.1174 0.67675,-0.1174c1.10457,0 2,0.89543 2,2c0,0.84107 -0.51918,1.56088 -1.25453,1.85645l-1.97725,0.84739l-0.02187,-0.05102l-0.08736,0.09409c-0.38141,0.11325 -0.76287,0.22722 -1.1444,0.34167c-0.67239,0.69852 -1.83759,0.92065 -3.24667,1.97935c-2.53507,1.90472 -5.09333,4.30955 -7.21087,6.6607c-4.6061,5.11425 -8.94938,11.45862 -11.46791,17.89701c-1.13227,2.89455 -1.44039,5.83136 -2.3387,8.76962l1.02688,0.33303c0,0 1.6641,1.1094 0.5547,2.7735z" fill="#261400" stroke="none" stroke-width="0.5"/><path d="M266.93295,193.60501c1.94029,0.48507 1.45521,2.42536 1.45521,2.42536l-0.39051,1.45683c-0.14173,0.32638 -0.29067,0.65203 -0.44628,0.97689c0.99241,0.11765 1.76205,0.96194 1.76205,1.98599c0,1.10457 -0.89543,2 -2,2c-0.62194,0 -1.17757,-0.28388 -1.5444,-0.72914c-2.958,4.84021 -7.05429,9.44337 -10.47946,13.56981c0,0 -1.28037,1.53645 -2.81681,0.25608c-1.53644,-1.28037 -0.25607,-2.81681 -0.25607,-2.81681c4.13808,-4.94367 9.5762,-10.82288 12.10439,-16.81849l0.18652,-0.8513c0,0 0.48507,-1.94029 2.42536,-1.45522z" fill="#261400" stroke="none" stroke-width="0.5"/><path d="M272.0795,172.56676c-0.67986,1.8809 -2.56076,1.20104 -2.56076,1.20104l-1.33619,-0.48655c-2.94637,-1.31545 -6.60753,-2.94564 -6.50645,-5.94919c-4.6021,0.9817 -9.25322,1.77441 -13.85129,2.75973c0,0 -1.9556,0.41906 -2.37466,-1.53655c-0.41906,-1.9556 1.53655,-2.37466 1.53655,-2.37466c5.76026,-1.23432 11.60741,-2.15756 17.33246,-3.53958c0.35701,-0.27894 0.7495,-0.49257 1.18137,-0.59396c0.14047,-0.03298 0.28147,-0.05731 0.42292,-0.07414l-0.025,-0.08751l1.9752,-0.56434c0.18762,-0.05826 0.38708,-0.08964 0.59386,-0.08964c1.10457,0 2,0.89543 2,2c0,0.85848 -0.54089,1.59064 -1.30047,1.87426l-1.92781,0.77112c-0.4942,0.56977 -1.9083,0.74594 -1.69073,1.44433c0.37774,1.21252 4.15299,2.26054 4.20974,2.28357l1.12023,0.40133c0,0 1.8809,0.67986 1.20104,2.56076z" fill="#261400" stroke="none" stroke-width="0.5"/><path d="M233.57656,153.13329c0,-0.49129 0.17715,-0.94121 0.47105,-1.28937l-1.32143,-0.18878c-0.98477,-0.12468 -1.74627,-0.96544 -1.74627,-1.98406c0,-0.84107 0.51917,-1.56088 1.25453,-1.85645l1.87061,-0.80169c0.71421,-0.44866 1.42841,-0.89733 2.14262,-1.34599c0,0 1.696,-1.06 2.75599,0.636c0.40156,0.64249 0.4076,1.19372 0.26016,1.63061c0.2143,0.01595 0.4285,0.02604 0.6405,0.02604c1.14448,0 2.30118,0.05028 3.45525,0.06986c0.9068,-0.38366 1.82234,-0.75716 2.76641,-1.09639c1.17698,-0.42293 2.4025,-1.28639 3.61822,-0.99285c0.1975,0.04769 0.38892,0.1095 0.57527,0.18307l0.02689,-0.08067l1.26662,0.42221c0.57475,-0.15813 1.14917,-0.31812 1.72306,-0.48086l0.14205,0.03056l-0.00778,-0.05444l1.98556,-0.28365c0.10321,-0.01643 0.20906,-0.02497 0.3169,-0.02497c1.10457,0 2,0.89543 2,2c0,0.68055 -0.33991,1.2817 -0.85921,1.64296l-0.92309,0.65935l1.08068,-0.21614c0.13934,-0.03074 0.28414,-0.04694 0.43273,-0.04694c1.10457,0 2,0.89543 2,2c0,0.75726 -0.42086,1.41622 -1.04143,1.75575l-1.98591,1.13481l-0.02898,-0.05072c-0.06123,0.05351 -0.12348,0.10598 -0.18681,0.15735c-0.60912,0.49401 -1.50306,0.4487 -2.25825,0.66024c-4.24583,1.18933 -8.61175,1.81899 -12.98453,2.36637l-1.65037,0.27675c0,0 -1.60432,0.26739 -2.16057,-1.12686h-0.47636c0,0 0,0 0,0c-1.07694,0 -1.95507,-0.85119 -1.99833,-1.91751c-0.68264,-0.31832 -1.15574,-1.01071 -1.15574,-1.8136z" fill="#261400" stroke="none" stroke-width="0.5"/></g></g></svg>