<svg version="1.1" xmlns="http://www.w3.org/2000/svg" xmlns:xlink="http://www.w3.org/1999/xlink" width="89.83872" height="34.35548" viewBox="0,0,89.83872,34.35548"><g transform="translate(-55.98517,-230.18165)"><g data-paper-data="{&quot;isPaintingLayer&quot;:true}" fill-rule="nonzero" stroke="none" stroke-width="0.5" stroke-linecap="butt" stroke-linejoin="miter" stroke-miterlimit="10" stroke-dasharray="" stroke-dashoffset="0" style="mix-blend-mode: normal"><path d="M116.87338,262.23787c-0.20762,2.49136 -2.69897,2.28375 -2.69897,2.28375c-4.39454,-0.37007 -8.78414,-0.02453 -13.1839,-0.20784c-6.22242,-0.25925 -12.42372,-1.03467 -18.64552,-1.2859c-6.05348,-0.24444 -11.71656,-0.31029 -17.64775,-1.78701c-4.78158,-1.2136 -11.80411,-3.36204 -7.22538,-9.69992c0.697,-0.96479 2.01742,-1.26816 3.07179,-1.82037c3.3575,-1.75844 7.36716,-2.14044 11.09418,-2.60143c3.74663,-0.46341 7.28794,-0.09603 11.00169,0.20235c2.57085,0.20656 6.08287,-0.38226 8.50956,0.62349c1.61541,0.66952 2.68951,2.32314 4.29931,3.00603c2.41237,1.02335 5.10162,1.68545 7.60294,2.45579c2.69357,0.67339 5.28923,1.46825 7.89873,2.41626l2.3027,0.83734c0.98859,0.33348 1.70042,1.26831 1.70042,2.3694c0,0.19252 -0.02176,0.37996 -0.06296,0.55999c0.65611,0.14766 2.14559,0.69897 1.98316,2.64806z" fill-opacity="0.50196" fill="#000000"/><g><path d="M125.06625,245.87493c-0.93071,-0.23268 -3.39703,-2.32675 -1.69912,-3.29698c0.24461,-0.41446 0.69576,-0.69249 1.21186,-0.69249c0.28091,0 0.54256,0.08237 0.76215,0.22427c3.29136,1.20909 2.34831,4.42101 -0.27488,3.7652z" fill="#469cff"/><path d="M134.64641,247.48725l-0.29494,-0.68162c-0.94428,0.13661 -1.88905,0.24877 -2.83424,0.34404c0.71207,1.94734 1.02657,3.64783 1.01171,5.61142c1.12369,-1.29004 2.12493,-2.64123 2.96916,-3.98614c-0.2839,-0.42924 -0.56779,-0.85847 -0.85169,-1.2877zM129.70866,244.58807c0.13828,0 0.26294,0.0136 0.37536,0.03811c1.95443,-0.19692 3.90458,-0.50227 5.8467,-1.01928c2.35447,-0.62678 8.28115,-1.12114 5.7494,-4.85058c-9.14876,-5.80497 -20.58595,-5.76231 -31.1114,-5.76231c-7.1024,0 -14.82222,0.33529 -21.47529,3.18259c-3.03224,1.2977 -4.22243,5.05161 -0.40363,6.46713c0.48021,0.20581 0.96044,0.41161 1.44064,0.61742l0.89816,0.44637c0,0 0.10028,0.05013 0.23005,0.1504c1.23471,0.47287 2.47506,0.92138 3.74421,1.17018c6.30689,1.23638 13.10365,0.66072 19.54778,0.59768c0.168,-0.04306 0.35907,-0.05184 0.5732,-0.00421c0.23256,-0.00111 0.46462,-0.00145 0.69615,-0.00092c4.39964,-0.62852 8.8242,-0.53513 13.23049,-0.89989c0.17517,-0.08204 0.39136,-0.13267 0.65819,-0.13267zM129.54817,255.08114c0.39593,-3.12358 0.16333,-4.97857 -0.94754,-7.68294c-0.62379,0.04519 -1.24774,0.08639 -1.87188,0.1258l-0.15579,0.93301c-0.53943,3.77599 -0.68864,8.06016 -2.80375,11.18204c2.06618,-0.9696 4.04268,-2.3381 5.83796,-3.92703c-0.09588,-0.33576 -0.05899,-0.6309 -0.05899,-0.6309zM119.8732,259.64208c3.52508,-2.29267 3.37129,-7.77223 3.9157,-11.58303l0.05963,-0.35842c-1.18106,0.07371 -2.36268,0.15284 -3.54478,0.25206c0.61356,0.65741 0.16654,1.55149 0.16654,1.55149l-0.17105,0.33667c-2.01974,4.71272 -4.0391,8.0915 -7.25157,11.63466c2.07483,-0.00731 4.14693,-0.07709 6.19569,-0.42436c-0.18884,-0.86331 0.62984,-1.40909 0.62984,-1.40909zM109.36859,261.2583c4.0082,-4.0082 6.11962,-7.33123 8.34569,-12.52537l0.24057,-0.48656c0,0 0.01338,-0.02675 0.04012,-0.07049c-0.6584,0.07322 -1.31694,0.15563 -1.97561,0.24972c-0.11285,0.00022 -0.22585,0.00064 -0.33898,0.00124l-0.00124,0.00205c-3.98246,3.94128 -6.20384,9.80602 -11.29042,11.94389c1.62001,0.48093 3.25969,0.82471 4.84982,1.04285c0.07305,-0.10034 0.13005,-0.15736 0.13005,-0.15736zM100.27842,258.37677c5.81484,0.09401 8.5295,-5.66319 11.68014,-9.88291c-1.63242,0.04317 -3.28096,0.09605 -4.93195,0.12488c-0.04109,0.27688 -0.13953,0.47374 -0.13953,0.47374l-0.68352,0.95276c-3.22181,2.14127 -6.46718,5.23846 -10.31951,6.05532c1.15728,0.92705 2.43399,1.72788 3.78116,2.41067c0.31916,-0.13445 0.61319,-0.13445 0.61319,-0.13445zM93.27408,253.45184c3.62645,0.61691 7.15205,-2.58591 10.08962,-4.82198c-1.72133,-0.02636 -3.43422,-0.10625 -5.12305,-0.27819c-0.03923,0.03121 -0.0635,0.04738 -0.0635,0.04738l-0.69977,0.46251c-1.9037,1.08783 -3.63051,2.01929 -5.60822,2.59723c0.395,0.7024 0.84523,1.36432 1.34287,1.9871c0.0396,0.00276 0.06205,0.00595 0.06205,0.00595zM88.18448,250.72082c-0.03846,-0.26926 -0.01741,-0.49388 0.04158,-0.68105c-0.38574,-1.0779 -0.67814,-2.22224 -0.8648,-3.43506c0,0 -0.08981,-0.62875 0.27383,-1.10149c-0.23548,-0.07574 -0.47166,-0.14776 -0.70874,-0.21499c0,0 -0.89784,-0.25652 -1.02119,-1.08313c-3.83885,-3.05283 -2.80212,-8.51845 2.09641,-10.62025c6.99398,-3.0009 15.09449,-3.4032 22.56716,-3.4032c11.21596,0 23.54221,-0.00231 33.10003,6.58603c2.68711,4.06258 0.92685,7.37802 -3.37402,8.77414l-0.23814,0.59471c-0.44551,1.03555 -0.95421,2.04549 -1.51222,3.02502c-3.64227,6.36676 -10.48075,12.88822 -17.80371,14.46659c-3.71352,0.8004 -7.51778,0.65153 -11.28835,0.64561c-8.17533,-1.02191 -16.79654,-4.87798 -20.48316,-12.46582c-0.34628,-0.14049 -0.69279,-0.44403 -0.78466,-1.08713zM90.17431,246.42173c0.12131,0.85363 0.31019,1.6666 0.55949,2.44011c1.10997,-0.285 2.112,-0.70693 3.11062,-1.2126c-1.24477,-0.30714 -2.45831,-0.76587 -3.6701,-1.22751z" fill="#f1cf5d"/><path d="M90.46457,250.35941c0.78001,-1.17001 1.95001,-0.38999 1.95001,-0.38999l0.22372,0.22954c6.89154,1.96902 13.34889,5.994 18.83063,10.56211c0,0 1.08024,0.90021 0.18003,1.98045c-0.90021,1.08025 -1.98045,0.18005 -1.98045,0.18005c-5.18173,-4.31812 -11.28634,-8.15662 -17.80282,-10.01848l-1.01111,-0.59367c0,0 -1.17,-0.78001 -0.39,-1.95001z" fill="#f1cf5d"/><path d="M121.69941,259.20064c0.16033,0.0056 1.389,0.09134 1.389,1.40577c0,1.40617 -1.40617,1.40617 -1.40617,1.40617l-1.19161,-0.23616c-3.74863,-2.49909 -7.33381,-5.51578 -11.38621,-7.53329c-4.4652,-2.22303 -9.09155,-4.13589 -13.57097,-6.37379c0,0 -1.25771,-0.62885 -0.62886,-1.88657c0.62886,-1.25772 1.88657,-0.62886 1.88657,-0.62886c4.48582,2.24481 9.12859,4.14408 13.59541,6.38616c4.02216,2.01889 7.59639,4.94895 11.31284,7.46058z" fill="#f1cf5d"/><path d="M129.05653,257.8962c-0.99432,0.99432 -1.98861,0 -1.98861,0l-0.1973,-0.23592c-4.34572,-2.92369 -8.05938,-6.36557 -12.67762,-9.00456c0,0 -1.2209,-0.69765 -0.52324,-1.91854c0.69766,-1.2209 1.91855,-0.52324 1.91855,-0.52324c4.66819,2.66755 8.43118,6.19788 12.84231,9.10635l0.62591,0.58731c0,0 0.99432,0.99431 0,1.98861z" fill="#f1cf5d"/><path d="M134.40747,252.54529c-0.99432,0.99432 -1.98863,0 -1.98863,0l0.0085,-0.03011c-2.56068,-1.70756 -4.95443,-3.60238 -7.80034,-4.81687c0,0 -1.29247,-0.55392 -0.73855,-1.84639c0.55392,-1.29247 1.84639,-0.73855 1.84639,-0.73855c3.01026,1.29508 5.54097,3.25461 8.25251,5.06181l0.42012,0.38149c0,0 0.99432,0.99432 0,1.98863z" fill="#f1cf5d"/><path d="M97.21421,233.42871c0.62886,1.25771 -0.62886,1.88657 -0.62886,1.88657l-0.04616,-0.0576c-2.97157,2.96541 -6.12693,7.30472 -10.46832,8.01254c0,0 -1.39204,0.19887 -1.59091,-1.19317c-0.19885,-1.39204 1.19317,-1.59089 1.19317,-1.59089c3.452,-0.38637 6.55053,-4.88576 8.87742,-7.21709l0.77706,-0.46921c0,0 1.25771,-0.62886 1.88657,0.62885z" fill="#f1cf5d"/><path d="M141.61092,238.17359c0,1.26502 -1.13804,1.39201 -1.3665,1.40475c-0.40867,1.82939 -1.0331,3.55892 -2.18261,5.07094c0.47567,0.22612 0.95696,0.45435 1.46203,0.66989l0.89817,0.44636c0,0 1.25771,0.62885 0.62886,1.88657c-0.62886,1.25772 -1.88657,0.62886 -1.88657,0.62886l-0.74828,-0.37685c-1.4271,-0.61397 -2.65864,-1.37769 -4.15432,-1.79266c0,0 -1.35206,-0.3863 -0.96576,-1.73837c0.3863,-1.35207 1.73836,-0.96576 1.73836,-0.96576c0.10815,0.03161 0.21498,0.06459 0.32062,0.09879c1.1746,-1.1543 1.75707,-2.66881 2.11681,-4.25994c-1.39724,-0.21886 -2.78862,-0.4494 -4.18353,-0.66711c-0.40617,2.74535 -1.27884,5.49033 -2.9109,7.49214c0,0 -0.90022,1.08025 -1.98046,0.18005c-1.08024,-0.90021 -0.18003,-1.98046 -0.18003,-1.98046c1.31478,-1.53225 1.99477,-3.82878 2.31306,-6.09748c-0.666,-0.09026 -1.33416,-0.17399 -2.00551,-0.24859c-0.72747,-0.08089 -1.45356,-0.1694 -2.17847,-0.26452c-0.99749,3.33371 -2.17272,6.6072 -4.11106,9.52562c0,0 -0.78001,1.17001 -1.95001,0.39c-1.17,-0.78001 -0.39,-1.95001 -0.39,-1.95001c1.70752,-2.55051 2.7642,-5.43006 3.64794,-8.365c-1.41581,-0.21662 -2.82797,-0.45361 -4.23787,-0.7034c-1.61804,4.68081 -3.97343,9.50715 -7.63014,12.57509c0,0 -1.08025,0.90021 -1.98046,-0.18005c-0.90021,-1.08025 0.18005,-1.98045 0.18005,-1.98045c3.13706,-2.59354 5.21102,-6.83747 6.64434,-10.9232c-1.9723,-0.36905 -3.94195,-0.75338 -5.91275,-1.13212c-1.99932,4.54075 -4.58912,9.5443 -9.15615,11.54676c0,0 -1.29247,0.55391 -1.84639,-0.73856c-0.55392,-1.29247 0.73855,-1.84639 0.73855,-1.84639c3.61663,-1.50394 5.79915,-5.73623 7.44401,-9.49745c-1.01688,-0.19005 -2.03455,-0.37594 -3.05353,-0.55487l-0.6085,1.01128c-2.73287,4.09931 -5.70965,7.90765 -9.85707,10.6803c0,0 -1.17,0.78001 -1.95,-0.39c-0.78001,-1.17001 0.39,-1.95001 0.39,-1.95001c3.82387,-2.54141 6.53146,-6.08626 9.04467,-9.85171c-0.76203,-0.12123 -1.52507,-0.23704 -2.28934,-0.34621c0,0 -1.39203,-0.19887 -1.19317,-1.59089c0.19885,-1.39204 1.59089,-1.19317 1.59089,-1.19317c3.04102,0.43444 6.06269,0.97454 9.07858,1.54477l0.46027,-0.72693c0,0 0.78001,-1.17 1.95001,-0.39c0.82111,0.5474 0.68179,1.28689 0.52568,1.67925c1.83719,0.3547 3.67388,0.71151 5.51314,1.05327c0.09239,-0.31041 0.18137,-0.61731 0.26715,-0.91979l-0.0541,0.18051c0,0 0,-1.40617 1.40617,-1.40617c1.40617,0 1.40617,1.40617 1.40617,1.40617l-0.05411,0.59211c-0.06193,0.21532 -0.12525,0.43203 -0.19,0.64992c1.38268,0.24184 2.76771,0.47036 4.15634,0.67831c0.17717,-0.63395 0.35315,-1.26654 0.53272,-1.89504l0.45808,-1.16496c0,0 0.52224,-1.3056 1.82783,-0.78336c1.3056,0.52224 0.78336,1.82784 0.78336,1.82784l-0.36514,0.8931c-0.14369,0.50291 -0.28579,1.0073 -0.4283,1.51215c0.56628,0.07192 1.13333,0.13964 1.70118,0.20268c0.64435,0.0716 1.28588,0.15151 1.92543,0.23746c0.00893,-0.30793 0.01258,-0.60808 0.01181,-0.89796l0.61766,-1.20011c0,0 0.99431,-0.99431 1.98861,0c0.68352,0.68353 0.4273,1.36705 0.20034,1.72756c-0.00498,0.25669 -0.01325,0.51658 -0.02507,0.77896c1.46351,0.22748 2.92299,0.46947 4.38871,0.69826c0.02127,-0.14941 0.04247,-0.29805 0.06387,-0.44569l0.43479,-1.53368c0,0 0.38631,-1.35207 1.73837,-0.96577c1.35206,0.3863 0.96576,1.73837 0.96576,1.73837l-0.38843,1.3476c-0.01171,0.08346 -0.02353,0.16685 -0.03548,0.25016c0.40114,0.13973 0.88962,0.48003 0.88962,1.30882z" fill="#f1cf5d"/><path d="M140.99351,244.14202c0,1.40617 -1.40617,1.40617 -1.40617,1.40617l-0.79792,-0.05411c-5.473,-1.58146 -11.75508,-2.66356 -17.40046,-3.47551c-9.46877,-2.70536 -19.76782,-3.3941 -28.86767,-7.28599c0,0 -1.29248,-0.55392 -0.73855,-1.84639c0.55392,-1.29247 1.84639,-0.73855 1.84639,-0.73855c8.91178,3.82783 19.06437,4.46843 28.34637,7.12043c5.7187,0.81125 12.03411,1.95103 17.58653,3.52188l0.02531,-0.0541c0,0 1.40617,0 1.40617,1.40617z" fill="#f1cf5d"/><path d="M124.29593,247.29908c-0.27577,1.37887 -1.65463,1.10309 -1.65463,1.10309l-1.13956,-0.2326c-1.48418,-0.42406 -2.89884,-0.82107 -4.31528,-1.43877c-3.0206,-0.40797 -5.8966,-1.47632 -8.83371,-2.2595c-7.31313,-1.95004 -14.20644,-3.68173 -20.10294,-8.72872c0,0 -1.06764,-0.91512 -0.15252,-1.98277c0.91512,-1.06764 1.98277,-0.15252 1.98277,-0.15252c7.17737,6.16135 18.63096,9.03452 27.86575,10.4156c1.435,0.6055 2.83346,1.01534 4.32856,1.44252l0.9185,0.17901c0,0 1.37886,0.27577 1.10309,1.65463z" fill="#f1cf5d"/><path d="M105.18304,247.60602c-0.99431,0.99431 -1.98863,0 -1.98863,0l0.23459,0.09236c-5.73143,-2.45633 -11.94815,-4.62043 -17.94331,-6.32039c0,0 -1.35206,-0.3863 -0.96576,-1.73837c0.3863,-1.35206 1.73837,-0.96576 1.73837,-0.96576c6.1117,1.75794 12.43128,3.93362 18.27853,6.43958l0.6462,0.50397c0,0 0.99431,0.99431 0,1.98863z" fill="#f1cf5d"/><path d="M96.13324,233.55498c0.14536,-0.31552 0.43795,-0.61634 1.0138,-0.72104c1.38349,-0.25154 1.63504,1.13194 1.63504,1.13194l0.09859,1.84829c-0.85212,1.39333 -1.9791,4.72388 -4.58958,0.91474c-0.49685,-0.72498 0.57806,-1.66002 0.86709,-2.49003c0,0 0.35594,-0.57841 0.97507,-0.6839z" fill="#ed66ff"/><path d="M129.54113,238.31797c0.14245,0.23348 0.22012,0.54684 0.15034,0.96552c-0.23117,1.38703 -1.61821,1.15586 -1.61821,1.15586l-1.37814,-0.53595l-0.94475,-1.03923c-0.22915,-0.25017 -0.36897,-0.58351 -0.36897,-0.94951c0,-0.77661 0.62957,-1.40617 1.40617,-1.40617c0.1775,0 0.34732,0.03289 0.5037,0.09291l1.29649,0.46303c0,0 0.95402,0.34073 0.95336,1.25353z" fill="#ed66ff"/><path d="M103.57523,240.26979c0.86665,-0.82839 1.8338,-0.02244 1.8338,-0.02244l1.12939,0.94115c0.31395,0.25789 0.51421,0.64912 0.51421,1.08713c0,0.77661 -0.62957,1.40617 -1.40617,1.40617c-0.20778,0 -0.405,-0.04505 -0.58248,-0.12595l-1.29867,-0.55657l-0.7986,-0.85323c0,0 -0.62206,-1.2441 0.60853,-1.87627z" fill="#ed66ff"/><path d="M119.79741,236.64746c-0.62886,1.25772 -1.88658,0.62885 -1.88658,0.62885l-0.33726,-0.2212l-0.34745,0.14891c-0.17748,0.08088 -0.37473,0.12595 -0.58249,0.12595c-0.7766,0 -1.40617,-0.62956 -1.40617,-1.40617c0,-0.1775 0.03289,-0.34732 0.09291,-0.5037l0.22755,-0.63715c-0.12076,-0.35961 -0.11736,-0.83019 0.32964,-1.32189c0.94589,-1.04049 1.98638,-0.09458 1.98638,-0.09458c0.13198,0.19759 0.26393,0.3952 0.39591,0.5928c0.27331,0.34578 0.54528,0.71523 0.82597,0.93123l0.07274,-0.1296c0,0 1.25772,0.62885 0.62886,1.88657z" fill="#ed66ff"/><path d="M110.87651,244.0769c0,-0.05319 0.00201,-0.10435 0.00588,-0.15359c-0.00118,-0.01421 -0.00224,-0.02857 -0.00315,-0.04311c-0.08771,-1.40343 1.31571,-1.49115 1.31571,-1.49115l2.99243,1.0825c-0.81587,0.65468 -1.63173,1.30935 -2.4476,1.96402l-0.45712,0.04748c0,0 -1.40617,0 -1.40617,-1.40617z" fill="#ed66ff"/><path d="M90.35469,241.79827c-0.24247,-0.24848 -0.41855,-0.62903 -0.31079,-1.2038c0.25914,-1.38208 1.64122,-1.12294 1.64122,-1.12294c0.53682,0.10176 1.07363,0.20352 1.61043,0.30528l0.08014,0.0626l0.0118,-0.0354l1.3913,0.46377c0.57459,0.1767 0.99226,0.71171 0.99226,1.34426c0,0.69668 -0.50667,1.27503 -1.17162,1.3867l-1.49226,0.27979l-2.02564,-0.69318c0,0 -0.52473,-0.26237 -0.72685,-0.78707z" fill="#ed66ff"/><path d="M110.48015,237.70609c-0.19963,0.01331 -0.37276,-0.00368 -0.52287,-0.04261c-0.1854,0.09004 -0.39356,0.14053 -0.61351,0.14053c-0.62216,0 -1.14994,-0.40404 -1.33526,-0.96405l-0.463,-1.29642l0.23924,-0.08544c-0.19254,-0.36189 -0.26649,-0.73249 -0.11554,-1.11963c0.14358,-0.36822 0.45188,-0.5313 0.84249,-0.59186c0.16864,-0.09228 0.37968,-0.15626 0.64373,-0.17387c0.39815,-0.02655 0.69084,0.06743 0.90588,0.21565c0.39941,0.0335 0.78985,0.05583 1.12105,0.00438l0.6073,2.41673c0,0 0.09354,1.40305 -1.30951,1.49659z" fill="#ed66ff"/><path d="M123.50244,239.80709c0.09969,-0.03481 0.16526,-0.04792 0.16526,-0.04792l1.83004,0.38385c0.40264,0.82126 1.68018,1.6805 1.20789,2.46376c-2.6075,4.32442 -3.86906,0.36713 -4.56042,-0.90101c0,0 -0.47295,-1.32424 0.85129,-1.79718c0.18489,-0.06603 0.3532,-0.09704 0.50593,-0.10149z" fill="#ed66ff"/><path d="M136.59858,236.73075c0.17429,0.17429 0.28747,0.34856 0.35563,0.51749c0.58062,0.43166 0.52713,1.23396 0.52713,1.23396c-0.10193,0.69146 -0.20387,1.38293 -0.3058,2.07439l-0.64322,0.21459l0.14881,0.26042l-1.3058,0.74617c-0.21041,0.12545 -0.45633,0.19753 -0.71909,0.19753c-0.7766,0 -1.40617,-0.62956 -1.40617,-1.40617c0,-0.13651 0.01945,-0.26848 0.05574,-0.39329l0.37096,-1.39107l0.17086,0.04556c0.06207,-0.50681 0.16697,-1.00445 0.3376,-1.48344l0.42474,-0.61616c0,0 0.99431,-0.99431 1.98863,0z" fill="#ed66ff"/><path d="M101.68769,235.25724c1.79529,3.59058 -3.13444,4.30243 -4.69585,1.17962l-0.1611,-0.65416c0,-0.02888 0.00087,-0.05753 0.00258,-0.08598c0.12084,-2.53943 4.11674,-1.91472 4.85436,-0.43948z" fill="#19da44"/><path d="M97.96304,244.5624c-3.04662,1.52331 -4.3362,-3.53916 -1.78244,-3.68103c0.13983,-0.05904 0.29121,-0.09609 0.44981,-0.10686c1.14225,-0.7615 3.75045,2.57898 1.33263,3.78789z" fill="#19da44"/><path d="M112.884,241.09865c-2.61191,2.01916 -5.33732,-0.45788 -2.77248,-1.9235c0.12093,-0.25371 0.31565,-0.46549 0.55639,-0.60757c0.68392,-1.19686 4.26303,0.94867 2.2161,2.53107z" fill="#19da44"/><path d="M132.31527,241.91133c-2.1335,3.97266 -6.08907,-2.17337 -4.06592,-2.67917c0.68861,-0.17215 1.46541,-0.11914 2.10329,-0.24671c0.24706,-0.21538 0.57009,-0.34582 0.92358,-0.34582c0.66883,0 1.2286,0.46694 1.37108,1.09262c0.03202,0.09323 0.04538,0.19676 0.03509,0.31355c0,0.08247 -0.0071,0.16326 -0.02072,0.24183c-0.04613,0.536 -0.11279,1.1887 -0.3464,1.62369z" fill="#19da44"/><path d="M107.48802,236.14515c-0.91778,1.60613 -5.06295,0.6637 -3.9209,-1.23972c-0.04875,-0.14269 -0.07521,-0.29572 -0.07521,-0.45492c0,-0.02504 0.00065,-0.04994 0.00195,-0.07465c0.03486,-0.88019 0.48175,-1.25214 1.07009,-1.29157c0.10709,-0.0261 0.219,-0.03995 0.33413,-0.03995c0.34471,0 0.66047,0.12405 0.90506,0.32993c1.16808,0.56008 2.23346,1.81091 1.6849,2.77087z" fill="#19da44"/><path d="M119.96573,239.74139c-0.0889,1.60019 -5.48264,1.53674 -4.67739,-1.68424c0.02854,-0.48048 0.29837,-0.89602 0.68998,-1.12715c0.9575,-1.67561 4.03035,2.03834 3.98741,2.81138z" fill="#ff4848"/><path d="M106.63557,238.98685c-0.76255,1.33447 -3.81915,0.07134 -3.81915,-1.25902c-0.09554,-0.18983 -0.14934,-0.40428 -0.14934,-0.6313c0,-0.77661 0.62957,-1.40617 1.40617,-1.40617c0.36349,0 0.69475,0.13792 0.94434,0.36427c1.36088,0.17436 2.48492,1.41509 1.61798,2.93222z" fill="#ff4848"/><path d="M87.74229,238.44929c-0.00552,-0.0506 -0.00835,-0.10202 -0.00835,-0.15409c0,-0.37991 0.15067,-0.72465 0.39552,-0.9777c1.14127,-1.76736 4.06932,-1.91102 4.88808,-0.50693c0.24723,-0.40321 0.69201,-0.67219 1.19964,-0.67219c0.48345,0 0.90991,0.24398 1.16299,0.61551c1.40917,0.37932 2.48266,1.85132 1.9614,2.76353c-1.11364,1.94887 -4.09707,1.44589 -4.54037,-0.60058c-1.31971,1.60111 -5.28952,1.22358 -5.05892,-0.46755z" fill="#ff4848"/><path d="M135.20944,242.16142c-1.94496,0.13414 -4.88267,-4.60435 -1.43411,-4.60435c0.15931,-0.60177 0.70757,-1.04535 1.35945,-1.04535c0.77129,0 1.39754,0.62096 1.40609,1.39023c0.72951,1.65687 0.35757,4.14298 -1.33142,4.25946z" fill="#ff4848"/><path d="M127.80624,238.21316c2.75845,1.94085 -2.07394,5.46946 -3.41879,3.48999c0.09068,0.20028 0.14084,0.43014 0.14084,0.6908c0,3.14912 -5.99446,3.08591 -5.43104,0.5505c-0.00225,-0.03256 -0.00341,-0.06541 -0.00341,-0.09854c0,-0.0638 0.00425,-0.1266 0.01249,-0.18815c0.2487,-2.05632 4.0993,-2.7231 5.15569,-1.17759c-0.11029,-0.23863 -0.18122,-0.53583 -0.20139,-0.89887c-0.14289,-0.22009 -0.22586,-0.48268 -0.22586,-0.76463c0,-0.77661 0.62957,-1.40617 1.40617,-1.40617c0.16705,0 0.32731,0.02912 0.47595,0.08259c0.15547,-0.06056 0.2895,-0.12717 0.40921,-0.1933c-1.79496,0.00763 -3.65656,-1.81996 -2.37645,-3.6237c1.91274,-2.69513 5.5299,1.87107 4.23909,2.60868l-0.10831,0.21661c-0.16037,0.18709 -0.33822,0.33818 -0.52801,0.45648c0.13104,0.05021 0.27928,0.13249 0.45382,0.2553z" fill="#ff4848"/><path d="M100.48594,241.39066c-4.73593,2.36797 -3.16548,-4.55682 -1.40477,-3.5507c0.00674,-0.00056 0.0135,-0.00106 0.02027,-0.00152c1.1503,-0.76687 4.08692,2.20101 1.3845,3.55222z" fill="#469cff"/><path d="M107.88613,242.15116c-2.87709,-0.19617 -1.89116,-4.83897 0.46566,-4.31523c0.06396,0.00215 0.12685,0.00856 0.18837,0.01897c2.52334,-0.19411 2.33827,4.50029 -0.65403,4.29626z" fill="#469cff"/><path d="M114.29792,233.65309c3.34499,0.76023 0.10944,5.33794 -1.39453,4.49705c-1.45707,-0.81468 -1.99626,-2.96014 -0.25047,-3.95775c0.11688,-0.17227 0.271,-0.31727 0.45078,-0.42337c0.14766,-0.25841 0.53326,-0.24317 0.85786,-0.18701c0.09796,0.00998 0.19294,0.03001 0.2839,0.05905c0.01833,0.00421 0.03584,0.00825 0.05243,0.01201z" fill="#469cff"/><path d="M115.82232,244.15615c-1.96491,-0.44369 -1.71198,-4.97552 0.13004,-4.56618c0.01231,-0.00033 0.02465,-0.00048 0.03703,-0.00048c0.64247,0 1.18431,0.43087 1.35232,1.01942c0.90143,1.49696 0.31819,3.96218 -1.51938,3.54725z" fill="#469cff"/><path d="M128.33918,245.08271c-0.93071,-0.23268 -3.39703,-2.32675 -1.69914,-3.29698c0.24461,-0.41446 0.69576,-0.69249 1.21186,-0.69249c0.28091,0 0.54256,0.08237 0.76215,0.22427c3.29136,1.20909 2.34831,4.42101 -0.27488,3.7652z" fill="#469cff"/><path d="M132.73195,238.88445c-3.28146,1.00595 -5.01576,-4.05673 -1.94727,-4.05673c0.06117,-0.05197 0.12685,-0.09881 0.19636,-0.13984c0.33073,-0.57879 0.89381,-0.46051 1.42637,-0.00058c0.25316,0.14913 0.45551,0.37529 0.57484,0.64626c0.85169,1.2027 1.28211,3.08112 -0.2503,3.55089z" fill="#469cff"/><path d="M137.55922,242.55362c0,2.21229 -3.75254,2.98498 -3.89402,0.43839c-0.00864,-0.063 -0.01309,-0.12733 -0.01309,-0.1927c0,-0.20991 0.046,-0.40907 0.12846,-0.58796c0.67502,-1.49608 3.77866,-1.62205 3.77866,0.34227z" fill="#469cff"/><path d="M103.0061,237.04664c-0.55179,-0.27589 -3.12406,-3.78602 -0.81341,-3.9144c0.2201,-0.14289 0.48269,-0.22586 0.76464,-0.22586c0.7766,0 1.40617,0.62956 1.40617,1.40617c0,0.06071 -0.00385,0.12051 -0.01132,0.1792c0.89507,1.65963 0.92357,3.68973 -1.3461,2.5549z" fill="#469cff"/><path d="M104.82467,241.68716c0.54522,-0.18174 0.94187,-0.06636 1.22034,0.13362l1.04432,0.20886c0.65723,0.11805 1.15594,0.69277 1.15594,1.38397c0,0.49583 -0.25663,0.93172 -0.64432,1.1821l-1.15918,0.77279l-1.29799,-0.98531l-0.05212,0.11496c0,0 -0.91249,-0.1825 -1.1044,-0.99287l-0.05194,-0.03943c0,0 -0.44466,-1.33402 0.88934,-1.77868z" fill="#19da44"/><path d="M121.07043,243.59125c-0.27577,1.37887 -1.65463,1.10309 -1.65463,1.10309l-0.32785,-0.37817c-0.35226,0.17989 -0.84891,0.25627 -1.41741,-0.17009c-1.12493,-0.8437 -0.28123,-1.96864 -0.28123,-1.96864l0.87317,-1.16424c0.25588,-0.34898 0.66885,-0.57555 1.13474,-0.57555c0.7766,0 1.40617,0.62956 1.40617,1.40617c0,0.17017 -0.03023,0.33328 -0.08561,0.48426c0.26776,0.24934 0.47614,0.64562 0.35263,1.26317z" fill="#19da44"/><path d="M126.61481,239.42439l-2.52541,0.25779c0,-0.49218 0,-0.98439 0,-1.47657c0,0 0,-1.40617 1.40617,-1.40617c0.56193,0 0.8993,0.22456 1.10185,0.4942c0.08222,0.03335 0.16706,0.07565 0.25443,0.12807c1.20578,0.72347 0.48232,1.92925 0.48232,1.92925l-0.43244,0.04414c0,0.09569 0,0.19139 0,0.28708z" fill="#e1e1e1"/><path d="M105.76118,238.71014c-0.35061,3.02703 -5.57661,3.44966 -4.60553,-0.43467c-0.00326,-0.0391 -0.00494,-0.07864 -0.00494,-0.11859c0,-0.02667 0.00074,-0.05318 0.00222,-0.07948c0.12357,-2.87915 4.90545,-1.93323 4.60825,0.63273z" fill="#e1e1e1"/><path d="M99.73084,245.03537c-2.25689,0 -2.89545,-4.14532 -0.63482,-3.64296c0.16112,-0.08014 0.3398,-0.13028 0.52872,-0.1431c1.44703,-0.96469 3.63127,3.78605 0.1061,3.78605z" fill="#e1e1e1"/><path d="M115.14718,239.56542c-1.2312,1.1728 -3.92585,1.67155 -3.22943,-1.11415c-0.03095,-0.11595 -0.04744,-0.23781 -0.04744,-0.36352c0,-0.77661 0.62957,-1.40617 1.40617,-1.40617c0.29471,0 0.56824,0.09067 0.79423,0.24562c1.22384,0.18557 1.63075,2.11022 1.07646,2.63821z" fill="#e1e1e1"/><path d="M111.48177,244.54484c-0.93856,0.97936 -4.93284,0.61474 -4.47717,-1.056c-0.02908,-0.11265 -0.04455,-0.23077 -0.04455,-0.3525c0,-0.77661 0.62957,-1.40617 1.40617,-1.40617c0.25124,0 0.4871,0.0659 0.69123,0.18134c1.9552,-0.3136 3.09405,1.93448 2.42432,2.63333z" fill="#e1e1e1"/><path d="M102.12909,237.45891c0.11948,-0.1394 0.25053,-0.25685 0.39016,-0.35376c0.25533,-0.26133 0.61165,-0.42355 1.00587,-0.42355c0.15224,0 0.29884,0.02419 0.43614,0.06895c1.36163,0.12712 2.68498,1.35786 2.2739,2.86514c-0.33757,1.23774 -5.87165,0.79024 -4.11926,-2.13041z" fill="#ed66ff"/><path d="M114.49773,237.90654c0.69378,3.12202 -4.54549,2.30743 -4.66948,0.07558c-0.09669,-1.74036 4.61047,-2.88918 4.61047,-0.19364z" fill="#ed66ff"/><path d="M119.8337,238.63459c1.46143,-2.92284 4.17697,-0.24323 3.31802,2.16184c-0.99227,2.77835 -3.99516,0.58176 -3.38811,-1.84643z" fill="#ed66ff"/><path d="M109.25414,238.12382c-2.0505,1.75756 -4.51997,-1.87432 -2.50685,-3.02467c0.12194,-0.22464 0.3033,-0.41233 0.52299,-0.54199c0.89015,-1.55775 4.45509,1.44845 1.98386,3.56666z" fill="#ff4848"/><path d="M115.31385,242.78109c-0.72105,3.24473 -4.75795,2.92119 -4.55007,-0.47465c0.18554,-3.03092 4.54131,-2.09015 4.54131,0.46152z" fill="#ff4848"/><path d="M93.53792,239.08659c-2.49305,-0.62326 -1.93851,-5.19242 0.33711,-4.68673c0.01231,-0.00031 0.02465,-0.00048 0.03703,-0.00048c0.52757,0 0.98728,0.29053 1.22786,0.72032c1.40129,1.51134 0.83539,4.57623 -1.602,3.96689z" fill="#469cff"/><path d="M103.62037,241.51958c2.95177,2.95176 -1.47257,4.47685 -3.48743,2.12617c-2.06915,-2.41401 2.77862,-5.48511 2.9465,-2.46334z" fill="#469cff"/><path d="M123.52142,238.60361c-2.88861,0 -2.27485,-4.75754 0.24536,-4.75754c0.1375,-0.0449 0.2843,-0.06916 0.43678,-0.06916c0.0246,0 0.04906,0.00063 0.07335,0.00189c2.97033,0.11464 1.42851,4.82481 -0.75548,4.82481z" fill="#469cff"/><path d="M130.94371,235.58861c0.15738,2.83292 -5.89228,3.16043 -3.94305,-0.08831c-0.035,-0.12275 -0.05374,-0.25237 -0.05374,-0.38635c0,-0.04352 0.00198,-0.0866 0.00585,-0.12912c0.02934,-0.37008 0.16408,-0.63989 0.36757,-0.82523c0.25688,-0.27785 0.6245,-0.45182 1.03275,-0.45182c0.29674,0 0.57201,0.09192 0.79889,0.24882c0.90447,0.26658 1.7521,0.91861 1.79173,1.632z" fill="#19da44"/><path d="M130.74076,244.94885c-0.22792,-0.22792 -0.17756,-4.02493 1.52628,-3.56024c0.11264,-0.02908 0.23077,-0.04455 0.3525,-0.04455c0.7766,0 1.40617,0.62956 1.40617,1.40617c0,0.25813 -0.06955,0.50001 -0.19095,0.70793c0.11978,1.67531 -2.32108,2.26362 -3.09401,1.49068z" fill="#e1e1e1"/><path d="M138.83981,241.57308c-1.94496,0.13414 -4.88267,-4.60435 -1.43411,-4.60435c0.15931,-0.60177 0.70757,-1.04535 1.35944,-1.04535c0.77129,0 1.39754,0.62096 1.40609,1.39023c0.72951,1.65687 0.35757,4.14298 -1.33142,4.25946z" fill="#ff4848"/><path d="M136.96391,240.96104c1.46143,-2.92284 4.17697,-0.24323 3.31802,2.16184c-0.99227,2.77835 -3.99516,0.58176 -3.38811,-1.84643z" fill="#ed66ff"/><path d="M142.62983,242.67011c-3.04662,1.52331 -4.3362,-3.53916 -1.78244,-3.68103c0.13984,-0.05904 0.29121,-0.09609 0.44981,-0.10686c1.14225,-0.7615 3.75047,2.57898 1.33263,3.78789z" fill="#19da44"/><path d="M93.13758,242.48586c7.33659,1.59544 14.90311,2.1982 22.4281,2.22713c5.72577,0.02201 14.73885,1.03023 20.84559,-0.99714c2.78962,-0.92611 4.00829,-1.35704 6.19203,-3.0712c0.27396,-0.21504 0.60228,-0.54429 0.93948,-0.45717c1.81,0.46761 1.60251,1.99138 0.71889,3.03599c-2.75542,3.25741 -8.60162,3.46165 -12.59341,3.95307c-11.94316,1.47027 -23.12994,-1.09982 -34.68265,-1.09982c-3.79676,0 -7.74663,-1.93275 -11.04981,-3.49941c-0.51366,-0.24363 -2.93656,-1.98031 -2.7397,-2.70215c-0.02908,-0.11265 -0.04455,-0.23077 -0.04455,-0.3525c0,-0.77661 0.62957,-1.40617 1.40617,-1.40617c0.64057,0 1.18111,0.42833 1.35081,1.01422c2.13114,0.70173 4.75525,2.8172 7.22904,3.35515z" fill="#f1cf5d"/><path d="M124.11812,235.75238c-0.62886,1.25771 -1.88657,0.62885 -1.88657,0.62885l-0.33726,-0.2212l-0.34746,0.14891c-0.17748,0.08088 -0.37472,0.12594 -0.58249,0.12594c-0.7766,0 -1.40617,-0.62956 -1.40617,-1.40617c0,-0.1775 0.03289,-0.34732 0.09291,-0.5037l0.22755,-0.63715c-0.12076,-0.35961 -0.11736,-0.83019 0.32964,-1.32189c0.94589,-1.04049 1.98638,-0.09458 1.98638,-0.09458c0.13198,0.19759 0.26393,0.3952 0.39591,0.5928c0.27331,0.34578 0.54528,0.71523 0.82597,0.93123l0.07274,-0.1296c0,0 1.25771,0.62886 0.62886,1.88657z" fill="#ed66ff"/><path d="M123.56358,236.39728c0.29365,1.05642 -1.47418,3.32564 -2.84618,3.02075c-0.9339,-0.20753 -3.78977,-2.97056 -1.84377,-4.08255c0.24461,-0.41446 0.69576,-0.69249 1.21186,-0.69249c0.24691,0 0.47896,0.06365 0.68064,0.17541c1.0772,0.24358 2.50316,0.52014 2.79745,1.57886z" fill="#19da44"/></g><path d="M116.64516,263.6833c-0.39529,-1.18586 0.79057,-1.58114 0.79057,-1.58114l0.75166,-0.22496c7.19025,-0.88601 15.00009,-6.8766 18.56233,-13.11051c0.90677,-1.0944 1.561,-2.43389 2.4554,-3.49951c0.93417,-1.113 3.13607,-1.9105 3.73225,-3.27472c2.05157,-4.69448 -4.32189,-7.42095 -7.70258,-7.80845c0,0 -1.24035,-0.15505 -1.0853,-1.39539c0.15505,-1.24034 1.39539,-1.08531 1.39539,-1.08531c5.16018,0.6866 12.40966,4.87077 9.68576,11.28463c-0.77394,1.82236 -2.93194,2.45847 -4.10954,3.88519c-0.84022,1.01797 -1.44759,2.28169 -2.31788,3.31945c-3.91839,6.85717 -12.44946,13.17077 -20.30572,14.16532l-0.27118,0.11598c0,0 -1.18585,0.39529 -1.58114,-0.79057z" fill-opacity="0.50196" fill="#fa9600"/><path d="M135.31315,250.46177c-0.55901,1.11803 -1.67705,0.55901 -1.67705,0.55901l-0.69236,-0.34618c-1.82346,-0.9133 -2.59087,-1.29386 -3.38517,-3.22951c0,0 -0.42718,-1.17474 0.74756,-1.60192c1.17474,-0.42718 1.60192,0.74756 1.60192,0.74756c0.35637,1.2784 0.97277,1.25842 2.15372,1.8478l0.69236,0.34618c0,0 1.11803,0.55902 0.55901,1.67705z" fill-opacity="0.50196" fill="#fa9600"/><path d="M95.92246,252.06767c-0.64108,0.44489 -1.26698,0.92978 -1.93353,1.33021l-1.43787,0.4716c0,0 -1.19728,0.35918 -1.55647,-0.8381c-0.35918,-1.19728 0.8381,-1.55647 0.8381,-1.55647l0.87,-0.22077c0.55071,-0.32998 1.06208,-0.68138 1.5671,-1.02443c0.02517,-0.17913 0.09895,-0.37435 0.24446,-0.58222c0.4645,-0.66357 1.05799,-0.59616 1.41827,-0.46648c0.52683,-0.2882 1.08275,-0.53627 1.70014,-0.71501c0,0 1.20595,-0.32889 1.53485,0.87706c0.19256,0.70606 -0.141,1.11148 -0.45062,1.32627c1.16849,0.49708 2.38383,0.89415 3.56593,1.3822c0.83377,-0.62716 1.62355,-1.33849 2.38489,-2.13899c0.00276,-0.07346 0.01122,-0.15118 0.02617,-0.23341c0.14315,-0.78735 0.69873,-0.97898 1.07998,-1.01496c0.18384,-0.22187 0.36639,-0.44944 0.54788,-0.68279c0,0 0.76743,-0.98669 1.75412,-0.21927c0.68018,0.52903 0.52678,1.16225 0.36584,1.50462c1.14489,0.37763 2.23757,0.86091 3.28859,1.4232c0.4515,-0.85825 0.91488,-1.72464 1.42988,-2.58425c0,0 0.64312,-1.07187 1.71499,-0.42875c1.07187,0.64312 0.42875,1.71499 0.42875,1.71499c-0.51721,0.86064 -0.98828,1.72089 -1.44665,2.57095c0.69974,0.46186 1.3826,0.95349 2.05221,1.46572c1.09861,-1.81374 2.04755,-3.71383 2.80211,-5.79933c0,0 0.42718,-1.17475 1.60192,-0.74757c1.17474,0.42718 0.74756,1.60192 0.74756,1.60192c-0.03659,0.10015 -0.07357,0.19992 -0.11097,0.29932c1.13441,0.64464 2.24694,1.34887 3.31725,2.11334c0.23614,-0.96418 0.46775,-1.96858 0.75966,-3.05334c0,0 0.32889,-1.20595 1.53485,-0.87706c1.20596,0.32889 0.87706,1.53485 0.87706,1.53485c-0.39928,1.44134 -0.70219,2.76681 -1.04191,4.04833c1.01345,0.85597 1.96956,1.7739 2.8473,2.75447l0.06502,0.06197c0,0 0.88388,0.88388 0,1.76777c-0.88388,0.88389 -1.76777,0 -1.76777,0l-0.16577,-0.16883c-0.5551,-0.62968 -1.15036,-1.23162 -1.77696,-1.80564c-0.40944,1.13269 -0.92361,2.26994 -1.64041,3.4646l-0.41541,0.83905c0,0 -0.47338,0.94677 -1.42016,0.6622c-0.05303,0.07944 -0.11862,0.15954 -0.19871,0.23963c-0.88389,0.88389 -1.76777,0 -1.76777,0l-0.17736,-0.18041c-1.13294,-1.00705 -2.28393,-2.06469 -3.47534,-3.09047c-0.66591,0.96573 -1.36908,1.91832 -2.1039,2.87095l0.02379,0.01689c0,0 0.88389,0.88388 0,1.76777c-0.70634,0.70634 -1.41268,0.28376 -1.66794,0.0855c-1.4882,-0.56525 -2.89289,-1.29815 -4.25374,-2.11563c-0.28115,0.25573 -0.57641,0.50532 -0.8876,0.74822l0.00107,0.01259c0,0 -0.88388,0.88389 -1.76777,0c-0.88389,-0.88389 0,-1.76776 0,-1.76776l0.23185,-0.2182c0.07571,-0.05865 0.15039,-0.11779 0.22405,-0.17742c-1.48306,-0.99091 -2.93835,-2.03097 -4.42149,-3.00367c-2.06368,1.20132 -4.37202,2.0271 -7.04324,2.51278l-0.68518,0.02016c0,0 -1.25,0 -1.25,-1.25c0,-1.25 1.25,-1.25 1.25,-1.25l0.23797,0.02016c1.96774,-0.35777 3.69746,-0.91323 5.26146,-1.68964c-1.26734,-0.48473 -2.53298,-0.95076 -3.73054,-1.60843zM112.07883,258.82731l0.12798,-0.11433c0.83076,-1.06813 1.62198,-2.13145 2.36332,-3.21287c-0.61527,-0.48047 -1.24341,-0.94235 -1.88714,-1.37557c-0.72992,1.30596 -1.50006,2.56524 -2.44299,3.73891c0.60091,0.34573 1.21169,0.67081 1.8357,0.96708c0.00205,-0.00213 0.00314,-0.00322 0.00314,-0.00322zM110.57862,252.85462c-1.21449,-0.64511 -2.48796,-1.16474 -3.83596,-1.50157c-0.71958,0.77949 -1.46389,1.48874 -2.24143,2.1303c0.04329,0.16476 0.0503,0.35747 -0.00138,0.58134c1.20037,0.82445 2.3952,1.67628 3.61562,2.48033c0.97491,-1.14164 1.74573,-2.39065 2.46316,-3.6904zM117.86753,255.00562c1.21004,1.01778 2.38633,2.07584 3.55263,3.11422l0.39453,-0.78267c0.81129,-1.35215 1.33806,-2.60868 1.74589,-3.87204c-1.14608,-0.86696 -2.35489,-1.65455 -3.58465,-2.36185c-0.62893,1.35476 -1.33554,2.64661 -2.10839,3.90233z" fill-opacity="0.50196" fill="#fa9600"/></g></g></svg>