<svg version="1.1" xmlns="http://www.w3.org/2000/svg" xmlns:xlink="http://www.w3.org/1999/xlink" width="36.23976" height="32.88442" viewBox="0,0,36.23976,32.88442"><g transform="translate(-28.62116,-227.57288)"><g data-paper-data="{&quot;isPaintingLayer&quot;:true}" fill-rule="nonzero" stroke="none" stroke-width="0.5" stroke-linecap="butt" stroke-linejoin="miter" stroke-miterlimit="10" stroke-dasharray="" stroke-dashoffset="0" style="mix-blend-mode: normal"><g fill="#b187d0"><path d="M64.86092,259.4573c0,1 -1,1 -1,1l-0.56027,-0.01613c-1.20956,-0.22026 -2.41035,-0.38062 -3.61049,-0.64627c-0.99729,-0.24932 -3.61649,-0.44901 -3.81251,-1.85755c-0.22975,-1.65093 3.08895,-2.86693 4.15106,-3.3377c0.22838,-0.10123 0.54488,-0.29237 0.87027,-0.48509c-0.27314,-0.07116 -0.47622,-0.14972 -0.47827,-0.15c-2.48823,-0.34038 -4.98847,-0.37226 -7.49292,-0.37226c0,0 -1,0 -1,-1c0,-1 1,-1 1,-1c2.98317,0 6.26392,-0.14213 9.16549,0.6454c0.68828,0.18681 1.75546,0.01842 2.02969,0.67678c0.84943,2.03925 -4.43378,4.39255 -5.84502,4.89037c-0.4919,0.17352 0.70849,-0.24726 1.87171,0.04354c1.16463,0.25994 2.33379,0.41172 3.50875,0.62503l0.2025,-0.01613c0,0 1,0 1,1z"/><path d="M50.57112,248.71327c-0.31623,0.94869 -1.26491,0.63245 -1.26491,0.63245l-0.1892,-0.08353c-1.70794,-0.21458 -5.45486,-0.28774 -4.61717,-3.14636c0.12067,-0.41177 2.73276,-2.16577 3.19664,-2.54286c0.26633,-0.2165 1.18732,-0.64689 0.85066,-0.58013c-2.03038,0.40263 -4.63777,-0.71726 -6.80673,-0.71505c0,0 -1,0 -1,-1c0,-1 1,-1 1,-1c2.22352,0.00209 4.69602,0.24239 6.83011,0.91427c0.55568,0.17495 1.33908,0.14793 1.61868,0.65901c2.23481,4.08498 -7.04444,4.43703 -1.80501,5.30462c0.32505,0.05382 0.65392,0.08129 0.98089,0.12194l0.57358,0.17073c0,0 0.94868,0.31623 0.63246,1.26492z"/><path d="M39.94356,235.6841c0,1 -1,1 -1,1h-1.01703c-1.39646,0 -5.70721,0.64396 -6.40071,-1.02449c-0.7183,-1.7281 2.68749,-3.32153 3.68362,-3.98501c0.04271,-0.02845 0.134,-0.11453 0.25346,-0.21589c-1.46634,-0.15352 -2.92489,-0.11405 -4.40137,-0.11405c0,0 -1,0 -1,-1c0,-1 1,-1 1,-1c1.35319,0 7.49054,-0.6282 7.6088,1.70064c0.05066,0.9977 -3.99405,3.71009 -4.95992,4.03797c-0.39207,0.13309 1.28692,-0.39917 2.05491,-0.39917c0.7204,0 1.4408,0 2.1612,0h1.01703c0,0 1,0 1,1z"/></g><g fill="#451a69"><path d="M63.42055,257.76266c0,1 -1,1 -1,1l-0.56027,-0.01613c-1.20956,-0.22027 -2.41036,-0.38062 -3.61049,-0.64627c-0.99729,-0.24932 -3.61649,-0.44901 -3.8125,-1.85755c-0.22975,-1.65093 3.08895,-2.86693 4.15106,-3.3377c0.22838,-0.10123 0.54489,-0.29237 0.87027,-0.48509c-0.27315,-0.07115 -0.47622,-0.14972 -0.47827,-0.15c-2.48824,-0.34038 -4.98847,-0.37226 -7.49292,-0.37226c0,0 -1,0 -1,-1c0,-1 1,-1 1,-1c2.98317,0 6.26392,-0.14214 9.1655,0.6454c0.68828,0.18681 1.75546,0.01843 2.02969,0.67678c0.84943,2.03925 -4.43378,4.39255 -5.84502,4.89037c-0.4919,0.17352 0.70849,-0.24726 1.87171,0.04354c1.16464,0.25994 2.33379,0.41172 3.50876,0.62503l0.2025,-0.01613c0,0 1,0 1,1z"/><path d="M49.13074,247.01863c-0.31623,0.94868 -1.26491,0.63246 -1.26491,0.63246l-0.1892,-0.08353c-1.70794,-0.21458 -5.45486,-0.28774 -4.61717,-3.14636c0.12067,-0.41177 2.73276,-2.16577 3.19664,-2.54286c0.26632,-0.21649 1.18732,-0.64689 0.85066,-0.58013c-2.03038,0.40262 -4.63778,-0.71725 -6.80673,-0.71505c0,0 -1,0 -1,-1c0,-1 1,-1 1,-1c2.22352,0.00209 4.69603,0.24238 6.83012,0.91427c0.55567,0.17495 1.33908,0.14793 1.61868,0.65901c2.23481,4.08498 -7.04444,4.43703 -1.80501,5.30462c0.32505,0.05382 0.65393,0.08129 0.98089,0.12194l0.57358,0.17072c0,0 0.94868,0.31623 0.63246,1.26491z"/><path d="M38.50319,233.98946c0,1 -1,1 -1,1h-1.01704c-1.39646,0 -5.7072,0.64396 -6.40071,-1.02449c-0.7183,-1.7281 2.68749,-3.32154 3.68362,-3.98501c0.04271,-0.02845 0.134,-0.11453 0.25347,-0.21588c-1.46634,-0.15352 -2.92489,-0.11405 -4.40137,-0.11405c0,0 -1,0 -1,-1c0,-1 1,-1 1,-1c1.3532,0 7.49055,-0.6282 7.6088,1.70064c0.05066,0.99771 -3.99405,3.7101 -4.95992,4.03798c-0.39207,0.13309 1.28693,-0.39918 2.05491,-0.39918c0.7204,0 1.4408,0 2.1612,0h1.01704c0,0 1,0 1,1z"/></g></g></g></svg>