<svg version="1.1" xmlns="http://www.w3.org/2000/svg" xmlns:xlink="http://www.w3.org/1999/xlink" width="35.63531" height="10.94373" viewBox="0,0,35.63531,10.94373"><g transform="translate(-388.25791,-227.65737)"><g data-paper-data="{&quot;isPaintingLayer&quot;:true}" fill-rule="nonzero" stroke="none" stroke-width="0.5" stroke-linecap="butt" stroke-linejoin="miter" stroke-miterlimit="10" stroke-dasharray="" stroke-dashoffset="0" style="mix-blend-mode: normal"><g><g fill="#ff4040"><path d="M394.68447,229.55753c0.89443,-0.44721 1.34164,0.44721 1.34164,0.44721l0.25822,0.5495c0.6945,2.35349 0.12984,4.44511 0.13959,6.81375c0,0 0,1 -1,1c-1,0 -1,-1 -1,-1c0.00339,-0.97446 0.12588,-1.91533 0.19779,-2.85028l-0.17188,-0.04608c-0.9472,0 -1.8944,0 -2.8416,0c0.02942,0.92927 0.04264,1.86053 0.04264,2.79895c0,0 0,1 -1,1c-1,0 -1,-1 -1,-1c0,-2.29335 -0.08036,-4.54033 -0.28812,-6.8255l-0.07165,-0.23763c0,0 -0.24254,-0.97015 0.7276,-1.21268c0.97015,-0.24254 1.21268,0.72761 1.21268,0.72761l0.12316,0.54164c0.06714,0.73865 0.12139,1.47368 0.1642,2.20762c0.97703,0 1.95405,0 2.93108,0l0.18582,0.03178c-0.04251,-0.45388 -0.12515,-0.911 -0.26697,-1.37447l-0.13142,-0.22977c0,0 -0.44721,-0.89443 0.44722,-1.34164z"/><path d="M400.42323,236.36849c0.70085,0.32249 1.72348,0.27039 2.41062,0.19842c0,0 0.9959,-0.09054 1.08643,0.90536c0.09053,0.99589 -0.90536,1.08643 -0.90536,1.08643c-1.22417,0.09873 -3.18116,0.09783 -4.16519,-0.83381c-1.40312,-1.32842 -0.9785,-4.75207 0.7991,-5.63297c1.87347,-0.9284 4.3321,0.20079 3.38903,2.60956c-0.38408,0.98102 -1.53899,1.30168 -2.37212,1.64681zM400.536,234.27359c0.07029,-0.02828 0.13943,-0.05909 0.20672,-0.09406c0.99548,-0.51743 0.41701,-0.3594 -0.20672,0.09406z"/><path d="M406.91129,238.26647c-0.9959,0.09053 -1.08643,-0.90535 -1.08643,-0.90535l-0.09238,-1.02719c-0.33362,-1.83491 -0.63245,-3.67034 -0.96709,-5.50826c0,0 -0.17889,-0.98387 0.80498,-1.16276c0.98387,-0.17889 1.16276,0.80498 1.16276,0.80498c0.33893,1.86686 0.64222,3.73256 0.98109,5.59635l0.10243,1.11581c0,0 0.09054,0.99589 -0.90535,1.08642z"/><path d="M411.25187,238.04591c-0.97015,0.24254 -1.21267,-0.72761 -1.21267,-0.72761l-0.21107,-0.8574c-0.33299,-1.99818 -0.78735,-3.97958 -0.79288,-6.00894c0,0 0,-1 1,-1c1,0 1,1 1,1c-0.00599,1.9119 0.45179,3.79712 0.76567,5.68014l0.17857,0.70113c0,0 0.24253,0.97015 -0.72761,1.21268z"/><path d="M416.79482,233.8873c-0.62331,0.05594 -1.57614,0.25437 -1.12467,0.83056c0.1755,0.22399 3.51436,0.70398 1.83904,-0.35719c-0.24132,-0.15285 -0.47698,-0.31445 -0.71437,-0.47337zM418.40146,232.55021c0.63549,0.42682 1.42292,1.00787 1.53833,1.46509c0.72925,2.88899 -2.71296,3.44682 -4.59159,2.63833c-2.85485,-1.22862 -1.57208,-3.6474 0.45655,-4.48316c0.45836,-0.79412 1.30152,-0.37253 1.30152,-0.37253l0.15721,0.08056c0.11331,0.00139 0.22655,0.0087 0.33925,0.02229c0,0 0.62905,0.10484 0.79874,0.64942z"/><path d="M421.89322,236.10167c0,-0.55229 0.44772,-1 1,-1c0.55228,0 1,0.44771 1,1c0,0.55229 -0.44772,1 -1,1c-0.55228,0 -1,-0.44771 -1,-1z"/></g><g fill="#ffffff"><path d="M393.67823,228.25907c0.89443,-0.44721 1.34164,0.44721 1.34164,0.44721l0.25822,0.5495c0.6945,2.35349 0.12984,4.44511 0.13959,6.81375c0,0 0,1 -1,1c-1,0 -1,-1 -1,-1c0.00339,-0.97446 0.12588,-1.91533 0.19779,-2.85028l-0.17188,-0.04608c-0.9472,0 -1.8944,0 -2.8416,0c0.02942,0.92927 0.04264,1.86053 0.04264,2.79895c0,0 0,1 -1,1c-1,0 -1,-1 -1,-1c0,-2.29335 -0.08036,-4.54033 -0.28812,-6.8255l-0.07165,-0.23764c0,0 -0.24254,-0.97015 0.7276,-1.21268c0.97015,-0.24254 1.21268,0.72761 1.21268,0.72761l0.12316,0.54164c0.06714,0.73865 0.12139,1.47368 0.1642,2.20762c0.97703,0 1.95405,0 2.93108,0l0.18582,0.03178c-0.04251,-0.45388 -0.12515,-0.911 -0.26697,-1.37447l-0.13142,-0.22977c0,0 -0.44721,-0.89443 0.44722,-1.34164z"/><path d="M399.417,235.07003c0.70085,0.32249 1.72348,0.27039 2.41062,0.19842c0,0 0.9959,-0.09053 1.08643,0.90536c0.09053,0.99589 -0.90536,1.08643 -0.90536,1.08643c-1.22417,0.09873 -3.18116,0.09782 -4.1652,-0.83382c-1.40312,-1.32842 -0.97851,-4.75207 0.7991,-5.63297c1.87347,-0.9284 4.3321,0.20079 3.38903,2.60957c-0.38408,0.98102 -1.53899,1.30168 -2.37212,1.64681zM399.52976,232.97513c0.07029,-0.02828 0.13943,-0.0591 0.20671,-0.09407c0.99548,-0.51743 0.41701,-0.3594 -0.20671,0.09407z"/><path d="M405.90505,236.96801c-0.9959,0.09053 -1.08643,-0.90535 -1.08643,-0.90535l-0.09238,-1.02719c-0.33362,-1.83491 -0.63245,-3.67035 -0.96709,-5.50827c0,0 -0.17889,-0.98387 0.80498,-1.16276c0.98387,-0.17889 1.16276,0.80498 1.16276,0.80498c0.33893,1.86686 0.64222,3.73256 0.98109,5.59635l0.10244,1.11581c0,0 0.09053,0.99589 -0.90536,1.08643z"/><path d="M410.24562,236.74745c-0.97015,0.24254 -1.21267,-0.72761 -1.21267,-0.72761l-0.21107,-0.8574c-0.33299,-1.99818 -0.78735,-3.97958 -0.79288,-6.00894c0,0 0,-1 1,-1c1,0 1,1 1,1c-0.00599,1.9119 0.45179,3.79712 0.76567,5.68014l0.17857,0.70113c0,0 0.24253,0.97015 -0.72761,1.21268z"/><path d="M415.78858,232.58884c-0.62331,0.05594 -1.57614,0.25437 -1.12466,0.83057c0.1755,0.22399 3.51436,0.70397 1.83903,-0.3572c-0.24132,-0.15285 -0.47697,-0.31445 -0.71436,-0.47337zM417.39522,231.25175c0.63549,0.42682 1.42291,1.00787 1.53832,1.46508c0.72925,2.88899 -2.71296,3.44683 -4.59159,2.63834c-2.85485,-1.22862 -1.57208,-3.6474 0.45655,-4.48316c0.45836,-0.79412 1.30152,-0.37254 1.30152,-0.37254l0.1572,0.08057c0.11331,0.00139 0.22656,0.00869 0.33926,0.02229c0,0 0.62905,0.10484 0.79874,0.64942z"/><path d="M420.88699,234.80321c0,-0.55229 0.44772,-1 1,-1c0.55228,0 1,0.44771 1,1c0,0.55229 -0.44772,1 -1,1c-0.55228,0 -1,-0.44771 -1,-1z"/></g></g></g></g></svg>