<svg version="1.1" xmlns="http://www.w3.org/2000/svg" xmlns:xlink="http://www.w3.org/1999/xlink" width="37.14594" height="52.03214" viewBox="0,0,37.14594,52.03214"><g transform="translate(-348.59939,-185.34311)"><g data-paper-data="{&quot;isPaintingLayer&quot;:true}" fill-rule="nonzero" stroke="none" stroke-width="0.5" stroke-linecap="butt" stroke-linejoin="miter" stroke-miterlimit="10" stroke-dasharray="" stroke-dashoffset="0" style="mix-blend-mode: normal"><path d="M374.13808,189.14026c0,1.25 -1.25,1.25 -1.25,1.25l-0.29143,-0.01453c-3.53975,-0.54711 -10.98397,-0.71782 -11.02699,4.64331c-0.00621,0.77483 0.63843,1.42688 0.78659,2.18745c0.25443,1.30608 0.01984,2.97451 -0.08076,4.29398c0,0 -0.09587,1.24632 -1.34219,1.15045c-0.10321,-0.00794 -0.19723,-0.02377 -0.28285,-0.04613c-2.50522,3.92172 -1.84668,7.60175 -2.0211,12.02435c-0.13896,3.52344 -0.65163,6.64396 0.15692,10.15472c0.54719,1.63528 1.3755,3.30031 1.65231,5.00352c0.27932,1.71861 -0.10926,3.11349 0.77573,4.66958l0.2933,0.22147c0,0 0.88389,0.88388 0,1.76777c-0.88389,0.88388 -1.76777,0 -1.76777,0l-0.72028,-0.79211c-1.00975,-1.90806 -0.73003,-3.43222 -1.04871,-5.46625c-0.24906,-1.58963 -1.08353,-3.19864 -1.59115,-4.72686c-0.87572,-3.78824 -0.39058,-7.12644 -0.24851,-10.92778c0.13079,-3.49954 -0.0971,-6.54314 0.76274,-9.58697c-5.09625,1.4253 -8.98075,-3.10193 -7.08508,-8.8021l0.50469,-0.69132c0,0 0.88388,-0.88388 1.76776,0c0.81655,0.81654 0.12442,1.63309 0.01422,1.75277c-1.21018,4.12106 1.67609,7.29162 5.82995,4.56347c0,0 0.16622,-0.10579 0.40868,-0.16736c0.07135,-0.1202 0.14513,-0.24065 0.22141,-0.36138c0,0 0.47431,-0.74535 1.25204,-0.58407c-0.00214,-2.03399 -0.72949,-3.65472 -0.73795,-5.6372c-0.03073,-7.19412 8.75841,-7.90292 13.90713,-7.11424l-0.08871,-0.01453c0,0 1.25,0 1.25,1.25z" fill-opacity="0.50196" fill="#000000"/><path d="M360.11947,226.60782c0.13857,0.01843 0.22576,0.04242 0.22576,0.04242l1.27519,0.3515c3.18141,0.79257 6.52632,0.91816 9.7134,1.70447c1.13151,0.34174 3.55626,0.93946 4.11374,1.8573c0.7934,1.30629 -0.94429,4.14563 -2.05406,5.05218c-3.8958,3.18241 -12.71274,1.79316 -15.16587,-2.12548c-1.07638,-1.71942 -0.60813,-4.03068 -0.60813,-5.89607c0,0 0,-1.25 1.51419,-1.25c0.44815,0 0.76367,0.1095 0.98581,0.26368z" fill="#500b79"/><path d="M353.90082,196.07636c2.77845,-0.5016 6.74498,0.86163 7.06381,3.45619c0.08559,0.69653 -0.45199,1.3336 -0.76767,1.96036c-2.34735,4.66047 -10.79924,2.83392 -9.93246,-2.54523c0.20959,-1.30068 1.23069,-1.99645 2.1003,-2.7732c0,0 0.77662,-0.67955 1.53602,-0.09812z" fill="#e5dcaa"/><path d="M356.05029,227.17829c-1.13278,-1.40639 -1.40469,-3.05053 -1.42116,-4.82402c0,-2.08829 -0.36003,-5.59283 0.70904,-7.43707c-0.06199,-2.44234 0.47385,-4.92508 0.41301,-7.32219c0,-2.28223 0.48796,-4.44822 1.76796,-6.46761c2.45299,-1.05791 4.25135,-1.76691 7.21774,-1.76691c2.85104,0 5.93932,0.0845 8.60203,0.85007c2.62437,0.02059 4.89634,1.13672 6.64047,2.64112c1.09972,2.11161 1.17676,4.33513 1.17676,6.79994c0,2.62997 0.14026,5.3241 0.14026,7.98451c0,2.68974 -0.18828,5.46381 -0.14026,8.10549c0,2.28447 -0.69111,4.32443 -2.57931,5.9531c-1.02288,1.63571 -5.54339,2.3732 -7.45477,1.54886c-2.00506,0 -5.5239,-1.52383 -7.33763,-2.31091c-2.45231,-0.70103 -4.90495,-1.40316 -7.10682,-2.35277c-0.24858,-0.42883 -0.44524,-0.90856 -0.62732,-1.40163z" fill="#a818ff"/><path d="M359.59591,201.26629c0,-0.02461 0.00267,-0.04679 0.0075,-0.06679c-0.0075,-0.0316 -0.0075,-0.05418 -0.0075,-0.05418c0,-1.87524 0.44342,-4.36972 1.36632,-6.0397c0.99572,-1.80173 2.28347,-3.32696 4.26875,-4.22504c2.34358,-1.06016 4.99941,-1.23617 7.61161,-1.23617c2.57707,0.03709 4.38711,1.70289 5.47017,3.66268c0.73276,2.0287 0.76666,5.23991 0.01746,7.27339c0.03443,3.11538 -1.5473,4.12509 -4.80892,2.72409c-1.84831,-0.84132 -4.98639,-1.52363 -7.02681,-1.553c-1.58288,-0.71605 -4.45477,-0.23527 -6.22112,-0.23527h-0.40114c0,0 -0.27632,0 -0.27632,-0.25z" fill="#e5dcaa"/><path d="M378.27274,215.77183c0.39529,1.18586 -0.79057,1.58114 -0.79057,1.58114l-0.95442,0.28289c-2.03477,2.17696 -2.26998,4.80985 0.41937,6.49756c0,0 1.05457,0.67109 0.38348,1.72567c-0.67109,1.05457 -1.72567,0.38349 -1.72567,0.38349c-4.3406,-2.79352 -3.82029,-7.4334 -0.3915,-10.73334l1.47818,-0.52797c0,0 1.18586,-0.39529 1.58114,0.79057z" fill-opacity="0.50196" fill="#000000"/><path d="M377.32464,190.25158c0.04281,0.0265 0.08415,0.05594 0.12383,0.0887c1.73616,1.4334 2.93812,6.94829 1.30832,9.10242c-0.06324,0.35719 -0.2657,0.61749 -0.2657,0.61749c-1.04992,1.25368 -1.31611,2.11348 -3.36451,1.91816c-1.88655,-0.17988 -3.5833,-2.31642 -5.74881,-2.16545c-0.94807,0.0661 -1.56909,1.32277 -2.51939,1.33475c-0.65937,0.00831 -5.53493,-1.72516 -5.9281,-2.15284c-0.3557,-0.38692 -0.04385,-1.07802 -0.26667,-1.55402c-0.2489,-0.53172 -1.15947,-0.7884 -1.10341,-1.37282c0.05453,-0.56852 0.77869,-1.37868 1.48288,-2.19272c0.42717,-1.5341 1.54189,-2.97475 2.79083,-3.66088c1.44635,-0.79459 3.00834,-1.12039 4.52383,-1.04511c1.34116,-0.36373 3.76392,-0.78064 4.90737,-0.7635c0.63642,-0.12885 1.25547,-0.14126 1.74399,-0.00776c1.05852,0.28927 1.81874,0.97299 2.31553,1.85358z" fill="#f2f2f2"/><path d="M369.25188,185.59311c0,-0.13807 0.11193,-0.25 0.25,-0.25c0.13807,0 0.25,0.11193 0.25,0.25c0,0.13807 -0.11193,0.25 -0.25,0.25c-0.13807,0 -0.25,-0.11193 -0.25,-0.25z" fill="#000000"/><path d="M369.93372,185.64557c0,-0.13807 0.11193,-0.25 0.25,-0.25c0.13807,0 0.25,0.11193 0.25,0.25c0,0.13807 -0.11193,0.25 -0.25,0.25c-0.13807,0 -0.25,-0.11193 -0.25,-0.25z" fill="#000000"/><path d="M370.93026,185.75049c0,-0.13807 0.11193,-0.25 0.25,-0.25c0.13807,0 0.25,0.11193 0.25,0.25c0,0.13807 -0.11193,0.25 -0.25,0.25c-0.13807,0 -0.25,-0.11193 -0.25,-0.25z" fill="#000000"/><path d="M384.18793,218.60528c0.34249,0.2303 0.64757,0.46719 0.90047,0.69829c0.43899,1.36435 0.88246,2.12629 0.52827,3.62504c-1.07337,4.54201 -7.05175,4.76561 -9.58536,1.44486c-2.34005,-3.06706 -0.96981,-7.35274 2.87957,-8.27162c1.56066,-0.37254 3.20791,0.22312 4.62271,0.78183c0,0 1.1606,0.46424 0.69636,1.62483c-0.01344,0.0336 -0.02747,0.06584 -0.04203,0.09677z" fill="#e5dcaa"/><path d="M353.94598,203.96554c-0.3434,1.20191 -1.5453,0.85851 -1.5453,0.85851l-1.65015,-0.58258c-3.81781,-3.26507 -2.12171,-7.1674 1.71432,-9.37596c0,0 1.0853,-0.62018 1.70548,0.46513c0.62018,1.08531 -0.46513,1.70548 -0.46513,1.70548c-2.29203,1.29818 -3.87685,3.25796 -1.35421,5.2848l0.73649,0.09932c0,0 1.2019,0.3434 0.8585,1.54531z" fill-opacity="0.50196" fill="#fa9600"/><path d="M378.23988,225.31992c-0.55901,1.11803 -1.67705,0.55902 -1.67705,0.55902l-0.7422,-0.48828c-1.09765,-1.31886 -2.22201,-2.47489 -2.33314,-4.30484c-0.24106,-3.96927 3.73699,-5.73725 7.04384,-5.75767c0,0 1.25,0 1.25,1.25c0,1.25 -1.25,1.25 -1.25,1.25c-4.37577,-0.03384 -5.38595,2.85135 -2.79015,5.96204l-0.06031,-0.14733c0,0 1.11803,0.55902 0.55901,1.67705z" fill-opacity="0.50196" fill="#fa9600"/><path d="M369.88469,189.32726c0.2055,1.23299 -1.02749,1.43849 -1.02749,1.43849l-0.51457,0.08173c-0.86383,0.21503 -1.73866,0.38943 -2.61846,0.5251c-0.60391,0.13909 -1.65905,0.34434 -2.24954,0.61539c-3.0781,1.41292 -0.90911,5.05492 -1.684,7.48612c-0.57886,1.81614 -2.04853,1.77891 -2.89194,3.16482c-1.81976,2.99027 -1.41968,7.8762 -2.18268,11.21122c-0.89276,5.82865 0.09629,9.19175 1.89537,14.67007c0.93886,2.8589 0.20298,4.24185 3.15036,5.71086c0,0 1.11803,0.55902 0.55902,1.67705c-0.55902,1.11803 -1.67705,0.55902 -1.67705,0.55902c-3.6915,-1.8511 -3.23368,-3.71087 -4.40066,-7.14629c-1.98308,-5.83792 -2.94367,-9.71811 -1.98218,-15.94218c0.85442,-3.6686 0.45512,-8.76406 2.5112,-12.05408c0.548,-0.87689 2.37778,-1.52836 2.61827,-2.54946c0.83024,-3.52514 -1.33462,-6.9123 3.00987,-9.04449c0.78513,-0.38533 2.01,-0.61843 2.8525,-0.81318c0.83439,-0.12806 1.66485,-0.28967 2.48359,-0.49531l0.70992,-0.12236c0,0 1.23299,-0.2055 1.43849,1.02749z" fill-opacity="0.50196" fill="#fa9600"/></g></g></svg>