<svg version="1.1" xmlns="http://www.w3.org/2000/svg" xmlns:xlink="http://www.w3.org/1999/xlink" width="60.57521" height="10.64447" viewBox="0,0,60.57521,10.64447"><g transform="translate(-255.46264,-153.01335)"><g data-paper-data="{&quot;isPaintingLayer&quot;:true}" fill-rule="nonzero" stroke="none" stroke-width="0.5" stroke-linecap="butt" stroke-linejoin="miter" stroke-miterlimit="10" stroke-dasharray="" stroke-dashoffset="0" style="mix-blend-mode: normal"><g><g fill="#ff4040"><path d="M257.28018,160.77087c0.70711,-0.70711 1.41422,0 1.41422,0l0.11915,0.39293c2.70237,0.43515 1.86494,-2.13727 1.60755,-4.32694c-0.60746,0.03795 -1.22094,0.0785 -1.84388,0.079h-0.67419c0,0 -1,0 -1,-1c0,-1 1,-1 1,-1h0.67419c2.38529,0.00213 4.51173,-0.41436 6.82547,0.39535c0,0 0.94175,0.33634 0.60541,1.27808c-0.33634,0.94174 -1.27808,0.6054 -1.27808,0.6054c-0.78487,-0.28732 -1.56585,-0.39453 -2.35075,-0.41781c0.14729,3.33515 0.88659,7.06787 -3.86983,6.36365l-1.22924,-0.95546c0,0 -0.70711,-0.70711 0,-1.41421z"/><path d="M269.05307,158.39242c0.89443,0.44721 0.44722,1.34164 0.44722,1.34164l-0.00856,-0.03613c-0.96138,3.78691 -4.2156,4.15245 -5.22699,0.16855c0,0 -0.24253,-0.97014 0.72761,-1.21268c0.97015,-0.24254 1.21267,0.72761 1.21267,0.72761c0.50189,2.04515 0.88451,1.71372 1.34642,-0.16855l0.15999,-0.37322c0,0 0.44721,-0.89443 1.34164,-0.44721z"/><path d="M269.96554,161.56225c0,-1 1,-1 1,-1l0.33587,0.00346c0.60406,0.05088 1.52481,0.25701 2.13329,0.08359c0.32103,-0.0915 -0.67785,-0.33672 -0.75107,-0.66241c-0.15851,-0.70509 -0.34956,-1.6022 0.10305,-2.16562c0.37849,-0.47117 1.20096,-0.13678 1.80144,-0.20517c0,0 0.99655,0.08305 0.9135,1.0796c-0.04208,0.50494 -0.31869,0.73271 -0.58136,0.83455c0.4323,0.35056 0.84894,1.14506 0.14954,2.27077c-0.7738,1.24546 -2.79224,0.85202 -3.93448,0.75778l-0.16978,0.00346c0,0 -1,0 -1,-1z"/><path d="M275.78545,157.75468c0.05766,-0.57658 0.41602,-0.78565 0.70722,-0.85952c0.01335,-0.24826 0.03042,-0.49106 0.04973,-0.72523c0,0 0.08304,-0.99654 1.07959,-0.9135c0.99655,0.08304 0.9135,1.07959 0.9135,1.07959c-0.01556,0.18481 -0.03627,0.3879 -0.05826,0.60244c0.8109,0 1.6218,0 2.4327,0c0,0 1,0 1,1c0,1 -1,1 -1,1c-0.85424,0 -1.70846,0 -2.5627,0c0.01902,1.31819 0.38563,2.33519 1.89607,1.62916l0.73687,-0.27878c0,0 0.93633,-0.35112 1.28746,0.58521c0.35113,0.93633 -0.58521,1.28745 -0.58521,1.28745l-0.61152,0.22686c-3.47438,1.54539 -4.43737,-0.88413 -4.58652,-3.58257c-0.28452,-0.0875 -0.76988,-0.34173 -0.69894,-1.0511z"/><path d="M289.3843,158.96663c-1.7438,0.9781 0.55367,2.82881 1.16078,2.10025c0.05154,-0.06186 -0.86723,-2.06397 -0.89229,-2.138l0.01282,0.28844c0,0 -0.14596,-0.08758 -0.28132,-0.25069zM290.29537,157.36363c0.23154,0.03809 0.39922,0.1387 0.39922,0.1387l0.85556,0.79409c0.24495,0.74861 0.87744,1.37523 0.96191,2.15834c0.59251,5.49302 -9.54481,1.17069 -4.72852,-2.9584c0.34797,-0.29832 0.83564,-0.37685 1.25347,-0.56527c0,0 0.84975,-0.35406 1.25836,0.43254z"/><path d="M297.42771,163.32072c-1,0 -1,-1 -1,-1l0.00345,-0.84397c-0.24814,-2.97767 -0.56028,-1.21259 -0.70318,0.66784c0,0 -0.0767,0.99705 -1.07376,0.92036c-0.99705,-0.0767 -0.92036,-1.07375 -0.92036,-1.07375c0.08164,-1.04954 0.06345,-3.07929 1.01904,-3.79949c2.70763,-2.04066 3.52074,1.31182 3.67134,3.11895l0.00346,1.01006c0,0 0,1 -1,1z"/><path d="M301.99319,161.18136c0.36795,0.40222 1.61183,0.00217 1.93394,-0.08361c0,0 0.97015,-0.24254 1.21268,0.7276c0.24253,0.97015 -0.72761,1.21268 -0.72761,1.21268c-2.93151,0.69828 -6.39991,-1.80911 -4.20655,-5.04306c0.97208,-1.43327 4.00743,-1.86812 4.36765,0.50427c0.22064,1.45313 -1.07535,1.91339 -1.94736,2.42397z"/><path d="M307.80476,162.32072c0,-0.55229 0.44772,-1 1,-1c0.55228,0 1,0.44771 1,1c0,0.55229 -0.44772,1 -1,1c-0.55228,0 -1,-0.44771 -1,-1z"/><path d="M306.19225,158.26426c-1,0 -1,-1 -1,-1l0.05132,-0.65332c0.90609,-2.19552 2.55823,-2.37369 4.71839,-1.64433c1.35369,0.45706 3.44682,1.56911 2.6072,3.49393c-0.4749,1.08868 -2.26849,1.01978 -3.10666,1.64555c0,0 -0.81923,0.57346 -1.3927,-0.24577c-0.57346,-0.81923 0.24577,-1.3927 0.24577,-1.3927c1.04697,-0.70245 1.36359,-0.56037 2.45544,-0.88269c0.51409,-0.15176 -0.92853,-0.55308 -1.43797,-0.71979c-0.908,-0.29712 -2.01986,-0.74054 -2.19211,0.37824l0.05131,0.02087c0,0 0,1 -1,1z"/><path d="M314.25502,161.0259c-0.98058,-0.19611 -0.78447,-1.1767 -0.78447,-1.1767l0.06831,-0.3083c0.0961,-1.14524 0.26998,-2.224 0.5278,-3.34424c0,0 0.22486,-0.97439 1.19925,-0.74953c0.97439,0.22486 0.74953,1.19925 0.74953,1.19925c-0.23792,1.02802 -0.39655,2.00942 -0.48349,3.06061l-0.10024,0.53445c0,0 -0.19612,0.98058 -1.1767,0.78446z"/><path d="M313.11404,162.65782c0,-0.55229 0.44772,-1 1,-1c0.55228,0 1,0.44771 1,1c0,0.55229 -0.44772,1 -1,1c-0.55228,0 -1,-0.44771 -1,-1z"/></g><g fill="#ffffff"><path d="M255.83981,159.20337c0.7071,-0.70711 1.41421,0 1.41421,0l0.11915,0.39293c2.70237,0.43515 1.86494,-2.13727 1.60755,-4.32694c-0.60746,0.03795 -1.22094,0.0785 -1.84388,0.07901h-0.67419c0,0 -1,0 -1,-1c0,-1 1,-1 1,-1h0.67419c2.38529,0.00213 4.51173,-0.41436 6.82547,0.39535c0,0 0.94175,0.33634 0.60541,1.27808c-0.33634,0.94174 -1.27808,0.6054 -1.27808,0.6054c-0.78487,-0.28732 -1.56585,-0.39453 -2.35075,-0.41781c0.14729,3.33515 0.88659,7.06787 -3.86982,6.36365l-1.22925,-0.95546c0,0 -0.70711,-0.70711 0,-1.41422z"/><path d="M267.61269,156.82491c0.89443,0.44721 0.44722,1.34164 0.44722,1.34164l-0.00856,-0.03613c-0.96138,3.78691 -4.2156,4.15245 -5.22699,0.16855c0,0 -0.24254,-0.97014 0.72761,-1.21267c0.97015,-0.24254 1.21267,0.7276 1.21267,0.7276c0.50189,2.04515 0.88451,1.71372 1.34642,-0.16855l0.15999,-0.37323c0,0 0.44721,-0.89443 1.34164,-0.44721z"/><path d="M268.52518,159.99475c0,-1 1,-1 1,-1l0.33587,0.00346c0.60406,0.05088 1.5248,0.25701 2.13328,0.08359c0.32103,-0.0915 -0.67785,-0.33673 -0.75107,-0.66242c-0.15851,-0.70509 -0.34956,-1.6022 0.10305,-2.16562c0.37849,-0.47117 1.20096,-0.13678 1.80145,-0.20516c0,0 0.99655,0.08305 0.9135,1.07959c-0.04208,0.50494 -0.31869,0.73271 -0.58136,0.83456c0.4323,0.35056 0.84894,1.14505 0.14954,2.27076c-0.7738,1.24546 -2.79224,0.85202 -3.93448,0.75778l-0.16977,0.00346c0,0 -1,0 -1,-1z"/><path d="M274.34506,156.18717c0.05766,-0.57658 0.41602,-0.78565 0.70722,-0.85952c0.01335,-0.24826 0.03042,-0.49106 0.04973,-0.72523c0,0 0.08304,-0.99654 1.07959,-0.9135c0.99655,0.08304 0.9135,1.07959 0.9135,1.07959c-0.01556,0.18481 -0.03626,0.3879 -0.05826,0.60244c0.8109,0 1.6218,0 2.43269,0c0,0 1,0 1,1c0,1 -1,1 -1,1c-0.85424,0 -1.70846,0 -2.5627,0c0.01902,1.31819 0.38563,2.33518 1.89607,1.62916l0.73687,-0.27878c0,0 0.93633,-0.35112 1.28746,0.58521c0.35113,0.93633 -0.58521,1.28745 -0.58521,1.28745l-0.61152,0.22686c-3.47438,1.54539 -4.43737,-0.88414 -4.58652,-3.58257c-0.28452,-0.0875 -0.76988,-0.34173 -0.69894,-1.0511z"/><path d="M287.94392,157.39912c-1.7438,0.9781 0.55367,2.82881 1.16078,2.10025c0.05154,-0.06186 -0.86723,-2.06397 -0.89228,-2.138l0.01281,0.28844c0,0 -0.14596,-0.08757 -0.28132,-0.25069zM288.85501,155.79613c0.23154,0.03809 0.39922,0.13869 0.39922,0.13869l0.85556,0.79409c0.24495,0.74861 0.87744,1.37523 0.96191,2.15834c0.59251,5.49302 -9.54481,1.17069 -4.72852,-2.9584c0.34797,-0.29832 0.83564,-0.37684 1.25347,-0.56526c0,0 0.84976,-0.35406 1.25836,0.43254z"/><path d="M295.98733,161.75322c-1,0 -1,-1 -1,-1l0.00345,-0.84397c-0.24814,-2.97767 -0.56028,-1.21259 -0.70318,0.66784c0,0 -0.0767,0.99705 -1.07376,0.92036c-0.99705,-0.0767 -0.92035,-1.07375 -0.92035,-1.07375c0.08164,-1.04954 0.06345,-3.0793 1.01904,-3.7995c2.70763,-2.04066 3.52075,1.31182 3.67134,3.11895l0.00345,1.01006c0,0 0,1 -1,1z"/><path d="M300.5528,159.61386c0.36795,0.40222 1.61183,0.00217 1.93394,-0.08361c0,0 0.97015,-0.24254 1.21268,0.72761c0.24253,0.97015 -0.72761,1.21268 -0.72761,1.21268c-2.93151,0.69828 -6.39991,-1.80911 -4.20655,-5.04306c0.97208,-1.43327 4.00742,-1.86812 4.36764,0.50427c0.22064,1.45313 -1.07535,1.91339 -1.94736,2.42397z"/><path d="M306.36438,160.75322c0,-0.55229 0.44772,-1 1,-1c0.55228,0 1,0.44771 1,1c0,0.55229 -0.44772,1 -1,1c-0.55228,0 -1,-0.44771 -1,-1z"/><path d="M304.75187,156.69675c-1,0 -1,-1 -1,-1l0.05132,-0.65332c0.90609,-2.19552 2.55823,-2.37369 4.71839,-1.64434c1.35369,0.45706 3.44682,1.56912 2.6072,3.49393c-0.4749,1.08868 -2.26849,1.01978 -3.10666,1.64555c0,0 -0.81923,0.57346 -1.3927,-0.24577c-0.57346,-0.81923 0.24577,-1.3927 0.24577,-1.3927c1.04697,-0.70245 1.36359,-0.56037 2.45544,-0.88269c0.51409,-0.15176 -0.92853,-0.55308 -1.43797,-0.71978c-0.908,-0.29712 -2.01986,-0.74054 -2.19211,0.37824l0.05132,0.02087c0,0 0,1 -1,1z"/><path d="M312.81465,159.45839c-0.98058,-0.19611 -0.78447,-1.1767 -0.78447,-1.1767l0.06831,-0.3083c0.0961,-1.14524 0.26998,-2.22399 0.5278,-3.34424c0,0 0.22486,-0.9744 1.19925,-0.74954c0.97439,0.22486 0.74953,1.19925 0.74953,1.19925c-0.23792,1.02802 -0.39655,2.00942 -0.48349,3.06061l-0.10024,0.53445c0,0 -0.19612,0.98058 -1.1767,0.78447z"/><path d="M311.67366,161.09032c0,-0.55229 0.44772,-1 1,-1c0.55228,0 1,0.44771 1,1c0,0.55229 -0.44772,1 -1,1c-0.55228,0 -1,-0.44771 -1,-1z"/></g></g></g></g></svg>