<svg version="1.1" xmlns="http://www.w3.org/2000/svg" xmlns:xlink="http://www.w3.org/1999/xlink" width="508.625" height="313" viewBox="0,0,508.625,313"><g transform="translate(31.78592,36.38864)"><g data-paper-data="{&quot;isPaintingLayer&quot;:true}" fill-rule="nonzero" stroke="none" stroke-linecap="butt" stroke-linejoin="miter" stroke-miterlimit="10" stroke-dasharray="" stroke-dashoffset="0" style="mix-blend-mode: normal"><g><path d="M476.83909,276.61136h-39.125v-39.125z" fill="#bebebe" stroke-width="1"/><g><g fill="#bebebe" stroke-width="0.71932"><path d="M437.71409,237.48637v39.125h-39.125v-39.125z"/></g><g fill="#a7a7a7" stroke-width="1"><path d="M398.58909,276.61136v-39.125h39.125z"/></g></g><g><g fill="#bebebe" stroke-width="0.71932"><path d="M398.58909,237.48637v39.125h-39.125v-39.125z"/></g><g fill="#a7a7a7" stroke-width="1"><path d="M359.46409,276.61136v-39.125h39.125z"/></g></g><g><g fill="#bebebe" stroke-width="0.71932"><path d="M359.46409,237.48637v39.125h-39.125v-39.125z"/></g><g fill="#a7a7a7" stroke-width="1"><path d="M320.33909,276.61136v-39.125h39.125z"/></g></g><g><g fill="#bebebe" stroke-width="0.71932"><path d="M320.33909,237.48637v39.125h-39.125v-39.125z"/></g><g fill="#a7a7a7" stroke-width="1"><path d="M281.21409,276.61136v-39.125h39.125z"/></g></g><g><g fill="#bebebe" stroke-width="0.71932"><path d="M281.21409,237.48637v39.125h-39.125v-39.125z"/></g><g fill="#a7a7a7" stroke-width="1"><path d="M242.08909,276.61136v-39.125h39.125z"/></g></g><g><g fill="#bebebe" stroke-width="0.71932"><path d="M242.08909,237.48637v39.125h-39.125v-39.125z"/></g><g fill="#a7a7a7" stroke-width="1"><path d="M202.96409,276.61136v-39.125h39.125z"/></g></g><g><g fill="#bebebe" stroke-width="0.71932"><path d="M202.96409,237.48637v39.125h-39.125v-39.125z"/></g><g fill="#a7a7a7" stroke-width="1"><path d="M163.83909,276.61136v-39.125h39.125z"/></g></g><g><g fill="#bebebe" stroke-width="0.71932"><path d="M163.83909,237.48637v39.125h-39.125v-39.125z"/></g><g fill="#a7a7a7" stroke-width="1"><path d="M124.71409,276.61136v-39.125h39.125z"/></g></g><g><g fill="#bebebe" stroke-width="0.71932"><path d="M124.71409,237.48637v39.125h-39.125v-39.125z"/></g><g fill="#a7a7a7" stroke-width="1"><path d="M85.58909,276.61136v-39.125h39.125z"/></g></g><g><g fill="#bebebe" stroke-width="0.71932"><path d="M437.71409,120.11137v39.125h-39.125v-39.125z"/></g><g fill="#a7a7a7" stroke-width="1"><path d="M398.58909,159.23637v-39.125h39.125z"/></g></g><path d="M476.83909,159.23637h-39.125v-39.125z" fill="#bebebe" stroke-width="1"/><path d="M437.71409,120.11137h-39.125v-39.125z" fill="#bebebe" stroke-width="1"/><path d="M398.58909,80.98637h-39.125v-39.125z" fill="#bebebe" stroke-width="1"/><g><g fill="#bebebe" stroke-width="0.71932"><path d="M398.58909,80.98637v39.125h-39.125v-39.125z"/></g><g fill="#a7a7a7" stroke-width="1"><path d="M359.46409,120.11137v-39.125h39.125z"/></g></g><g><g fill="#bebebe" stroke-width="0.71932"><path d="M359.46409,41.86137v39.125h-39.125v-39.125z"/></g><g fill="#a7a7a7" stroke-width="1"><path d="M320.33909,80.98637v-39.125h39.125z"/></g></g><g><g fill="#bebebe" stroke-width="0.71932"><path d="M320.33909,41.86137v39.125h-39.125v-39.125z"/></g><g fill="#a7a7a7" stroke-width="1"><path d="M281.21409,80.98637v-39.125h39.125z"/></g></g><g><g fill="#bebebe" stroke-width="0.71932"><path d="M281.21409,41.86137v39.125h-39.125v-39.125z"/></g><g fill="#a7a7a7" stroke-width="1"><path d="M242.08909,80.98637v-39.125h39.125z"/></g></g><g><g fill="#bebebe" stroke-width="0.71932"><path d="M242.08909,41.86137v39.125h-39.125v-39.125z"/></g><g fill="#a7a7a7" stroke-width="1"><path d="M202.96409,80.98637v-39.125h39.125z"/></g></g><g><g fill="#bebebe" stroke-width="0.71932"><path d="M202.96409,41.86137v39.125h-39.125v-39.125z"/></g><g fill="#a7a7a7" stroke-width="1"><path d="M163.83909,80.98637v-39.125h39.125z"/></g></g><g><g fill="#bebebe" stroke-width="0.71932"><path d="M163.83909,41.86137v39.125h-39.125v-39.125z"/></g><g fill="#a7a7a7" stroke-width="1"><path d="M124.71409,80.98637v-39.125h39.125z"/></g></g><g><g fill="#bebebe" stroke-width="0.71932"><path d="M124.71409,41.86137v39.125h-39.125v-39.125z"/></g><g fill="#a7a7a7" stroke-width="1"><path d="M85.58909,80.98637v-39.125h39.125z"/></g></g><path d="M85.58909,41.86137v39.125h-39.125z" fill="#bebebe" stroke-width="1"/><g><g fill="#bebebe" stroke-width="0.71932"><path d="M85.58909,80.98637v39.125h-39.125v-39.125z"/></g><g fill="#a7a7a7" stroke-width="1"><path d="M46.46409,120.11137v-39.125h39.125z"/></g></g><path d="M46.46409,80.98637v39.125h-39.125z" fill="#bebebe" stroke-width="1"/><g><g fill="#bebebe" stroke-width="0.71932"><path d="M46.46409,120.11137v39.125h-39.125v-39.125z"/></g><g fill="#a7a7a7" stroke-width="1"><path d="M7.33909,159.23637v-39.125h39.125z"/></g></g><path d="M7.33909,120.11137v39.125h-39.125z" fill="#bebebe" stroke-width="1"/><g><g fill="#bebebe" stroke-width="0.71932"><path d="M85.58909,237.48637v39.125h-39.125v-39.125z"/></g><g fill="#a7a7a7" stroke-width="1"><path d="M46.46409,276.61136v-39.125h39.125z"/></g></g><g><g fill="#bebebe" stroke-width="0.71932"><path d="M46.46409,237.48637v39.125h-39.125v-39.125z"/></g><g fill="#a7a7a7" stroke-width="1"><path d="M7.33909,276.61136v-39.125h39.125z"/></g></g><g><g fill="#8d8d8d" stroke-width="0.71932"><path d="M281.21409,41.86137v-39.125h39.125v39.125z"/></g><g fill="#717171" stroke-width="1"><path d="M320.33909,41.86137h-39.125v-39.125z"/></g></g><path d="M320.33909,-36.38863v39.125h-39.125z" fill="#717171" stroke-width="1"/></g></g></g></svg>