<svg version="1.1" xmlns="http://www.w3.org/2000/svg" xmlns:xlink="http://www.w3.org/1999/xlink" width="55.81039" height="21.19441" viewBox="0,0,55.81039,21.19441"><g transform="translate(-79.02567,-250.51148)"><g data-paper-data="{&quot;isPaintingLayer&quot;:true}" fill-rule="nonzero" stroke="none" stroke-width="0.5" stroke-linecap="butt" stroke-linejoin="miter" stroke-miterlimit="10" stroke-dasharray="" stroke-dashoffset="0" style="mix-blend-mode: normal"><g><g fill="#ff4040"><path d="M93.75762,263.08826c-1,0 -1,-1 -1,-1l0.0222,-0.75711c-0.23423,-1.12833 -1.46293,-2.78906 -2.3929,-1.51616c0.08162,0.86621 0.13235,1.74268 0.13235,2.64505c0,0 0,1 -1,1c-1,0 -1,-1 -1,-1c0,-0.90357 -0.05335,-1.77863 -0.13837,-2.6432c-0.01869,-0.07801 -0.02513,-0.15485 -0.02319,-0.22829c-0.16168,-1.54277 -0.41845,-3.05706 -0.64631,-4.64586l-0.01212,-0.05913c-0.07734,0.0111 -0.12711,0.0111 -0.12711,0.0111c-0.69225,-0.00085 -1.45443,-0.00561 -2.22912,0.01958l0.05406,0.46212c-0.00196,2.33329 0.31512,4.65081 0.31751,6.98514c0,0 0,1 -1,1c-1,0 -1,-1 -1,-1c0.0026,-2.3342 -0.31568,-4.65109 -0.31751,-6.98514l-0.042,-0.30939c-0.64449,0.08692 -1.26206,0.21699 -1.81683,0.41139l-0.5279,0.05131c0,0 -1,0 -1,-1c0,-1 1,-1 1,-1l-0.10456,0.05132c2.01571,-0.64715 4.53836,-0.68394 6.66636,-0.68633c0,0 0.66696,0 0.9115,0.54468c0.93487,-0.15117 1.12391,0.79402 1.12391,0.79402l0.08373,0.42648c0.14597,1.02611 0.30322,2.02443 0.44106,3.01916c1.95538,-0.81964 4.06453,0.78221 4.60308,3.23308l0.0222,1.17617c0,0 0,1 -1,1z"/><path d="M99.22567,260.47717c0.34624,0.05116 0.69185,0.0734 0.9979,0.09313c0,0 0.99746,0.07125 0.92621,1.06871c-0.07125,0.99746 -1.06871,0.92621 -1.06871,0.92621c-2.01952,-0.15556 -7.3796,-2.51188 -4.45259,-5.3946c1.93688,-1.90757 5.57909,1.02806 3.59718,3.30655zM96.95133,259.15081l0.24025,-0.04799c1.18692,0.03593 0.33039,-0.56298 -0.24855,-0.4249c-0.21876,0.05217 -0.16042,0.24582 0.0083,0.47289z"/><path d="M117.88349,261.06139c-0.51289,0.34193 -0.9204,0.15693 -1.15756,-0.0353c-2.21243,2.1328 -5.1835,-0.22417 -5.35576,-2.56189c-0.13995,0.68468 -0.32278,1.24953 -0.65331,1.83121l0.2054,0.1106l-0.51076,0.94855c-0.16579,0.32299 -0.50219,0.54399 -0.89021,0.54399c-0.41061,0 -0.76341,-0.24747 -0.9174,-0.6014l-0.04242,-0.09191c-0.28986,0.26925 -0.80593,0.42811 -1.61495,0.21011c-1.08014,-0.29105 -1.63695,-3.04481 -1.88625,-3.97699c0,0 -0.25766,-0.96623 0.70857,-1.2239c0.96623,-0.25766 1.2239,0.70857 1.2239,0.70857c0.08577,0.32261 0.56501,1.32173 0.62887,2.00008c0.2765,-0.46094 0.71996,-1.00062 1.0552,-0.95671c0.25197,0.033 0.43767,0.18737 0.59453,0.39454c0.10203,-0.63133 0.30914,-1.30435 0.37535,-1.76781l0.09416,-0.39854c0,0 0.24254,-0.97014 1.21268,-0.72761c0.97014,0.24254 0.72761,1.21268 0.72761,1.21268l-0.05455,0.19631c-0.0164,0.11481 -0.03236,0.22623 -0.04809,0.33455c0.23432,-0.52598 0.66952,-1.00279 1.35557,-1.36708c0.73596,-0.3908 1.99151,-0.0214 2.7453,0.13638c0,0 0.76324,0.16355 0.79658,0.87599c0.03588,-0.0039 0.07233,-0.0059 0.10924,-0.0059c0.53112,0 0.96553,0.41406 0.99805,0.93699l0.07377,1.03276l-0.00921,0.00066l0.00981,0.15692l-0.01201,0.00075l0.0086,0.01623c-0.01085,0.0335 -0.02102,0.06736 -0.03063,0.10151c0.18225,0.11375 0.33702,0.26196 0.43696,0.43644l0.10029,0.14247c0,0 0.5547,0.83205 -0.27735,1.38675zM115.26034,257.93543c-0.4727,-0.10416 -0.96414,-0.47612 -1.41869,-0.30976c-1.72206,0.63024 1.28189,3.78892 1.80593,1.2532l-0.05809,-0.92944c-0.18726,0.01641 -0.32915,-0.014 -0.32915,-0.014z"/><path d="M119.49385,261.59767c-0.99655,0.08305 -1.07959,-0.9135 -1.07959,-0.9135l-0.07781,-0.97533c0.00117,-2.29092 -0.29743,-4.54874 -0.29743,-6.84085c0,0 0,-1 1,-1c1,0 1,1 1,1c0,2.29152 0.29632,4.54921 0.29743,6.84085l0.0709,0.80924c0,0 0.08305,0.99655 -0.9135,1.07959z"/><path d="M123.21869,261.06702c-0.98639,0.1644 -1.15079,-0.82199 -1.15079,-0.82199l-0.1429,-0.86057c-0.45522,-2.2999 -0.3912,-4.6272 -0.3912,-6.96261c0,0 0,-1 1,-1c1,0 1,1 1,1c0,2.19771 -0.08524,4.40765 0.35237,6.57037l0.15453,0.924c0,0 0.1644,0.98639 -0.82199,1.15079z"/><path d="M125.99521,259.70884c0,-0.55228 0.44772,-1 1,-1c0.55228,0 1,0.44772 1,1c0,0.55228 -0.44772,1 -1,1c-0.55228,0 -1,-0.44772 -1,-1z"/><path d="M129.04385,259.56012c0,-0.55228 0.44772,-1 1,-1c0.55228,0 1,0.44772 1,1c0,0.55228 -0.44772,1 -1,1c-0.55228,0 -1,-0.44772 -1,-1z"/><path d="M132.83605,259.85755c0,-0.55228 0.44772,-1 1,-1c0.55228,0 1,0.44772 1,1c0,0.55228 -0.44772,1 -1,1c-0.55228,0 -1,-0.44772 -1,-1z"/><path d="M105.28474,264.53429c0.97439,0.22486 0.74953,1.19925 0.74953,1.19925l-0.20751,0.8832c-0.15804,1.10631 -0.22629,4.92427 -1.8258,5.08834c-0.35783,0.03671 -1.5463,-1.18938 -2.05398,-2.09601c-0.10456,0.19282 -0.22046,0.37327 -0.30992,0.49361c-0.68213,0.91752 -1.26981,1.99217 -2.84013,1.45797c-1.17746,-0.40056 -2.17432,-3.87303 -2.44032,-4.91716c0,0 -0.24254,-0.97014 0.72761,-1.21268c0.97014,-0.24254 1.21268,0.72761 1.21268,0.72761c0.30299,1.2401 0.89533,2.38456 1.27754,3.55954c0.09126,0.28056 0.26883,-0.52666 0.43158,-0.77274c0.35869,-0.54235 1.53747,-2.33684 2.14173,-2.27826c0.48406,0.04693 1.04294,0.55034 1.44203,1.13709c0.10262,-0.68465 0.23615,-1.32354 0.2571,-1.47016l0.23863,-1.05008c0,0 0.22486,-0.97439 1.19925,-0.74953z"/><path d="M112.73812,270.79154c-0.97014,0.24254 -1.21268,-0.72761 -1.21268,-0.72761l0.01531,-0.06586c-0.05919,-0.11571 -0.13317,-0.31729 -0.19696,-0.5218c-0.00317,0.00497 -0.00648,0.00985 -0.00993,0.01464c-0.83194,1.1526 -3.3851,1.85093 -4.47631,0.5673c-2.42175,-2.84881 2.37033,-4.78759 4.37062,-4.24123c0,0 0.95578,0.29409 0.66169,1.24986c-0.00438,0.01423 -0.0089,0.02818 -0.01357,0.04186c0.70326,0.40854 1.07913,1.32021 1.4254,1.94117l0.16403,0.52899c0,0 0.24254,0.97014 -0.72761,1.21268zM110.07238,267.56663c-0.48813,-0.07623 -0.77921,0.11052 -1.3311,0.58245c-0.17439,0.14912 -0.63926,0.46716 -0.42278,0.54322c0.99984,0.35134 1.33956,-0.48151 1.75389,-1.12567z"/><path d="M115.46258,270.81134c-0.98995,0.14142 -1.13137,-0.84853 -1.13137,-0.84853l-0.08219,-0.5954c-0.12821,-1.98388 -0.66833,-3.8622 -0.67143,-5.86637c0,0 0,-1 1,-1c1,0 1,1 1,1c-0.00335,1.95387 0.53421,3.79434 0.667,5.73333l0.06652,0.4456c0,0 0.14142,0.98995 -0.84853,1.13137z"/><path d="M119.12906,270.58472c-0.98639,0.1644 -1.15079,-0.82199 -1.15079,-0.82199l-0.08542,-0.53929c-0.13377,-1.88503 -0.35749,-3.67304 -0.22307,-5.57056c0,0 0.07125,-0.99746 1.06871,-0.92621c0.99746,0.07125 0.92621,1.06871 0.92621,1.06871c-0.12977,1.80086 0.09441,3.4953 0.22307,5.28557l0.06329,0.35299c0,0 0.1644,0.98639 -0.82199,1.15079z"/><path d="M121.08764,268.70604c0,-0.55228 0.44772,-1 1,-1c0.55228,0 1,0.44772 1,1c0,0.55228 -0.44772,1 -1,1c-0.55228,0 -1,-0.44772 -1,-1z"/><path d="M124.285,268.40861c0,-0.55228 0.44772,-1 1,-1c0.55228,0 1,0.44772 1,1c0,0.55228 -0.44772,1 -1,1c-0.55228,0 -1,-0.44772 -1,-1z"/><path d="M128.52335,268.18554c0,-0.55228 0.44772,-1 1,-1c0.55228,0 1,0.44772 1,1c0,0.55228 -0.44772,1 -1,1c-0.55228,0 -1,-0.44772 -1,-1z"/></g><g fill="#ffffff"><path d="M92.77291,262.17789c-1,0 -1,-1 -1,-1l0.0222,-0.75711c-0.23423,-1.12833 -1.46293,-2.78906 -2.3929,-1.51616c0.08162,0.86621 0.13235,1.74268 0.13235,2.64505c0,0 0,1 -1,1c-1,0 -1,-1 -1,-1c0,-0.90357 -0.05335,-1.77863 -0.13837,-2.6432c-0.01869,-0.07801 -0.02513,-0.15485 -0.02319,-0.22829c-0.16168,-1.54277 -0.41845,-3.05706 -0.64631,-4.64586l-0.01212,-0.05913c-0.07734,0.0111 -0.12711,0.0111 -0.12711,0.0111c-0.69225,-0.00085 -1.45443,-0.00561 -2.22912,0.01958l0.05406,0.46212c-0.00196,2.33329 0.31512,4.65081 0.31751,6.98514c0,0 0,1 -1,1c-1,0 -1,-1 -1,-1c0.0026,-2.3342 -0.31568,-4.65109 -0.31751,-6.98514l-0.042,-0.30939c-0.64449,0.08692 -1.26206,0.21699 -1.81683,0.41139l-0.5279,0.05131c0,0 -1,0 -1,-1c0,-1 1,-1 1,-1l-0.10456,0.05132c2.01571,-0.64715 4.53836,-0.68394 6.66636,-0.68633c0,0 0.66696,0 0.9115,0.54468c0.93487,-0.15117 1.12391,0.79402 1.12391,0.79402l0.08373,0.42648c0.14597,1.02611 0.30322,2.02443 0.44106,3.01916c1.95538,-0.81964 4.06453,0.78221 4.60308,3.23308l0.0222,1.17617c0,0 0,1 -1,1z"/><path d="M98.24094,259.5668c0.34624,0.05116 0.69185,0.0734 0.9979,0.09313c0,0 0.99746,0.07125 0.92621,1.06871c-0.07125,0.99746 -1.06871,0.92621 -1.06871,0.92621c-2.01952,-0.15556 -7.3796,-2.51188 -4.45259,-5.3946c1.93688,-1.90757 5.57909,1.02806 3.59718,3.30655zM95.96661,258.24044l0.24025,-0.04799c1.18692,0.03593 0.33039,-0.56298 -0.24855,-0.4249c-0.21876,0.05217 -0.16042,0.24582 0.0083,0.47289z"/><path d="M116.89877,260.15102c-0.51289,0.34193 -0.9204,0.15693 -1.15756,-0.0353c-2.21243,2.1328 -5.1835,-0.22417 -5.35576,-2.56189c-0.13995,0.68468 -0.32278,1.24953 -0.65331,1.83121l0.2054,0.1106l-0.51076,0.94855c-0.16579,0.32299 -0.50219,0.54399 -0.89021,0.54399c-0.41061,0 -0.76341,-0.24747 -0.9174,-0.6014l-0.04242,-0.09191c-0.28986,0.26925 -0.80593,0.42811 -1.61495,0.21011c-1.08014,-0.29105 -1.63695,-3.04481 -1.88625,-3.97699c0,0 -0.25766,-0.96623 0.70857,-1.2239c0.96623,-0.25766 1.2239,0.70857 1.2239,0.70857c0.08577,0.32261 0.56501,1.32173 0.62887,2.00008c0.2765,-0.46094 0.71996,-1.00062 1.0552,-0.95671c0.25197,0.033 0.43767,0.18737 0.59453,0.39454c0.10203,-0.63133 0.30914,-1.30435 0.37535,-1.76781l0.09416,-0.39854c0,0 0.24254,-0.97014 1.21268,-0.72761c0.97014,0.24254 0.72761,1.21268 0.72761,1.21268l-0.05455,0.19631c-0.0164,0.11481 -0.03236,0.22623 -0.04809,0.33455c0.23432,-0.52598 0.66952,-1.00279 1.35557,-1.36708c0.73596,-0.3908 1.99151,-0.0214 2.7453,0.13638c0,0 0.76324,0.16355 0.79658,0.87599c0.03588,-0.0039 0.07233,-0.0059 0.10924,-0.0059c0.53112,0 0.96553,0.41406 0.99805,0.93699l0.07377,1.03276l-0.00921,0.00066l0.00981,0.15692l-0.01201,0.00075l0.0086,0.01623c-0.01085,0.0335 -0.02102,0.06736 -0.03063,0.10151c0.18225,0.11375 0.33702,0.26196 0.43696,0.43644l0.10029,0.14247c0,0 0.5547,0.83205 -0.27735,1.38675zM114.27563,257.02506c-0.4727,-0.10416 -0.96414,-0.47612 -1.41869,-0.30976c-1.72206,0.63024 1.28189,3.78892 1.80593,1.2532l-0.05809,-0.92944c-0.18726,0.01641 -0.32915,-0.014 -0.32915,-0.014z"/><path d="M118.50912,260.6873c-0.99655,0.08305 -1.07959,-0.9135 -1.07959,-0.9135l-0.07781,-0.97533c0.00117,-2.29092 -0.29743,-4.54874 -0.29743,-6.84085c0,0 0,-1 1,-1c1,0 1,1 1,1c0,2.29152 0.29632,4.54921 0.29743,6.84085l0.0709,0.80924c0,0 0.08305,0.99655 -0.9135,1.07959z"/><path d="M122.23396,260.15665c-0.98639,0.1644 -1.15079,-0.82199 -1.15079,-0.82199l-0.1429,-0.86057c-0.45522,-2.2999 -0.3912,-4.6272 -0.3912,-6.96261c0,0 0,-1 1,-1c1,0 1,1 1,1c0,2.19771 -0.08524,4.40765 0.35237,6.57037l0.15453,0.924c0,0 0.1644,0.98639 -0.82199,1.15079z"/><path d="M125.0105,258.79847c0,-0.55228 0.44772,-1 1,-1c0.55228,0 1,0.44772 1,1c0,0.55228 -0.44772,1 -1,1c-0.55228,0 -1,-0.44772 -1,-1z"/><path d="M128.05914,258.64975c0,-0.55228 0.44772,-1 1,-1c0.55228,0 1,0.44772 1,1c0,0.55228 -0.44772,1 -1,1c-0.55228,0 -1,-0.44772 -1,-1z"/><path d="M131.85133,258.94718c0,-0.55228 0.44772,-1 1,-1c0.55228,0 1,0.44772 1,1c0,0.55228 -0.44772,1 -1,1c-0.55228,0 -1,-0.44772 -1,-1z"/><path d="M104.30003,263.62392c0.97439,0.22486 0.74953,1.19925 0.74953,1.19925l-0.20751,0.8832c-0.15804,1.10631 -0.22629,4.92427 -1.8258,5.08834c-0.35783,0.03671 -1.5463,-1.18938 -2.05398,-2.09601c-0.10456,0.19282 -0.22046,0.37327 -0.30992,0.49361c-0.68213,0.91752 -1.26981,1.99217 -2.84013,1.45797c-1.17746,-0.40056 -2.17432,-3.87303 -2.44032,-4.91716c0,0 -0.24254,-0.97014 0.72761,-1.21268c0.97014,-0.24254 1.21268,0.72761 1.21268,0.72761c0.30299,1.2401 0.89533,2.38456 1.27754,3.55954c0.09126,0.28056 0.26883,-0.52666 0.43158,-0.77274c0.35869,-0.54235 1.53747,-2.33684 2.14173,-2.27826c0.48406,0.04693 1.04294,0.55034 1.44203,1.13709c0.10262,-0.68465 0.23615,-1.32354 0.2571,-1.47016l0.23863,-1.05008c0,0 0.22486,-0.97439 1.19925,-0.74953z"/><path d="M111.7534,269.88117c-0.97014,0.24254 -1.21268,-0.72761 -1.21268,-0.72761l0.01531,-0.06586c-0.05919,-0.11571 -0.13317,-0.31729 -0.19696,-0.5218c-0.00317,0.00497 -0.00648,0.00985 -0.00993,0.01464c-0.83194,1.1526 -3.3851,1.85093 -4.47631,0.5673c-2.42175,-2.84881 2.37033,-4.78759 4.37062,-4.24123c0,0 0.95578,0.29409 0.66169,1.24986c-0.00438,0.01423 -0.0089,0.02818 -0.01357,0.04186c0.70326,0.40854 1.07913,1.32021 1.4254,1.94117l0.16403,0.52899c0,0 0.24254,0.97014 -0.72761,1.21268zM109.08765,266.65626c-0.48813,-0.07623 -0.77921,0.11052 -1.3311,0.58245c-0.17439,0.14912 -0.63926,0.46716 -0.42278,0.54322c0.99984,0.35134 1.33956,-0.48151 1.75389,-1.12567z"/><path d="M114.47787,269.90097c-0.98995,0.14142 -1.13137,-0.84853 -1.13137,-0.84853l-0.08219,-0.5954c-0.12821,-1.98388 -0.66833,-3.8622 -0.67143,-5.86637c0,0 0,-1 1,-1c1,0 1,1 1,1c-0.00335,1.95387 0.53421,3.79434 0.667,5.73333l0.06652,0.4456c0,0 0.14142,0.98995 -0.84853,1.13137z"/><path d="M118.14433,269.67435c-0.98639,0.1644 -1.15079,-0.82199 -1.15079,-0.82199l-0.08542,-0.53929c-0.13377,-1.88503 -0.35749,-3.67304 -0.22307,-5.57056c0,0 0.07125,-0.99746 1.06871,-0.92621c0.99746,0.07125 0.92621,1.06871 0.92621,1.06871c-0.12977,1.80086 0.09441,3.4953 0.22307,5.28557l0.06329,0.35299c0,0 0.1644,0.98639 -0.82199,1.15079z"/><path d="M120.10292,267.79567c0,-0.55228 0.44772,-1 1,-1c0.55228,0 1,0.44772 1,1c0,0.55228 -0.44772,1 -1,1c-0.55228,0 -1,-0.44772 -1,-1z"/><path d="M123.30028,267.49824c0,-0.55228 0.44772,-1 1,-1c0.55228,0 1,0.44772 1,1c0,0.55228 -0.44772,1 -1,1c-0.55228,0 -1,-0.44772 -1,-1z"/><path d="M127.53863,267.27517c0,-0.55228 0.44772,-1 1,-1c0.55228,0 1,0.44772 1,1c0,0.55228 -0.44772,1 -1,1c-0.55228,0 -1,-0.44772 -1,-1z"/></g></g></g></g></svg>