<svg version="1.1" xmlns="http://www.w3.org/2000/svg" xmlns:xlink="http://www.w3.org/1999/xlink" width="569.96255" height="287.21182" viewBox="0,0,569.96255,287.21182"><defs><linearGradient x1="402.66769" y1="21.13489" x2="402.66769" y2="332.54449" gradientUnits="userSpaceOnUse" id="color-1"><stop offset="0" stop-color="#b3b3b3"/><stop offset="1" stop-color="#ffffff"/></linearGradient><linearGradient x1="51.84207" y1="23.23664" x2="51.84207" y2="321.60338" gradientUnits="userSpaceOnUse" id="color-2"><stop offset="0" stop-color="#b3b3b3"/><stop offset="1" stop-color="#ffffff"/></linearGradient></defs><g transform="translate(51.25771,-19.5946)"><g data-paper-data="{&quot;isPaintingLayer&quot;:true}" fill-rule="nonzero" stroke-linejoin="miter" stroke-miterlimit="10" stroke-dasharray="" stroke-dashoffset="0" style="mix-blend-mode: normal"><g data-paper-data="{&quot;index&quot;:null}" stroke="none" stroke-width="0.5" stroke-linecap="butt"><path d="M446.88948,193.72285c0.29365,0.12378 0.16988,0.41743 0.16988,0.41743l-0.09059,0.21489c-0.23897,0.54282 -0.56752,1.18181 -0.94928,1.84891c1.02196,2.62227 3.30133,5.17081 4.99979,7.11315c2.9778,1.26126 5.13982,4.43579 8.36396,5.7948c2.2807,0.96134 3.81977,1.79431 5.40121,1.74957c0.24617,-0.44271 0.47418,-0.89861 0.67437,-1.37355c0,0 0.12378,-0.29366 0.41743,-0.16988c0.29365,0.12378 0.16988,0.41743 0.16988,0.41743c-0.14912,0.35377 -0.31337,0.69716 -0.48893,1.0325c0.95415,-0.20538 1.96723,-0.75913 3.20076,-1.81561c2.85418,-2.44451 3.69277,-6.44705 6.48042,-8.83459c0.54935,-1.30328 2.13836,-2.17562 2.9198,-3.32459c1.26033,-1.85309 2.12482,-3.86213 3.0203,-5.98657c0.78408,-1.86016 2.06014,-4.36979 3.52973,-5.90408c0.71757,-1.38255 1.42347,-2.76021 1.98315,-4.17277c0.8734,-2.07207 2.50194,-4.60172 2.87797,-6.80578c0.1983,-1.16231 -0.49089,-2.28358 -0.48705,-3.28053c-0.952,-0.40128 -1.72551,-2.63385 -2.76622,-3.40125c-1.51553,-1.11752 -3.4718,-2.21396 -5.25131,-2.96346c-3.53719,-1.49097 -6.81155,-3.37729 -10.2912,-4.844c-1.51511,-0.66406 -5.95699,-3.62026 -8.46555,-3.77956c-0.20826,0.42783 -0.40515,0.86849 -0.59488,1.3186l-0.20535,0.48716c0,0 -0.12378,0.29366 -0.41743,0.16988c-0.29365,-0.12378 -0.16987,-0.41743 -0.16987,-0.41743l0.20535,-0.48716c0.1463,-0.34708 0.29688,-0.68773 0.45337,-1.02087c-0.21646,0.05226 -0.4054,0.142 -0.56103,0.27529c-3.59042,0.32768 -5.68104,4.11177 -6.97853,7.18993c-1.51344,3.59049 -3.80085,6.61563 -5.29798,10.16743c-1.41962,3.36792 -1.93807,7.00986 -3.28652,10.1766c0.2282,3.52019 -1.38309,6.93175 0.0424,10.48655c0.03169,0.47158 0.12066,0.94558 0.25623,1.41891c0.25822,-0.47725 0.47427,-0.9253 0.62773,-1.31262l0.09058,-0.21489c0,0 0.12378,-0.29365 0.41743,-0.16987zM442.81543,200.58864c-0.5086,1.20661 -1.48377,2.50445 -2.25539,3.54521c-1.54573,2.08488 -1.28933,4.86498 -2.19666,7.01134c0.33207,3.6727 1.52935,7.40937 5.07327,8.96955c1.58536,1.85104 7.21213,3.47394 9.51641,3.28032c4.68433,-0.32847 5.0345,-3.69639 8.02557,-6.25813c0.85421,-2.02653 2.28913,-3.74262 3.45206,-5.66645c-1.55465,-0.08561 -3.13757,-0.86176 -5.29499,-1.77113c-3.26057,-1.37437 -5.47779,-4.60121 -8.48638,-5.86313c-1.77224,-1.93435 -3.88762,-4.39399 -5.01385,-6.98138c-0.86922,1.42984 -1.9229,2.88718 -2.82003,3.73381zM461.49334,217.5128c-3.16264,2.7087 -3.55626,6.10177 -8.49493,6.51799c-2.48175,0.12535 -8.21604,-1.39124 -9.93762,-3.40134c-3.74562,-1.48405 -5.06463,-5.84435 -5.32655,-9.58618c0.46835,-1.11433 0.24005,-2.37384 0.71075,-3.51057c1.08522,-2.62078 2.79648,-4.81559 3.84681,-7.30741c0.92422,-0.87219 2.14557,-2.54834 3.05753,-4.0915c-0.2348,-0.65706 -0.39896,-1.3199 -0.47118,-1.98215c-1.49673,-3.61628 0.18097,-7.15691 -0.05149,-10.74287c1.35041,-3.23563 1.88482,-6.89509 3.32768,-10.31816c1.49859,-3.55528 3.78428,-6.5763 5.29798,-10.16742c1.27034,-3.01377 3.6504,-7.43757 7.32559,-7.53271c0.3025,-0.25907 0.69632,-0.38269 1.15437,-0.40271c1.19538,-2.31596 2.7584,-4.20099 5.29366,-5.24787c3.61709,-1.44685 7.33896,1.23774 10.52751,2.58175c3.27338,1.37977 6.83425,3.18992 9.10333,5.94541c0.30086,0.82361 1.05259,1.26405 1.40415,2.12792c0.80971,1.98968 -0.08517,5.20281 -0.86246,7.08832c0.76562,1.02217 1.45156,2.47407 2.20315,2.79087c0.49546,4.18665 -0.62831,6.68286 -2.32297,10.7033c-0.49137,1.11613 -1.03745,2.21318 -1.59372,3.3111c0.13923,0.13957 0.05387,0.34207 0.05387,0.34207l-0.17693,0.33315c-0.13848,0.11412 -0.2758,0.24064 -0.41165,0.3778c-0.67351,1.32785 -1.3411,2.66628 -1.92453,4.05041c0,0 -0.12378,0.29366 -0.41743,0.16988c-0.24049,-0.10137 -0.20102,-0.31668 -0.17884,-0.39131c-0.33477,0.6712 -0.62681,1.32188 -0.86363,1.88373c-0.90872,2.15586 -1.77563,4.25281 -3.09289,6.11488c-0.80317,1.13537 -2.37287,2.02708 -2.91979,3.32459c-2.82436,2.41897 -3.67854,6.45731 -6.58055,8.94279c-1.53834,1.31754 -2.78518,1.90376 -3.99642,2.01975c-1.20954,2.07736 -2.77088,3.89305 -3.68279,6.05646zM471.02109,158.84758c3.48139,1.46745 6.75312,3.35266 10.29121,4.84401c1.80697,0.76222 3.85718,1.8758 5.37962,3.03604c0.08068,0.06148 0.16019,0.13151 0.23866,0.20861c1.26534,-3.28345 0.64228,-5.47792 -0.62017,-8.34103c-2.22121,-2.6213 -5.64299,-4.35365 -8.80451,-5.68627c-2.96966,-1.25175 -6.66455,-3.97995 -10.03973,-2.57872c-2.29717,0.91899 -3.73558,2.62598 -4.83815,4.69605c2.69128,0.37497 6.79358,3.18208 8.39307,3.8213z" fill="#0d0d0d"/><path d="M446.52816,193.86247l-0.09079,0.2145c-0.15346,0.38732 -0.48007,0.89874 -0.73829,1.37599c-0.13557,-0.47333 -0.22646,-0.95077 -0.25815,-1.42235c-1.42548,-3.5548 0.17869,-6.99705 -0.04952,-10.51724c1.34845,-3.16674 1.8773,-6.8422 3.29691,-10.21012c1.49713,-3.5518 3.80826,-6.59846 5.3217,-10.18895c1.29748,-3.07816 3.40887,-6.86894 6.99929,-7.19661c0.15564,-0.13329 0.34589,-0.22321 0.56235,-0.27547c-0.15649,0.33314 -0.29072,0.8002 -0.43702,1.14728l-0.20471,0.48707c0,0 -0.14245,0.16756 0.1512,0.29134c0.29365,0.12378 0.41847,-0.17002 0.41847,-0.17002l0.20596,-0.48723c0.18972,-0.45011 0.38828,-0.89096 0.59654,-1.31878c2.50855,0.1593 6.9711,3.11697 8.48621,3.78103c3.47965,1.46671 6.77967,3.36577 10.31686,4.85674c1.77951,0.7495 3.7456,1.85598 5.26112,2.9735c1.04071,0.76741 1.81981,3.00846 2.77181,3.40974c-0.00385,0.99695 0.68855,2.12496 0.49025,3.28727c-0.37603,2.20407 -2.00056,4.74841 -2.87396,6.82048c-0.55967,1.41256 -1.26497,2.80262 -1.98254,4.18517c-1.46959,1.53428 -2.7506,4.06563 -3.53468,5.92579c-0.89548,2.12444 -1.77297,4.15308 -3.0333,6.00617c-0.78144,1.14896 -2.38191,2.03065 -2.93126,3.33393c-2.78766,2.38754 -3.65086,6.39933 -6.50503,8.84383c-1.23353,1.05647 -2.25477,1.61092 -3.20892,1.81631c0.17556,-0.33534 0.33558,-0.80611 0.4847,-1.15988c0,0 0.1289,-0.16628 -0.16475,-0.29006c-0.29365,-0.12378 -0.41849,0.1699 -0.41849,0.1699c-0.20019,0.47494 -0.42986,0.93085 -0.67603,1.37356c-1.58144,0.04474 -3.13389,-0.78972 -5.41459,-1.75106c-3.22414,-1.35901 -5.40961,-4.544 -8.38741,-5.80526c-1.69846,-1.94234 -3.99414,-4.50798 -5.0161,-7.13025c0.38176,-0.6671 0.70866,-1.3088 0.94763,-1.85162l0.09036,-0.21527c0,0 0.12311,-0.29486 -0.17054,-0.41864c-0.29365,-0.12378 -0.30531,0.10924 -0.30531,0.10924z" data-paper-data="{&quot;noHover&quot;:false,&quot;origItem&quot;:[&quot;Path&quot;,{&quot;applyMatrix&quot;:true,&quot;segments&quot;:[[[327.92237,395.53223],[0.5,0],[-0.5,0]],[327.42237,395.03223],[[327.42237,394.66633],[0,0],[0.0147,-0.93045]],[[327.66808,391.41461],[-0.14541,1.19717],[-3.07566,-3.16852]],[[316.10431,384.17729],[3.63939,1.77319],[-5.07401,-0.0088]],[[300.48,380.8963],[5.48975,0],[-3.88335,0]],[[291.60458,381.6584],[2.25921,-1.02847],[-0.08612,0.79011]],[[291.46665,384.05528],[0,-0.80867],[0,0]],[[290.96665,384.55528],[0.5,0],[-0.5,0]],[[290.46665,384.05528],[0,0],[0,-0.60236]],[[290.54432,382.2645],[-0.04946,0.59184],[-1.25436,0.87844]],[[287.02308,386.84018],[1.13961,-2.27922],[-2.63687,5.27374]],[[283.03761,403.56277],[2.57541,-5.15083],[0,2.21911]],[[280.84222,410.14894],[0.42961,-2.13743],[-0.69289,3.44732]],[[280.1238,420.64511],[0,-3.6173],[0,3.1673]],[[278.61857,431.33246],[1.18972,-3.11391],[-0.1949,2.43623]],[[278.29431,438.57413],[-0.05167,-2.38338],[0,3.52811]],[[278.28093,450.16799],[-0.79955,-3.41585],[0.42164,1.80134]],[[280.98436,454.61422],[-0.602,-1.44375],[1.62097,0]],[[287.05664,457.84601],[-1.97236,-0.47529],[2.87223,0.69213]],[[296.45512,458.93033],[-3.02963,0.00084],[6.02279,0]],[[314.28644,459.66212],[-5.92481,0],[2.59528,0.03676]],[[328.82947,459.96753],[-3.724,1.29847],[0.04037,-0.74548]],[[328.88596,457.69853],[0,0.7664],[0,0]],[328.88596,456.86904],[[329.38596,456.36904],[-0.5,0],[0.5,0]],[329.88596,456.86904],[[329.88596,457.69853],[0,0],[0,0.59097]],[[329.85262,459.45082],[0.02323,-0.57703],[0.28112,-0.20747]],[[330.496,458.71088],[-0.14379,0.28757],[4.99141,-2.66187]],[[336.20393,444.0626],[0,5.2412],[0,-6.11354]],[[337.66752,426.13358],[0,6.04766],[0,-5.73457]],[[336.21731,409.41714],[-0.01971,5.40033],[-2.47525,-4.9505]],[[329.7652,394.28131],[4.22739,4.27087],[-0.33321,-0.6625]],[[328.53,392.38597],[0.48447,0.60173],[-0.08249,0.84738]],[[328.42237,394.66633],[-0.01417,-0.65352],[0,0]],[328.42237,395.03223]],&quot;closed&quot;:true}]}" fill="#0d0d0d"/><path d="M445.61395,196.79485c1.12623,2.58738 3.2613,5.0433 5.03353,6.97765c3.00859,1.26193 5.28999,4.53926 8.55056,5.91362c2.15742,0.90937 3.74172,1.69883 5.29637,1.78443c-1.16293,1.92383 -2.60603,3.67108 -3.46024,5.69761c-2.99107,2.56174 -3.38583,5.96121 -8.07016,6.28968c-2.30428,0.19361 -7.98351,-1.4437 -9.56887,-3.29474c-3.54392,-1.56018 -4.76342,-5.34678 -5.09548,-9.01949c0.90733,-2.14636 0.66268,-4.96179 2.20841,-7.04667c0.77161,-1.04076 1.7608,-2.35291 2.2694,-3.55952c0.89713,-0.84663 1.96726,-2.31275 2.83648,-3.74259z" data-paper-data="{&quot;noHover&quot;:false,&quot;origItem&quot;:[&quot;Path&quot;,{&quot;applyMatrix&quot;:true,&quot;segments&quot;:[[[329.62851,383.12268],[-0.78113,1.77081],[0,-2.05449]],[[330.72883,376.62244],[-0.48135,1.97499],[0.96426,-3.95637]],[[329.63189,365.1466],[-0.00379,3.65621],[-2.71837,-5.1077]],[[316.83055,355.27004],[6.07469,0.09597],[-3.42023,-1.71011]],[[301.0724,356.32687],[3.21358,-1.68422],[-6.57252,3.32969]],[[293.28276,370.26602],[2.76334,-5.52667],[0,3.45058]],[[291.74501,380.56249],[0.50894,-3.49024],[2.29992,-0.82368]],[[300.48,379.8963],[-3.67344,0],[5.55177,0]],[[316.32295,383.20148],[-5.11894,0.00901],[3.74118,1.71667]],[[327.82674,390.2397],[-3.20516,-3.05453],[0.38534,-2.59702]]],&quot;closed&quot;:true}]}" fill="#242424"/><path d="M452.33032,214.09344c0.88968,1.78109 1.25873,7.54713 -2.07567,4.61873c-0.59968,-0.52667 -0.31476,-2.17604 -0.71608,-2.97945l-0.03801,-0.04438c-0.3974,-0.44476 -0.5276,-1.09544 -0.28054,-1.68157c0.3418,-0.81089 1.27625,-1.19117 2.08714,-0.84937c0.05931,0.025 0.11632,0.05317 0.17092,0.08423c0.32842,0.13528 0.63061,0.4081 0.85224,0.8518z" fill="#1a1a1a"/><path d="M441.02683,213.242c-0.8019,-1.9705 3.49988,-3.19583 5.519,-3.06417c0.22109,-0.00642 0.44708,0.03333 0.66421,0.12485c0.81089,0.3418 1.19117,1.27625 0.84937,2.08714c-0.25854,0.61337 -0.85616,0.98035 -1.48291,0.97482c-1.93192,0.82697 -4.98325,1.26923 -5.54967,-0.12264z" fill="#1a1a1a"/><path d="M436.76494,215.90855c-1.05248,-0.87999 -0.58492,-4.7944 0.35855,-5.17835c0.49577,-0.20176 1.09842,0.0045 1.59164,0.2124c0.93826,0.39548 0.67634,2.32132 0.78517,3.02082c0.16308,1.04826 4.15249,4.52022 5.24276,4.99804c2.73567,1.19894 5.52034,1.96039 8.10668,3.26401c0.233,0.11744 0.58043,-0.07929 0.96071,-0.3144c0.18162,-0.17421 0.40119,-0.30173 0.63858,-0.37434c0.40344,-0.20065 0.79451,-0.28243 1.08414,0.05571c0.62559,0.26369 0.99489,0.88012 0.97405,1.52042c0.03143,0.18801 0.00489,0.36765 -0.10888,0.52784c-0.00508,0.01299 -0.01035,0.02595 -0.0158,0.03888c-0.15298,0.36292 -0.42466,0.63958 -0.75085,0.80386c-4.98768,4.20031 -15.76703,-5.9832 -18.86675,-8.5749z" fill="#000000"/></g><path d="M466.23908,282.55397c0,0 -92.47494,-41.08329 -92.35958,-44.20617c0.13186,-3.56936 26.53813,-10.02511 26.53813,-10.02511c0,0 20.01679,12.43303 31.20638,17.60805c11.31841,5.2346 36.12464,14.21504 36.12464,14.21504l1.89012,-69.61914l-56.5819,-35.52926l-4.34496,63.8521l-8.09206,9.20522l-25.02373,11.96922l-121.03176,-56.3647l11.08784,-22.07998c0,0 18.04443,11.3683 29.37763,16.30781c8.05602,3.51116 33.50441,11.18186 33.50441,11.18186l-2.42795,-11.37516l1.87725,0.08184l2.53196,-57.43762l-53.72157,-27.49501l-2.16336,63.97711l-7.39104,5.05886l-11.5067,21.65352l-27.54569,-13.10326l0.31999,-149.29437l191.38035,90.14758l58.12558,27.66207l39.28418,17.8203l-3.00075,147.86359z" data-paper-data="{&quot;index&quot;:null}" fill="url(#color-1)" stroke="none" stroke-width="0" stroke-linecap="butt"/><path d="M227.53139,21.54734v148.58399" fill="none" stroke="#000000" stroke-width="2.5" stroke-linecap="round"/><path d="M-49.68471,289.717v-149.36396l276.20469,-117.11638l-0.58258,149.34649z" fill="url(#color-2)" stroke="none" stroke-width="0" stroke-linecap="butt"/><path d="M-48.141,289.71588l276.09479,-119.54196l287.75728,135.38249" fill="none" stroke="#000000" stroke-width="2.5" stroke-linecap="round"/><path d="M-50.00771,141.02163l277.67845,-120.0564l289.7841,135.64817" fill="none" stroke="#000000" stroke-width="2.5" stroke-linecap="round"/></g></g></svg>