<svg version="1.1" xmlns="http://www.w3.org/2000/svg" xmlns:xlink="http://www.w3.org/1999/xlink" width="90.38722" height="33.17771" viewBox="0,0,90.38722,33.17771"><g transform="translate(-198.99089,-235.86277)"><g data-paper-data="{&quot;isPaintingLayer&quot;:true}" fill-rule="nonzero" stroke="none" stroke-width="0.5" stroke-linecap="butt" stroke-linejoin="miter" stroke-miterlimit="10" stroke-dasharray="" stroke-dashoffset="0" style="mix-blend-mode: normal"><path d="M202.39102,262.77185c0.29002,-0.3335 0.72556,-0.65819 1.33226,-0.96155c2.73006,-1.36505 6.75628,0.44336 7.06286,3.44952c0.06571,0.64432 0.19076,1.35684 -0.08907,1.94093c-1.87063,3.90461 -13.76533,1.10253 -9.23322,-3.80988c0.25245,-0.27364 0.59534,-0.43976 0.92716,-0.61902z" fill-opacity="0.50196" fill="#000000"/><path d="M226.48899,262.48805c2.50854,-1.87201 6.58245,0.1312 5.41991,3.76642c-1.10891,3.46753 -11.09442,3.89806 -9.31011,-1.3817c0.16713,-0.49455 1.57603,-2.03762 1.94164,-2.45596c0,0 0.82313,-0.94072 1.76385,-0.11759c0.07134,0.06242 0.13254,0.12552 0.18472,0.18883z" fill-opacity="0.50196" fill="#000000"/><path d="M245.18045,258.84234c0.38912,-0.35226 0.72061,-0.80824 1.21642,-0.94513c2.60679,-0.71974 7.47848,2.81382 5.68097,5.80574c-0.71658,1.19274 -3.49893,1.20146 -4.64121,1.31667c-1.17187,0.11819 -1.80509,0.60416 -3.06147,0.24674c-3.49934,-0.99551 -2.3178,-3.81281 -0.93445,-6.03742c0,0 0.6625,-1.06 1.7225,-0.3975c0.0058,0.00362 0.01155,0.00726 0.01725,0.01091z" fill-opacity="0.50196" fill="#000000"/><path d="M258.51965,254.57947c2.05542,-1.46981 8.06642,-1.55732 10.41118,-1.11985c3.0091,1.00075 5.76319,4.016 2.2959,6.76837c-1.253,0.99465 -3.01629,0.90055 -4.50706,1.04172c-3.37601,0.31969 -11.13595,2.64178 -11.01101,-3.18057c0.01307,-0.60903 0.13659,-1.22809 0.37526,-1.78856c0.21107,-0.49567 0.62985,-0.87421 0.94478,-1.31131c0,0 0.62323,-0.83099 1.49095,-0.4098z" fill-opacity="0.50196" fill="#000000"/><path d="M280.04302,244.18163c-0.15767,-0.20175 -0.26058,-0.48695 -0.22035,-0.88926c0.12438,-1.2438 1.36818,-1.11942 1.36818,-1.11942c1.73055,0.17516 6.33667,-0.39983 7.50975,1.22019c1.31932,1.82198 0.55528,3.10759 -0.94964,4.16755c-2.4989,1.76006 -7.26936,0.18478 -10.02344,-0.0874l-1.32565,-0.13256c-0.63854,-0.05599 -1.13937,-0.5921 -1.13937,-1.24517c0,-0.5623 0.37128,-1.03789 0.88206,-1.19497l1.17812,-0.3927l0.13687,0.4106c0.83551,-0.35602 1.6972,-0.58267 2.58348,-0.73685z" fill-opacity="0.50196" fill="#000000"/><g><g><path d="M224.77674,260.53014c0.75443,-0.40383 1.42121,0.26295 1.42121,0.26295l0.03096,0.32786c2.4304,0.63831 1.75344,-3.52571 4.72774,-1.96175c0.76773,0.40369 0.40035,1.70154 0.41551,2.56881c0.03492,1.99746 -1.23985,3.53271 -3.17906,3.86163c-3.46457,0.58765 -4.84145,-3.15112 -6.55785,-5.43966c0,0 -0.75,-1 0.25,-1.75c1,-0.75 1.75,0.25 1.75,0.25c0.27569,0.36759 0.68147,1.10533 1.14149,1.88016z" fill="#632817"/><path d="M224.43675,255.87481c0.93513,-0.03746 1.54532,1.06282 2.36997,1.50533c0.63661,0.34161 1.06837,-1.17984 1.78957,-1.22276c0.78379,-0.04665 1.65733,0.19053 2.24593,0.71021c1.33043,1.17465 1.23293,3.38098 -0.13945,4.50543c-0.84632,0.69343 -4.41624,0.17284 -5.69922,0.56402c0,0 -0.82959,0.24888 -1.31483,-0.35825c-0.61867,-0.075 -1.098,-0.60195 -1.098,-1.24085c0,-0.25027 0.07355,-0.48336 0.20022,-0.67884l0.02589,-0.04143c-2.17389,-0.60052 -0.79729,-3.64601 1.61992,-3.74285z" fill="#f38ec5"/></g><path d="M225.50164,263.55236c0,-0.41421 0.33579,-0.75 0.75,-0.75c0.41421,0 0.75,0.33579 0.75,0.75c0,0.41421 -0.33579,0.75 -0.75,0.75c-0.41421,0 -0.75,-0.33579 -0.75,-0.75z" fill="#e1e1e1"/><path d="M229.11804,263.15032c0,-0.41421 0.33579,-0.75 0.75,-0.75c0.41421,0 0.75,0.33579 0.75,0.75c0,0.41421 -0.33579,0.75 -0.75,0.75c-0.41421,0 -0.75,-0.33579 -0.75,-0.75z" fill="#e1e1e1"/><path d="M225.23376,259.13213c0,-0.41421 0.33579,-0.75 0.75,-0.75c0.41421,0 0.75,0.33579 0.75,0.75c0,0.41421 -0.33579,0.75 -0.75,0.75c-0.41421,0 -0.75,-0.33579 -0.75,-0.75z" fill="#ff4848"/><path d="M226.97499,258.06058c0,-0.41421 0.33579,-0.75 0.75,-0.75c0.41421,0 0.75,0.33579 0.75,0.75c0,0.41421 -0.33579,0.75 -0.75,0.75c-0.41421,0 -0.75,-0.33579 -0.75,-0.75z" fill="#ed66ff"/><path d="M228.3144,260.20368c0,-0.41421 0.33579,-0.75 0.75,-0.75c0.41421,0 0.75,0.33579 0.75,0.75c0,0.41421 -0.33579,0.75 -0.75,0.75c-0.41421,0 -0.75,-0.33579 -0.75,-0.75z" fill="#19da44"/><path d="M223.22466,256.72124c0,-0.41421 0.33579,-0.75 0.75,-0.75c0.41421,0 0.75,0.33579 0.75,0.75c0,0.41421 -0.33579,0.75 -0.75,0.75c-0.41421,0 -0.75,-0.33579 -0.75,-0.75z" fill="#469cff"/><path d="M229.25198,257.7927c0,-0.41421 0.33579,-0.75 0.75,-0.75c0.41421,0 0.75,0.33579 0.75,0.75c0,0.41421 -0.33579,0.75 -0.75,0.75c-0.41421,0 -0.75,-0.33579 -0.75,-0.75z" fill="#469cff"/></g><g><g><path d="M202.74691,257.6924c1.13068,0.11052 2.73153,0.45068 3.2881,0.35106c1.8162,-0.32509 2.1772,-3.41705 4.70939,-0.90818c1.44069,1.42742 -0.84545,6.18311 -2.19215,6.88564c-0.51628,0.26933 -1.16527,0.03932 -1.74367,0.10666c-4.58111,0.53335 -5.65384,-1.44848 -6.43183,-5.70926c0,0 -0.22361,-1.22984 1.00623,-1.45344c0.84529,-0.15369 1.21523,0.37923 1.36393,0.72753z" fill="#632817"/><path d="M202.94913,254.65318c1.56468,-0.99508 2.39881,-1.81458 4.41911,-1.25752c0.90915,0.25068 1.09112,0.94544 2.01148,1.01213c1.31365,0.09518 2.57291,-0.9357 3.64973,0.9343c0.53606,0.93091 -0.86225,3.68074 -1.75795,4.02913c-0.90913,0.35361 -1.85855,-0.71714 -2.83394,-0.72989c-1.98199,-0.02591 -2.81989,2.26741 -5.15758,1.6953c-1.17923,-0.2886 -2.51327,-1.91565 -3.61984,-2.52231c0,0 -1.0927,-0.60705 -0.48564,-1.69975c0.20391,-0.36704 0.46261,-0.54229 0.71629,-0.61319c0.2233,-0.34058 0.60843,-0.56551 1.0461,-0.56551h1.18634c0.2753,-0.09422 0.55061,-0.18845 0.82591,-0.28267z" fill="#f38ec5"/></g><path d="M202.32993,261.67718c0,-0.41421 0.33579,-0.75 0.75,-0.75c0.41421,0 0.75,0.33579 0.75,0.75c0,0.41421 -0.33579,0.75 -0.75,0.75c-0.41421,0 -0.75,-0.33579 -0.75,-0.75z" fill="#e1e1e1"/><path d="M206.88391,260.60547c0,-0.41421 0.33579,-0.75 0.75,-0.75c0.41421,0 0.75,0.33579 0.75,0.75c0,0.41421 -0.33579,0.75 -0.75,0.75c-0.41421,0 -0.75,-0.33579 -0.75,-0.75z" fill="#e1e1e1"/><path d="M205.27662,263.28428c0,-0.41421 0.33579,-0.75 0.75,-0.75c0.41421,0 0.75,0.33579 0.75,0.75c0,0.41421 -0.33579,0.75 -0.75,0.75c-0.41421,0 -0.75,-0.33579 -0.75,-0.75z" fill="#e1e1e1"/><path d="M203.13358,256.45332c0,-0.41421 0.33579,-0.75 0.75,-0.75c0.41421,0 0.75,0.33579 0.75,0.75c0,0.41421 -0.33579,0.75 -0.75,0.75c-0.41421,0 -0.75,-0.33579 -0.75,-0.75z" fill="#ff4848"/><path d="M205.41057,256.05164c0,-0.41421 0.33579,-0.75 0.75,-0.75c0.41421,0 0.75,0.33579 0.75,0.75c0,0.41421 -0.33579,0.75 -0.75,0.75c-0.41421,0 -0.75,-0.33579 -0.75,-0.75z" fill="#ed66ff"/><path d="M209.69666,256.85511c0,-0.41421 0.33579,-0.75 0.75,-0.75c0.41421,0 0.75,0.33579 0.75,0.75c0,0.41421 -0.33579,0.75 -0.75,0.75c-0.41421,0 -0.75,-0.33579 -0.75,-0.75z" fill="#ed66ff"/><path d="M207.15179,255.38215c0,-0.41421 0.33579,-0.75 0.75,-0.75c0.41421,0 0.75,0.33579 0.75,0.75c0,0.41421 -0.33579,0.75 -0.75,0.75c-0.41421,0 -0.75,-0.33579 -0.75,-0.75z" fill="#19da44"/><path d="M199.65112,256.18558c0,-0.41421 0.33579,-0.75 0.75,-0.75c0.41421,0 0.75,0.33579 0.75,0.75c0,0.41421 -0.33579,0.75 -0.75,0.75c-0.41421,0 -0.75,-0.33579 -0.75,-0.75z" fill="#469cff"/><path d="M202.46387,258.59633c0,-0.41421 0.33579,-0.75 0.75,-0.75c0.41421,0 0.75,0.33579 0.75,0.75c0,0.41421 -0.33579,0.75 -0.75,0.75c-0.41421,0 -0.75,-0.33579 -0.75,-0.75z" fill="#469cff"/></g><g><g><path d="M246.59757,255.79737c1.29049,-1.76345 3.07928,-3.90635 4.72457,-2.55775c1.46284,1.19905 -1.1741,6.00752 -2.23941,6.77301c-4.30865,3.09601 -6.90007,-1.29025 -7.95549,-4.80702c0,0 -0.35918,-1.19728 0.8381,-1.55647c1.19728,-0.35918 1.55647,0.8381 1.55647,0.8381c0.06285,0.20958 0.1877,0.72021 0.35024,1.30694c0.55887,-0.15011 1.11774,-0.30021 1.67661,-0.45032z" fill="#632817"/><path d="M243.40247,252.95434c1.77145,-0.18495 7.95041,-2.36489 7.93267,1.36285c-0.00402,0.84444 -1.27421,1.12161 -1.99554,1.56068c-1.60257,0.97546 -4.01194,1.27673 -5.80963,1.29005c0,0 -1.23449,0 -1.24986,-1.2268l-0.46582,-0.29114c-0.36304,-0.21872 -0.60585,-0.61674 -0.60585,-1.07147c0,-0.5623 0.37128,-1.03788 0.88206,-1.19497l1.17812,-0.39271l0.01467,0.04402z" fill="#f38ec5"/></g><path d="M244.92302,259.66788c0,-0.41421 0.33579,-0.75 0.75,-0.75c0.41421,0 0.75,0.33579 0.75,0.75c0,0.41421 -0.33579,0.75 -0.75,0.75c-0.41421,0 -0.75,-0.33579 -0.75,-0.75z" fill="#e1e1e1"/><path d="M247.20001,258.06058c0,-0.41421 0.33579,-0.75 0.75,-0.75c0.41421,0 0.75,0.33579 0.75,0.75c0,0.41421 -0.33579,0.75 -0.75,0.75c-0.41421,0 -0.75,-0.33579 -0.75,-0.75z" fill="#e1e1e1"/><path d="M244.25332,254.8464c0,-0.41421 0.33579,-0.75 0.75,-0.75c0.41421,0 0.75,0.33579 0.75,0.75c0,0.41421 -0.33579,0.75 -0.75,0.75c-0.41421,0 -0.75,-0.33579 -0.75,-0.75z" fill="#ff4848"/><path d="M247.20001,252.97122c0,-0.41421 0.33579,-0.75 0.75,-0.75c0.41421,0 0.75,0.33579 0.75,0.75c0,0.41421 -0.33579,0.75 -0.75,0.75c-0.41421,0 -0.75,-0.33579 -0.75,-0.75z" fill="#ed66ff"/><path d="M246.66425,255.38215c0,-0.41421 0.33579,-0.75 0.75,-0.75c0.41421,0 0.75,0.33579 0.75,0.75c0,0.41421 -0.33579,0.75 -0.75,0.75c-0.41421,0 -0.75,-0.33579 -0.75,-0.75z" fill="#19da44"/><path d="M241.97633,254.17673c0,-0.41421 0.33579,-0.75 0.75,-0.75c0.41421,0 0.75,0.33579 0.75,0.75c0,0.41421 -0.33579,0.75 -0.75,0.75c-0.41421,0 -0.75,-0.33579 -0.75,-0.75z" fill="#469cff"/><path d="M249.34306,254.17673c0,-0.41421 0.33579,-0.75 0.75,-0.75c0.41421,0 0.75,0.33579 0.75,0.75c0,0.41421 -0.33579,0.75 -0.75,0.75c-0.41421,0 -0.75,-0.33579 -0.75,-0.75z" fill="#469cff"/></g><g><g><path d="M258.33976,250.90444c0.38852,0.00395 0.70073,0.19128 0.70073,0.19128l0.02658,0.22369c1.91938,0 5.53459,0.77701 7.24533,-0.34908c0.29392,-0.19347 0.58328,-0.39478 0.87226,-0.59676l-0.1614,-0.1614l0.93758,-0.93758c0.22621,-0.22621 0.53871,-0.36612 0.88388,-0.36612c0.69036,0 1.25,0.55964 1.25,1.25v1.33941h-0.02031l0.01876,0.06227c-0.56159,4.46546 -3.57524,4.46036 -7.20289,4.26687c-1.47303,-0.07857 -3.03397,0.74173 -4.49245,0.01502c-1.93912,-0.9662 -2.32088,-3.69537 -2.69955,-5.57236c0,0 -0.24515,-1.22573 0.98058,-1.47087c1.22573,-0.24515 1.47087,0.98058 1.47087,0.98058c0.04585,0.23151 0.10466,0.64859 0.19001,1.12505z" fill="#632817"/><path d="M256.20446,250.221c-0.06738,-0.02859 -0.135,-0.05628 -0.20292,-0.08285c0.64664,-1.13284 1.28415,-2.86799 2.70725,-3.40564c0.69651,-0.26314 1.48646,-0.31009 2.22397,-0.20794c0.71614,0.09919 1.34564,1.1694 1.99488,0.8513c0.36424,-0.17846 0.45309,-0.73661 0.82783,-0.89183c1.81673,-0.7525 6.72217,0.01073 6.31809,2.96601c-0.14324,1.04757 -2.60727,2.21713 -3.44854,2.45118c-2.54406,0.70779 -6.59447,0.17398 -9.29917,0.17697c0,0 -1.25,0 -1.25,-1.25c0,-0.24855 0.04942,-0.44767 0.12861,-0.60721z" fill="#f38ec5"/></g><path d="M258.58496,254.8464c0,-0.41421 0.33579,-0.75 0.75,-0.75c0.41421,0 0.75,0.33579 0.75,0.75c0,0.41421 -0.33579,0.75 -0.75,0.75c-0.41421,0 -0.75,-0.33579 -0.75,-0.75z" fill="#e1e1e1"/><path d="M262.73711,254.8464c0,-0.41421 0.33579,-0.75 0.75,-0.75c0.41421,0 0.75,0.33579 0.75,0.75c0,0.41421 -0.33579,0.75 -0.75,0.75c-0.41421,0 -0.75,-0.33579 -0.75,-0.75z" fill="#e1e1e1"/><path d="M260.32618,253.23914c0,-0.41421 0.33579,-0.75 0.75,-0.75c0.41421,0 0.75,0.33579 0.75,0.75c0,0.41421 -0.33579,0.75 -0.75,0.75c-0.41421,0 -0.75,-0.33579 -0.75,-0.75z" fill="#e1e1e1"/><path d="M266.48745,253.90881c0,-0.41421 0.33579,-0.75 0.75,-0.75c0.41421,0 0.75,0.33579 0.75,0.75c0,0.41421 -0.33579,0.75 -0.75,0.75c-0.41421,0 -0.75,-0.33579 -0.75,-0.75z" fill="#e1e1e1"/><path d="M261.26377,250.02454c0,-0.41421 0.33579,-0.75 0.75,-0.75c0.41421,0 0.75,0.33579 0.75,0.75c0,0.41421 -0.33579,0.75 -0.75,0.75c-0.41421,0 -0.75,-0.33579 -0.75,-0.75z" fill="#ff4848"/><path d="M266.48745,249.08695c0,-0.41421 0.33579,-0.75 0.75,-0.75c0.41421,0 0.75,0.33579 0.75,0.75c0,0.41421 -0.33579,0.75 -0.75,0.75c-0.41421,0 -0.75,-0.33579 -0.75,-0.75z" fill="#ff4848"/><path d="M258.85284,248.95298c0,-0.41421 0.33579,-0.75 0.75,-0.75c0.41421,0 0.75,0.33579 0.75,0.75c0,0.41421 -0.33579,0.75 -0.75,0.75c-0.41421,0 -0.75,-0.33579 -0.75,-0.75z" fill="#ed66ff"/><path d="M264.07652,249.48881c0,-0.41421 0.33579,-0.75 0.75,-0.75c0.41421,0 0.75,0.33579 0.75,0.75c0,0.41421 -0.33579,0.75 -0.75,0.75c-0.41421,0 -0.75,-0.33579 -0.75,-0.75z" fill="#ed66ff"/><path d="M264.3444,247.34573c0,-0.41421 0.33579,-0.75 0.75,-0.75c0.41421,0 0.75,0.33579 0.75,0.75c0,0.41421 -0.33579,0.75 -0.75,0.75c-0.41421,0 -0.75,-0.33579 -0.75,-0.75z" fill="#19da44"/><path d="M258.98678,250.4264c0,-0.41421 0.33579,-0.75 0.75,-0.75c0.41421,0 0.75,0.33579 0.75,0.75c0,0.41421 -0.33579,0.75 -0.75,0.75c-0.41421,0 -0.75,-0.33579 -0.75,-0.75z" fill="#469cff"/><path d="M260.59406,248.01539c0,-0.41421 0.33579,-0.75 0.75,-0.75c0.41421,0 0.75,0.33579 0.75,0.75c0,0.41421 -0.33579,0.75 -0.75,0.75c-0.41421,0 -0.75,-0.33579 -0.75,-0.75z" fill="#469cff"/></g><g><g><path d="M279.67118,241.25571l-0.33422,-0.13369l0.52495,-1.31237c0.17726,-0.47474 0.63486,-0.8128 1.17141,-0.8128c0.69036,0 1.25,0.55964 1.25,1.25v1.33941h-0.02552l0.02397,0.06227c-0.12326,1.18501 -0.34214,3.52764 -1.20391,4.46133c-0.87535,0.94841 -5.37278,1.50394 -6.61739,0.67776c-1.26014,-0.83649 -1.23489,-3.64744 -1.24024,-4.93348c0,0 0,-1.25 1.25,-1.25c1.25,0 1.25,1.25 1.25,1.25c-0.00013,0.02607 -0.00006,0.05214 0.0002,0.07819c0.21042,-0.16101 0.4735,-0.25667 0.75891,-0.25667c0.14845,0 0.29086,0.02588 0.42297,0.07337l1.09077,0.36359c0.68959,0.09983 1.21411,-0.29226 1.6781,-0.85692z" fill="#632817"/><path d="M275.52002,237.63997c0.02143,-0.03712 0.04244,-0.07377 0.06288,-0.10991c1.31138,-2.31864 5.28934,-2.11793 6.73236,-0.02322c1.12616,1.63475 0.3808,4.84304 -1.79399,5.38868c-0.89913,0.22559 -1.95296,0.06397 -2.75334,-0.40633c-0.96647,0.55184 -2.67585,1.49883 -3.03366,1.35091c-2.44211,-1.00955 -0.80797,-4.06766 -0.20083,-5.44035c0,0 0.30879,-0.69478 0.98658,-0.75979z" fill="#f38ec5"/></g><path d="M274.79176,244.80084c0,-0.41421 0.33579,-0.75 0.75,-0.75c0.41421,0 0.75,0.33579 0.75,0.75c0,0.41421 -0.33579,0.75 -0.75,0.75c-0.41421,0 -0.75,-0.33579 -0.75,-0.75z" fill="#e1e1e1"/><path d="M278.27421,245.47055c0,-0.41421 0.33579,-0.75 0.75,-0.75c0.41421,0 0.75,0.33579 0.75,0.75c0,0.41421 -0.33579,0.75 -0.75,0.75c-0.41421,0 -0.75,-0.33579 -0.75,-0.75z" fill="#e1e1e1"/><path d="M275.72934,246.14024c0,-0.41421 0.33579,-0.75 0.75,-0.75c0.41421,0 0.75,0.33579 0.75,0.75c0,0.41421 -0.33579,0.75 -0.75,0.75c-0.41421,0 -0.75,-0.33579 -0.75,-0.75z" fill="#e1e1e1"/><path d="M276.53299,238.37175c0,-0.41421 0.33579,-0.75 0.75,-0.75c0.41421,0 0.75,0.33579 0.75,0.75c0,0.41421 -0.33579,0.75 -0.75,0.75c-0.41421,0 -0.75,-0.33579 -0.75,-0.75z" fill="#ff4848"/><path d="M279.07786,241.45235c0,-0.41421 0.33579,-0.75 0.75,-0.75c0.41421,0 0.75,0.33579 0.75,0.75c0,0.41421 -0.33579,0.75 -0.75,0.75c-0.41421,0 -0.75,-0.33579 -0.75,-0.75z" fill="#ff4848"/><path d="M275.46146,241.31839c0,-0.41421 0.33579,-0.75 0.75,-0.75c0.41421,0 0.75,0.33579 0.75,0.75c0,0.41421 -0.33579,0.75 -0.75,0.75c-0.41421,0 -0.75,-0.33579 -0.75,-0.75z" fill="#ed66ff"/><path d="M279.8815,237.96987c0,-0.41421 0.33579,-0.75 0.75,-0.75c0.41421,0 0.75,0.33579 0.75,0.75c0,0.41421 -0.33579,0.75 -0.75,0.75c-0.41421,0 -0.75,-0.33579 -0.75,-0.75z" fill="#19da44"/><path d="M277.73845,239.57717c0,-0.41421 0.33579,-0.75 0.75,-0.75c0.41421,0 0.75,0.33579 0.75,0.75c0,0.41421 -0.33579,0.75 -0.75,0.75c-0.41421,0 -0.75,-0.33579 -0.75,-0.75z" fill="#469cff"/><path d="M280.41726,239.84505c0,-0.41421 0.33579,-0.75 0.75,-0.75c0.41421,0 0.75,0.33579 0.75,0.75c0,0.41421 -0.33579,0.75 -0.75,0.75c-0.41421,0 -0.75,-0.33579 -0.75,-0.75z" fill="#469cff"/></g></g></g></svg>