<svg version="1.1" xmlns="http://www.w3.org/2000/svg" xmlns:xlink="http://www.w3.org/1999/xlink" width="28.21416" height="12.05357" viewBox="0,0,28.21416,12.05357"><g transform="translate(-86.3468,-153.66356)"><g data-paper-data="{&quot;isPaintingLayer&quot;:true}" fill-rule="nonzero" stroke="none" stroke-width="0.5" stroke-linecap="butt" stroke-linejoin="miter" stroke-miterlimit="10" stroke-dasharray="" stroke-dashoffset="0" style="mix-blend-mode: normal"><g><g fill="#ff4040"><path d="M92.43742,165.48621c-1,0 -1,-1 -1,-1l0.01005,-0.39432c-0.14736,-1.03671 -0.21609,-2.04103 -0.23445,-3.07487c-1.19191,-0.81544 -2.52118,-2.98397 -3.11838,-3.84465c0,0 -0.5692,-0.82219 0.25299,-1.3914c0.82219,-0.56921 1.3914,0.25298 1.3914,0.25298c1.93912,2.80782 2.63675,4.55575 3.80905,0.73434l0.13266,-0.61166c0,0 0.21694,-0.97619 1.19312,-0.75926c0.97619,0.21693 0.75925,1.19312 0.75925,1.19312l-0.17347,0.76596c-0.4145,1.34341 -0.86123,3.33315 -2.24202,3.87785c0.02227,0.86234 0.08471,1.70415 0.20976,2.57475l0.01005,0.67716c0,0 0,1 -1,1z"/><path d="M100.44003,160.0774c0.96476,-0.26311 1.22788,0.70165 1.22788,0.70165l0.2623,1.17624c-0.10871,1.28695 -0.51614,3.68278 -2.37258,3.76053c-1.87703,0.07861 -2.84801,-3.37495 -3.0573,-4.67467c0,0 -0.15206,-0.98837 0.83631,-1.14042c0.98837,-0.15205 1.14042,0.83631 1.14042,0.83631c0.26171,1.80954 1.28383,4.35437 1.45822,1.07576l-0.19691,-0.50752c0,0 -0.26312,-0.96476 0.70165,-1.22788z"/><path d="M109.96382,165.71582c-1,0 -1,-1 -1,-1l0.02561,-0.38742c-0.14391,-0.63103 -0.37576,-1.23876 -0.57123,-1.85578c-0.07311,-0.23077 -0.08598,-0.95903 -0.10877,-0.71803c-0.00956,0.10119 -0.02975,0.19898 -0.05874,0.29389l0.05269,0.01882l-0.37484,1.04956c-0.13179,0.39825 -0.50713,0.68559 -0.94957,0.68559c-0.45784,0 -0.84381,-0.30768 -0.96243,-0.72755l-0.19758,-0.64211c-0.05885,0.71527 -0.20117,1.89171 -0.22261,2.04177c0,0 -0.14142,0.98995 -1.13137,0.84853c-0.98995,-0.14142 -0.84853,-1.13137 -0.84853,-1.13137c0.21813,-1.52687 0.21422,-5.13486 2.97329,-4.30573c0.20137,0.06052 0.34408,0.19931 0.45788,0.37668c0.6802,-0.3709 1.89034,-0.38278 2.60366,0.12507c0.68867,0.4903 1.09968,2.68786 1.28692,3.49095l0.0256,0.83713c0,0 0,1 -1,1z"/><path d="M113.33134,161.65948c-1,0 -1,-1 -1,-1l0.00254,-0.00528c-0.10322,-1.45683 -0.05553,-2.91009 -0.15339,-4.3672c0,0 -0.06651,-0.99778 0.93127,-1.0643c0.99778,-0.06652 1.0643,0.93126 1.0643,0.93126c0.09627,1.4542 0.04805,2.90459 0.15274,4.35774l0.00254,0.14778c0,0 0,1 -1,1z"/><path d="M112.56096,163.72087c0,-0.55229 0.44772,-1 1,-1c0.55228,0 1,0.44771 1,1c0,0.55229 -0.44772,1 -1,1c-0.55228,0 -1,-0.44771 -1,-1z"/></g><g fill="#ffffff"><path d="M90.88147,163.93027c-1,0 -1,-1 -1,-1l0.01006,-0.39432c-0.14736,-1.03671 -0.21609,-2.04103 -0.23445,-3.07487c-1.19191,-0.81544 -2.52118,-2.98397 -3.11838,-3.84465c0,0 -0.56921,-0.82219 0.25298,-1.3914c0.82219,-0.56921 1.3914,0.25298 1.3914,0.25298c1.93912,2.80782 2.63675,4.55575 3.80905,0.73433l0.13266,-0.61165c0,0 0.21693,-0.97619 1.19312,-0.75926c0.97619,0.21693 0.75926,1.19312 0.75926,1.19312l-0.17348,0.76596c-0.4145,1.34341 -0.86122,3.33315 -2.24202,3.87785c0.02227,0.86234 0.08471,1.70414 0.20976,2.57475l0.01005,0.67716c0,0 0,1 -1,1z"/><path d="M98.88409,158.52145c0.96476,-0.26311 1.22788,0.70165 1.22788,0.70165l0.2623,1.17624c-0.10871,1.28695 -0.51614,3.68279 -2.37258,3.76053c-1.87703,0.07861 -2.84801,-3.37496 -3.0573,-4.67467c0,0 -0.15206,-0.98837 0.83631,-1.14042c0.98837,-0.15205 1.14043,0.83632 1.14043,0.83632c0.26171,1.80954 1.28383,4.35437 1.45822,1.07575l-0.19691,-0.50752c0,0 -0.26311,-0.96476 0.70165,-1.22788z"/><path d="M108.40789,164.15987c-1,0 -1,-1 -1,-1l0.02561,-0.38742c-0.14391,-0.63103 -0.37576,-1.23877 -0.57123,-1.85578c-0.07311,-0.23077 -0.08598,-0.95903 -0.10877,-0.71803c-0.00956,0.10119 -0.02975,0.19898 -0.05874,0.29389l0.05269,0.01882l-0.37484,1.04956c-0.13179,0.39825 -0.50713,0.68559 -0.94957,0.68559c-0.45784,0 -0.84381,-0.30768 -0.96243,-0.72755l-0.19758,-0.64211c-0.05885,0.71527 -0.20117,1.89171 -0.22261,2.04177c0,0 -0.14142,0.98995 -1.13137,0.84853c-0.98995,-0.14142 -0.84853,-1.13137 -0.84853,-1.13137c0.21813,-1.52687 0.21423,-5.13486 2.9733,-4.30573c0.20137,0.06052 0.34408,0.19931 0.45788,0.37668c0.6802,-0.3709 1.89033,-0.38278 2.60365,0.12507c0.68867,0.4903 1.09969,2.68786 1.28693,3.49095l0.02561,0.83714c0,0 0,1 -1,1z"/><path d="M111.77541,160.10354c-1,0 -1,-1 -1,-1l0.00254,-0.00529c-0.10322,-1.45683 -0.05553,-2.91008 -0.1534,-4.36719c0,0 -0.06652,-0.99779 0.93127,-1.06431c0.99778,-0.06652 1.0643,0.93126 1.0643,0.93126c0.09627,1.4542 0.04806,2.90459 0.15275,4.35774l0.00254,0.14778c0,0 0,1 -1,1z"/><path d="M111.005,162.16493c0,-0.55229 0.44772,-1 1,-1c0.55228,0 1,0.44771 1,1c0,0.55229 -0.44772,1 -1,1c-0.55228,0 -1,-0.44771 -1,-1z"/></g></g></g></g></svg>