<svg version="1.1" xmlns="http://www.w3.org/2000/svg" xmlns:xlink="http://www.w3.org/1999/xlink" width="545.37041" height="409.42402" viewBox="0,0,545.37041,409.42402"><defs><radialGradient cx="239.99999" cy="180" r="272.6852" gradientUnits="userSpaceOnUse" id="color-1"><stop offset="0" stop-color="#000000" stop-opacity="0.05098"/><stop offset="1" stop-color="#000000" stop-opacity="0.74902"/></radialGradient><radialGradient cx="226.42216" cy="222.81317" r="158.34084" gradientUnits="userSpaceOnUse" id="color-2"><stop offset="0" stop-color="#ffba00" stop-opacity="0.50196"/><stop offset="1" stop-color="#ffba00" stop-opacity="0"/></radialGradient><radialGradient cx="230.7602" cy="198.19728" r="35.56162" gradientUnits="userSpaceOnUse" id="color-3"><stop offset="0" stop-color="#ff7800" stop-opacity="0.50196"/><stop offset="1" stop-color="#ff7800" stop-opacity="0"/></radialGradient></defs><g transform="translate(32.6852,24.71201)"><g data-paper-data="{&quot;isPaintingLayer&quot;:true}" fill-rule="nonzero" stroke="none" stroke-linecap="butt" stroke-linejoin="miter" stroke-miterlimit="10" stroke-dasharray="" stroke-dashoffset="0" style="mix-blend-mode: normal"><path d="M-32.6852,384.71201v-409.42402h545.37041v409.42402z" fill="url(#color-1)" stroke-width="0"/><path d="M68.08132,222.81317c0,-87.44923 70.89161,-158.34084 158.34084,-158.34084c87.44923,0 158.34084,70.89161 158.34084,158.34084c0,87.44923 -70.89161,158.34084 -158.34084,158.34084c-87.44923,0 -158.34084,-70.89161 -158.34084,-158.34084z" fill="url(#color-2)" stroke-width="0"/><path d="M195.19858,198.19728c0,-19.64014 15.92148,-35.56162 35.56162,-35.56162c19.64014,0 35.56162,15.92148 35.56162,35.56162c0,19.64014 -15.92148,35.56161 -35.56162,35.56161c-19.64014,0 -35.56162,-15.92147 -35.56162,-35.56161z" fill="url(#color-3)" stroke-width="0"/><path d="M235.74222,218.78054c1.25,0 1.25,1.25 1.25,1.25l-0.00764,0.42805c0.24206,2.20703 0.29069,4.42714 0.29069,6.64809c0,0 0,1.25 -1.25,1.25c-1.25,0 -1.25,-1.25 -1.25,-1.25c0,-2.12729 -0.03721,-4.25869 -0.2754,-6.37201l-0.00764,-0.70413c0,0 0,-1.25 1.25,-1.25z" fill="#4cc7e8" stroke-width="0.5"/><g stroke-width="0.5"><path d="M233.16075,218.7354c1.55349,-0.01601 3.65638,0.04061 4.48456,-0.38455c0.19905,-0.10218 -0.42396,-3.67529 -0.45725,-3.99153c-0.38508,-3.65793 -0.91443,-7.31971 -1.17387,-10.9884c-3.61025,-1.46441 -8.49567,1.7628 -10.35651,4.80713c-0.24683,0.40381 -0.06882,3.1285 -0.19388,4.31352c0.25118,-0.19996 0.58011,-0.40698 0.76394,-0.54453c1.1016,-0.82432 2.15871,-1.58331 3.3326,-2.31699c0.72016,-0.28097 1.44248,-1.12934 2.16048,-0.84289c0.83351,0.33253 1.14451,1.42862 1.43554,2.27751c0.65672,1.9155 -0.22744,5.49615 0.00439,7.67074zM230.85339,219.63771l-0.17464,-0.6013c-0.20303,-1.82729 -0.24889,-3.47253 -0.14726,-5.30199c0.02293,-0.41285 0.01964,-1.17936 0.06186,-1.78883c-1.61225,1.1359 -4.95041,4.20704 -6.70513,3.19392c-0.66422,-0.3835 -0.52921,-1.44326 -0.71018,-2.18858c-0.38143,-1.57082 -0.49283,-4.52186 0.28812,-5.97589c2.66007,-4.95269 9.69092,-8.05044 14.55149,-5.09947c1.22034,4.30931 1.30302,9.03939 1.79737,13.48821c0.17202,1.54814 0.81323,3.65962 -0.59803,4.93124c-1.14139,1.02846 -5.47897,0.80707 -7.01633,0.97789c0,0 -1.24236,0.13804 -1.38039,-1.10432c-0.02286,-0.2058 -0.00785,-0.3813 0.03312,-0.53088z" fill="#dc5f4d"/><path d="M233.10673,211.05855c-0.29103,-0.84889 -0.55591,-1.88904 -1.38942,-2.22156c-0.718,-0.28644 -1.39425,0.53829 -2.11441,0.81925c-1.17389,0.73369 -2.22455,1.45658 -3.32615,2.2809c-0.18383,0.13755 -0.6101,0.36726 -0.86128,0.56722c0.12507,-1.18502 -0.05012,-3.94325 0.1967,-4.34706c1.86085,-3.04433 6.81723,-6.29385 10.42749,-4.82944c0.25944,3.66869 0.8058,7.39989 1.19087,11.05782c0.03329,0.31624 0.64533,3.90178 0.44628,4.00396c-0.82818,0.42515 -2.95269,0.37873 -4.50618,0.39474c-0.23183,-2.17459 0.59281,-5.81032 -0.06391,-7.72582z" data-paper-data="{&quot;noHover&quot;:false,&quot;origItem&quot;:[&quot;Path&quot;,{&quot;applyMatrix&quot;:true,&quot;segments&quot;:[[[466.32145,437.46999],[-0.46366,-4.34917],[3.10699,-0.03201]],[[475.29057,436.7009],[-1.65636,0.85031],[0.3981,-0.20437]],[[474.37608,428.71784],[0.06658,0.63247],[-0.77015,-7.31585]],[[472.02834,406.74105],[0.51888,7.33738],[-7.22051,-2.92882]],[[451.31532,416.3553],[3.72169,-6.08866],[-0.49365,0.80761]],[[450.92755,424.98235],[0.25013,-2.37004],[0.50237,-0.39993]],[[452.45543,423.89328],[-0.36765,0.27511],[2.2032,-1.64864]],[[459.12063,419.25929],[-2.34779,1.46737],[1.44032,-0.56193]],[[463.44159,417.5735],[-1.436,-0.57289],[1.66702,0.66505]],[[466.31267,422.12852],[-0.58207,-1.69778],[1.31344,3.83101]]],&quot;closed&quot;:true}]}" fill="#fd6e5a"/></g><g stroke-width="0.5"><path d="M230.08483,202.02198c-3.31834,-3.06873 -3.38682,-6.13977 -0.56042,-9.61085l1.04949,-1.6792c0.3472,-0.57626 0.97897,-0.96168 1.70077,-0.96168c0.96152,0 1.76332,0.68395 1.94538,1.59188l0.35216,1.58473c0.8266,1.47953 0.51361,5.49225 0.51361,5.49225l-1.64296,3.77135c-1.32939,1.16011 -3.35803,-0.18848 -3.35803,-0.18848z" fill="#fb9801"/><path d="M233.8469,200.82972c-0.00308,0.4451 -0.18011,0.94535 -0.73025,1.4169c-1.50649,1.29128 -2.79776,-0.21521 -2.79776,-0.21521c-1.17235,-1.49818 -1.72158,-3.53041 -1.74865,-5.43257l0.2247,-0.50461l1.10502,-1.76801c0.3472,-0.57626 0.97895,-0.96168 1.70076,-0.96168c0.61292,0 1.16094,0.27791 1.52491,0.71462c0.90325,0.18572 1.58247,0.98527 1.58247,1.94348v2.0218l-0.52563,2.11759c0,0 -0.09273,0.32456 -0.33558,0.66771z" fill="#f3cc02"/></g></g></g></svg>