<svg version="1.1" xmlns="http://www.w3.org/2000/svg" xmlns:xlink="http://www.w3.org/1999/xlink" width="778.31897" height="338.5436" viewBox="0,0,778.31897,338.5436"><g transform="translate(408.36105,-171.00645)"><g data-paper-data="{&quot;isPaintingLayer&quot;:true}" fill-rule="nonzero" stroke-linejoin="miter" stroke-miterlimit="10" stroke-dasharray="" stroke-dashoffset="0" style="mix-blend-mode: normal"><g><g><g><g><g><g><path d="M148.21808,205.1394l38.66338,-16.87687l34.87886,16.87687z" fill="#a7a7a7" stroke="none" stroke-width="0" stroke-linecap="butt"/><path d="M221.55574,205.1394l-38.35653,16.97915l-35.18571,-16.97915z" data-paper-data="{&quot;index&quot;:null}" fill="#bebebe" stroke="none" stroke-width="0" stroke-linecap="butt"/><path d="M182.99271,222.03259l-35.62431,-16.80917l39.63065,-16.91998l35.6243,16.80917z" fill="none" stroke="#a7a7a7" stroke-width="0.5" stroke-linecap="round"/><path d="M147.67715,205.11769l74.58323,-0.06871" fill="none" stroke="#a7a7a7" stroke-width="0.5" stroke-linecap="round"/></g><g><path d="M188.13794,188.11645l38.66338,-16.87687l34.87886,16.87687z" fill="#a7a7a7" stroke="none" stroke-width="0" stroke-linecap="butt"/><path d="M261.47559,188.11645l-38.35653,16.97915l-35.18571,-16.97915z" data-paper-data="{&quot;index&quot;:null}" fill="#bebebe" stroke="none" stroke-width="0" stroke-linecap="butt"/><path d="M222.91256,205.00962l-35.62431,-16.80917l39.63065,-16.91998l35.6243,16.80917z" fill="none" stroke="#a7a7a7" stroke-width="0.5" stroke-linecap="round"/><path d="M187.597,188.09473l74.58323,-0.06871" fill="none" stroke="#a7a7a7" stroke-width="0.5" stroke-linecap="round"/></g></g><g><g><path d="M69.03552,238.93286l38.66338,-16.87687l34.87886,16.87687z" fill="#a7a7a7" stroke="none" stroke-width="0" stroke-linecap="butt"/><path d="M142.3732,238.93286l-38.35653,16.97915l-35.18571,-16.97915z" data-paper-data="{&quot;index&quot;:null}" fill="#bebebe" stroke="none" stroke-width="0" stroke-linecap="butt"/><path d="M103.81013,255.82604l-35.62431,-16.80917l39.63063,-16.91998l35.6243,16.80916z" fill="none" stroke="#a7a7a7" stroke-width="0.5" stroke-linecap="round"/><path d="M143.07782,238.84243l-74.58323,0.06871" fill="none" stroke="#a7a7a7" stroke-width="0.5" stroke-linecap="round"/></g><g><path d="M108.95538,221.9099l38.66338,-16.87687l34.87886,16.87687z" fill="#a7a7a7" stroke="none" stroke-width="0" stroke-linecap="butt"/><path d="M182.29305,221.9099l-38.35653,16.97915l-35.18571,-16.97915z" data-paper-data="{&quot;index&quot;:null}" fill="#bebebe" stroke="none" stroke-width="0" stroke-linecap="butt"/><path d="M143.73,238.80307l-35.62431,-16.80917l39.63065,-16.91998l35.6243,16.80917z" fill="none" stroke="#a7a7a7" stroke-width="0.5" stroke-linecap="round"/><path d="M108.41445,221.88818l74.58323,-0.06871" fill="none" stroke="#a7a7a7" stroke-width="0.5" stroke-linecap="round"/></g></g></g><g><g><g><path d="M-10.43909,272.88822l38.66338,-16.87687l34.87886,16.87687z" fill="#a7a7a7" stroke="none" stroke-width="0" stroke-linecap="butt"/><path d="M62.89856,272.88822l-38.35653,16.97915l-35.18571,-16.97915z" data-paper-data="{&quot;index&quot;:null}" fill="#bebebe" stroke="none" stroke-width="0" stroke-linecap="butt"/><path d="M24.33553,289.78139l-35.62431,-16.80917l39.63065,-16.91998l35.6243,16.80916z" fill="none" stroke="#a7a7a7" stroke-width="0.5" stroke-linecap="round"/><path d="M-10.98004,272.8665l74.58323,-0.06871" fill="none" stroke="#a7a7a7" stroke-width="0.5" stroke-linecap="round"/></g><g><path d="M29.48076,255.86525l38.66338,-16.87687l34.87886,16.87687z" fill="#a7a7a7" stroke="none" stroke-width="0" stroke-linecap="butt"/><path d="M102.8184,255.86525l-38.35653,16.97915l-35.18571,-16.97915z" data-paper-data="{&quot;index&quot;:null}" fill="#bebebe" stroke="none" stroke-width="0" stroke-linecap="butt"/><path d="M64.25538,272.75843l-35.62431,-16.80917l39.63065,-16.91998l35.6243,16.80917z" fill="none" stroke="#a7a7a7" stroke-width="0.5" stroke-linecap="round"/><path d="M28.93982,255.84353l74.58323,-0.06871" fill="none" stroke="#a7a7a7" stroke-width="0.5" stroke-linecap="round"/></g></g><g><g><path d="M-89.62165,306.68165l38.66338,-16.87687l34.87886,16.87687z" fill="#a7a7a7" stroke="none" stroke-width="0" stroke-linecap="butt"/><path d="M-16.28399,306.68165l-38.35653,16.97915l-35.18571,-16.97915z" data-paper-data="{&quot;index&quot;:null}" fill="#bebebe" stroke="none" stroke-width="0" stroke-linecap="butt"/><path d="M-54.84703,323.57482l-35.62431,-16.80917l39.63065,-16.91998l35.6243,16.80916z" fill="none" stroke="#a7a7a7" stroke-width="0.5" stroke-linecap="round"/><path d="M-90.16257,306.65996l74.58323,-0.06871" fill="none" stroke="#a7a7a7" stroke-width="0.5" stroke-linecap="round"/></g><g><path d="M-49.7018,289.6587l38.66338,-16.87687l34.87886,16.87687z" fill="#a7a7a7" stroke="none" stroke-width="0" stroke-linecap="butt"/><path d="M23.63587,289.6587l-38.35653,16.97915l-35.18571,-16.97915z" data-paper-data="{&quot;index&quot;:null}" fill="#bebebe" stroke="none" stroke-width="0" stroke-linecap="butt"/><path d="M-14.92718,306.55188l-35.62431,-16.80917l39.63065,-16.91998l35.6243,16.80916z" fill="none" stroke="#a7a7a7" stroke-width="0.5" stroke-linecap="round"/><path d="M24.34051,289.56827l-74.58323,0.06871" fill="none" stroke="#a7a7a7" stroke-width="0.5" stroke-linecap="round"/></g></g></g></g><g><g><g><g><path d="M-169.06165,340.54796l38.66338,-16.87687l34.87886,16.87687z" fill="#a7a7a7" stroke="none" stroke-width="0" stroke-linecap="butt"/><path d="M-95.72398,340.54796l-38.35651,16.97915l-35.18571,-16.97915z" data-paper-data="{&quot;index&quot;:null}" fill="#bebebe" stroke="none" stroke-width="0" stroke-linecap="butt"/><path d="M-134.28702,357.44113l-35.6243,-16.80917l39.63063,-16.91998l35.6243,16.80917z" fill="none" stroke="#a7a7a7" stroke-width="0.5" stroke-linecap="round"/><path d="M-95.01934,340.45754l-74.58323,0.06871" fill="none" stroke="#a7a7a7" stroke-width="0.5" stroke-linecap="round"/></g><g><path d="M-129.1418,323.52499l38.66338,-16.87687l34.87886,16.87687z" fill="#a7a7a7" stroke="none" stroke-width="0" stroke-linecap="butt"/><path d="M-55.80412,323.52499l-38.35651,16.97915l-35.18571,-16.97915z" data-paper-data="{&quot;index&quot;:null}" fill="#bebebe" stroke="none" stroke-width="0" stroke-linecap="butt"/><path d="M-94.36717,340.41818l-35.6243,-16.80917l39.63063,-16.91998l35.6243,16.80916z" fill="none" stroke="#a7a7a7" stroke-width="0.5" stroke-linecap="round"/><path d="M-129.68272,323.50327l74.58323,-0.06871" fill="none" stroke="#a7a7a7" stroke-width="0.5" stroke-linecap="round"/></g></g><g><g><path d="M-248.24419,374.34142l38.66338,-16.87687l34.87886,16.87687z" fill="#a7a7a7" stroke="none" stroke-width="0" stroke-linecap="butt"/><path d="M-174.90654,374.34142l-38.35651,16.97915l-35.18571,-16.97915z" data-paper-data="{&quot;index&quot;:null}" fill="#bebebe" stroke="none" stroke-width="0" stroke-linecap="butt"/><path d="M-213.46958,391.23458l-35.6243,-16.80917l39.63063,-16.91998l35.6243,16.80916z" fill="none" stroke="#a7a7a7" stroke-width="0.5" stroke-linecap="round"/><path d="M-248.78513,374.31969l74.58323,-0.06871" fill="none" stroke="#a7a7a7" stroke-width="0.5" stroke-linecap="round"/></g><g><path d="M-208.32434,357.31842l38.66338,-16.87687l34.87886,16.87687z" fill="#a7a7a7" stroke="none" stroke-width="0" stroke-linecap="butt"/><path d="M-134.98668,357.31842l-38.35651,16.97915l-35.18571,-16.97915z" data-paper-data="{&quot;index&quot;:null}" fill="#bebebe" stroke="none" stroke-width="0" stroke-linecap="butt"/><path d="M-173.54972,374.21163l-35.6243,-16.80917l39.63063,-16.91998l35.6243,16.80917z" fill="none" stroke="#a7a7a7" stroke-width="0.5" stroke-linecap="round"/><path d="M-208.86529,357.29673l74.58323,-0.06871" fill="none" stroke="#a7a7a7" stroke-width="0.5" stroke-linecap="round"/></g></g></g><g><g><g><path d="M-327.71883,408.29675l38.66338,-16.87687l34.87886,16.87687z" fill="#a7a7a7" stroke="none" stroke-width="0" stroke-linecap="butt"/><path d="M-254.38115,408.29675l-38.35653,16.97915l-35.18571,-16.97915z" data-paper-data="{&quot;index&quot;:null}" fill="#bebebe" stroke="none" stroke-width="0" stroke-linecap="butt"/><path d="M-292.9442,425.18995l-35.62431,-16.80917l39.63065,-16.91998l35.6243,16.80916z" fill="none" stroke="#a7a7a7" stroke-width="0.5" stroke-linecap="round"/><path d="M-328.25975,408.27503l74.58323,-0.06871" fill="none" stroke="#a7a7a7" stroke-width="0.5" stroke-linecap="round"/></g><g><path d="M-287.79898,391.27381l38.66338,-16.87687l34.87886,16.87687z" fill="#a7a7a7" stroke="none" stroke-width="0" stroke-linecap="butt"/><path d="M-214.4613,391.27381l-38.35653,16.97915l-35.18571,-16.97915z" data-paper-data="{&quot;index&quot;:null}" fill="#bebebe" stroke="none" stroke-width="0" stroke-linecap="butt"/><path d="M-253.02435,408.16698l-35.62431,-16.80917l39.63065,-16.91998l35.6243,16.80917z" fill="none" stroke="#a7a7a7" stroke-width="0.5" stroke-linecap="round"/><path d="M-213.75667,391.18336l-74.58323,0.06871" fill="none" stroke="#a7a7a7" stroke-width="0.5" stroke-linecap="round"/></g></g><g><g><path d="M-406.9014,442.09022l38.66338,-16.87687l34.87886,16.87687z" fill="#a7a7a7" stroke="none" stroke-width="0" stroke-linecap="butt"/><path d="M-333.56371,442.09022l-38.35651,16.97915l-35.18571,-16.97915z" data-paper-data="{&quot;index&quot;:null}" fill="#bebebe" stroke="none" stroke-width="0" stroke-linecap="butt"/><path d="M-372.12675,458.9834l-35.6243,-16.80917l39.63063,-16.91998l35.6243,16.80917z" fill="none" stroke="#a7a7a7" stroke-width="0.5" stroke-linecap="round"/><path d="M-332.85908,441.99978l-74.58323,0.06871" fill="none" stroke="#a7a7a7" stroke-width="0.5" stroke-linecap="round"/></g><g><path d="M-366.98154,425.06726l38.66338,-16.87687l34.87886,16.87687z" fill="#a7a7a7" stroke="none" stroke-width="0" stroke-linecap="butt"/><path d="M-293.64386,425.06726l-38.35653,16.97915l-35.18571,-16.97915z" data-paper-data="{&quot;index&quot;:null}" fill="#bebebe" stroke="none" stroke-width="0" stroke-linecap="butt"/><path d="M-332.20689,441.96043l-35.6243,-16.80917l39.63063,-16.91998l35.6243,16.80916z" fill="none" stroke="#a7a7a7" stroke-width="0.5" stroke-linecap="round"/><path d="M-367.52247,425.04554l74.58323,-0.06871" fill="none" stroke="#a7a7a7" stroke-width="0.5" stroke-linecap="round"/></g></g></g></g></g><g><g><g><g><g><path d="M183.83909,221.93501l38.66338,-16.87687l34.87886,16.87687z" fill="#a7a7a7" stroke="none" stroke-width="0" stroke-linecap="butt"/><path d="M257.17676,221.93501l-38.35653,16.97915l-35.18571,-16.97915z" data-paper-data="{&quot;index&quot;:null}" fill="#bebebe" stroke="none" stroke-width="0" stroke-linecap="butt"/><path d="M218.61371,238.8282l-35.62431,-16.80917l39.63065,-16.91998l35.6243,16.80916z" fill="none" stroke="#a7a7a7" stroke-width="0.5" stroke-linecap="round"/><path d="M183.29816,221.91329l74.58323,-0.06871" fill="none" stroke="#a7a7a7" stroke-width="0.5" stroke-linecap="round"/></g><g><path d="M223.75894,204.91205l38.66338,-16.87687l34.87886,16.87687z" fill="#a7a7a7" stroke="none" stroke-width="0" stroke-linecap="butt"/><path d="M297.09661,204.91205l-38.35651,16.97915l-35.18571,-16.97915z" data-paper-data="{&quot;index&quot;:null}" fill="#bebebe" stroke="none" stroke-width="0" stroke-linecap="butt"/><path d="M258.53355,221.80522l-35.62431,-16.80917l39.63065,-16.91998l35.6243,16.80917z" fill="none" stroke="#a7a7a7" stroke-width="0.5" stroke-linecap="round"/><path d="M297.80125,204.82163l-74.58323,0.06871" fill="none" stroke="#a7a7a7" stroke-width="0.5" stroke-linecap="round"/></g></g><g><g><path d="M104.65654,255.72846l38.66338,-16.87687l34.87886,16.87687z" fill="#a7a7a7" stroke="none" stroke-width="0" stroke-linecap="butt"/><path d="M177.9942,255.72846l-38.35653,16.97915l-35.18571,-16.97915z" data-paper-data="{&quot;index&quot;:null}" fill="#bebebe" stroke="none" stroke-width="0" stroke-linecap="butt"/><path d="M139.43117,272.62165l-35.62431,-16.80917l39.63065,-16.91998l35.6243,16.80917z" fill="none" stroke="#a7a7a7" stroke-width="0.5" stroke-linecap="round"/><path d="M178.69884,255.63804l-74.58323,0.06871" fill="none" stroke="#a7a7a7" stroke-width="0.5" stroke-linecap="round"/></g><g><path d="M144.5764,238.70551l38.66338,-16.87687l34.87886,16.87687z" fill="#a7a7a7" stroke="none" stroke-width="0" stroke-linecap="butt"/><path d="M217.91405,238.70551l-38.35651,16.97915l-35.18571,-16.97915z" data-paper-data="{&quot;index&quot;:null}" fill="#bebebe" stroke="none" stroke-width="0" stroke-linecap="butt"/><path d="M179.35102,255.59867l-35.62431,-16.80917l39.63065,-16.91998l35.6243,16.80916z" fill="none" stroke="#a7a7a7" stroke-width="0.5" stroke-linecap="round"/><path d="M218.61869,238.61508l-74.58323,0.06871" fill="none" stroke="#a7a7a7" stroke-width="0.5" stroke-linecap="round"/></g></g></g><g><g><g><path d="M25.18191,289.68383l38.66338,-16.87687l34.87886,16.87687z" fill="#a7a7a7" stroke="none" stroke-width="0" stroke-linecap="butt"/><path d="M98.51958,289.68383l-38.35653,16.97915l-35.18571,-16.97915z" data-paper-data="{&quot;index&quot;:null}" fill="#bebebe" stroke="none" stroke-width="0" stroke-linecap="butt"/><path d="M59.95653,306.57698l-35.62431,-16.80917l39.63065,-16.91998l35.6243,16.80916z" fill="none" stroke="#a7a7a7" stroke-width="0.5" stroke-linecap="round"/><path d="M24.64099,289.66211l74.58323,-0.06871" fill="none" stroke="#a7a7a7" stroke-width="0.5" stroke-linecap="round"/></g><g><path d="M65.10176,272.66085l38.66336,-16.87687l34.87886,16.87687z" fill="#a7a7a7" stroke="none" stroke-width="0" stroke-linecap="butt"/><path d="M138.43943,272.66085l-38.35651,16.97915l-35.18571,-16.97915z" data-paper-data="{&quot;index&quot;:null}" fill="#bebebe" stroke="none" stroke-width="0" stroke-linecap="butt"/><path d="M99.87639,289.55404l-35.62431,-16.80917l39.63063,-16.91998l35.6243,16.80917z" fill="none" stroke="#a7a7a7" stroke-width="0.5" stroke-linecap="round"/><path d="M64.56084,272.63912l74.58323,-0.06871" fill="none" stroke="#a7a7a7" stroke-width="0.5" stroke-linecap="round"/></g></g><g><g><path d="M-54.00063,323.47728l38.66338,-16.87687l34.87886,16.87687z" fill="#a7a7a7" stroke="none" stroke-width="0" stroke-linecap="butt"/><path d="M19.33702,323.47728l-38.35653,16.97915l-35.18571,-16.97915z" data-paper-data="{&quot;index&quot;:null}" fill="#bebebe" stroke="none" stroke-width="0" stroke-linecap="butt"/><path d="M-19.22601,340.37045l-35.62431,-16.80917l39.63065,-16.91998l35.6243,16.80917z" fill="none" stroke="#a7a7a7" stroke-width="0.5" stroke-linecap="round"/><path d="M20.04166,323.38684l-74.58323,0.06871" fill="none" stroke="#a7a7a7" stroke-width="0.5" stroke-linecap="round"/></g><g><path d="M-14.08078,306.4543l38.66338,-16.87687l34.87886,16.87687z" fill="#a7a7a7" stroke="none" stroke-width="0" stroke-linecap="butt"/><path d="M59.25687,306.4543l-38.35653,16.97915l-35.18571,-16.97915z" data-paper-data="{&quot;index&quot;:null}" fill="#bebebe" stroke="none" stroke-width="0" stroke-linecap="butt"/><path d="M20.69384,323.34747l-35.62431,-16.80917l39.63065,-16.91998l35.6243,16.80916z" fill="none" stroke="#a7a7a7" stroke-width="0.5" stroke-linecap="round"/><path d="M-14.62172,306.43258l74.58323,-0.06871" fill="none" stroke="#a7a7a7" stroke-width="0.5" stroke-linecap="round"/></g></g></g></g><g><g><g><g><path d="M-133.44063,357.34357l38.66338,-16.87687l34.87886,16.87687z" fill="#a7a7a7" stroke="none" stroke-width="0" stroke-linecap="butt"/><path d="M-60.10297,357.34357l-38.35651,16.97915l-35.18571,-16.97915z" data-paper-data="{&quot;index&quot;:null}" fill="#bebebe" stroke="none" stroke-width="0" stroke-linecap="butt"/><path d="M-98.66601,374.23672l-35.6243,-16.80917l39.63065,-16.91998l35.6243,16.80917z" fill="none" stroke="#a7a7a7" stroke-width="0.5" stroke-linecap="round"/><path d="M-59.39834,357.25314l-74.58323,0.06871" fill="none" stroke="#a7a7a7" stroke-width="0.5" stroke-linecap="round"/></g><g><path d="M-93.52078,340.3206l38.66338,-16.87687l34.87886,16.87687z" fill="#a7a7a7" stroke="none" stroke-width="0" stroke-linecap="butt"/><path d="M-20.18312,340.3206l-38.35653,16.97915l-35.18571,-16.97915z" data-paper-data="{&quot;index&quot;:null}" fill="#bebebe" stroke="none" stroke-width="0" stroke-linecap="butt"/><path d="M-58.74615,357.21378l-35.62431,-16.80917l39.63063,-16.91998l35.6243,16.80917z" fill="none" stroke="#a7a7a7" stroke-width="0.5" stroke-linecap="round"/><path d="M-19.47849,340.23017l-74.58323,0.06871" fill="none" stroke="#a7a7a7" stroke-width="0.5" stroke-linecap="round"/></g></g><g><g><path d="M-212.62319,391.13701l38.66338,-16.87687l34.87886,16.87687z" fill="#a7a7a7" stroke="none" stroke-width="0" stroke-linecap="butt"/><path d="M-139.28552,391.13701l-38.35651,16.97915l-35.18571,-16.97915z" data-paper-data="{&quot;index&quot;:null}" fill="#bebebe" stroke="none" stroke-width="0" stroke-linecap="butt"/><path d="M-177.84856,408.03019l-35.6243,-16.80917l39.63065,-16.91998l35.6243,16.80917z" fill="none" stroke="#a7a7a7" stroke-width="0.5" stroke-linecap="round"/><path d="M-138.58088,391.04659l-74.58323,0.06871" fill="none" stroke="#a7a7a7" stroke-width="0.5" stroke-linecap="round"/></g><g><path d="M-172.70334,374.11405l38.66338,-16.87687l34.87886,16.87687z" fill="#a7a7a7" stroke="none" stroke-width="0" stroke-linecap="butt"/><path d="M-99.36567,374.11405l-38.35651,16.97915l-35.18571,-16.97915z" data-paper-data="{&quot;index&quot;:null}" fill="#bebebe" stroke="none" stroke-width="0" stroke-linecap="butt"/><path d="M-137.92872,391.00723l-35.62431,-16.80917l39.63065,-16.91998l35.6243,16.80916z" fill="none" stroke="#a7a7a7" stroke-width="0.5" stroke-linecap="round"/><path d="M-98.66103,374.02362l-74.58323,0.06871" fill="none" stroke="#a7a7a7" stroke-width="0.5" stroke-linecap="round"/></g></g></g><g><g><g><path d="M-292.09782,425.09237l38.66338,-16.87687l34.87886,16.87687z" fill="#a7a7a7" stroke="none" stroke-width="0" stroke-linecap="butt"/><path d="M-218.76015,425.09237l-38.35653,16.97915l-35.18571,-16.97915z" data-paper-data="{&quot;index&quot;:null}" fill="#bebebe" stroke="none" stroke-width="0" stroke-linecap="butt"/><path d="M-257.32319,441.98556l-35.62431,-16.80917l39.63065,-16.91998l35.6243,16.80917z" fill="none" stroke="#a7a7a7" stroke-width="0.5" stroke-linecap="round"/><path d="M-292.63875,425.07065l74.58323,-0.06871" fill="none" stroke="#a7a7a7" stroke-width="0.5" stroke-linecap="round"/></g><g><path d="M-252.17796,408.06941l38.66338,-16.87687l34.87886,16.87687z" fill="#a7a7a7" stroke="none" stroke-width="0" stroke-linecap="butt"/><path d="M-178.8403,408.06941l-38.35651,16.97915l-35.18571,-16.97915z" data-paper-data="{&quot;index&quot;:null}" fill="#bebebe" stroke="none" stroke-width="0" stroke-linecap="butt"/><path d="M-217.40333,424.96258l-35.62431,-16.80917l39.63065,-16.91998l35.6243,16.80916z" fill="none" stroke="#a7a7a7" stroke-width="0.5" stroke-linecap="round"/><path d="M-178.13567,407.97898l-74.58323,0.06871" fill="none" stroke="#a7a7a7" stroke-width="0.5" stroke-linecap="round"/></g></g><g><g><path d="M-371.28037,458.88582l38.66338,-16.87687l34.87886,16.87687z" fill="#a7a7a7" stroke="none" stroke-width="0" stroke-linecap="butt"/><path d="M-297.94269,458.88582l-38.35653,16.97915l-35.18571,-16.97915z" data-paper-data="{&quot;index&quot;:null}" fill="#bebebe" stroke="none" stroke-width="0" stroke-linecap="butt"/><path d="M-336.50574,475.77901l-35.6243,-16.80917l39.63063,-16.91998l35.6243,16.80916z" fill="none" stroke="#a7a7a7" stroke-width="0.5" stroke-linecap="round"/><path d="M-297.23806,458.7954l-74.58323,0.06871" fill="none" stroke="#a7a7a7" stroke-width="0.5" stroke-linecap="round"/></g><g><path d="M-331.36052,441.86283l38.66338,-16.87687l34.87886,16.87687z" fill="#a7a7a7" stroke="none" stroke-width="0" stroke-linecap="butt"/><path d="M-258.02284,441.86283l-38.35651,16.97915l-35.18571,-16.97915z" data-paper-data="{&quot;index&quot;:null}" fill="#bebebe" stroke="none" stroke-width="0" stroke-linecap="butt"/><path d="M-296.58589,458.75603l-35.62431,-16.80917l39.63065,-16.91998l35.6243,16.80916z" fill="none" stroke="#a7a7a7" stroke-width="0.5" stroke-linecap="round"/><path d="M-257.31821,441.77244l-74.58323,0.06871" fill="none" stroke="#a7a7a7" stroke-width="0.5" stroke-linecap="round"/></g></g></g></g></g></g><g><g><g><g><g><g><path d="M219.40178,238.63643l38.66338,-16.87687l34.87886,16.87687z" fill="#a7a7a7" stroke="none" stroke-width="0" stroke-linecap="butt"/><path d="M292.73944,238.63643l-38.35651,16.97915l-35.18571,-16.97915z" data-paper-data="{&quot;index&quot;:null}" fill="#bebebe" stroke="none" stroke-width="0" stroke-linecap="butt"/><path d="M254.17641,255.52962l-35.62431,-16.80917l39.63065,-16.91998l35.6243,16.80917z" fill="none" stroke="#a7a7a7" stroke-width="0.5" stroke-linecap="round"/><path d="M218.86084,238.61472l74.58323,-0.06871" fill="none" stroke="#a7a7a7" stroke-width="0.5" stroke-linecap="round"/></g><g><path d="M259.32163,221.61348l38.66336,-16.87687l34.87886,16.87687z" fill="#a7a7a7" stroke="none" stroke-width="0" stroke-linecap="butt"/><path d="M332.65929,221.61348l-38.35651,16.97915l-35.18571,-16.97915z" data-paper-data="{&quot;index&quot;:null}" fill="#bebebe" stroke="none" stroke-width="0" stroke-linecap="butt"/><path d="M294.09626,238.50665l-35.6243,-16.80917l39.63063,-16.91998l35.6243,16.80917z" fill="none" stroke="#a7a7a7" stroke-width="0.5" stroke-linecap="round"/><path d="M333.36393,221.52305l-74.58323,0.06871" fill="none" stroke="#a7a7a7" stroke-width="0.5" stroke-linecap="round"/></g></g><g><g><path d="M140.2192,272.42987l38.66338,-16.87687l34.87886,16.87687z" fill="#a7a7a7" stroke="none" stroke-width="0" stroke-linecap="butt"/><path d="M213.5569,272.42987l-38.35651,16.97915l-35.18571,-16.97915z" data-paper-data="{&quot;index&quot;:null}" fill="#bebebe" stroke="none" stroke-width="0" stroke-linecap="butt"/><path d="M174.99385,289.32307l-35.62431,-16.80917l39.63065,-16.91998l35.6243,16.80916z" fill="none" stroke="#a7a7a7" stroke-width="0.5" stroke-linecap="round"/><path d="M139.67828,272.40817l74.58323,-0.06871" fill="none" stroke="#a7a7a7" stroke-width="0.5" stroke-linecap="round"/></g><g><path d="M180.13908,255.40693l38.66338,-16.87687l34.87886,16.87687z" fill="#a7a7a7" stroke="none" stroke-width="0" stroke-linecap="butt"/><path d="M253.47675,255.40693l-38.35653,16.97915l-35.18571,-16.97915z" data-paper-data="{&quot;index&quot;:null}" fill="#bebebe" stroke="none" stroke-width="0" stroke-linecap="butt"/><path d="M214.9137,272.3001l-35.62431,-16.80917l39.63065,-16.91998l35.6243,16.80917z" fill="none" stroke="#a7a7a7" stroke-width="0.5" stroke-linecap="round"/><path d="M179.59815,255.38521l74.58323,-0.06871" fill="none" stroke="#a7a7a7" stroke-width="0.5" stroke-linecap="round"/></g></g></g><g><g><g><path d="M60.74461,306.38525l38.66338,-16.87687l34.87886,16.87687z" fill="#a7a7a7" stroke="none" stroke-width="0" stroke-linecap="butt"/><path d="M134.08226,306.38525l-38.35653,16.97915l-35.18571,-16.97915z" data-paper-data="{&quot;index&quot;:null}" fill="#bebebe" stroke="none" stroke-width="0" stroke-linecap="butt"/><path d="M95.51923,323.27842l-35.62431,-16.80917l39.63063,-16.91998l35.6243,16.80916z" fill="none" stroke="#a7a7a7" stroke-width="0.5" stroke-linecap="round"/><path d="M134.78688,306.29482l-74.58323,0.06871" fill="none" stroke="#a7a7a7" stroke-width="0.5" stroke-linecap="round"/></g><g><path d="M100.66446,289.36226l38.66338,-16.87687l34.87886,16.87687z" fill="#a7a7a7" stroke="none" stroke-width="0" stroke-linecap="butt"/><path d="M174.00211,289.36226l-38.35653,16.97915l-35.18571,-16.97915z" data-paper-data="{&quot;index&quot;:null}" fill="#bebebe" stroke="none" stroke-width="0" stroke-linecap="butt"/><path d="M135.43908,306.25546l-35.62431,-16.80917l39.63065,-16.91998l35.6243,16.80917z" fill="none" stroke="#a7a7a7" stroke-width="0.5" stroke-linecap="round"/><path d="M100.12352,289.34056l74.58323,-0.06871" fill="none" stroke="#a7a7a7" stroke-width="0.5" stroke-linecap="round"/></g></g><g><g><path d="M-18.43795,340.1787l38.66338,-16.87687l34.87886,16.87687z" fill="#a7a7a7" stroke="none" stroke-width="0" stroke-linecap="butt"/><path d="M54.89972,340.1787l-38.35651,16.97915l-35.18571,-16.97915z" data-paper-data="{&quot;index&quot;:null}" fill="#bebebe" stroke="none" stroke-width="0" stroke-linecap="butt"/><path d="M16.33667,357.07187l-35.6243,-16.80917l39.63063,-16.91998l35.6243,16.80916z" fill="none" stroke="#a7a7a7" stroke-width="0.5" stroke-linecap="round"/><path d="M-18.97888,340.15699l74.58323,-0.06871" fill="none" stroke="#a7a7a7" stroke-width="0.5" stroke-linecap="round"/></g><g><path d="M21.4819,323.15573l38.66338,-16.87687l34.87886,16.87687z" fill="#a7a7a7" stroke="none" stroke-width="0" stroke-linecap="butt"/><path d="M94.81957,323.15573l-38.35653,16.97915l-35.18571,-16.97915z" data-paper-data="{&quot;index&quot;:null}" fill="#bebebe" stroke="none" stroke-width="0" stroke-linecap="butt"/><path d="M56.25652,340.04891l-35.6243,-16.80917l39.63063,-16.91998l35.6243,16.80916z" fill="none" stroke="#a7a7a7" stroke-width="0.5" stroke-linecap="round"/><path d="M95.52421,323.0653l-74.58323,0.06871" fill="none" stroke="#a7a7a7" stroke-width="0.5" stroke-linecap="round"/></g></g></g></g><g><g><g><g><path d="M-97.87795,374.04499l38.66338,-16.87687l34.87886,16.87687z" fill="#a7a7a7" stroke="none" stroke-width="0" stroke-linecap="butt"/><path d="M-24.54028,374.04499l-38.35651,16.97915l-35.18571,-16.97915z" data-paper-data="{&quot;index&quot;:null}" fill="#bebebe" stroke="none" stroke-width="0" stroke-linecap="butt"/><path d="M-63.10333,390.93815l-35.6243,-16.80917l39.63065,-16.91998l35.6243,16.80916z" fill="none" stroke="#a7a7a7" stroke-width="0.5" stroke-linecap="round"/><path d="M-23.83564,373.95457l-74.58323,0.06871" fill="none" stroke="#a7a7a7" stroke-width="0.5" stroke-linecap="round"/></g><g><path d="M-57.9581,357.02202l38.66338,-16.87687l34.87886,16.87687z" fill="#a7a7a7" stroke="none" stroke-width="0" stroke-linecap="butt"/><path d="M15.37957,357.02202l-38.35651,16.97915l-35.18571,-16.97915z" data-paper-data="{&quot;index&quot;:null}" fill="#bebebe" stroke="none" stroke-width="0" stroke-linecap="butt"/><path d="M-23.18349,373.91519l-35.6243,-16.80917l39.63063,-16.91998l35.6243,16.80917z" fill="none" stroke="#a7a7a7" stroke-width="0.5" stroke-linecap="round"/><path d="M16.08421,356.93159l-74.58323,0.06871" fill="none" stroke="#a7a7a7" stroke-width="0.5" stroke-linecap="round"/></g></g><g><g><path d="M-177.06049,407.83845l38.66338,-16.87687l34.87886,16.87687z" fill="#a7a7a7" stroke="none" stroke-width="0" stroke-linecap="butt"/><path d="M-103.72284,407.83845l-38.35651,16.97915l-35.18571,-16.97915z" data-paper-data="{&quot;index&quot;:null}" fill="#bebebe" stroke="none" stroke-width="0" stroke-linecap="butt"/><path d="M-142.28587,424.73161l-35.6243,-16.80917l39.63063,-16.91998l35.6243,16.80916z" fill="none" stroke="#a7a7a7" stroke-width="0.5" stroke-linecap="round"/><path d="M-177.60143,407.81672l74.58323,-0.06871" fill="none" stroke="#a7a7a7" stroke-width="0.5" stroke-linecap="round"/></g><g><path d="M-137.14064,390.81547l38.66338,-16.87687l34.87886,16.87687z" fill="#a7a7a7" stroke="none" stroke-width="0" stroke-linecap="butt"/><path d="M-63.80299,390.81547l-38.35651,16.97915l-35.18571,-16.97915z" data-paper-data="{&quot;index&quot;:null}" fill="#bebebe" stroke="none" stroke-width="0" stroke-linecap="butt"/><path d="M-102.36602,407.70866l-35.6243,-16.80917l39.63065,-16.91998l35.6243,16.80916z" fill="none" stroke="#a7a7a7" stroke-width="0.5" stroke-linecap="round"/><path d="M-63.09836,390.72504l-74.58323,0.06871" fill="none" stroke="#a7a7a7" stroke-width="0.5" stroke-linecap="round"/></g></g></g><g><g><g><path d="M-256.53514,441.79379l38.66338,-16.87687l34.87886,16.87687z" fill="#a7a7a7" stroke="none" stroke-width="0" stroke-linecap="butt"/><path d="M-183.19746,441.79379l-38.35651,16.97915l-35.18571,-16.97915z" data-paper-data="{&quot;index&quot;:null}" fill="#bebebe" stroke="none" stroke-width="0" stroke-linecap="butt"/><path d="M-221.7605,458.68698l-35.6243,-16.80917l39.63063,-16.91998l35.6243,16.80916z" fill="none" stroke="#a7a7a7" stroke-width="0.5" stroke-linecap="round"/><path d="M-257.07605,441.77206l74.58323,-0.06871" fill="none" stroke="#a7a7a7" stroke-width="0.5" stroke-linecap="round"/></g><g><path d="M-216.61528,424.77084l38.66336,-16.87687l34.87886,16.87687z" fill="#a7a7a7" stroke="none" stroke-width="0" stroke-linecap="butt"/><path d="M-143.2776,424.77084l-38.35651,16.97915l-35.18571,-16.97915z" data-paper-data="{&quot;index&quot;:null}" fill="#bebebe" stroke="none" stroke-width="0" stroke-linecap="butt"/><path d="M-181.84065,441.664l-35.6243,-16.80917l39.63063,-16.91998l35.6243,16.80916z" fill="none" stroke="#a7a7a7" stroke-width="0.5" stroke-linecap="round"/><path d="M-142.57298,424.68039l-74.58323,0.06871" fill="none" stroke="#a7a7a7" stroke-width="0.5" stroke-linecap="round"/></g></g><g><g><path d="M-335.71767,475.58724l38.66338,-16.87687l34.87886,16.87687z" fill="#a7a7a7" stroke="none" stroke-width="0" stroke-linecap="butt"/><path d="M-262.38002,475.58724l-38.35651,16.97915l-35.18571,-16.97915z" data-paper-data="{&quot;index&quot;:null}" fill="#bebebe" stroke="none" stroke-width="0" stroke-linecap="butt"/><path d="M-300.94305,492.48043l-35.62431,-16.80917l39.63063,-16.91998l35.6243,16.80916z" fill="none" stroke="#a7a7a7" stroke-width="0.5" stroke-linecap="round"/><path d="M-336.25862,475.56553l74.58323,-0.06871" fill="none" stroke="#a7a7a7" stroke-width="0.5" stroke-linecap="round"/></g><g><path d="M-295.79782,458.56429l38.66338,-16.87687l34.87886,16.87687z" fill="#a7a7a7" stroke="none" stroke-width="0" stroke-linecap="butt"/><path d="M-222.46016,458.56429l-38.35651,16.97915l-35.18571,-16.97915z" data-paper-data="{&quot;index&quot;:null}" fill="#bebebe" stroke="none" stroke-width="0" stroke-linecap="butt"/><path d="M-261.02319,475.45744l-35.62431,-16.80917l39.63063,-16.91998l35.6243,16.80916z" fill="none" stroke="#a7a7a7" stroke-width="0.5" stroke-linecap="round"/><path d="M-296.33877,458.54257l74.58323,-0.06871" fill="none" stroke="#a7a7a7" stroke-width="0.5" stroke-linecap="round"/></g></g></g></g></g><g><g><g><g><g><path d="M255.02279,255.43204l38.66336,-16.87687l34.87886,16.87687z" fill="#a7a7a7" stroke="none" stroke-width="0" stroke-linecap="butt"/><path d="M328.36046,255.43204l-38.35651,16.97915l-35.18571,-16.97915z" data-paper-data="{&quot;index&quot;:null}" fill="#bebebe" stroke="none" stroke-width="0" stroke-linecap="butt"/><path d="M289.79741,272.32523l-35.62431,-16.80917l39.63065,-16.91998l35.6243,16.80916z" fill="none" stroke="#a7a7a7" stroke-width="0.5" stroke-linecap="round"/><path d="M329.06509,255.34161l-74.58323,0.06871" fill="none" stroke="#a7a7a7" stroke-width="0.5" stroke-linecap="round"/></g><g><path d="M294.94264,238.40908l38.66336,-16.87687l34.87886,16.87687z" fill="#a7a7a7" stroke="none" stroke-width="0" stroke-linecap="butt"/><path d="M368.28031,238.40908l-38.35651,16.97915l-35.18571,-16.97915z" data-paper-data="{&quot;index&quot;:null}" fill="#bebebe" stroke="none" stroke-width="0" stroke-linecap="butt"/><path d="M329.71726,255.30225l-35.6243,-16.80917l39.63065,-16.91998l35.6243,16.80917z" fill="none" stroke="#a7a7a7" stroke-width="0.5" stroke-linecap="round"/><path d="M368.98495,238.31866l-74.58323,0.06871" fill="none" stroke="#a7a7a7" stroke-width="0.5" stroke-linecap="round"/></g></g><g><g><path d="M175.84024,289.22549l38.66338,-16.87687l34.87886,16.87687z" fill="#a7a7a7" stroke="none" stroke-width="0" stroke-linecap="butt"/><path d="M249.1779,289.22549l-38.35653,16.97915l-35.18571,-16.97915z" data-paper-data="{&quot;index&quot;:null}" fill="#bebebe" stroke="none" stroke-width="0" stroke-linecap="butt"/><path d="M210.61487,306.11868l-35.62431,-16.80917l39.63065,-16.91998l35.6243,16.80917z" fill="none" stroke="#a7a7a7" stroke-width="0.5" stroke-linecap="round"/><path d="M249.88253,289.13506l-74.58323,0.06871" fill="none" stroke="#a7a7a7" stroke-width="0.5" stroke-linecap="round"/></g><g><path d="M215.76009,272.20252l38.66338,-16.87687l34.87886,16.87687z" fill="#a7a7a7" stroke="none" stroke-width="0" stroke-linecap="butt"/><path d="M289.09774,272.20252l-38.35653,16.97915l-35.18571,-16.97915z" data-paper-data="{&quot;index&quot;:null}" fill="#bebebe" stroke="none" stroke-width="0" stroke-linecap="butt"/><path d="M250.53472,289.09569l-35.62431,-16.80917l39.63065,-16.91998l35.6243,16.80916z" fill="none" stroke="#a7a7a7" stroke-width="0.5" stroke-linecap="round"/><path d="M215.21916,272.18082l74.58323,-0.06871" fill="none" stroke="#a7a7a7" stroke-width="0.5" stroke-linecap="round"/></g></g></g><g><g><g><path d="M96.36561,323.18084l38.66338,-16.87687l34.87886,16.87687z" fill="#a7a7a7" stroke="none" stroke-width="0" stroke-linecap="butt"/><path d="M169.70328,323.18084l-38.35653,16.97915l-35.18571,-16.97915z" data-paper-data="{&quot;index&quot;:null}" fill="#bebebe" stroke="none" stroke-width="0" stroke-linecap="butt"/><path d="M131.14022,340.07403l-35.62431,-16.80917l39.63065,-16.91998l35.6243,16.80916z" fill="none" stroke="#a7a7a7" stroke-width="0.5" stroke-linecap="round"/><path d="M170.40792,323.09043l-74.58323,0.06871" fill="none" stroke="#a7a7a7" stroke-width="0.5" stroke-linecap="round"/></g><g><path d="M136.28546,306.15788l38.66338,-16.87687l34.87886,16.87687z" fill="#a7a7a7" stroke="none" stroke-width="0" stroke-linecap="butt"/><path d="M209.62313,306.15788l-38.35653,16.97915l-35.18571,-16.97915z" data-paper-data="{&quot;index&quot;:null}" fill="#bebebe" stroke="none" stroke-width="0" stroke-linecap="butt"/><path d="M171.06009,323.05107l-35.62431,-16.80917l39.63065,-16.91998l35.6243,16.80917z" fill="none" stroke="#a7a7a7" stroke-width="0.5" stroke-linecap="round"/><path d="M135.74454,306.13617l74.58323,-0.06871" fill="none" stroke="#a7a7a7" stroke-width="0.5" stroke-linecap="round"/></g></g><g><g><path d="M17.18307,356.97431l38.66338,-16.87687l34.87886,16.87687z" fill="#a7a7a7" stroke="none" stroke-width="0" stroke-linecap="butt"/><path d="M90.52072,356.97431l-38.35653,16.97915l-35.18571,-16.97915z" data-paper-data="{&quot;index&quot;:null}" fill="#bebebe" stroke="none" stroke-width="0" stroke-linecap="butt"/><path d="M51.95769,373.86748l-35.62431,-16.80917l39.63063,-16.91998l35.6243,16.80916z" fill="none" stroke="#a7a7a7" stroke-width="0.5" stroke-linecap="round"/><path d="M91.22536,356.88388l-74.58323,0.06871" fill="none" stroke="#a7a7a7" stroke-width="0.5" stroke-linecap="round"/></g><g><path d="M57.10292,339.95133l38.66338,-16.87687l34.87886,16.87687z" fill="#a7a7a7" stroke="none" stroke-width="0" stroke-linecap="butt"/><path d="M130.44057,339.95133l-38.35653,16.97915l-35.18571,-16.97915z" data-paper-data="{&quot;index&quot;:null}" fill="#bebebe" stroke="none" stroke-width="0" stroke-linecap="butt"/><path d="M91.87754,356.84452l-35.62431,-16.80917l39.63063,-16.91998l35.6243,16.80916z" fill="none" stroke="#a7a7a7" stroke-width="0.5" stroke-linecap="round"/><path d="M131.14521,339.86091l-74.58323,0.06871" fill="none" stroke="#a7a7a7" stroke-width="0.5" stroke-linecap="round"/></g></g></g></g><g><g><g><g><path d="M-62.25693,390.8406l38.66338,-16.87687l34.87886,16.87687z" fill="#a7a7a7" stroke="none" stroke-width="0" stroke-linecap="butt"/><path d="M11.08072,390.8406l-38.35651,16.97915l-35.18571,-16.97915z" data-paper-data="{&quot;index&quot;:null}" fill="#bebebe" stroke="none" stroke-width="0" stroke-linecap="butt"/><path d="M-27.48231,407.73377l-35.6243,-16.80917l39.63063,-16.91998l35.6243,16.80916z" fill="none" stroke="#a7a7a7" stroke-width="0.5" stroke-linecap="round"/><path d="M-62.79787,390.81888l74.58323,-0.06871" fill="none" stroke="#a7a7a7" stroke-width="0.5" stroke-linecap="round"/></g><g><path d="M-22.33708,373.81763l38.66338,-16.87687l34.87886,16.87687z" fill="#a7a7a7" stroke="none" stroke-width="0" stroke-linecap="butt"/><path d="M51.00058,373.81763l-38.35651,16.97915l-35.18571,-16.97915z" data-paper-data="{&quot;index&quot;:null}" fill="#bebebe" stroke="none" stroke-width="0" stroke-linecap="butt"/><path d="M12.43755,390.71081l-35.6243,-16.80917l39.63063,-16.91998l35.6243,16.80916z" fill="none" stroke="#a7a7a7" stroke-width="0.5" stroke-linecap="round"/><path d="M-22.87802,373.79591l74.58323,-0.06871" fill="none" stroke="#a7a7a7" stroke-width="0.5" stroke-linecap="round"/></g></g><g><g><path d="M-141.43949,424.63402l38.66338,-16.87687l34.87886,16.87687z" fill="#a7a7a7" stroke="none" stroke-width="0" stroke-linecap="butt"/><path d="M-68.10183,424.63402l-38.35651,16.97915l-35.18571,-16.97915z" data-paper-data="{&quot;index&quot;:null}" fill="#bebebe" stroke="none" stroke-width="0" stroke-linecap="butt"/><path d="M-106.66487,441.52722l-35.6243,-16.80917l39.63065,-16.91998l35.6243,16.80916z" fill="none" stroke="#a7a7a7" stroke-width="0.5" stroke-linecap="round"/><path d="M-141.98041,424.6123l74.58323,-0.06871" fill="none" stroke="#a7a7a7" stroke-width="0.5" stroke-linecap="round"/></g><g><path d="M-101.51964,407.61106l38.66338,-16.87687l34.87886,16.87687z" fill="#a7a7a7" stroke="none" stroke-width="0" stroke-linecap="butt"/><path d="M-28.18197,407.61106l-38.35651,16.97915l-35.18571,-16.97915z" data-paper-data="{&quot;index&quot;:null}" fill="#bebebe" stroke="none" stroke-width="0" stroke-linecap="butt"/><path d="M-66.74501,424.50426l-35.62431,-16.80917l39.63065,-16.91998l35.6243,16.80916z" fill="none" stroke="#a7a7a7" stroke-width="0.5" stroke-linecap="round"/><path d="M-27.47733,407.52065l-74.58323,0.06871" fill="none" stroke="#a7a7a7" stroke-width="0.5" stroke-linecap="round"/></g></g></g><g><g><g><path d="M-220.91411,458.5894l38.66338,-16.87687l34.87886,16.87687z" fill="#a7a7a7" stroke="none" stroke-width="0" stroke-linecap="butt"/><path d="M-147.57647,458.5894l-38.35651,16.97915l-35.18571,-16.97915z" data-paper-data="{&quot;index&quot;:null}" fill="#bebebe" stroke="none" stroke-width="0" stroke-linecap="butt"/><path d="M-186.13948,475.48255l-35.6243,-16.80917l39.63063,-16.91998l35.6243,16.80916z" fill="none" stroke="#a7a7a7" stroke-width="0.5" stroke-linecap="round"/><path d="M-221.45505,458.56768l74.58323,-0.06871" fill="none" stroke="#a7a7a7" stroke-width="0.5" stroke-linecap="round"/></g><g><path d="M-180.99426,441.56644l38.66338,-16.87687l34.87886,16.87687z" fill="#a7a7a7" stroke="none" stroke-width="0" stroke-linecap="butt"/><path d="M-107.6566,441.56644l-38.35651,16.97915l-35.18571,-16.97915z" data-paper-data="{&quot;index&quot;:null}" fill="#bebebe" stroke="none" stroke-width="0" stroke-linecap="butt"/><path d="M-146.21965,458.45959l-35.6243,-16.80917l39.63063,-16.91998l35.6243,16.80916z" fill="none" stroke="#a7a7a7" stroke-width="0.5" stroke-linecap="round"/><path d="M-181.5352,441.54473l74.58323,-0.06871" fill="none" stroke="#a7a7a7" stroke-width="0.5" stroke-linecap="round"/></g></g><g><g><path d="M-300.09667,492.38285l38.66338,-16.87687l34.87886,16.87687z" fill="#a7a7a7" stroke="none" stroke-width="0" stroke-linecap="butt"/><path d="M-226.759,492.38285l-38.35651,16.97915l-35.18571,-16.97915z" data-paper-data="{&quot;index&quot;:null}" fill="#bebebe" stroke="none" stroke-width="0" stroke-linecap="butt"/><path d="M-265.32204,509.27604l-35.62431,-16.80917l39.63065,-16.91998l35.6243,16.80917z" fill="none" stroke="#a7a7a7" stroke-width="0.5" stroke-linecap="round"/><path d="M-226.05436,492.29242l-74.58323,0.06871" fill="none" stroke="#a7a7a7" stroke-width="0.5" stroke-linecap="round"/></g><g><path d="M-260.17682,475.35989l38.66338,-16.87687l34.87886,16.87687z" fill="#a7a7a7" stroke="none" stroke-width="0" stroke-linecap="butt"/><path d="M-186.83914,475.35989l-38.35651,16.97915l-35.18571,-16.97915z" data-paper-data="{&quot;index&quot;:null}" fill="#bebebe" stroke="none" stroke-width="0" stroke-linecap="butt"/><path d="M-225.40219,492.25306l-35.6243,-16.80917l39.63063,-16.91998l35.6243,16.80917z" fill="none" stroke="#a7a7a7" stroke-width="0.5" stroke-linecap="round"/><path d="M-260.71776,475.33818l74.58323,-0.06871" fill="none" stroke="#a7a7a7" stroke-width="0.5" stroke-linecap="round"/></g></g></g></g></g></g></g></g></svg>