<svg version="1.1" xmlns="http://www.w3.org/2000/svg" xmlns:xlink="http://www.w3.org/1999/xlink" width="70.43637" height="76.26892" viewBox="0,0,70.43637,76.26892"><g transform="translate(-56.45524,-167.06955)"><g data-paper-data="{&quot;isPaintingLayer&quot;:true}" fill-rule="nonzero" stroke="none" stroke-width="0.5" stroke-linecap="butt" stroke-linejoin="miter" stroke-miterlimit="10" stroke-dasharray="" stroke-dashoffset="0" style="mix-blend-mode: normal"><path d="M83.43047,194.26498c2.34219,1.51315 4.57035,3.73901 6.39907,5.8115c3.28584,3.298 5.86559,7.3315 7.28218,11.81447c1.05872,3.35043 0.60461,7.07723 1.55532,10.35717c0.93985,3.24247 4.90404,4.8166 6.16864,8.16164c0.71885,1.90147 1.89945,8.60638 0.36285,10.20745c-0.15546,0.16198 -0.31003,0.31045 -0.46376,0.44616c-0.02141,0.15729 -0.05726,0.32313 -0.10969,0.49789c-0.71837,2.39457 -3.11293,1.67619 -3.11293,1.67619c-5.85072,-1.75521 -11.7276,-2.89383 -17.75817,-3.80207c-3.20342,-0.48245 -8.13817,0.15854 -11.04722,-1.24796c-1.3606,-0.65784 -3.53972,-3.4748 -4.38965,-4.77893c-2.42999,-3.72858 -4.07807,-7.9359 -5.87759,-11.98481c-2.93062,-6.59391 -7.11774,-15.53757 -4.53169,-22.98686c-0.25313,-0.94297 -0.51259,-1.86883 -0.78278,-2.77268c-0.57518,-2.92348 -1.04018,-6.04279 -0.24963,-9.00511c2.25979,-8.4678 12.29345,-10.91795 18.80901,-5.37803c3.28974,2.79713 7.038,8.40668 7.70595,12.72504c0.01345,0.08697 0.02683,0.17329 0.04009,0.25894zM101.31273,237.41408c-0.08149,-0.14294 -0.15423,-0.28764 -0.21949,-0.43389c-0.02486,0.02165 -0.0499,0.04287 -0.07511,0.06367c0.01536,0.01183 0.03069,0.02371 0.04598,0.03562c0.07503,0.05844 0.19121,0.23982 0.24862,0.3346zM70.33577,188.38239c-0.16353,-0.21258 -0.32991,-0.42301 -0.50271,-0.62987c-0.21477,-0.09459 -0.42109,-0.15548 -0.62197,-0.17157c0.00289,0.00988 0.00576,0.01976 0.00863,0.02964l0.32549,0.24412c0.26352,0.17589 0.52704,0.35179 0.79056,0.52769zM96.61429,232.76161c0.01207,0.00333 0.02412,0.00671 0.03616,0.01013c-0.00852,-0.01301 -0.01705,-0.02617 -0.02558,-0.03945c-0.00347,0.00987 -0.007,0.01966 -0.01058,0.02932z" fill-opacity="0.50196" fill="#000000"/><path d="M83.2612,197.6456c0.05025,-0.70352 0.4693,-4.26817 2.17911,-5.0888c4.17508,-2.00386 8.6841,-0.45648 11.37231,-0.42212c5.84547,-0.39522 11.90167,0.91626 17.37006,-1.78518c0.76709,-0.37953 4.84317,0.44604 5.71317,1.82881c3.38285,5.37666 1.36727,15.85916 0.51084,21.75424c-0.6313,4.41909 -0.71825,8.81376 -1.65373,13.18132c-0.57684,2.69318 -0.9053,5.34958 -3.5321,6.82672c-2.7931,1.57066 -7.60967,0.77422 -10.6722,0.77422c-6.18949,0 -15.19573,-1.13495 -18.91013,-6.90616c-1.87546,-2.91398 -2.14041,-6.89066 -2.62315,-10.21346c0.01588,-6.62288 -0.22518,-13.35619 0.24578,-19.94958z" data-paper-data="{&quot;noHover&quot;:false,&quot;origItem&quot;:[&quot;Path&quot;,{&quot;applyMatrix&quot;:true,&quot;segments&quot;:[[[86.66021,199.92382],[0,0],[-0.39818,5.57453]],[[86.46021,216.7466],[0.01343,-5.59946],[0.40814,2.80934]],[[88.66627,225.36152],[-1.58565,-2.46369],[3.14042,4.8794]],[[104.61335,231.18521],[-5.23304,0],[2.58928,0]],[[113.61599,230.53718],[-2.36149,1.32795],[2.22088,-1.24888]],[[116.59083,224.77451],[-0.4877,2.27701],[0.79092,-3.69265]],[[117.97591,213.65843],[-0.53375,3.73622],[0.72409,-4.98413]],[[117.56043,195.3089],[2.86011,4.54582],[-0.73556,-1.16909]],[[114.34091,192.45087],[1.11583,0.84511],[-0.4236,0.54843]],[[112.73929,193.76918],[0.64855,-0.32088],[-4.62338,2.28399]],[[98.09103,195.28279],[4.94218,-0.33415],[-3.4371,0.23239]],[[87.63658,195.27265],[3.42933,0.48258],[0,0]],[87.61336,195.28521],[[87.5512,195.28214],[0.03939,0.00307],[-0.59656,1.43122]],[[86.66022,199.92383],[0.12077,-1.69071],[0,0]]],&quot;closed&quot;:true,&quot;fillColor&quot;:[0,0,0,1]}]}" fill="#124cae"/><path d="M87.64826,193.50243c0.33825,-3.5795 0.03891,-7.28128 0.56307,-10.82725c0.77216,-5.22367 6.42342,-9.21248 11.30247,-9.89018c3.08733,-0.44853 9.91925,-0.96523 12.22642,1.71559c2.8028,3.25672 4.0161,8.75319 3.71463,12.9055c-0.14133,1.94659 0.40721,3.69086 -1.54893,4.2983c-4.45102,2.25662 -10.00451,1.56633 -14.84841,1.5704c-3.76904,0.00317 -7.62615,0.44065 -11.40926,0.22763z" data-paper-data="{&quot;noHover&quot;:false,&quot;origItem&quot;:[&quot;Path&quot;,{&quot;applyMatrix&quot;:true,&quot;segments&quot;:[[[179.93938,385.98529],[0,0],[6.2813,0.35368]],[[198.8267,385.57043],[-6.25794,0.00526],[8.04258,-0.00676]],[[223.37484,383.00249],[-7.39026,3.74678],[3.24788,-1.00856]],[[225.933,375.89321],[-0.23466,3.23202],[0.50056,-6.8943]],[[219.78398,354.55989],[4.65364,5.4073],[-3.83072,-4.45112]],[[199.58028,351.74531],[5.12606,-0.74472],[-8.10094,1.12522]],[[180.89444,368.07089],[1.28206,-8.67314],[-0.8703,5.88756]],[[179.9394,385.98529],[0.56162,-5.94324],[0,0]]],&quot;closed&quot;:true,&quot;fillColor&quot;:[0,0,0,1]}]}" fill="#a28635"/><path d="M97.55461,186.4791c-0.93119,0 -1.16869,-0.69369 -1.22926,-1.04754c-0.31449,-0.74839 -0.64382,-1.49065 -0.98412,-2.22766c0,0 -0.52382,-1.13495 0.61113,-1.65877c1.13495,-0.52382 1.65877,0.61113 1.65877,0.61113c0.38048,0.82472 0.74786,1.6557 1.09733,2.49403l0.09615,0.57881c0,0 0,1.25 -1.25,1.25z" fill="#000000"/><path d="M103.9012,185.89949c-1.1606,0.46424 -1.62483,-0.69636 -1.62483,-0.69636l-0.15352,-0.39542c-0.38651,-0.774 -0.79991,-1.53504 -1.2362,-2.28212c0,0 -0.62984,-1.07972 0.44988,-1.70956c1.07972,-0.62984 1.70956,0.44988 1.70956,0.44988c0.4626,0.79387 0.90152,1.60214 1.31282,2.42376l0.23864,0.58497c0,0 0.46424,1.1606 -0.69636,1.62483z" fill="#000000"/><path d="M92.89417,178.14945c-0.14872,0.12661 -0.28575,0.26387 -0.40729,0.41479c-0.75824,0.94149 -1.56831,3.28213 -2.92392,3.63676c-2.04023,0.53373 -5.02374,-1.88242 -4.82346,-3.84416c0.10884,-1.06608 1.49199,-1.64725 2.14407,-2.53378c2.34159,-3.18347 2.71799,-7.27511 7.89828,-6.02611c2.77784,-0.0213 3.5625,-1.49599 6.0442,-2.11761c3.09547,-0.77536 8.02836,1.60918 11.26924,1.91742c0.86124,0.08191 2.91913,0.08264 3.57289,0.55347c2.06999,1.49074 2.45604,7.48284 2.84002,9.77768c0.40788,1.77535 2.69904,6.26035 0.46677,7.77396c-0.70723,0.47954 -1.76591,0.25174 -2.63169,0.11599c-1.14075,-0.17886 -2.66746,-1.24748 -3.88689,-1.55477c-0.95129,-0.23972 -2.04224,0.04008 -2.93475,-0.3464c-1.99481,-0.86381 -1.97664,-3.7763 -3.56658,-4.48455c-0.88808,-0.39561 -2.00791,-0.33536 -2.80406,-0.87189c-1.65699,-1.11665 -2.608,-2.55464 -4.50199,-3.45378c-0.48821,-0.54226 -0.83945,-1.21407 -1.45108,-1.63705c-0.32794,-0.2268 -0.45317,0.63353 -0.73069,0.91162c-0.41493,0.4158 -0.90158,0.78398 -1.43995,1.05433c-0.66252,0.33269 -1.39224,0.53184 -2.13314,0.71407z" fill="#000000"/><path d="M100.2052,227.21258c2.37314,0.87137 4.10599,2.42574 3.02758,5.06302c-0.24784,0.60611 -0.90599,0.94572 -1.35899,1.41857c-3.76531,1.47827 -7.22307,1.11795 -10.88137,-0.51476c-1.43122,-0.63876 -4.11844,-1.74513 -3.91612,-3.85947c0.13973,-1.46019 1.92991,-2.08552 3.00728,-2.42045c0.00818,-0.00254 0.01635,-0.00508 0.02453,-0.00762c0.60281,-0.62122 1.61394,-0.64832 2.47863,-0.64283c2.35624,-0.47565 4.79511,-0.5344 6.99678,0.40342c0,0 0.40034,0.17793 0.62167,0.56013z" fill="#a28635"/><path d="M122.70921,212.33616c0.57287,0.31671 1.1029,0.7472 1.56855,1.07695c4.57924,4.74152 -1.06404,11.05655 -6.73617,8.62571c-6.21262,-2.66247 -0.88734,-10.45119 3.9585,-10.5886c0,0 0.99367,0 1.20911,0.88594z" fill="#a28635"/><path d="M87.58025,233.2373c2.34523,-1.8843 3.43698,-5.35839 4.59504,-8.05582c0.3337,-0.77728 1.10835,-2.85074 1.91781,-3.06997c0.86887,-0.23532 1.84071,0.24941 2.59847,0.73531c1.66186,1.06565 3.355,5.81198 4.33371,7.608c0.35582,0.65295 1.15773,1.23555 1.04553,1.97064c-0.13078,0.85684 -1.10181,1.33833 -1.65271,2.00749c-3.89195,1.08152 -7.65014,1.86021 -11.69668,1.86699h-1.36379c-0.69036,0 -1.25,-0.55964 -1.25,-1.25c0,-0.52567 0.32448,-0.97555 0.78408,-1.16028l0.3084,-0.13217c0.14004,-0.32012 0.38013,-0.52019 0.38013,-0.52019z" fill="#19da44"/><path d="M114.93296,185.83617c1.25,0 1.25,1.25 1.25,1.25c0,0.58259 0,1.44517 0,2.22892c0.1369,0.04632 0.22254,0.09526 0.22254,0.09526l1.28609,0.74045c5.91371,4.89471 4.84499,14.08202 4.80029,21.22334l1.1799,0.6069c4.76135,3.42052 3.87695,7.2116 -0.26726,10.67162c0,0 -0.96028,0.80023 -1.76051,-0.16004c-0.80023,-0.96027 0.16005,-1.76051 0.16005,-1.76051c2.94061,-2.44549 3.84679,-4.28133 0.41463,-6.71672l-0.85531,-0.41055c0,0 -0.41991,-0.20996 -0.61638,-0.62987c-0.7565,-0.27571 -0.7565,-1.17006 -0.7565,-1.17006c0,-6.11081 1.35692,-15.3318 -3.7248,-19.6006l-0.90986,-0.51533c-0.12206,0.03602 -0.26213,0.05669 -0.42288,0.05669c-1.25,0 -1.25,-1.25 -1.25,-1.25c0,-0.9092 0,-1.81838 0,-2.72758v-0.68189c0,0 0,-1.25 1.25,-1.25z" fill-opacity="0.50196" fill="#fa9600"/><path d="M113.51249,186.40427c0,-1.25 1.25,-1.25 1.25,-1.25l0.83335,0.10107c0.34003,0.15564 2.23192,0.85368 2.54462,0.606c0.19028,-0.15071 -0.78458,-3.95929 -0.85628,-4.34176c-0.47161,-2.51525 -0.7067,-9.01561 -3.5255,-9.99093c0,0 -1.14893,-0.4924 -0.65653,-1.64133c0.4924,-1.14893 1.64133,-0.65653 1.64133,-0.65653c4.23278,2.00869 4.5631,9.03588 5.33915,13.19352c0.24079,1.29001 0.86964,4.13173 -0.17439,5.20479c-1.2164,1.25023 -4.01546,0.44859 -5.29718,-0.0759l0.15145,0.10107c0,0 -1.25,0 -1.25,-1.25z" fill-opacity="0.50196" fill="#fa9600"/><path d="M101.86698,234.86569c-1.11803,0.55902 -1.67705,-0.55902 -1.67705,-0.55902l-0.40289,-0.8242c-1.25102,-3.44845 -2.04211,-7.74223 -5.46884,-9.74073c0,0 -1.07187,-0.64312 -0.42875,-1.71499c0.64312,-1.07187 1.71499,-0.42875 1.71499,-0.42875c1.83359,1.12366 3.04095,2.66109 3.95524,4.39366c0.4641,-0.29948 1.03864,-0.14279 1.03864,-0.14279c3.22695,0.96941 4.92252,3.75161 2.85027,6.70451l-0.261,0.45266c0,0 -0.23056,0.38427 -0.64566,0.55459c0.06831,0.37655 0.03081,0.95217 -0.67494,1.30504zM100.6793,228.51534c0.30497,0.79779 0.58473,1.61263 0.86528,2.42747c0.87955,-1.0029 0.16078,-1.94504 -0.86528,-2.42747z" fill-opacity="0.50196" fill="#fa9600"/><path d="M99.13482,168.31955c0,-1.25 1.25,-1.25 1.25,-1.25h0.92315c4.50535,0.00436 8.83383,1.18206 13.13757,2.35192c0,0 1.20595,0.3289 0.87706,1.53485c-0.3289,1.20595 -1.53485,0.87706 -1.53485,0.87706c-4.07908,-1.11589 -8.20584,-2.26835 -12.47978,-2.26382h-0.92315c0,0 -1.25,0 -1.25,-1.25z" fill-opacity="0.50196" fill="#fa9600"/></g></g></svg>