<svg version="1.1" xmlns="http://www.w3.org/2000/svg" xmlns:xlink="http://www.w3.org/1999/xlink" width="778.31897" height="338.5436" viewBox="0,0,778.31897,338.5436"><g transform="translate(408.36106,-171.00644)"><g data-paper-data="{&quot;isPaintingLayer&quot;:true}" fill-rule="nonzero" stroke-linejoin="miter" stroke-miterlimit="10" stroke-dasharray="" stroke-dashoffset="0" style="mix-blend-mode: normal"><g><g><g><g><g><g><g><path d="M148.21808,205.13939l38.66338,-16.87687l34.87886,16.87687z" fill="#a7a7a7" stroke="none" stroke-width="0" stroke-linecap="butt"/><path d="M221.55574,205.13939l-38.35653,16.97915l-35.18571,-16.97915z" data-paper-data="{&quot;index&quot;:null}" fill="#bebebe" stroke="none" stroke-width="0" stroke-linecap="butt"/><path d="M182.99271,222.03258l-35.62431,-16.80917l39.63065,-16.91998l35.6243,16.80917z" fill="none" stroke="#a7a7a7" stroke-width="0.5" stroke-linecap="round"/><path d="M222.26038,205.04897l-74.58323,0.06871" fill="none" stroke="#a7a7a7" stroke-width="0.5" stroke-linecap="round"/></g><g><path d="M188.13794,188.11644l38.66338,-16.87687l34.87886,16.87687z" fill="#a7a7a7" stroke="none" stroke-width="0" stroke-linecap="butt"/><path d="M261.47559,188.11644l-38.35653,16.97915l-35.18571,-16.97915z" data-paper-data="{&quot;index&quot;:null}" fill="#bebebe" stroke="none" stroke-width="0" stroke-linecap="butt"/><path d="M222.91256,205.00961l-35.62431,-16.80917l39.63065,-16.91998l35.6243,16.80917z" fill="none" stroke="#a7a7a7" stroke-width="0.5" stroke-linecap="round"/><path d="M262.18023,188.02601l-74.58323,0.06871" fill="none" stroke="#a7a7a7" stroke-width="0.5" stroke-linecap="round"/></g></g><g><g><path d="M69.03552,238.93285l38.66338,-16.87687l34.87886,16.87687z" fill="#a7a7a7" stroke="none" stroke-width="0" stroke-linecap="butt"/><path d="M142.3732,238.93285l-38.35653,16.97915l-35.18571,-16.97915z" data-paper-data="{&quot;index&quot;:null}" fill="#bebebe" stroke="none" stroke-width="0" stroke-linecap="butt"/><path d="M103.81013,255.82603l-35.62431,-16.80917l39.63063,-16.91998l35.6243,16.80916z" fill="none" stroke="#a7a7a7" stroke-width="0.5" stroke-linecap="round"/><path d="M68.49459,238.91113l74.58323,-0.06871" fill="none" stroke="#a7a7a7" stroke-width="0.5" stroke-linecap="round"/></g><g><path d="M108.95538,221.90989l38.66338,-16.87687l34.87886,16.87687z" fill="#a7a7a7" stroke="none" stroke-width="0" stroke-linecap="butt"/><path d="M182.29305,221.90989l-38.35653,16.97915l-35.18571,-16.97915z" data-paper-data="{&quot;index&quot;:null}" fill="#bebebe" stroke="none" stroke-width="0" stroke-linecap="butt"/><path d="M143.73,238.80306l-35.62431,-16.80917l39.63065,-16.91998l35.6243,16.80917z" fill="none" stroke="#a7a7a7" stroke-width="0.5" stroke-linecap="round"/><path d="M108.41445,221.88817l74.58323,-0.06871" fill="none" stroke="#a7a7a7" stroke-width="0.5" stroke-linecap="round"/></g></g></g><g><g><g><path d="M-10.43909,272.88821l38.66338,-16.87687l34.87886,16.87687z" fill="#a7a7a7" stroke="none" stroke-width="0" stroke-linecap="butt"/><path d="M62.89856,272.88821l-38.35653,16.97915l-35.18571,-16.97915z" data-paper-data="{&quot;index&quot;:null}" fill="#bebebe" stroke="none" stroke-width="0" stroke-linecap="butt"/><path d="M24.33553,289.78138l-35.62431,-16.80917l39.63065,-16.91998l35.6243,16.80916z" fill="none" stroke="#a7a7a7" stroke-width="0.5" stroke-linecap="round"/><path d="M-10.98004,272.86649l74.58323,-0.06871" fill="none" stroke="#a7a7a7" stroke-width="0.5" stroke-linecap="round"/></g><g><path d="M29.48076,255.86524l38.66338,-16.87687l34.87886,16.87687z" fill="#a7a7a7" stroke="none" stroke-width="0" stroke-linecap="butt"/><path d="M102.8184,255.86524l-38.35653,16.97915l-35.18571,-16.97915z" data-paper-data="{&quot;index&quot;:null}" fill="#bebebe" stroke="none" stroke-width="0" stroke-linecap="butt"/><path d="M64.25538,272.75842l-35.62431,-16.80917l39.63065,-16.91998l35.6243,16.80917z" fill="none" stroke="#a7a7a7" stroke-width="0.5" stroke-linecap="round"/><path d="M28.93982,255.84352l74.58323,-0.06871" fill="none" stroke="#a7a7a7" stroke-width="0.5" stroke-linecap="round"/></g></g><g><g><path d="M-89.62165,306.68165l38.66338,-16.87687l34.87886,16.87687z" fill="#a7a7a7" stroke="none" stroke-width="0" stroke-linecap="butt"/><path d="M-16.28399,306.68165l-38.35653,16.97915l-35.18571,-16.97915z" data-paper-data="{&quot;index&quot;:null}" fill="#bebebe" stroke="none" stroke-width="0" stroke-linecap="butt"/><path d="M-54.84703,323.57482l-35.62431,-16.80917l39.63065,-16.91998l35.6243,16.80916z" fill="none" stroke="#a7a7a7" stroke-width="0.5" stroke-linecap="round"/><path d="M-90.16257,306.65995l74.58323,-0.06871" fill="none" stroke="#a7a7a7" stroke-width="0.5" stroke-linecap="round"/></g><g><path d="M-49.7018,289.65869l38.66338,-16.87687l34.87886,16.87687z" fill="#a7a7a7" stroke="none" stroke-width="0" stroke-linecap="butt"/><path d="M23.63587,289.65869l-38.35653,16.97915l-35.18571,-16.97915z" data-paper-data="{&quot;index&quot;:null}" fill="#bebebe" stroke="none" stroke-width="0" stroke-linecap="butt"/><path d="M-14.92718,306.55187l-35.62431,-16.80917l39.63065,-16.91998l35.6243,16.80916z" fill="none" stroke="#a7a7a7" stroke-width="0.5" stroke-linecap="round"/><path d="M24.34051,289.56826l-74.58323,0.06871" fill="none" stroke="#a7a7a7" stroke-width="0.5" stroke-linecap="round"/></g></g></g></g><g><g><g><g><path d="M-169.06165,340.54795l38.66338,-16.87687l34.87886,16.87687z" fill="#a7a7a7" stroke="none" stroke-width="0" stroke-linecap="butt"/><path d="M-95.72398,340.54795l-38.35651,16.97915l-35.18571,-16.97915z" data-paper-data="{&quot;index&quot;:null}" fill="#bebebe" stroke="none" stroke-width="0" stroke-linecap="butt"/><path d="M-134.28702,357.44112l-35.6243,-16.80917l39.63063,-16.91998l35.6243,16.80917z" fill="none" stroke="#a7a7a7" stroke-width="0.5" stroke-linecap="round"/><path d="M-95.01934,340.45753l-74.58323,0.06871" fill="none" stroke="#a7a7a7" stroke-width="0.5" stroke-linecap="round"/></g><g><path d="M-129.1418,323.52498l38.66338,-16.87687l34.87886,16.87687z" fill="#a7a7a7" stroke="none" stroke-width="0" stroke-linecap="butt"/><path d="M-55.80412,323.52498l-38.35651,16.97915l-35.18571,-16.97915z" data-paper-data="{&quot;index&quot;:null}" fill="#bebebe" stroke="none" stroke-width="0" stroke-linecap="butt"/><path d="M-94.36717,340.41817l-35.6243,-16.80917l39.63063,-16.91998l35.6243,16.80916z" fill="none" stroke="#a7a7a7" stroke-width="0.5" stroke-linecap="round"/><path d="M-55.09949,323.43455l-74.58323,0.06871" fill="none" stroke="#a7a7a7" stroke-width="0.5" stroke-linecap="round"/></g></g><g><g><path d="M-248.24419,374.34141l38.66338,-16.87687l34.87886,16.87687z" fill="#a7a7a7" stroke="none" stroke-width="0" stroke-linecap="butt"/><path d="M-174.90654,374.34141l-38.35651,16.97915l-35.18571,-16.97915z" data-paper-data="{&quot;index&quot;:null}" fill="#bebebe" stroke="none" stroke-width="0" stroke-linecap="butt"/><path d="M-213.46958,391.23457l-35.6243,-16.80917l39.63063,-16.91998l35.6243,16.80916z" fill="none" stroke="#a7a7a7" stroke-width="0.5" stroke-linecap="round"/><path d="M-248.78513,374.31968l74.58323,-0.06871" fill="none" stroke="#a7a7a7" stroke-width="0.5" stroke-linecap="round"/></g><g><path d="M-208.32434,357.31841l38.66338,-16.87687l34.87886,16.87687z" fill="#a7a7a7" stroke="none" stroke-width="0" stroke-linecap="butt"/><path d="M-134.98668,357.31841l-38.35651,16.97915l-35.18571,-16.97915z" data-paper-data="{&quot;index&quot;:null}" fill="#bebebe" stroke="none" stroke-width="0" stroke-linecap="butt"/><path d="M-173.54972,374.21162l-35.6243,-16.80917l39.63063,-16.91998l35.6243,16.80917z" fill="none" stroke="#a7a7a7" stroke-width="0.5" stroke-linecap="round"/><path d="M-208.86529,357.29672l74.58323,-0.06871" fill="none" stroke="#a7a7a7" stroke-width="0.5" stroke-linecap="round"/></g></g></g><g><g><g><path d="M-327.71883,408.29674l38.66338,-16.87687l34.87886,16.87687z" fill="#a7a7a7" stroke="none" stroke-width="0" stroke-linecap="butt"/><path d="M-254.38115,408.29674l-38.35653,16.97915l-35.18571,-16.97915z" data-paper-data="{&quot;index&quot;:null}" fill="#bebebe" stroke="none" stroke-width="0" stroke-linecap="butt"/><path d="M-292.9442,425.18994l-35.62431,-16.80917l39.63065,-16.91998l35.6243,16.80916z" fill="none" stroke="#a7a7a7" stroke-width="0.5" stroke-linecap="round"/><path d="M-328.25975,408.27502l74.58323,-0.06871" fill="none" stroke="#a7a7a7" stroke-width="0.5" stroke-linecap="round"/></g><g><path d="M-287.79898,391.2738l38.66338,-16.87687l34.87886,16.87687z" fill="#a7a7a7" stroke="none" stroke-width="0" stroke-linecap="butt"/><path d="M-214.4613,391.2738l-38.35653,16.97915l-35.18571,-16.97915z" data-paper-data="{&quot;index&quot;:null}" fill="#bebebe" stroke="none" stroke-width="0" stroke-linecap="butt"/><path d="M-253.02435,408.16697l-35.62431,-16.80917l39.63065,-16.91998l35.6243,16.80917z" fill="none" stroke="#a7a7a7" stroke-width="0.5" stroke-linecap="round"/><path d="M-213.75667,391.18335l-74.58323,0.06871" fill="none" stroke="#a7a7a7" stroke-width="0.5" stroke-linecap="round"/></g></g><g><g><path d="M-406.9014,442.09021l38.66338,-16.87687l34.87886,16.87687z" fill="#a7a7a7" stroke="none" stroke-width="0" stroke-linecap="butt"/><path d="M-333.56371,442.09021l-38.35651,16.97915l-35.18571,-16.97915z" data-paper-data="{&quot;index&quot;:null}" fill="#bebebe" stroke="none" stroke-width="0" stroke-linecap="butt"/><path d="M-372.12675,458.98339l-35.6243,-16.80917l39.63063,-16.91998l35.6243,16.80917z" fill="none" stroke="#a7a7a7" stroke-width="0.5" stroke-linecap="round"/><path d="M-332.85908,441.99977l-74.58323,0.06871" fill="none" stroke="#a7a7a7" stroke-width="0.5" stroke-linecap="round"/></g><g><path d="M-366.98154,425.06725l38.66338,-16.87687l34.87886,16.87687z" fill="#a7a7a7" stroke="none" stroke-width="0" stroke-linecap="butt"/><path d="M-293.64386,425.06725l-38.35653,16.97915l-35.18571,-16.97915z" data-paper-data="{&quot;index&quot;:null}" fill="#bebebe" stroke="none" stroke-width="0" stroke-linecap="butt"/><path d="M-332.20689,441.96042l-35.6243,-16.80917l39.63063,-16.91998l35.6243,16.80916z" fill="none" stroke="#a7a7a7" stroke-width="0.5" stroke-linecap="round"/><path d="M-367.52247,425.04553l74.58323,-0.06871" fill="none" stroke="#a7a7a7" stroke-width="0.5" stroke-linecap="round"/></g></g></g></g></g><g><g><g><g><g><path d="M183.83909,221.935l38.66338,-16.87687l34.87886,16.87687z" fill="#a7a7a7" stroke="none" stroke-width="0" stroke-linecap="butt"/><path d="M257.17676,221.935l-38.35653,16.97915l-35.18571,-16.97915z" data-paper-data="{&quot;index&quot;:null}" fill="#bebebe" stroke="none" stroke-width="0" stroke-linecap="butt"/><path d="M218.61371,238.82819l-35.62431,-16.80917l39.63065,-16.91998l35.6243,16.80916z" fill="none" stroke="#a7a7a7" stroke-width="0.5" stroke-linecap="round"/><path d="M183.29816,221.91328l74.58323,-0.06871" fill="none" stroke="#a7a7a7" stroke-width="0.5" stroke-linecap="round"/></g><g><path d="M223.75894,204.91204l38.66338,-16.87687l34.87886,16.87687z" fill="#a7a7a7" stroke="none" stroke-width="0" stroke-linecap="butt"/><path d="M297.09661,204.91204l-38.35651,16.97915l-35.18571,-16.97915z" data-paper-data="{&quot;index&quot;:null}" fill="#bebebe" stroke="none" stroke-width="0" stroke-linecap="butt"/><path d="M258.53355,221.80521l-35.62431,-16.80917l39.63065,-16.91998l35.6243,16.80917z" fill="none" stroke="#a7a7a7" stroke-width="0.5" stroke-linecap="round"/><path d="M223.21802,204.89033l74.58323,-0.06871" fill="none" stroke="#a7a7a7" stroke-width="0.5" stroke-linecap="round"/></g></g><g><g><path d="M104.65654,255.72845l38.66338,-16.87687l34.87886,16.87687z" fill="#a7a7a7" stroke="none" stroke-width="0" stroke-linecap="butt"/><path d="M177.9942,255.72845l-38.35653,16.97915l-35.18571,-16.97915z" data-paper-data="{&quot;index&quot;:null}" fill="#bebebe" stroke="none" stroke-width="0" stroke-linecap="butt"/><path d="M139.43117,272.62164l-35.62431,-16.80917l39.63065,-16.91998l35.6243,16.80917z" fill="none" stroke="#a7a7a7" stroke-width="0.5" stroke-linecap="round"/><path d="M178.69884,255.63803l-74.58323,0.06871" fill="none" stroke="#a7a7a7" stroke-width="0.5" stroke-linecap="round"/></g><g><path d="M144.5764,238.7055l38.66338,-16.87687l34.87886,16.87687z" fill="#a7a7a7" stroke="none" stroke-width="0" stroke-linecap="butt"/><path d="M217.91405,238.7055l-38.35651,16.97915l-35.18571,-16.97915z" data-paper-data="{&quot;index&quot;:null}" fill="#bebebe" stroke="none" stroke-width="0" stroke-linecap="butt"/><path d="M179.35102,255.59866l-35.62431,-16.80917l39.63065,-16.91998l35.6243,16.80916z" fill="none" stroke="#a7a7a7" stroke-width="0.5" stroke-linecap="round"/><path d="M218.61869,238.61507l-74.58323,0.06871" fill="none" stroke="#a7a7a7" stroke-width="0.5" stroke-linecap="round"/></g></g></g><g><g><g><path d="M25.18191,289.68382l38.66338,-16.87687l34.87886,16.87687z" fill="#a7a7a7" stroke="none" stroke-width="0" stroke-linecap="butt"/><path d="M98.51958,289.68382l-38.35653,16.97915l-35.18571,-16.97915z" data-paper-data="{&quot;index&quot;:null}" fill="#bebebe" stroke="none" stroke-width="0" stroke-linecap="butt"/><path d="M59.95653,306.57698l-35.62431,-16.80917l39.63065,-16.91998l35.6243,16.80916z" fill="none" stroke="#a7a7a7" stroke-width="0.5" stroke-linecap="round"/><path d="M99.22422,289.59339l-74.58323,0.06871" fill="none" stroke="#a7a7a7" stroke-width="0.5" stroke-linecap="round"/></g><g><path d="M65.10176,272.66084l38.66336,-16.87687l34.87886,16.87687z" fill="#a7a7a7" stroke="none" stroke-width="0" stroke-linecap="butt"/><path d="M138.43943,272.66084l-38.35651,16.97915l-35.18571,-16.97915z" data-paper-data="{&quot;index&quot;:null}" fill="#bebebe" stroke="none" stroke-width="0" stroke-linecap="butt"/><path d="M99.87639,289.55403l-35.62431,-16.80917l39.63063,-16.91998l35.6243,16.80917z" fill="none" stroke="#a7a7a7" stroke-width="0.5" stroke-linecap="round"/><path d="M64.56084,272.63912l74.58323,-0.06871" fill="none" stroke="#a7a7a7" stroke-width="0.5" stroke-linecap="round"/></g></g><g><g><path d="M-54.00063,323.47727l38.66338,-16.87687l34.87886,16.87687z" fill="#a7a7a7" stroke="none" stroke-width="0" stroke-linecap="butt"/><path d="M19.33702,323.47727l-38.35653,16.97915l-35.18571,-16.97915z" data-paper-data="{&quot;index&quot;:null}" fill="#bebebe" stroke="none" stroke-width="0" stroke-linecap="butt"/><path d="M-19.22601,340.37044l-35.62431,-16.80917l39.63065,-16.91998l35.6243,16.80917z" fill="none" stroke="#a7a7a7" stroke-width="0.5" stroke-linecap="round"/><path d="M-54.54157,323.45554l74.58323,-0.06871" fill="none" stroke="#a7a7a7" stroke-width="0.5" stroke-linecap="round"/></g><g><path d="M-14.08078,306.45429l38.66338,-16.87687l34.87886,16.87687z" fill="#a7a7a7" stroke="none" stroke-width="0" stroke-linecap="butt"/><path d="M59.25687,306.45429l-38.35653,16.97915l-35.18571,-16.97915z" data-paper-data="{&quot;index&quot;:null}" fill="#bebebe" stroke="none" stroke-width="0" stroke-linecap="butt"/><path d="M20.69384,323.34747l-35.62431,-16.80917l39.63065,-16.91998l35.6243,16.80916z" fill="none" stroke="#a7a7a7" stroke-width="0.5" stroke-linecap="round"/><path d="M-14.62172,306.43257l74.58323,-0.06871" fill="none" stroke="#a7a7a7" stroke-width="0.5" stroke-linecap="round"/></g></g></g></g><g><g><g><g><path d="M-133.44063,357.34356l38.66338,-16.87687l34.87886,16.87687z" fill="#a7a7a7" stroke="none" stroke-width="0" stroke-linecap="butt"/><path d="M-60.10297,357.34356l-38.35651,16.97915l-35.18571,-16.97915z" data-paper-data="{&quot;index&quot;:null}" fill="#bebebe" stroke="none" stroke-width="0" stroke-linecap="butt"/><path d="M-98.66601,374.23671l-35.6243,-16.80917l39.63065,-16.91998l35.6243,16.80917z" fill="none" stroke="#a7a7a7" stroke-width="0.5" stroke-linecap="round"/><path d="M-133.98157,357.32184l74.58323,-0.06871" fill="none" stroke="#a7a7a7" stroke-width="0.5" stroke-linecap="round"/></g><g><path d="M-93.52078,340.32059l38.66338,-16.87687l34.87886,16.87687z" fill="#a7a7a7" stroke="none" stroke-width="0" stroke-linecap="butt"/><path d="M-20.18312,340.32059l-38.35653,16.97915l-35.18571,-16.97915z" data-paper-data="{&quot;index&quot;:null}" fill="#bebebe" stroke="none" stroke-width="0" stroke-linecap="butt"/><path d="M-58.74615,357.21377l-35.62431,-16.80917l39.63063,-16.91998l35.6243,16.80917z" fill="none" stroke="#a7a7a7" stroke-width="0.5" stroke-linecap="round"/><path d="M-19.47849,340.23016l-74.58323,0.06871" fill="none" stroke="#a7a7a7" stroke-width="0.5" stroke-linecap="round"/></g></g><g><g><path d="M-212.62319,391.137l38.66338,-16.87687l34.87886,16.87687z" fill="#a7a7a7" stroke="none" stroke-width="0" stroke-linecap="butt"/><path d="M-139.28552,391.137l-38.35651,16.97915l-35.18571,-16.97915z" data-paper-data="{&quot;index&quot;:null}" fill="#bebebe" stroke="none" stroke-width="0" stroke-linecap="butt"/><path d="M-177.84856,408.03018l-35.6243,-16.80917l39.63065,-16.91998l35.6243,16.80917z" fill="none" stroke="#a7a7a7" stroke-width="0.5" stroke-linecap="round"/><path d="M-138.58088,391.04658l-74.58323,0.06871" fill="none" stroke="#a7a7a7" stroke-width="0.5" stroke-linecap="round"/></g><g><path d="M-172.70334,374.11404l38.66338,-16.87687l34.87886,16.87687z" fill="#a7a7a7" stroke="none" stroke-width="0" stroke-linecap="butt"/><path d="M-99.36567,374.11404l-38.35651,16.97915l-35.18571,-16.97915z" data-paper-data="{&quot;index&quot;:null}" fill="#bebebe" stroke="none" stroke-width="0" stroke-linecap="butt"/><path d="M-137.92872,391.00722l-35.62431,-16.80917l39.63065,-16.91998l35.6243,16.80916z" fill="none" stroke="#a7a7a7" stroke-width="0.5" stroke-linecap="round"/><path d="M-98.66103,374.02361l-74.58323,0.06871" fill="none" stroke="#a7a7a7" stroke-width="0.5" stroke-linecap="round"/></g></g></g><g><g><g><path d="M-292.09782,425.09236l38.66338,-16.87687l34.87886,16.87687z" fill="#a7a7a7" stroke="none" stroke-width="0" stroke-linecap="butt"/><path d="M-218.76015,425.09236l-38.35653,16.97915l-35.18571,-16.97915z" data-paper-data="{&quot;index&quot;:null}" fill="#bebebe" stroke="none" stroke-width="0" stroke-linecap="butt"/><path d="M-257.32319,441.98555l-35.62431,-16.80917l39.63065,-16.91998l35.6243,16.80917z" fill="none" stroke="#a7a7a7" stroke-width="0.5" stroke-linecap="round"/><path d="M-292.63875,425.07064l74.58323,-0.06871" fill="none" stroke="#a7a7a7" stroke-width="0.5" stroke-linecap="round"/></g><g><path d="M-252.17796,408.0694l38.66338,-16.87687l34.87886,16.87687z" fill="#a7a7a7" stroke="none" stroke-width="0" stroke-linecap="butt"/><path d="M-178.8403,408.0694l-38.35651,16.97915l-35.18571,-16.97915z" data-paper-data="{&quot;index&quot;:null}" fill="#bebebe" stroke="none" stroke-width="0" stroke-linecap="butt"/><path d="M-217.40333,424.96257l-35.62431,-16.80917l39.63065,-16.91998l35.6243,16.80916z" fill="none" stroke="#a7a7a7" stroke-width="0.5" stroke-linecap="round"/><path d="M-178.13567,407.97897l-74.58323,0.06871" fill="none" stroke="#a7a7a7" stroke-width="0.5" stroke-linecap="round"/></g></g><g><g><path d="M-371.28037,458.88581l38.66338,-16.87687l34.87886,16.87687z" fill="#a7a7a7" stroke="none" stroke-width="0" stroke-linecap="butt"/><path d="M-297.94269,458.88581l-38.35653,16.97915l-35.18571,-16.97915z" data-paper-data="{&quot;index&quot;:null}" fill="#bebebe" stroke="none" stroke-width="0" stroke-linecap="butt"/><path d="M-336.50574,475.779l-35.6243,-16.80917l39.63063,-16.91998l35.6243,16.80916z" fill="none" stroke="#a7a7a7" stroke-width="0.5" stroke-linecap="round"/><path d="M-297.23806,458.79539l-74.58323,0.06871" fill="none" stroke="#a7a7a7" stroke-width="0.5" stroke-linecap="round"/></g><g><path d="M-331.36052,441.86282l38.66338,-16.87687l34.87886,16.87687z" fill="#a7a7a7" stroke="none" stroke-width="0" stroke-linecap="butt"/><path d="M-258.02284,441.86282l-38.35651,16.97915l-35.18571,-16.97915z" data-paper-data="{&quot;index&quot;:null}" fill="#bebebe" stroke="none" stroke-width="0" stroke-linecap="butt"/><path d="M-296.58589,458.75602l-35.62431,-16.80917l39.63065,-16.91998l35.6243,16.80916z" fill="none" stroke="#a7a7a7" stroke-width="0.5" stroke-linecap="round"/><path d="M-257.31821,441.77243l-74.58323,0.06871" fill="none" stroke="#a7a7a7" stroke-width="0.5" stroke-linecap="round"/></g></g></g></g></g></g><g><g><g><g><g><g><path d="M219.40178,238.63642l38.66338,-16.87687l34.87886,16.87687z" fill="#a7a7a7" stroke="none" stroke-width="0" stroke-linecap="butt"/><path d="M292.73944,238.63642l-38.35651,16.97915l-35.18571,-16.97915z" data-paper-data="{&quot;index&quot;:null}" fill="#bebebe" stroke="none" stroke-width="0" stroke-linecap="butt"/><path d="M254.17641,255.52961l-35.62431,-16.80917l39.63065,-16.91998l35.6243,16.80917z" fill="none" stroke="#a7a7a7" stroke-width="0.5" stroke-linecap="round"/><path d="M218.86084,238.61471l74.58323,-0.06871" fill="none" stroke="#a7a7a7" stroke-width="0.5" stroke-linecap="round"/></g><g><path d="M259.32163,221.61347l38.66336,-16.87687l34.87886,16.87687z" fill="#a7a7a7" stroke="none" stroke-width="0" stroke-linecap="butt"/><path d="M332.65929,221.61347l-38.35651,16.97915l-35.18571,-16.97915z" data-paper-data="{&quot;index&quot;:null}" fill="#bebebe" stroke="none" stroke-width="0" stroke-linecap="butt"/><path d="M294.09626,238.50664l-35.6243,-16.80917l39.63063,-16.91998l35.6243,16.80917z" fill="none" stroke="#a7a7a7" stroke-width="0.5" stroke-linecap="round"/><path d="M333.36393,221.52304l-74.58323,0.06871" fill="none" stroke="#a7a7a7" stroke-width="0.5" stroke-linecap="round"/></g></g><g><g><path d="M140.2192,272.42987l38.66338,-16.87687l34.87886,16.87687z" fill="#a7a7a7" stroke="none" stroke-width="0" stroke-linecap="butt"/><path d="M213.5569,272.42987l-38.35651,16.97915l-35.18571,-16.97915z" data-paper-data="{&quot;index&quot;:null}" fill="#bebebe" stroke="none" stroke-width="0" stroke-linecap="butt"/><path d="M174.99385,289.32306l-35.62431,-16.80917l39.63065,-16.91998l35.6243,16.80916z" fill="none" stroke="#a7a7a7" stroke-width="0.5" stroke-linecap="round"/><path d="M214.26151,272.33945l-74.58323,0.06871" fill="none" stroke="#a7a7a7" stroke-width="0.5" stroke-linecap="round"/></g><g><path d="M180.13908,255.40692l38.66338,-16.87687l34.87886,16.87687z" fill="#a7a7a7" stroke="none" stroke-width="0" stroke-linecap="butt"/><path d="M253.47675,255.40692l-38.35653,16.97915l-35.18571,-16.97915z" data-paper-data="{&quot;index&quot;:null}" fill="#bebebe" stroke="none" stroke-width="0" stroke-linecap="butt"/><path d="M214.9137,272.30009l-35.62431,-16.80917l39.63065,-16.91998l35.6243,16.80917z" fill="none" stroke="#a7a7a7" stroke-width="0.5" stroke-linecap="round"/><path d="M179.59815,255.3852l74.58323,-0.06871" fill="none" stroke="#a7a7a7" stroke-width="0.5" stroke-linecap="round"/></g></g></g><g><g><g><path d="M60.74461,306.38524l38.66338,-16.87687l34.87886,16.87687z" fill="#a7a7a7" stroke="none" stroke-width="0" stroke-linecap="butt"/><path d="M134.08226,306.38524l-38.35653,16.97915l-35.18571,-16.97915z" data-paper-data="{&quot;index&quot;:null}" fill="#bebebe" stroke="none" stroke-width="0" stroke-linecap="butt"/><path d="M95.51923,323.27841l-35.62431,-16.80917l39.63063,-16.91998l35.6243,16.80916z" fill="none" stroke="#a7a7a7" stroke-width="0.5" stroke-linecap="round"/><path d="M60.20365,306.36352l74.58323,-0.06871" fill="none" stroke="#a7a7a7" stroke-width="0.5" stroke-linecap="round"/></g><g><path d="M100.66446,289.36226l38.66338,-16.87687l34.87886,16.87687z" fill="#a7a7a7" stroke="none" stroke-width="0" stroke-linecap="butt"/><path d="M174.00211,289.36226l-38.35653,16.97915l-35.18571,-16.97915z" data-paper-data="{&quot;index&quot;:null}" fill="#bebebe" stroke="none" stroke-width="0" stroke-linecap="butt"/><path d="M135.43908,306.25545l-35.62431,-16.80917l39.63065,-16.91998l35.6243,16.80917z" fill="none" stroke="#a7a7a7" stroke-width="0.5" stroke-linecap="round"/><path d="M100.12352,289.34055l74.58323,-0.06871" fill="none" stroke="#a7a7a7" stroke-width="0.5" stroke-linecap="round"/></g></g><g><g><path d="M-18.43795,340.17869l38.66338,-16.87687l34.87886,16.87687z" fill="#a7a7a7" stroke="none" stroke-width="0" stroke-linecap="butt"/><path d="M54.89972,340.17869l-38.35651,16.97915l-35.18571,-16.97915z" data-paper-data="{&quot;index&quot;:null}" fill="#bebebe" stroke="none" stroke-width="0" stroke-linecap="butt"/><path d="M16.33667,357.07186l-35.6243,-16.80917l39.63063,-16.91998l35.6243,16.80916z" fill="none" stroke="#a7a7a7" stroke-width="0.5" stroke-linecap="round"/><path d="M-18.97888,340.15698l74.58323,-0.06871" fill="none" stroke="#a7a7a7" stroke-width="0.5" stroke-linecap="round"/></g><g><path d="M21.4819,323.15572l38.66338,-16.87687l34.87886,16.87687z" fill="#a7a7a7" stroke="none" stroke-width="0" stroke-linecap="butt"/><path d="M94.81957,323.15572l-38.35653,16.97915l-35.18571,-16.97915z" data-paper-data="{&quot;index&quot;:null}" fill="#bebebe" stroke="none" stroke-width="0" stroke-linecap="butt"/><path d="M56.25652,340.0489l-35.6243,-16.80917l39.63063,-16.91998l35.6243,16.80916z" fill="none" stroke="#a7a7a7" stroke-width="0.5" stroke-linecap="round"/><path d="M95.52421,323.06529l-74.58323,0.06871" fill="none" stroke="#a7a7a7" stroke-width="0.5" stroke-linecap="round"/></g></g></g></g><g><g><g><g><path d="M-97.87795,374.04498l38.66338,-16.87687l34.87886,16.87687z" fill="#a7a7a7" stroke="none" stroke-width="0" stroke-linecap="butt"/><path d="M-24.54028,374.04498l-38.35651,16.97915l-35.18571,-16.97915z" data-paper-data="{&quot;index&quot;:null}" fill="#bebebe" stroke="none" stroke-width="0" stroke-linecap="butt"/><path d="M-63.10333,390.93814l-35.6243,-16.80917l39.63065,-16.91998l35.6243,16.80916z" fill="none" stroke="#a7a7a7" stroke-width="0.5" stroke-linecap="round"/><path d="M-98.41887,374.02327l74.58323,-0.06871" fill="none" stroke="#a7a7a7" stroke-width="0.5" stroke-linecap="round"/></g><g><path d="M-57.9581,357.02201l38.66338,-16.87687l34.87886,16.87687z" fill="#a7a7a7" stroke="none" stroke-width="0" stroke-linecap="butt"/><path d="M15.37957,357.02201l-38.35651,16.97915l-35.18571,-16.97915z" data-paper-data="{&quot;index&quot;:null}" fill="#bebebe" stroke="none" stroke-width="0" stroke-linecap="butt"/><path d="M-23.18349,373.91518l-35.6243,-16.80917l39.63063,-16.91998l35.6243,16.80917z" fill="none" stroke="#a7a7a7" stroke-width="0.5" stroke-linecap="round"/><path d="M-58.49902,357.00029l74.58323,-0.06871" fill="none" stroke="#a7a7a7" stroke-width="0.5" stroke-linecap="round"/></g></g><g><g><path d="M-177.06049,407.83844l38.66338,-16.87687l34.87886,16.87687z" fill="#a7a7a7" stroke="none" stroke-width="0" stroke-linecap="butt"/><path d="M-103.72284,407.83844l-38.35651,16.97915l-35.18571,-16.97915z" data-paper-data="{&quot;index&quot;:null}" fill="#bebebe" stroke="none" stroke-width="0" stroke-linecap="butt"/><path d="M-142.28587,424.7316l-35.6243,-16.80917l39.63063,-16.91998l35.6243,16.80916z" fill="none" stroke="#a7a7a7" stroke-width="0.5" stroke-linecap="round"/><path d="M-103.0182,407.748l-74.58323,0.06871" fill="none" stroke="#a7a7a7" stroke-width="0.5" stroke-linecap="round"/></g><g><path d="M-137.14064,390.81546l38.66338,-16.87687l34.87886,16.87687z" fill="#a7a7a7" stroke="none" stroke-width="0" stroke-linecap="butt"/><path d="M-63.80299,390.81546l-38.35651,16.97915l-35.18571,-16.97915z" data-paper-data="{&quot;index&quot;:null}" fill="#bebebe" stroke="none" stroke-width="0" stroke-linecap="butt"/><path d="M-102.36602,407.70865l-35.6243,-16.80917l39.63065,-16.91998l35.6243,16.80916z" fill="none" stroke="#a7a7a7" stroke-width="0.5" stroke-linecap="round"/><path d="M-63.09836,390.72503l-74.58323,0.06871" fill="none" stroke="#a7a7a7" stroke-width="0.5" stroke-linecap="round"/></g></g></g><g><g><g><path d="M-256.53514,441.79378l38.66338,-16.87687l34.87886,16.87687z" fill="#a7a7a7" stroke="none" stroke-width="0" stroke-linecap="butt"/><path d="M-183.19746,441.79378l-38.35651,16.97915l-35.18571,-16.97915z" data-paper-data="{&quot;index&quot;:null}" fill="#bebebe" stroke="none" stroke-width="0" stroke-linecap="butt"/><path d="M-221.7605,458.68697l-35.6243,-16.80917l39.63063,-16.91998l35.6243,16.80916z" fill="none" stroke="#a7a7a7" stroke-width="0.5" stroke-linecap="round"/><path d="M-257.07605,441.77205l74.58323,-0.06871" fill="none" stroke="#a7a7a7" stroke-width="0.5" stroke-linecap="round"/></g><g><path d="M-216.61528,424.77083l38.66336,-16.87687l34.87886,16.87687z" fill="#a7a7a7" stroke="none" stroke-width="0" stroke-linecap="butt"/><path d="M-143.2776,424.77083l-38.35651,16.97915l-35.18571,-16.97915z" data-paper-data="{&quot;index&quot;:null}" fill="#bebebe" stroke="none" stroke-width="0" stroke-linecap="butt"/><path d="M-181.84065,441.66399l-35.6243,-16.80917l39.63063,-16.91998l35.6243,16.80916z" fill="none" stroke="#a7a7a7" stroke-width="0.5" stroke-linecap="round"/><path d="M-142.57298,424.68038l-74.58323,0.06871" fill="none" stroke="#a7a7a7" stroke-width="0.5" stroke-linecap="round"/></g></g><g><g><path d="M-335.71767,475.58723l38.66338,-16.87687l34.87886,16.87687z" fill="#a7a7a7" stroke="none" stroke-width="0" stroke-linecap="butt"/><path d="M-262.38002,475.58723l-38.35651,16.97915l-35.18571,-16.97915z" data-paper-data="{&quot;index&quot;:null}" fill="#bebebe" stroke="none" stroke-width="0" stroke-linecap="butt"/><path d="M-300.94305,492.48042l-35.62431,-16.80917l39.63063,-16.91998l35.6243,16.80916z" fill="none" stroke="#a7a7a7" stroke-width="0.5" stroke-linecap="round"/><path d="M-336.25862,475.56552l74.58323,-0.06871" fill="none" stroke="#a7a7a7" stroke-width="0.5" stroke-linecap="round"/></g><g><path d="M-295.79782,458.56428l38.66338,-16.87687l34.87886,16.87687z" fill="#a7a7a7" stroke="none" stroke-width="0" stroke-linecap="butt"/><path d="M-222.46016,458.56428l-38.35651,16.97915l-35.18571,-16.97915z" data-paper-data="{&quot;index&quot;:null}" fill="#bebebe" stroke="none" stroke-width="0" stroke-linecap="butt"/><path d="M-261.02319,475.45743l-35.62431,-16.80917l39.63063,-16.91998l35.6243,16.80916z" fill="none" stroke="#a7a7a7" stroke-width="0.5" stroke-linecap="round"/><path d="M-296.33877,458.54256l74.58323,-0.06871" fill="none" stroke="#a7a7a7" stroke-width="0.5" stroke-linecap="round"/></g></g></g></g></g><g><g><g><g><g><path d="M255.02279,255.43203l38.66336,-16.87687l34.87886,16.87687z" fill="#a7a7a7" stroke="none" stroke-width="0" stroke-linecap="butt"/><path d="M328.36046,255.43203l-38.35651,16.97915l-35.18571,-16.97915z" data-paper-data="{&quot;index&quot;:null}" fill="#bebebe" stroke="none" stroke-width="0" stroke-linecap="butt"/><path d="M289.79741,272.32522l-35.62431,-16.80917l39.63065,-16.91998l35.6243,16.80916z" fill="none" stroke="#a7a7a7" stroke-width="0.5" stroke-linecap="round"/><path d="M254.48186,255.41031l74.58323,-0.06871" fill="none" stroke="#a7a7a7" stroke-width="0.5" stroke-linecap="round"/></g><g><path d="M294.94264,238.40907l38.66336,-16.87687l34.87886,16.87687z" fill="#a7a7a7" stroke="none" stroke-width="0" stroke-linecap="butt"/><path d="M368.28031,238.40907l-38.35651,16.97915l-35.18571,-16.97915z" data-paper-data="{&quot;index&quot;:null}" fill="#bebebe" stroke="none" stroke-width="0" stroke-linecap="butt"/><path d="M329.71726,255.30224l-35.6243,-16.80917l39.63065,-16.91998l35.6243,16.80917z" fill="none" stroke="#a7a7a7" stroke-width="0.5" stroke-linecap="round"/><path d="M368.98495,238.31865l-74.58323,0.06871" fill="none" stroke="#a7a7a7" stroke-width="0.5" stroke-linecap="round"/></g></g><g><g><path d="M175.84024,289.22548l38.66338,-16.87687l34.87886,16.87687z" fill="#a7a7a7" stroke="none" stroke-width="0" stroke-linecap="butt"/><path d="M249.1779,289.22548l-38.35653,16.97915l-35.18571,-16.97915z" data-paper-data="{&quot;index&quot;:null}" fill="#bebebe" stroke="none" stroke-width="0" stroke-linecap="butt"/><path d="M210.61487,306.11867l-35.62431,-16.80917l39.63065,-16.91998l35.6243,16.80917z" fill="none" stroke="#a7a7a7" stroke-width="0.5" stroke-linecap="round"/><path d="M249.88253,289.13505l-74.58323,0.06871" fill="none" stroke="#a7a7a7" stroke-width="0.5" stroke-linecap="round"/></g><g><path d="M215.76009,272.20252l38.66338,-16.87687l34.87886,16.87687z" fill="#a7a7a7" stroke="none" stroke-width="0" stroke-linecap="butt"/><path d="M289.09774,272.20252l-38.35653,16.97915l-35.18571,-16.97915z" data-paper-data="{&quot;index&quot;:null}" fill="#bebebe" stroke="none" stroke-width="0" stroke-linecap="butt"/><path d="M250.53472,289.09569l-35.62431,-16.80917l39.63065,-16.91998l35.6243,16.80916z" fill="none" stroke="#a7a7a7" stroke-width="0.5" stroke-linecap="round"/><path d="M289.80239,272.1121l-74.58323,0.06871" fill="none" stroke="#a7a7a7" stroke-width="0.5" stroke-linecap="round"/></g></g></g><g><g><g><path d="M96.36561,323.18084l38.66338,-16.87687l34.87886,16.87687z" fill="#a7a7a7" stroke="none" stroke-width="0" stroke-linecap="butt"/><path d="M169.70328,323.18084l-38.35653,16.97915l-35.18571,-16.97915z" data-paper-data="{&quot;index&quot;:null}" fill="#bebebe" stroke="none" stroke-width="0" stroke-linecap="butt"/><path d="M131.14022,340.07402l-35.62431,-16.80917l39.63065,-16.91998l35.6243,16.80916z" fill="none" stroke="#a7a7a7" stroke-width="0.5" stroke-linecap="round"/><path d="M170.40792,323.09042l-74.58323,0.06871" fill="none" stroke="#a7a7a7" stroke-width="0.5" stroke-linecap="round"/></g><g><path d="M136.28546,306.15787l38.66338,-16.87687l34.87886,16.87687z" fill="#a7a7a7" stroke="none" stroke-width="0" stroke-linecap="butt"/><path d="M209.62313,306.15787l-38.35653,16.97915l-35.18571,-16.97915z" data-paper-data="{&quot;index&quot;:null}" fill="#bebebe" stroke="none" stroke-width="0" stroke-linecap="butt"/><path d="M171.06009,323.05106l-35.62431,-16.80917l39.63065,-16.91998l35.6243,16.80917z" fill="none" stroke="#a7a7a7" stroke-width="0.5" stroke-linecap="round"/><path d="M135.74454,306.13616l74.58323,-0.06871" fill="none" stroke="#a7a7a7" stroke-width="0.5" stroke-linecap="round"/></g></g><g><g><path d="M17.18307,356.9743l38.66338,-16.87687l34.87886,16.87687z" fill="#a7a7a7" stroke="none" stroke-width="0" stroke-linecap="butt"/><path d="M90.52072,356.9743l-38.35653,16.97915l-35.18571,-16.97915z" data-paper-data="{&quot;index&quot;:null}" fill="#bebebe" stroke="none" stroke-width="0" stroke-linecap="butt"/><path d="M51.95769,373.86747l-35.62431,-16.80917l39.63063,-16.91998l35.6243,16.80916z" fill="none" stroke="#a7a7a7" stroke-width="0.5" stroke-linecap="round"/><path d="M91.22536,356.88387l-74.58323,0.06871" fill="none" stroke="#a7a7a7" stroke-width="0.5" stroke-linecap="round"/></g><g><path d="M57.10292,339.95132l38.66338,-16.87687l34.87886,16.87687z" fill="#a7a7a7" stroke="none" stroke-width="0" stroke-linecap="butt"/><path d="M130.44057,339.95132l-38.35653,16.97915l-35.18571,-16.97915z" data-paper-data="{&quot;index&quot;:null}" fill="#bebebe" stroke="none" stroke-width="0" stroke-linecap="butt"/><path d="M91.87754,356.84451l-35.62431,-16.80917l39.63063,-16.91998l35.6243,16.80916z" fill="none" stroke="#a7a7a7" stroke-width="0.5" stroke-linecap="round"/><path d="M131.14521,339.8609l-74.58323,0.06871" fill="none" stroke="#a7a7a7" stroke-width="0.5" stroke-linecap="round"/></g></g></g></g><g><g><g><g><path d="M-62.25693,390.84059l38.66338,-16.87687l34.87886,16.87687z" fill="#a7a7a7" stroke="none" stroke-width="0" stroke-linecap="butt"/><path d="M11.08072,390.84059l-38.35651,16.97915l-35.18571,-16.97915z" data-paper-data="{&quot;index&quot;:null}" fill="#bebebe" stroke="none" stroke-width="0" stroke-linecap="butt"/><path d="M-27.48231,407.73376l-35.6243,-16.80917l39.63063,-16.91998l35.6243,16.80916z" fill="none" stroke="#a7a7a7" stroke-width="0.5" stroke-linecap="round"/><path d="M-62.79787,390.81887l74.58323,-0.06871" fill="none" stroke="#a7a7a7" stroke-width="0.5" stroke-linecap="round"/></g><g><path d="M-22.33708,373.81762l38.66338,-16.87687l34.87886,16.87687z" fill="#a7a7a7" stroke="none" stroke-width="0" stroke-linecap="butt"/><path d="M51.00058,373.81762l-38.35651,16.97915l-35.18571,-16.97915z" data-paper-data="{&quot;index&quot;:null}" fill="#bebebe" stroke="none" stroke-width="0" stroke-linecap="butt"/><path d="M12.43755,390.7108l-35.6243,-16.80917l39.63063,-16.91998l35.6243,16.80916z" fill="none" stroke="#a7a7a7" stroke-width="0.5" stroke-linecap="round"/><path d="M-22.87802,373.7959l74.58323,-0.06871" fill="none" stroke="#a7a7a7" stroke-width="0.5" stroke-linecap="round"/></g></g><g><g><path d="M-141.43949,424.63401l38.66338,-16.87687l34.87886,16.87687z" fill="#a7a7a7" stroke="none" stroke-width="0" stroke-linecap="butt"/><path d="M-68.10183,424.63401l-38.35651,16.97915l-35.18571,-16.97915z" data-paper-data="{&quot;index&quot;:null}" fill="#bebebe" stroke="none" stroke-width="0" stroke-linecap="butt"/><path d="M-106.66487,441.52721l-35.6243,-16.80917l39.63065,-16.91998l35.6243,16.80916z" fill="none" stroke="#a7a7a7" stroke-width="0.5" stroke-linecap="round"/><path d="M-141.98041,424.61229l74.58323,-0.06871" fill="none" stroke="#a7a7a7" stroke-width="0.5" stroke-linecap="round"/></g><g><path d="M-101.51964,407.61105l38.66338,-16.87687l34.87886,16.87687z" fill="#a7a7a7" stroke="none" stroke-width="0" stroke-linecap="butt"/><path d="M-28.18197,407.61105l-38.35651,16.97915l-35.18571,-16.97915z" data-paper-data="{&quot;index&quot;:null}" fill="#bebebe" stroke="none" stroke-width="0" stroke-linecap="butt"/><path d="M-66.74501,424.50425l-35.62431,-16.80917l39.63065,-16.91998l35.6243,16.80916z" fill="none" stroke="#a7a7a7" stroke-width="0.5" stroke-linecap="round"/><path d="M-27.47733,407.52064l-74.58323,0.06871" fill="none" stroke="#a7a7a7" stroke-width="0.5" stroke-linecap="round"/></g></g></g><g><g><g><path d="M-220.91411,458.58939l38.66338,-16.87687l34.87886,16.87687z" fill="#a7a7a7" stroke="none" stroke-width="0" stroke-linecap="butt"/><path d="M-147.57647,458.58939l-38.35651,16.97915l-35.18571,-16.97915z" data-paper-data="{&quot;index&quot;:null}" fill="#bebebe" stroke="none" stroke-width="0" stroke-linecap="butt"/><path d="M-186.13948,475.48254l-35.6243,-16.80917l39.63063,-16.91998l35.6243,16.80916z" fill="none" stroke="#a7a7a7" stroke-width="0.5" stroke-linecap="round"/><path d="M-221.45505,458.56767l74.58323,-0.06871" fill="none" stroke="#a7a7a7" stroke-width="0.5" stroke-linecap="round"/></g><g><path d="M-180.99426,441.56643l38.66338,-16.87687l34.87886,16.87687z" fill="#a7a7a7" stroke="none" stroke-width="0" stroke-linecap="butt"/><path d="M-107.6566,441.56643l-38.35651,16.97915l-35.18571,-16.97915z" data-paper-data="{&quot;index&quot;:null}" fill="#bebebe" stroke="none" stroke-width="0" stroke-linecap="butt"/><path d="M-146.21965,458.45958l-35.6243,-16.80917l39.63063,-16.91998l35.6243,16.80916z" fill="none" stroke="#a7a7a7" stroke-width="0.5" stroke-linecap="round"/><path d="M-181.5352,441.54472l74.58323,-0.06871" fill="none" stroke="#a7a7a7" stroke-width="0.5" stroke-linecap="round"/></g></g><g><g><path d="M-300.09667,492.38284l38.66338,-16.87687l34.87886,16.87687z" fill="#a7a7a7" stroke="none" stroke-width="0" stroke-linecap="butt"/><path d="M-226.759,492.38284l-38.35651,16.97915l-35.18571,-16.97915z" data-paper-data="{&quot;index&quot;:null}" fill="#bebebe" stroke="none" stroke-width="0" stroke-linecap="butt"/><path d="M-265.32204,509.27603l-35.62431,-16.80917l39.63065,-16.91998l35.6243,16.80917z" fill="none" stroke="#a7a7a7" stroke-width="0.5" stroke-linecap="round"/><path d="M-226.05436,492.29241l-74.58323,0.06871" fill="none" stroke="#a7a7a7" stroke-width="0.5" stroke-linecap="round"/></g><g><path d="M-260.17682,475.35988l38.66338,-16.87687l34.87886,16.87687z" fill="#a7a7a7" stroke="none" stroke-width="0" stroke-linecap="butt"/><path d="M-186.83914,475.35988l-38.35651,16.97915l-35.18571,-16.97915z" data-paper-data="{&quot;index&quot;:null}" fill="#bebebe" stroke="none" stroke-width="0" stroke-linecap="butt"/><path d="M-225.40219,492.25305l-35.6243,-16.80917l39.63063,-16.91998l35.6243,16.80917z" fill="none" stroke="#a7a7a7" stroke-width="0.5" stroke-linecap="round"/><path d="M-186.13453,475.26946l-74.58323,0.06871" fill="none" stroke="#a7a7a7" stroke-width="0.5" stroke-linecap="round"/></g></g></g></g></g></g></g></g></g></svg>