<svg version="1.1" xmlns="http://www.w3.org/2000/svg" xmlns:xlink="http://www.w3.org/1999/xlink" width="778.31897" height="338.5436" viewBox="0,0,778.31897,338.5436"><g transform="translate(265.56387,-238.0994)"><g data-paper-data="{&quot;isPaintingLayer&quot;:true}" fill-rule="nonzero" stroke-linejoin="miter" stroke-miterlimit="10" stroke-dasharray="" stroke-dashoffset="0" style="mix-blend-mode: normal"><g><g><g><g><g><g><path d="M291.01527,272.23235l38.66338,-16.87687l34.87886,16.87687z" fill="#a7a7a7" stroke="none" stroke-width="0" stroke-linecap="butt"/><path d="M364.35293,272.23235l-38.35653,16.97915l-35.18571,-16.97915z" data-paper-data="{&quot;index&quot;:null}" fill="#bebebe" stroke="none" stroke-width="0" stroke-linecap="butt"/><path d="M325.7899,289.12554l-35.62431,-16.80917l39.63065,-16.91998l35.6243,16.80917z" fill="none" stroke="#a7a7a7" stroke-width="0.5" stroke-linecap="round"/><path d="M365.05757,272.14193l-74.58323,0.06871" fill="none" stroke="#a7a7a7" stroke-width="0.5" stroke-linecap="round"/></g><g><path d="M330.93513,255.2094l38.66338,-16.87687l34.87886,16.87687z" fill="#a7a7a7" stroke="none" stroke-width="0" stroke-linecap="butt"/><path d="M404.27278,255.2094l-38.35653,16.97915l-35.18571,-16.97915z" data-paper-data="{&quot;index&quot;:null}" fill="#bebebe" stroke="none" stroke-width="0" stroke-linecap="butt"/><path d="M365.70975,272.10257l-35.62431,-16.80917l39.63065,-16.91998l35.6243,16.80917z" fill="none" stroke="#a7a7a7" stroke-width="0.5" stroke-linecap="round"/><path d="M404.97742,255.11897l-74.58323,0.06871" fill="none" stroke="#a7a7a7" stroke-width="0.5" stroke-linecap="round"/></g></g><g><g><path d="M211.83271,306.02581l38.66338,-16.87687l34.87886,16.87687z" fill="#a7a7a7" stroke="none" stroke-width="0" stroke-linecap="butt"/><path d="M285.17039,306.02581l-38.35653,16.97915l-35.18571,-16.97915z" data-paper-data="{&quot;index&quot;:null}" fill="#bebebe" stroke="none" stroke-width="0" stroke-linecap="butt"/><path d="M246.60732,322.91899l-35.62431,-16.80917l39.63063,-16.91998l35.6243,16.80916z" fill="none" stroke="#a7a7a7" stroke-width="0.5" stroke-linecap="round"/><path d="M285.87501,305.93538l-74.58323,0.06871" fill="none" stroke="#a7a7a7" stroke-width="0.5" stroke-linecap="round"/></g><g><path d="M251.75257,289.00285l38.66338,-16.87687l34.87886,16.87687z" fill="#a7a7a7" stroke="none" stroke-width="0" stroke-linecap="butt"/><path d="M325.09024,289.00285l-38.35653,16.97915l-35.18571,-16.97915z" data-paper-data="{&quot;index&quot;:null}" fill="#bebebe" stroke="none" stroke-width="0" stroke-linecap="butt"/><path d="M286.52719,305.89602l-35.62431,-16.80917l39.63065,-16.91998l35.6243,16.80917z" fill="none" stroke="#a7a7a7" stroke-width="0.5" stroke-linecap="round"/><path d="M325.79487,288.91242l-74.58323,0.06871" fill="none" stroke="#a7a7a7" stroke-width="0.5" stroke-linecap="round"/></g></g></g><g><g><g><path d="M132.3581,339.98117l38.66338,-16.87687l34.87886,16.87687z" fill="#a7a7a7" stroke="none" stroke-width="0" stroke-linecap="butt"/><path d="M205.69575,339.98117l-38.35653,16.97915l-35.18571,-16.97915z" data-paper-data="{&quot;index&quot;:null}" fill="#bebebe" stroke="none" stroke-width="0" stroke-linecap="butt"/><path d="M167.13272,356.87434l-35.62431,-16.80917l39.63065,-16.91998l35.6243,16.80916z" fill="none" stroke="#a7a7a7" stroke-width="0.5" stroke-linecap="round"/><path d="M206.40038,339.89074l-74.58323,0.06871" fill="none" stroke="#a7a7a7" stroke-width="0.5" stroke-linecap="round"/></g><g><path d="M172.27795,322.9582l38.66338,-16.87687l34.87886,16.87687z" fill="#a7a7a7" stroke="none" stroke-width="0" stroke-linecap="butt"/><path d="M245.61559,322.9582l-38.35653,16.97915l-35.18571,-16.97915z" data-paper-data="{&quot;index&quot;:null}" fill="#bebebe" stroke="none" stroke-width="0" stroke-linecap="butt"/><path d="M207.05257,339.85138l-35.62431,-16.80917l39.63065,-16.91998l35.6243,16.80917z" fill="none" stroke="#a7a7a7" stroke-width="0.5" stroke-linecap="round"/><path d="M246.32024,322.86777l-74.58323,0.06871" fill="none" stroke="#a7a7a7" stroke-width="0.5" stroke-linecap="round"/></g></g><g><g><path d="M53.17554,373.7746l38.66338,-16.87687l34.87886,16.87687z" fill="#a7a7a7" stroke="none" stroke-width="0" stroke-linecap="butt"/><path d="M126.5132,373.7746l-38.35653,16.97915l-35.18571,-16.97915z" data-paper-data="{&quot;index&quot;:null}" fill="#bebebe" stroke="none" stroke-width="0" stroke-linecap="butt"/><path d="M87.95016,390.66777l-35.62431,-16.80917l39.63065,-16.91998l35.6243,16.80916z" fill="none" stroke="#a7a7a7" stroke-width="0.5" stroke-linecap="round"/><path d="M127.21785,373.6842l-74.58323,0.06871" fill="none" stroke="#a7a7a7" stroke-width="0.5" stroke-linecap="round"/></g><g><path d="M93.09539,356.75165l38.66338,-16.87687l34.87886,16.87687z" fill="#a7a7a7" stroke="none" stroke-width="0" stroke-linecap="butt"/><path d="M166.43306,356.75165l-38.35653,16.97915l-35.18571,-16.97915z" data-paper-data="{&quot;index&quot;:null}" fill="#bebebe" stroke="none" stroke-width="0" stroke-linecap="butt"/><path d="M127.87001,373.64483l-35.62431,-16.80917l39.63065,-16.91998l35.6243,16.80916z" fill="none" stroke="#a7a7a7" stroke-width="0.5" stroke-linecap="round"/><path d="M167.1377,356.66122l-74.58323,0.06871" fill="none" stroke="#a7a7a7" stroke-width="0.5" stroke-linecap="round"/></g></g></g></g><g><g><g><g><path d="M-26.26446,407.64091l38.66338,-16.87687l34.87886,16.87687z" fill="#a7a7a7" stroke="none" stroke-width="0" stroke-linecap="butt"/><path d="M47.07321,407.64091l-38.35651,16.97915l-35.18571,-16.97915z" data-paper-data="{&quot;index&quot;:null}" fill="#bebebe" stroke="none" stroke-width="0" stroke-linecap="butt"/><path d="M8.51017,424.53408l-35.6243,-16.80917l39.63063,-16.91998l35.6243,16.80917z" fill="none" stroke="#a7a7a7" stroke-width="0.5" stroke-linecap="round"/><path d="M47.77785,407.55049l-74.58323,0.06871" fill="none" stroke="#a7a7a7" stroke-width="0.5" stroke-linecap="round"/></g><g><path d="M13.65539,390.61794l38.66338,-16.87687l34.87886,16.87687z" fill="#a7a7a7" stroke="none" stroke-width="0" stroke-linecap="butt"/><path d="M86.99307,390.61794l-38.35651,16.97915l-35.18571,-16.97915z" data-paper-data="{&quot;index&quot;:null}" fill="#bebebe" stroke="none" stroke-width="0" stroke-linecap="butt"/><path d="M48.43002,407.51113l-35.6243,-16.80917l39.63063,-16.91998l35.6243,16.80916z" fill="none" stroke="#a7a7a7" stroke-width="0.5" stroke-linecap="round"/><path d="M13.11447,390.59622l74.58323,-0.06871" fill="none" stroke="#a7a7a7" stroke-width="0.5" stroke-linecap="round"/></g></g><g><g><path d="M-105.447,441.43437l38.66338,-16.87687l34.87886,16.87687z" fill="#a7a7a7" stroke="none" stroke-width="0" stroke-linecap="butt"/><path d="M-32.10935,441.43437l-38.35651,16.97915l-35.18571,-16.97915z" data-paper-data="{&quot;index&quot;:null}" fill="#bebebe" stroke="none" stroke-width="0" stroke-linecap="butt"/><path d="M-70.67239,458.32753l-35.6243,-16.80917l39.63063,-16.91998l35.6243,16.80916z" fill="none" stroke="#a7a7a7" stroke-width="0.5" stroke-linecap="round"/><path d="M-31.40471,441.34393l-74.58323,0.06871" fill="none" stroke="#a7a7a7" stroke-width="0.5" stroke-linecap="round"/></g><g><path d="M-65.52715,424.41137l38.66338,-16.87687l34.87886,16.87687z" fill="#a7a7a7" stroke="none" stroke-width="0" stroke-linecap="butt"/><path d="M7.81051,424.41137l-38.35651,16.97915l-35.18571,-16.97915z" data-paper-data="{&quot;index&quot;:null}" fill="#bebebe" stroke="none" stroke-width="0" stroke-linecap="butt"/><path d="M-30.75253,441.30458l-35.6243,-16.80917l39.63063,-16.91998l35.6243,16.80917z" fill="none" stroke="#a7a7a7" stroke-width="0.5" stroke-linecap="round"/><path d="M8.51513,424.32097l-74.58323,0.06871" fill="none" stroke="#a7a7a7" stroke-width="0.5" stroke-linecap="round"/></g></g></g><g><g><g><path d="M-184.92164,475.3897l38.66338,-16.87687l34.87886,16.87687z" fill="#a7a7a7" stroke="none" stroke-width="0" stroke-linecap="butt"/><path d="M-111.58396,475.3897l-38.35653,16.97915l-35.18571,-16.97915z" data-paper-data="{&quot;index&quot;:null}" fill="#bebebe" stroke="none" stroke-width="0" stroke-linecap="butt"/><path d="M-150.14701,492.2829l-35.62431,-16.80917l39.63065,-16.91998l35.6243,16.80916z" fill="none" stroke="#a7a7a7" stroke-width="0.5" stroke-linecap="round"/><path d="M-185.46256,475.36798l74.58323,-0.06871" fill="none" stroke="#a7a7a7" stroke-width="0.5" stroke-linecap="round"/></g><g><path d="M-145.00179,458.36676l38.66338,-16.87687l34.87886,16.87687z" fill="#a7a7a7" stroke="none" stroke-width="0" stroke-linecap="butt"/><path d="M-71.66411,458.36676l-38.35653,16.97915l-35.18571,-16.97915z" data-paper-data="{&quot;index&quot;:null}" fill="#bebebe" stroke="none" stroke-width="0" stroke-linecap="butt"/><path d="M-110.22716,475.25993l-35.62431,-16.80917l39.63065,-16.91998l35.6243,16.80917z" fill="none" stroke="#a7a7a7" stroke-width="0.5" stroke-linecap="round"/><path d="M-70.95948,458.27631l-74.58323,0.06871" fill="none" stroke="#a7a7a7" stroke-width="0.5" stroke-linecap="round"/></g></g><g><g><path d="M-264.10421,509.18317l38.66338,-16.87687l34.87886,16.87687z" fill="#a7a7a7" stroke="none" stroke-width="0" stroke-linecap="butt"/><path d="M-190.76652,509.18317l-38.35651,16.97915l-35.18571,-16.97915z" data-paper-data="{&quot;index&quot;:null}" fill="#bebebe" stroke="none" stroke-width="0" stroke-linecap="butt"/><path d="M-229.32956,526.07635l-35.6243,-16.80917l39.63063,-16.91998l35.6243,16.80917z" fill="none" stroke="#a7a7a7" stroke-width="0.5" stroke-linecap="round"/><path d="M-190.06189,509.09273l-74.58323,0.06871" fill="none" stroke="#a7a7a7" stroke-width="0.5" stroke-linecap="round"/></g><g><path d="M-224.18435,492.16021l38.66338,-16.87687l34.87886,16.87687z" fill="#a7a7a7" stroke="none" stroke-width="0" stroke-linecap="butt"/><path d="M-150.84667,492.16021l-38.35653,16.97915l-35.18571,-16.97915z" data-paper-data="{&quot;index&quot;:null}" fill="#bebebe" stroke="none" stroke-width="0" stroke-linecap="butt"/><path d="M-189.4097,509.05338l-35.6243,-16.80917l39.63063,-16.91998l35.6243,16.80916z" fill="none" stroke="#a7a7a7" stroke-width="0.5" stroke-linecap="round"/><path d="M-224.72528,492.13849l74.58323,-0.06871" fill="none" stroke="#a7a7a7" stroke-width="0.5" stroke-linecap="round"/></g></g></g></g></g><g><g><g><g><g><path d="M326.63628,289.02796l38.66338,-16.87687l34.87886,16.87687z" fill="#a7a7a7" stroke="none" stroke-width="0" stroke-linecap="butt"/><path d="M399.97395,289.02796l-38.35653,16.97915l-35.18571,-16.97915z" data-paper-data="{&quot;index&quot;:null}" fill="#bebebe" stroke="none" stroke-width="0" stroke-linecap="butt"/><path d="M361.4109,305.92115l-35.62431,-16.80917l39.63065,-16.91998l35.6243,16.80916z" fill="none" stroke="#a7a7a7" stroke-width="0.5" stroke-linecap="round"/><path d="M326.09535,289.00624l74.58323,-0.06871" fill="none" stroke="#a7a7a7" stroke-width="0.5" stroke-linecap="round"/></g><g><path d="M366.55613,272.005l38.66338,-16.87687l34.87886,16.87687z" fill="#a7a7a7" stroke="none" stroke-width="0" stroke-linecap="butt"/><path d="M439.8938,272.005l-38.35651,16.97915l-35.18571,-16.97915z" data-paper-data="{&quot;index&quot;:null}" fill="#bebebe" stroke="none" stroke-width="0" stroke-linecap="butt"/><path d="M401.33074,288.89817l-35.62431,-16.80917l39.63065,-16.91998l35.6243,16.80917z" fill="none" stroke="#a7a7a7" stroke-width="0.5" stroke-linecap="round"/><path d="M366.01521,271.98329l74.58323,-0.06871" fill="none" stroke="#a7a7a7" stroke-width="0.5" stroke-linecap="round"/></g></g><g><g><path d="M247.45373,322.82141l38.66338,-16.87687l34.87886,16.87687z" fill="#a7a7a7" stroke="none" stroke-width="0" stroke-linecap="butt"/><path d="M320.79139,322.82141l-38.35653,16.97915l-35.18571,-16.97915z" data-paper-data="{&quot;index&quot;:null}" fill="#bebebe" stroke="none" stroke-width="0" stroke-linecap="butt"/><path d="M282.22836,339.7146l-35.62431,-16.80917l39.63065,-16.91998l35.6243,16.80917z" fill="none" stroke="#a7a7a7" stroke-width="0.5" stroke-linecap="round"/><path d="M321.49603,322.73099l-74.58323,0.06871" fill="none" stroke="#a7a7a7" stroke-width="0.5" stroke-linecap="round"/></g><g><path d="M287.37359,305.79846l38.66338,-16.87687l34.87886,16.87687z" fill="#a7a7a7" stroke="none" stroke-width="0" stroke-linecap="butt"/><path d="M360.71124,305.79846l-38.35651,16.97915l-35.18571,-16.97915z" data-paper-data="{&quot;index&quot;:null}" fill="#bebebe" stroke="none" stroke-width="0" stroke-linecap="butt"/><path d="M322.14821,322.69162l-35.62431,-16.80917l39.63065,-16.91998l35.6243,16.80916z" fill="none" stroke="#a7a7a7" stroke-width="0.5" stroke-linecap="round"/><path d="M361.41588,305.70803l-74.58323,0.06871" fill="none" stroke="#a7a7a7" stroke-width="0.5" stroke-linecap="round"/></g></g></g><g><g><g><path d="M167.9791,356.77678l38.66338,-16.87687l34.87886,16.87687z" fill="#a7a7a7" stroke="none" stroke-width="0" stroke-linecap="butt"/><path d="M241.31677,356.77678l-38.35653,16.97915l-35.18571,-16.97915z" data-paper-data="{&quot;index&quot;:null}" fill="#bebebe" stroke="none" stroke-width="0" stroke-linecap="butt"/><path d="M202.75372,373.66993l-35.62431,-16.80917l39.63065,-16.91998l35.6243,16.80916z" fill="none" stroke="#a7a7a7" stroke-width="0.5" stroke-linecap="round"/><path d="M167.43818,356.75506l74.58323,-0.06871" fill="none" stroke="#a7a7a7" stroke-width="0.5" stroke-linecap="round"/></g><g><path d="M207.89895,339.7538l38.66336,-16.87687l34.87886,16.87687z" fill="#a7a7a7" stroke="none" stroke-width="0" stroke-linecap="butt"/><path d="M281.23662,339.7538l-38.35651,16.97915l-35.18571,-16.97915z" data-paper-data="{&quot;index&quot;:null}" fill="#bebebe" stroke="none" stroke-width="0" stroke-linecap="butt"/><path d="M242.67358,356.64699l-35.62431,-16.80917l39.63063,-16.91998l35.6243,16.80917z" fill="none" stroke="#a7a7a7" stroke-width="0.5" stroke-linecap="round"/><path d="M207.35803,339.73207l74.58323,-0.06871" fill="none" stroke="#a7a7a7" stroke-width="0.5" stroke-linecap="round"/></g></g><g><g><path d="M88.79656,390.57023l38.66338,-16.87687l34.87886,16.87687z" fill="#a7a7a7" stroke="none" stroke-width="0" stroke-linecap="butt"/><path d="M162.13421,390.57023l-38.35653,16.97915l-35.18571,-16.97915z" data-paper-data="{&quot;index&quot;:null}" fill="#bebebe" stroke="none" stroke-width="0" stroke-linecap="butt"/><path d="M123.57118,407.4634l-35.62431,-16.80917l39.63065,-16.91998l35.6243,16.80917z" fill="none" stroke="#a7a7a7" stroke-width="0.5" stroke-linecap="round"/><path d="M88.25562,390.5485l74.58323,-0.06871" fill="none" stroke="#a7a7a7" stroke-width="0.5" stroke-linecap="round"/></g><g><path d="M128.71641,373.54725l38.66338,-16.87687l34.87886,16.87687z" fill="#a7a7a7" stroke="none" stroke-width="0" stroke-linecap="butt"/><path d="M202.05406,373.54725l-38.35653,16.97915l-35.18571,-16.97915z" data-paper-data="{&quot;index&quot;:null}" fill="#bebebe" stroke="none" stroke-width="0" stroke-linecap="butt"/><path d="M163.49103,390.44042l-35.62431,-16.80917l39.63065,-16.91998l35.6243,16.80916z" fill="none" stroke="#a7a7a7" stroke-width="0.5" stroke-linecap="round"/><path d="M128.17547,373.52553l74.58323,-0.06871" fill="none" stroke="#a7a7a7" stroke-width="0.5" stroke-linecap="round"/></g></g></g></g><g><g><g><g><path d="M9.35656,424.43652l38.66338,-16.87687l34.87886,16.87687z" fill="#a7a7a7" stroke="none" stroke-width="0" stroke-linecap="butt"/><path d="M82.69422,424.43652l-38.35651,16.97915l-35.18571,-16.97915z" data-paper-data="{&quot;index&quot;:null}" fill="#bebebe" stroke="none" stroke-width="0" stroke-linecap="butt"/><path d="M44.13118,441.32967l-35.6243,-16.80917l39.63065,-16.91998l35.6243,16.80917z" fill="none" stroke="#a7a7a7" stroke-width="0.5" stroke-linecap="round"/><path d="M83.39885,424.34609l-74.58323,0.06871" fill="none" stroke="#a7a7a7" stroke-width="0.5" stroke-linecap="round"/></g><g><path d="M49.27641,407.41355l38.66338,-16.87687l34.87886,16.87687z" fill="#a7a7a7" stroke="none" stroke-width="0" stroke-linecap="butt"/><path d="M122.61407,407.41355l-38.35653,16.97915l-35.18571,-16.97915z" data-paper-data="{&quot;index&quot;:null}" fill="#bebebe" stroke="none" stroke-width="0" stroke-linecap="butt"/><path d="M84.05104,424.30673l-35.62431,-16.80917l39.63063,-16.91998l35.6243,16.80917z" fill="none" stroke="#a7a7a7" stroke-width="0.5" stroke-linecap="round"/><path d="M48.73547,407.39183l74.58323,-0.06871" fill="none" stroke="#a7a7a7" stroke-width="0.5" stroke-linecap="round"/></g></g><g><g><path d="M-69.826,458.22996l38.66338,-16.87687l34.87886,16.87687z" fill="#a7a7a7" stroke="none" stroke-width="0" stroke-linecap="butt"/><path d="M3.51167,458.22996l-38.35651,16.97915l-35.18571,-16.97915z" data-paper-data="{&quot;index&quot;:null}" fill="#bebebe" stroke="none" stroke-width="0" stroke-linecap="butt"/><path d="M-35.05137,475.12314l-35.6243,-16.80917l39.63065,-16.91998l35.6243,16.80917z" fill="none" stroke="#a7a7a7" stroke-width="0.5" stroke-linecap="round"/><path d="M4.21631,458.13954l-74.58323,0.06871" fill="none" stroke="#a7a7a7" stroke-width="0.5" stroke-linecap="round"/></g><g><path d="M-29.90615,441.207l38.66338,-16.87687l34.87886,16.87687z" fill="#a7a7a7" stroke="none" stroke-width="0" stroke-linecap="butt"/><path d="M43.43152,441.207l-38.35651,16.97915l-35.18571,-16.97915z" data-paper-data="{&quot;index&quot;:null}" fill="#bebebe" stroke="none" stroke-width="0" stroke-linecap="butt"/><path d="M4.86847,458.10018l-35.62431,-16.80917l39.63065,-16.91998l35.6243,16.80916z" fill="none" stroke="#a7a7a7" stroke-width="0.5" stroke-linecap="round"/><path d="M44.13616,441.11657l-74.58323,0.06871" fill="none" stroke="#a7a7a7" stroke-width="0.5" stroke-linecap="round"/></g></g></g><g><g><g><path d="M-149.30063,492.18532l38.66338,-16.87687l34.87886,16.87687z" fill="#a7a7a7" stroke="none" stroke-width="0" stroke-linecap="butt"/><path d="M-75.96296,492.18532l-38.35653,16.97915l-35.18571,-16.97915z" data-paper-data="{&quot;index&quot;:null}" fill="#bebebe" stroke="none" stroke-width="0" stroke-linecap="butt"/><path d="M-114.526,509.07851l-35.62431,-16.80917l39.63065,-16.91998l35.6243,16.80917z" fill="none" stroke="#a7a7a7" stroke-width="0.5" stroke-linecap="round"/><path d="M-75.25833,492.09489l-74.58323,0.06871" fill="none" stroke="#a7a7a7" stroke-width="0.5" stroke-linecap="round"/></g><g><path d="M-109.38077,475.16236l38.66338,-16.87687l34.87886,16.87687z" fill="#a7a7a7" stroke="none" stroke-width="0" stroke-linecap="butt"/><path d="M-36.04311,475.16236l-38.35651,16.97915l-35.18571,-16.97915z" data-paper-data="{&quot;index&quot;:null}" fill="#bebebe" stroke="none" stroke-width="0" stroke-linecap="butt"/><path d="M-74.60614,492.05553l-35.62431,-16.80917l39.63065,-16.91998l35.6243,16.80916z" fill="none" stroke="#a7a7a7" stroke-width="0.5" stroke-linecap="round"/><path d="M-109.92171,475.14064l74.58323,-0.06871" fill="none" stroke="#a7a7a7" stroke-width="0.5" stroke-linecap="round"/></g></g><g><g><path d="M-228.48318,525.97877l38.66338,-16.87687l34.87886,16.87687z" fill="#a7a7a7" stroke="none" stroke-width="0" stroke-linecap="butt"/><path d="M-155.1455,525.97877l-38.35653,16.97915l-35.18571,-16.97915z" data-paper-data="{&quot;index&quot;:null}" fill="#bebebe" stroke="none" stroke-width="0" stroke-linecap="butt"/><path d="M-193.70855,542.87196l-35.6243,-16.80917l39.63063,-16.91998l35.6243,16.80916z" fill="none" stroke="#a7a7a7" stroke-width="0.5" stroke-linecap="round"/><path d="M-154.44087,525.88835l-74.58323,0.06871" fill="none" stroke="#a7a7a7" stroke-width="0.5" stroke-linecap="round"/></g><g><path d="M-188.56333,508.95578l38.66338,-16.87687l34.87886,16.87687z" fill="#a7a7a7" stroke="none" stroke-width="0" stroke-linecap="butt"/><path d="M-115.22565,508.95578l-38.35651,16.97915l-35.18571,-16.97915z" data-paper-data="{&quot;index&quot;:null}" fill="#bebebe" stroke="none" stroke-width="0" stroke-linecap="butt"/><path d="M-153.7887,525.84898l-35.62431,-16.80917l39.63065,-16.91998l35.6243,16.80916z" fill="none" stroke="#a7a7a7" stroke-width="0.5" stroke-linecap="round"/><path d="M-114.52102,508.86539l-74.58323,0.06871" fill="none" stroke="#a7a7a7" stroke-width="0.5" stroke-linecap="round"/></g></g></g></g></g></g><g><g><g><g><g><g><path d="M362.19897,305.72938l38.66338,-16.87687l34.87886,16.87687z" fill="#a7a7a7" stroke="none" stroke-width="0" stroke-linecap="butt"/><path d="M435.53663,305.72938l-38.35651,16.97915l-35.18571,-16.97915z" data-paper-data="{&quot;index&quot;:null}" fill="#bebebe" stroke="none" stroke-width="0" stroke-linecap="butt"/><path d="M396.9736,322.62257l-35.62431,-16.80917l39.63065,-16.91998l35.6243,16.80917z" fill="none" stroke="#a7a7a7" stroke-width="0.5" stroke-linecap="round"/><path d="M361.65803,305.70767l74.58323,-0.06871" fill="none" stroke="#a7a7a7" stroke-width="0.5" stroke-linecap="round"/></g><g><path d="M402.11882,288.70643l38.66336,-16.87687l34.87886,16.87687z" fill="#a7a7a7" stroke="none" stroke-width="0" stroke-linecap="butt"/><path d="M475.45648,288.70643l-38.35651,16.97915l-35.18571,-16.97915z" data-paper-data="{&quot;index&quot;:null}" fill="#bebebe" stroke="none" stroke-width="0" stroke-linecap="butt"/><path d="M436.89345,305.5996l-35.6243,-16.80917l39.63063,-16.91998l35.6243,16.80917z" fill="none" stroke="#a7a7a7" stroke-width="0.5" stroke-linecap="round"/><path d="M476.16112,288.616l-74.58323,0.06871" fill="none" stroke="#a7a7a7" stroke-width="0.5" stroke-linecap="round"/></g></g><g><g><path d="M283.01639,339.52282l38.66338,-16.87687l34.87886,16.87687z" fill="#a7a7a7" stroke="none" stroke-width="0" stroke-linecap="butt"/><path d="M356.35409,339.52282l-38.35651,16.97915l-35.18571,-16.97915z" data-paper-data="{&quot;index&quot;:null}" fill="#bebebe" stroke="none" stroke-width="0" stroke-linecap="butt"/><path d="M317.79104,356.41602l-35.62431,-16.80917l39.63065,-16.91998l35.6243,16.80916z" fill="none" stroke="#a7a7a7" stroke-width="0.5" stroke-linecap="round"/><path d="M357.0587,339.43241l-74.58323,0.06871" fill="none" stroke="#a7a7a7" stroke-width="0.5" stroke-linecap="round"/></g><g><path d="M322.93627,322.49988l38.66338,-16.87687l34.87886,16.87687z" fill="#a7a7a7" stroke="none" stroke-width="0" stroke-linecap="butt"/><path d="M396.27394,322.49988l-38.35653,16.97915l-35.18571,-16.97915z" data-paper-data="{&quot;index&quot;:null}" fill="#bebebe" stroke="none" stroke-width="0" stroke-linecap="butt"/><path d="M357.71089,339.39305l-35.62431,-16.80917l39.63065,-16.91998l35.6243,16.80917z" fill="none" stroke="#a7a7a7" stroke-width="0.5" stroke-linecap="round"/><path d="M322.39534,322.47816l74.58323,-0.06871" fill="none" stroke="#a7a7a7" stroke-width="0.5" stroke-linecap="round"/></g></g></g><g><g><g><path d="M203.5418,373.4782l38.66338,-16.87687l34.87886,16.87687z" fill="#a7a7a7" stroke="none" stroke-width="0" stroke-linecap="butt"/><path d="M276.87945,373.4782l-38.35653,16.97915l-35.18571,-16.97915z" data-paper-data="{&quot;index&quot;:null}" fill="#bebebe" stroke="none" stroke-width="0" stroke-linecap="butt"/><path d="M238.31642,390.37137l-35.62431,-16.80917l39.63063,-16.91998l35.6243,16.80916z" fill="none" stroke="#a7a7a7" stroke-width="0.5" stroke-linecap="round"/><path d="M277.58407,373.38777l-74.58323,0.06871" fill="none" stroke="#a7a7a7" stroke-width="0.5" stroke-linecap="round"/></g><g><path d="M243.46165,356.45521l38.66338,-16.87687l34.87886,16.87687z" fill="#a7a7a7" stroke="none" stroke-width="0" stroke-linecap="butt"/><path d="M316.7993,356.45521l-38.35653,16.97915l-35.18571,-16.97915z" data-paper-data="{&quot;index&quot;:null}" fill="#bebebe" stroke="none" stroke-width="0" stroke-linecap="butt"/><path d="M278.23627,373.34841l-35.62431,-16.80917l39.63065,-16.91998l35.6243,16.80917z" fill="none" stroke="#a7a7a7" stroke-width="0.5" stroke-linecap="round"/><path d="M242.92071,356.43351l74.58323,-0.06871" fill="none" stroke="#a7a7a7" stroke-width="0.5" stroke-linecap="round"/></g></g><g><g><path d="M124.35924,407.27165l38.66338,-16.87687l34.87886,16.87687z" fill="#a7a7a7" stroke="none" stroke-width="0" stroke-linecap="butt"/><path d="M197.69691,407.27165l-38.35651,16.97915l-35.18571,-16.97915z" data-paper-data="{&quot;index&quot;:null}" fill="#bebebe" stroke="none" stroke-width="0" stroke-linecap="butt"/><path d="M159.13386,424.16482l-35.6243,-16.80917l39.63063,-16.91998l35.6243,16.80916z" fill="none" stroke="#a7a7a7" stroke-width="0.5" stroke-linecap="round"/><path d="M123.81831,407.24994l74.58323,-0.06871" fill="none" stroke="#a7a7a7" stroke-width="0.5" stroke-linecap="round"/></g><g><path d="M164.27909,390.24868l38.66338,-16.87687l34.87886,16.87687z" fill="#a7a7a7" stroke="none" stroke-width="0" stroke-linecap="butt"/><path d="M237.61676,390.24868l-38.35653,16.97915l-35.18571,-16.97915z" data-paper-data="{&quot;index&quot;:null}" fill="#bebebe" stroke="none" stroke-width="0" stroke-linecap="butt"/><path d="M199.05371,407.14186l-35.6243,-16.80917l39.63063,-16.91998l35.6243,16.80916z" fill="none" stroke="#a7a7a7" stroke-width="0.5" stroke-linecap="round"/><path d="M238.3214,390.15825l-74.58323,0.06871" fill="none" stroke="#a7a7a7" stroke-width="0.5" stroke-linecap="round"/></g></g></g></g><g><g><g><g><path d="M44.91924,441.13794l38.66338,-16.87687l34.87886,16.87687z" fill="#a7a7a7" stroke="none" stroke-width="0" stroke-linecap="butt"/><path d="M118.25691,441.13794l-38.35651,16.97915l-35.18571,-16.97915z" data-paper-data="{&quot;index&quot;:null}" fill="#bebebe" stroke="none" stroke-width="0" stroke-linecap="butt"/><path d="M79.69386,458.0311l-35.6243,-16.80917l39.63065,-16.91998l35.6243,16.80916z" fill="none" stroke="#a7a7a7" stroke-width="0.5" stroke-linecap="round"/><path d="M44.37832,441.11623l74.58323,-0.06871" fill="none" stroke="#a7a7a7" stroke-width="0.5" stroke-linecap="round"/></g><g><path d="M84.83909,424.11497l38.66338,-16.87687l34.87886,16.87687z" fill="#a7a7a7" stroke="none" stroke-width="0" stroke-linecap="butt"/><path d="M158.17676,424.11497l-38.35651,16.97915l-35.18571,-16.97915z" data-paper-data="{&quot;index&quot;:null}" fill="#bebebe" stroke="none" stroke-width="0" stroke-linecap="butt"/><path d="M119.6137,441.00814l-35.6243,-16.80917l39.63063,-16.91998l35.6243,16.80917z" fill="none" stroke="#a7a7a7" stroke-width="0.5" stroke-linecap="round"/><path d="M158.8814,424.02454l-74.58323,0.06871" fill="none" stroke="#a7a7a7" stroke-width="0.5" stroke-linecap="round"/></g></g><g><g><path d="M-34.2633,474.9314l38.66338,-16.87687l34.87886,16.87687z" fill="#a7a7a7" stroke="none" stroke-width="0" stroke-linecap="butt"/><path d="M39.07435,474.9314l-38.35651,16.97915l-35.18571,-16.97915z" data-paper-data="{&quot;index&quot;:null}" fill="#bebebe" stroke="none" stroke-width="0" stroke-linecap="butt"/><path d="M0.51132,491.82456l-35.6243,-16.80917l39.63063,-16.91998l35.6243,16.80916z" fill="none" stroke="#a7a7a7" stroke-width="0.5" stroke-linecap="round"/><path d="M-34.80424,474.90967l74.58323,-0.06871" fill="none" stroke="#a7a7a7" stroke-width="0.5" stroke-linecap="round"/></g><g><path d="M5.65655,457.90842l38.66338,-16.87687l34.87886,16.87687z" fill="#a7a7a7" stroke="none" stroke-width="0" stroke-linecap="butt"/><path d="M78.9942,457.90842l-38.35651,16.97915l-35.18571,-16.97915z" data-paper-data="{&quot;index&quot;:null}" fill="#bebebe" stroke="none" stroke-width="0" stroke-linecap="butt"/><path d="M40.43117,474.80161l-35.6243,-16.80917l39.63065,-16.91998l35.6243,16.80916z" fill="none" stroke="#a7a7a7" stroke-width="0.5" stroke-linecap="round"/><path d="M5.1156,457.8867l74.58323,-0.06871" fill="none" stroke="#a7a7a7" stroke-width="0.5" stroke-linecap="round"/></g></g></g><g><g><g><path d="M-113.73795,508.88674l38.66338,-16.87687l34.87886,16.87687z" fill="#a7a7a7" stroke="none" stroke-width="0" stroke-linecap="butt"/><path d="M-40.40027,508.88674l-38.35651,16.97915l-35.18571,-16.97915z" data-paper-data="{&quot;index&quot;:null}" fill="#bebebe" stroke="none" stroke-width="0" stroke-linecap="butt"/><path d="M-78.96331,525.77993l-35.6243,-16.80917l39.63063,-16.91998l35.6243,16.80916z" fill="none" stroke="#a7a7a7" stroke-width="0.5" stroke-linecap="round"/><path d="M-114.27886,508.86501l74.58323,-0.06871" fill="none" stroke="#a7a7a7" stroke-width="0.5" stroke-linecap="round"/></g><g><path d="M-73.81809,491.86379l38.66336,-16.87687l34.87886,16.87687z" fill="#a7a7a7" stroke="none" stroke-width="0" stroke-linecap="butt"/><path d="M-0.48041,491.86379l-38.35651,16.97915l-35.18571,-16.97915z" data-paper-data="{&quot;index&quot;:null}" fill="#bebebe" stroke="none" stroke-width="0" stroke-linecap="butt"/><path d="M-39.04346,508.75695l-35.6243,-16.80917l39.63063,-16.91998l35.6243,16.80916z" fill="none" stroke="#a7a7a7" stroke-width="0.5" stroke-linecap="round"/><path d="M0.22421,491.77334l-74.58323,0.06871" fill="none" stroke="#a7a7a7" stroke-width="0.5" stroke-linecap="round"/></g></g><g><g><path d="M-192.92048,542.68019l38.66338,-16.87687l34.87886,16.87687z" fill="#a7a7a7" stroke="none" stroke-width="0" stroke-linecap="butt"/><path d="M-119.58283,542.68019l-38.35651,16.97915l-35.18571,-16.97915z" data-paper-data="{&quot;index&quot;:null}" fill="#bebebe" stroke="none" stroke-width="0" stroke-linecap="butt"/><path d="M-158.14586,559.57338l-35.62431,-16.80917l39.63063,-16.91998l35.6243,16.80916z" fill="none" stroke="#a7a7a7" stroke-width="0.5" stroke-linecap="round"/><path d="M-193.46143,542.65848l74.58323,-0.06871" fill="none" stroke="#a7a7a7" stroke-width="0.5" stroke-linecap="round"/></g><g><path d="M-153.00063,525.65724l38.66338,-16.87687l34.87886,16.87687z" fill="#a7a7a7" stroke="none" stroke-width="0" stroke-linecap="butt"/><path d="M-79.66297,525.65724l-38.35651,16.97915l-35.18571,-16.97915z" data-paper-data="{&quot;index&quot;:null}" fill="#bebebe" stroke="none" stroke-width="0" stroke-linecap="butt"/><path d="M-118.226,542.55039l-35.62431,-16.80917l39.63063,-16.91998l35.6243,16.80916z" fill="none" stroke="#a7a7a7" stroke-width="0.5" stroke-linecap="round"/><path d="M-153.54158,525.63552l74.58323,-0.06871" fill="none" stroke="#a7a7a7" stroke-width="0.5" stroke-linecap="round"/></g></g></g></g></g><g><g><g><g><g><path d="M397.81998,322.52499l38.66336,-16.87687l34.87886,16.87687z" fill="#a7a7a7" stroke="none" stroke-width="0" stroke-linecap="butt"/><path d="M471.15765,322.52499l-38.35651,16.97915l-35.18571,-16.97915z" data-paper-data="{&quot;index&quot;:null}" fill="#bebebe" stroke="none" stroke-width="0" stroke-linecap="butt"/><path d="M432.5946,339.41818l-35.62431,-16.80917l39.63065,-16.91998l35.6243,16.80916z" fill="none" stroke="#a7a7a7" stroke-width="0.5" stroke-linecap="round"/><path d="M471.86228,322.43456l-74.58323,0.06871" fill="none" stroke="#a7a7a7" stroke-width="0.5" stroke-linecap="round"/></g><g><path d="M437.73983,305.50203l38.66336,-16.87687l34.87886,16.87687z" fill="#a7a7a7" stroke="none" stroke-width="0" stroke-linecap="butt"/><path d="M511.0775,305.50203l-38.35651,16.97915l-35.18571,-16.97915z" data-paper-data="{&quot;index&quot;:null}" fill="#bebebe" stroke="none" stroke-width="0" stroke-linecap="butt"/><path d="M472.51445,322.3952l-35.6243,-16.80917l39.63065,-16.91998l35.6243,16.80917z" fill="none" stroke="#a7a7a7" stroke-width="0.5" stroke-linecap="round"/><path d="M437.19891,305.48032l74.58323,-0.06871" fill="none" stroke="#a7a7a7" stroke-width="0.5" stroke-linecap="round"/></g></g><g><g><path d="M318.63743,356.31844l38.66338,-16.87687l34.87886,16.87687z" fill="#a7a7a7" stroke="none" stroke-width="0" stroke-linecap="butt"/><path d="M391.97509,356.31844l-38.35653,16.97915l-35.18571,-16.97915z" data-paper-data="{&quot;index&quot;:null}" fill="#bebebe" stroke="none" stroke-width="0" stroke-linecap="butt"/><path d="M353.41206,373.21163l-35.62431,-16.80917l39.63065,-16.91998l35.6243,16.80917z" fill="none" stroke="#a7a7a7" stroke-width="0.5" stroke-linecap="round"/><path d="M392.67972,356.22801l-74.58323,0.06871" fill="none" stroke="#a7a7a7" stroke-width="0.5" stroke-linecap="round"/></g><g><path d="M358.55728,339.29547l38.66338,-16.87687l34.87886,16.87687z" fill="#a7a7a7" stroke="none" stroke-width="0" stroke-linecap="butt"/><path d="M431.89493,339.29547l-38.35653,16.97915l-35.18571,-16.97915z" data-paper-data="{&quot;index&quot;:null}" fill="#bebebe" stroke="none" stroke-width="0" stroke-linecap="butt"/><path d="M393.33191,356.18864l-35.62431,-16.80917l39.63065,-16.91998l35.6243,16.80916z" fill="none" stroke="#a7a7a7" stroke-width="0.5" stroke-linecap="round"/><path d="M432.59958,339.20506l-74.58323,0.06871" fill="none" stroke="#a7a7a7" stroke-width="0.5" stroke-linecap="round"/></g></g></g><g><g><g><path d="M239.1628,390.27379l38.66338,-16.87687l34.87886,16.87687z" fill="#a7a7a7" stroke="none" stroke-width="0" stroke-linecap="butt"/><path d="M312.50047,390.27379l-38.35653,16.97915l-35.18571,-16.97915z" data-paper-data="{&quot;index&quot;:null}" fill="#bebebe" stroke="none" stroke-width="0" stroke-linecap="butt"/><path d="M273.93741,407.16698l-35.62431,-16.80917l39.63065,-16.91998l35.6243,16.80916z" fill="none" stroke="#a7a7a7" stroke-width="0.5" stroke-linecap="round"/><path d="M313.20511,390.18338l-74.58323,0.06871" fill="none" stroke="#a7a7a7" stroke-width="0.5" stroke-linecap="round"/></g><g><path d="M279.08265,373.25083l38.66338,-16.87687l34.87886,16.87687z" fill="#a7a7a7" stroke="none" stroke-width="0" stroke-linecap="butt"/><path d="M352.42032,373.25083l-38.35653,16.97915l-35.18571,-16.97915z" data-paper-data="{&quot;index&quot;:null}" fill="#bebebe" stroke="none" stroke-width="0" stroke-linecap="butt"/><path d="M313.85728,390.14402l-35.62431,-16.80917l39.63065,-16.91998l35.6243,16.80917z" fill="none" stroke="#a7a7a7" stroke-width="0.5" stroke-linecap="round"/><path d="M353.12496,373.16041l-74.58323,0.06871" fill="none" stroke="#a7a7a7" stroke-width="0.5" stroke-linecap="round"/></g></g><g><g><path d="M159.98026,424.06726l38.66338,-16.87687l34.87886,16.87687z" fill="#a7a7a7" stroke="none" stroke-width="0" stroke-linecap="butt"/><path d="M233.31791,424.06726l-38.35653,16.97915l-35.18571,-16.97915z" data-paper-data="{&quot;index&quot;:null}" fill="#bebebe" stroke="none" stroke-width="0" stroke-linecap="butt"/><path d="M194.75488,440.96043l-35.62431,-16.80917l39.63063,-16.91998l35.6243,16.80916z" fill="none" stroke="#a7a7a7" stroke-width="0.5" stroke-linecap="round"/><path d="M159.43932,424.04554l74.58323,-0.06871" fill="none" stroke="#a7a7a7" stroke-width="0.5" stroke-linecap="round"/></g><g><path d="M199.90011,407.04428l38.66338,-16.87687l34.87886,16.87687z" fill="#a7a7a7" stroke="none" stroke-width="0" stroke-linecap="butt"/><path d="M273.23776,407.04428l-38.35653,16.97915l-35.18571,-16.97915z" data-paper-data="{&quot;index&quot;:null}" fill="#bebebe" stroke="none" stroke-width="0" stroke-linecap="butt"/><path d="M234.67473,423.93747l-35.62431,-16.80917l39.63063,-16.91998l35.6243,16.80916z" fill="none" stroke="#a7a7a7" stroke-width="0.5" stroke-linecap="round"/><path d="M199.35917,407.02257l74.58323,-0.06871" fill="none" stroke="#a7a7a7" stroke-width="0.5" stroke-linecap="round"/></g></g></g></g><g><g><g><g><path d="M80.54026,457.93355l38.66338,-16.87687l34.87886,16.87687z" fill="#a7a7a7" stroke="none" stroke-width="0" stroke-linecap="butt"/><path d="M153.87791,457.93355l-38.35651,16.97915l-35.18571,-16.97915z" data-paper-data="{&quot;index&quot;:null}" fill="#bebebe" stroke="none" stroke-width="0" stroke-linecap="butt"/><path d="M115.31488,474.82672l-35.6243,-16.80917l39.63063,-16.91998l35.6243,16.80916z" fill="none" stroke="#a7a7a7" stroke-width="0.5" stroke-linecap="round"/><path d="M79.99932,457.91183l74.58323,-0.06871" fill="none" stroke="#a7a7a7" stroke-width="0.5" stroke-linecap="round"/></g><g><path d="M120.46011,440.91058l38.66338,-16.87687l34.87886,16.87687z" fill="#a7a7a7" stroke="none" stroke-width="0" stroke-linecap="butt"/><path d="M193.79777,440.91058l-38.35651,16.97915l-35.18571,-16.97915z" data-paper-data="{&quot;index&quot;:null}" fill="#bebebe" stroke="none" stroke-width="0" stroke-linecap="butt"/><path d="M155.23474,457.80376l-35.6243,-16.80917l39.63063,-16.91998l35.6243,16.80916z" fill="none" stroke="#a7a7a7" stroke-width="0.5" stroke-linecap="round"/><path d="M194.5024,440.82015l-74.58323,0.06871" fill="none" stroke="#a7a7a7" stroke-width="0.5" stroke-linecap="round"/></g></g><g><g><path d="M1.3577,491.72697l38.66338,-16.87687l34.87886,16.87687z" fill="#a7a7a7" stroke="none" stroke-width="0" stroke-linecap="butt"/><path d="M74.69536,491.72697l-38.35651,16.97915l-35.18571,-16.97915z" data-paper-data="{&quot;index&quot;:null}" fill="#bebebe" stroke="none" stroke-width="0" stroke-linecap="butt"/><path d="M36.13232,508.62017l-35.6243,-16.80917l39.63065,-16.91998l35.6243,16.80916z" fill="none" stroke="#a7a7a7" stroke-width="0.5" stroke-linecap="round"/><path d="M0.81678,491.70525l74.58323,-0.06871" fill="none" stroke="#a7a7a7" stroke-width="0.5" stroke-linecap="round"/></g><g><path d="M41.27755,474.70401l38.66338,-16.87687l34.87886,16.87687z" fill="#a7a7a7" stroke="none" stroke-width="0" stroke-linecap="butt"/><path d="M114.61522,474.70401l-38.35651,16.97915l-35.18571,-16.97915z" data-paper-data="{&quot;index&quot;:null}" fill="#bebebe" stroke="none" stroke-width="0" stroke-linecap="butt"/><path d="M76.05218,491.59721l-35.62431,-16.80917l39.63065,-16.91998l35.6243,16.80916z" fill="none" stroke="#a7a7a7" stroke-width="0.5" stroke-linecap="round"/><path d="M115.31986,474.6136l-74.58323,0.06871" fill="none" stroke="#a7a7a7" stroke-width="0.5" stroke-linecap="round"/></g></g></g><g><g><g><path d="M-78.11692,525.68235l38.66338,-16.87687l34.87886,16.87687z" fill="#a7a7a7" stroke="none" stroke-width="0" stroke-linecap="butt"/><path d="M-4.77928,525.68235l-38.35651,16.97915l-35.18571,-16.97915z" data-paper-data="{&quot;index&quot;:null}" fill="#bebebe" stroke="none" stroke-width="0" stroke-linecap="butt"/><path d="M-43.34229,542.5755l-35.6243,-16.80917l39.63063,-16.91998l35.6243,16.80916z" fill="none" stroke="#a7a7a7" stroke-width="0.5" stroke-linecap="round"/><path d="M-4.07463,525.59192l-74.58323,0.06871" fill="none" stroke="#a7a7a7" stroke-width="0.5" stroke-linecap="round"/></g><g><path d="M-38.19707,508.65939l38.66338,-16.87687l34.87886,16.87687z" fill="#a7a7a7" stroke="none" stroke-width="0" stroke-linecap="butt"/><path d="M35.14059,508.65939l-38.35651,16.97915l-35.18571,-16.97915z" data-paper-data="{&quot;index&quot;:null}" fill="#bebebe" stroke="none" stroke-width="0" stroke-linecap="butt"/><path d="M-3.42246,525.55254l-35.6243,-16.80917l39.63063,-16.91998l35.6243,16.80916z" fill="none" stroke="#a7a7a7" stroke-width="0.5" stroke-linecap="round"/><path d="M35.84522,508.56897l-74.58323,0.06871" fill="none" stroke="#a7a7a7" stroke-width="0.5" stroke-linecap="round"/></g></g><g><g><path d="M-157.29948,559.4758l38.66338,-16.87687l34.87886,16.87687z" fill="#a7a7a7" stroke="none" stroke-width="0" stroke-linecap="butt"/><path d="M-83.96181,559.4758l-38.35651,16.97915l-35.18571,-16.97915z" data-paper-data="{&quot;index&quot;:null}" fill="#bebebe" stroke="none" stroke-width="0" stroke-linecap="butt"/><path d="M-122.52485,576.36899l-35.62431,-16.80917l39.63065,-16.91998l35.6243,16.80917z" fill="none" stroke="#a7a7a7" stroke-width="0.5" stroke-linecap="round"/><path d="M-83.25717,559.38537l-74.58323,0.06871" fill="none" stroke="#a7a7a7" stroke-width="0.5" stroke-linecap="round"/></g><g><path d="M-117.37963,542.45284l38.66338,-16.87687l34.87886,16.87687z" fill="#a7a7a7" stroke="none" stroke-width="0" stroke-linecap="butt"/><path d="M-44.04195,542.45284l-38.35651,16.97915l-35.18571,-16.97915z" data-paper-data="{&quot;index&quot;:null}" fill="#bebebe" stroke="none" stroke-width="0" stroke-linecap="butt"/><path d="M-82.605,559.34601l-35.6243,-16.80917l39.63063,-16.91998l35.6243,16.80917z" fill="none" stroke="#a7a7a7" stroke-width="0.5" stroke-linecap="round"/><path d="M-43.33734,542.36242l-74.58323,0.06871" fill="none" stroke="#a7a7a7" stroke-width="0.5" stroke-linecap="round"/></g></g></g></g></g></g></g></g></svg>