<svg version="1.1" xmlns="http://www.w3.org/2000/svg" xmlns:xlink="http://www.w3.org/1999/xlink" width="205.07848" height="177.0153" viewBox="0,0,205.07848,177.0153"><defs><linearGradient x1="435.97497" y1="221.09295" x2="435.97497" y2="252.64603" gradientUnits="userSpaceOnUse" id="color-1"><stop offset="0" stop-color="#808080"/><stop offset="1" stop-color="#b3b3b3"/></linearGradient><linearGradient x1="301.40531" y1="157.25233" x2="301.40531" y2="188.80543" gradientUnits="userSpaceOnUse" id="color-2"><stop offset="0" stop-color="#808080"/><stop offset="1" stop-color="#b3b3b3"/></linearGradient></defs><g transform="translate(-266.11368,-91.55596)"><g data-paper-data="{&quot;isPaintingLayer&quot;:true}" fill-rule="nonzero" stroke="none" stroke-linecap="butt" stroke-linejoin="miter" stroke-miterlimit="10" stroke-dasharray="" stroke-dashoffset="0" style="mix-blend-mode: normal"><path d="M401.24603,228.56291l7.96055,-7.46997l58.50045,25.52105l0.44115,14.02322c0,0 -26.82194,-10.62228 -36.11611,-14.75848c-10.85221,-4.82958 -30.78604,-17.31582 -30.78604,-17.31582z" fill="url(#color-1)" stroke-width="0"/><path d="M267.00727,162.29566l7.62964,-5.04332l51.66171,19.78534l1.87508,12.47899c0,0 -21.30683,-6.5411 -30.60099,-10.6773c-10.85221,-4.82958 -30.56543,-16.5437 -30.56543,-16.5437z" fill="url(#color-2)" stroke-width="0"/><path d="M398.96101,234.19695l0.24912,-6.36597c0,0 21.8519,12.52983 34.20098,18.46783c9.5455,4.5899 36.00387,13.86478 36.00387,13.86478l-0.30597,8.40766z" fill-opacity="0.25098" fill="#000000" stroke-width="0"/><path d="M266.12029,168.20727l0.24911,-6.36597c0,0 21.8519,12.52983 34.20098,18.46783c9.5455,4.5899 29.08026,8.44128 29.08026,8.44128l-0.19057,7.13833c0,0 -41.03406,-16.7511 -52.79809,-22.51577c-4.94727,-2.42428 -10.5417,-5.16569 -10.5417,-5.16569z" fill-opacity="0.25098" fill="#000000" stroke-width="0"/><g fill="#595959" stroke-width="0.5"><path d="M329.90331,188.23506c-0.09368,0.76289 0.13957,1.776 -0.45752,2.26c-0.9873,0.80033 -4.29973,-0.47408 -5.32641,-0.81548c-4.67721,-1.55533 -9.47559,-3.13373 -14.03688,-4.9399c-10.10268,-4.04107 -20.10237,-8.37239 -29.84128,-13.23449c-3.92849,-1.9674 -7.87632,-3.82493 -11.51974,-6.28869c-1.24475,-0.84172 -2.73958,-1.25449 -2.59852,-3.34692c0.04435,-0.65786 0.9426,-0.92398 1.37746,-1.41959c1.83682,-2.09339 3.84541,-3.39332 6.35912,-4.45719c-0.00801,-10.11147 -0.73188,-20.93616 0.51981,-30.94974c-0.01254,-10.33721 0.77358,-20.60721 0.77358,-30.96216c0.17304,-0.76913 -0.16028,-1.90748 0.51911,-2.30738c1.86096,-1.09538 6.45008,2.26656 8.17909,2.95744c8.68577,3.4707 16.85496,8.10058 24.95745,12.7331c6.20081,3.10067 12.33182,6.14997 18.18518,9.87511c1.58754,1.01032 4.20614,1.90614 4.91472,3.76496c0.93475,2.45212 0.11723,7.01296 -0.19693,9.52624c0.01324,10.9129 -1.51611,21.74705 -1.55566,32.63733c-0.77001,3.85004 -0.63422,7.99308 -1.03466,11.89861c-0.09432,0.91995 0.2844,3.0395 -0.36004,3.60603c-0.21138,0.18583 -0.42499,0.32321 -0.63934,0.42002c0.60466,2.77659 2.11795,6.30229 1.78146,9.04271zM268.57633,162.35005c-0.37582,0.43813 1.05716,0.47558 1.54012,0.79172c0.7149,0.46796 1.49667,0.82477 2.24291,1.24093c3.02382,1.68633 5.8945,3.33596 8.99989,4.88632c9.67003,4.84277 19.61451,9.13447 29.65173,13.14936c3.51162,1.42136 7.24533,2.56284 10.82965,3.86685c1.48037,0.53857 3.02735,1.10258 4.54686,1.5176c0.27943,0.07632 0.7812,0.17681 1.13748,0.30989c-0.18653,-0.71854 -0.29336,-1.99494 -0.32851,-2.10823c-0.67392,-2.17206 -1.13112,-4.33554 -1.57954,-6.57767l-0.11433,-0.57167c-0.40913,-0.22009 -0.79351,-0.47359 -1.13903,-0.68653c-4.2054,-2.59176 -8.34786,-4.17939 -12.71798,-6.35793c-9.99319,-2.82469 -19.1513,-8.00682 -29.39087,-10.05473c-2.59197,-1.02636 -5.04145,-2.39646 -7.58479,-3.39065c-2.17435,0.93779 -4.71035,2.37216 -6.09359,3.98475zM276.33994,156.35622c2.21242,0.95523 4.35424,2.08308 6.62713,3.00305c10.29399,2.0588 19.5495,7.226 29.58482,10.12116c3.31671,1.66343 6.99266,2.37624 10.0981,4.54185c1.00237,0.69902 2.03158,1.35874 3.05045,2.03348c0.17559,0.11629 0.42109,0.37081 0.65118,0.60403c0.24041,-0.04634 0.44279,-0.03582 0.61275,0.01086c-0.35241,-4.23368 -0.15106,-9.37591 0.70371,-13.64972c-0.0462,-10.85262 1.53608,-21.66869 1.54832,-32.54632c0.31633,-2.53063 0.8591,-6.0673 0.3204,-8.58033c-0.12983,-0.60566 -1.20774,-0.6988 -1.49588,-0.85757c-1.33767,-0.7371 -2.68796,-1.78764 -3.96095,-2.6363c-5.1442,-3.42946 -10.93163,-5.97312 -16.45102,-8.73259c-6.5894,-3.76339 -13.19606,-7.43313 -20.09814,-10.56707c-2.68455,-1.21894 -5.42887,-2.32375 -8.06557,-3.64358c-0.46119,-0.23085 -1.44166,-0.95019 -1.81232,-1.27423c-0.005,10.373 -0.76674,20.65887 -0.77839,31.01504c-1.25248,10.0199 -0.51491,20.85233 -0.51491,30.96216c0,0 0,0.07846 -0.01966,0.19608z"/><path d="M469.72093,255.64149c0,2.117 0.74964,5.11685 -1.89481,6.09701c-1.54145,0.57133 -4.37476,-1.2526 -5.85537,-1.62275c-2.87142,-0.71785 -5.42452,-2.35378 -8.23537,-3.28489c-3.48746,-1.15525 -7.05433,-2.35344 -10.20466,-4.27457c-3.24629,-0.79524 -6.12198,-2.90184 -9.16613,-4.2546c-4.56234,-2.02741 -8.94894,-4.31222 -13.41942,-6.54542c-2.35724,-1.17755 -4.61646,-2.92146 -7.15367,-3.5771c-3.25362,-2.37616 -6.82725,-4.46126 -10.23084,-6.58852c-0.88097,-0.55061 -4.33108,-2.11391 -4.49059,-3.1462c-0.11673,-0.75543 1.70618,-2.44031 2.30693,-3.04105c1.75007,-1.75008 3.96508,-3.27104 5.62368,-5.1085c-0.1739,-0.33868 -0.29084,-0.87667 0.24716,-1.41466c0.09927,-0.09927 0.19853,-0.17624 0.29654,-0.23467c0.12295,-8.73573 1.30037,-17.36164 1.30037,-26.07573c0.89536,-4.47681 0.48693,-9.17348 0.97848,-13.69863c0.61321,-5.64515 0.97239,-11.47584 0.97239,-17.1632c0,-1.68868 -0.21407,-3.54535 0,-5.21852c0.09801,-0.76606 -0.19443,-1.85727 0.45752,-2.27131c2.45547,-1.55942 5.39127,2.03629 6.98872,3.15427c1.98842,1.39159 4.10019,2.33487 6.20261,3.59841c4.06054,2.44037 7.49688,6.03834 11.71193,8.13612c10.49138,6.98237 21.3255,12.94316 32.54739,18.5541c3.41512,1.96133 2.32177,6.07174 2.32177,9.59813c0,8.24862 -0.32615,16.50438 -0.32615,24.788c0,6.08569 -0.31466,12.35891 -0.98456,18.38801c-0.12471,1.12237 -0.00543,4.31229 -0.63635,5.75571c0.08474,3.13966 0.64243,6.26453 0.64243,9.45054zM404.12324,226.19271c-0.04635,0.04635 -1.32275,1.15879 -2.06736,1.67677c0.87791,0.18794 2.54803,1.42513 2.81912,1.59455c3.30661,2.06663 6.90125,4.06266 9.99094,6.4578c2.5405,0.61175 4.84461,2.42093 7.19728,3.59837c4.44198,2.22308 8.79145,4.48546 13.32552,6.50089c3.03085,1.34724 5.87528,3.40451 9.0987,4.22551c4.42036,2.61491 9.49836,4.03749 14.30628,5.85333c2.57619,0.97297 5.61756,2.95621 8.36507,3.2293c0.14483,0.01439 0.06214,-3.42237 0.06214,-3.68773c0,-2.78393 -0.39217,-5.49949 -0.56864,-8.236c-2.20377,-0.08346 -4.69011,-2.1056 -6.28451,-3.06224c-3.09804,-1.56895 -6.64292,-2.72953 -9.91505,-3.82731c-2.93195,-0.98365 -5.75155,-2.7657 -8.73741,-3.56631c-4.1728,-1.11888 -8.68446,-2.38117 -12.56925,-4.30352c-4.25126,-1.70595 -8.54653,-3.68034 -12.28666,-6.32325c-2.30523,-1.62895 -5.06097,-3.7106 -7.85982,-4.55241c-1.48365,1.6034 -3.31043,2.85632 -4.87635,4.42225zM466.3066,244.62123c0,0 -0.34795,-1.04384 0.5884,-1.49928c0.00703,-1.41465 0.16129,-2.87353 0.33529,-4.26726c0.68724,-5.5048 0.96911,-11.23902 0.96911,-16.80748c0,-8.28322 0.32615,-16.54014 0.32615,-24.788c0,-1.83366 1.04674,-6.65463 -0.9398,-7.36207c-11.26251,-5.63126 -22.1639,-11.60124 -32.68418,-18.62789c-2.41947,-1.21508 -4.33162,-3.10207 -6.56944,-4.59443c-3.34789,-2.23264 -6.94225,-4.25024 -10.17174,-6.56466c-0.45,-0.3225 -3.83058,-2.34278 -4.96524,-3.40011c0.06434,0.37953 0.10046,0.83113 0.10046,1.08406c0,1.30463 0,2.60926 0,3.91389c0,5.76343 -0.33383,11.6921 -0.98456,17.40954c-0.51472,4.52243 -0.08273,9.21994 -0.97847,13.69863c0,8.90981 -1.24197,17.73051 -1.29668,26.6699c2.94718,0.99689 5.86408,3.05768 8.28528,4.80866c3.56246,2.57631 7.76729,4.44253 11.84902,6.07075c3.75908,1.90142 8.17331,3.05644 12.21875,4.17659c3.03688,0.84089 5.88842,2.62053 8.87511,3.60916c3.41859,1.13159 7.05888,2.39268 10.30674,4.00048c1.16812,0.70087 2.40382,1.28311 3.58774,1.95695c0.40958,0.23311 0.92121,0.80992 1.34285,0.94613z"/></g></g></g></svg>