<svg version="1.1" xmlns="http://www.w3.org/2000/svg" xmlns:xlink="http://www.w3.org/1999/xlink" width="72.46916" height="82.4874" viewBox="0,0,72.46916,82.4874"><g transform="translate(-37.39052,-259.13613)"><g data-paper-data="{&quot;isPaintingLayer&quot;:true}" fill-rule="nonzero" stroke="none" stroke-width="0.5" stroke-linecap="butt" stroke-linejoin="miter" stroke-miterlimit="10" stroke-dasharray="" stroke-dashoffset="0" style="mix-blend-mode: normal"><path d="M67.43688,287.4773l0.28309,0.21248c3.99738,2.66492 7.44456,5.40948 10.61165,9.03459c3.92063,5.60297 9.19972,9.64616 13.81839,14.57017c3.23991,3.45411 6.38491,7.75548 9.03883,11.68412c2.13747,3.16414 4.61071,9.15791 2.44328,12.98776c-0.95786,1.69254 -3.95004,3.04753 -5.70631,3.70287c-2.693,1.00489 -5.57603,1.4053 -8.38222,1.95424c-4.9578,0 -9.9609,-1.1579 -14.10051,-4.06428c-1.78729,-1.25483 -3.70571,-4.3191 -5.58164,-5.21766c-2.70749,-1.29688 -7.05548,0.45525 -9.90314,-0.35643c-3.35514,-0.95633 -5.11742,-3.75904 -7.06353,-6.35204c-3.22523,-4.29729 -6.6553,-8.48993 -9.42448,-13.09639c-2.74417,-4.11711 -6.01714,-8.02507 -6.07811,-13.23548c-0.04507,-3.85103 0.82434,-8.47912 3.46119,-11.47247c6.01463,-6.82778 18.2679,-5.72068 25.34345,-1.83553c0,0 0.93094,0.51719 1.24006,1.48405z" fill-opacity="0.50196" fill="#000000"/><path d="M103.82392,314.9039c0.09857,-0.09857 0.19714,-0.08722 0.26506,-0.05788c0.28228,-0.42917 0.51672,-0.82675 0.67877,-1.15085c1.43712,-2.65535 1.13101,-4.61542 1.10579,-7.60586c0,-2.09361 0.12005,-5.75403 -1.51941,-7.29384c-0.91083,-2.62329 -3.29851,-4.47914 -4.51888,-6.91987c-1.78173,-1.78173 -2.87972,-4.29038 -4.78574,-6.1964c-2.25614,-2.25614 -5.14099,-3.45571 -7.69309,-5.1724c-0.79662,-0.2883 -1.37786,-0.93185 -2.07748,-1.37501c0.00792,0.05124 0.01076,0.09933 0.0077,0.14362c-0.06083,0.88166 -3.29574,2.08542 -4.10083,2.48797c-2.00244,0.97216 -4.22312,1.82851 -6.227,2.83046c-1.97218,0.98146 -4.29572,0.95253 -6.227,1.98132c-1.19474,0.59737 -3.39741,2.4919 -4.68317,2.81449c-0.00596,0.02344 -0.01564,0.05046 -0.03133,0.07645c0.04223,0.0559 0.07066,0.13999 0.01452,0.25228c-0.1118,0.22361 -0.33541,0.1118 -0.33541,0.1118c-0.62752,-0.31376 -1.39085,-0.81131 -2.12055,-1.3984c-0.72083,1.6628 -0.95252,3.55987 -1.77002,5.19487c0,2.80929 0.14076,4.82118 0.82195,7.56391c1.05397,2.36127 1.64411,4.79217 2.83793,7.12674c1.14749,2.30422 2.85967,5.20132 4.65015,7.04274c1.17165,2.29989 3.51333,4.47103 5.32054,6.31092c2.08212,1.11232 3.88837,3.00667 6.13826,4.20518c2.29115,-0.04174 4.45321,-0.13661 6.53669,-1.13218c2.37589,0 5.58727,-1.62981 7.88704,-2.39354c2.30974,-1.15487 4.60917,-1.82799 6.45954,-3.65143c1.00736,-0.46084 2.38307,-2.04843 3.35823,-3.45001c-0.03208,-0.03722 -0.14621,-0.19115 0.00771,-0.34508zM108.42316,319.14942c1.6293,3.01045 1.19872,4.71235 1.19872,7.87645c-1.43979,3.00635 -2.56008,3.26356 -5.54212,4.28389c-2.09671,0.68351 -6.6649,0.56378 -8.75199,-0.13192c-1.91508,-0.01499 -5.12319,-0.46463 -6.86485,-1.29687c-1.97711,-0.98855 -3.74908,-2.11967 -5.68778,-3.41214c0,0 -0.12661,-0.08441 -0.11642,-0.2203c-1.06281,0.11938 -2.14766,0.12866 -3.19889,0.11407c-2.33599,-1.11623 -4.17469,-3.3067 -6.31574,-4.28619c-1.82802,-1.80141 -4.30699,-4.11965 -5.4352,-6.42613c-1.81549,-1.83298 -3.53047,-4.79819 -4.69035,-7.10954c-1.14819,-2.36502 -1.81249,-4.81229 -2.86349,-7.18758c-0.71311,-2.83473 -0.83581,-4.93867 -0.83581,-7.84155c0.85054,-1.70108 1.08178,-3.69108 1.85765,-5.41315c-0.83171,-0.72107 -1.5748,-1.54075 -1.95868,-2.30851c-1.57955,-1.57955 -3.85589,-3.202 -2.56821,-5.77737c1.11924,-2.10108 2.42597,-3.57173 4.04007,-5.18583c1.76158,-0.90082 3.9728,-2.72943 6.0327,-2.72943c1.77323,-0.88662 4.20409,-0.74682 6.20036,-0.70761c1.82077,0.91039 4.18131,0.45567 6.13984,1.43493c1.84628,0.92314 4.2488,2.58772 5.20662,4.35749c0.14058,0.28116 0.47539,0.76528 0.72291,1.22545l0.15595,0.07797c0.86025,0.43991 1.50609,1.25756 2.43145,1.57381c2.61231,1.72779 5.53437,2.97733 7.82316,5.26612c1.92324,1.92324 3.03884,4.45864 4.83781,6.2576c1.21567,2.43134 3.70301,4.31272 4.53858,6.94936c1.66621,1.75578 1.59409,5.26428 1.59409,7.55671c-0.0321,3.14139 0.08065,4.9756 -1.15858,7.82947c-0.17888,0.35775 -0.42498,0.7746 -0.71641,1.21528c1.60801,0.98002 2.24949,3.17797 3.92461,4.01553zM88.68652,329.43373c1.56789,0.83521 4.96777,1.26544 6.72134,1.25054c1.9921,0.66403 6.52216,0.83258 8.51379,0.15112c2.88326,-0.93992 3.7505,-1.15166 5.21361,-3.92443c0,-3.02356 0.20432,-4.48335 -1.06565,-7.40802c-1.64283,-0.82142 -2.27908,-3.02871 -3.85277,-3.9559c-1.00045,1.42522 -2.38458,2.97937 -3.4665,3.55736c-1.8312,1.86432 -4.2441,2.54953 -6.56055,3.70775c-2.31376,0.77402 -5.5691,2.41823 -7.96351,2.41823c-0.92961,0.4952 -1.94589,0.7809 -2.99397,0.94211c1.84523,1.22705 3.54986,2.30904 5.45422,3.26122zM61.65567,287.6847c0.14874,0.07437 0.14907,0.19821 0.13262,0.2728c0.61812,0.50851 1.26719,0.95251 1.83295,1.26736l0.18699,-0.29285c0.28498,0.07018 1.09273,-0.92741 1.46108,-1.11315c0.98896,-0.4987 2.15035,-1.14664 3.23889,-1.69091c1.98019,-0.94621 4.26166,-0.99347 6.227,-1.98132c2.01606,-1.00803 4.2308,-1.80965 6.227,-2.83046c0.41673,-0.20836 3.87625,-1.81084 3.82444,-2.04076c-0.03699,-0.16416 -0.10643,-0.33861 -0.19337,-0.51682c-0.04178,-0.0343 -0.09529,-0.0955 -0.09458,-0.18359c-0.21967,-0.40703 -0.50271,-0.82189 -0.67632,-1.1691c-0.71065,-1.6366 -3.35895,-3.32185 -4.98302,-4.13388c-1.91963,-0.95982 -4.23888,-0.4994 -6.03111,-1.39552c-1.96775,0.05833 -4.21087,-0.17225 -5.9706,0.70761c-2.0344,0 -4.10444,1.79845 -5.85522,2.64843c-1.53768,1.53768 -2.8949,2.93135 -3.88521,5.00381c-1.16672,2.33344 1.09428,3.82907 2.52661,5.26141c0.35978,0.71955 1.05046,1.49007 1.82744,2.17318c0.05241,-0.02293 0.12054,-0.02817 0.2044,0.01375z" fill="#061633"/><path d="M61.61627,287.7155c-0.08386,-0.04192 -0.15235,-0.03714 -0.20476,-0.01421c-0.77698,-0.68311 -1.47362,-1.4637 -1.8334,-2.18325c-1.43233,-1.43234 -3.69761,-2.94939 -2.53089,-5.28283c0.99031,-2.07246 2.35357,-3.48883 3.89125,-5.02651c1.75078,-0.84998 3.84259,-2.66939 5.87699,-2.66939c1.75973,-0.87986 4.03641,-0.65316 6.00416,-0.71149c1.79223,0.89612 4.1372,0.45087 6.05683,1.41069c1.62407,0.81203 4.28387,2.51907 4.99452,4.15567c0.17361,0.34721 0.45753,0.76666 0.6772,1.17369c-0.00071,0.08809 0.0529,0.14998 0.09468,0.18428c0.08694,0.17821 0.15659,0.35456 0.19358,0.51872c0.05181,0.22992 -3.40764,1.84068 -3.82437,2.04904c-1.9962,1.02081 -4.22381,1.85232 -6.23987,2.86035c-1.96534,0.98785 -4.30267,1.04778 -6.28286,1.99399c-1.08854,0.54427 -2.26127,1.18575 -3.25023,1.68445c-0.36835,0.18574 -1.17787,1.18193 -1.46285,1.11175l-0.18684,0.29297c-0.56576,-0.31485 -1.2216,-0.76562 -1.83972,-1.27413c0.01645,-0.07459 0.01532,-0.19942 -0.13342,-0.27379z" data-paper-data="{&quot;noHover&quot;:false,&quot;origItem&quot;:[&quot;Path&quot;,{&quot;applyMatrix&quot;:true,&quot;segments&quot;:[[[61.65567,287.68449],[0,0],[0.14874,0.07437]],[[61.78829,287.95729],[0.01645,-0.07459],[0.61812,0.50851]],[[63.62124,289.22465],[-0.56576,-0.31485],[0,0]],[[63.80823,288.9318],[0,0],[0.28498,0.07018]],[[65.26931,287.81865],[-0.36835,0.18574],[0.98896,-0.4987]],[[68.5082,286.12774],[-1.08854,0.54427],[1.98019,-0.94621]],[[74.7352,284.14642],[-1.96534,0.98785],[2.01606,-1.00803]],[[80.9622,281.31596],[-1.9962,1.02081],[0.41673,-0.20836]],[[84.78664,279.2752],[0.05181,0.22992],[-0.03699,-0.16416]],[[84.59327,278.75838],[0.08694,0.17821],[-0.04178,-0.0343]],[[84.49869,278.57479],[-0.00071,0.08809],[-0.21967,-0.40703]],[[83.82237,277.40569],[0.17361,0.34721],[-0.71065,-1.6366]],[[78.83935,273.27181],[1.62407,0.81203],[-1.91963,-0.95982]],[[72.80824,271.87629],[1.79223,0.89612],[-1.96775,0.05833]],[[66.83764,272.5839],[1.75973,-0.87986],[-2.0344,0]],[[60.98242,275.23233],[1.75078,-0.84998],[-1.53768,1.53768]],[[57.09721,280.23614],[0.99031,-2.07246],[-1.16672,2.33344]],[[59.62382,285.49755],[-1.43233,-1.43234],[0.35978,0.71955]],[[61.45126,287.67073],[-0.77698,-0.68311],[0.05241,-0.02293]],[[61.65566,287.68448],[-0.08386,-0.04192],[0,0]]],&quot;closed&quot;:true,&quot;fillColor&quot;:[0,0,0,1]}]}" fill="#d8d392"/><path d="M88.64754,329.46523c-1.90436,-0.95218 -3.6189,-2.05505 -5.46413,-3.2821c1.04808,-0.16121 2.06408,-0.44835 2.99369,-0.94355c2.39441,0 5.65102,-1.6675 7.96478,-2.44152c2.31645,-1.15822 4.81362,-1.86345 6.64482,-3.72777c1.08192,-0.57799 2.46541,-2.13281 3.46586,-3.55803c1.57369,0.92719 2.22172,3.15385 3.86455,3.97527c1.26997,2.92467 1.06642,4.41313 1.06642,7.43669c-1.46311,2.77277 -2.34255,3.00609 -5.22581,3.94601c-1.99163,0.68146 -6.56309,0.52799 -8.55519,-0.13604c-1.75357,0.0149 -5.18709,-0.43374 -6.75498,-1.26895z" data-paper-data="{&quot;noHover&quot;:false,&quot;origItem&quot;:[&quot;Path&quot;,{&quot;applyMatrix&quot;:true,&quot;segments&quot;:[[[88.68652,329.43372],[0,0],[1.56789,0.83521]],[[95.40786,330.68427],[-1.75357,0.0149],[1.9921,0.66403]],[[103.92165,330.83538],[-1.99163,0.68146],[2.88326,-0.93992]],[[109.13526,326.91096],[-1.46311,2.77277],[0,-3.02356]],[[108.06961,319.50293],[1.26997,2.92467],[-1.64283,-0.82142]],[[104.21684,315.54704],[1.57369,0.92719],[-1.00045,1.42522]],[[100.75034,319.1044],[1.08192,-0.57799],[-1.8312,1.86432]],[[94.18979,322.81215],[2.31645,-1.15822],[-2.31376,0.77402]],[[86.22628,325.23037],[2.39441,0],[-0.92961,0.4952]],[[83.23231,326.17249],[1.04808,-0.16121],[1.84523,1.22705]],[[88.68653,329.4337],[-1.90436,-0.95218],[0,0]]],&quot;closed&quot;:true,&quot;fillColor&quot;:[0,0,0,1]}]}" fill="#041025"/><path d="M103.86692,314.92923c-0.15392,0.15393 -0.04011,0.30839 -0.00803,0.34561c-0.97516,1.40158 -2.3568,2.99705 -3.36416,3.45789c-1.85037,1.82344 -4.16212,2.5063 -6.47186,3.66117c-2.29977,0.76373 -5.52839,2.39941 -7.90428,2.39941c-2.08348,0.99557 -4.25973,1.09048 -6.55088,1.13222c-2.24989,-1.19851 -4.07124,-3.0975 -6.15336,-4.20982c-1.80721,-1.83989 -4.16451,-4.02304 -5.33616,-6.32293c-1.79048,-1.84142 -3.51287,-4.75702 -4.66036,-7.06124c-1.19382,-2.33457 -1.78598,-4.78277 -2.83995,-7.14404c-0.68119,-2.74273 -0.8187,-4.76964 -0.8187,-7.57893c0.8175,-1.635 1.05414,-3.54168 1.77497,-5.20448c0.7297,0.58709 1.49303,1.08463 2.12055,1.39839c0,0 0.22395,0.1113 0.33575,-0.11231c0.05614,-0.11229 0.02796,-0.19674 -0.01427,-0.25264c0.01569,-0.02599 0.02547,-0.05315 0.03143,-0.07659c1.28576,-0.32259 3.49627,-2.22593 4.69101,-2.8233c1.93128,-1.02879 4.26782,-1.0082 6.24,-1.98966c2.00388,-1.00195 4.24072,-1.86239 6.24316,-2.83455c0.80509,-0.40255 4.04922,-1.6062 4.11005,-2.48786c0.00306,-0.04429 0.00017,-0.09238 -0.00775,-0.14362c0.69962,0.44316 1.28573,1.08746 2.08235,1.37576c2.5521,1.71669 5.45627,2.92476 7.71241,5.1809c1.90602,1.90602 3.01706,4.42863 4.79879,6.21036c1.22037,2.44073 3.61494,4.31461 4.52577,6.9379c1.63946,1.53981 1.51954,5.21643 1.51954,7.31004c0.02522,2.99044 0.32645,4.96556 -1.11067,7.62091c-0.16205,0.3241 -0.39779,0.72406 -0.68007,1.15323c-0.06792,-0.02934 -0.16668,-0.04037 -0.26525,0.0582z" data-paper-data="{&quot;noHover&quot;:false,&quot;origItem&quot;:[&quot;Path&quot;,{&quot;applyMatrix&quot;:true,&quot;segments&quot;:[[[103.82392,314.90371],[0,0],[0.09857,-0.09857]],[[104.08898,314.84583],[-0.06792,-0.02934],[0.28228,-0.42917]],[[104.76775,313.69498],[-0.16205,0.3241],[1.43712,-2.65535]],[[105.87354,306.08912],[0.02522,2.99044],[0,-2.09361]],[[104.35413,298.79528],[1.63946,1.53981],[-0.91083,-2.62329]],[[99.83525,291.87541],[1.22037,2.44073],[-1.78173,-1.78173]],[[95.04951,285.67901],[1.90602,1.90602],[-2.25614,-2.25614]],[[87.35642,280.50661],[2.5521,1.71669],[-0.79662,-0.2883]],[[85.27894,279.1316],[0.69962,0.44316],[0.00792,0.05124]],[[85.28664,279.27522],[0.00306,-0.04429],[-0.06083,0.88166]],[[81.18581,281.76319],[0.80509,-0.40255],[-2.00244,0.97216]],[[74.95881,284.59365],[2.00388,-1.00195],[-1.97218,0.98146]],[[68.73181,286.57497],[1.93128,-1.02879],[-1.19474,0.59737]],[[64.04864,289.38946],[1.28576,-0.32259],[-0.00596,0.02344]],[[64.01731,289.46591],[0.01569,-0.02599],[0.04223,0.0559]],[[64.03183,289.71819],[0.05614,-0.11229],[-0.1118,0.22361]],[[63.69642,289.82999],[0,0],[-0.62752,-0.31376]],[[61.57587,288.43159],[0.7297,0.58709],[-0.72083,1.6628]],[[59.80585,293.62646],[0.8175,-1.635],[0,2.80929]],[[60.6278,301.19037],[-0.68119,-2.74273],[1.05397,2.36127]],[[63.46573,308.31711],[-1.19382,-2.33457],[1.14749,2.30422]],[[68.11588,315.35985],[-1.79048,-1.84142],[1.17165,2.29989]],[[73.43642,321.67077],[-1.80721,-1.83989],[2.08212,1.11232]],[[79.57468,325.87595],[-2.24989,-1.19851],[2.29115,-0.04174]],[[86.11137,324.74377],[-2.08348,0.99557],[2.37589,0]],[[93.99841,322.35023],[-2.29977,0.76373],[2.30974,-1.15487]],[[100.45795,318.6988],[-1.85037,1.82344],[1.00736,-0.46084]],[[103.81618,315.24879],[-0.97516,1.40158],[-0.03208,-0.03722]],[[103.82389,314.90371],[-0.15392,0.15393],[0,0]]],&quot;closed&quot;:true,&quot;fillColor&quot;:[0,0,0,1]}]}" fill="#061633"/><path d="M60.52491,278.97804c-0.43156,1.70919 -3.67408,6.2342 -5.91742,5.78475c-4.75917,-0.95349 -6.28129,-11.4676 -5.06476,-15.38c0.37794,-1.21548 2.19915,-2.87276 3.08022,-3.6646c7.12079,-6.39965 11.40721,-4.52349 20.08235,-4.51047c3.92557,0.0059 8.76705,-1.72648 11.74758,0.82826c3.45182,2.95871 5.99627,13.03584 0.42811,14.66355c-3.27564,0.95755 -5.3279,-2.88677 -8.16264,-4.0247c-3.63643,-1.45974 -9.31248,-0.64417 -13.12307,0.30847c0.01584,0.11372 0.02403,0.22989 0.02403,0.34798c0,1.29113 -0.97875,2.35364 -2.23477,2.48609c-0.31443,0.11161 -0.72739,2.63697 -0.85962,3.16067z" fill="#271300"/><path d="M67.25341,278.17745c0.24012,-0.19175 0.96225,-0.64959 1.68438,0.07255c0.88389,0.88389 0,1.76776 0,1.76776l-0.63012,0.4435c-0.84914,0.28305 -1.69827,0.56609 -2.54741,0.84913c0,0 -1.18586,0.39529 -1.58114,-0.79057c-0.39529,-1.18586 0.79057,-1.58114 0.79057,-1.58114c0.76124,-0.25374 1.52248,-0.5075 2.28372,-0.76124z" fill="#000000"/><path d="M76.615,275.81837c0.3434,1.2019 -0.8585,1.54531 -0.8585,1.54531l-0.77504,0.19917c-0.88422,0.42775 -1.85211,0.71084 -2.82686,0.83193c0,0 -1.24235,0.13804 -1.38039,-1.10432c-0.13804,-1.24235 1.10432,-1.38039 1.10432,-1.38039c0.68667,-0.06361 1.37393,-0.2635 1.98491,-0.58329l1.20628,-0.36692c0,0 1.2019,-0.3434 1.54531,0.8585z" fill="#000000"/><path d="M108.45495,329.3181c-1.25,0 -1.25,-1.25 -1.25,-1.25l0.00965,-1.34837c0.38769,-3.05529 0.14427,-5.5869 -1.66161,-8.16712c-0.70106,-1.00167 -2.14037,-2.38859 -2.53523,-3.52642c-0.58949,-1.69873 0.05779,-4.30329 0.27594,-6.03574c0.36948,-2.93431 0.7134,-6.30129 0.34095,-9.23646c-0.25781,-2.24931 -1.64623,-3.75508 -2.74301,-5.67193c-3.11898,-5.45103 -9.49202,-11.2143 -15.32596,-13.65056c-1.64339,-0.99138 -3.64781,-2.73408 -2.36157,-5.04606c0.799,-1.43617 3.20565,-1.05196 3.75633,-3.0422c0.25475,-0.9207 -0.40263,-2.44839 -0.77574,-3.23929c-1.26947,-2.69097 -3.13634,-6.37342 -6.00939,-7.56506c0,0 -1.14893,-0.4924 -0.65653,-1.64133c0.4924,-1.14893 1.64133,-0.65654 1.64133,-0.65654c3.84101,1.68659 7.81019,7.68532 8.24908,11.90654c0.19268,1.85318 -0.53438,3.48431 -1.97192,4.69066c-1.27343,1.06863 -3.3441,1.02159 -0.7572,2.3554c6.27993,2.75004 13.00103,8.72289 16.38219,14.6481c1.28574,2.25315 2.70065,3.95332 3.0531,6.60219c0.38697,3.13815 0.04894,6.71569 -0.34095,9.85663c-0.15377,1.2387 -0.85496,3.68006 -0.40595,4.87459c0.35496,0.94432 1.65054,2.09481 2.23804,2.95159c2.12745,3.10251 2.54105,6.23569 2.08881,9.90311l0.00965,1.03827c0,0 0,1.25 -1.25,1.25z" fill-opacity="0.50196" fill="#fa9600"/></g></g></svg>