<svg version="1.1" xmlns="http://www.w3.org/2000/svg" xmlns:xlink="http://www.w3.org/1999/xlink" width="66.22922" height="99.19868" viewBox="0,0,66.22922,99.19868"><defs><linearGradient x1="301.40531" y1="157.25233" x2="301.40531" y2="188.80542" gradientUnits="userSpaceOnUse" id="color-1"><stop offset="0" stop-color="#808080"/><stop offset="1" stop-color="#b3b3b3"/></linearGradient><linearGradient x1="92.54275" y1="147.19411" x2="92.54275" y2="180.69979" gradientUnits="userSpaceOnUse" id="color-2"><stop offset="0" stop-color="#81471e"/><stop offset="1" stop-color="#914f21"/></linearGradient><linearGradient x1="88.7952" y1="168.81756" x2="88.7952" y2="176.6436" gradientUnits="userSpaceOnUse" id="color-3"><stop offset="0" stop-color="#81471e"/><stop offset="1" stop-color="#914f21"/></linearGradient></defs><g transform="translate(-266.11368,-91.55595)"><g data-paper-data="{&quot;isPaintingLayer&quot;:true}" fill-rule="nonzero" stroke-linejoin="miter" stroke-miterlimit="10" stroke-dasharray="" stroke-dashoffset="0" style="mix-blend-mode: normal"><path d="M267.00727,162.29565l7.62964,-5.04332l51.66171,19.78534l1.87508,12.47899c0,0 -21.30683,-6.5411 -30.60099,-10.6773c-10.85221,-4.82958 -30.56543,-16.5437 -30.56543,-16.5437z" fill="url(#color-1)" stroke="none" stroke-width="0" stroke-linecap="butt"/><path d="" fill-opacity="0.50196" fill="#000000" stroke="none" stroke-width="0.5" stroke-linecap="butt"/><path d="" fill-opacity="0.50196" fill="#000000" stroke="none" stroke-width="0.5" stroke-linecap="butt"/><path d="M266.12029,168.20726l0.24911,-6.36597c0,0 21.8519,12.52983 34.20098,18.46783c9.5455,4.5899 29.08026,8.44128 29.08026,8.44128l-63.53036,-20.54313z" fill-opacity="0.25098" fill="#000000" stroke="none" stroke-width="0" stroke-linecap="butt"/><path d="" fill="none" stroke="#000000" stroke-width="2.5" stroke-linecap="round"/><path d="" fill-opacity="0.50196" fill="#000000" stroke="none" stroke-width="0.5" stroke-linecap="butt"/><path d="" fill="#ba141b" stroke="none" stroke-width="0.5" stroke-linecap="butt"/><path d="" fill-opacity="0.50196" fill="#000000" stroke="none" stroke-width="0.5" stroke-linecap="butt"/><g fill="#595959" stroke="none" stroke-width="0.5" stroke-linecap="butt"><path d="M329.90331,188.23505c-0.09368,0.76289 0.13957,1.776 -0.45752,2.26c-0.9873,0.80033 -4.29973,-0.47408 -5.32641,-0.81548c-4.67721,-1.55533 -9.47559,-3.13373 -14.03688,-4.9399c-10.10268,-4.04107 -20.10237,-8.37239 -29.84128,-13.23449c-3.92849,-1.9674 -7.87632,-3.82493 -11.51974,-6.28869c-1.24475,-0.84172 -2.73958,-1.25449 -2.59852,-3.34692c0.04435,-0.65786 0.9426,-0.92398 1.37746,-1.41959c1.83682,-2.09339 3.84541,-3.39332 6.35912,-4.45719c-0.00801,-10.11147 -0.73188,-20.93616 0.51981,-30.94974c-0.01254,-10.33721 0.77358,-20.60721 0.77358,-30.96216c0.17304,-0.76913 -0.16028,-1.90748 0.51911,-2.30738c1.86096,-1.09538 6.45008,2.26656 8.17909,2.95744c8.68577,3.4707 16.85496,8.10058 24.95745,12.7331c6.20081,3.10067 12.33182,6.14997 18.18518,9.87511c1.58754,1.01032 4.20614,1.90614 4.91472,3.76496c0.93475,2.45212 0.11723,7.01296 -0.19693,9.52624c0.01324,10.9129 -1.51611,21.74705 -1.55566,32.63733c-0.77001,3.85004 -0.63422,7.99308 -1.03466,11.89861c-0.09432,0.91995 0.2844,3.0395 -0.36004,3.60603c-0.21138,0.18583 -0.42499,0.32321 -0.63934,0.42002c0.60466,2.77659 2.11795,6.30229 1.78146,9.04271zM268.57633,162.35004c-0.37582,0.43813 1.05716,0.47558 1.54012,0.79172c0.7149,0.46796 1.49667,0.82477 2.24291,1.24093c3.02382,1.68633 5.8945,3.33596 8.99989,4.88632c9.67003,4.84277 19.61451,9.13447 29.65173,13.14936c3.51162,1.42136 7.24533,2.56284 10.82965,3.86685c1.48037,0.53857 3.02735,1.10258 4.54686,1.5176c0.27943,0.07632 0.7812,0.17681 1.13748,0.30989c-0.18653,-0.71854 -0.29336,-1.99494 -0.32851,-2.10823c-0.67392,-2.17206 -1.13112,-4.33554 -1.57954,-6.57767l-0.11433,-0.57167c-0.40913,-0.22009 -0.79351,-0.47359 -1.13903,-0.68653c-4.2054,-2.59176 -8.34786,-4.17939 -12.71798,-6.35793c-9.99319,-2.82469 -19.1513,-8.00682 -29.39087,-10.05473c-2.59197,-1.02636 -5.04145,-2.39646 -7.58479,-3.39065c-2.17435,0.93779 -4.71035,2.37216 -6.09359,3.98475zM276.33994,156.35621c2.21242,0.95523 4.35424,2.08308 6.62713,3.00305c10.29399,2.0588 19.5495,7.226 29.58482,10.12116c3.31671,1.66343 6.99266,2.37624 10.0981,4.54185c1.00237,0.69902 2.03158,1.35874 3.05045,2.03348c0.17559,0.11629 0.42109,0.37081 0.65118,0.60403c0.24041,-0.04634 0.44279,-0.03582 0.61275,0.01086c-0.35241,-4.23368 -0.15106,-9.37591 0.70371,-13.64972c-0.0462,-10.85262 1.53608,-21.66869 1.54832,-32.54632c0.31633,-2.53063 0.8591,-6.0673 0.3204,-8.58033c-0.12983,-0.60566 -1.20774,-0.6988 -1.49588,-0.85757c-1.33767,-0.7371 -2.68796,-1.78764 -3.96095,-2.6363c-5.1442,-3.42946 -10.93163,-5.97312 -16.45102,-8.73259c-6.5894,-3.76339 -13.19606,-7.43313 -20.09814,-10.56707c-2.68455,-1.21894 -5.42887,-2.32375 -8.06557,-3.64358c-0.46119,-0.23085 -1.44166,-0.95019 -1.81232,-1.27423c-0.005,10.373 -0.76674,20.65887 -0.77839,31.01504c-1.25248,10.0199 -0.51491,20.85233 -0.51491,30.96216c0,0 0,0.07846 -0.01966,0.19608z"/><path/><path/></g><path d="" fill="#6a3b18" stroke="none" stroke-width="0.5" stroke-linecap="butt"/><path d="" fill="#6a3b18" stroke="none" stroke-width="0.5" stroke-linecap="butt"/><path d="" fill="#6a3b18" stroke="none" stroke-width="0.5" stroke-linecap="butt"/><path d="" fill="#bb5a4c" stroke="none" stroke-width="0.5" stroke-linecap="butt"/><path d="" fill="#000000" stroke="none" stroke-width="0.5" stroke-linecap="butt"/><g stroke="none" stroke-width="0.5" stroke-linecap="butt"><path d="" fill="#999999"/><path d="" data-paper-data="{&quot;noHover&quot;:false,&quot;origItem&quot;:[&quot;Path&quot;,{&quot;applyMatrix&quot;:true,&quot;segments&quot;:[[[482.42706,178.76488],[0,0],[-2.59256,-1.89618]],[[474.57368,174.42308],[3.30264,0.26334],[0,0]],[[474.5057,174.5427],[0,0],[0.09048,0.2825]],[[474.78278,175.36964],[-0.096,-0.26666],[1.5017,4.17134]],[[476.17986,191.04654],[0.35002,-4.4665],[-0.10888,1.38956]],[[475.65038,195.19434],[0.87074,-1.08836],[-0.9267,1.1583]],[[468.3575,197.39954],[1.48668,-0.32408],[-6.16318,1.3435]],[[450.15052,203.25664],[6.22458,-1.55614],[-14.52024,3.63006]],[[407.09768,214.99832],[14.51108,-3.62776],[0,0]],[404.5344,215.07296],[[404.00418,215.00754],[0.30988,0.06542],[-0.37654,0.10996]],[[402.62342,214.9983],[0.54868,0.13718],[-1.04574,-0.26144]],[[400.88542,213.5397],[0.21012,0.59756],[-0.05068,-0.0215]],[[400.8071,213.50438],[0,0],[-4.91318,-2.4566]],[[383.18412,200.75334],[1.46928,5.5101],[-0.06618,-0.24818]],[[383.01244,199.996],[0.0485,0.25652],[0,0]],[[380.97984,200.67086],[0,0],[-7.53136,1.67364]],[[358.50036,206.29006],[7.5096,-1.8124],[3.90614,3.09326]],[[369.64272,216.55516],[-4.1526,-3.55676],[2.60298,2.22948]],[[378.0055,222.44896],[-2.8322,-1.90164],[3.95198,-1.3628]],[[390.58944,220.52218],[-2.2911,0.25118],[15.31916,-1.67958]],[[436.47658,212.7747],[-15.22378,2.47632],[9.77784,-3.94022]],[[466.28938,202.40046],[-9.93242,3.69342],[10.4855,-3.89906]],[[495.01472,188.35132],[-8.32392,8.1267],[-4.10734,-3.37488]],[[482.42708,178.76488],[4.34406,3.17722],[0,0]]],&quot;closed&quot;:true,&quot;fillColor&quot;:[0.6,0.4,1]}]}" fill="#c3c3c3"/><path d="" data-paper-data="{&quot;noHover&quot;:true,&quot;origItem&quot;:[&quot;Path&quot;,{&quot;applyMatrix&quot;:true,&quot;segments&quot;:[[[241.21353,89.38244],[0,0],[-1.29628,-0.94809]],[[237.28684,87.21154],[1.65132,0.13167],[0,0]],[[237.25285,87.27135],[0,0],[0.04524,0.14125]],[[237.39139,87.68482],[-0.048,-0.13333],[0.75085,2.08567]],[[238.08993,95.52327],[0.17501,-2.23325],[-0.05444,0.69478]],[[237.82519,97.59717],[0.43537,-0.54418],[-0.46335,0.57915]],[[234.17875,98.69977],[0.74334,-0.16204],[-3.08159,0.67175]],[[225.07526,101.62831],[3.11229,-0.77807],[-7.26012,1.81503]],[[203.54884,107.49916],[7.25554,-1.81388],[0,0]],[202.2672,107.53648],[[202.00209,107.50376],[0.15494,0.03271],[-0.18827,0.05498]],[[201.31171,107.49915],[0.27434,0.06859],[-0.52287,-0.13072]],[[200.44271,106.76985],[0.10506,0.29878],[-0.02534,-0.01075]],[[200.40355,106.75219],[0,0],[-2.45659,-1.2283]],[[191.59206,100.37667],[0.73464,2.75505],[-0.03309,-0.12409]],[[191.50622,99.998],[0.02425,0.12826],[0,0]],[[190.48992,100.33542],[0,0],[-3.76568,0.83682]],[[179.25018,103.14503],[3.7548,-0.9062],[1.95307,1.54663]],[[184.82136,108.27758],[-2.0763,-1.77838],[1.30149,1.11474]],[[189.00275,111.22447],[-1.4161,-0.95082],[1.97599,-0.6814]],[[195.29472,110.26108],[-1.14555,0.12559],[7.65958,-0.83979]],[[218.23829,106.38734],[-7.61189,1.23816],[4.88892,-1.97011]],[[233.14469,101.20022],[-4.96621,1.84671],[5.24275,-1.94953]],[[247.50736,94.17566],[-4.16196,4.06335],[-2.05367,-1.68744]],[[241.21354,89.38243],[2.17203,1.58861],[0,0]]],&quot;closed&quot;:true,&quot;fillColor&quot;:[0.6,0.4,1]}]}" fill="#9966ff"/><path d="" fill="#808080"/></g><path d="" fill="#595959" stroke="none" stroke-width="0.5" stroke-linecap="butt"/><path d="" fill="#595959" stroke="none" stroke-width="0.5" stroke-linecap="butt"/><path d="" fill="#632817" stroke="none" stroke-width="0.5" stroke-linecap="butt"/><path d="" fill="#dc5f4d" stroke="none" stroke-width="0.5" stroke-linecap="butt"/><g stroke="none" stroke-width="0.5" stroke-linecap="butt"><path d="" fill="url(#color-2)"/><path d="" fill="url(#color-3)"/></g><path d="" fill="#f1cf5d" stroke="none" stroke-width="0.5" stroke-linecap="butt"/><path d="" fill="#061633" stroke="none" stroke-width="0.5" stroke-linecap="butt"/><path d="M285.18034,169.93847l-0.03371,-0.00728h0.03853zM296.85692,177.31452l-0.04247,-0.01467l0.0991,0.02445z" fill="#f2f2f2" stroke="none" stroke-width="0.5" stroke-linecap="butt"/><path d="" fill="#6a3b18" stroke="none" stroke-width="0.5" stroke-linecap="butt"/><path d="" fill="#6a3b18" stroke="none" stroke-width="0.5" stroke-linecap="butt"/><g stroke="none" stroke-width="0.5" stroke-linecap="butt"><g><path d="" fill="#e3dbad"/><path d="" fill="#35d863"/></g><path d="" fill="#fdeca6"/><path d="" fill="#fdeca6"/><path d="" fill="#fdeca6"/></g><path fill="#000000" stroke="none" stroke-width="0.5" stroke-linecap="butt"/><path fill="#000000" stroke="none" stroke-width="0.5" stroke-linecap="butt"/><path fill="#000000" stroke="none" stroke-width="0.5" stroke-linecap="butt"/><path fill="#000000" stroke="none" stroke-width="0.5" stroke-linecap="butt"/><path fill="#000000" stroke="none" stroke-width="0.5" stroke-linecap="butt"/><path fill="#000000" stroke="none" stroke-width="0.5" stroke-linecap="butt"/><path fill="#000000" stroke="none" stroke-width="0.5" stroke-linecap="butt"/><path fill="#000000" stroke="none" stroke-width="0.5" stroke-linecap="butt"/><path fill="#000000" stroke="none" stroke-width="0.5" stroke-linecap="butt"/><path fill="#000000" stroke="none" stroke-width="0.5" stroke-linecap="butt"/><path fill="#2417bd" stroke="none" stroke-width="0.5" stroke-linecap="butt"/><path fill="#2417bd" stroke="none" stroke-width="0.5" stroke-linecap="butt"/><path d="" fill="#000000" stroke="none" stroke-width="0.5" stroke-linecap="butt"/><path d="" fill="#000000" stroke="none" stroke-width="0.5" stroke-linecap="butt"/><path d="" fill="#000000" stroke="none" stroke-width="0.5" stroke-linecap="butt"/><path d="" fill="#c6c6c6" stroke="#000000" stroke-width="0" stroke-linecap="butt"/><path d="" fill="#c6c6c6" stroke="#000000" stroke-width="0" stroke-linecap="butt"/><path d="" fill="#c6c6c6" stroke="#999999" stroke-width="2.5" stroke-linecap="butt"/><path d="" fill="#8b735c" stroke="none" stroke-width="0.5" stroke-linecap="butt"/><path d="" fill="#3e68d6" stroke="none" stroke-width="0.5" stroke-linecap="butt"/><path d="" fill-opacity="0.50196" fill="#fa9600" stroke="none" stroke-width="0.5" stroke-linecap="butt"/><path d="" fill-opacity="0.50196" fill="#fa9600" stroke="none" stroke-width="0.5" stroke-linecap="butt"/><g fill="#000000" stroke="none" stroke-width="0.5" stroke-linecap="butt" font-family="&quot;Helvetica Neue&quot;, Helvetica, Arial, sans-serif" font-weight="400" font-size="16" text-anchor="start"/><g fill="#000000" stroke="none" stroke-width="0.5" stroke-linecap="butt" font-family="&quot;Helvetica Neue&quot;, Helvetica, Arial, sans-serif" font-weight="400" font-size="16" text-anchor="start"/><g fill="#000000" stroke="none" stroke-width="0.5" stroke-linecap="butt" font-family="&quot;Helvetica Neue&quot;, Helvetica, Arial, sans-serif" font-weight="400" font-size="16" text-anchor="start"/><g fill="#000000" stroke="none" stroke-width="0.5" stroke-linecap="butt" font-family="&quot;Helvetica Neue&quot;, Helvetica, Arial, sans-serif" font-weight="400" font-size="16" text-anchor="start"/><g fill="#000000" stroke="none" stroke-width="0.5" stroke-linecap="butt" font-family="&quot;Helvetica Neue&quot;, Helvetica, Arial, sans-serif" font-weight="400" font-size="16" text-anchor="start"/></g></g></svg>