<svg version="1.1" xmlns="http://www.w3.org/2000/svg" xmlns:xlink="http://www.w3.org/1999/xlink" width="11.18858" height="3.10364" viewBox="0,0,11.18858,3.10364"><g transform="translate(-424.93805,-203.31422)"><g data-paper-data="{&quot;isPaintingLayer&quot;:true}" fill-rule="nonzero" stroke="none" stroke-width="0.5" stroke-linecap="butt" stroke-linejoin="miter" stroke-miterlimit="10" stroke-dasharray="" stroke-dashoffset="0" style="mix-blend-mode: normal"><g><path d="M425.84688,205.41786c0,-0.55229 0.44772,-1 1,-1c0.55228,0 1,0.44771 1,1c0,0.55229 -0.44772,1 -1,1c-0.55228,0 -1,-0.44771 -1,-1z" fill="#808080"/><path d="M429.93806,205.32045c0,-0.55229 0.44772,-1 1,-1c0.55228,0 1,0.44771 1,1c0,0.55229 -0.44772,1 -1,1c-0.55228,0 -1,-0.44771 -1,-1z" fill="#808080"/><path d="M434.12664,205.32045c0,-0.55229 0.44772,-1 1,-1c0.55228,0 1,0.44771 1,1c0,0.55229 -0.44772,1 -1,1c-0.55228,0 -1,-0.44771 -1,-1z" fill="#808080"/><g fill="#4c40ff"><path d="M424.93806,204.41163c0,-0.55229 0.44772,-1 1,-1c0.55228,0 1,0.44771 1,1c0,0.55229 -0.44772,1 -1,1c-0.55228,0 -1,-0.44771 -1,-1z"/><path d="M429.02923,204.31422c0,-0.55229 0.44772,-1 1,-1c0.55228,0 1,0.44771 1,1c0,0.55229 -0.44772,1 -1,1c-0.55228,0 -1,-0.44771 -1,-1z"/><path d="M433.21782,204.31422c0,-0.55229 0.44772,-1 1,-1c0.55228,0 1,0.44771 1,1c0,0.55229 -0.44772,1 -1,1c-0.55228,0 -1,-0.44771 -1,-1z"/></g></g></g></g></svg>