<svg version="1.1" xmlns="http://www.w3.org/2000/svg" xmlns:xlink="http://www.w3.org/1999/xlink" width="92.66633" height="190.51189" viewBox="0,0,92.66633,190.51189"><defs><linearGradient x1="113.59292" y1="51.92609" x2="113.59292" y2="237.44253" gradientUnits="userSpaceOnUse" id="color-1"><stop offset="0" stop-color="#663100"/><stop offset="1" stop-color="#8e4e20"/></linearGradient><linearGradient x1="92.54275" y1="147.19412" x2="92.54275" y2="180.6998" gradientUnits="userSpaceOnUse" id="color-2"><stop offset="0" stop-color="#81471e"/><stop offset="1" stop-color="#914f21"/></linearGradient><linearGradient x1="88.7952" y1="168.81757" x2="88.7952" y2="176.64361" gradientUnits="userSpaceOnUse" id="color-3"><stop offset="0" stop-color="#81471e"/><stop offset="1" stop-color="#914f21"/></linearGradient></defs><g transform="translate(-67.33902,-48.9946)"><g data-paper-data="{&quot;isPaintingLayer&quot;:true}" fill-rule="nonzero" stroke-linejoin="miter" stroke-miterlimit="10" stroke-dasharray="" stroke-dashoffset="0" style="mix-blend-mode: normal"><path d="M70.74814,237.44253l0.57703,-149.1633l85.11252,-36.35314l-0.57703,148.58627z" fill="url(#color-1)" stroke="none" stroke-width="0" stroke-linecap="butt"/><path d="M155.66894,199.07859v-146.95499" fill="none" stroke="#000000" stroke-width="2.5" stroke-linecap="round"/><path d="M70.49683,88.75203v146.95499" fill="none" stroke="#000000" stroke-width="2.5" stroke-linecap="round"/><g fill="#131313" stroke="#000000" stroke-width="2.5" stroke-linecap="round"><path d="M147.40683,192.16693l-64.58105,28.54007"/><path d="M82.3373,220.88995v-18.96634l64.58105,-28.54006v17.50274"/></g><g fill="#121212" stroke="#000000" stroke-width="2.5" stroke-linecap="round"><path d="M146.55245,88.6781l-64.58105,28.54007"/><path d="M81.48293,117.4011v-18.96634l64.58105,-28.54007v17.50275"/></g><g stroke="none" stroke-linecap="butt"><path d="M99.91174,155.9146c0.80297,0.00047 3.0543,-0.10082 3.5654,0.49777c1.87118,2.19153 -0.02254,6.77233 -0.54498,9.12421c-0.24604,0.68467 -0.14738,1.62933 -0.73811,2.05402c-1.64733,1.1843 -2.6986,-0.01546 -3.98576,-0.58094c-0.21613,-0.09495 -0.43377,-0.1882 -0.65279,-0.27942c0.05392,2.79753 0.26245,5.57031 0.22194,8.38067c-0.02174,1.50873 0.20899,2.40301 -1.17108,3.55358c-2.34225,1.95276 -8.33177,1.43584 -11.22759,1.67716c-1.21,0.10083 -2.6825,0.74915 -3.64258,0.00584c-1.48524,-1.14989 -0.75786,-5.66234 -0.75786,-7.34628c0,-7.01305 0.23441,-14.05802 0.23441,-21.09705v-0.25545c-0.03937,-0.17521 -0.03347,-0.33467 0,-0.477v-0.20519c0,0 0,-1.25 1.25,-1.25c0.16586,0 0.30971,0.02201 0.43448,0.06018c2.98788,-1.47989 6.21216,-1.91491 9.54212,-2.16563c0.81625,-0.06146 3.12633,-0.74489 3.67003,-0.22008c0.60473,0.58371 0.90049,4.66201 0.95529,5.5358c0.05936,0.94669 0.11637,1.89442 0.16905,2.84283c1.06138,0.07257 1.99982,0.14458 2.67804,0.14499zM89.77869,162.36984c1.86006,0.04171 3.52452,0.3788 5.23845,0.90093c-0.03663,-1.63303 -0.1091,-3.26202 -0.19777,-4.89129c-0.98663,-0.00228 -1.97262,0.00509 -2.9565,0.03428c-0.65829,0.01953 -1.72675,-0.35917 -1.95894,0.25713c-0.28612,0.75942 -0.15794,2.3903 -0.12524,3.69896zM100.49169,164.99421c0.30514,-1.37264 1.99145,-5.38986 1.25519,-6.77739c-0.28839,-0.54348 -1.21988,0.19736 -1.83513,0.19774c-0.84713,0.00053 -1.69569,-0.00734 -2.54475,-0.01582c0.08788,1.94104 0.15002,3.88356 0.16953,5.82456c1.33019,0.66481 3.1444,1.65679 2.95516,0.7709z" fill="url(#color-2)" stroke-width="0.5"/><path d="M100.50402,165.04271c0.18924,0.88589 -1.66925,-0.11609 -2.99944,-0.7809c-0.01951,-1.941 -0.07823,-3.96303 -0.16611,-5.90407c0.84906,0.00848 1.73016,0.00756 2.5773,0.00703c0.61525,-0.00038 1.56863,-0.73415 1.85702,-0.19067c0.73626,1.38753 -0.96362,5.49598 -1.26876,6.86862z" data-paper-data="{&quot;noHover&quot;:false,&quot;origItem&quot;:[&quot;Path&quot;,{&quot;applyMatrix&quot;:true,&quot;segments&quot;:[[[200.98338,329.98839],[0,0],[0.61028,-2.74528]],[[203.49376,316.43361],[1.47252,2.77506],[-0.57678,-1.08696]],[[199.8235,316.82909],[1.2305,-0.00076],[-1.69426,0.00106]],[[194.734,316.79745],[1.69812,0.01696],[0.17576,3.88208]],[[195.07306,328.44657],[-0.03902,-3.882],[2.66038,1.32962]],[[200.98338,329.98837],[0.37848,1.77178],[0,0]]],&quot;closed&quot;:true,&quot;fillColor&quot;:[0.6,0.4,1],&quot;strokeWidth&quot;:0.5}]}" fill="#512c13" stroke-width="0.25"/><path d="M89.73598,162.3958c-0.0327,-1.30866 -0.15605,-2.99815 0.13007,-3.75757c0.23219,-0.6163 1.32813,-0.25388 1.98642,-0.27341c0.98388,-0.02919 5.33878,-0.02275 6.32541,-0.02047c0.08867,1.62927 -0.17025,4.41932 -0.13362,6.05235c-1.71393,-0.52213 -6.44822,-1.9592 -8.30828,-2.00091z" data-paper-data="{&quot;noHover&quot;:false,&quot;origItem&quot;:[&quot;Path&quot;,{&quot;applyMatrix&quot;:true,&quot;segments&quot;:[[[179.55738,324.73955],[0,0],[3.72012,0.08342]],[[190.03428,326.54141],[-3.42786,-1.04426],[-0.07326,-3.26606]],[[189.63874,316.75883],[0.17734,3.25854],[-1.97326,-0.00456]],[[183.72574,316.82739],[1.96776,-0.05838],[-1.31658,0.03906]],[[179.80786,317.34165],[0.46438,-1.2326],[-0.57224,1.51884]],[[179.55738,324.73957],[-0.0654,-2.61732],[0,0]]],&quot;closed&quot;:true,&quot;fillColor&quot;:[0.6,0.4,1],&quot;strokeWidth&quot;:0.5}]}" fill="#512c13" stroke-width="0.25"/><path d="M88.3566,164.66709c0.31768,0.16429 0.61821,0.15021 0.61821,0.15021l0.42901,-0.00157c1.90291,-0.00284 3.85397,0.43185 5.68746,1.00827c0.01621,2.64582 0.21216,5.27583 0.21216,7.92316c0,0.49137 0.36682,2.62646 -0.24095,3.01286c-2.01554,1.2814 -6.20834,0.72907 -8.493,0.90482c-0.81096,0.06238 -2.84109,0.75068 -3.39954,0.69443c-0.18865,-0.019 0.26099,-0.30422 0.285,-0.49231c0.07479,-0.58598 0.00119,-1.18248 0.00198,-1.77321c0.00136,-1.01578 -0.00528,-2.03447 -0.00528,-3.05025c0,-6.92654 0.23389,-13.97338 0.23949,-20.92601c2.77507,-1.47853 5.86015,-1.81988 8.96636,-2.06348c0.5081,-0.03985 1.37015,-0.11217 1.84863,-0.28771c0.20306,-0.0745 0.23522,5.52334 0.26247,5.9649c-2.89564,-0.08002 -6.00334,0.11986 -7.03945,1.77611c-0.63917,1.02174 -0.26705,4.52384 -0.4124,5.83205c0,0 -0.14582,1.16084 1.03987,1.32771z" data-paper-data="{&quot;noHover&quot;:false,&quot;origItem&quot;:[&quot;Path&quot;,{&quot;applyMatrix&quot;:true,&quot;segments&quot;:[[[176.63966,329.40189],[0,0],[-2.37138,-0.33374]],[[174.53648,326.65437],[0,0],[0.2907,-2.61642]],[[175.43464,314.91745],[-1.27834,2.04348],[2.07222,-3.3125]],[[189.31638,311.26857],[-5.79128,-0.16004],[-0.0545,-0.88312]],[[189.15132,308.61783],[0.05526,0.88408],[-0.1856,-2.9696]],[[189.20276,298.76997],[0.65012,2.60404],[-0.10478,-0.41972]],[[188.3088,299.71079],[0.40612,-0.149],[-0.95696,0.35108]],[[185.29106,300.20511],[1.0162,-0.0797],[-6.21242,0.48718]],[[167.42524,304.32525],[5.55014,-2.95706],[-0.0112,13.90526]],[[166.95664,346.00241],[0,-13.85308],[0,2.03156]],[[166.95664,352.09711],[0.00272,-2.03156],[-0.00158,1.18146]],[[166.94812,355.64151],[0.14958,-1.17196],[-0.04802,0.37618]],[[166.37856,356.62631],[-0.3773,-0.038],[1.1169,0.1125]],[[173.15808,355.23151],[-1.62192,0.12476],[4.56932,-0.3515]],[[190.08406,353.42877],[-4.03108,2.5628],[1.21554,-0.77278]],[[190.55486,347.40889],[0,0.98274],[0,-5.29466]],[[190.08794,331.61557],[0.03242,5.29164],[-3.66698,-1.15284]],[[178.82136,329.73049],[3.80582,-0.00568],[0,0]],[177.92128,329.73049],[[176.63964,329.40191],[0.63536,0.32858],[0,0]]],&quot;closed&quot;:true,&quot;fillColor&quot;:[0.6,0.4,1],&quot;strokeWidth&quot;:0.5}]}" fill="#512c13" stroke-width="0.25"/><path d="M87.61051,169.11638c0.225,0 0.40949,0.0405 0.56078,0.10692c0.5786,-0.21924 1.17237,-0.56808 1.69629,-0.32045c1.36669,0.64596 2.42525,6.4945 1.21092,7.55051c-0.5708,0.49638 -1.5083,-0.12423 -2.25854,-0.22078c-3.46756,-0.44624 -3.0312,-2.68046 -2.42968,-5.38728l-0.02976,-0.47891c0,0 0,-1.25 1.25,-1.25zM88.93966,173.80688c0.00202,-1.08244 0.30292,-2.75647 -0.13093,-2.32458c-0.16971,0.70069 -0.4798,1.37037 -0.5734,2.08507c-0.01727,0.1319 0.33609,0.17826 0.70432,0.23951z" fill="url(#color-3)" stroke-width="0.5"/></g><path d="M70.07689,88.12912l88.67846,-37.88452" fill="none" stroke="#000000" stroke-width="2.5" stroke-linecap="round"/><path d="M156.29798,200.78615c0,0 -67.93382,29.02216 -87.70896,37.47034" fill="none" stroke="#000000" stroke-width="2.5" stroke-linecap="round"/><path d="M102.75381,157.42897c0.02904,-0.65825 0.41768,-1.25 1.25,-1.25c0.41991,0 0.79683,0.32808 1.09375,0.625c0.15185,0.15185 0.147,0.41045 0.15625,0.625c0.04094,0.94916 -0.70661,9.95124 -1.67281,10.50336c-0.21744,0.36843 -0.61849,0.61558 -1.07727,0.61558c-0.69036,0 -1.25,-0.55964 -1.25,-1.25c0,-0.34674 0.14118,-0.6605 0.36919,-0.88694c-0.1624,-2.75473 1.05307,-7.21802 1.13089,-8.982z" fill-opacity="0.50196" fill="#fa9600" stroke="none" stroke-width="0.5" stroke-linecap="butt"/><path d="M96.57625,147.52094c1.25066,1.01067 2.29872,7.12353 1.41567,8.00658c-2.14476,2.14476 -2.53016,-4.48206 -3.34914,-6.52952c-0.06433,-0.15061 -0.09993,-0.31643 -0.09993,-0.49056c0,-0.69036 0.55964,-1.25 1.25,-1.25c0.11992,0 0.23589,0.01689 0.34568,0.04841c0.15344,0.03568 0.30218,0.10555 0.43773,0.21508z" fill-opacity="0.50196" fill="#fa9600" stroke="none" stroke-width="0.5" stroke-linecap="butt"/><path d="M97.13503,164.94259c0.42732,0.24418 0.77907,0.95154 1.05051,1.92772c-0.22262,0.34436 -0.60995,0.57228 -1.05051,0.57228c-0.69036,0 -1.25,-0.55964 -1.25,-1.25c0,-0.69036 0.55964,-1.25 1.25,-1.25c0.69036,0 1.25,0.55964 1.25,1.25c0,0.24979 -0.07327,0.48248 -0.19949,0.67772c1.08366,3.89728 0.88706,12.07928 -0.8926,12.17815c-2.08891,0.11605 -1.34618,-7.70946 -1.4079,-10.56163c-0.00908,-0.41973 -0.32708,-2.64305 0.17273,-2.92866z" fill-opacity="0.50196" fill="#fa9600" stroke="none" stroke-width="0.5" stroke-linecap="butt"/></g></g></svg>