<svg version="1.1" xmlns="http://www.w3.org/2000/svg" xmlns:xlink="http://www.w3.org/1999/xlink" width="163.86004" height="102.73582" viewBox="0,0,163.86004,102.73582"><defs><linearGradient x1="200.05762" y1="229.62403" x2="200.05762" y2="247.0733" gradientUnits="userSpaceOnUse" id="color-1"><stop offset="0" stop-color="#81471e"/><stop offset="1" stop-color="#914f21"/></linearGradient><linearGradient x1="291.94467" y1="225.74043" x2="291.94467" y2="234.31177" gradientUnits="userSpaceOnUse" id="color-2"><stop offset="0" stop-color="#81471e"/><stop offset="1" stop-color="#914f21"/></linearGradient></defs><g transform="translate(-165.79061,-161.84129)"><g data-paper-data="{&quot;isPaintingLayer&quot;:true}" fill-rule="nonzero" stroke="none" stroke-linecap="butt" stroke-linejoin="miter" stroke-miterlimit="10" stroke-dasharray="" stroke-dashoffset="0" style="mix-blend-mode: normal"><path d="M188.0966,249.21361c-0.51059,-0.76589 -0.55119,-1.43778 -0.39867,-1.98107c-1.52996,-5.00068 -3.76475,-9.7195 -5.33567,-14.68551c-1.38233,-4.36983 -2.29997,-8.87903 -3.40584,-13.34436c-1.13307,-4.57516 -2.04253,-10.95838 1.31756,-14.92279c1.54384,-1.8215 3.45458,-2.40572 5.52401,-3.32596c3.90711,-0.78536 8.19746,-1.15622 12.09921,-0.00655c9.36515,2.75949 16.00854,12.65576 18.96449,21.51184c2.06393,6.18356 1.79776,12.77657 2.44516,19.16958c0.02293,1.27352 0.64787,2.68607 0.06879,3.82055c-1.59575,3.12625 -4.24817,3.36845 -7.12275,3.81847c-6.41362,1.00405 -14.40738,-2.47719 -20.28481,0.32624l-0.40459,0.31293c0,0 -2.08013,1.38675 -3.46688,-0.69338z" fill-opacity="0.50196" fill="#000000" stroke-width="0.5"/><path d="M165.92003,238.01283c-0.24685,-0.5528 -0.12346,-1.13227 0.22513,-1.7054c0.15465,-0.82939 0.50375,-1.67817 1.08003,-2.51116c3.79266,-5.48211 12.12744,-8.50518 18.33426,-9.75061c6.44771,-1.17253 13.45494,-1.517 19.91567,-0.12879c6.89937,1.48247 2.14501,7.561 -1.58891,9.63819c-1.34884,1.0145 -2.75887,1.79196 -4.20678,2.49308c-0.09896,0.22521 -0.22698,0.36923 -0.22698,0.36923c-2.88295,3.20583 -6.63211,4.00243 -10.64902,4.62223c0.04669,0.01371 0.09346,0.02727 0.14029,0.04066c7.11633,2.0351 14.4393,3.71349 21.74971,4.93567c0.9742,0.24316 1.95266,0.47114 2.9373,0.66779l0.96032,-0.02427c0,0 1.25,0 1.25,1.25c0,1.25 -1.25,1.25 -1.25,1.25l-1.45061,-0.02428c-0.9908,-0.19842 -1.97587,-0.42616 -2.95608,-0.67162c-7.91709,-1.31528 -15.69711,-3.31365 -23.38825,-5.51169c-0.77305,-0.22093 -2.47744,-0.49308 -3.91405,-0.95642c-0.37006,0.06297 -0.73964,0.12546 -1.10903,0.18687c0.48206,1.21945 0.82168,2.75785 1.05515,3.45862c1.95314,5.86248 4.9288,11.41887 6.70781,17.31249c0,0 0.35918,1.19728 -0.8381,1.55647c-1.19728,0.35919 -1.55647,-0.8381 -1.55647,-0.8381c-2.11897,-7.11239 -6.26818,-13.81743 -8.07585,-21.06802c-2.18735,0.30965 -4.39073,0.52835 -6.66579,0.52835c-3.19968,-0.01219 -5.75207,-2.12272 -6.25779,-4.82648c-0.09271,-0.07731 -0.16846,-0.173 -0.22196,-0.29281zM173.2157,234.50657c0.23852,-0.00635 0.4911,0.00527 0.75187,0.02982c0.0157,-0.17526 0.06757,-0.34011 0.1481,-0.48702c-0.0055,0.00234 -0.01101,0.00469 -0.01651,0.00704c-0.30394,0.12966 -0.58987,0.29814 -0.88345,0.45017zM188.61302,238.38278c0.17801,-0.03672 0.35441,-0.08058 0.52936,-0.13063c-0.64517,0.13762 -1.29268,0.26013 -1.94231,0.36861c0.48254,-0.06471 0.95459,-0.14343 1.41295,-0.23798zM172.15834,240.62932c-0.33794,-0.0314 -0.67489,-0.06745 -1.00266,-0.11128c0.30186,0.06275 0.63555,0.1009 1.00266,0.11128z" fill-opacity="0.50196" fill="#000000" stroke-width="0.5"/><path d="M266.1203,168.20726l0.24911,-6.36597c0,0 21.8519,12.52983 34.20098,18.46783c9.5455,4.5899 29.08026,8.44128 29.08026,8.44128l-0.19057,7.13833c0,0 -41.03406,-16.7511 -52.79809,-22.51577c-4.94727,-2.42428 -10.5417,-5.16569 -10.5417,-5.16569z" fill-opacity="0.25098" fill="#000000" stroke-width="0"/><path d="M292.41082,230.41638c2.44827,-0.60692 4.69186,-1.73406 6.71316,-3.19816c-3.08612,0.53781 -6.19723,0.96751 -9.31606,1.27574c0.8665,0.63266 1.71616,1.2329 2.4896,1.81298zM287.52752,232.99271c-3.2267,-2.39393 -6.54264,-4.96098 -8.48002,-8.51423c-2.95875,-5.42648 -1.32951,-12.367 1.02386,-17.69146c1.54582,-2.3319 3.12215,-4.77715 4.95755,-6.89924c1.32815,-1.53561 2.13546,-1.71376 2.98912,-3.56488c0.75394,-1.6349 0.77892,-3.54737 1.55199,-5.1733c1.37324,-2.88823 4.60843,-7.50804 7.31346,-9.27383c6.13388,-4.00409 16.91723,1.43694 19.06242,8.0392c0.87529,2.69387 0.11128,5.98256 0.10201,8.75318c-0.76608,3.81119 -2.69175,6.54019 -3.98199,10.07115c-0.51817,1.41805 0.09733,2.91673 0.60859,4.40989c1.57436,0.79103 3.06107,1.81344 4.41106,3.02255c3.76835,3.37509 4.16809,10.3066 -0.31822,13.18725c-2.20516,0.67869 -4.34814,1.22235 -6.54868,1.15287c-0.84218,3.71456 -1.61619,7.25815 -1.96378,11.08163c0,0 -0.11317,1.24487 -1.35803,1.1317c-1.24487,-0.11317 -1.1317,-1.35804 -1.1317,-1.35804c0.32731,-3.60035 0.89543,-6.99308 1.77342,-10.50342c0.02124,-0.08493 0.0964,-0.34709 0.2012,-0.70674c-0.23606,-0.06165 -0.47323,-0.13193 -0.71165,-0.21138c-0.73892,-0.24624 -1.47114,-0.58039 -2.18339,-0.98885c-3.5138,3.22198 -7.70177,5.58307 -12.47128,6.54486c-0.25092,0.09452 -0.49478,0.13383 -0.726,0.13476c-0.45398,0.07704 -0.91306,0.14147 -1.37717,0.19284c0,0 -2.48759,0.24877 -2.73636,-2.23883c-0.02156,-0.21561 -0.02256,-0.4144 -0.00642,-0.59766zM316.57881,226.38428c-0.39211,0.32606 -0.82835,0.60441 -1.29685,0.82324c0.15083,-0.03993 0.30235,-0.08197 0.45452,-0.12613c0.3284,-0.19376 0.60788,-0.42907 0.84233,-0.69711zM312.02547,227.7144c-0.04204,0.01359 -0.0842,0.02689 -0.12647,0.03992c0.10992,-0.00553 0.22032,-0.01237 0.3312,-0.02054c-0.06847,-0.0055 -0.13671,-0.01198 -0.20473,-0.01937z" fill-opacity="0.50196" fill="#000000" stroke-width="0.5"/><g stroke-width="0.5"><path d="M225.90749,256.43283c-0.88389,0.88389 -1.76777,0 -1.76777,0l-0.53127,-0.5656c-2.32313,-3.48469 -4.42316,-7.04083 -6.75169,-10.50263c0,0 -0.00712,-0.01068 -0.01884,-0.03061c-1.28361,0.45639 -2.55357,0.85545 -3.71405,1.24228c-6.87433,3.41568 -14.9828,3.41582 -22.72818,2.26049c-0.36378,0.46031 -1.00599,0.46031 -1.00599,0.46031l-0.67826,-0.03732c-0.17259,-0.04438 -0.34629,-0.0851 -0.52096,-0.12278c-0.74338,3.55196 -1.56154,6.85496 -2.46432,10.46609l-0.40192,1.2174c0,0 -0.39529,1.18586 -1.58114,0.79057c-1.18586,-0.39529 -0.79057,-1.58114 -0.79057,-1.58114l0.34827,-1.03316c0.88648,-3.54591 1.70788,-6.76977 2.42283,-10.25133c-1.60149,-0.20773 -3.21464,-0.40917 -4.71659,-1.05554c-3.80214,-1.63628 -5.76322,-4.80944 -7.46256,-8.35783c-0.00534,-0.28577 -0.07232,-3.08965 -0.02407,-3.44067c0.7161,-5.20999 5.9296,-4.85195 9.92205,-5.93161c1.27799,-0.3456 2.41706,-1.10091 3.68522,-1.48098c6.27583,-1.88082 13.36932,-1.47765 19.72183,-0.41936c5.38786,0.89837 11.12847,2.11342 15.83051,5.0459c1.57468,0.98206 3.91246,2.35017 3.96626,4.51682c0.00658,0.26513 -1.4802,2.60746 -1.78128,2.96538c-1.41575,1.68303 -3.46231,2.87895 -5.64555,3.82028c2.18356,3.33366 4.2506,6.74491 6.46912,10.0727l0.21892,0.18459c0,0 0.88389,0.88388 0,1.76776zM179.98474,244.1752c0.1936,-0.00061 0.33077,0.03368 0.33077,0.03368c9.82551,2.47474 22.2423,4.89437 31.85163,0.05783c3.13732,-1.04577 7.21568,-2.15625 9.8134,-4.31295c0.36762,-0.30521 2.12448,-1.9923 2.17056,-2.48683c0.08904,-0.95565 -3.55002,-2.61275 -4.18765,-2.93033c-4.27733,-2.13034 -8.81104,-3.22577 -13.52495,-4.01107c-5.94646,-0.99151 -12.65684,-1.43551 -18.53773,0.33083c-1.31149,0.39391 -2.49624,1.1569 -3.81666,1.51977c-2.02006,0.55514 -6.86977,0.36834 -7.80485,2.67341c-0.47012,1.15889 -0.26813,2.49123 -0.30167,3.70824c0.63256,1.19253 1.13142,2.57372 2.00068,3.62074c0.61831,0.74474 1.29138,1.32918 2.00647,1.79669z" fill="#6a3b18"/><path d="M179.93672,244.18916c-0.71509,-0.46751 -1.38933,-1.05691 -2.00764,-1.80165c-0.86926,-1.04702 -1.36892,-2.43634 -2.00149,-3.62887c0.03354,-1.21701 -0.16798,-2.55707 0.30214,-3.71596c0.93508,-2.30507 5.78749,-2.12892 7.80755,-2.68406c1.32042,-0.36287 2.50944,-1.13458 3.82093,-1.52849c5.88089,-1.76634 12.66541,-1.33485 18.61187,-0.34334c4.71391,0.7853 9.26514,1.91007 13.54247,4.04041c0.63763,0.31758 4.27755,1.98226 4.18851,2.93791c-0.04608,0.49453 -1.80303,2.18709 -2.17065,2.4923c-2.59772,2.1567 -6.68102,3.28548 -9.81834,4.33125c-9.60933,4.83654 -22.11898,2.40919 -31.94449,-0.06555c0,0 -0.13726,-0.03458 -0.33086,-0.03397z" data-paper-data="{&quot;noHover&quot;:false,&quot;origItem&quot;:[&quot;Path&quot;,{&quot;applyMatrix&quot;:true,&quot;segments&quot;:[[[579.44872,621.33323],[0,0],[0.3872,-0.00122]],[[580.11026,621.40059],[0,0],[19.65102,4.94948]],[[643.81352,621.51625],[-19.21866,9.67308],[6.27464,-2.09154]],[[663.44032,612.89035],[-5.19544,4.3134],[0.73524,-0.61042]],[[667.78144,607.91669],[-0.09216,0.98906],[0.17808,-1.9113]],[[659.40614,602.05603],[1.27526,0.63516],[-8.55466,-4.26068]],[[632.35624,594.03389],[9.42782,1.5706],[-11.89292,-1.98302]],[[595.28078,594.69555],[11.76178,-3.53268],[-2.62298,0.78782]],[[587.64746,597.73509],[2.64084,-0.72574],[-4.04012,1.11028]],[[572.03776,603.08191],[1.87016,-4.61014],[-0.94024,2.31778]],[[571.43442,610.49839],[0.06708,-2.43402],[1.26512,2.38506]],[[575.43578,617.73987],[-1.73852,-2.09404],[1.23662,1.48948]],[[579.44872,621.33325],[-1.43018,-0.93502],[0,0]]],&quot;closed&quot;:true,&quot;fillColor&quot;:[0,0,0,1]}]}" fill="url(#color-1)"/></g><g stroke-width="0.5"><path d="M308.38343,242.60845c-0.67794,1.35587 -2.0338,0.67794 -2.0338,0.67794l-1.30374,-0.73884c-1.548,-1.55902 -2.48586,-3.65021 -4.31783,-4.81435c0,0 -0.34936,-0.2329 -0.55778,-0.63743c-4.87593,1.09987 -10.81181,0.15072 -16.03028,-0.89838c-0.48003,1.23402 -0.77041,2.44631 -1.11542,3.82637l-0.45488,1.81955c0,0 -0.36766,1.47065 -1.83831,1.10299c-1.47065,-0.36766 -1.10299,-1.83831 -1.10299,-1.83831l0.45488,-1.81955c0.33069,-1.32277 0.63742,-2.51768 1.06302,-3.70919c-0.58628,-0.122 -1.15705,-0.23988 -1.70921,-0.3502c0,0 -1.48646,-0.2973 -1.18918,-1.78378c0.03143,-0.15717 0.07617,-0.2944 0.13104,-0.41416c-1.07497,-0.42385 -2.05291,-0.98948 -2.832,-1.7912c-4.70444,-4.84108 4.67084,-7.66152 8.09621,-8.09963c7.06746,-0.90396 12.97216,0.16107 19.81639,1.90235c1.34158,0.66391 5.19661,1.92169 5.81435,3.43577c1.32717,3.25292 -2.87549,6.10994 -5.89205,7.51029c1.44567,1.3296 2.34537,2.96461 3.80787,4.41503l0.5158,0.17092c0,0 1.35587,0.67794 0.67794,2.0338zM288.52846,233.28768c0,0.17289 -0.01971,0.32605 -0.05465,0.46176c3.70179,0.5034 7.44879,0.73007 11.09036,0.30813c1.93774,-0.22454 3.24918,-1.37563 4.76831,-2.46226c0.7663,-0.54813 2.97181,-1.0596 2.26833,-1.68631c-0.96041,-0.8556 -3.02542,-1.4319 -4.19316,-2.02285c-6.79753,-1.66223 -13.0525,-3.07731 -20.03118,-1.31576c-0.84661,0.21371 -5.06758,1.01099 -5.22016,2.16844c-0.0957,0.72598 1.3363,0.60389 1.97428,0.96331c2.26103,1.27376 4.79047,1.47818 7.33986,2.11491l0.5421,-0.04526c0,0 1.51591,0 1.51591,1.51591z" fill="#6a3b18"/><path d="M288.48467,233.32961c0,-1.51591 -1.52924,-1.53752 -1.52924,-1.53752l-0.54257,0.04388c-2.5494,-0.63673 -5.08185,-0.86157 -7.34287,-2.13533c-0.63798,-0.35942 -2.06977,-0.24105 -1.97408,-0.96703c0.15259,-1.15745 4.37692,-1.97006 5.22352,-2.18377c6.97868,-1.76155 13.35011,-0.33802 20.14765,1.32421c1.16775,0.59095 3.23398,1.1789 4.19439,2.03451c0.70348,0.62671 -1.50252,1.14629 -2.26882,1.69442c-1.51914,1.08663 -2.83714,2.25846 -4.7749,2.483c-3.64157,0.42194 -7.48344,0.21127 -11.18523,-0.29213c0.03494,-0.1357 0.05214,-0.29135 0.05214,-0.46423z" data-paper-data="{&quot;noHover&quot;:false,&quot;origItem&quot;:[&quot;Path&quot;,{&quot;applyMatrix&quot;:true,&quot;segments&quot;:[[[623.26424,482.04065],[0,0],[0,0.28512]],[[623.17412,482.80217],[0.05762,-0.2238],[6.1049,0.8302]],[[641.46406,483.31033],[-6.00558,0.69586],[3.19568,-0.3703]],[[649.32784,479.24963],[-2.50532,1.79204],[1.26376,-0.90396]],[[653.06872,476.46861],[1.16016,1.03356],[-1.58388,-1.41104]],[[646.15346,473.13257],[1.92582,0.97458],[-11.21032,-2.7413]],[[613.11854,470.96265],[11.50906,-2.9051],[-1.3962,0.35244]],[[604.50958,474.53879],[0.25164,-1.90884],[-0.15782,1.19726]],[[607.76552,476.12745],[-1.05214,-0.59274],[3.72884,2.10066]],[[619.87024,479.61531],[-4.2044,-1.05008],[0,0]],[620.76426,479.54067],[[623.26426,482.04067],[0,-2.5],[0,0]]],&quot;closed&quot;:true,&quot;fillColor&quot;:[0,0,0,1]}]}" fill="url(#color-2)"/></g><path d="M189.99653,244.41731c-0.91755,0 -1.71966,-0.49431 -2.15454,-1.23117l-0.03296,-0.01883l-0.0179,-0.07156c-0.17957,-0.33536 -0.28488,-0.71646 -0.29396,-1.12131l-0.01583,-0.04748l-0.07137,-0.08326l-0.14019,-0.28038l-0.03856,-0.17349l-0.03154,-0.0368l-0.03308,-0.06616l-0.03246,-0.05101l-0.01391,-0.04174l-0.13132,-0.26265l-0.05386,-0.08079l-0.05313,-0.14877l-0.10281,-0.11995l-0.14019,-0.28038l-0.02345,-0.10551l-0.0309,-0.04635l-0.03895,-0.10907l-0.04234,-0.06653l-0.00329,-0.00986l-0.07136,-0.08326l-0.07059,-0.14118l-0.19405,-0.29108l-0.05313,-0.14877l-0.10281,-0.11994l-0.02885,-0.05772l-0.06361,-0.06361l-0.00194,-0.00323l-0.03003,-0.02731l-0.1402,-0.21029l-0.00674,-0.01887l-0.13346,-0.12132l-0.56077,-0.84116l-0.0008,-0.00224l-0.12356,-0.12356l-0.01583,-0.01439l-0.00288,-0.00432l-0.03525,-0.03525l-0.12655,-0.21091l-0.0062,-0.00682l-0.17961,-0.16328l-0.05392,-0.08088l-0.07842,-0.07129l-0.04598,-0.02759l-0.15634,-0.15633l-0.01583,-0.01439l-0.00288,-0.00431l-0.03525,-0.03525l-0.12655,-0.21091l-0.0062,-0.00682l-0.17961,-0.16328l-0.05392,-0.08088l-0.07842,-0.07129l-0.04598,-0.02759l-0.14019,-0.14019l-0.00194,-0.00323l-0.03003,-0.02731l-0.1402,-0.21029l-0.0078,-0.02184l-0.02535,-0.02788l0.00027,-0.00386l-0.33379,-0.2861l-0.00176,-0.03154l-0.20854,-0.17874l-0.00526,-0.09463l-0.01333,-0.01143l-0.0726,-0.04148l-0.0066,-0.0264l-0.0424,-0.03635l-0.00692,-0.12453l-0.13284,-0.15498l-0.32245,-0.64489l-0.16823,-0.19627l-0.42058,-0.84116l-0.27951,-1.25779l0.27456,-0.41184l-0.04948,-0.18141l0.1733,-0.28884l0.02087,-0.3757l0.42113,-0.36096l0.04762,-0.07936l0.02485,-0.02485l0.0055,-0.02754l0.06058,-0.03855l0.04925,-0.04926l0.22778,-0.13667l0.14156,-0.12134l0.1402,-0.0701l0.05256,-0.01168l0.15971,-0.10164l0.04926,-0.04925l0.03306,-0.01984l0.19609,-0.16808l0.28038,-0.14019l0.05256,-0.01168l0.4151,-0.26415l0.06609,-0.02203l0.06157,-0.03694l0.02709,0.00738l0.09728,-0.03242l0.11577,-0.05788l0.01394,-0.02438l0.06966,-0.01741l0.06231,-0.03115l0.54494,-0.1211l0.133,-0.08463l0.42058,-0.1402l0.09774,-0.00752l0.0865,-0.04613l0.28038,-0.07009h0.14041l0.02585,-0.01645l0.21029,-0.07009l0.19819,-0.01525l0.1718,-0.04295h0.06966l0.0701,-0.01558l0.01711,0.01141l0.26371,-0.06593h0.35048l0.28039,-0.0701h0.49067l0.28039,-0.0701h0.56077l1.25,0.3125l0.04898,0.08571l0.09857,0.00548l0.83853,0.97828l0.21029,0.42058l0.03904,0.17566l0.09661,0.15181l0.11696,0.35088l0.11291,0.28227l0.03665,0.26874l0.10815,0.24874l0.13357,0.8014l0.06219,0.31095l-0.01184,0.24872l0.06039,0.24157v0.42058l0.0701,0.28038v3.57494l-0.06039,0.24157l0.01184,0.24872l-0.02155,0.10774v0.59361l-0.0701,0.28038v1.54213l0.0701,0.28038v0.06966l0.01557,0.07009l-0.01557,0.02337v0.39765l-0.0701,0.28039l0.0701,0.28039v0.35048c0,0.42612 -0.10661,0.82734 -0.29461,1.17844l-0.01789,0.07156l-0.03296,0.01883c-0.43488,0.73685 -1.23699,1.23117 -2.15454,1.23117z" fill-opacity="0.50196" fill="#000000" stroke-width="0.5"/><path d="M261.68325,216.46649c-0.09062,-0.07295 -0.09062,-0.20005 -0.09062,-0.20005c0.03025,-2.42535 0.77451,-4.82499 0.80464,-7.23905c1.13364,-2.26728 1.40195,-5.20277 2.22944,-7.63913c0.03406,-2.33389 1.69332,-5.16867 2.73761,-7.25724c0.93303,-1.7364 3.69599,-4.5664 5.9689,-4.60676c2.67789,0.06842 5.08653,-1.06407 7.71783,0.32587c2.23543,0 5.81869,2.34867 7.858,3.36368c2.28389,0.77578 5.02192,1.64803 6.75356,3.37967c3.10744,1.55372 3.13606,4.37791 3.13606,7.54402c0,2.94199 -0.96424,5.71467 -0.96424,8.51578c-1.08487,2.25522 -1.11443,4.94192 -2.23428,7.18162c0,2.15283 -1.91794,5.44675 -2.89235,7.39557c-1.13653,2.27305 -2.74163,4.36611 -3.83019,6.54325c-1.08447,2.01823 -5.24995,3.64921 -7.40522,3.64921c-2.6778,-0.0197 -5.61736,0.36314 -8.09138,-0.82435c-2.25459,-1.1273 -4.54706,-2.46044 -6.70284,-3.51101c-2.44612,-1.22306 -4.15755,-3.04118 -5.35752,-5.50354c-1.66505,-1.66505 -1.8269,-6.06166 -0.81875,-8.07796c0.39249,-0.78498 0.85933,-1.92639 1.18137,-3.03957z" fill="#f2f2f2" stroke-width="0.5"/><path d="M193.93084,241.10656c2.51436,-0.35692 7.30023,-3.03198 9.57856,-2.41337c2.18707,0.59384 8.09002,7.40985 8.70397,9.61808c0.31698,1.1401 1.05382,2.55655 0.38039,3.52958c-0.13929,0.20126 -0.31697,0.35351 -0.52168,0.46948c0.09807,0.22106 0.15798,0.49117 0.15798,0.82118c0,1.81775 -1.81775,1.81774 -1.81775,1.81774h-1.22706c-8.91385,-0.00522 -14.97689,-2.08431 -17.56321,-11.13482c0,0 -0.49937,-1.74781 1.24844,-2.24719c0.02626,-0.00751 0.05224,-0.0145 0.07794,-0.021c0.44539,-0.36297 0.9824,-0.43968 0.9824,-0.43968z" fill="#bb5a4c" stroke-width="0.5"/><path d="M271.31191,222.28618c3.70403,2.1039 6.79769,6.65094 1.11021,8.99732c-6.21618,2.56449 -14.9975,-7.39052 -6.00913,-9.98529c1.44002,-0.41571 1.96582,-0.3216 3.41593,-0.3269c0,0 1.3709,0 1.48299,1.31487z" data-paper-data="{&quot;index&quot;:null}" fill="#d59038" stroke-width="0.5"/><path d="M219.14348,197.31153c-0.07977,-1.4857 -0.26293,-4.4785 -1.03673,-5.72693c-0.29857,-2.62145 -2.07638,-7.50567 -4.58652,-8.75161c-3.32193,-1.68543 -6.14782,-2.00448 -9.90737,-2.00441c-3.6157,0.00457 -6.65197,1.17631 -10.00411,1.61193c-0.38143,0.60937 -0.95801,0.71249 -1.53276,0.96787c-0.31273,0.13896 -0.49935,0.93766 -0.66803,1.1942c-1.19103,1.81139 -2.32595,4.03883 -2.28131,6.2253c0,3.06286 0.51733,5.85697 0.51733,8.89191c0,0 0,0.25 -0.25,0.25c-0.25,0 -0.25,-0.25 -0.25,-0.25c0,-3.03233 -0.51733,-5.82803 -0.51733,-8.89191c0.04029,-2.57314 1.33625,-5.25511 2.81174,-7.39256c0.52544,-0.76116 1.39913,-0.61377 1.89016,-1.40893c3.4935,-0.74381 6.53829,-1.69309 10.28399,-1.69782c3.84658,-0.00007 6.72452,0.35686 10.13199,2.05754c2.60545,1.31344 4.56061,6.28206 4.83547,9.03714c0.80772,1.3289 0.94772,4.2878 1.06244,5.85616l0.0062,0.09634c0,0 0.0039,0.06063 -0.02203,0.12404c2.18811,0.82981 3.90216,2.52834 3.90252,5.28275c-0.04204,3.39443 1.03467,6.82229 1.03467,10.3287c0,3.46617 0.79079,6.89201 1.02901,10.30672c0.02872,3.11895 0.92254,8.47386 -3.65952,8.61996c-1.93149,0.01706 -3.30651,0.88643 -4.99288,1.53882c-1.53795,0.59498 -2.21501,2.51219 -3.85464,2.84096c-2.9944,1.36272 -6.83411,1.96766 -9.60656,3.60766c-3.4571,0.18612 -6.23999,2.68328 -9.93786,2.61608c-1.15369,0.64718 -2.6596,0.62499 -3.90412,1.10551c-0.01576,0.07351 -0.49133,-0.33385 -0.49133,-0.33385c0.00075,-0.00034 0.00151,-0.00068 0.00226,-0.00101c0.07256,-2.53723 1.05543,-6.32624 0.06231,-8.57605c-0.32843,-3.43294 -0.58194,-7.05036 -0.58376,-10.44884c-0.00029,-3.48762 -0.9546,-6.83976 -1.27967,-10.27704c-0.07092,-3.50212 -0.0137,-7.01061 -0.0137,-10.51345c0,-3.83603 4.92283,-5.14636 8.08831,-5.16075c3.34363,0.05934 6.98884,-0.40517 10.32086,-0.75707c3.41187,-0.09379 6.88072,-0.79513 10.36509,-0.7957c1.01743,-0.00004 2.06336,0.14494 3.03728,0.45013zM189.65472,243.21874c1.22959,-0.40112 2.65193,-0.44404 3.76055,-1.06113c3.63939,-0.05311 6.51174,-2.46939 9.91962,-2.61096c2.74607,-1.65166 6.62134,-2.25233 9.60593,-3.60747c1.58445,-0.18031 2.329,-2.18774 3.80961,-2.82493c1.69106,-0.72775 3.20922,-1.55899 5.17279,-1.57622c4.17213,-0.12925 3.19478,-5.29935 3.16989,-8.10261c-0.17008,-3.42001 -1.02932,-6.85158 -1.02932,-10.32418c0,-3.52759 -1.00021,-6.90149 -1.03467,-10.32867c-0.00051,-3.86905 -3.65075,-5.39954 -6.92149,-5.3994c-3.47449,0.00057 -6.92989,0.70328 -10.33317,0.79468c-3.38152,0.32404 -6.96027,0.7044 -10.35141,0.75809c-2.88611,0.01305 -7.58974,1.1431 -7.58974,4.66075c0,3.49388 -0.05581,6.99314 0.01297,10.48634c0.28192,3.45 1.28012,6.803 1.28041,10.304c0.00179,3.36943 0.28477,6.91659 0.56813,10.32498c0.97923,2.26841 0.07049,5.91567 -0.04012,8.5067z" fill="#bb5a4c" stroke-width="0.5"/><path d="M189.62507,243.259c0.11061,-2.59103 1.01101,-6.24603 0.03178,-8.51444c-0.28336,-3.40839 -0.57705,-6.97665 -0.57884,-10.34608c-0.00029,-3.501 -0.99725,-6.88124 -1.27917,-10.33124c-0.06878,-3.4932 -0.0028,-7.00999 -0.0028,-10.50387c0,-3.51765 4.71787,-4.65875 7.60398,-4.6718c3.39114,-0.05369 6.99126,-0.43964 10.37278,-0.76368c3.40328,-0.0914 6.87966,-0.79026 10.35415,-0.79083c3.27074,-0.00014 6.93597,1.54009 6.93648,5.40914c0.03446,3.42718 1.04664,6.81851 1.04664,10.3461c0,3.4726 0.86227,6.93144 1.03235,10.35145c0.02489,2.80326 0.99334,7.9945 -3.17879,8.12375c-1.96357,0.01723 -3.49092,0.85807 -5.18198,1.58582c-1.48061,0.63719 -2.23736,2.6518 -3.82181,2.83211c-2.98459,1.35514 -6.88701,1.9589 -9.63308,3.61056c-3.40788,0.14157 -6.29779,2.55141 -9.93718,2.60452c-1.10862,0.61709 -2.53489,0.6574 -3.76448,1.05852z" data-paper-data="{&quot;noHover&quot;:false,&quot;origItem&quot;:[&quot;Path&quot;,{&quot;applyMatrix&quot;:true,&quot;segments&quot;:[[[189.65471,243.21844],[0,0],[1.22959,-0.40112]],[[193.41526,242.15732],[-1.10862,0.61709],[3.63939,-0.05311]],[[203.33488,239.54635],[-3.40788,0.14157],[2.74607,-1.65166]],[[212.94081,235.93888],[-2.98459,1.35514],[1.58445,-0.18031]],[[216.75042,233.11395],[-1.48061,0.63719],[1.69106,-0.72775]],[[221.92321,231.53773],[-1.96357,0.01723],[4.17213,-0.12925]],[[225.0931,223.43512],[0.02489,2.80326],[-0.17008,-3.42001]],[[224.06378,213.11094],[0,3.4726],[0,-3.52759]],[[223.02911,202.78227],[0.03446,3.42718],[-0.00051,-3.86905]],[[216.10762,197.38287],[3.27074,-0.00014],[-3.47449,0.00057]],[[205.77445,198.17755],[3.40328,-0.0914],[-3.38152,0.32404]],[[195.42304,198.93564],[3.39114,-0.05369],[-2.88611,0.01305]],[[187.8333,203.59639],[0,-3.51765],[0,3.49388]],[[187.84627,214.08273],[-0.06878,-3.4932],[0.28192,3.45]],[[189.12668,224.38674],[-0.00029,-3.501],[0.00179,3.36943]],[[189.69481,234.71171],[-0.28336,-3.40839],[0.97923,2.26841]],[[189.65469,243.21842],[0.11061,-2.59103],[0,0]]],&quot;closed&quot;:true,&quot;fillColor&quot;:[0,0,0,1]}]}" fill="#e25d4a" stroke-width="0.5"/><path d="M189.54497,200.20402l-0.52704,-7.161c0,0 -0.12534,-2.76793 0.09839,-3.38527c0.24629,-0.67958 0.71699,-3.16547 1.22631,-4.02758c1.53567,-2.59942 4.07843,-3.88602 7.14261,-4.28742c1.38294,-0.18117 5.08937,-0.69542 6.29538,-0.78161c0.89839,-0.0642 4.32022,0.30153 4.84148,0.29594c1.36512,-0.01463 4.73854,1.59174 4.73854,1.59174l1.86683,1.30819l2.27862,3.72899l1.34007,4.74619l0.68921,5.29609z" fill="#e5dcaa" stroke-width="0"/><path d="M203.0981,190.3781c-0.88388,0.88388 -1.76777,0 -1.76777,0l0.04882,-0.24808c-2.53315,-0.51286 -2.71541,-0.10797 -4.39552,1.72579c0,0 -0.84466,0.92144 -1.7661,0.07679c-0.92144,-0.84466 -0.07679,-1.7661 -0.07679,-1.7661c2.19742,-2.39593 3.40483,-3.14554 6.7287,-2.48793l1.22866,0.93176c0,0 0.88388,0.88388 0,1.76777z" fill="#000000" stroke-width="0.5"/><path d="M213.57817,190.27965c-0.88388,0.88388 -1.76777,0 -1.76777,0l-0.18078,-0.2715c-1.59586,-0.80158 -2.86459,-1.56982 -4.16244,-0.02437c0,0 -0.84084,0.92493 -1.76577,0.08408c-0.92493,-0.84084 -0.08408,-1.76577 -0.08408,-1.76577c2.26009,-2.36938 4.42721,-1.87607 7.13033,-0.53002l0.83051,0.7398c0,0 0.88388,0.88388 0,1.76777z" fill="#000000" stroke-width="0.5"/><path d="M177.55061,193.80236c5.03962,-0.62139 10.47093,5.06183 8.05317,9.90514c-0.82916,1.66099 -2.17802,2.43035 -3.77724,3.17051c-3.98057,0.62359 -10.72705,-1.93191 -10.96082,-6.70179c-0.20835,-4.25109 3.17529,-6.41291 6.6849,-6.37386z" fill="#e5dcaa" stroke-width="0.5"/><path d="M231.99819,190.01941c0.38748,0.29472 0.74949,0.63708 1.07467,1.02211c1.37944,1.63333 1.84049,3.70578 1.84049,5.76643c-0.56567,1.73318 -0.32072,1.94595 -1.93182,3.01366c-7.38656,4.89524 -15.25583,-7.97197 -6.50517,-10.81863c1.6143,-0.52515 2.95403,-0.29644 4.5597,0.06953c0,0 0.83247,0.19211 0.96213,0.9469z" fill="#e5dcaa" stroke-width="0.5"/><path d="M273.12584,189.07187c0.07207,0.03807 -0.4808,-4.8265 -0.02359,-5.77695c0.57895,-1.7046 1.37207,-3.27143 2.60766,-4.54967c0.4962,-0.51333 1.43356,-0.95202 1.75551,-1.59591c2.21228,-1.18874 5.26468,-1.98 7.62979,-0.84479c2.29477,1.14738 4.56717,2.36338 6.86243,3.51101c2.14959,1.0748 5.20391,2.15457 6.33587,4.26118c1.0308,2.32385 2.71711,5.46707 1.29644,8.30841c0,2.46033 -1.2622,5.73908 -4.23253,5.77826c-2.39064,0 -5.32664,-1.83557 -7.45358,-2.89904c-2.41538,-1.20769 -4.94148,-2.09281 -7.28684,-3.33171c-1.85109,-0.40018 -4.08259,-0.80749 -6.01265,-1.63748c-0.07048,0.04825 -0.65553,-0.12881 -0.85503,-0.37925c-0.3007,-0.13729 -0.62348,-0.84406 -0.62348,-0.84406z" fill="#d59038" stroke-width="0.5"/><path d="M285.18517,169.93119h-0.03853l0.03371,0.00728zM296.91355,177.3243l-0.0991,-0.02445l0.04247,0.01467zM305.29934,186.28118l-0.00212,0.03291l-0.05692,0.04213c-0.24707,0.30028 -0.58084,0.54364 -0.9698,0.70286l-0.02626,0.01134l-0.01393,0.02105l-0.06966,0.01504l-0.06231,0.0269l-0.08691,0.01667c-0.1679,0.04966 -0.34387,0.08432 -0.52576,0.10214l-0.50537,0.1091h-0.06966l-0.07009,0.01345l-0.02336,-0.01345h-0.609l-0.44121,0.09524h-0.06966l-0.07009,0.01345l-0.02336,-0.01345h-0.55618l-0.02336,0.01345l-0.07009,-0.01345h-0.06966l-0.55728,-0.1203l-0.44294,-0.085l-0.01095,-0.00073l-0.01432,-0.00412l-0.09254,-0.01775l-0.06169,-0.02664l-0.00184,-0.00053l-0.06843,-0.01477l-0.00403,-0.00608l-0.41896,-0.12059l-0.15181,-0.08342l-0.05784,-0.0111l-0.01095,-0.00073l-0.01432,-0.00412l-0.09254,-0.01775l-0.06169,-0.02664l-0.49326,-0.14198l-0.15181,-0.08342l-0.17566,-0.0337l-0.04412,-0.01905l-0.39709,-0.0762l-0.06231,-0.0269l-0.06546,-0.01414l-0.07893,0.01859l-0.27545,-0.14271l-0.31164,-0.06728l-0.09485,-0.14332l-0.0916,-0.04746l-0.56401,-0.24351l-0.30513,-0.22584l-0.01328,-0.00688l-0.3434,-0.14826l-0.30513,-0.22584l-0.01328,-0.00688l-0.1228,-0.05302l-0.04776,-0.03534l-0.16077,-0.08329l-0.15434,-0.13327l-0.07835,-0.03382l-0.04776,-0.03534l-0.16077,-0.08329l-0.15434,-0.13327l-0.29895,-0.12907l-0.15498,-0.11471l-0.12453,-0.00598l-0.32251,-0.3249l-0.1701,-0.1259l-0.2206,-0.09524l-0.30513,-0.22584l-0.01328,-0.00688l-0.56401,-0.24351l-0.11994,-0.08878l-0.14877,-0.04588l-0.53231,-0.30643l-0.08139,-0.03514l-0.23866,-0.17665l-0.2671,-0.14677l-0.31447,-0.09698l-0.05234,-0.03013l-0.01329,-0.00383l-0.21007,-0.11543l-0.2397,-0.05822l-0.55718,-0.27493l-0.75787,-0.21814l-0.15181,-0.08342l-0.17566,-0.0337l-0.2206,-0.09524l-0.11994,-0.08878l-0.14877,-0.04588l-0.14197,-0.08173l-0.36143,-0.06936l-0.04412,-0.01905l-0.39709,-0.0762l-0.06231,-0.0269l-0.06966,-0.01504l-0.01393,-0.02105l-0.11883,-0.0513l-0.39709,-0.0762l-0.06231,-0.0269l-0.06966,-0.01504l-0.01393,-0.02105l-0.56004,-0.2418l-0.39709,-0.0762l-0.06231,-0.0269l-0.06966,-0.01504l-0.01393,-0.02105l-0.95712,-0.41324l-0.15498,-0.11471l-0.12453,-0.00598l-0.24818,-0.25002l-0.24443,-0.10553l-0.30513,-0.22584l-0.01328,-0.00688l-0.3434,-0.14826l-0.30513,-0.22584l-0.34461,-0.17854l-0.15434,-0.13327l-0.29895,-0.12907l-0.29477,-0.21817l-0.02223,0.00523l-0.06157,-0.0319l-0.06609,-0.01902l-0.44774,-0.24604l-0.32093,-0.06159l-0.06231,-0.0269l-0.06966,-0.01504l-0.01393,-0.02105l-0.42926,-0.18533h-0.01883l-0.02336,0.01345l-0.07009,-0.01345h-0.06966l-0.44121,-0.09524h-0.43601l-0.05292,0.00351l-0.26473,0.0762l-0.32467,0.02156l-0.30925,0.13352l-0.16755,0.1688l-0.00797,0.01147l-0.08346,0.14414l-0.08824,0.34289l-0.03115,0.05381l-0.01742,0.06015l-0.02438,0.01203l-0.1785,0.30827l-0.00254,0.00657l0.00739,0.02339l-0.03694,0.05317l-0.02203,0.05707l-0.3084,0.41848l-0.00048,0.00069l-0.13233,0.3428l-0.09661,0.13109l-0.03903,0.15168l-0.25145,0.43426l-0.16442,0.42593l-0.09661,0.13109l-0.03903,0.15168l-0.58236,1.00574l-0.05412,0.14019l-0.09661,0.13109l-0.03903,0.15168l-0.2206,0.38099l-0.10281,0.10357l-0.05313,0.12846l-0.13427,0.17391l-0.151,0.26078l-0.26154,0.26348l-0.20676,0.29757l-0.04404,0.03803l-0.03917,0.06766l-0.26154,0.26348l-0.20676,0.29757l-0.04556,0.03934l-0.08329,0.10788l-0.18425,0.14464l-0.12811,0.18438l-0.33091,0.28574l-0.01497,0.00775l-0.04466,0.04242l-0.42089,0.42402l-0.03826,0.00184l-0.09746,0.05611l-0.04556,0.03934l-0.11247,0.05827l-0.00019,0.00302l-0.49104,0.36344l-0.47854,0.37566l-0.03501,-0.00208l-0.25354,0.1642l-0.06547,0.02381l-0.04778,0.04539l-0.66181,0.38099l-0.14877,0.04588l-0.11994,0.08878l-0.44121,0.19049l-0.17566,0.0337l-0.15181,0.08342l-0.16235,0.04673l-0.2823,0.12188l-0.10356,0.01987l-0.086,0.05363l-1.10302,0.38099l-0.1704,0.02007l-0.15174,0.06988l-0.34806,0.07514l-0.57073,0.16427l-0.40069,0.02661l-0.38988,0.08417h-0.32571l-0.16683,0.01108l-0.38988,0.08417h-0.21541l-0.16683,0.01108l-0.38988,0.08417h-1.43393l-0.38988,-0.08417l-0.16683,-0.01108h-0.10511l-0.04671,-0.01009l-0.08204,-0.00545l-0.17039,-0.04905l-0.09073,-0.01958l-0.40069,-0.02661l-0.33091,-0.09524l-0.10812,-0.05942l-0.0204,-0.0044l-0.00708,-0.0107l-0.01621,-0.0089l-0.05784,-0.0111l-0.01095,-0.00073l-0.01432,-0.00412l-0.09254,-0.01775l-0.06169,-0.02664l-0.09617,-0.02768l-0.28679,-0.01905l-0.33091,-0.09524l-0.10812,-0.05942l-0.0204,-0.0044l-0.00708,-0.0107l-0.01621,-0.0089l-0.05784,-0.0111l-0.01095,-0.00073l-0.01432,-0.00412l-0.09254,-0.01775l-0.06169,-0.02664l-0.49326,-0.14198l-0.15181,-0.08342l-0.05784,-0.0111l-0.01095,-0.00073l-0.01432,-0.00412l-0.09254,-0.01775l-0.06169,-0.02664l-0.16235,-0.04673l-0.08435,-0.04635l-0.0086,0.00203l-0.08522,-0.04415l-0.1493,-0.02865l-0.2206,-0.09524l-0.30513,-0.22584l-0.01328,-0.00688l-0.1228,-0.05302l-0.04776,-0.03534l-0.15786,-0.08179l-0.07389,-0.00355l-0.28127,-0.28336l-0.04964,-0.00238l-0.16978,-0.17104l-0.19808,-0.14661l-0.00276,-0.04286l-0.32815,-0.24288l-0.00692,-0.10753l-0.13284,-0.13383l-0.72321,-1.249l-0.05496,-0.0791l-0.16598,-0.0819l-0.07791,-0.2691l-0.0768,-0.11052l-0.11447,-0.11532l-0.2206,-0.38099l-0.03903,-0.15168l-0.09661,-0.13109l-0.05412,-0.14019l-0.0682,-0.11778l-0.02438,-0.01203l-0.01742,-0.06015l-0.03115,-0.05381l-0.08824,-0.34289l-0.13236,-0.2286l-0.03903,-0.15168l-0.01031,-0.014l-0.01239,-0.00611l-0.0051,-0.01762l-0.06881,-0.09336l-0.1103,-0.28574l-0.03082,-0.346l-0.09747,-0.33666v-0.3765l-0.01283,-0.14406l-0.09747,-0.33666v-1.4287l0.09747,-0.33666l0.00883,-0.09915l-0.01158,-0.01499l0.01558,-0.06052v-0.06015l0.01168,-0.04033l0.00631,-0.07084l0.0568,-0.14713l0.06453,-0.2229l0.09843,-0.38248l0.00084,-0.00946l0.00477,-0.01237l0.02056,-0.07991l0.03085,-0.05327l0.00061,-0.00159l0.01711,-0.05909l0.00704,-0.00348l0.02935,-0.07604l0.17927,-0.24327l0.11231,-0.27155l0.03489,-0.0452l0.00443,-0.01148l0.17927,-0.24327l0.11231,-0.27155l0.2555,-0.33094l0.00443,-0.01148l0.21576,-0.29277l0.15595,-0.31983l0.19565,-0.22526l0.11979,-0.20688l0.10281,-0.10357l0.05313,-0.12846l0.44121,-0.57148l0.05256,-0.04126l0.02757,-0.05653l0.28927,-0.33305l0.18211,-0.23588l0.05256,-0.04126l0.02757,-0.05653l0.33091,-0.38099l0.13965,-0.09798l0.09258,-0.13324l0.48677,-0.42033l0.08329,-0.10788l0.18425,-0.14464l0.12811,-0.18438l0.66181,-0.57148l0.20915,-0.10836l0.01169,-0.01514l0.00213,-0.03304l0.49104,-0.36344l0.47854,-0.37566l0.03823,0.00228l0.21005,-0.09069l0.26087,-0.16895l0.20943,-0.07614l0.17253,-0.1277l0.20432,-0.08822l0.3447,-0.23812l0.10057,-0.0398l0.07442,-0.07069l0.66181,-0.38099l0.14877,-0.04588l0.11994,-0.08878l1.32363,-0.57148l0.07338,-0.01408l0.05985,-0.03928l0.70459,-0.26075l0.5961,-0.25737l0.13032,-0.02501l0.1099,-0.06545l0.88242,-0.28574l0.10204,-0.01007l0.08896,-0.04432l0.67534,-0.16662l0.78818,-0.25523l0.04718,-0.00465l0.04006,-0.02201l0.66181,-0.19049l0.22657,-0.01505l0.21045,-0.07404l0.47544,-0.05865l0.27326,-0.09438l0.29717,-0.03499l0.27775,-0.09771l0.60306,-0.07439l0.60792,-0.14998l0.19488,-0.00561l0.18184,-0.06078l0.73262,-0.07908l1.61838,-0.34937h0.20483l0.1939,-0.057l1.31426,-0.09457l1.20396,-0.09451l0.00956,0.00129l0.00916,-0.00269l1.32363,-0.09524l0.01503,0.00212l0.01447,-0.00409l1.52948,-0.09434l1.30889,-0.09418l0.1047,0.01476l0.10292,-0.02222h1.44024l1.22,-0.08779l0.1047,0.01476l0.10292,-0.02222h1.44822l1.3382,-0.08889l0.09664,0.01417l0.0951,-0.02053h2.97816l0.11213,0.0242l0.11421,-0.01534l1.10039,0.08639h0.76902l0.15326,0.03308l0.15683,-0.01642l0.88242,0.09524l0.14296,0.04779h0.15329l0.44121,0.09524l0.15174,0.06988l0.1704,0.02007l0.39398,0.13608l0.27661,0.05971l0.08649,0.03983l0.09774,0.00649l0.66181,0.19049l0.06342,0.03485l0.07449,0.00877l0.55151,0.19049l0.26746,0.1668l0.30406,0.11055l0.17669,0.11443l0.24451,0.08445l0.1641,0.10234l0.19366,0.0509l1.10302,0.57148l0.0431,0.03722l0.05741,0.0177l0.59017,0.33975l0.63711,0.31437l0.59975,0.25894l0.05393,0.03992l0.06838,0.01661l0.77212,0.38099l0.06353,0.05258l0.08287,0.02556l0.53231,0.30643l0.74321,0.32088l0.05393,0.03992l0.06838,0.01661l0.77212,0.38099l0.06353,0.05258l0.08287,0.02556l0.61231,0.35249l0.5005,0.25931l0.0431,0.03722l0.05741,0.0177l0.66181,0.38099l0.04778,0.04539l0.06547,0.02381l0.44121,0.28574l0.11347,0.12059l0.1543,0.07994l0.77212,0.66673l0.09258,0.13324l0.13965,0.09798l0.11662,0.13427l0.15549,0.1007l0.30346,0.3225l0.34028,0.29383l0.33091,0.47623l0.02854,0.08098l0.06379,0.06427l0.17767,0.30683l0.28151,0.40514l0.02854,0.08098l0.06379,0.06427l0.55151,0.95247l0.03903,0.15168l0.09661,0.13109l0.44121,1.14296l0.03082,0.346l0.09747,0.33666v1.52395l-0.07464,0.25782v0.26575l-0.1103,0.38099l-0.04613,0.07468l-0.00752,0.0844l-0.07994,0.20709l-0.08702,0.30055l-0.04613,0.07468l-0.00752,0.0844l-0.1103,0.28574l-0.17927,0.24327l-0.11231,0.27155l-0.11638,0.15074l0.02572,0.08145l-0.16527,0.23785l-0.07791,0.2691l-0.16598,0.0819l-0.05496,0.0791l-0.0614,0.10604l-0.04093,0.04124l-0.09646,0.13883l-0.16545,0.14287l-0.16545,0.23812l-0.66181,0.57148l-0.21352,0.11062l-0.1675,0.1591l-0.27317,0.15725l-0.3857,0.24979l-0.20943,0.07614l-0.17253,0.1277l-0.44121,0.19049l-0.32597,0.06255l-0.30178,0.12344l-0.23183,0.04004c-0.0655,0.15788 -0.1517,0.30726 -0.25577,0.4457z" fill="#f2f2f2" stroke-width="0.5"/><path d="M282.79807,187.01395c-1.57463,-0.78732 0.38376,-4.95262 1.54381,-4.63624c0.10014,-0.02585 0.20514,-0.0396 0.31335,-0.0396c0.69036,0 1.25,0.55964 1.25,1.25c0,0.45649 -0.2447,0.85583 -0.61008,1.074c0.00977,1.62073 -0.6541,3.27332 -2.49707,2.35183z" fill="#000000" stroke-width="0.5"/><path d="M290.28049,189.88643c-2.22155,0.12342 -0.69862,-5.06272 0.18571,-5.11185c0.19566,-0.12701 0.42907,-0.20078 0.67972,-0.20078c0.69036,0 1.25,0.55964 1.25,1.25c0,0.37195 -0.16245,0.70595 -0.42028,0.93493c0.18922,1.44255 -0.12599,3.04053 -1.69515,3.12771z" fill="#000000" stroke-width="0.5"/><path d="M287.6597,225.01751c3.70403,2.1039 6.79768,6.65094 1.11021,8.99731c-6.21617,2.56449 -14.9975,-7.39052 -6.00913,-9.98528c1.44002,-0.4157 1.96582,-0.3216 3.41593,-0.3269c0,0 1.37091,0 1.48299,1.31487z" fill="#d59038" stroke-width="0.5"/><path d="M190.01451,190.40335c-0.91755,0 -1.71966,-0.49431 -2.15454,-1.23116l-0.03296,-0.01884l-0.01789,-0.07156c-0.08154,-0.15229 -0.14777,-0.314 -0.19663,-0.48308l-0.51134,-0.29219l-0.02988,-0.11951l-0.01869,-0.01246l0.00283,-0.05098l-0.26676,-1.06706v-0.32079l-0.01558,-0.02336l0.01558,-0.0701v-0.06966l0.12098,-0.48391v-2.49839l-0.01558,-0.02337l0.01558,-0.07009v-0.06966l0.12098,-0.48391v-0.24195l0.07465,-0.29857v-0.30777l0.3485,-1.39401l0.10931,-0.54655l0.06763,-0.14277l0.01212,-0.15751l0.12098,-0.36294l0.17927,-0.28171l0.11231,-0.31447l0.00175,-0.00262l0.01595,-0.06381l0.20134,-0.3775l0.1439,-0.40291l0.2982,-0.44729l0.01511,-0.04532l0.17928,-0.28172l0.11231,-0.31446l0.72586,-1.0888l0.18425,-0.1675l0.12811,-0.21352l0.06692,-0.06691l0.34659,-0.51989l0.18425,-0.1675l0.12811,-0.21352l0.72586,-0.72586l0.30245,-0.18147l0.18147,-0.18147l0.14298,-0.08579l0.02285,-0.01958l0.05874,-0.02938l0.00052,-0.0003l0.02802,-0.14007l0.271,-0.17246l0.20906,-0.2439l0.19088,-0.0106l0.28286,-0.18l0.14194,-0.15614l0.36293,-0.24195l0.14878,-0.05313l0.11994,-0.10281l0.10274,-0.05137l0.23343,-0.15562l0.31446,-0.11231l0.28172,-0.17927l0.04531,-0.01511l0.08437,-0.05624l0.14877,-0.05313l0.11995,-0.10281l0.24196,-0.12098l0.17565,-0.03903l0.15181,-0.09661l0.19438,-0.0648l0.08304,-0.04152l0.17566,-0.03903l0.1518,-0.09661l0.13892,-0.0463l0.00654,-0.01144l0.06966,-0.01741l0.0623,-0.03115l0.56076,-0.12461l0.55728,-0.13932h0.06966l0.07009,-0.01558l0.01187,0.00791l0.28221,-0.07055l0.10634,-0.03545l0.05121,-0.00394l0.0135,-0.00338h0.03038l0.06008,-0.00462l0.0493,-0.01095l0.00964,0.00642l0.1866,-0.01435l0.38988,-0.09746h3.38737l0.24157,0.06039l0.24872,-0.01185l0.36214,0.07243h0.96223l0.24157,0.06039l0.24872,-0.01184l0.36214,0.07243h0.23636l0.24157,0.06039l0.24872,-0.01184l0.36214,0.07243h0.23637l0.29857,0.07465h0.30776l0.18534,0.04633h0.17614l0.29857,0.07464h0.30777l0.18534,0.04633h0.17614l0.29857,0.07465h0.30776l0.48391,0.12097l0.08649,0.04613l0.00266,0.0002h0.03038l0.0135,0.00338l0.0512,0.00394l0.10634,0.03545l0.21883,0.05471l0.4007,0.03082l0.63478,0.21159l0.39077,0.09769l0.08649,0.04613l0.09774,0.00752l0.99771,0.33257l0.87467,0.21867l0.24293,0.12956l0.26877,0.05972l0.23845,0.11923l0.21767,0.05442l0.3775,0.20134l0.40291,0.14389l0.00263,0.00176l0.0638,0.01595l0.24293,0.12956l0.26876,0.05972l0.325,0.1625l0.19438,0.06479l0.15181,0.09661l0.17566,0.03904l0.325,0.1625l0.19438,0.06479l0.28172,0.17928l0.31446,0.11231l0.23343,0.15562l0.10274,0.05137l0.11995,0.10281l0.14877,0.05313l0.23343,0.15562l0.10274,0.05137l0.11995,0.10281l0.14878,0.05313l0.23342,0.15562l0.10274,0.05137l0.30513,0.26153l0.34461,0.20677l0.06691,0.06691l0.02746,0.01831l0.10274,0.05137l0.15498,0.13284l0.12453,0.00692l0.32251,0.37626l0.12301,0.10544l0.0276,0.01839l0.02164,0.02381l0.20401,0.17487l0.00118,0.02117l0.15419,0.09251l0.42342,0.42342l0.30245,0.18147l0.72586,0.72586l0.09251,0.15419l0.02117,0.00118l0.17486,0.20401l0.02381,0.02164l0.01839,0.0276l0.10544,0.12301l0.37626,0.32251l0.00466,0.08396l0.02973,0.02972l0.08578,0.14297l0.01958,0.02285l0.02937,0.05875l0.07202,0.12003l0.26154,0.30513l0.48391,0.96782l0.03903,0.17566l0.09661,0.15181l0.18577,0.55731l0.04152,0.08304l0.03904,0.17565l0.09661,0.15181l0.12098,0.36293l0.03082,0.40069l0.09747,0.38988v0.8047l0.01557,0.02336l-0.01557,0.0701v0.06966l-0.13932,0.55728l-0.12461,0.56076l-0.03115,0.06231l-0.01741,0.06966l-0.02438,0.01393l-0.04803,0.09606l-0.83852,0.97828l-0.09857,0.00548l-0.04898,0.08571l-1.25,0.3125h-0.19982l-0.02336,0.01558l-0.0701,-0.01558h-0.06966l-0.55728,-0.13932l-0.46186,-0.10263h-0.31161l-0.38988,-0.09747l-0.40069,-0.03082l-0.14631,-0.04878l-0.1583,0.00754l-0.60488,-0.12098l-0.05509,-0.02609h-0.06096l-0.3588,-0.0897l-1.56601,-0.22372l-0.23527,-0.09585h-0.01607l-0.29857,-0.07465h-0.30776l-0.18534,-0.04633h-0.05516l-0.38988,-0.09746l-0.1866,-0.01435l-0.00963,0.00642l-0.0493,-0.01095l-0.06007,-0.00462h-0.03038l-0.01351,-0.00338l-0.0512,-0.00394l-0.10635,-0.03545l-0.31286,-0.07822h-0.12098l-0.38987,-0.09746l-0.30561,-0.02351h-0.03038l-0.0135,-0.00337l-0.05121,-0.00394l-0.10634,-0.03545l-0.21883,-0.05471l-0.30561,-0.02351h-0.03038l-0.0135,-0.00337l-0.05121,-0.00394l-0.10634,-0.03545l-0.12753,-0.03188h-0.30776l-0.18534,-0.04633h-0.05516l-0.38988,-0.09747l-0.30561,-0.02351h-0.03038l-0.01351,-0.00338l-0.0512,-0.00393l-0.10635,-0.03545l-0.21883,-0.05471l-0.29506,-0.0227l-0.02215,0.01476l-0.07009,-0.01557h-0.06966l-0.48391,-0.12098h-0.12097l-0.38988,-0.09746l-0.30561,-0.02351h-2.96422l-0.30561,0.02351l-0.38988,0.09746h-0.15136l-0.30561,0.02351l-0.38988,0.09747h-0.36293l-0.48391,0.12097h-0.06966l-0.0701,0.01558l-0.02336,-0.01558h-0.44177l-0.27139,0.06785l-0.0623,0.03116l-0.56076,0.12461l-0.10281,0.0257l-0.27934,0.13967l-0.01393,0.02438l-0.06966,0.01741l-0.0623,0.03116l-0.43552,0.09678l-1.35423,0.67711l-0.01393,0.02438l-0.06966,0.01741l-0.06231,0.03116l-0.43552,0.09678l-0.14445,0.07223l-0.01393,0.02438l-0.06966,0.01741l-0.06231,0.03116l-0.56076,0.12461l-0.55728,0.13932h-0.06966l-0.0701,0.01558l-0.02337,-0.01558h-0.76256l-0.02337,0.01558l-0.0701,-0.01558h-0.06966l-0.55728,-0.13932l-0.56076,-0.12461l-0.06231,-0.03116l-0.06966,-0.01741l-0.01393,-0.02438l-0.15837,-0.07918l-0.55357,-0.13839l-0.04897,-0.08571l-0.09857,-0.00547l-0.2722,-0.31757l-0.77904,-0.38952l-0.30513,-0.26154l-0.05743,-0.03446l-0.15682,-0.05228l-0.1518,-0.0966l-0.07676,-0.01706h-0.03679l-0.09537,0.19074l-0.06379,0.07443l-0.02854,0.09378l-0.31354,0.52256l-0.15252,0.30503l-0.18419,0.46049l-0.08228,0.32915v0.19982l0.01557,0.02337l-0.01557,0.07009v0.06966l-0.12098,0.48391v0.48391c0,0.42612 -0.10661,0.82734 -0.29461,1.17844l-0.01789,0.07156l-0.03296,0.01884c-0.43488,0.73685 -1.23699,1.23116 -2.15454,1.23116zM198.12403,181.3988l0.02949,-0.00656l-0.03392,-0.00161l-0.00212,0.00053z" fill="#8b735c" stroke-width="0.5"/><path d="M195.40838,170.98617c-0.55901,-1.11803 0.55902,-1.67705 0.55902,-1.67705l0.36263,-0.17211c1.7945,-0.63861 3.52946,-0.74098 5.22544,-0.51866l0.07289,0.00126c0.42688,0.06098 0.85376,0.12197 1.28064,0.18295c6.60933,0.94419 12.47877,2.86886 18.07971,6.60059c3.41244,2.2736 5.52025,3.82339 5.48417,8.16551c-0.89115,2.94722 -2.34286,3.69019 -5.34054,3.06158c-0.20453,-0.04289 -1.78128,-0.33742 -2.85581,-0.66405c0.39642,0.85098 0.65133,2.15948 0.68003,2.29098c0.65472,2.99938 1.22602,6.00027 1.66147,9.04843c0,0 0.0243,0.17012 -0.00819,0.39323c4.90609,2.57416 3.19148,7.52498 4.2011,12.14634c0.78209,3.57989 1.66551,6.796 1.67403,10.50585v0.54885c0,0 0,1.25 -1.25,1.25c-0.11549,0 -0.2203,-0.01066 -0.31544,-0.03003c-0.13175,0.35957 -0.46007,0.85471 -1.26406,0.78771c-1.24568,-0.1038 -1.14187,-1.34949 -1.14187,-1.34949c0.35071,-4.16784 -0.95547,-7.8571 -1.82252,-11.86437c-0.88035,-4.06875 -0.28778,-7.10497 -2.95123,-10.55945c-2.05104,-4.07447 -2.93476,-8.7923 -3.74952,-13.25153l-0.02017,-0.80058c0,0 0,-0.70367 0.52797,-1.0551c-0.19351,-0.27106 -0.30963,-0.66531 -0.06974,-1.19306c0.51726,-1.13796 1.65521,-0.6207 1.65521,-0.6207c0.02048,0.01683 0.04096,0.03367 0.06144,0.0505c1.73608,-1.18961 5.95703,1.22603 7.41624,0.21009c0.66556,-0.46338 -2.13186,-2.36421 -2.18493,-2.40551c-3.4363,-2.67351 -6.93002,-3.94665 -10.90652,-5.60252c-2.50343,-1.04451 -5.18085,-2.55239 -7.92434,-3.18982c-0.42356,-0.06051 -0.84712,-0.12102 -1.27069,-0.18153l-0.37207,0.01256c0,0 -0.27665,0 -0.56965,-0.13014c-1.0462,-0.02895 -2.0977,0.11698 -3.1487,0.50959l-0.09895,0.05868c0,0 -1.11804,0.55902 -1.67705,-0.55902z" fill-opacity="0.50196" fill="#fa9600" stroke-width="0.5"/><path d="M282.10911,232.93116c-0.88389,0.88388 -1.76776,0 -1.76776,0l-0.97636,-0.97978c-3.71262,-4.79727 -0.81816,-9.86696 5.20443,-9.3419c0,0 1.24487,0.11317 1.1317,1.35804c-0.11317,1.24487 -1.35804,1.1317 -1.35804,1.1317c-3.71787,-0.35457 -5.49941,2.13854 -3.1039,5.19767l0.86993,0.86652c0,0 0.88389,0.88388 0,1.76776z" fill-opacity="0.50196" fill="#fa9600" stroke-width="0.5"/><path d="M178.08279,206.8915c0,-1.21273 1.17656,-1.24889 1.24673,-1.24997c2.66962,-0.54091 6.57209,-3.50207 5.20021,-6.68315c-0.64446,-1.49437 -2.1416,-2.2387 -3.48764,-2.97044c0,0 -1.09737,-0.59856 -0.49881,-1.69593c0.59857,-1.09737 1.69594,-0.49881 1.69594,-0.49881c1.87192,1.02416 3.70875,2.12014 4.5899,4.18395c2.03437,4.76483 -2.9397,9.37355 -7.15734,10.14417l-0.339,0.02016c0,0 -1.25,0 -1.25,-1.25zM179.27662,205.65196l-0.05205,0.0097c0.01729,-0.00313 0.03465,-0.00636 0.05205,-0.0097z" fill-opacity="0.50196" fill="#fa9600" stroke-width="0.5"/><path d="M311.33761,178.32645c-0.88389,0.88388 -1.76776,0 -1.76776,0l-0.63128,-0.63648c-1.49514,-1.74693 -3.28525,-2.79819 -5.06943,-4.22565c-3.32473,-2.66 -6.17848,-5.25159 -10.68118,-5.24444c0,0 -0.18036,0 -0.40407,-0.06851c-1.1977,-0.09981 -2.39541,-0.19963 -3.59303,-0.3005c-9.18221,0 -19.05031,0.48343 -27.82159,3.40787c-4.97258,2.05384 -8.70951,7.67206 -5.98541,12.93544c0.76454,1.47719 2.09591,2.22484 3.41161,3.14583c0,0 1.02404,0.71683 0.30721,1.74087c-0.71683,1.02404 -1.74086,0.30721 -1.74086,0.30721c-1.66983,-1.16888 -3.2147,-2.17053 -4.19457,-4.03778c-3.48164,-6.63464 1.02908,-13.79103 7.32538,-16.43283c9.10148,-3.03321 19.272,-3.56445 28.80212,-3.56445c1.28504,0.10603 2.57,0.21308 3.85495,0.32016l0.00183,-0.00431c0,0 0.15783,0 0.36131,0.05608c6.40278,0.18985 13.31194,5.6639 17.32386,10.33803l0.5009,0.4957c0,0 0.88389,0.88388 0,1.76777z" fill-opacity="0.50196" fill="#fa9600" stroke-width="0.5"/><path d="M260.08582,225.32078c-1.25,0 -1.25,-1.25 -1.25,-1.25l0.00431,-0.63202c0.44289,-5.3147 1.80704,-10.57101 3.09614,-15.72677c0.99107,-3.96377 1.64083,-7.75803 3.35006,-11.51955c1.01184,-2.22604 2.12068,-4.25425 4.32138,-5.53348c0.19438,-0.11299 2.52965,-0.8574 2.58784,-1.26793c0.15344,-1.08254 -0.66973,-2.41349 -0.45537,-3.65697c0.46233,-2.68189 3.50738,-5.88464 5.06932,-8.12277c0,0 0.71682,-1.02405 1.74086,-0.30722c1.02404,0.71683 0.30721,1.74087 0.30721,1.74087c-1.27902,1.821 -4.30827,4.91318 -4.64968,7.08957c-0.19488,1.24232 0.77197,2.78389 0.38977,3.9492c-0.59427,1.81191 -2.36339,1.97191 -3.75063,2.74643c-1.7326,0.96735 -2.50727,2.68624 -3.28479,4.39679c-1.64518,3.61819 -2.24596,7.27229 -3.1997,11.08768c-1.25676,5.02763 -2.59918,10.14925 -3.03105,15.33175l0.00432,0.4244c0,0 0,1.25 -1.25,1.25z" fill-opacity="0.50196" fill="#fa9600" stroke-width="0.5"/><path d="M266.99125,229.9198c-0.88389,0.88388 -1.76777,0 -1.76777,0l0.07404,0.00221c-3.69671,-2.02306 -6.05125,-5.87656 -1.45628,-8.80065c2.01484,-1.28217 4.7425,-0.83597 7.01998,-0.83597c0,0 1.25,0 1.25,1.25c0,1.25 -1.25,1.25 -1.25,1.25c-1.52682,0 -3.36851,-0.2742 -4.86511,0.06625c-4.09648,0.93189 -1.56054,3.75661 0.49854,4.87562l0.4966,0.42477c0,0 0.88389,0.88388 0,1.76776z" fill-opacity="0.50196" fill="#fa9600" stroke-width="0.5"/><path d="M189.31022,242.80239c-1.25,0 -1.25,-1.25 -1.25,-1.25l0.02977,-0.29493c-0.75012,-3.39684 -1.05397,-6.87207 -1.43809,-10.3296c-0.60185,-6.01851 -0.3778,-12.01012 -0.7126,-18.03547c-0.17256,-3.10566 -0.47114,-6.13861 -0.11434,-9.25322c0.48388,-1.40676 1.71975,-2.22525 2.17139,-3.42055c0.39058,-1.03368 -0.08818,-3.41303 -0.21152,-4.5231c-0.53654,-4.82887 -2.13049,-9.22592 -2.13049,-14.14879c0,0 0,-0.31707 0.15969,-0.63183c0.00341,-0.02441 0.00611,-0.03788 0.00611,-0.03788l0.18139,-0.85775c1.09381,-3.27013 3.07578,-5.93559 5.78553,-8.08364c1.36864,-1.08495 3.03275,-1.51035 4.3519,-2.65978c0,0 0.94907,-0.81349 1.76256,0.13558c0.81349,0.94907 -0.13558,1.76256 -0.13558,1.76256c-3.79501,3.21079 -7.66975,4.44735 -9.39271,9.63585l-0.10165,0.55747c0,0 -0.02896,0.14482 -0.11676,0.32496c0.03146,4.75545 1.59326,9.0341 2.11471,13.72718c0.1677,1.50927 0.61051,4.22406 0.07152,5.66654c-0.47742,1.27767 -1.65426,1.75484 -2.0743,3.08949c-0.30657,2.88153 0.00932,5.70905 0.16871,8.57865c0.33239,5.98394 0.10497,11.9348 0.70262,17.91131c0.3735,3.36106 0.65392,6.74962 1.39237,10.04969l0.02976,0.83725c0,0 0,1.25 -1.25,1.25z" fill-opacity="0.50196" fill="#fa9600" stroke-width="0.5"/><path d="M297.43363,197.13794c1.25,0 1.25,1.25 1.25,1.25v0.42457c0,2.19306 0.00122,4.38612 -0.00191,6.57918c-0.50781,4.62995 -0.50113,9.77577 -1.74172,14.2753c-0.84484,3.06417 -2.45439,5.90985 -3.74197,8.8069c0,0 -0.50767,1.14227 -1.64993,0.63459c-1.14227,-0.50768 -0.63459,-1.64994 -0.63459,-1.64994c1.23711,-2.78349 2.79368,-5.51952 3.61721,-8.45888c1.20849,-4.31337 1.15404,-9.30304 1.65483,-13.74621c-0.00341,-2.14697 -0.00191,-4.29395 -0.00191,-6.44093v-0.42457c0,0 0,-1.25 1.25,-1.25z" fill-opacity="0.50196" fill="#fa9600" stroke-width="0.5"/></g></g></svg>