<svg version="1.1" xmlns="http://www.w3.org/2000/svg" xmlns:xlink="http://www.w3.org/1999/xlink" width="123.18498" height="104.21972" viewBox="0,0,123.18498,104.21972"><defs><linearGradient x1="241.75382" y1="270.18186" x2="234.36963" y2="315.37312" gradientUnits="userSpaceOnUse" id="color-1"><stop offset="0" stop-color="#81471e"/><stop offset="1" stop-color="#914f21"/></linearGradient><linearGradient x1="241.17575" y1="231.9524" x2="234.60783" y2="272.14809" gradientUnits="userSpaceOnUse" id="color-2"><stop offset="0" stop-color="#81471e"/><stop offset="1" stop-color="#914f21"/></linearGradient></defs><g transform="translate(-176.28249,-218.42167)"><g data-paper-data="{&quot;isPaintingLayer&quot;:true}" fill-rule="nonzero" stroke="none" stroke-linecap="butt" stroke-linejoin="miter" stroke-miterlimit="10" stroke-dasharray="" stroke-dashoffset="0" style="mix-blend-mode: normal"><path d="M227.31277,305.27494c6.50292,0.34229 13.00388,0.92626 19.47931,1.51489c7.0138,0.63768 14.87344,1.73282 21.1159,5.19312c2.19148,1.21477 6.64417,3.26137 4.3659,7.33334c-0.74068,1.32382 -9.11291,2.36723 -10.40499,2.53308c-4.96101,0.63681 -9.97529,0.06639 -14.95537,0.27521c-7.58327,0.31798 -15.10002,0.52063 -22.69689,0.51676c-7.58854,-0.62733 -15.29033,-0.37519 -22.40996,-3.58921c-1.95134,-0.88089 -5.6422,-3.2956 -6.05238,-5.61156c-0.851,-4.80492 2.07047,-5.33373 5.26733,-6.53123c4.02057,-1.50605 7.95706,-1.69862 12.15654,-2.18355c4.9292,-0.5692 8.78505,-0.9707 13.61083,0.3312c0,0 0.22755,0.06206 0.52379,0.21794z" fill-opacity="0.50196" fill="#000000" stroke-width="0.5"/><g stroke-width="0.5"><path d="M244.1359,289.43984c-0.39345,2.40794 -3.1255,13.93959 -3.20913,16.37431c-0.09637,2.80542 0.02311,6.45639 -1.55093,8.95978c-1.58762,2.52498 -6.72343,3.05429 -9.35199,2.37151c-0.79039,-0.20531 -1.85484,-0.08896 -2.33161,-0.75196c-1.08866,-1.51391 0.90298,-5.34366 1.15316,-6.94264c1.62446,-9.94169 6.30628,-28.64462 7.99652,-38.59408c-1.32363,-0.07898 -11.84992,0.28506 -15.80433,0.20771c-12.62602,-0.2271 -26.92634,-1.96978 -38.18668,-7.97773c-1.91159,-1.01992 -3.46825,-2.91434 -5.19448,-4.21499c-0.49109,-1.0215 -1.287,-2.45637 -1.36357,-3.60935c-0.27918,-4.20388 5.14701,-7.65119 8.30866,-9.23255c8.36829,-4.18553 17.28773,-5.6795 26.10357,-8.42879c5.69755,-1.76526 11.857,-2.1969 17.76092,-2.9863c9.55914,-1.27813 19.14387,-2.12661 28.78987,-1.7494c10.28373,0.40218 20.73941,2.55108 30.63159,5.18192c3.25171,0.8648 6.2285,1.53833 9.21945,3.10447c2.21535,2.13514 2.72271,5.1475 2.13423,6.75391c-1.01824,2.77954 -5.27972,6.89081 -9.04711,10.20456c-9.46551,8.32576 -30.14792,11.43607 -30.76884,11.35937c-3.72265,0.55541 -7.40759,1.00449 -11.07038,1.26758c-1.12626,6.33264 -3.17973,12.34277 -4.21893,18.70265zM231.31269,309.85403c-0.2492,1.47381 -1.13569,4.82502 -0.88569,4.82416c0.51282,-0.00178 1.01395,0.15541 1.51832,0.24809c1.0912,0.2005 4.84572,-0.50151 5.30531,-1.46896c1.13953,-2.39872 1.07448,-5.19032 1.17808,-7.74181c0.10339,-2.54669 2.82856,-14.16133 3.23991,-16.6788c1.00914,-6.17596 2.97346,-12.01981 4.11748,-18.14633c-2.1477,0.10092 -4.28901,0.1311 -6.42705,0.07439c-1.68657,10.0511 -6.40612,28.85097 -8.04636,38.88926zM261.7941,266.57145c10.00776,-1.61233 18.67241,-4.54543 26.94038,-10.49093c3.54811,-2.55144 6.51025,-4.65128 8.09112,-8.81917c1.96878,-4.51089 -6.47094,-5.97097 -9.59232,-6.80117c-9.71009,-2.58263 -19.97915,-4.70193 -30.07509,-5.09672c-9.50308,-0.37163 -18.94272,0.46998 -28.36025,1.72918c-5.75714,0.76978 -11.79877,1.16004 -17.35002,2.89553c-8.69649,2.7006 -17.4674,4.19449 -25.7331,8.28012c-3.72642,1.84192 -7.92237,4.59522 -6.12329,9.0206c1.54141,1.05206 2.7864,2.74133 4.44145,3.59496c11.05942,5.70415 24.71565,7.4593 37.05158,7.68106c0.65475,0.01283 26.74597,-0.03879 40.70956,-1.99346z" fill="#6a3b18"/><path d="M231.2943,309.90057c1.64024,-10.03829 6.38113,-28.93457 8.06771,-38.98567c2.13805,0.05671 4.29302,0.0293 6.44073,-0.07163c-1.14402,6.12652 -3.09026,11.98152 -4.09941,18.15748c-0.41135,2.51746 -3.1698,14.21808 -3.2732,16.76477c-0.1036,2.55149 -0.04193,5.34307 -1.18146,7.74179c-0.4596,0.96745 -4.22547,1.6677 -5.31666,1.4672c-0.50438,-0.09268 -1.00865,-0.25085 -1.52147,-0.24907c-0.25,0.00086 0.63457,-3.35107 0.88377,-4.82488z" data-paper-data="{&quot;noHover&quot;:false,&quot;origItem&quot;:[&quot;Path&quot;,{&quot;applyMatrix&quot;:true,&quot;segments&quot;:[[[481.2846,620.20085],[0,0],[-0.01654,2.98942]],[[481.0923,630.00855],[-0.49318,0.08232],[1.01164,-0.1689]],[[484.16922,630.00855],[-1.02544,-0.02026],[2.2185,0.04382]],[[494.1672,625.39801],[-0.59514,2.0578],[1.4756,-5.10218]],[[493.99564,609.73709],[0.61842,5.0696],[-0.61728,-5.06006]],[[495.0114,575.77115],[0,5.1017],[0,-12.51572]],[[497.28602,538.62553],[-0.28216,12.46164],[-4.20664,0.89188]],[[484.62414,540.84521],[4.23842,-0.57762],[-0.08732,20.38306]],[[481.2846,620.20087],[0,-20.34282],[0,0]]],&quot;closed&quot;:true,&quot;fillColor&quot;:[0,0,0,1]}]}" fill="url(#color-1)"/><path d="M261.83685,266.59741c-13.9636,1.95466 -40.13321,2.01537 -40.78796,2.00253c-12.33592,-0.22175 -26.00584,-2.00386 -37.06526,-7.70801c-1.65505,-0.85362 -2.9005,-2.54652 -4.44191,-3.59858c-1.79908,-4.42538 2.39681,-7.18676 6.12323,-9.02869c8.2657,-4.08564 17.04099,-5.59666 25.73748,-8.29726c5.55125,-1.73549 11.61239,-2.14773 17.36953,-2.9175c9.41753,-1.2592 18.92094,-2.09082 28.42402,-1.71919c10.09594,0.3948 20.37587,2.5354 30.08596,5.11803c3.12137,0.8302 11.56227,2.29766 9.59348,6.80856c-1.58086,4.16789 -4.54299,6.27573 -8.09111,8.82717c-8.26797,5.9455 -16.93974,8.90061 -26.9475,10.51294z" data-paper-data="{&quot;noHover&quot;:false,&quot;origItem&quot;:[&quot;Path&quot;,{&quot;applyMatrix&quot;:true,&quot;segments&quot;:[[[527.49004,524.93779],[0,0],[19.23354,-6.41016]],[[577.28208,495.54173],[-14.40198,14.40196],[6.18046,-6.18044]],[[590.40816,475.52469],[-1.77612,8.73654],[2.43118,-9.53868]],[[569.2811,465.19409],[6.4288,0.63196],[-19.99896,-1.96596]],[[508.27438,464.83387],[20.05494,-2.47688],[-18.87726,2.3314]],[[452.85394,477.39371],[18.18242,-5.52278],[-11.11532,3.3762]],[[419.54192,488.70471],[10.39746,-5.21594],[-16.29434,8.1353]],[[371.41982,513.34765],[14.99734,-10.73018],[-6.76124,4.83748]],[[362.24284,533.12761],[-4.97834,-8.15468],[3.38178,1.57944]],[[372.16892,538.79097],[-3.54208,-1.15112],[23.66904,7.6921]],[[447.7795,542.00215],[-24.42046,3.54088],[1.2965,-0.18584]],[[527.49008,524.93777],[-26.93126,8.3617],[0,0]]],&quot;closed&quot;:true,&quot;fillColor&quot;:[0,0,0,1]}]}" fill="url(#color-2)"/></g><path d="M203.91914,255.69713l0.15959,-10.53303l68.46473,-7.97957l6.22406,8.93712c0,0 -21.54239,11.95875 -33.35076,13.7502c-12.97738,1.96879 -41.49762,-4.17471 -41.49762,-4.17471z" fill-opacity="0.50196" fill="#000000" stroke-width="0"/><path d="M270.67828,225.0027c1.23744,-0.17677 1.41422,1.06066 1.41422,1.06066l0.15493,1.08884c0.35348,3.22056 0.34814,6.72551 -0.00926,9.9439c-2.31589,10.48368 -13.54358,14.51273 -23.24354,15.58175c-10.01705,2.00341 -20.52111,3.26094 -30.71395,2.11309c-4.64567,-0.01502 -10.80917,-1.63566 -13.18529,-6.06088c-1.67016,-3.11047 -1.97646,-7.55662 -2.67278,-10.99366c0,0 -0.24515,-1.22573 0.98058,-1.47088c1.22573,-0.24515 1.47088,0.98059 1.47088,0.98059c0.62616,3.17783 0.90517,7.42738 2.42773,10.30846c1.90433,3.6035 7.43884,4.7531 11.11714,4.7402c10.03962,1.1019 20.32536,-0.11397 30.19214,-2.08732c8.50388,-0.95189 19.0796,-4.21622 21.1609,-13.52115c0.33189,-2.98505 0.32693,-6.27265 -0.00926,-9.25803l-0.1451,-1.01136c0,0 -0.17678,-1.23744 1.06066,-1.41422z" fill="#632817" stroke-width="0.5"/><path d="M203.34235,238.66521c0,-0.66147 0.5138,-1.20295 1.16408,-1.2471l0.01604,-0.01069l0.03696,0.00822c0.01094,-0.00028 0.02191,-0.00043 0.03292,-0.00043c0.20995,0 0.4078,0.05176 0.58151,0.14321l0.01971,0.00985h0.08256l0.01168,-0.00779l0.03504,0.00779h0.03483l0.27864,0.06966l0.28038,0.06231l0.03034,0.01517l0.02373,0.00593h0.15225l0.19494,0.04873l0.20034,0.01541l0.03717,0.01239h0.09827l0.01168,-0.00779l0.03505,0.00779h0.03483l0.27864,0.06966l0.02459,0.00546l0.00957,-0.00638l0.03504,0.00779h0.03483l0.27864,0.06966l0.03093,0.00687h0.22617l0.19494,0.04873l0.20034,0.01541l0.03717,0.01238h0.09826l0.01168,-0.00778l0.03505,0.00778h0.03483l0.27864,0.06966l0.03093,0.00688h0.1446l0.01168,-0.00778l0.03505,0.00778h0.03483l0.27864,0.06966l0.28037,0.06231l0.03062,0.01531l0.27552,0.06123l0.03116,0.01558l0.03483,0.0087l0.00696,0.01219l0.11074,0.05537l0.27552,0.06123l0.03062,0.01531l0.01973,0.00439l0.00957,-0.00638l0.03504,0.00779h0.03483l0.27864,0.06966l0.28038,0.06231l0.03115,0.01557l0.03483,0.00871l0.00697,0.01219l0.15373,0.07686l0.14533,0.04844l0.07591,0.0483l0.08783,0.01952l0.03061,0.01531l0.27552,0.06123l0.03116,0.01557l0.03483,0.00871l0.00697,0.01219l0.11074,0.05537l0.27552,0.06123l0.03115,0.01558l0.03483,0.0087l0.00697,0.01219l0.3068,0.1534l0.37493,0.12498l0.0759,0.0483l0.08783,0.01952l0.14777,0.07388l0.1477,0.01137l0.2296,0.07653l0.14086,0.08964l0.15723,0.05615l0.16485,0.1099l0.23653,0.11826l0.15256,0.13077l0.1723,0.10338l0.08055,0.08055l0.05329,0.04568l0.1723,0.10338l0.08054,0.08054l0.05329,0.04568l0.1723,0.10339l0.30614,0.30614l0.10339,0.1723l0.04568,0.05329l0.23361,0.23361l0.10338,0.1723l0.13077,0.15257l0.03061,0.06123l0.01752,0.02043l0.18813,0.16126l0.00346,0.06226l0.06642,0.07749l0.10715,0.2143l0.01751,0.02043l0.04701,0.04028l0.02134,0.00119l0.05528,0.06449l0.0645,0.05528l0.00118,0.02135l0.04029,0.047l0.047,0.04029l0.02135,0.00118l0.05529,0.0645l0.06449,0.05528l0.00119,0.02134l0.04029,0.047l0.18813,0.16126l0.00191,0.03444l0.22769,0.19516l0.00106,0.01913l0.00524,0.00786l0.00786,0.00523l0.01913,0.00107l0.21044,0.24552l0.05159,0.05675l0.15268,0.09161l0.06555,0.06554l0.12661,0.08442l0.08375,0.09212l0.10676,0.06406l0.08054,0.08054l0.0533,0.04568l0.1723,0.10338l0.08055,0.08055l0.05329,0.04568l0.1723,0.10338l0.00964,0.00964l0.12471,0.06235l0.15257,0.13076l0.03333,0.02l0.03304,0.01101l0.24231,0.1542l0.24629,0.14777l0.00964,0.00964l0.37096,0.18548l0.07115,-0.11858l0.15307,-0.15307l0.10676,-0.06405l0.08375,-0.09212l0.02159,-0.0144l0.0144,-0.02159l0.09213,-0.08375l0.06405,-0.10676l0.15307,-0.15307l0.1723,-0.10338l0.04786,-0.04103l0.08286,-0.12429l0.1816,-0.16509l0.16509,-0.1816l0.2296,-0.15307l0.00878,-0.00314l0.05417,-0.04643l0.16126,-0.18813l0.06227,-0.00346l0.07748,-0.06642l0.76534,-0.38267l0.6289,-0.13976l0.12113,0.08075l0.14045,-0.0383l0.55242,0.33146l0.30614,0.30613l0.06405,0.10676l0.03742,0.03402l0.01955,0.00109l0.16126,0.18813l0.18813,0.16125l0.00346,0.06227l0.06642,0.07748l0.11827,0.23654l0.04124,0.06186l0.06555,0.06555l0.10338,0.1723l0.13077,0.15256l0.06235,0.12471l0.00963,0.00963l0.10339,0.1723l0.13077,0.15257l0.06235,0.12471l0.00964,0.00964l0.10338,0.1723l0.13077,0.15257l0.29196,0.58391l0.00963,0.00964l0.10339,0.1723l0.13077,0.15257l0.15306,0.30614l0.01952,0.08782l0.0483,0.07591l0.01101,0.03305l0.02,0.03333l0.13077,0.15257l0.04173,0.08346l0.04125,0.06187l0.00788,0.00787l0.01377,0.00276l0.01927,0.03028l0.02463,0.02463l0.14777,0.24629l0.1542,0.24232l0.01101,0.03304l0.02,0.03333l0.04568,0.05329l0.46722,0.46722l0.05329,0.04568l0.1723,0.10339l0.00964,0.00964l0.12471,0.06235l0.15256,0.13077l0.03334,0.02l0.03304,0.01101l0.0759,0.0483l0.08783,0.01952l0.48982,0.24491l0.27553,0.06122l0.03115,0.01558l0.03483,0.00871l0.00697,0.01219l0.45987,0.22993l0.0715,0.02384l0.56766,0.11353h1.48345l0.02762,0.0069l0.28582,-0.57163l0.03691,-0.14767l0.06231,-0.28038l0.01558,-0.03115l0.0087,-0.03483l0.01219,-0.00697l0.01737,-0.03473l0.00458,-0.01833v-0.15389l0.03921,-0.15685v-0.15226l0.04873,-0.19494l0.01541,-0.20034l0.06136,-0.18406l0.06489,-0.25957l0.02307,-0.04324l0.00376,-0.04887l0.06123,-0.18369l0.01531,-0.19899l0.01239,-0.03717v-0.02675l0.04874,-0.19494l0.01541,-0.20034l0.01239,-0.03717v-0.1748l-0.00779,-0.01168l0.00779,-0.03504v-0.03483l0.06966,-0.27864l0.00688,-0.03093v-0.3027l0.04873,-0.19494l0.01541,-0.20034l0.01238,-0.03717v-0.4044l-0.00778,-0.01168l0.00778,-0.03504v-0.03483l0.06966,-0.27864l0.00688,-0.03093v-0.22115l-0.00779,-0.01168l0.00779,-0.03505v-0.03483l0.06966,-0.27864l0.00546,-0.02459l-0.00637,-0.00957l0.00779,-0.03504v-0.03483l0.06966,-0.27864l0.05888,-0.26496l0.01214,-0.15783l0.07653,-0.2296l0.0483,-0.07591l0.01952,-0.08783l0.01531,-0.03062l0.06123,-0.27552l0.01557,-0.03115l0.00871,-0.03483l0.01219,-0.00697l0.26967,-0.53933l0.13076,-0.15256l0.10339,-0.1723l0.00964,-0.00964l0.06235,-0.12471l0.13077,-0.15256l0.10338,-0.1723l0.00964,-0.00964l0.06235,-0.12471l0.06642,-0.07749l0.00346,-0.06226l0.08721,-0.07475l0.02027,-0.08109l0.04286,-0.02449l0.00274,-0.04928l0.02082,-0.01784l-0.05693,-0.25617l-0.01266,-0.02217l0.00557,-0.00975l-0.01336,-0.06012l0.21688,-0.32533l-0.0006,-0.01074l0.01397,-0.00931l0.10377,-0.15566l0.29876,-0.52283l0.05975,-0.01494l0.00623,-0.00934l0.02549,0.00142l0.53352,-0.13339h0.30112l0.01168,-0.00779l0.03505,0.00779h0.03483l0.27864,0.06966l0.28037,0.06231l0.03116,0.01558l0.03483,0.0087l0.00697,0.01219l0.53933,0.26966l0.15256,0.13077l0.1723,0.10338l0.06554,0.06555l0.06187,0.04124l0.08346,0.04173l0.15257,0.13077l0.03333,0.02l0.03304,0.01101l0.24231,0.1542l0.24629,0.14778l0.02463,0.02462l0.03029,0.01927l0.00275,0.01377l0.00788,0.00787l0.06187,0.04125l0.23653,0.11827l0.05998,0.0514l0.07438,0.02657l0.1443,0.0962h0.0042l0.08729,0.02182l0.08949,-0.00926l1.07148,0.15307l0.10522,0.04287l0.11329,0.00871l0.91841,0.30614l0.03171,0.02018l0.03724,0.00508l0.0452,0.01808l0.05773,-0.0866l0.09213,-0.08374l0.06405,-0.10676l0.16679,-0.16679l0.15548,-0.20731l0.28689,-0.43034l0.09213,-0.08375l0.06405,-0.10676l0.00285,-0.00285l0.07516,-0.14094l0.07195,-0.20145l0.21328,-0.31992l0.00842,-0.02526l0.06489,-0.25957l0.02307,-0.04325l0.00376,-0.04886l0.07653,-0.22961l0.0483,-0.0759l0.01952,-0.08783l0.0368,-0.07361l0.04844,-0.14533l0.0256,-0.04023l0.05645,-0.2258l0.06231,-0.28038l0.01558,-0.03115l0.0087,-0.03483l0.01219,-0.00696l0.11659,-0.23319l0.06642,-0.07749l0.00346,-0.06226l0.18813,-0.16126l0.16125,-0.18813l0.06227,-0.00346l0.07749,-0.06642l0.08012,-0.04006l0.00697,-0.01219l0.03483,-0.0087l0.03115,-0.01557l0.28038,-0.06231l0.07844,-0.01961l0.0122,-0.01272h0.03871l0.14929,-0.03733h0.03483l0.03504,-0.00778l0.01168,0.00778h0.07151l0.14928,0.03733h0.15389l0.30613,0.07654l0.12147,0.06478l0.13439,0.02986l0.30614,0.15307l0.05997,0.05141l0.07439,0.02657l0.4592,0.30614l0.0239,0.02628l0.03273,0.01379l0.30614,0.2296l0.01264,0.01556l0.01823,0.00835l0.27926,0.22341l0.18769,0.09385l0.05998,0.0514l0.07439,0.02657l0.16485,0.1099l0.08346,0.04173l0.05997,0.05141l0.07439,0.02656l0.16485,0.1099l0.08346,0.04173l0.05998,0.0514l0.07439,0.02657l0.09032,0.06021l0.0708,0.0236l0.07591,0.0483l0.08783,0.01951l0.0422,0.02111h0.33308l0.00921,-0.00789l0.60228,-0.90342l0.0236,-0.0708l0.0483,-0.07591l0.01952,-0.08783l0.0368,-0.07361l0.04845,-0.14533l0.0483,-0.0759l0.01951,-0.08783l0.15307,-0.30614l0.13077,-0.15257l0.10338,-0.1723l0.00964,-0.00964l0.06235,-0.12471l0.06642,-0.07748l0.00346,-0.06227l0.18813,-0.16126l0.16125,-0.18813l0.05897,-0.00328l0.21513,-0.21513l0.10676,-0.06405l0.08375,-0.09213l0.12662,-0.08441l0.14208,-0.14208l0.10676,-0.06405l0.08375,-0.09213l0.20074,-0.13383l0.58452,-0.43839l0.10471,-0.04409l0.08627,-0.07394l0.30613,-0.15306l0.05178,-0.01151l0.043,-0.03105l0.3344,-0.13376l0.15882,-0.07941l0.0941,-0.07057l0.00026,-0.00091l0.00332,-0.00177l0.11829,-0.08872l0.22828,-0.09611l0.21855,-0.11656l0.14346,-0.03587l0.00346,-0.00146l0.00087,0.00037l0.02523,-0.0063l0.11381,-0.05691l0.16485,-0.1099l0.20146,-0.07195l0.18875,-0.10066l0.17302,-0.04326l0.03034,-0.01517l0.08783,-0.01952l0.0759,-0.0483l0.60453,-0.20151l0.07361,-0.03681l0.08783,-0.01952l0.0759,-0.0483l0.37493,-0.12498l0.22668,-0.11334l0.08783,-0.01952l0.07591,-0.0483l0.14532,-0.04844l0.07362,-0.03681l0.08783,-0.01951l0.0759,-0.0483l0.75961,-0.2532l0.09032,-0.06021l0.15723,-0.05616l0.14086,-0.08963l0.68881,-0.22961l0.01938,-0.00149l0.01671,-0.00994l0.712,-0.2136l0.33096,-0.13238l0.03724,-0.00508l0.03171,-0.02018l0.14533,-0.04844l0.22668,-0.11334l0.13439,-0.02987l0.12147,-0.06478l0.22384,-0.05596l0.25563,-0.10225l0.87191,-0.43596l0.13439,-0.02987l0.12147,-0.06478l0.17302,-0.04326l0.1138,-0.05691l0.16485,-0.1099l0.20146,-0.07194l0.18875,-0.10067l0.17302,-0.04326l0.1834,-0.0917l0.08783,-0.01952l0.0759,-0.0483l0.14533,-0.04844l0.22668,-0.11334l0.13438,-0.02987l0.12147,-0.06478l0.09609,-0.02403l0.04945,-0.03296l0.20146,-0.07195l0.18876,-0.10067l0.17302,-0.04325l0.18341,-0.0917l0.08783,-0.01952l0.0759,-0.0483l0.14533,-0.04844l0.07362,-0.03681l0.08782,-0.01951l0.07591,-0.0483l0.37493,-0.12498l0.07361,-0.03681l0.08783,-0.01952l0.07591,-0.0483l0.14533,-0.04845l0.45987,-0.22993l0.00696,-0.01219l0.03483,-0.00871l0.03116,-0.01557l0.27553,-0.06123l0.10715,-0.09185l0.27778,-0.13888l0.00963,-0.00964l0.1723,-0.10338l0.15256,-0.13077l0.61228,-0.30614l0.53685,-0.1193l0.02217,-0.01266l0.00975,0.00557l0.06013,-0.01336l0.15307,0.10205l0.11069,-0.0246l0.27864,-0.06966h0.03483l0.03505,-0.00779l0.01168,0.00779h0.53071l0.64949,0.19911l0.04928,0.00274l0.05076,2.4621l-0.09525,0.15875l-0.21513,0.21512l-0.00327,0.05898l-0.18813,0.16126l-0.04029,0.047l-0.00118,0.02134l-0.0645,0.05528l-0.05528,0.0645l-0.02135,0.00118l-0.047,0.04028l-0.04029,0.04701l-0.00118,0.02134l-0.0645,0.05528l-0.05529,0.0645l-0.02134,0.00118l-0.047,0.04029l-0.07931,0.09253l0.03784,0.03244l0.01905,0.34303l0.19058,0.28586l-0.13976,0.6289l-0.0368,0.07361l-0.04844,0.14533l-0.08964,0.14086l-0.05616,0.15723l-0.06021,0.09032l-0.0236,0.0708l-0.08964,0.14085l-0.05615,0.15723l-0.1099,0.16485l-0.04173,0.08347l-0.13077,0.15256l-0.10338,0.1723l-0.02382,0.02383l0.09619,0.15116l0.03314,0.09943l0.159,0.26502l0.02947,0.09683l0.05926,0.08205l0.13376,0.3344l0.01681,0.03361l0.01219,0.00696l0.00871,0.03483l0.01558,0.03116l0.0623,0.28037l0.06966,0.27864v0.03483l0.00779,0.03504l-0.00779,0.01168v0.14805l-0.05981,0.23924l0.02515,0.09221l-0.08263,0.13773l-0.03896,0.15582l-0.08299,0.04742l-0.12687,0.21146l-0.00964,0.00964l-0.06236,0.12471l-0.06642,0.07748l-0.00345,0.06226l-0.01459,0.01251l0.161,0.10733l-0.01434,0.25801l0.15409,0.23113l-0.12131,0.54588l0.00232,0.00852l-0.00669,0.01117l-0.01407,0.06333l-0.07654,0.15307l-0.13077,0.15256l-0.10338,0.1723l-0.00964,0.00964l-0.06235,0.12471l-0.07394,0.08626l-0.04409,0.10472l-0.19091,0.25455l-0.19643,0.32738l-0.0464,0.0464l-0.02546,0.06048l-0.68881,0.91842l-0.06982,0.05673l-0.04629,0.07715l-0.06555,0.06555l-0.23748,0.35622l-0.09213,0.08375l-0.06405,0.10676l-0.14208,0.14208l-0.13186,0.19778l-0.11404,0.17919l-0.14777,0.24629l-0.02463,0.02462l-0.01927,0.03029l-0.01376,0.00275l-0.10504,0.10503l-0.06235,0.12471l-0.0514,0.05998l-0.02657,0.07439l-0.15307,0.2296l-0.0798,0.07254l-0.00402,0.01203l-0.1542,0.24232l-0.14777,0.24629l-0.02463,0.02463l-0.01927,0.03029l-0.01376,0.00275l-0.00788,0.00787l-0.04125,0.06187l-0.04173,0.08346l-0.0514,0.05997l-0.02657,0.07439l-0.30613,0.4592l-0.09213,0.08375l-0.06405,0.10676l-0.29515,0.29515l-0.08441,0.12661l-0.09213,0.08375l-0.06405,0.10676l-0.76534,0.76534l-0.10676,0.06405l-0.08375,0.09213l-0.12662,0.08441l-0.14208,0.14209l-0.10676,0.06405l-0.08375,0.09212l-0.12662,0.08442l-0.14208,0.14208l-0.10676,0.06405l-0.08375,0.09213l-1.14801,0.76534l-0.15724,0.05615l-0.14086,0.08964l-0.03304,0.01101l-0.10732,0.06439l-0.24231,0.1542l-0.03305,0.01102l-0.03078,0.01847l-0.01355,-0.00369l-0.22303,0.07434l-0.09032,0.06021l-0.20146,0.07195l-0.18875,0.10067l-0.25957,0.06489l-0.18406,0.06135l-0.04887,0.00376l-0.04325,0.02307l-0.09609,0.02402l-0.04945,0.03297l-0.20145,0.07194l-0.18875,0.10067l-0.30613,0.07654h-0.15389l-0.14929,0.03732h-0.10583l-0.64398,0.12879l-0.02067,-0.00098l-0.01898,0.00825l-0.91841,0.15307l-0.01489,-0.00119l-0.01383,0.00563l-0.45121,0.06446l-0.39217,0.11205l-0.32331,0.12932l-0.0852,0.01162l-0.07587,0.04046l-0.59207,0.14802l-0.4896,0.13988l-0.43344,0.14448l-0.02777,0.00214l-0.02412,0.01391l-0.42404,0.12115l-0.3553,0.17765l-0.08783,0.01951l-0.07591,0.0483l-0.42436,0.14146l-0.73124,0.2925l-0.13437,0.01832l-0.12437,0.05408l-0.27381,0.04564l-0.13802,0.06901l-0.16299,0.03622l-0.15088,0.07147l-0.73618,0.14724l-0.27728,0.06932h-0.03048l-0.02755,0.01305l-0.27014,0.05403l-0.27612,0.11044l-0.11459,0.01563l-0.10451,0.04951l-0.35351,0.0707l-0.27728,0.06932h-0.03048l-0.02755,0.01305l-0.73618,0.14723l-0.27728,0.06932h-0.15388l-0.14929,0.03732h-0.02675l-0.03717,0.01239l-0.20034,0.01541l-0.19494,0.04874h-0.38268l-0.01639,-0.0041l-0.05348,0.01189l-0.06062,-0.04042l-0.49451,-0.12362l-0.19019,-0.33284l-0.21111,-0.14074l-1.23247,0.35213l-0.07191,0.0024l-0.06599,0.02869l-0.36246,0.06041l-0.36616,0.12205l-0.20035,0.01541l-0.19493,0.04874h-0.35576l-0.30792,0.05132l-0.51727,0.12932l-0.41367,0.13789l-0.09885,0.0076l-0.09093,0.03954l-0.91842,0.15307l-0.01489,-0.00119l-0.01383,0.00564l-1.07148,0.15307l-0.08949,-0.00926l-0.08728,0.02182h-0.43229l-0.35716,0.05953l-0.10414,-0.00833l-0.10136,0.02534h-0.99495l-0.10136,-0.02534l-0.10414,0.00833l-0.35716,-0.05953h-2.72833l-0.14928,-0.03732h-0.15388l-0.15685,-0.03922h-0.04364l-0.01946,0.01239l-0.3004,0.10013l-0.09033,0.06021l-0.15723,0.05615l-0.14086,0.08964l-0.14532,0.04844l-0.22668,0.11334l-0.13439,0.02987l-0.12147,0.06478l-0.5657,0.14142l-0.18406,0.06135l-0.20034,0.01541l-0.19494,0.04873h-0.02675l-0.03717,0.01239l-0.20035,0.01541l-0.19494,0.04873h-0.68881l-0.14929,-0.03732h-0.15388l-0.27729,-0.06932l-0.35351,-0.0707l-0.07138,-0.03382l-0.07876,-0.00606l-0.45921,-0.15307l-0.07591,-0.0483l-0.08782,-0.01952l-0.03062,-0.01531l-0.25881,-0.05751l-0.35283,0.30242l-0.08012,0.04006l-0.00697,0.01219l-0.03483,0.00871l-0.03115,0.01557l-0.28037,0.06231l-0.27865,0.06966h-0.03483l-0.03504,0.00779l-0.01168,-0.00779h-0.83604l-0.15685,0.03921h-0.15388l-0.14929,0.03732h-3.13791l-0.10136,-0.02534l-0.10414,0.00833l-0.81636,-0.13607h-0.8915l-0.03646,-0.00912l-0.03694,0.00696l-1.30109,-0.07654l-0.05062,-0.01586l-0.05276,0.00546l-0.4478,-0.06397h-1.9776l-0.08729,-0.02183l-0.08949,0.00926l-0.4478,-0.06397h-0.52344l-0.07663,-0.01916l-0.07842,0.00951l-1.83683,-0.22961l-0.02439,-0.00944l-0.02607,0.00208l-0.45921,-0.07654l-0.01898,-0.00825l-0.02067,0.00099l-0.2613,-0.05226h-0.25889l-0.14929,-0.03732h-0.15388l-0.61227,-0.15307l-0.04325,-0.02307l-0.04887,-0.00376l-0.2296,-0.07654l-0.07591,-0.0483l-0.08783,-0.01952l-1.22455,-0.61227l-0.15257,-0.13077l-0.1723,-0.10338l-0.06205,-0.06206l-0.05897,-0.00328l-0.16125,-0.18813l-0.04701,-0.04029l-0.02134,-0.00118l-0.05528,-0.0645l-0.0645,-0.05528l-0.00118,-0.02135l-0.04029,-0.047l-0.047,-0.04028l-0.02135,-0.00119l-0.05528,-0.06449l-0.0645,-0.05528l-0.00118,-0.02135l-0.04029,-0.047l-0.18813,-0.16126l-0.00328,-0.05897l-0.73988,-0.73988l-0.12661,-0.08441l-0.14237,-0.1566l-0.16426,-0.13346l-0.17631,-0.23507l-0.39639,-0.39639l-0.10338,-0.1723l-0.13077,-0.15257l-0.06235,-0.12471l-0.1627,-0.1627l-0.10339,-0.1723l-0.13076,-0.15256l-0.13889,-0.27778l-0.00964,-0.00964l-0.10338,-0.1723l-0.13077,-0.15256l-0.11827,-0.23653l-0.1099,-0.16485l-0.02657,-0.07439l-0.0514,-0.05997l-0.04006,-0.08012l-0.01219,-0.00696l-0.00871,-0.03483l-0.01557,-0.03116l-0.06123,-0.27552l-0.32145,-0.64289l-0.01952,-0.08783l-0.0483,-0.07591l-0.04844,-0.14532l-0.11334,-0.22669l-0.02986,-0.13438l-0.06478,-0.12147l-0.15307,-0.61228v-0.03047l-0.01305,-0.02755l-0.06127,-0.30636l-0.05192,-0.15577l-0.01542,-0.20034l-0.04873,-0.19494v-0.0731l-0.00687,-0.03093l-0.06966,-0.27864v-0.03483l-0.00779,-0.03505l0.00779,-0.01168v-0.14723l-0.11575,-0.46299v-0.03048l-0.01304,-0.02754l-0.15307,-0.76535l0.00592,-0.12436l-0.03019,-0.12078v-0.38267l0.15625,-0.625l0.04285,-0.02449l0.00274,-0.04928l0.03551,-0.03044l-0.22451,-0.07484l-0.07591,-0.0483l-0.08783,-0.01951l-0.12885,-0.06442c-0.19448,-0.0922 -0.36136,-0.23311 -0.4849,-0.40698l-0.02846,-0.02439l-0.00106,-0.01905c-0.12702,-0.19565 -0.20078,-0.42908 -0.20078,-0.67972zM260.29418,245.87355l0.15575,-0.05192l0.04887,-0.00376l0.04324,-0.02307l0.09609,-0.02402l0.04946,-0.03297l0.15723,-0.05616l0.03177,-0.02021l-0.42071,0.14024z" fill="#632817" stroke-width="0.5"/><path d="M210.25904,239.32146c-4.41614,-0.18171 -9.58824,-0.26644 -10.56332,-5.45011c-0.13567,-0.72126 0.02001,-2.27493 0.16079,-3.00602c0.19899,-1.0334 0.67116,-2.00915 1.19291,-2.92309c2.50968,-2.50968 6.10508,-3.37576 9.49975,-4.13209c6.74265,-1.50227 13.62317,-1.28339 20.28868,-2.94977c3.1498,-0.35583 6.54503,-0.50885 9.67336,-0.90082c6.35412,-0.79615 12.94493,-2.08823 19.38138,-1.28368c3.86372,-0.00779 14.79952,0.47341 12.25809,7.1284c-1.47908,3.87313 -8.34041,5.80705 -11.74595,7.50982c-2.24724,1.27635 -5.38981,1.21244 -7.41389,2.50234c-1.47008,0.93685 -0.99244,2.59228 -3.15662,3.04974c-1.91962,0.40577 -2.4691,-1.33005 -3.96929,-1.57569c-1.58389,-0.25934 -2.60779,4.56962 -4.60398,4.78386c-2.26947,0.24357 -2.58049,-2.66432 -4.49715,-3.04789c-2.13439,-0.34802 -1.73713,1.36929 -2.04982,3.13397c-0.48624,2.74408 -0.75089,9.10172 -4.2639,9.33542c-3.39521,0.22586 -5.35989,-4.62851 -6.00042,-7.1709c-0.07405,-0.29395 -0.21306,-0.66368 -0.3186,-1.04251c-0.725,1.49807 -2.45235,3.16177 -3.47553,3.26206c-3.30713,0.32418 -4.96704,-4.10184 -6.84899,-5.90962c-0.74923,-0.71971 -2.10189,-1.09302 -3.54751,-1.3134z" fill="#f38ec5" stroke-width="0.5"/><path d="M205.08447,229.68569c0,-0.69036 0.55964,-1.25 1.25,-1.25c0.69036,0 1.25,0.55964 1.25,1.25c0,0.69036 -0.55964,1.25 -1.25,1.25c-0.69036,0 -1.25,-0.55964 -1.25,-1.25z" fill="#e1e1e1" stroke-width="0.5"/><path d="M221.99269,228.28726c0,-0.69036 0.55964,-1.25 1.25,-1.25c0.69036,0 1.25,0.55964 1.25,1.25c0,0.69036 -0.55964,1.25 -1.25,1.25c-0.69036,0 -1.25,-0.55964 -1.25,-1.25z" fill="#e1e1e1" stroke-width="0.5"/><path d="M212.9665,235.40652c0,-0.69036 0.55964,-1.25 1.25,-1.25c0.69036,0 1.25,0.55964 1.25,1.25c0,0.69036 -0.55964,1.25 -1.25,1.25c-0.69036,0 -1.25,-0.55964 -1.25,-1.25z" fill="#e1e1e1" stroke-width="0.5"/><path d="M256.31763,225.36325c0,-0.69036 0.55964,-1.25 1.25,-1.25c0.69036,0 1.25,0.55964 1.25,1.25c0,0.69036 -0.55964,1.25 -1.25,1.25c-0.69036,0 -1.25,-0.55964 -1.25,-1.25z" fill="#e1e1e1" stroke-width="0.5"/><path d="M265.85233,223.32925c0,-0.69036 0.55964,-1.25 1.25,-1.25c0.69036,0 1.25,0.55964 1.25,1.25c0,0.69036 -0.55964,1.25 -1.25,1.25c-0.69036,0 -1.25,-0.55964 -1.25,-1.25z" fill="#e1e1e1" stroke-width="0.5"/><path d="M213.60214,250.40778c0,-0.69036 0.55964,-1.25 1.25,-1.25c0.69036,0 1.25,0.55964 1.25,1.25c0,0.69036 -0.55964,1.25 -1.25,1.25c-0.69036,0 -1.25,-0.55964 -1.25,-1.25z" fill="#e1e1e1" stroke-width="0.5"/><path d="M208.26271,243.92421c0,-0.69036 0.55964,-1.25 1.25,-1.25c0.69036,0 1.25,0.55964 1.25,1.25c0,0.69036 -0.55964,1.25 -1.25,1.25c-0.69036,0 -1.25,-0.55964 -1.25,-1.25z" fill="#e1e1e1" stroke-width="0.5"/><path d="M248.81699,246.8482c0,-0.69036 0.55964,-1.25 1.25,-1.25c0.69036,0 1.25,0.55964 1.25,1.25c0,0.69036 -0.55964,1.25 -1.25,1.25c-0.69036,0 -1.25,-0.55964 -1.25,-1.25z" fill="#e1e1e1" stroke-width="0.5"/><path d="M236.86683,251.17056c0,-0.69036 0.55964,-1.25 1.25,-1.25c0.69036,0 1.25,0.55964 1.25,1.25c0,0.69036 -0.55964,1.25 -1.25,1.25c-0.69036,0 -1.25,-0.55964 -1.25,-1.25z" fill="#e1e1e1" stroke-width="0.5"/><path d="M245.51163,242.5258c0,-0.69036 0.55964,-1.25 1.25,-1.25c0.69036,0 1.25,0.55964 1.25,1.25c0,0.69036 -0.55964,1.25 -1.25,1.25c-0.69036,0 -1.25,-0.55964 -1.25,-1.25z" fill="#e1e1e1" stroke-width="0.5"/><path d="M256.44476,245.32263c0,-0.69036 0.55964,-1.25 1.25,-1.25c0.69036,0 1.25,0.55964 1.25,1.25c0,0.69036 -0.55964,1.25 -1.25,1.25c-0.69036,0 -1.25,-0.55964 -1.25,-1.25z" fill="#e1e1e1" stroke-width="0.5"/><path d="M258.3517,237.18632c0,-0.69036 0.55964,-1.25 1.25,-1.25c0.69036,0 1.25,0.55964 1.25,1.25c0,0.69036 -0.55964,1.25 -1.25,1.25c-0.69036,0 -1.25,-0.55964 -1.25,-1.25z" fill="#e1e1e1" stroke-width="0.5"/><path d="M265.34382,239.85611c0,-0.69036 0.55964,-1.25 1.25,-1.25c0.69036,0 1.25,0.55964 1.25,1.25c0,0.69036 -0.55964,1.25 -1.25,1.25c-0.69036,0 -1.25,-0.55964 -1.25,-1.25z" fill="#e1e1e1" stroke-width="0.5"/><path d="M222.37407,233.37247c0,-0.69036 0.55964,-1.25 1.25,-1.25c0.69036,0 1.25,0.55964 1.25,1.25c0,0.69036 -0.55964,1.25 -1.25,1.25c-0.69036,0 -1.25,-0.55964 -1.25,-1.25z" fill="#19da44" stroke-width="0.5"/><path d="M246.2744,222.82074c0,-0.69036 0.55964,-1.25 1.25,-1.25c0.69036,0 1.25,0.55964 1.25,1.25c0,0.69036 -0.55964,1.25 -1.25,1.25c-0.69036,0 -1.25,-0.55964 -1.25,-1.25z" fill="#19da44" stroke-width="0.5"/><path d="M262.6741,227.77875c0,-0.69036 0.55964,-1.25 1.25,-1.25c0.69036,0 1.25,0.55964 1.25,1.25c0,0.69036 -0.55964,1.25 -1.25,1.25c-0.69036,0 -1.25,-0.55964 -1.25,-1.25z" fill="#19da44" stroke-width="0.5"/><path d="M213.8564,226.76171c0,-0.69036 0.55964,-1.25 1.25,-1.25c0.69036,0 1.25,0.55964 1.25,1.25c0,0.69036 -0.55964,1.25 -1.25,1.25c-0.69036,0 -1.25,-0.55964 -1.25,-1.25z" fill="#469cff" stroke-width="0.5"/><path d="M251.74097,231.21125c0,-0.69036 0.55964,-1.25 1.25,-1.25c0.69036,0 1.25,0.55964 1.25,1.25c0,0.69036 -0.55964,1.25 -1.25,1.25c-0.69036,0 -1.25,-0.55964 -1.25,-1.25z" fill="#469cff" stroke-width="0.5"/><path d="M260.25864,221.42228c0,-0.69036 0.55964,-1.25 1.25,-1.25c0.69036,0 1.25,0.55964 1.25,1.25c0,0.69036 -0.55964,1.25 -1.25,1.25c-0.69036,0 -1.25,-0.55964 -1.25,-1.25z" fill="#469cff" stroke-width="0.5"/><path d="M226.18796,244.05137c0,-0.69036 0.55964,-1.25 1.25,-1.25c0.69036,0 1.25,0.55964 1.25,1.25c0,0.69036 -0.55964,1.25 -1.25,1.25c-0.69036,0 -1.25,-0.55964 -1.25,-1.25z" fill="#469cff" stroke-width="0.5"/><path d="M203.94031,235.40652c0,-0.69036 0.55964,-1.25 1.25,-1.25c0.69036,0 1.25,0.55964 1.25,1.25c0,0.69036 -0.55964,1.25 -1.25,1.25c-0.69036,0 -1.25,-0.55964 -1.25,-1.25z" fill="#ff4848" stroke-width="0.5"/><path d="M228.47629,235.40652c0,-0.69036 0.55964,-1.25 1.25,-1.25c0.69036,0 1.25,0.55964 1.25,1.25c0,0.69036 -0.55964,1.25 -1.25,1.25c-0.69036,0 -1.25,-0.55964 -1.25,-1.25z" fill="#ff4848" stroke-width="0.5"/><path d="M250.72393,225.87187c0,-0.69036 0.55964,-1.25 1.25,-1.25c0.69036,0 1.25,0.55964 1.25,1.25c0,0.69036 -0.55964,1.25 -1.25,1.25c-0.69036,0 -1.25,-0.55964 -1.25,-1.25z" fill="#ff4848" stroke-width="0.5"/><path d="M257.46179,230.95699c0,-0.69036 0.55964,-1.25 1.25,-1.25c0.69036,0 1.25,0.55964 1.25,1.25c0,0.69036 -0.55964,1.25 -1.25,1.25c-0.69036,0 -1.25,-0.55964 -1.25,-1.25z" fill="#ff4848" stroke-width="0.5"/><path d="M229.23906,248.11946c0,-0.69036 0.55964,-1.25 1.25,-1.25c0.69036,0 1.25,0.55964 1.25,1.25c0,0.69036 -0.55964,1.25 -1.25,1.25c-0.69036,0 -1.25,-0.55964 -1.25,-1.25z" fill="#ff4848" stroke-width="0.5"/><path d="M227.96777,224.47347c0,-0.69036 0.55964,-1.25 1.25,-1.25c0.69036,0 1.25,0.55964 1.25,1.25c0,0.69036 -0.55964,1.25 -1.25,1.25c-0.69036,0 -1.25,-0.55964 -1.25,-1.25z" fill="#ff4848" stroke-width="0.5"/><path d="M210.16965,230.70271c0,-0.69036 0.55964,-1.25 1.25,-1.25c0.69036,0 1.25,0.55964 1.25,1.25c0,0.69036 -0.55964,1.25 -1.25,1.25c-0.69036,0 -1.25,-0.55964 -1.25,-1.25z" fill="#ed66ff" stroke-width="0.5"/><path d="M218.1788,240.8731c0,-0.69036 0.55964,-1.25 1.25,-1.25c0.69036,0 1.25,0.55964 1.25,1.25c0,0.69036 -0.55964,1.25 -1.25,1.25c-0.69036,0 -1.25,-0.55964 -1.25,-1.25z" fill="#ed66ff" stroke-width="0.5"/><path d="M231.01887,242.39863c0,-0.69036 0.55964,-1.25 1.25,-1.25c0.69036,0 1.25,0.55964 1.25,1.25c0,0.69036 -0.55964,1.25 -1.25,1.25c-0.69036,0 -1.25,-0.55964 -1.25,-1.25z" fill="#ed66ff" stroke-width="0.5"/><path d="M253.64791,220.91376c0,-0.69036 0.55964,-1.25 1.25,-1.25c0.69036,0 1.25,0.55964 1.25,1.25c0,0.69036 -0.55964,1.25 -1.25,1.25c-0.69036,0 -1.25,-0.55964 -1.25,-1.25z" fill="#ed66ff" stroke-width="0.5"/><path d="M229.23906,230.1942c0,-0.69036 0.55964,-1.25 1.25,-1.25c0.69036,0 1.25,0.55964 1.25,1.25c0,0.69036 -0.55964,1.25 -1.25,1.25c-0.69036,0 -1.25,-0.55964 -1.25,-1.25z" fill="#ed66ff" stroke-width="0.5"/><path d="M239.91793,223.32925c0,-0.69036 0.55964,-1.25 1.25,-1.25c0.69036,0 1.25,0.55964 1.25,1.25c0,0.69036 -0.55964,1.25 -1.25,1.25c-0.69036,0 -1.25,-0.55964 -1.25,-1.25z" fill="#ed66ff" stroke-width="0.5"/><path d="M236.48544,234.26242c0,-0.69036 0.55964,-1.25 1.25,-1.25c0.69036,0 1.25,0.55964 1.25,1.25c0,0.69036 -0.55964,1.25 -1.25,1.25c-0.69036,0 -1.25,-0.55964 -1.25,-1.25z" fill="#ed66ff" stroke-width="0.5"/><path d="M220.84852,237.18632c0,-0.69036 0.55964,-1.25 1.25,-1.25c0.69036,0 1.25,0.55964 1.25,1.25c0,0.69036 -0.55964,1.25 -1.25,1.25c-0.69036,0 -1.25,-0.55964 -1.25,-1.25z" fill="#e1e1e1" stroke-width="0.5"/><path d="M216.14473,231.33839c0,-0.69036 0.55964,-1.25 1.25,-1.25c0.69036,0 1.25,0.55964 1.25,1.25c0,0.69036 -0.55964,1.25 -1.25,1.25c-0.69036,0 -1.25,-0.55964 -1.25,-1.25z" fill="#ff4848" stroke-width="0.5"/><path d="M221.65642,249.6388c0,-0.69036 0.55964,-1.25 1.25,-1.25c0.69036,0 1.25,0.55964 1.25,1.25c0,0.69036 -0.55964,1.25 -1.25,1.25c-0.69036,0 -1.25,-0.55964 -1.25,-1.25z" fill="#e1e1e1" stroke-width="0.5"/><path d="M236.89959,244.55773c0,-0.69036 0.55964,-1.25 1.25,-1.25c0.69036,0 1.25,0.55964 1.25,1.25c0,0.69036 -0.55964,1.25 -1.25,1.25c-0.69036,0 -1.25,-0.55964 -1.25,-1.25z" fill="#e1e1e1" stroke-width="0.5"/></g></g></svg>