<svg version="1.1" xmlns="http://www.w3.org/2000/svg" xmlns:xlink="http://www.w3.org/1999/xlink" width="778.31897" height="338.5436" viewBox="0,0,778.31897,338.5436"><g transform="translate(122.94384,-305.13836)"><g data-paper-data="{&quot;isPaintingLayer&quot;:true}" fill-rule="nonzero" stroke-linejoin="miter" stroke-miterlimit="10" stroke-dasharray="" stroke-dashoffset="0" style="mix-blend-mode: normal"><g><g><g><g><g><g><path d="M433.63529,339.27131l38.66338,-16.87687l34.87886,16.87687z" fill="#a7a7a7" stroke="none" stroke-width="0" stroke-linecap="butt"/><path d="M506.97295,339.27131l-38.35653,16.97915l-35.18571,-16.97915z" data-paper-data="{&quot;index&quot;:null}" fill="#bebebe" stroke="none" stroke-width="0" stroke-linecap="butt"/><path d="M468.40992,356.1645l-35.62431,-16.80917l39.63065,-16.91998l35.6243,16.80917z" fill="none" stroke="#a7a7a7" stroke-width="0.5" stroke-linecap="round"/><path d="M433.09436,339.2496l74.58323,-0.06871" fill="none" stroke="#a7a7a7" stroke-width="0.5" stroke-linecap="round"/></g><g><path d="M473.55515,322.24836l38.66338,-16.87687l34.87886,16.87687z" fill="#a7a7a7" stroke="none" stroke-width="0" stroke-linecap="butt"/><path d="M546.8928,322.24836l-38.35653,16.97915l-35.18571,-16.97915z" data-paper-data="{&quot;index&quot;:null}" fill="#bebebe" stroke="none" stroke-width="0" stroke-linecap="butt"/><path d="M508.32977,339.14153l-35.62431,-16.80917l39.63065,-16.91998l35.6243,16.80917z" fill="none" stroke="#a7a7a7" stroke-width="0.5" stroke-linecap="round"/><path d="M547.59744,322.15793l-74.58323,0.06871" fill="none" stroke="#a7a7a7" stroke-width="0.5" stroke-linecap="round"/></g></g><g><g><path d="M354.45273,373.06477l38.66338,-16.87687l34.87886,16.87687z" fill="#a7a7a7" stroke="none" stroke-width="0" stroke-linecap="butt"/><path d="M427.79041,373.06477l-38.35653,16.97915l-35.18571,-16.97915z" data-paper-data="{&quot;index&quot;:null}" fill="#bebebe" stroke="none" stroke-width="0" stroke-linecap="butt"/><path d="M389.22734,389.95795l-35.62431,-16.80917l39.63063,-16.91998l35.6243,16.80916z" fill="none" stroke="#a7a7a7" stroke-width="0.5" stroke-linecap="round"/><path d="M353.9118,373.04305l74.58323,-0.06871" fill="none" stroke="#a7a7a7" stroke-width="0.5" stroke-linecap="round"/></g><g><path d="M394.37259,356.04181l38.66338,-16.87687l34.87886,16.87687z" fill="#a7a7a7" stroke="none" stroke-width="0" stroke-linecap="butt"/><path d="M467.71026,356.04181l-38.35653,16.97915l-35.18571,-16.97915z" data-paper-data="{&quot;index&quot;:null}" fill="#bebebe" stroke="none" stroke-width="0" stroke-linecap="butt"/><path d="M429.14721,372.93498l-35.62431,-16.80917l39.63065,-16.91998l35.6243,16.80917z" fill="none" stroke="#a7a7a7" stroke-width="0.5" stroke-linecap="round"/><path d="M468.41489,355.95138l-74.58323,0.06871" fill="none" stroke="#a7a7a7" stroke-width="0.5" stroke-linecap="round"/></g></g></g><g><g><g><path d="M274.97812,407.02013l38.66338,-16.87687l34.87886,16.87687z" fill="#a7a7a7" stroke="none" stroke-width="0" stroke-linecap="butt"/><path d="M348.31577,407.02013l-38.35653,16.97915l-35.18571,-16.97915z" data-paper-data="{&quot;index&quot;:null}" fill="#bebebe" stroke="none" stroke-width="0" stroke-linecap="butt"/><path d="M309.75274,423.9133l-35.62431,-16.80917l39.63065,-16.91998l35.6243,16.80916z" fill="none" stroke="#a7a7a7" stroke-width="0.5" stroke-linecap="round"/><path d="M349.0204,406.9297l-74.58323,0.06871" fill="none" stroke="#a7a7a7" stroke-width="0.5" stroke-linecap="round"/></g><g><path d="M314.89797,389.99716l38.66338,-16.87687l34.87886,16.87687z" fill="#a7a7a7" stroke="none" stroke-width="0" stroke-linecap="butt"/><path d="M388.23561,389.99716l-38.35653,16.97915l-35.18571,-16.97915z" data-paper-data="{&quot;index&quot;:null}" fill="#bebebe" stroke="none" stroke-width="0" stroke-linecap="butt"/><path d="M349.67259,406.89034l-35.62431,-16.80917l39.63065,-16.91998l35.6243,16.80917z" fill="none" stroke="#a7a7a7" stroke-width="0.5" stroke-linecap="round"/><path d="M388.94026,389.90673l-74.58323,0.06871" fill="none" stroke="#a7a7a7" stroke-width="0.5" stroke-linecap="round"/></g></g><g><g><path d="M195.79556,440.81356l38.66338,-16.87687l34.87886,16.87687z" fill="#a7a7a7" stroke="none" stroke-width="0" stroke-linecap="butt"/><path d="M269.13322,440.81356l-38.35653,16.97915l-35.18571,-16.97915z" data-paper-data="{&quot;index&quot;:null}" fill="#bebebe" stroke="none" stroke-width="0" stroke-linecap="butt"/><path d="M230.57018,457.70673l-35.62431,-16.80917l39.63065,-16.91998l35.6243,16.80916z" fill="none" stroke="#a7a7a7" stroke-width="0.5" stroke-linecap="round"/><path d="M269.83787,440.72316l-74.58323,0.06871" fill="none" stroke="#a7a7a7" stroke-width="0.5" stroke-linecap="round"/></g><g><path d="M235.71541,423.79061l38.66338,-16.87687l34.87886,16.87687z" fill="#a7a7a7" stroke="none" stroke-width="0" stroke-linecap="butt"/><path d="M309.05308,423.79061l-38.35653,16.97915l-35.18571,-16.97915z" data-paper-data="{&quot;index&quot;:null}" fill="#bebebe" stroke="none" stroke-width="0" stroke-linecap="butt"/><path d="M270.49003,440.68379l-35.62431,-16.80917l39.63065,-16.91998l35.6243,16.80916z" fill="none" stroke="#a7a7a7" stroke-width="0.5" stroke-linecap="round"/><path d="M309.75772,423.70018l-74.58323,0.06871" fill="none" stroke="#a7a7a7" stroke-width="0.5" stroke-linecap="round"/></g></g></g></g><g><g><g><g><path d="M116.35556,474.67987l38.66338,-16.87687l34.87886,16.87687z" fill="#a7a7a7" stroke="none" stroke-width="0" stroke-linecap="butt"/><path d="M189.69323,474.67987l-38.35651,16.97915l-35.18571,-16.97915z" data-paper-data="{&quot;index&quot;:null}" fill="#bebebe" stroke="none" stroke-width="0" stroke-linecap="butt"/><path d="M151.13019,491.57304l-35.6243,-16.80917l39.63063,-16.91998l35.6243,16.80917z" fill="none" stroke="#a7a7a7" stroke-width="0.5" stroke-linecap="round"/><path d="M190.39787,474.58945l-74.58323,0.06871" fill="none" stroke="#a7a7a7" stroke-width="0.5" stroke-linecap="round"/></g><g><path d="M156.27541,457.6569l38.66338,-16.87687l34.87886,16.87687z" fill="#a7a7a7" stroke="none" stroke-width="0" stroke-linecap="butt"/><path d="M229.61309,457.6569l-38.35651,16.97915l-35.18571,-16.97915z" data-paper-data="{&quot;index&quot;:null}" fill="#bebebe" stroke="none" stroke-width="0" stroke-linecap="butt"/><path d="M191.05004,474.55009l-35.6243,-16.80917l39.63063,-16.91998l35.6243,16.80916z" fill="none" stroke="#a7a7a7" stroke-width="0.5" stroke-linecap="round"/><path d="M230.31772,457.56647l-74.58323,0.06871" fill="none" stroke="#a7a7a7" stroke-width="0.5" stroke-linecap="round"/></g></g><g><g><path d="M37.17302,508.47333l38.66338,-16.87687l34.87886,16.87687z" fill="#a7a7a7" stroke="none" stroke-width="0" stroke-linecap="butt"/><path d="M110.51067,508.47333l-38.35651,16.97915l-35.18571,-16.97915z" data-paper-data="{&quot;index&quot;:null}" fill="#bebebe" stroke="none" stroke-width="0" stroke-linecap="butt"/><path d="M71.94763,525.36649l-35.6243,-16.80917l39.63063,-16.91998l35.6243,16.80916z" fill="none" stroke="#a7a7a7" stroke-width="0.5" stroke-linecap="round"/><path d="M111.21531,508.38289l-74.58323,0.06871" fill="none" stroke="#a7a7a7" stroke-width="0.5" stroke-linecap="round"/></g><g><path d="M77.09287,491.45033l38.66338,-16.87687l34.87886,16.87687z" fill="#a7a7a7" stroke="none" stroke-width="0" stroke-linecap="butt"/><path d="M150.43053,491.45033l-38.35651,16.97915l-35.18571,-16.97915z" data-paper-data="{&quot;index&quot;:null}" fill="#bebebe" stroke="none" stroke-width="0" stroke-linecap="butt"/><path d="M111.86749,508.34354l-35.6243,-16.80917l39.63063,-16.91998l35.6243,16.80917z" fill="none" stroke="#a7a7a7" stroke-width="0.5" stroke-linecap="round"/><path d="M76.55192,491.42864l74.58323,-0.06871" fill="none" stroke="#a7a7a7" stroke-width="0.5" stroke-linecap="round"/></g></g></g><g><g><g><path d="M-42.30162,542.42866l38.66338,-16.87687l34.87886,16.87687z" fill="#a7a7a7" stroke="none" stroke-width="0" stroke-linecap="butt"/><path d="M31.03606,542.42866l-38.35653,16.97915l-35.18571,-16.97915z" data-paper-data="{&quot;index&quot;:null}" fill="#bebebe" stroke="none" stroke-width="0" stroke-linecap="butt"/><path d="M-7.52699,559.32186l-35.62431,-16.80917l39.63065,-16.91998l35.6243,16.80916z" fill="none" stroke="#a7a7a7" stroke-width="0.5" stroke-linecap="round"/><path d="M-42.84254,542.40694l74.58323,-0.06871" fill="none" stroke="#a7a7a7" stroke-width="0.5" stroke-linecap="round"/></g><g><path d="M-2.38177,525.40572l38.66338,-16.87687l34.87886,16.87687z" fill="#a7a7a7" stroke="none" stroke-width="0" stroke-linecap="butt"/><path d="M70.95591,525.40572l-38.35653,16.97915l-35.18571,-16.97915z" data-paper-data="{&quot;index&quot;:null}" fill="#bebebe" stroke="none" stroke-width="0" stroke-linecap="butt"/><path d="M32.39286,542.29889l-35.62431,-16.80917l39.63065,-16.91998l35.6243,16.80917z" fill="none" stroke="#a7a7a7" stroke-width="0.5" stroke-linecap="round"/><path d="M71.66054,525.31527l-74.58323,0.06871" fill="none" stroke="#a7a7a7" stroke-width="0.5" stroke-linecap="round"/></g></g><g><g><path d="M-121.48419,576.22213l38.66338,-16.87687l34.87886,16.87687z" fill="#a7a7a7" stroke="none" stroke-width="0" stroke-linecap="butt"/><path d="M-48.1465,576.22213l-38.35651,16.97915l-35.18571,-16.97915z" data-paper-data="{&quot;index&quot;:null}" fill="#bebebe" stroke="none" stroke-width="0" stroke-linecap="butt"/><path d="M-86.70954,593.11531l-35.6243,-16.80917l39.63063,-16.91998l35.6243,16.80917z" fill="none" stroke="#a7a7a7" stroke-width="0.5" stroke-linecap="round"/><path d="M-47.44187,576.13169l-74.58323,0.06871" fill="none" stroke="#a7a7a7" stroke-width="0.5" stroke-linecap="round"/></g><g><path d="M-81.56433,559.19917l38.66338,-16.87687l34.87886,16.87687z" fill="#a7a7a7" stroke="none" stroke-width="0" stroke-linecap="butt"/><path d="M-8.22665,559.19917l-38.35653,16.97915l-35.18571,-16.97915z" data-paper-data="{&quot;index&quot;:null}" fill="#bebebe" stroke="none" stroke-width="0" stroke-linecap="butt"/><path d="M-46.78968,576.09234l-35.6243,-16.80917l39.63063,-16.91998l35.6243,16.80916z" fill="none" stroke="#a7a7a7" stroke-width="0.5" stroke-linecap="round"/><path d="M-82.10526,559.17745l74.58323,-0.06871" fill="none" stroke="#a7a7a7" stroke-width="0.5" stroke-linecap="round"/></g></g></g></g></g><g><g><g><g><g><path d="M469.2563,356.06692l38.66338,-16.87687l34.87886,16.87687z" fill="#a7a7a7" stroke="none" stroke-width="0" stroke-linecap="butt"/><path d="M542.59397,356.06692l-38.35653,16.97915l-35.18571,-16.97915z" data-paper-data="{&quot;index&quot;:null}" fill="#bebebe" stroke="none" stroke-width="0" stroke-linecap="butt"/><path d="M504.03092,372.96011l-35.62431,-16.80917l39.63065,-16.91998l35.6243,16.80916z" fill="none" stroke="#a7a7a7" stroke-width="0.5" stroke-linecap="round"/><path d="M468.71537,356.0452l74.58323,-0.06871" fill="none" stroke="#a7a7a7" stroke-width="0.5" stroke-linecap="round"/></g><g><path d="M509.17615,339.04396l38.66338,-16.87687l34.87886,16.87687z" fill="#a7a7a7" stroke="none" stroke-width="0" stroke-linecap="butt"/><path d="M582.51382,339.04396l-38.35651,16.97915l-35.18571,-16.97915z" data-paper-data="{&quot;index&quot;:null}" fill="#bebebe" stroke="none" stroke-width="0" stroke-linecap="butt"/><path d="M543.95076,355.93713l-35.62431,-16.80917l39.63065,-16.91998l35.6243,16.80917z" fill="none" stroke="#a7a7a7" stroke-width="0.5" stroke-linecap="round"/><path d="M508.63523,339.02225l74.58323,-0.06871" fill="none" stroke="#a7a7a7" stroke-width="0.5" stroke-linecap="round"/></g></g><g><g><path d="M390.07375,389.86037l38.66338,-16.87687l34.87886,16.87687z" fill="#a7a7a7" stroke="none" stroke-width="0" stroke-linecap="butt"/><path d="M463.41141,389.86037l-38.35653,16.97915l-35.18571,-16.97915z" data-paper-data="{&quot;index&quot;:null}" fill="#bebebe" stroke="none" stroke-width="0" stroke-linecap="butt"/><path d="M424.84838,406.75356l-35.62431,-16.80917l39.63065,-16.91998l35.6243,16.80917z" fill="none" stroke="#a7a7a7" stroke-width="0.5" stroke-linecap="round"/><path d="M464.11605,389.76995l-74.58323,0.06871" fill="none" stroke="#a7a7a7" stroke-width="0.5" stroke-linecap="round"/></g><g><path d="M429.99361,372.83742l38.66338,-16.87687l34.87886,16.87687z" fill="#a7a7a7" stroke="none" stroke-width="0" stroke-linecap="butt"/><path d="M503.33126,372.83742l-38.35651,16.97915l-35.18571,-16.97915z" data-paper-data="{&quot;index&quot;:null}" fill="#bebebe" stroke="none" stroke-width="0" stroke-linecap="butt"/><path d="M464.76823,389.73058l-35.62431,-16.80917l39.63065,-16.91998l35.6243,16.80916z" fill="none" stroke="#a7a7a7" stroke-width="0.5" stroke-linecap="round"/><path d="M504.0359,372.74699l-74.58323,0.06871" fill="none" stroke="#a7a7a7" stroke-width="0.5" stroke-linecap="round"/></g></g></g><g><g><g><path d="M310.59912,423.81574l38.66338,-16.87687l34.87886,16.87687z" fill="#a7a7a7" stroke="none" stroke-width="0" stroke-linecap="butt"/><path d="M383.93679,423.81574l-38.35653,16.97915l-35.18571,-16.97915z" data-paper-data="{&quot;index&quot;:null}" fill="#bebebe" stroke="none" stroke-width="0" stroke-linecap="butt"/><path d="M345.37374,440.70889l-35.62431,-16.80917l39.63065,-16.91998l35.6243,16.80916z" fill="none" stroke="#a7a7a7" stroke-width="0.5" stroke-linecap="round"/><path d="M384.64143,423.72531l-74.58323,0.06871" fill="none" stroke="#a7a7a7" stroke-width="0.5" stroke-linecap="round"/></g><g><path d="M350.51897,406.79276l38.66336,-16.87687l34.87886,16.87687z" fill="#a7a7a7" stroke="none" stroke-width="0" stroke-linecap="butt"/><path d="M423.85664,406.79276l-38.35651,16.97915l-35.18571,-16.97915z" data-paper-data="{&quot;index&quot;:null}" fill="#bebebe" stroke="none" stroke-width="0" stroke-linecap="butt"/><path d="M385.2936,423.68595l-35.62431,-16.80917l39.63063,-16.91998l35.6243,16.80917z" fill="none" stroke="#a7a7a7" stroke-width="0.5" stroke-linecap="round"/><path d="M424.56128,406.70232l-74.58323,0.06871" fill="none" stroke="#a7a7a7" stroke-width="0.5" stroke-linecap="round"/></g></g><g><g><path d="M231.41658,457.60919l38.66338,-16.87687l34.87886,16.87687z" fill="#a7a7a7" stroke="none" stroke-width="0" stroke-linecap="butt"/><path d="M304.75423,457.60919l-38.35653,16.97915l-35.18571,-16.97915z" data-paper-data="{&quot;index&quot;:null}" fill="#bebebe" stroke="none" stroke-width="0" stroke-linecap="butt"/><path d="M266.1912,474.50236l-35.62431,-16.80917l39.63065,-16.91998l35.6243,16.80917z" fill="none" stroke="#a7a7a7" stroke-width="0.5" stroke-linecap="round"/><path d="M230.87564,457.58746l74.58323,-0.06871" fill="none" stroke="#a7a7a7" stroke-width="0.5" stroke-linecap="round"/></g><g><path d="M271.33643,440.58621l38.66338,-16.87687l34.87886,16.87687z" fill="#a7a7a7" stroke="none" stroke-width="0" stroke-linecap="butt"/><path d="M344.67408,440.58621l-38.35653,16.97915l-35.18571,-16.97915z" data-paper-data="{&quot;index&quot;:null}" fill="#bebebe" stroke="none" stroke-width="0" stroke-linecap="butt"/><path d="M306.11105,457.47938l-35.62431,-16.80917l39.63065,-16.91998l35.6243,16.80916z" fill="none" stroke="#a7a7a7" stroke-width="0.5" stroke-linecap="round"/><path d="M345.37872,440.49578l-74.58323,0.06871" fill="none" stroke="#a7a7a7" stroke-width="0.5" stroke-linecap="round"/></g></g></g></g><g><g><g><g><path d="M151.97658,491.47548l38.66338,-16.87687l34.87886,16.87687z" fill="#a7a7a7" stroke="none" stroke-width="0" stroke-linecap="butt"/><path d="M225.31424,491.47548l-38.35651,16.97915l-35.18571,-16.97915z" data-paper-data="{&quot;index&quot;:null}" fill="#bebebe" stroke="none" stroke-width="0" stroke-linecap="butt"/><path d="M186.7512,508.36863l-35.6243,-16.80917l39.63065,-16.91998l35.6243,16.80917z" fill="none" stroke="#a7a7a7" stroke-width="0.5" stroke-linecap="round"/><path d="M151.43564,491.45376l74.58323,-0.06871" fill="none" stroke="#a7a7a7" stroke-width="0.5" stroke-linecap="round"/></g><g><path d="M191.89643,474.45251l38.66338,-16.87687l34.87886,16.87687z" fill="#a7a7a7" stroke="none" stroke-width="0" stroke-linecap="butt"/><path d="M265.23409,474.45251l-38.35653,16.97915l-35.18571,-16.97915z" data-paper-data="{&quot;index&quot;:null}" fill="#bebebe" stroke="none" stroke-width="0" stroke-linecap="butt"/><path d="M226.67106,491.34569l-35.62431,-16.80917l39.63063,-16.91998l35.6243,16.80917z" fill="none" stroke="#a7a7a7" stroke-width="0.5" stroke-linecap="round"/><path d="M191.35549,474.43079l74.58323,-0.06871" fill="none" stroke="#a7a7a7" stroke-width="0.5" stroke-linecap="round"/></g></g><g><g><path d="M72.79402,525.26892l38.66338,-16.87687l34.87886,16.87687z" fill="#a7a7a7" stroke="none" stroke-width="0" stroke-linecap="butt"/><path d="M146.13169,525.26892l-38.35651,16.97915l-35.18571,-16.97915z" data-paper-data="{&quot;index&quot;:null}" fill="#bebebe" stroke="none" stroke-width="0" stroke-linecap="butt"/><path d="M107.56865,542.1621l-35.6243,-16.80917l39.63065,-16.91998l35.6243,16.80917z" fill="none" stroke="#a7a7a7" stroke-width="0.5" stroke-linecap="round"/><path d="M146.83633,525.1785l-74.58323,0.06871" fill="none" stroke="#a7a7a7" stroke-width="0.5" stroke-linecap="round"/></g><g><path d="M112.71387,508.24596l38.66338,-16.87687l34.87886,16.87687z" fill="#a7a7a7" stroke="none" stroke-width="0" stroke-linecap="butt"/><path d="M186.05154,508.24596l-38.35651,16.97915l-35.18571,-16.97915z" data-paper-data="{&quot;index&quot;:null}" fill="#bebebe" stroke="none" stroke-width="0" stroke-linecap="butt"/><path d="M147.48849,525.13914l-35.62431,-16.80917l39.63065,-16.91998l35.6243,16.80916z" fill="none" stroke="#a7a7a7" stroke-width="0.5" stroke-linecap="round"/><path d="M186.75618,508.15553l-74.58323,0.06871" fill="none" stroke="#a7a7a7" stroke-width="0.5" stroke-linecap="round"/></g></g></g><g><g><g><path d="M-6.68061,559.22428l38.66338,-16.87687l34.87886,16.87687z" fill="#a7a7a7" stroke="none" stroke-width="0" stroke-linecap="butt"/><path d="M66.65706,559.22428l-38.35653,16.97915l-35.18571,-16.97915z" data-paper-data="{&quot;index&quot;:null}" fill="#bebebe" stroke="none" stroke-width="0" stroke-linecap="butt"/><path d="M28.09402,576.11747l-35.62431,-16.80917l39.63065,-16.91998l35.6243,16.80917z" fill="none" stroke="#a7a7a7" stroke-width="0.5" stroke-linecap="round"/><path d="M67.36169,559.13385l-74.58323,0.06871" fill="none" stroke="#a7a7a7" stroke-width="0.5" stroke-linecap="round"/></g><g><path d="M33.23925,542.20132l38.66338,-16.87687l34.87886,16.87687z" fill="#a7a7a7" stroke="none" stroke-width="0" stroke-linecap="butt"/><path d="M106.57691,542.20132l-38.35651,16.97915l-35.18571,-16.97915z" data-paper-data="{&quot;index&quot;:null}" fill="#bebebe" stroke="none" stroke-width="0" stroke-linecap="butt"/><path d="M68.01388,559.09449l-35.62431,-16.80917l39.63065,-16.91998l35.6243,16.80916z" fill="none" stroke="#a7a7a7" stroke-width="0.5" stroke-linecap="round"/><path d="M32.69831,542.1796l74.58323,-0.06871" fill="none" stroke="#a7a7a7" stroke-width="0.5" stroke-linecap="round"/></g></g><g><g><path d="M-85.86316,593.01773l38.66338,-16.87687l34.87886,16.87687z" fill="#a7a7a7" stroke="none" stroke-width="0" stroke-linecap="butt"/><path d="M-12.52548,593.01773l-38.35653,16.97915l-35.18571,-16.97915z" data-paper-data="{&quot;index&quot;:null}" fill="#bebebe" stroke="none" stroke-width="0" stroke-linecap="butt"/><path d="M-51.08853,609.91092l-35.6243,-16.80917l39.63063,-16.91998l35.6243,16.80916z" fill="none" stroke="#a7a7a7" stroke-width="0.5" stroke-linecap="round"/><path d="M-11.82085,592.92731l-74.58323,0.06871" fill="none" stroke="#a7a7a7" stroke-width="0.5" stroke-linecap="round"/></g><g><path d="M-45.94331,575.99474l38.66338,-16.87687l34.87886,16.87687z" fill="#a7a7a7" stroke="none" stroke-width="0" stroke-linecap="butt"/><path d="M27.39437,575.99474l-38.35651,16.97915l-35.18571,-16.97915z" data-paper-data="{&quot;index&quot;:null}" fill="#bebebe" stroke="none" stroke-width="0" stroke-linecap="butt"/><path d="M-11.16868,592.88794l-35.62431,-16.80917l39.63065,-16.91998l35.6243,16.80916z" fill="none" stroke="#a7a7a7" stroke-width="0.5" stroke-linecap="round"/><path d="M28.099,575.90435l-74.58323,0.06871" fill="none" stroke="#a7a7a7" stroke-width="0.5" stroke-linecap="round"/></g></g></g></g></g></g><g><g><g><g><g><g><path d="M504.81899,372.76834l38.66338,-16.87687l34.87886,16.87687z" fill="#a7a7a7" stroke="none" stroke-width="0" stroke-linecap="butt"/><path d="M578.15665,372.76834l-38.35651,16.97915l-35.18571,-16.97915z" data-paper-data="{&quot;index&quot;:null}" fill="#bebebe" stroke="none" stroke-width="0" stroke-linecap="butt"/><path d="M539.59362,389.66153l-35.62431,-16.80917l39.63065,-16.91998l35.6243,16.80917z" fill="none" stroke="#a7a7a7" stroke-width="0.5" stroke-linecap="round"/><path d="M504.27805,372.74663l74.58323,-0.06871" fill="none" stroke="#a7a7a7" stroke-width="0.5" stroke-linecap="round"/></g><g><path d="M544.73884,355.74539l38.66336,-16.87687l34.87886,16.87687z" fill="#a7a7a7" stroke="none" stroke-width="0" stroke-linecap="butt"/><path d="M618.0765,355.74539l-38.35651,16.97915l-35.18571,-16.97915z" data-paper-data="{&quot;index&quot;:null}" fill="#bebebe" stroke="none" stroke-width="0" stroke-linecap="butt"/><path d="M579.51347,372.63856l-35.6243,-16.80917l39.63063,-16.91998l35.6243,16.80917z" fill="none" stroke="#a7a7a7" stroke-width="0.5" stroke-linecap="round"/><path d="M618.78114,355.65496l-74.58323,0.06871" fill="none" stroke="#a7a7a7" stroke-width="0.5" stroke-linecap="round"/></g></g><g><g><path d="M425.63641,406.56178l38.66338,-16.87687l34.87886,16.87687z" fill="#a7a7a7" stroke="none" stroke-width="0" stroke-linecap="butt"/><path d="M498.97411,406.56178l-38.35651,16.97915l-35.18571,-16.97915z" data-paper-data="{&quot;index&quot;:null}" fill="#bebebe" stroke="none" stroke-width="0" stroke-linecap="butt"/><path d="M460.41106,423.45498l-35.62431,-16.80917l39.63065,-16.91998l35.6243,16.80916z" fill="none" stroke="#a7a7a7" stroke-width="0.5" stroke-linecap="round"/><path d="M425.09549,406.54008l74.58323,-0.06871" fill="none" stroke="#a7a7a7" stroke-width="0.5" stroke-linecap="round"/></g><g><path d="M465.55629,389.53884l38.66338,-16.87687l34.87886,16.87687z" fill="#a7a7a7" stroke="none" stroke-width="0" stroke-linecap="butt"/><path d="M538.89396,389.53884l-38.35653,16.97915l-35.18571,-16.97915z" data-paper-data="{&quot;index&quot;:null}" fill="#bebebe" stroke="none" stroke-width="0" stroke-linecap="butt"/><path d="M500.33091,406.43201l-35.62431,-16.80917l39.63065,-16.91998l35.6243,16.80917z" fill="none" stroke="#a7a7a7" stroke-width="0.5" stroke-linecap="round"/><path d="M465.01536,389.51712l74.58323,-0.06871" fill="none" stroke="#a7a7a7" stroke-width="0.5" stroke-linecap="round"/></g></g></g><g><g><g><path d="M346.16182,440.51716l38.66338,-16.87687l34.87886,16.87687z" fill="#a7a7a7" stroke="none" stroke-width="0" stroke-linecap="butt"/><path d="M419.49947,440.51716l-38.35653,16.97915l-35.18571,-16.97915z" data-paper-data="{&quot;index&quot;:null}" fill="#bebebe" stroke="none" stroke-width="0" stroke-linecap="butt"/><path d="M380.93644,457.41033l-35.62431,-16.80917l39.63063,-16.91998l35.6243,16.80916z" fill="none" stroke="#a7a7a7" stroke-width="0.5" stroke-linecap="round"/><path d="M345.62086,440.49544l74.58323,-0.06871" fill="none" stroke="#a7a7a7" stroke-width="0.5" stroke-linecap="round"/></g><g><path d="M386.08167,423.49417l38.66338,-16.87687l34.87886,16.87687z" fill="#a7a7a7" stroke="none" stroke-width="0" stroke-linecap="butt"/><path d="M459.41932,423.49417l-38.35653,16.97915l-35.18571,-16.97915z" data-paper-data="{&quot;index&quot;:null}" fill="#bebebe" stroke="none" stroke-width="0" stroke-linecap="butt"/><path d="M420.85629,440.38737l-35.62431,-16.80917l39.63065,-16.91998l35.6243,16.80917z" fill="none" stroke="#a7a7a7" stroke-width="0.5" stroke-linecap="round"/><path d="M385.54073,423.47247l74.58323,-0.06871" fill="none" stroke="#a7a7a7" stroke-width="0.5" stroke-linecap="round"/></g></g><g><g><path d="M266.97926,474.31061l38.66338,-16.87687l34.87886,16.87687z" fill="#a7a7a7" stroke="none" stroke-width="0" stroke-linecap="butt"/><path d="M340.31693,474.31061l-38.35651,16.97915l-35.18571,-16.97915z" data-paper-data="{&quot;index&quot;:null}" fill="#bebebe" stroke="none" stroke-width="0" stroke-linecap="butt"/><path d="M301.75388,491.20378l-35.6243,-16.80917l39.63063,-16.91998l35.6243,16.80916z" fill="none" stroke="#a7a7a7" stroke-width="0.5" stroke-linecap="round"/><path d="M266.43833,474.2889l74.58323,-0.06871" fill="none" stroke="#a7a7a7" stroke-width="0.5" stroke-linecap="round"/></g><g><path d="M306.89911,457.28764l38.66338,-16.87687l34.87886,16.87687z" fill="#a7a7a7" stroke="none" stroke-width="0" stroke-linecap="butt"/><path d="M380.23678,457.28764l-38.35653,16.97915l-35.18571,-16.97915z" data-paper-data="{&quot;index&quot;:null}" fill="#bebebe" stroke="none" stroke-width="0" stroke-linecap="butt"/><path d="M341.67373,474.18082l-35.6243,-16.80917l39.63063,-16.91998l35.6243,16.80916z" fill="none" stroke="#a7a7a7" stroke-width="0.5" stroke-linecap="round"/><path d="M380.94142,457.19721l-74.58323,0.06871" fill="none" stroke="#a7a7a7" stroke-width="0.5" stroke-linecap="round"/></g></g></g></g><g><g><g><g><path d="M187.53926,508.1769l38.66338,-16.87687l34.87886,16.87687z" fill="#a7a7a7" stroke="none" stroke-width="0" stroke-linecap="butt"/><path d="M260.87693,508.1769l-38.35651,16.97915l-35.18571,-16.97915z" data-paper-data="{&quot;index&quot;:null}" fill="#bebebe" stroke="none" stroke-width="0" stroke-linecap="butt"/><path d="M222.31388,525.07006l-35.6243,-16.80917l39.63065,-16.91998l35.6243,16.80916z" fill="none" stroke="#a7a7a7" stroke-width="0.5" stroke-linecap="round"/><path d="M186.99834,508.15519l74.58323,-0.06871" fill="none" stroke="#a7a7a7" stroke-width="0.5" stroke-linecap="round"/></g><g><path d="M227.45911,491.15393l38.66338,-16.87687l34.87886,16.87687z" fill="#a7a7a7" stroke="none" stroke-width="0" stroke-linecap="butt"/><path d="M300.79678,491.15393l-38.35651,16.97915l-35.18571,-16.97915z" data-paper-data="{&quot;index&quot;:null}" fill="#bebebe" stroke="none" stroke-width="0" stroke-linecap="butt"/><path d="M262.23372,508.0471l-35.6243,-16.80917l39.63063,-16.91998l35.6243,16.80917z" fill="none" stroke="#a7a7a7" stroke-width="0.5" stroke-linecap="round"/><path d="M301.50142,491.0635l-74.58323,0.06871" fill="none" stroke="#a7a7a7" stroke-width="0.5" stroke-linecap="round"/></g></g><g><g><path d="M108.35672,541.97036l38.66338,-16.87687l34.87886,16.87687z" fill="#a7a7a7" stroke="none" stroke-width="0" stroke-linecap="butt"/><path d="M181.69437,541.97036l-38.35651,16.97915l-35.18571,-16.97915z" data-paper-data="{&quot;index&quot;:null}" fill="#bebebe" stroke="none" stroke-width="0" stroke-linecap="butt"/><path d="M143.13134,558.86352l-35.6243,-16.80917l39.63063,-16.91998l35.6243,16.80916z" fill="none" stroke="#a7a7a7" stroke-width="0.5" stroke-linecap="round"/><path d="M182.39901,541.87992l-74.58323,0.06871" fill="none" stroke="#a7a7a7" stroke-width="0.5" stroke-linecap="round"/></g><g><path d="M148.27657,524.94738l38.66338,-16.87687l34.87886,16.87687z" fill="#a7a7a7" stroke="none" stroke-width="0" stroke-linecap="butt"/><path d="M221.61422,524.94738l-38.35651,16.97915l-35.18571,-16.97915z" data-paper-data="{&quot;index&quot;:null}" fill="#bebebe" stroke="none" stroke-width="0" stroke-linecap="butt"/><path d="M183.05119,541.84057l-35.6243,-16.80917l39.63065,-16.91998l35.6243,16.80916z" fill="none" stroke="#a7a7a7" stroke-width="0.5" stroke-linecap="round"/><path d="M147.73562,524.92566l74.58323,-0.06871" fill="none" stroke="#a7a7a7" stroke-width="0.5" stroke-linecap="round"/></g></g></g><g><g><g><path d="M28.88207,575.9257l38.66338,-16.87687l34.87886,16.87687z" fill="#a7a7a7" stroke="none" stroke-width="0" stroke-linecap="butt"/><path d="M102.21975,575.9257l-38.35651,16.97915l-35.18571,-16.97915z" data-paper-data="{&quot;index&quot;:null}" fill="#bebebe" stroke="none" stroke-width="0" stroke-linecap="butt"/><path d="M63.65671,592.81889l-35.6243,-16.80917l39.63063,-16.91998l35.6243,16.80916z" fill="none" stroke="#a7a7a7" stroke-width="0.5" stroke-linecap="round"/><path d="M28.34116,575.90397l74.58323,-0.06871" fill="none" stroke="#a7a7a7" stroke-width="0.5" stroke-linecap="round"/></g><g><path d="M68.80193,558.90275l38.66336,-16.87687l34.87886,16.87687z" fill="#a7a7a7" stroke="none" stroke-width="0" stroke-linecap="butt"/><path d="M142.13961,558.90275l-38.35651,16.97915l-35.18571,-16.97915z" data-paper-data="{&quot;index&quot;:null}" fill="#bebebe" stroke="none" stroke-width="0" stroke-linecap="butt"/><path d="M103.57656,575.79591l-35.6243,-16.80917l39.63063,-16.91998l35.6243,16.80916z" fill="none" stroke="#a7a7a7" stroke-width="0.5" stroke-linecap="round"/><path d="M142.84423,558.8123l-74.58323,0.06871" fill="none" stroke="#a7a7a7" stroke-width="0.5" stroke-linecap="round"/></g></g><g><g><path d="M-50.30046,609.71915l38.66338,-16.87687l34.87886,16.87687z" fill="#a7a7a7" stroke="none" stroke-width="0" stroke-linecap="butt"/><path d="M23.03719,609.71915l-38.35651,16.97915l-35.18571,-16.97915z" data-paper-data="{&quot;index&quot;:null}" fill="#bebebe" stroke="none" stroke-width="0" stroke-linecap="butt"/><path d="M-15.52584,626.61234l-35.62431,-16.80917l39.63063,-16.91998l35.6243,16.80916z" fill="none" stroke="#a7a7a7" stroke-width="0.5" stroke-linecap="round"/><path d="M-50.84141,609.69744l74.58323,-0.06871" fill="none" stroke="#a7a7a7" stroke-width="0.5" stroke-linecap="round"/></g><g><path d="M-10.38061,592.6962l38.66338,-16.87687l34.87886,16.87687z" fill="#a7a7a7" stroke="none" stroke-width="0" stroke-linecap="butt"/><path d="M62.95705,592.6962l-38.35651,16.97915l-35.18571,-16.97915z" data-paper-data="{&quot;index&quot;:null}" fill="#bebebe" stroke="none" stroke-width="0" stroke-linecap="butt"/><path d="M24.39402,609.58935l-35.62431,-16.80917l39.63063,-16.91998l35.6243,16.80916z" fill="none" stroke="#a7a7a7" stroke-width="0.5" stroke-linecap="round"/><path d="M-10.92156,592.67448l74.58323,-0.06871" fill="none" stroke="#a7a7a7" stroke-width="0.5" stroke-linecap="round"/></g></g></g></g></g><g><g><g><g><g><path d="M540.44,389.56395l38.66336,-16.87687l34.87886,16.87687z" fill="#a7a7a7" stroke="none" stroke-width="0" stroke-linecap="butt"/><path d="M613.77767,389.56395l-38.35651,16.97915l-35.18571,-16.97915z" data-paper-data="{&quot;index&quot;:null}" fill="#bebebe" stroke="none" stroke-width="0" stroke-linecap="butt"/><path d="M575.21462,406.45714l-35.62431,-16.80917l39.63065,-16.91998l35.6243,16.80916z" fill="none" stroke="#a7a7a7" stroke-width="0.5" stroke-linecap="round"/><path d="M614.4823,389.47352l-74.58323,0.06871" fill="none" stroke="#a7a7a7" stroke-width="0.5" stroke-linecap="round"/></g><g><path d="M580.35985,372.54099l38.66336,-16.87687l34.87886,16.87687z" fill="#a7a7a7" stroke="none" stroke-width="0" stroke-linecap="butt"/><path d="M653.69752,372.54099l-38.35651,16.97915l-35.18571,-16.97915z" data-paper-data="{&quot;index&quot;:null}" fill="#bebebe" stroke="none" stroke-width="0" stroke-linecap="butt"/><path d="M615.13447,389.43416l-35.6243,-16.80917l39.63065,-16.91998l35.6243,16.80917z" fill="none" stroke="#a7a7a7" stroke-width="0.5" stroke-linecap="round"/><path d="M579.81893,372.51928l74.58323,-0.06871" fill="none" stroke="#a7a7a7" stroke-width="0.5" stroke-linecap="round"/></g></g><g><g><path d="M461.25745,423.3574l38.66338,-16.87687l34.87886,16.87687z" fill="#a7a7a7" stroke="none" stroke-width="0" stroke-linecap="butt"/><path d="M534.59511,423.3574l-38.35653,16.97915l-35.18571,-16.97915z" data-paper-data="{&quot;index&quot;:null}" fill="#bebebe" stroke="none" stroke-width="0" stroke-linecap="butt"/><path d="M496.03208,440.25059l-35.62431,-16.80917l39.63065,-16.91998l35.6243,16.80917z" fill="none" stroke="#a7a7a7" stroke-width="0.5" stroke-linecap="round"/><path d="M535.29974,423.26697l-74.58323,0.06871" fill="none" stroke="#a7a7a7" stroke-width="0.5" stroke-linecap="round"/></g><g><path d="M501.1773,406.33443l38.66338,-16.87687l34.87886,16.87687z" fill="#a7a7a7" stroke="none" stroke-width="0" stroke-linecap="butt"/><path d="M574.51495,406.33443l-38.35653,16.97915l-35.18571,-16.97915z" data-paper-data="{&quot;index&quot;:null}" fill="#bebebe" stroke="none" stroke-width="0" stroke-linecap="butt"/><path d="M535.95193,423.2276l-35.62431,-16.80917l39.63065,-16.91998l35.6243,16.80916z" fill="none" stroke="#a7a7a7" stroke-width="0.5" stroke-linecap="round"/><path d="M500.63637,406.31273l74.58323,-0.06871" fill="none" stroke="#a7a7a7" stroke-width="0.5" stroke-linecap="round"/></g></g></g><g><g><g><path d="M381.78282,457.31275l38.66338,-16.87687l34.87886,16.87687z" fill="#a7a7a7" stroke="none" stroke-width="0" stroke-linecap="butt"/><path d="M455.12049,457.31275l-38.35653,16.97915l-35.18571,-16.97915z" data-paper-data="{&quot;index&quot;:null}" fill="#bebebe" stroke="none" stroke-width="0" stroke-linecap="butt"/><path d="M416.55743,474.20594l-35.62431,-16.80917l39.63065,-16.91998l35.6243,16.80916z" fill="none" stroke="#a7a7a7" stroke-width="0.5" stroke-linecap="round"/><path d="M455.82513,457.22234l-74.58323,0.06871" fill="none" stroke="#a7a7a7" stroke-width="0.5" stroke-linecap="round"/></g><g><path d="M421.70267,440.28979l38.66338,-16.87687l34.87886,16.87687z" fill="#a7a7a7" stroke="none" stroke-width="0" stroke-linecap="butt"/><path d="M495.04034,440.28979l-38.35653,16.97915l-35.18571,-16.97915z" data-paper-data="{&quot;index&quot;:null}" fill="#bebebe" stroke="none" stroke-width="0" stroke-linecap="butt"/><path d="M456.4773,457.18298l-35.62431,-16.80917l39.63065,-16.91998l35.6243,16.80917z" fill="none" stroke="#a7a7a7" stroke-width="0.5" stroke-linecap="round"/><path d="M495.74498,440.19937l-74.58323,0.06871" fill="none" stroke="#a7a7a7" stroke-width="0.5" stroke-linecap="round"/></g></g><g><g><path d="M302.60028,491.10622l38.66338,-16.87687l34.87886,16.87687z" fill="#a7a7a7" stroke="none" stroke-width="0" stroke-linecap="butt"/><path d="M375.93793,491.10622l-38.35653,16.97915l-35.18571,-16.97915z" data-paper-data="{&quot;index&quot;:null}" fill="#bebebe" stroke="none" stroke-width="0" stroke-linecap="butt"/><path d="M337.3749,507.99939l-35.62431,-16.80917l39.63063,-16.91998l35.6243,16.80916z" fill="none" stroke="#a7a7a7" stroke-width="0.5" stroke-linecap="round"/><path d="M376.64257,491.01579l-74.58323,0.06871" fill="none" stroke="#a7a7a7" stroke-width="0.5" stroke-linecap="round"/></g><g><path d="M342.52013,474.08324l38.66338,-16.87687l34.87886,16.87687z" fill="#a7a7a7" stroke="none" stroke-width="0" stroke-linecap="butt"/><path d="M415.85778,474.08324l-38.35653,16.97915l-35.18571,-16.97915z" data-paper-data="{&quot;index&quot;:null}" fill="#bebebe" stroke="none" stroke-width="0" stroke-linecap="butt"/><path d="M377.29475,490.97643l-35.62431,-16.80917l39.63063,-16.91998l35.6243,16.80916z" fill="none" stroke="#a7a7a7" stroke-width="0.5" stroke-linecap="round"/><path d="M341.97919,474.06153l74.58323,-0.06871" fill="none" stroke="#a7a7a7" stroke-width="0.5" stroke-linecap="round"/></g></g></g></g><g><g><g><g><path d="M223.16028,524.97251l38.66338,-16.87687l34.87886,16.87687z" fill="#a7a7a7" stroke="none" stroke-width="0" stroke-linecap="butt"/><path d="M296.49793,524.97251l-38.35651,16.97915l-35.18571,-16.97915z" data-paper-data="{&quot;index&quot;:null}" fill="#bebebe" stroke="none" stroke-width="0" stroke-linecap="butt"/><path d="M257.9349,541.86568l-35.6243,-16.80917l39.63063,-16.91998l35.6243,16.80916z" fill="none" stroke="#a7a7a7" stroke-width="0.5" stroke-linecap="round"/><path d="M222.61934,524.95079l74.58323,-0.06871" fill="none" stroke="#a7a7a7" stroke-width="0.5" stroke-linecap="round"/></g><g><path d="M263.08013,507.94954l38.66338,-16.87687l34.87886,16.87687z" fill="#a7a7a7" stroke="none" stroke-width="0" stroke-linecap="butt"/><path d="M336.41779,507.94954l-38.35651,16.97915l-35.18571,-16.97915z" data-paper-data="{&quot;index&quot;:null}" fill="#bebebe" stroke="none" stroke-width="0" stroke-linecap="butt"/><path d="M297.85476,524.84272l-35.6243,-16.80917l39.63063,-16.91998l35.6243,16.80916z" fill="none" stroke="#a7a7a7" stroke-width="0.5" stroke-linecap="round"/><path d="M337.12242,507.85911l-74.58323,0.06871" fill="none" stroke="#a7a7a7" stroke-width="0.5" stroke-linecap="round"/></g></g><g><g><path d="M143.97772,558.76593l38.66338,-16.87687l34.87886,16.87687z" fill="#a7a7a7" stroke="none" stroke-width="0" stroke-linecap="butt"/><path d="M217.31538,558.76593l-38.35651,16.97915l-35.18571,-16.97915z" data-paper-data="{&quot;index&quot;:null}" fill="#bebebe" stroke="none" stroke-width="0" stroke-linecap="butt"/><path d="M178.75234,575.65913l-35.6243,-16.80917l39.63065,-16.91998l35.6243,16.80916z" fill="none" stroke="#a7a7a7" stroke-width="0.5" stroke-linecap="round"/><path d="M143.4368,558.74421l74.58323,-0.06871" fill="none" stroke="#a7a7a7" stroke-width="0.5" stroke-linecap="round"/></g><g><path d="M183.89757,541.74297l38.66338,-16.87687l34.87886,16.87687z" fill="#a7a7a7" stroke="none" stroke-width="0" stroke-linecap="butt"/><path d="M257.23524,541.74297l-38.35651,16.97915l-35.18571,-16.97915z" data-paper-data="{&quot;index&quot;:null}" fill="#bebebe" stroke="none" stroke-width="0" stroke-linecap="butt"/><path d="M218.6722,558.63617l-35.62431,-16.80917l39.63065,-16.91998l35.6243,16.80916z" fill="none" stroke="#a7a7a7" stroke-width="0.5" stroke-linecap="round"/><path d="M257.93988,541.65256l-74.58323,0.06871" fill="none" stroke="#a7a7a7" stroke-width="0.5" stroke-linecap="round"/></g></g></g><g><g><g><path d="M64.5031,592.72131l38.66338,-16.87687l34.87886,16.87687z" fill="#a7a7a7" stroke="none" stroke-width="0" stroke-linecap="butt"/><path d="M137.84074,592.72131l-38.35651,16.97915l-35.18571,-16.97915z" data-paper-data="{&quot;index&quot;:null}" fill="#bebebe" stroke="none" stroke-width="0" stroke-linecap="butt"/><path d="M99.27773,609.61446l-35.6243,-16.80917l39.63063,-16.91998l35.6243,16.80916z" fill="none" stroke="#a7a7a7" stroke-width="0.5" stroke-linecap="round"/><path d="M138.54539,592.63088l-74.58323,0.06871" fill="none" stroke="#a7a7a7" stroke-width="0.5" stroke-linecap="round"/></g><g><path d="M104.42295,575.69835l38.66338,-16.87687l34.87886,16.87687z" fill="#a7a7a7" stroke="none" stroke-width="0" stroke-linecap="butt"/><path d="M177.76061,575.69835l-38.35651,16.97915l-35.18571,-16.97915z" data-paper-data="{&quot;index&quot;:null}" fill="#bebebe" stroke="none" stroke-width="0" stroke-linecap="butt"/><path d="M139.19756,592.5915l-35.6243,-16.80917l39.63063,-16.91998l35.6243,16.80916z" fill="none" stroke="#a7a7a7" stroke-width="0.5" stroke-linecap="round"/><path d="M178.46524,575.60793l-74.58323,0.06871" fill="none" stroke="#a7a7a7" stroke-width="0.5" stroke-linecap="round"/></g></g><g><g><path d="M-14.67946,626.51476l38.66338,-16.87687l34.87886,16.87687z" fill="#a7a7a7" stroke="none" stroke-width="0" stroke-linecap="butt"/><path d="M58.65821,626.51476l-38.35651,16.97915l-35.18571,-16.97915z" data-paper-data="{&quot;index&quot;:null}" fill="#bebebe" stroke="none" stroke-width="0" stroke-linecap="butt"/><path d="M20.09517,643.40795l-35.62431,-16.80917l39.63065,-16.91998l35.6243,16.80917z" fill="none" stroke="#a7a7a7" stroke-width="0.5" stroke-linecap="round"/><path d="M59.36285,626.42433l-74.58323,0.06871" fill="none" stroke="#a7a7a7" stroke-width="0.5" stroke-linecap="round"/></g><g><path d="M25.24039,609.4918l38.66338,-16.87687l34.87886,16.87687z" fill="#a7a7a7" stroke="none" stroke-width="0" stroke-linecap="butt"/><path d="M98.57807,609.4918l-38.35651,16.97915l-35.18571,-16.97915z" data-paper-data="{&quot;index&quot;:null}" fill="#bebebe" stroke="none" stroke-width="0" stroke-linecap="butt"/><path d="M60.01502,626.38497l-35.6243,-16.80917l39.63063,-16.91998l35.6243,16.80917z" fill="none" stroke="#a7a7a7" stroke-width="0.5" stroke-linecap="round"/><path d="M24.69945,609.47009l74.58323,-0.06871" fill="none" stroke="#a7a7a7" stroke-width="0.5" stroke-linecap="round"/></g></g></g></g></g></g></g></g></svg>