<svg version="1.1" xmlns="http://www.w3.org/2000/svg" xmlns:xlink="http://www.w3.org/1999/xlink" width="313.74341" height="154.48763" viewBox="0,0,313.74341,154.48763"><g transform="translate(64.68394,62.22135)"><g data-paper-data="{&quot;isPaintingLayer&quot;:true}" fill-rule="nonzero" stroke="none" stroke-linecap="butt" stroke-linejoin="miter" stroke-miterlimit="10" stroke-dasharray="" stroke-dashoffset="0" style="mix-blend-mode: normal"><path d="M-64.68394,92.26629v-154.48763h313.74341v154.48763z" fill="none" stroke-width="0"/><g stroke-width="0.5"><g fill-opacity="0.74902" fill="#ff4040"><g><path d="M12.45061,23.56043c0.00423,0.06213 0.00857,0.12426 0.013,0.18637c0,0 0.07125,0.99746 -0.92621,1.06871c-0.99746,0.07125 -1.06871,-0.92621 -1.06871,-0.92621c-0.00751,-0.10521 -0.01544,-0.2118 -0.0237,-0.31968c-0.25484,-0.10779 -0.51513,-0.33845 -0.55285,-0.82877c-0.03713,-0.48265 0.17735,-0.74962 0.40854,-0.89664c-0.28525,-3.30187 -0.61025,-7.27385 0.26863,-10.10091c1.13946,-3.66524 6.34006,-1.82114 8.27089,0.09527c0.64973,1.5561 1.28425,1.82663 -0.25328,3.23633c-0.11219,0.10286 -1.18053,0.50182 -2.17168,0.74375c0.44849,0.22414 0.82719,0.46185 0.90189,0.5068c1.45775,0.87686 3.25204,2.80114 2.5821,4.67998c-0.92951,2.60678 -5.01391,2.46036 -7.44862,2.55501zM12.34887,21.57584c1.72964,-0.01526 4.98915,0.13788 5.68491,-1.29163c0.23687,-0.48667 -0.81615,-1.49716 -1.05418,-1.72705c-0.96661,-0.93358 -4.3874,-1.37935 -4.26739,-3.17655c0.10432,-1.56231 5.43436,-1.3129 4.5055,-2.37264c-0.79692,-0.80921 -3.52113,-1.99033 -4.65625,-1.20601c-0.31079,0.21475 -0.15861,2.11126 -0.16808,2.3878c-0.08413,2.45728 -0.13183,4.92541 -0.04452,7.38609z"/><path d="M25.80616,17.28386c-1.8288,-0.07898 -2.75973,2.02878 -0.70942,2.86098c1.77828,0.72179 2.41355,-1.94403 0.91814,-2.75916zM28.17158,16.81399c1.58221,2.54058 -0.22786,6.57749 -3.79629,5.1962c-2.64727,-1.02472 -3.29463,-4.872 -0.82309,-6.4654c1.38861,-0.89523 2.67187,-0.42773 4.02978,0.14222c0,0 0.79447,0.34049 0.5896,1.12698z"/><path d="M36.31338,19.79418c1.66417,-2.30032 -2.30163,-2.54671 -3.96624,-2.4358c0.03146,1.0433 0.03827,2.08668 0.00629,3.12914c1.1593,-0.05229 3.41494,0.06 3.95995,-0.69334zM35.17956,15.13983c2.09581,0.58685 4.21522,3.6497 2.78795,5.77864c-1.13567,1.69398 -3.9991,1.33278 -5.73396,1.58173l-0.36846,0.00645c-0.15104,0.10018 -0.35456,0.16303 -0.62864,0.14589c-0.99806,-0.06238 -0.93567,-1.06043 -0.93567,-1.06043c0.20727,-3.29344 -0.05314,-6.60448 -0.28788,-9.89089l-0.00254,-0.35972c0,0 0,-1 1,-1c1,0 1,1 1,1l-0.00255,0.21723c0.08751,1.22518 0.17724,2.4532 0.24601,3.68235c0.96017,-0.2361 1.88863,-0.39164 2.92575,-0.10124z"/><path d="M50.57188,13.03963c-0.23891,0.0438 -0.43945,0.00082 -0.43945,0.00082c-0.501,-0.12967 -1.07824,-0.13049 -1.5504,0.08136c-5.38674,2.41688 3.00906,8.59797 3.58006,3.65062c0.06648,-0.57602 -0.04334,-1.09099 -0.12248,-1.65706c-0.35041,-0.98642 -0.7906,-1.64321 -1.46773,-2.07575zM47.69563,11.32553c0.11839,-0.65366 0.84617,-0.75763 0.84617,-0.75763l0.84237,-0.06275c2.47834,0.51832 3.74835,1.76249 4.59694,4.13008c0.18552,1.27921 0.39417,2.62168 -0.21469,3.84859c-3.4649,6.982 -13.96622,-3.76222 -6.07079,-7.15828z"/><path d="M61.55515,14.94822c0.25563,1.28933 0.65987,2.48966 1.6098,3.36723c0.29605,0.0778 0.72568,0.30363 0.72568,0.9591c0,1 -1,1 -1,1l-0.77747,-0.22604c-0.31423,-0.26045 -0.70672,-0.7834 -1.09834,-1.44364c-0.49757,1.36335 -1.41859,2.30632 -3.07517,2.0953c-2.69266,-0.34301 -3.16506,-5.50088 -0.83183,-6.53597c0.7213,-0.31999 1.53935,-0.05288 2.25645,0.23677c-0.12661,-0.74001 -0.1111,-1.39158 0.12371,-1.83266c-0.02007,-0.21725 -0.03699,-0.39067 -0.04602,-0.50563h-0.00337v-1.08178c0,-0.55229 0.44772,-1 1,-1c0.55228,0 1,0.44772 1,1v0.98283c0.04953,0.68665 0.1343,1.78943 0.11655,2.98451zM59.54914,16.58951c-0.16256,-0.01948 -0.27524,-0.06456 -0.27524,-0.06456c-0.46372,-0.19207 -0.92661,-0.60681 -1.41828,-0.50584c-0.4499,0.09239 -0.19801,2.67502 0.32208,2.69525c0.84987,0.03304 1.22709,-0.92109 1.37144,-2.12485z"/><path d="M63.03609,23.97176c0.35113,-0.93633 1.28745,-0.5852 1.28745,-0.5852l0.56217,0.21094c0.63759,0.22927 1.11518,0.44726 1.78834,0.52426c0.72796,0.08327 1.04201,-0.03808 1.76843,-0.25113c2.9582,-0.8676 1.54879,-3.17666 1.08718,-5.13154c-2.00793,2.39132 -4.51163,0.12601 -5.7694,-3.1442c0,0 -0.35898,-0.93334 0.57437,-1.29232c0.93335,-0.35898 1.29232,0.57437 1.29232,0.57437c0.74004,1.9241 1.74408,4.70109 3.05373,1.46921l0.0632,-0.88477c0.03251,-0.52293 0.46692,-0.93698 0.99804,-0.93698c0.39921,0 0.74377,0.23391 0.90412,0.57216l0.56726,1.13453l-0.3055,0.15275c1.18766,2.00996 2.01481,4.69562 1.29336,6.75238c-1.15641,3.29678 -5.34633,3.28259 -7.98813,2.34478l-0.59174,-0.22177c0,0 -0.93633,-0.35112 -0.58521,-1.28745z"/><path d="M72.67058,18.50011c0.34175,-0.9398 1.28154,-0.59805 1.28154,-0.59805l0.59298,0.23832c0.49452,0.07198 2.53077,0.50628 2.91531,-0.00205c0.17534,-0.23179 -0.40328,-0.41866 -0.60724,-0.62572c-0.59319,-0.60224 -1.63934,-1.66343 -1.32471,-2.677c0.62377,-2.00953 2.7615,-1.44646 4.06616,-0.96575c0,0 0.93335,0.35898 0.57437,1.29233c-0.35898,0.93334 -1.29233,0.57437 -1.29233,0.57437c-3.11038,-1.26988 1.27488,1.29523 0.40335,3.23188c-0.82094,1.82423 -3.51285,1.3633 -5.01776,1.15185l-0.99363,-0.33863c0,0 -0.9398,-0.34174 -0.59805,-1.28154z"/><path d="M81.34118,17.55779c0.54493,-0.54494 1.08987,-0.24995 1.31117,-0.08599c0.23969,0.0959 0.47804,0.19551 0.72277,0.27744c4.6505,1.55685 -3.38577,-0.85484 -1.38397,-3.79026c0.63622,-0.93294 4.01614,-0.42237 4.95841,-0.28997c0,0 0.98994,0.14142 0.84852,1.13138c-0.14142,0.98995 -1.13137,0.84852 -1.13137,0.84852c-0.31305,-0.04557 -0.62359,-0.11416 -0.93913,-0.1367c-0.31213,-0.0223 -0.62585,0.00221 -0.93877,0.00252c-3.44516,0.00338 3.48868,0.27178 2.3227,3.41547c-0.86005,2.31885 -3.93885,0.88143 -5.35008,0.34018l-0.42025,-0.29836c0,0 -0.7071,-0.70711 0,-1.41421z"/><path d="M92.77688,17.70522c0.54189,0.13464 1.00239,0.20509 1.09331,0.21096c0,0 0.99778,0.06652 0.93126,1.0643c-0.06652,0.99779 -1.0643,0.93126 -1.0643,0.93126c-2.35355,-0.16131 -7.14276,-2.55459 -3.92832,-5.55572c0.75724,-0.70699 3.97573,-0.95159 4.64461,0.05562c1.22966,1.85164 -0.12458,2.8773 -1.67656,3.29358zM91.00803,15.95877c0.57748,0.15077 0.69345,0.25721 1.30724,-0.01421c0.19358,-0.0856 0.72887,-0.43051 0.55015,-0.3171c-0.5063,0.32124 -1.29756,-0.1102 -1.70184,0.19986c-0.05806,0.04453 -0.1098,0.08834 -0.15554,0.13146z"/><path d="M97.98374,25.91819c0.49614,-0.86825 1.36438,-0.3721 1.36438,-0.3721l0.26635,0.19048c1.62478,0.58416 1.52784,-1.28488 1.48334,-2.53638c-0.03498,-0.98386 -0.3723,-2.68215 -0.45154,-4.21185c-1.05634,1.14154 -2.47825,1.71376 -3.90255,0.23985c-1.10536,-1.14386 -0.79258,-3.58338 -0.69218,-5.00107c0,0 0.07124,-0.99745 1.0687,-0.92621c0.99746,0.07125 0.92621,1.0687 0.92621,1.0687c-0.06523,0.90494 -0.38338,2.69844 0.17325,3.50896c0.71082,1.03505 1.90552,-1.63457 2.02825,-2.03618l0.1351,-1.01329c0.05854,-0.49651 0.48083,-0.88167 0.99307,-0.88167c0.48826,0 0.8948,0.34994 0.98248,0.81269l0.28454,1.35156l-0.01578,0.00332c0.00944,0.02195 0.01873,0.04397 0.02785,0.06608c0.0062,0.01504 0.14364,2.1432 0.14994,2.21456c0.28365,3.21128 1.56299,10.43301 -3.70603,9.2734l-0.74331,-0.38646c0,0 -0.86824,-0.49614 -0.3721,-1.36439z"/><g><path d="M67.36737,5.47954c0.11769,0.64728 -0.52959,0.76496 -0.52959,0.76496l-0.40343,0.06166c-2.42003,0.85563 0.26649,4.75143 1.21816,5.89196c0,0 0.42117,0.50541 -0.08423,0.92658c-0.50541,0.42117 -0.92657,-0.08424 -0.92657,-0.08424c-1.65144,-1.98413 -4.23213,-6.52226 -0.67969,-7.96238l0.64039,-0.12813c0,0 0.64728,-0.11769 0.76497,0.52959z"/><path d="M71.26541,9.94319c0.3811,-0.19055 0.63878,-0.01087 0.77306,0.13941c0.27366,0.08554 0.56443,0.12542 0.84965,0.12326c0.25602,-0.00194 0.51232,0.01277 0.76809,0.00113c2.26207,-0.10297 -1.20621,-2.03973 -1.23126,-3.24835c-0.03933,-1.89706 1.29443,-1.66749 2.4357,-1.08665c0,0 0.57926,0.31191 0.26735,0.89116c-0.3119,0.57925 -0.89117,0.26736 -0.89117,0.26736c-0.19763,-0.11604 -0.4034,-0.55606 -0.56427,-0.39283c-0.12842,0.13031 0.76242,1.09763 0.76668,1.10275c0.68206,0.82188 2.02277,1.84099 1.21833,3.07287c-0.74815,1.14569 -3.25039,0.80909 -4.28668,0.42727l-0.39971,-0.41471c0,0 -0.29421,-0.58844 0.29422,-0.88266z"/><path d="M77.72083,9.14148c0.00246,0.0102 0.00566,0.0203 0.00962,0.03026c0.24935,0.62816 1.27389,0.70506 1.80074,0.65622c0,0 0.65622,-0.04688 0.7031,0.60934c0.04688,0.65622 -0.60935,0.70309 -0.60935,0.70309c-1.69622,0.09636 -4.62298,-1.56377 -2.64508,-3.49581c1.70776,-1.66816 4.51345,0.52365 1.64822,1.74557l-0.03684,0.02184c0,0 -0.57242,0.28621 -0.8704,-0.27052z"/><path d="M84.33601,7.68035c-0.13785,0.64328 -0.78114,0.50544 -0.78114,0.50544l-0.57235,-0.12934c-1.20043,0.05012 -0.72517,1.55035 -0.54254,2.44105c0,0 0.12902,0.64512 -0.5161,0.77414c-0.64512,0.12903 -0.77414,-0.51609 -0.77414,-0.51609c-0.37762,-1.92867 -0.47734,-3.80752 1.92467,-4.01167l0.75615,0.15534c0,0 0.64329,0.13785 0.50544,0.78114z"/><path d="M86.15993,7.59631c0.65789,0 0.65789,0.65789 0.65789,0.65789l-0.00167,0.14177c-0.05146,0.71382 -0.04577,1.42011 -0.04577,2.13566c0,0 -0.00001,0.65789 -0.6579,0.65789c-0.65789,0 -0.65789,-0.65789 -0.65789,-0.65789c0,-0.74687 -0.00365,-1.48423 0.04912,-2.2294l-0.00168,-0.04802c0,0 0.00001,-0.65789 0.6579,-0.65789z"/><path d="M85.26481,5.97678c0,-0.36334 0.29455,-0.65789 0.65789,-0.65789c0.36334,0 0.65789,0.29455 0.65789,0.65789c0,0.36334 -0.29455,0.65789 -0.65789,0.65789c-0.36334,0 -0.65789,-0.29455 -0.65789,-0.65789z"/><path d="M89.71752,9.52296c0.49918,0.34908 1.27813,0.448 1.75747,0.25229c0,0 0.61405,-0.23617 0.85021,0.37787c0.23617,0.61404 -0.37788,0.8502 -0.37788,0.8502c-1.18491,0.43658 -2.38017,0.38876 -3.26031,-0.67227c-1.07006,-1.29 -0.80109,-3.60541 1.13634,-3.86002c2.30799,-0.30331 2.35864,3.17226 -0.10287,3.05068zM89.3261,8.29294l0.20045,-0.07262c0.44912,0.04392 1.13831,0.10347 0.70867,-0.5711c-0.18353,-0.28815 -0.72211,0.23689 -0.86728,0.54615c-0.01547,0.03296 -0.0294,0.06549 -0.04184,0.09758z"/><path d="M92.82446,10.10423c0.14271,-0.64223 0.78494,-0.49951 0.78494,-0.49951l0.37125,0.085c0.20722,0.02971 0.41235,0.08664 0.62167,0.08913c1.73992,0.02072 -0.84078,-0.26082 -1.18529,-1.30182c-0.68459,-2.06866 1.60335,-2.24746 2.81108,-1.6653c0,0 0.58843,0.29421 0.29421,0.88265c-0.29421,0.58844 -0.88265,0.29422 -0.88265,0.29422c-2.29481,-1.20693 0.65874,1.01473 0.68467,1.06581c1.02327,2.01603 -1.25857,2.09763 -2.51759,1.93956l-0.48278,-0.10479c0,0 -0.64223,-0.14272 -0.49952,-0.78495z"/><path d="M98.97973,5.17946c0.4652,-0.4652 0.93039,0 0.93039,0l0.41682,0.47418c1.32702,2.88906 2.79551,4.53893 -0.33855,6.96519c0,0 -0.52146,0.40112 -0.92258,-0.12034c-0.40112,-0.52146 0.12033,-0.92258 0.12033,-0.92258c2.56883,-1.96138 1.03437,-3.02307 -0.05387,-5.37088l-0.15254,-0.09517c0,0 -0.4652,-0.4652 0,-0.93039z"/></g><g><path d="M118.99056,11.20592c1,0 1,1 1,1l-0.00254,0.72032c-0.16546,2.31641 0.02583,4.52043 -0.44156,6.69097l0.22521,0.01609l-0.07153,1.00143c-0.03252,0.52293 -0.46693,0.93699 -0.99805,0.93699c-0.37529,0 -0.70228,-0.20672 -0.87333,-0.51252l-0.49528,-0.84904l0.02015,-0.01176l-0.04953,-0.04237c-0.40531,-0.94163 -1.41094,-2.48936 -2.08205,-3.93919c-0.07364,1.35659 -0.1857,2.71243 -0.28235,4.06552c0,0 -0.07125,0.99746 -1.06871,0.92622c-0.99746,-0.07125 -0.92621,-1.06871 -0.92621,-1.06871c0.15854,-2.21955 0.35842,-4.44598 0.35869,-6.67145l0.01417,-0.03472l-0.01227,-0.00088l0.07153,-1.00143c0.03252,-0.52293 0.46693,-0.93698 0.99805,-0.93698c0.33133,0 0.62501,0.16113 0.80698,0.40931l0.85845,1.14459l-0.22129,0.16597c0.76675,0.9174 1.36333,1.9116 1.89745,2.97816c0.05753,-1.36758 0.23092,-2.76961 0.27656,-3.40869l-0.00254,-0.57782c0,0 0,-1 1,-1z"/><path d="M123.89489,17.89751c0.34829,0.8693 1.10813,1.17163 2.43159,1.32132c0,0 0.99228,0.12403 0.86824,1.11632c-0.12404,0.99228 -1.11632,0.86824 -1.11632,0.86824c-2.86952,-0.38493 -7.01295,-4.73093 -3.52494,-7.40216c1.45113,-1.11133 4.53593,-0.32072 4.19628,1.99323c-0.14924,1.01672 -1.53883,1.50637 -2.29181,1.86291l-0.52997,0.22754c0,0 -0.01172,0.00502 -0.03308,0.01261zM123.6319,15.83609c0.37729,-0.16752 0.76524,-0.3119 1.15782,-0.43952c0.31593,-0.1027 -0.73727,-0.23413 -0.99628,-0.02611c-0.10201,0.08193 -0.14637,0.26381 -0.16154,0.46562z"/><path d="M135.76889,11.96236c0.96476,0.26311 0.70165,1.22788 0.70165,1.22788l-0.18366,0.60144c-0.07287,1.01168 -0.06457,5.39588 -0.74991,5.99639c-1.7104,1.49868 -2.56643,0.19929 -3.39465,-0.90835c-0.04448,-0.05949 -0.09334,-0.13305 -0.14176,-0.21471c-0.18512,0.83402 -0.7459,1.81981 -1.88347,1.66127c-1.29623,-0.18065 -1.74764,-4.21623 -1.8769,-5.17555c0,0 -0.13217,-0.99122 0.85907,-1.12339c0.99123,-0.13217 1.12339,0.85906 1.12339,0.85906c0.02836,0.21525 0.21342,0.84707 0.36578,1.51426c0.25011,-0.40665 0.56979,-0.72733 0.88744,-0.7737c1.18468,-0.17294 1.88052,1.26277 2.30251,2.08315c-0.14933,-1.22503 0.44188,-3.04831 0.51356,-4.06094l0.24905,-0.98517c0,0 0.26311,-0.96476 1.22788,-0.70165z"/><path d="M140.50777,11.66645c0.17889,-0.98387 1.16275,-0.80498 1.16275,-0.80498l0.41831,0.14752c0.96269,-0.18716 1.81993,-0.42998 2.66179,-0.6393c0.00919,-0.2968 0.1257,-0.83548 0.83164,-0.95313c0.66082,-0.11014 0.95272,0.29622 1.07342,0.57647c0.73981,-0.09276 1.51739,-0.11286 2.38824,-0.0054c0,0 0.99228,0.12403 0.86825,1.11631c-0.12403,0.99228 -1.11631,0.86825 -1.11631,0.86825c-0.7168,-0.09088 -1.35962,-0.08235 -1.96889,-0.01306c0.03113,2.10669 0.14683,4.21045 0.27833,6.31453c0,0 0.06238,0.99805 -0.93567,1.06043c-0.99805,0.06238 -1.06043,-0.93567 -1.06043,-0.93567c-0.12555,-2.00888 -0.23471,-4.0172 -0.27445,-6.02811c-0.73827,0.19846 -1.49575,0.42428 -2.35368,0.59985l-1.16831,-0.14095c0,0 -0.98387,-0.17889 -0.80498,-1.16276z"/><path d="M152.19574,13.72092c0.30999,0.14845 0.47711,0.44092 0.47711,0.44092c0.22758,0.42647 0.60222,0.80278 0.68275,1.27942c0.78739,4.66033 -7.04265,3.37366 -5.47649,-0.50512c0.28547,-0.70699 1.39028,-1.34865 2.00054,-1.75928l1.34801,-0.16795c0,0 0.79737,-0.00001 0.96807,0.71201zM150.84456,14.92676c-0.39514,0.23684 -1.45011,0.89594 -1.29108,1.1472c0.52451,0.82864 2.49192,0.82178 1.3829,-0.91984c0,0 -0.05112,-0.08946 -0.09183,-0.22735z"/><path d="M159.95317,11.42483c0.99746,0.07124 0.92622,1.0687 0.92622,1.0687l-0.07212,1.00967c-0.08353,1.1693 0.23779,4.79545 -1.36682,5.16198c-0.64371,0.14704 -1.67379,-0.85606 -2.17137,-1.64399c-0.35299,0.53104 -1.01755,1.09903 -1.47737,1.08114c-0.84181,-0.03275 -1.8974,-2.7088 -2.27129,-3.40297c0,0 -0.4741,-0.88047 0.40637,-1.35457c0.88047,-0.4741 1.35457,0.40637 1.35457,0.40637c0.04641,0.08623 0.45412,0.68418 0.73569,1.25749c0.21552,-0.41137 0.54188,-0.78791 0.84368,-0.82386c0.51207,-0.06099 1.24467,0.40782 1.77543,0.96076c0.04315,-0.77816 0.16239,-1.59163 0.17619,-1.78485l0.07211,-1.00966c0,0 0.07125,-0.99745 1.0687,-0.92621z"/><path d="M165.0745,17.82154c-1,0 -1,-1 -1,-1l0.00557,-0.90432c-0.61558,-3.00529 -0.52972,-0.90615 -0.52972,0.8322c0,0 0,1 -1,1c-1,0 -1,-1 -1,-1c0,-0.76046 -0.28538,-3.25809 0.20165,-3.77542c2.28164,-2.42358 3.95309,1.07803 4.31694,2.73253l0.00556,1.11502c0,0 0,1 -1,1z"/><path d="M105.36976,18.62451c0,-0.55228 0.44772,-1 1,-1c0.55228,0 1,0.44772 1,1c0,0.55228 -0.44772,1 -1,1c-0.55228,0 -1,-0.44771 -1,-1z"/><path d="M104.86493,14.00891c0,-0.55228 0.44772,-1 1,-1c0.55228,0 1,0.44772 1,1c0,0.55228 -0.44772,1 -1,1c-0.55228,0 -1,-0.44772 -1,-1z"/></g></g><g><path d="M10.9472,32.26297c-0.00828,-0.59544 -0.49714,-3.02877 1,-3.02877c1.47579,0 0.99026,2.27994 1,2.90567c0.04348,2.79416 1.09773,7.20213 -0.02478,9.81295c-0.09992,0.4403 -0.49037,0.77025 -0.95915,0.77763c-0.49395,0.17045 -0.98621,0.05955 -0.98621,-0.75636c-0.0195,-0.07795 -0.02986,-0.15952 -0.02986,-0.24351c0,-0.08683 0.01107,-0.17107 0.03187,-0.2514c0.36536,-3.04325 0.01053,-6.16553 -0.03187,-9.2162z"/><path d="M18.94349,31.10917c0.5185,1.11048 2.4078,2.56183 1.57996,3.76671c-0.67504,0.98249 -4.49385,0.90521 -4.92692,-0.394c-0.29814,-0.89443 -0.1118,-1.26711 0.78262,-1.56525c0.53137,-0.17712 1.77433,1.05644 1.59606,0.52545c-0.39483,-1.17601 -1.92929,-2.6723 -0.78026,-4.01283c0.56293,-0.65676 3.97941,-0.40334 3.65118,0.80016c0.02068,0.08011 0.03168,0.16411 0.03168,0.25068c0,0.55228 -0.44772,1 -1,1c-0.13958,0 -0.27249,-0.0286 -0.39317,-0.08026c-0.09865,-0.04222 -0.18913,-0.09985 -0.26842,-0.16986c-0.18576,-0.13232 -0.33405,-0.25213 -0.27274,-0.12081z"/><path d="M26.18708,30.58096c0.04696,0.01044 0.09169,0.02156 0.13426,0.03333c0.03937,0.00945 0.07782,0.02122 0.11522,0.03517c0.4133,0.1391 0.58377,0.34849 0.58448,0.57902c0.04269,0.11121 0.06608,0.23199 0.06608,0.35823c0,0.55228 -0.44772,1 -1,1c-0.17522,0 -0.33991,-0.04506 -0.48312,-0.12423c-0.43209,0.1378 -0.89648,0.17999 -1.28964,0.05696c0.00142,0.06503 0.00344,0.13038 0.00626,0.19603c0.0631,1.47209 1.27619,0.04061 1.98179,0.74621c0.69648,0.69648 -0.11247,1.91977 -0.87229,2.10972c-2.43909,0.60977 -2.99801,-2.1419 -3.2026,-3.80378c-0.01062,-0.08626 -0.3045,-1.86653 0.10833,-2.10243l0.86182,-0.49247c0.56182,0.32104 0.84237,0.72672 0.98155,1.19216c0.008,0.02674 0.01553,0.05368 0.02262,0.0808c0.61052,-0.16684 1.38824,-0.13332 1.8656,0.10537z"/><path d="M37.08194,40.01912l-0.00028,0.00199l-0.00617,0.00446l-0.07593,0.07593l-0.17256,0.10354l-0.16315,0.11783l-0.0997,0.03988l-0.00652,0.00391l-0.00194,-0.00052l-0.10255,0.04102l-0.0978,0.0652l-0.03789,0.01353l-0.01681,0.02942l-0.21853,0.05464l-0.21213,0.07576l-0.0303,-0.01515l-0.03904,0.00975h-1.6599l-0.15595,-0.03898l-0.16027,-0.01233l-0.18444,-0.06148l-0.06073,-0.03864l-0.07026,-0.01561l-0.12296,-0.06148l-0.04798,-0.04113l-0.05951,-0.02125l-0.13263,-0.08842l-0.06727,-0.03364l-0.04798,-0.04113l-0.0595,-0.02125l-0.18444,-0.12296l-0.067,-0.07369l-0.08541,-0.05125l-0.18443,-0.18444l-0.05124,-0.08541l-0.0737,-0.06699l-0.12295,-0.18444l-0.04492,-0.12579l-0.07171,-0.11269l-0.12295,-0.36886l-0.01233,-0.16028l-0.03899,-0.15595v-0.67625l0.03899,-0.15595l0.01233,-0.16028l0.04949,-0.14845l0.0164,-0.06563l0.04984,-0.2243l0.01246,-0.02492l0.00697,-0.02786l0.00975,-0.00558l0.062,-0.12398l0.039,-0.11702l0.10592,-0.16644l0.00424,-0.07635l0.09755,-0.08362l0.06899,-0.1084l0.06092,-0.01219l0.27084,-0.40625l0.0737,-0.067l0.05124,-0.08541l0.05294,-0.05294l0.19099,-0.28648l0.0737,-0.067l0.05125,-0.0854l0.12296,-0.12296l0.08541,-0.05124l0.06699,-0.0737l0.18444,-0.12296l0.05291,-0.0189l0.04059,-0.04059l0.13784,-0.0827l0.12205,-0.10462l0.18755,-0.09378l0.00558,-0.00975l0.02787,-0.00697l0.02492,-0.01246l0.2243,-0.04984l0.22292,-0.05573h0.02787l0.02803,-0.00623l0.00934,0.00623h0.36133l0.00934,-0.00623l0.02804,0.00623h0.02787l0.22291,0.05573l0.2243,0.04984l0.02459,0.0123l0.22133,0.04918l0.02492,0.01246l0.02786,0.00697l0.00557,0.00975l0.55642,0.27821l0.12205,0.10461l0.13784,0.08271l0.03713,0.03713l0.36237,-0.20707l0.875,0.5l0.125,0.5v0.11337l0.11126,0.77882l0.11839,0.71037l0.05365,0.26825l0.02909,0.11633l0.07386,0.14773l0.02389,0.1075l0.05182,0.09717l0.01947,0.07787l0.02688,0.04031l0.04492,0.12579l0.0717,0.11268l0.01913,0.05738l0.04867,0.07301l0.02125,0.05951l0.04113,0.04798l0.06148,0.12296l0.1118,0.50312l-0.55902,0.83853l-1.00623,-0.05591l-0.33541,-0.39131l-0.0148,-0.0296zM36.03378,36.89905l-0.12126,-0.08084l-0.06727,-0.03364l-0.12205,-0.10461l-0.13784,-0.08271l-0.00821,-0.00821l-0.37127,-0.18563l-0.0229,-0.00509h-0.10605l-0.05954,0.03572l-0.12205,0.10462l-0.06727,0.03363l-0.04,0.02667l-0.18416,0.27623l-0.0737,0.067l-0.05125,0.08541l-0.05293,0.05294l-0.30662,0.45992l-0.00085,0.01531l-0.12196,0.10453l-0.00657,0.02957l-0.05956,0.11913l-0.00914,0.11876l-0.01016,0.03048v0.35171l0.02773,0.08318l0.03971,0.0397l0.05024,0.0335l0.06727,0.03363l0.04798,0.04112l0.05951,0.02125l0.11694,0.07796h1.22191l0.07122,-0.05143l0.11681,-0.04673l0.10898,-0.10898l0.2472,-0.49441l0.09056,-0.36224l0.0374,-0.18696v-0.39187c-0.06392,-0.0267 -0.12448,-0.05985 -0.18086,-0.09864z"/><path d="M41.50122,34.44241c2.03768,-0.50942 5.69154,3.23666 4.95768,5.43822c-1.2332,3.69958 -4.42689,-6.24146 -3.75639,-1.71596c0.07261,0.49007 0.18703,0.99419 0.30739,1.47562v0.30739c0,0.55228 -0.44772,1 -1,1c-0.55228,0 -1,-0.44772 -1,-1c0,-0.18437 0.04989,-0.35709 0.13692,-0.50539c-0.92368,-1.69048 -1.46087,-4.54607 0.35439,-4.99988z"/><path d="M47.6433,35.34244c0.10312,-0.52817 0.62271,-0.84518 1.08879,-0.80909c1.3754,0.10648 1.21581,3.10125 1.41942,4.17596c0.01988,0.10492 0.02542,0.21263 0.05132,0.31623v0.67625c0,0.20427 -0.06125,0.39424 -0.16639,0.55254c-0.29841,0.8075 -0.64001,0.8349 -0.97043,0.43818c-0.48756,-0.0667 -0.86318,-0.48484 -0.86318,-0.99072c0,-0.18962 0.05277,-0.36691 0.14443,-0.51798c-0.4813,-1.43686 -0.807,-3.31367 -0.70396,-3.84137z"/><path d="M46.66588,30.66454c0,-0.55229 0.44772,-1 1,-1c0.55228,0 1,0.44771 1,1c0,0.55229 -0.44772,1 -1,1c-0.55228,0 -1,-0.44771 -1,-1z"/></g><g><path d="M32.7418,-4.83256c-0.56593,-0.70742 0.14149,-1.27335 0.14149,-1.27335l0.65325,-0.52065c0.77501,-0.6975 1.57039,-1.34622 2.32607,-2.0441c-0.641,-0.00835 -1.28432,0.04839 -1.93234,0.20277l-0.4403,0.17353c0,0 -0.84826,0.3181 -1.16635,-0.53016c-0.3181,-0.84826 0.53016,-1.16635 0.53016,-1.16635l0.66908,-0.24249c1.26691,-0.28482 2.50121,-0.28569 3.73727,-0.14346c0.0272,-0.27911 0.05074,-0.55805 0.06932,-0.83679c0,0 0.06026,-0.90393 0.96419,-0.84367c0.90393,0.06026 0.84367,0.96419 0.84367,0.96419c-0.0223,0.33453 -0.05228,0.66971 -0.08749,1.00536c0.20659,0.04102 0.41367,0.0841 0.62142,0.12862c0,0 0.88583,0.18983 0.69601,1.07565c-0.18982,0.88583 -1.07565,0.69601 -1.07565,0.69601c-0.15557,-0.03334 -0.31103,-0.06626 -0.4664,-0.09831c-0.21733,1.59014 -0.45317,3.18318 -0.44856,4.75932v0.27734c0,0 0,0.90594 -0.90594,0.90594c-0.90594,0 -0.90594,-0.90594 -0.90594,-0.90594v-0.27734c0.00303,-1.19682 0.13372,-2.39845 0.2893,-3.60078c-0.69014,0.62255 -1.40454,1.21661 -2.10543,1.84742l-0.73346,0.58872c0,0 -0.70743,0.56594 -1.27336,-0.14148z"/><path d="M63.51691,-6.52434c-0.79193,-0.43996 -0.35197,-1.23189 -0.35197,-1.23189l0.49802,-0.82466c0.19945,-0.19901 0.52401,-0.54336 0.83489,-0.8248c-0.19292,-0.0201 -0.38344,-0.04815 -0.52794,-0.05716c-0.6318,-0.03942 -1.22988,-0.07945 -1.8219,-0.13977c-0.18151,1.67697 -0.2664,3.48411 0.25101,4.02412c0.61828,0.64528 2.20774,0.18505 2.94547,0.07091l0.74096,-0.07538c0,0 0.90145,-0.09013 0.99159,0.8113c0.09014,0.90144 -0.81129,0.99159 -0.81129,0.99159l-0.64575,0.06329c-1.00811,0.15428 -2.31607,0.44091 -3.31525,0.10945c-2.14964,-0.71312 -2.15367,-3.68784 -1.90829,-6.25005c-0.17342,-0.03403 -0.34857,-0.0713 -0.52609,-0.11226c0,0 -0.88275,-0.20371 -0.67904,-1.08645c0.20371,-0.88274 1.08645,-0.67903 1.08645,-0.67903c0.10683,0.02466 0.21375,0.04713 0.32072,0.06769c0.04148,-0.36125 0.07677,-0.6929 0.09732,-0.98289c0,0 0.06454,-0.90364 0.96818,-0.83909c0.90364,0.06454 0.83909,0.96818 0.83909,0.96818c-0.01777,0.24665 -0.06538,0.61933 -0.12446,1.06726c0.95501,0.07114 1.90743,0.11332 2.84542,0.32399c0.55834,0.1254 1.37948,-0.02096 1.64679,0.48501c0.77034,1.45813 -1.16953,2.58627 -1.92671,3.34527l-0.19535,0.42339c0,0 -0.43996,0.79194 -1.23189,0.35197z"/><path d="M71.64284,-3.84679c-0.89361,-0.14894 -0.74469,-1.04255 -0.74469,-1.04255l0.05931,-0.33163c0.08752,-1.21489 0.08289,-2.43502 0.07408,-3.65428c-0.62871,0.34045 -1.30892,0.61815 -2.02411,0.84059c0,0 -0.86588,0.26642 -1.1323,-0.59945c-0.26642,-0.86588 0.59945,-1.1323 0.59945,-1.1323c2.03906,-0.61948 3.83183,-1.79353 4.46205,-3.90736l0.04686,-0.25792c0,0 0.17767,-0.88835 1.06601,-0.71068c0.88835,0.17767 0.71068,1.06601 0.71068,1.06601l-0.09181,0.43544c-0.37787,1.19877 -1.01263,2.17573 -1.83199,2.96364c0.00076,1.69517 0.04818,3.39419 -0.07165,5.08541l-0.07936,0.5004c0,0 -0.14893,0.89361 -1.04254,0.74468z"/><g><path d="M51.34369,-3.71082c0,-0.90594 0.90594,-0.90595 0.90594,-0.90595h0.34668c2.8561,0.00835 4.79463,-0.93334 5.20469,-3.86765c0,0 0.12811,-0.89684 1.02495,-0.76871c0.89684,0.12812 0.76871,1.02495 0.76871,1.02495c-0.56092,3.85376 -3.25393,5.41381 -6.99835,5.4233h-0.34668c0,0 -0.90594,0 -0.90594,-0.90594z"/><path d="M54.47923,-10.41464c0.8103,-0.40515 1.21544,0.40514 1.21544,0.40514l0.19426,0.41607c0.18901,0.61559 0.35702,1.23807 0.50221,1.86544c0,0 0.20371,0.88273 -0.67903,1.08644c-0.88274,0.20371 -1.08645,-0.67903 -1.08645,-0.67903c-0.13468,-0.58536 -0.29147,-1.16603 -0.46848,-1.74001l-0.08309,-0.13862c0,0 -0.40515,-0.81029 0.40514,-1.21544z"/><path d="M51.84509,-10.14203c0.88437,-0.19653 1.08089,0.68784 1.08089,0.68784l0.09986,0.49532c0.23954,0.62685 0.4395,1.27069 0.59187,1.92423c0,0 0.2037,0.88274 -0.67904,1.08645c-0.88274,0.20371 -1.08644,-0.67904 -1.08644,-0.67904c-0.13037,-0.57168 -0.30566,-1.13447 -0.5175,-1.68122l-0.17748,-0.75271c0,0 -0.19652,-0.88436 0.68785,-1.08088z"/></g><g><path d="M40.65868,-3.20524c-0.07524,-0.90281 0.82757,-0.97804 0.82757,-0.97804l0.76951,-0.06192c2.01527,-0.23498 2.62689,-2.35682 2.74493,-4.17236c-0.91495,-0.031 -1.82982,-0.05905 -2.74584,-0.05848c0,0 -0.90594,0 -0.90594,-0.90594c0,-0.90594 0.90594,-0.90594 0.90594,-0.90594c2.03536,0.00117 4.06431,0.13867 6.10153,0.13867h0.76269c0,0 0.90595,0 0.90595,0.90594c0,0.90594 -0.90595,0.90594 -0.90595,0.90594h-0.76269c-0.51675,0 -1.033,-0.009 -1.54898,-0.02242c-0.18404,2.71591 -1.30045,5.37822 -4.27612,5.90541l-0.89455,0.07674c0,0 -0.90281,0.07523 -0.97804,-0.82758z"/><path d="M48.20053,-14.15724c0.75379,-0.50253 1.25632,0.25126 1.25632,0.25126l0.13867,0.20801c0.35226,0.5286 0.71452,1.05074 1.08825,1.5644c0,0 0.53284,0.73266 -0.19982,1.26551c-0.73266,0.53285 -1.26551,-0.19982 -1.26551,-0.19982c-0.04392,-0.06042 -0.0877,-0.12095 -0.13133,-0.18158h-0.38405c-2.01345,-0.00123 -4.01538,0.208 -6.0322,0.208c0,0 -0.90594,0 -0.90594,-0.90594c0,-0.90594 0.90594,-0.90595 0.90594,-0.90595c1.73936,0 3.467,-0.15383 5.20131,-0.19691c-0.10404,-0.24519 -0.21871,-0.74226 0.32836,-1.10698z"/><path d="M50.35053,-14.3214c0.64059,-0.64059 1.28119,0 1.28119,0l0.24279,0.24457c0.23112,0.208 0.46224,0.41601 0.69336,0.62401c0,0 0.67338,0.60605 0.06734,1.27942c-0.60604,0.67338 -1.27942,0.06734 -1.27942,0.06734c-0.23112,-0.208 -0.46224,-0.41602 -0.69336,-0.62402l-0.3119,-0.31013c0,0 -0.64059,-0.6406 0,-1.28119z"/></g><g><path d="M29.41866,-12.94584c0.33645,-0.84114 1.1776,-0.50468 1.1776,-0.50468l0.6836,0.37378c0.208,0.23112 0.41601,0.46223 0.62401,0.69335c0,0 0.60605,0.67338 -0.06733,1.27941c-0.46372,0.41735 -0.89552,0.22795 -1.11944,0.06956c0.07699,0.19749 0.08561,0.45118 -0.09079,0.75358c-0.45648,0.78254 -1.23901,0.32606 -1.23901,0.32606c-0.27734,-0.16178 -0.55468,-0.32356 -0.83202,-0.48535l-0.45614,-0.35246c0,0 -0.70742,-0.56593 -0.14149,-1.27335c0.56593,-0.70742 1.27336,-0.14149 1.27336,-0.14149l0.23722,0.20223c0.23746,0.13852 0.47492,0.27704 0.71239,0.41556c-0.08251,-0.09168 -0.16501,-0.18335 -0.24753,-0.27503l-0.00976,0.09643c0,0 -0.84114,-0.33646 -0.50468,-1.1776z"/><path d="M22.07362,-3.38776c0,-0.90594 0.90594,-0.90594 0.90594,-0.90594l0.34238,0.02321c1.45532,0.36905 3.10596,-0.52172 3.98733,-1.73138c0.08872,-0.12176 1.0006,-2.183 0.72487,-2.2009c-1.45474,-0.09442 -3.24915,0.31278 -4.77724,0.31278c0,0 -0.90594,0 -0.90594,-0.90594c0,-0.90594 0.90594,-0.90595 0.90594,-0.90595c1.22016,0 4.63468,-0.71603 5.62309,-0.10323c1.41493,0.87723 1.00566,2.67124 0.47608,3.8691c-1.06227,2.40273 -3.91376,3.97496 -6.44154,3.43098l0.06503,0.02321c0,0 -0.90594,-0.00001 -0.90594,-0.90595z"/></g><g><path d="M20.5841,-9.5409c0,0.90594 -0.90594,0.90594 -0.90594,0.90594h-0.73178c-0.87503,0 -1.75453,-0.02877 -2.63535,-0.07595c-0.10367,2.30908 -0.29124,4.62207 -0.54129,6.90143l0.00554,0.0045c0,0 0,0.90594 -0.90594,0.90594c-0.90594,0 -0.90594,-0.90594 -0.90594,-0.90594l0.00554,-0.20458c0.25327,-2.24774 0.44097,-4.53707 0.5407,-6.82015c-1.27128,-0.09732 -2.54087,-0.21826 -3.79936,-0.33167c0,0 -0.90222,-0.08201 -0.8202,-0.98423c0.08202,-0.90222 0.98424,-0.8202 0.98424,-0.8202c1.22372,0.11227 2.45877,0.23067 3.69559,0.32597c0.01464,-0.64612 0.02173,-1.29071 0.02072,-1.93269c0,0 0,-0.90594 0.90594,-0.90594c0.90594,0 0.90594,0.90594 0.90594,0.90594c-0.00096,0.68213 -0.01039,1.36646 -0.02774,2.05202c0.85964,0.04586 1.71792,0.07368 2.57161,0.07368h0.73178c0,0 0.90594,0 0.90594,0.90594z"/><path d="M13.62823,-7.46345c0.64059,0.64059 0,1.28119 0,1.28119l-0.14392,0.07817c-0.48007,0.95763 -1.01138,1.78967 -1.65364,2.64736c0,0 -0.54357,0.72475 -1.26832,0.18118c-0.72475,-0.54356 -0.18118,-1.26831 -0.18118,-1.26831c0.58007,-0.77213 1.05194,-1.50684 1.48255,-2.37052l0.48331,-0.54907c0,0 0.6406,-0.64059 1.28119,0z"/><path d="M20.10968,-3.04608c-0.64059,0.64059 -1.28119,0 -1.28119,0l-0.42793,-0.56319c-0.33869,-1.01745 -0.72967,-1.96876 -0.96577,-3.01706c0,0 -0.19653,-0.88437 0.68784,-1.08089c0.88437,-0.19653 1.08089,0.68784 1.08089,0.68784c0.21562,0.98577 0.5967,1.88067 0.91593,2.83715l-0.00977,-0.14504c0,0 0.64059,0.6406 0,1.28119z"/><path d="M18.27132,-13.85812c0.90594,0 0.90594,0.90594 0.90594,0.90594v0.9707c0,0 0,0.90594 -0.90594,0.90594c-0.90594,0 -0.90594,-0.90594 -0.90594,-0.90594v-0.9707c0,0 0,-0.90594 0.90594,-0.90594z"/><path d="M19.44545,-11.84281c0,-0.50034 0.4056,-0.90594 0.90594,-0.90594c0.50034,0 0.90594,0.4056 0.90594,0.90594c0,0.50034 -0.4056,0.90594 -0.90594,0.90594c-0.50034,0 -0.90594,-0.4056 -0.90594,-0.90594z"/></g></g></g><g fill="#ffffff"><g><path d="M10.81326,22.18175c0.00423,0.06213 0.00857,0.12426 0.013,0.18637c0,0 0.07125,0.99746 -0.92621,1.06871c-0.99746,0.07125 -1.06871,-0.92621 -1.06871,-0.92621c-0.00751,-0.10521 -0.01544,-0.2118 -0.0237,-0.31968c-0.25484,-0.10779 -0.51513,-0.33845 -0.55285,-0.82877c-0.03713,-0.48265 0.17735,-0.74962 0.40854,-0.89664c-0.28525,-3.30187 -0.61025,-7.27385 0.26863,-10.10091c1.13946,-3.66524 6.34006,-1.82114 8.27089,0.09527c0.64973,1.5561 1.28425,1.82663 -0.25328,3.23633c-0.11219,0.10286 -1.18053,0.50182 -2.17168,0.74375c0.44849,0.22414 0.82719,0.46185 0.90189,0.5068c1.45775,0.87686 3.25204,2.80114 2.5821,4.67998c-0.92951,2.60678 -5.01391,2.46036 -7.44862,2.55501zM10.71152,20.19715c1.72964,-0.01526 4.98915,0.13788 5.68491,-1.29163c0.23687,-0.48667 -0.81615,-1.49716 -1.05418,-1.72705c-0.96661,-0.93358 -4.3874,-1.37935 -4.26739,-3.17655c0.10432,-1.56231 5.43436,-1.3129 4.5055,-2.37264c-0.79692,-0.80921 -3.52113,-1.99033 -4.65625,-1.20601c-0.31079,0.21475 -0.15861,2.11126 -0.16808,2.3878c-0.08413,2.45728 -0.13183,4.92541 -0.04452,7.38609z"/><path d="M24.16881,15.9052c-1.8288,-0.07898 -2.75973,2.02878 -0.70942,2.86098c1.77828,0.72179 2.41355,-1.94403 0.91814,-2.75916zM26.53423,15.43532c1.58221,2.54058 -0.22786,6.57749 -3.79629,5.1962c-2.64727,-1.02472 -3.29463,-4.872 -0.82309,-6.4654c1.38861,-0.89523 2.67187,-0.42773 4.02978,0.14222c0,0 0.79447,0.34049 0.5896,1.12698z"/><path d="M34.67605,18.41551c1.66417,-2.30032 -2.30163,-2.54671 -3.96624,-2.4358c0.03146,1.0433 0.03827,2.08668 0.00629,3.12914c1.1593,-0.05229 3.41494,0.06 3.95995,-0.69334zM33.54222,13.76115c2.09581,0.58685 4.21522,3.6497 2.78795,5.77864c-1.13567,1.69398 -3.9991,1.33278 -5.73396,1.58173l-0.36846,0.00645c-0.15104,0.10018 -0.35456,0.16303 -0.62864,0.14589c-0.99806,-0.06238 -0.93567,-1.06043 -0.93567,-1.06043c0.20727,-3.29344 -0.05314,-6.60448 -0.28788,-9.89089l-0.00254,-0.35972c0,0 0,-1 1,-1c1,0 1,1 1,1l-0.00255,0.21723c0.08751,1.22518 0.17724,2.4532 0.24601,3.68235c0.96017,-0.2361 1.88863,-0.39164 2.92575,-0.10124z"/><path d="M48.93453,11.66094c-0.23891,0.0438 -0.43945,0.00082 -0.43945,0.00082c-0.501,-0.12967 -1.07824,-0.13049 -1.5504,0.08136c-5.38674,2.41688 3.00906,8.59797 3.58006,3.65062c0.06648,-0.57602 -0.04334,-1.09099 -0.12248,-1.65706c-0.35041,-0.98642 -0.7906,-1.64321 -1.46773,-2.07575zM46.05828,9.94684c0.11839,-0.65366 0.84617,-0.75763 0.84617,-0.75763l0.84237,-0.06275c2.47834,0.51832 3.74835,1.76249 4.59694,4.13008c0.18552,1.27921 0.39417,2.62168 -0.21469,3.84859c-3.4649,6.982 -13.96622,-3.76222 -6.07079,-7.15828z"/><path d="M59.9178,13.56954c0.25563,1.28933 0.65987,2.48966 1.6098,3.36723c0.29605,0.0778 0.72568,0.30363 0.72568,0.9591c0,1 -1,1 -1,1l-0.77747,-0.22604c-0.31423,-0.26045 -0.70672,-0.7834 -1.09834,-1.44364c-0.49757,1.36335 -1.41859,2.30632 -3.07517,2.0953c-2.69266,-0.34301 -3.16506,-5.50088 -0.83183,-6.53597c0.7213,-0.31999 1.53935,-0.05288 2.25645,0.23677c-0.12661,-0.74001 -0.1111,-1.39158 0.12371,-1.83266c-0.02007,-0.21725 -0.03699,-0.39067 -0.04602,-0.50563h-0.00337v-1.08178c0,-0.55229 0.44772,-1 1,-1c0.55228,0 1,0.44772 1,1v0.98283c0.04953,0.68665 0.1343,1.78943 0.11655,2.98451zM57.91179,15.21086c-0.16256,-0.01948 -0.27524,-0.06456 -0.27524,-0.06456c-0.46372,-0.19207 -0.92661,-0.60681 -1.41828,-0.50584c-0.4499,0.09239 -0.19801,2.67502 0.32208,2.69525c0.84987,0.03304 1.22709,-0.92109 1.37144,-2.12485z"/><path d="M61.39874,22.59308c0.35113,-0.93633 1.28745,-0.5852 1.28745,-0.5852l0.56217,0.21094c0.63759,0.22927 1.11518,0.44726 1.78834,0.52426c0.72796,0.08327 1.04201,-0.03808 1.76843,-0.25113c2.9582,-0.8676 1.54879,-3.17666 1.08718,-5.13154c-2.00793,2.39132 -4.51163,0.12601 -5.7694,-3.1442c0,0 -0.35898,-0.93334 0.57437,-1.29232c0.93335,-0.35898 1.29232,0.57437 1.29232,0.57437c0.74004,1.9241 1.74408,4.70109 3.05373,1.46921l0.0632,-0.88477c0.03251,-0.52293 0.46692,-0.93698 0.99804,-0.93698c0.39921,0 0.74377,0.23391 0.90412,0.57216l0.56726,1.13453l-0.3055,0.15275c1.18766,2.00996 2.01481,4.69562 1.29336,6.75238c-1.15641,3.29678 -5.34633,3.28259 -7.98813,2.34478l-0.59174,-0.22177c0,0 -0.93633,-0.35112 -0.58521,-1.28745z"/><path d="M71.03323,17.12142c0.34175,-0.9398 1.28154,-0.59805 1.28154,-0.59805l0.59298,0.23832c0.49452,0.07198 2.53077,0.50628 2.91531,-0.00205c0.17534,-0.23179 -0.40328,-0.41866 -0.60724,-0.62572c-0.59319,-0.60224 -1.63934,-1.66343 -1.32471,-2.677c0.62377,-2.00953 2.7615,-1.44646 4.06616,-0.96575c0,0 0.93335,0.35898 0.57437,1.29233c-0.35898,0.93334 -1.29233,0.57437 -1.29233,0.57437c-3.11038,-1.26988 1.27488,1.29523 0.40335,3.23188c-0.82094,1.82423 -3.51285,1.3633 -5.01776,1.15185l-0.99363,-0.33863c0,0 -0.9398,-0.34174 -0.59805,-1.28154z"/><path d="M79.70382,16.17911c0.54493,-0.54494 1.08987,-0.24995 1.31117,-0.08599c0.23969,0.0959 0.47804,0.19551 0.72277,0.27744c4.6505,1.55685 -3.38577,-0.85484 -1.38397,-3.79026c0.63622,-0.93294 4.01614,-0.42237 4.95841,-0.28997c0,0 0.98994,0.14142 0.84852,1.13138c-0.14142,0.98995 -1.13137,0.84852 -1.13137,0.84852c-0.31305,-0.04557 -0.62359,-0.11416 -0.93913,-0.1367c-0.31213,-0.0223 -0.62585,0.00221 -0.93877,0.00252c-3.44516,0.00338 3.48868,0.27178 2.3227,3.41547c-0.86005,2.31885 -3.93885,0.88143 -5.35008,0.34018l-0.42025,-0.29836c0,0 -0.7071,-0.70711 0,-1.41421z"/><path d="M91.13953,16.32655c0.54189,0.13464 1.00239,0.20509 1.09331,0.21096c0,0 0.99778,0.06652 0.93126,1.0643c-0.06652,0.99779 -1.0643,0.93126 -1.0643,0.93126c-2.35355,-0.16131 -7.14276,-2.55459 -3.92832,-5.55572c0.75724,-0.70699 3.97573,-0.95159 4.64461,0.05562c1.22966,1.85164 -0.12458,2.8773 -1.67656,3.29358zM89.37068,14.58009c0.57748,0.15077 0.69345,0.25721 1.30724,-0.01421c0.19358,-0.0856 0.72887,-0.43051 0.55015,-0.3171c-0.5063,0.32124 -1.29756,-0.1102 -1.70184,0.19986c-0.05806,0.04453 -0.1098,0.08834 -0.15554,0.13146z"/><path d="M96.34639,24.53951c0.49614,-0.86825 1.36438,-0.3721 1.36438,-0.3721l0.26635,0.19048c1.62478,0.58416 1.52784,-1.28488 1.48334,-2.53638c-0.03498,-0.98386 -0.3723,-2.68215 -0.45154,-4.21185c-1.05634,1.14154 -2.47825,1.71376 -3.90255,0.23985c-1.10536,-1.14386 -0.79258,-3.58338 -0.69218,-5.00107c0,0 0.07124,-0.99745 1.0687,-0.92621c0.99746,0.07125 0.92621,1.0687 0.92621,1.0687c-0.06523,0.90494 -0.38338,2.69844 0.17325,3.50896c0.71082,1.03505 1.90552,-1.63457 2.02825,-2.03618l0.1351,-1.01329c0.05854,-0.49651 0.48083,-0.88167 0.99307,-0.88167c0.48826,0 0.8948,0.34994 0.98248,0.81269l0.28454,1.35156l-0.01578,0.00332c0.00944,0.02195 0.01873,0.04397 0.02785,0.06608c0.0062,0.01504 0.14364,2.1432 0.14994,2.21456c0.28365,3.21128 1.56299,10.43301 -3.70603,9.2734l-0.74331,-0.38646c0,0 -0.86824,-0.49614 -0.3721,-1.36439z"/><g><path d="M65.73001,4.10084c0.11769,0.64728 -0.52959,0.76496 -0.52959,0.76496l-0.40343,0.06166c-2.42003,0.85563 0.26649,4.75143 1.21816,5.89196c0,0 0.42117,0.50541 -0.08423,0.92658c-0.50541,0.42117 -0.92657,-0.08424 -0.92657,-0.08424c-1.65144,-1.98413 -4.23213,-6.52226 -0.67969,-7.96238l0.64039,-0.12813c0,0 0.64728,-0.11769 0.76497,0.52959z"/><path d="M69.62805,8.56452c0.3811,-0.19055 0.63878,-0.01087 0.77306,0.13941c0.27366,0.08554 0.56443,0.12542 0.84965,0.12326c0.25602,-0.00194 0.51232,0.01277 0.76809,0.00113c2.26207,-0.10297 -1.20621,-2.03973 -1.23126,-3.24835c-0.03933,-1.89706 1.29443,-1.66749 2.4357,-1.08665c0,0 0.57926,0.31191 0.26735,0.89116c-0.3119,0.57925 -0.89117,0.26736 -0.89117,0.26736c-0.19763,-0.11604 -0.4034,-0.55606 -0.56427,-0.39283c-0.12842,0.13031 0.76242,1.09763 0.76668,1.10275c0.68206,0.82188 2.02277,1.84099 1.21833,3.07287c-0.74815,1.14569 -3.25039,0.80909 -4.28668,0.42727l-0.39971,-0.41471c0,0 -0.29421,-0.58844 0.29422,-0.88266z"/><path d="M76.08349,7.76281c0.00246,0.0102 0.00566,0.0203 0.00962,0.03026c0.24935,0.62816 1.27389,0.70506 1.80074,0.65622c0,0 0.65622,-0.04688 0.7031,0.60934c0.04688,0.65622 -0.60935,0.70309 -0.60935,0.70309c-1.69622,0.09636 -4.62298,-1.56377 -2.64508,-3.49581c1.70776,-1.66816 4.51345,0.52365 1.64822,1.74557l-0.03684,0.02184c0,0 -0.57242,0.28621 -0.8704,-0.27052z"/><path d="M82.69866,6.30167c-0.13785,0.64328 -0.78114,0.50544 -0.78114,0.50544l-0.57235,-0.12934c-1.20043,0.05012 -0.72517,1.55035 -0.54254,2.44105c0,0 0.12902,0.64512 -0.5161,0.77414c-0.64512,0.12903 -0.77414,-0.51609 -0.77414,-0.51609c-0.37762,-1.92867 -0.47734,-3.80752 1.92467,-4.01167l0.75615,0.15534c0,0 0.64329,0.13785 0.50544,0.78114z"/><path d="M84.52258,6.21763c0.65789,0 0.65789,0.65789 0.65789,0.65789l-0.00167,0.14177c-0.05146,0.71382 -0.04577,1.42011 -0.04577,2.13566c0,0 -0.00001,0.65789 -0.6579,0.65789c-0.65789,0 -0.65789,-0.65789 -0.65789,-0.65789c0,-0.74687 -0.00365,-1.48423 0.04912,-2.2294l-0.00168,-0.04802c0,0 0.00001,-0.65789 0.6579,-0.65789z"/><path d="M83.62744,4.5981c0,-0.36334 0.29455,-0.65789 0.65789,-0.65789c0.36334,0 0.65789,0.29455 0.65789,0.65789c0,0.36334 -0.29455,0.65789 -0.65789,0.65789c-0.36334,0 -0.65789,-0.29455 -0.65789,-0.65789z"/><path d="M88.08017,8.1443c0.49918,0.34908 1.27813,0.448 1.75747,0.25229c0,0 0.61405,-0.23617 0.85021,0.37787c0.23617,0.61404 -0.37788,0.8502 -0.37788,0.8502c-1.18491,0.43658 -2.38017,0.38876 -3.26031,-0.67227c-1.07006,-1.29 -0.80109,-3.60541 1.13634,-3.86002c2.30799,-0.30331 2.35864,3.17226 -0.10287,3.05068zM87.68875,6.91426l0.20045,-0.07262c0.44912,0.04392 1.13831,0.10347 0.70867,-0.5711c-0.18353,-0.28815 -0.72211,0.23689 -0.86728,0.54615c-0.01547,0.03296 -0.0294,0.06549 -0.04184,0.09758z"/><path d="M91.18711,8.72556c0.14271,-0.64223 0.78494,-0.49951 0.78494,-0.49951l0.37125,0.085c0.20722,0.02971 0.41235,0.08664 0.62167,0.08913c1.73992,0.02072 -0.84078,-0.26082 -1.18529,-1.30182c-0.68459,-2.06866 1.60335,-2.24746 2.81108,-1.6653c0,0 0.58843,0.29421 0.29421,0.88265c-0.29421,0.58844 -0.88265,0.29422 -0.88265,0.29422c-2.29481,-1.20693 0.65874,1.01473 0.68467,1.06581c1.02327,2.01603 -1.25857,2.09763 -2.51759,1.93956l-0.48278,-0.10479c0,0 -0.64223,-0.14272 -0.49952,-0.78495z"/><path d="M97.34238,3.80078c0.4652,-0.4652 0.93039,0 0.93039,0l0.41682,0.47418c1.32702,2.88906 2.79551,4.53893 -0.33855,6.96519c0,0 -0.52146,0.40112 -0.92258,-0.12034c-0.40112,-0.52146 0.12033,-0.92258 0.12033,-0.92258c2.56883,-1.96138 1.03437,-3.02307 -0.05387,-5.37088l-0.15254,-0.09517c0,0 -0.4652,-0.4652 0,-0.93039z"/></g><g><path d="M117.35321,9.82723c1,0 1,1 1,1l-0.00254,0.72032c-0.16546,2.31641 0.02583,4.52043 -0.44156,6.69097l0.22521,0.01609l-0.07153,1.00143c-0.03252,0.52293 -0.46693,0.93699 -0.99805,0.93699c-0.37529,0 -0.70228,-0.20672 -0.87333,-0.51252l-0.49528,-0.84904l0.02015,-0.01176l-0.04953,-0.04237c-0.40531,-0.94163 -1.41094,-2.48936 -2.08205,-3.93919c-0.07364,1.35659 -0.1857,2.71243 -0.28235,4.06552c0,0 -0.07125,0.99746 -1.06871,0.92622c-0.99746,-0.07125 -0.92621,-1.06871 -0.92621,-1.06871c0.15854,-2.21955 0.35842,-4.44598 0.35869,-6.67145l0.01417,-0.03472l-0.01227,-0.00088l0.07153,-1.00143c0.03252,-0.52293 0.46693,-0.93698 0.99805,-0.93698c0.33133,0 0.62501,0.16113 0.80698,0.40931l0.85845,1.14459l-0.22129,0.16597c0.76675,0.9174 1.36333,1.9116 1.89745,2.97816c0.05753,-1.36758 0.23092,-2.76961 0.27656,-3.40869l-0.00254,-0.57782c0,0 0,-1 1,-1z"/><path d="M122.25754,16.51885c0.34829,0.8693 1.10813,1.17163 2.43159,1.32132c0,0 0.99228,0.12403 0.86824,1.11632c-0.12404,0.99228 -1.11632,0.86824 -1.11632,0.86824c-2.86952,-0.38493 -7.01295,-4.73093 -3.52494,-7.40216c1.45113,-1.11133 4.53593,-0.32072 4.19628,1.99323c-0.14924,1.01672 -1.53883,1.50637 -2.29181,1.86291l-0.52997,0.22754c0,0 -0.01172,0.00502 -0.03308,0.01261zM121.99455,14.45741c0.37729,-0.16752 0.76524,-0.3119 1.15782,-0.43952c0.31593,-0.1027 -0.73727,-0.23413 -0.99628,-0.02611c-0.10201,0.08193 -0.14637,0.26381 -0.16154,0.46562z"/><path d="M134.13154,10.58368c0.96476,0.26311 0.70165,1.22788 0.70165,1.22788l-0.18366,0.60144c-0.07287,1.01168 -0.06457,5.39588 -0.74991,5.99639c-1.7104,1.49868 -2.56643,0.19929 -3.39465,-0.90835c-0.04448,-0.05949 -0.09334,-0.13305 -0.14176,-0.21471c-0.18512,0.83402 -0.7459,1.81981 -1.88347,1.66127c-1.29623,-0.18065 -1.74764,-4.21623 -1.8769,-5.17555c0,0 -0.13217,-0.99122 0.85907,-1.12339c0.99123,-0.13217 1.12339,0.85906 1.12339,0.85906c0.02836,0.21525 0.21342,0.84707 0.36578,1.51426c0.25011,-0.40665 0.56979,-0.72733 0.88744,-0.7737c1.18468,-0.17294 1.88052,1.26277 2.30251,2.08315c-0.14933,-1.22503 0.44188,-3.04831 0.51356,-4.06094l0.24905,-0.98517c0,0 0.26311,-0.96476 1.22788,-0.70165z"/><path d="M138.87042,10.28777c0.17889,-0.98387 1.16275,-0.80498 1.16275,-0.80498l0.41831,0.14752c0.96269,-0.18716 1.81993,-0.42998 2.66179,-0.6393c0.00919,-0.2968 0.1257,-0.83548 0.83164,-0.95313c0.66082,-0.11014 0.95272,0.29622 1.07342,0.57647c0.73981,-0.09276 1.51739,-0.11286 2.38824,-0.0054c0,0 0.99228,0.12403 0.86825,1.11631c-0.12403,0.99228 -1.11631,0.86825 -1.11631,0.86825c-0.7168,-0.09088 -1.35962,-0.08235 -1.96889,-0.01306c0.03113,2.10669 0.14683,4.21045 0.27833,6.31453c0,0 0.06238,0.99805 -0.93567,1.06043c-0.99805,0.06238 -1.06043,-0.93567 -1.06043,-0.93567c-0.12555,-2.00888 -0.23471,-4.0172 -0.27445,-6.02811c-0.73827,0.19846 -1.49575,0.42428 -2.35368,0.59985l-1.16831,-0.14095c0,0 -0.98387,-0.17889 -0.80498,-1.16276z"/><path d="M150.55838,12.34224c0.30999,0.14845 0.47711,0.44092 0.47711,0.44092c0.22758,0.42647 0.60222,0.80278 0.68275,1.27942c0.78739,4.66033 -7.04265,3.37366 -5.47649,-0.50512c0.28547,-0.70699 1.39028,-1.34865 2.00054,-1.75928l1.34801,-0.16795c0,0 0.79737,-0.00001 0.96807,0.71201zM149.2072,13.54808c-0.39514,0.23684 -1.45011,0.89594 -1.29108,1.1472c0.52451,0.82864 2.49192,0.82178 1.3829,-0.91984c0,0 -0.05112,-0.08946 -0.09183,-0.22735z"/><path d="M158.31581,10.04614c0.99746,0.07124 0.92622,1.0687 0.92622,1.0687l-0.07212,1.00967c-0.08353,1.1693 0.23779,4.79545 -1.36682,5.16198c-0.64371,0.14704 -1.67379,-0.85606 -2.17137,-1.64399c-0.35299,0.53104 -1.01755,1.09903 -1.47737,1.08114c-0.84181,-0.03275 -1.8974,-2.7088 -2.27129,-3.40297c0,0 -0.4741,-0.88047 0.40637,-1.35457c0.88047,-0.4741 1.35457,0.40637 1.35457,0.40637c0.04641,0.08623 0.45412,0.68418 0.73569,1.25749c0.21552,-0.41137 0.54188,-0.78791 0.84368,-0.82386c0.51207,-0.06099 1.24467,0.40782 1.77543,0.96076c0.04315,-0.77816 0.16239,-1.59163 0.17619,-1.78485l0.07211,-1.00966c0,0 0.07125,-0.99745 1.0687,-0.92621z"/><path d="M163.43714,16.44283c-1,0 -1,-1 -1,-1l0.00557,-0.90432c-0.61558,-3.00529 -0.52972,-0.90615 -0.52972,0.8322c0,0 0,1 -1,1c-1,0 -1,-1 -1,-1c0,-0.76046 -0.28538,-3.25809 0.20165,-3.77542c2.28164,-2.42358 3.95309,1.07803 4.31694,2.73253l0.00556,1.11502c0,0 0,1 -1,1z"/><path d="M103.73241,17.24583c0,-0.55228 0.44772,-1 1,-1c0.55228,0 1,0.44772 1,1c0,0.55228 -0.44772,1 -1,1c-0.55228,0 -1,-0.44771 -1,-1z"/><path d="M103.22758,12.63023c0,-0.55228 0.44772,-1 1,-1c0.55228,0 1,0.44772 1,1c0,0.55228 -0.44772,1 -1,1c-0.55228,0 -1,-0.44772 -1,-1z"/></g></g><g><path d="M9.30984,30.88429c-0.00828,-0.59544 -0.49714,-3.02877 1,-3.02877c1.47579,0 0.99026,2.27994 1,2.90567c0.04348,2.79416 1.09773,7.20213 -0.02478,9.81295c-0.09992,0.4403 -0.49037,0.77025 -0.95915,0.77763c-0.49395,0.17045 -0.98621,0.05955 -0.98621,-0.75636c-0.0195,-0.07795 -0.02986,-0.15952 -0.02986,-0.24351c0,-0.08683 0.01107,-0.17107 0.03187,-0.2514c0.36536,-3.04325 0.01053,-6.16553 -0.03187,-9.2162z"/><path d="M17.30618,29.73049c0.5185,1.11048 2.4078,2.56183 1.57996,3.76671c-0.67504,0.98249 -4.49385,0.90521 -4.92692,-0.394c-0.29814,-0.89443 -0.1118,-1.26711 0.78262,-1.56525c0.53137,-0.17712 1.77433,1.05644 1.59606,0.52545c-0.39483,-1.17601 -1.92929,-2.6723 -0.78026,-4.01283c0.56293,-0.65676 3.97941,-0.40334 3.65118,0.80016c0.02068,0.08011 0.03168,0.16411 0.03168,0.25068c0,0.55228 -0.44772,1 -1,1c-0.13958,0 -0.27249,-0.0286 -0.39317,-0.08026c-0.09865,-0.04222 -0.18913,-0.09985 -0.26842,-0.16986c-0.18576,-0.13232 -0.33405,-0.25213 -0.27274,-0.12081z"/><path d="M24.54973,29.20228c0.04696,0.01044 0.09169,0.02156 0.13426,0.03333c0.03937,0.00945 0.07782,0.02122 0.11522,0.03517c0.4133,0.1391 0.58377,0.34849 0.58448,0.57902c0.04269,0.11121 0.06608,0.23199 0.06608,0.35823c0,0.55228 -0.44772,1 -1,1c-0.17522,0 -0.33991,-0.04506 -0.48312,-0.12423c-0.43209,0.1378 -0.89648,0.17999 -1.28964,0.05696c0.00142,0.06503 0.00344,0.13038 0.00626,0.19603c0.0631,1.47209 1.27619,0.04061 1.98179,0.74621c0.69648,0.69648 -0.11247,1.91977 -0.87229,2.10972c-2.43909,0.60977 -2.99801,-2.1419 -3.2026,-3.80378c-0.01062,-0.08626 -0.3045,-1.86653 0.10833,-2.10243l0.86182,-0.49247c0.56182,0.32104 0.84237,0.72672 0.98155,1.19216c0.008,0.02674 0.01553,0.05368 0.02262,0.0808c0.61052,-0.16684 1.38824,-0.13332 1.8656,0.10537z"/><path d="M35.44458,38.64043l-0.00028,0.00199l-0.00617,0.00446l-0.07593,0.07593l-0.17256,0.10354l-0.16315,0.11783l-0.0997,0.03988l-0.00652,0.00391l-0.00194,-0.00052l-0.10255,0.04102l-0.0978,0.0652l-0.03789,0.01353l-0.01681,0.02942l-0.21853,0.05464l-0.21213,0.07576l-0.0303,-0.01515l-0.03904,0.00975h-1.6599l-0.15595,-0.03898l-0.16027,-0.01233l-0.18444,-0.06148l-0.06073,-0.03864l-0.07026,-0.01561l-0.12296,-0.06148l-0.04798,-0.04113l-0.05951,-0.02125l-0.13263,-0.08842l-0.06727,-0.03364l-0.04798,-0.04113l-0.0595,-0.02125l-0.18444,-0.12296l-0.067,-0.07369l-0.08541,-0.05125l-0.18443,-0.18444l-0.05124,-0.08541l-0.0737,-0.06699l-0.12295,-0.18444l-0.04492,-0.12579l-0.07171,-0.11269l-0.12295,-0.36886l-0.01233,-0.16028l-0.03899,-0.15595v-0.67625l0.03899,-0.15595l0.01233,-0.16028l0.04949,-0.14845l0.0164,-0.06563l0.04984,-0.2243l0.01246,-0.02492l0.00697,-0.02786l0.00975,-0.00558l0.062,-0.12398l0.039,-0.11702l0.10592,-0.16644l0.00424,-0.07635l0.09755,-0.08362l0.06899,-0.1084l0.06092,-0.01219l0.27084,-0.40625l0.0737,-0.067l0.05124,-0.08541l0.05294,-0.05294l0.19099,-0.28648l0.0737,-0.067l0.05125,-0.0854l0.12296,-0.12296l0.08541,-0.05124l0.06699,-0.0737l0.18444,-0.12296l0.05291,-0.0189l0.04059,-0.04059l0.13784,-0.0827l0.12205,-0.10462l0.18755,-0.09378l0.00558,-0.00975l0.02787,-0.00697l0.02492,-0.01246l0.2243,-0.04984l0.22292,-0.05573h0.02787l0.02803,-0.00623l0.00934,0.00623h0.36133l0.00934,-0.00623l0.02804,0.00623h0.02787l0.22291,0.05573l0.2243,0.04984l0.02459,0.0123l0.22133,0.04918l0.02492,0.01246l0.02786,0.00697l0.00557,0.00975l0.55642,0.27821l0.12205,0.10461l0.13784,0.08271l0.03713,0.03713l0.36237,-0.20707l0.875,0.5l0.125,0.5v0.11337l0.11126,0.77882l0.11839,0.71037l0.05365,0.26825l0.02909,0.11633l0.07386,0.14773l0.02389,0.1075l0.05182,0.09717l0.01947,0.07787l0.02688,0.04031l0.04492,0.12579l0.0717,0.11268l0.01913,0.05738l0.04867,0.07301l0.02125,0.05951l0.04113,0.04798l0.06148,0.12296l0.1118,0.50312l-0.55902,0.83853l-1.00623,-0.05591l-0.33541,-0.39131l-0.0148,-0.0296zM34.39641,35.52037l-0.12126,-0.08084l-0.06727,-0.03364l-0.12205,-0.10461l-0.13784,-0.08271l-0.00821,-0.00821l-0.37127,-0.18563l-0.0229,-0.00509h-0.10605l-0.05954,0.03572l-0.12205,0.10462l-0.06727,0.03363l-0.04,0.02667l-0.18416,0.27623l-0.0737,0.067l-0.05125,0.08541l-0.05293,0.05294l-0.30662,0.45992l-0.00085,0.01531l-0.12196,0.10453l-0.00657,0.02957l-0.05956,0.11913l-0.00914,0.11876l-0.01016,0.03048v0.35171l0.02773,0.08318l0.03971,0.0397l0.05024,0.0335l0.06727,0.03363l0.04798,0.04112l0.05951,0.02125l0.11694,0.07796h1.22191l0.07122,-0.05143l0.11681,-0.04673l0.10898,-0.10898l0.2472,-0.49441l0.09056,-0.36224l0.0374,-0.18696v-0.39187c-0.06392,-0.0267 -0.12448,-0.05985 -0.18086,-0.09864z"/><path d="M39.86386,33.06374c2.03768,-0.50942 5.69154,3.23666 4.95768,5.43822c-1.2332,3.69958 -4.42689,-6.24146 -3.75639,-1.71596c0.07261,0.49007 0.18703,0.99419 0.30739,1.47562v0.30739c0,0.55228 -0.44772,1 -1,1c-0.55228,0 -1,-0.44772 -1,-1c0,-0.18437 0.04989,-0.35709 0.13692,-0.50539c-0.92368,-1.69048 -1.46087,-4.54607 0.35439,-4.99988z"/><path d="M46.00595,33.96376c0.10312,-0.52817 0.62271,-0.84518 1.08879,-0.80909c1.3754,0.10648 1.21581,3.10125 1.41942,4.17596c0.01988,0.10492 0.02542,0.21263 0.05132,0.31623v0.67625c0,0.20427 -0.06125,0.39424 -0.16639,0.55254c-0.29841,0.8075 -0.64001,0.8349 -0.97043,0.43818c-0.48756,-0.0667 -0.86318,-0.48484 -0.86318,-0.99072c0,-0.18962 0.05277,-0.36691 0.14443,-0.51798c-0.4813,-1.43686 -0.807,-3.31367 -0.70396,-3.84137z"/><path d="M45.02853,29.28586c0,-0.55229 0.44772,-1 1,-1c0.55228,0 1,0.44771 1,1c0,0.55229 -0.44772,1 -1,1c-0.55228,0 -1,-0.44771 -1,-1z"/></g><g><path d="M31.10446,-6.21124c-0.56593,-0.70742 0.14149,-1.27335 0.14149,-1.27335l0.65325,-0.52065c0.77501,-0.6975 1.57039,-1.34622 2.32607,-2.0441c-0.641,-0.00835 -1.28432,0.04839 -1.93234,0.20277l-0.4403,0.17353c0,0 -0.84826,0.3181 -1.16635,-0.53016c-0.3181,-0.84826 0.53016,-1.16635 0.53016,-1.16635l0.66908,-0.24249c1.26691,-0.28482 2.50121,-0.28569 3.73727,-0.14346c0.0272,-0.27911 0.05074,-0.55805 0.06932,-0.83679c0,0 0.06026,-0.90393 0.96419,-0.84367c0.90393,0.06026 0.84367,0.96419 0.84367,0.96419c-0.0223,0.33453 -0.05228,0.66971 -0.08749,1.00536c0.20659,0.04102 0.41367,0.0841 0.62142,0.12862c0,0 0.88583,0.18983 0.69601,1.07565c-0.18982,0.88583 -1.07565,0.69601 -1.07565,0.69601c-0.15557,-0.03334 -0.31103,-0.06626 -0.4664,-0.09831c-0.21733,1.59014 -0.45317,3.18318 -0.44856,4.75932v0.27734c0,0 0,0.90594 -0.90594,0.90594c-0.90594,0 -0.90594,-0.90594 -0.90594,-0.90594v-0.27734c0.00303,-1.19682 0.13372,-2.39845 0.2893,-3.60078c-0.69014,0.62255 -1.40454,1.21661 -2.10543,1.84742l-0.73346,0.58872c0,0 -0.70743,0.56594 -1.27336,-0.14148z"/><path d="M61.87956,-7.90302c-0.79193,-0.43996 -0.35197,-1.23189 -0.35197,-1.23189l0.49802,-0.82466c0.19945,-0.19901 0.52401,-0.54336 0.83489,-0.8248c-0.19292,-0.0201 -0.38344,-0.04815 -0.52794,-0.05716c-0.6318,-0.03942 -1.22988,-0.07945 -1.8219,-0.13977c-0.18151,1.67697 -0.2664,3.48411 0.25101,4.02412c0.61828,0.64528 2.20774,0.18505 2.94547,0.07091l0.74096,-0.07538c0,0 0.90145,-0.09013 0.99159,0.8113c0.09014,0.90144 -0.81129,0.99159 -0.81129,0.99159l-0.64575,0.06329c-1.00811,0.15428 -2.31607,0.44091 -3.31525,0.10945c-2.14964,-0.71312 -2.15367,-3.68784 -1.90829,-6.25005c-0.17342,-0.03403 -0.34857,-0.0713 -0.52609,-0.11226c0,0 -0.88275,-0.20371 -0.67904,-1.08645c0.20371,-0.88274 1.08645,-0.67903 1.08645,-0.67903c0.10683,0.02466 0.21375,0.04713 0.32072,0.06769c0.04148,-0.36125 0.07677,-0.6929 0.09732,-0.98289c0,0 0.06454,-0.90364 0.96818,-0.83909c0.90364,0.06454 0.83909,0.96818 0.83909,0.96818c-0.01777,0.24665 -0.06538,0.61933 -0.12446,1.06726c0.95501,0.07114 1.90743,0.11332 2.84542,0.32399c0.55834,0.1254 1.37948,-0.02096 1.64679,0.48501c0.77034,1.45813 -1.16953,2.58627 -1.92671,3.34527l-0.19535,0.42339c0,0 -0.43996,0.79194 -1.23189,0.35197z"/><path d="M70.00551,-5.22548c-0.89361,-0.14894 -0.74469,-1.04255 -0.74469,-1.04255l0.05931,-0.33163c0.08752,-1.21489 0.08289,-2.43502 0.07408,-3.65428c-0.62871,0.34045 -1.30892,0.61815 -2.02411,0.84059c0,0 -0.86588,0.26642 -1.1323,-0.59945c-0.26642,-0.86588 0.59945,-1.1323 0.59945,-1.1323c2.03906,-0.61948 3.83183,-1.79353 4.46205,-3.90736l0.04686,-0.25792c0,0 0.17767,-0.88835 1.06601,-0.71068c0.88835,0.17767 0.71068,1.06601 0.71068,1.06601l-0.09181,0.43544c-0.37787,1.19877 -1.01263,2.17573 -1.83199,2.96364c0.00076,1.69517 0.04818,3.39419 -0.07165,5.08541l-0.07936,0.5004c0,0 -0.14893,0.89361 -1.04254,0.74468z"/><g><path d="M49.70634,-5.0895c0,-0.90594 0.90594,-0.90595 0.90594,-0.90595h0.34668c2.8561,0.00835 4.79463,-0.93334 5.20469,-3.86765c0,0 0.12811,-0.89684 1.02495,-0.76871c0.89684,0.12812 0.76871,1.02495 0.76871,1.02495c-0.56092,3.85376 -3.25393,5.41381 -6.99835,5.4233h-0.34668c0,0 -0.90594,0 -0.90594,-0.90594z"/><path d="M52.84188,-11.79332c0.8103,-0.40515 1.21544,0.40514 1.21544,0.40514l0.19426,0.41607c0.18901,0.61559 0.35702,1.23807 0.50221,1.86544c0,0 0.20371,0.88273 -0.67903,1.08644c-0.88274,0.20371 -1.08645,-0.67903 -1.08645,-0.67903c-0.13468,-0.58536 -0.29147,-1.16603 -0.46848,-1.74001l-0.08309,-0.13862c0,0 -0.40515,-0.81029 0.40514,-1.21544z"/><path d="M50.20774,-11.52071c0.88437,-0.19653 1.08089,0.68784 1.08089,0.68784l0.09986,0.49532c0.23954,0.62685 0.4395,1.27069 0.59187,1.92423c0,0 0.2037,0.88274 -0.67904,1.08645c-0.88274,0.20371 -1.08644,-0.67904 -1.08644,-0.67904c-0.13037,-0.57168 -0.30566,-1.13447 -0.5175,-1.68122l-0.17748,-0.75271c0,0 -0.19652,-0.88436 0.68785,-1.08088z"/></g><g><path d="M39.02132,-4.58394c-0.07524,-0.90281 0.82757,-0.97804 0.82757,-0.97804l0.76951,-0.06192c2.01527,-0.23498 2.62689,-2.35682 2.74493,-4.17236c-0.91495,-0.031 -1.82982,-0.05905 -2.74584,-0.05848c0,0 -0.90594,0 -0.90594,-0.90594c0,-0.90594 0.90594,-0.90594 0.90594,-0.90594c2.03536,0.00117 4.06431,0.13867 6.10153,0.13867h0.76269c0,0 0.90595,0 0.90595,0.90594c0,0.90594 -0.90595,0.90594 -0.90595,0.90594h-0.76269c-0.51675,0 -1.033,-0.009 -1.54898,-0.02242c-0.18404,2.71591 -1.30045,5.37822 -4.27612,5.90541l-0.89455,0.07674c0,0 -0.90281,0.07523 -0.97804,-0.82758z"/><path d="M46.56318,-15.53592c0.75379,-0.50253 1.25632,0.25126 1.25632,0.25126l0.13867,0.20801c0.35226,0.5286 0.71452,1.05074 1.08825,1.5644c0,0 0.53284,0.73266 -0.19982,1.26551c-0.73266,0.53285 -1.26551,-0.19982 -1.26551,-0.19982c-0.04392,-0.06042 -0.0877,-0.12095 -0.13133,-0.18158h-0.38405c-2.01345,-0.00123 -4.01538,0.208 -6.0322,0.208c0,0 -0.90594,0 -0.90594,-0.90594c0,-0.90594 0.90594,-0.90595 0.90594,-0.90595c1.73936,0 3.467,-0.15383 5.20131,-0.19691c-0.10404,-0.24519 -0.21871,-0.74226 0.32836,-1.10698z"/><path d="M48.71318,-15.70008c0.64059,-0.64059 1.28119,0 1.28119,0l0.24279,0.24457c0.23112,0.208 0.46224,0.41601 0.69336,0.62401c0,0 0.67338,0.60605 0.06734,1.27942c-0.60604,0.67338 -1.27942,0.06734 -1.27942,0.06734c-0.23112,-0.208 -0.46224,-0.41602 -0.69336,-0.62402l-0.3119,-0.31013c0,0 -0.64059,-0.6406 0,-1.28119z"/></g><g><path d="M27.78131,-14.32452c0.33645,-0.84114 1.1776,-0.50468 1.1776,-0.50468l0.6836,0.37378c0.208,0.23112 0.41601,0.46223 0.62401,0.69335c0,0 0.60605,0.67338 -0.06733,1.27941c-0.46372,0.41735 -0.89552,0.22795 -1.11944,0.06956c0.07699,0.19749 0.08561,0.45118 -0.09079,0.75358c-0.45648,0.78254 -1.23901,0.32606 -1.23901,0.32606c-0.27734,-0.16178 -0.55468,-0.32356 -0.83202,-0.48535l-0.45614,-0.35246c0,0 -0.70742,-0.56593 -0.14149,-1.27335c0.56593,-0.70742 1.27336,-0.14149 1.27336,-0.14149l0.23722,0.20223c0.23746,0.13852 0.47492,0.27704 0.71239,0.41556c-0.08251,-0.09168 -0.16501,-0.18335 -0.24753,-0.27503l-0.00976,0.09643c0,0 -0.84114,-0.33646 -0.50468,-1.1776z"/><path d="M20.43626,-4.76644c0,-0.90594 0.90594,-0.90594 0.90594,-0.90594l0.34238,0.02321c1.45532,0.36905 3.10596,-0.52172 3.98733,-1.73138c0.08872,-0.12176 1.0006,-2.183 0.72487,-2.2009c-1.45474,-0.09442 -3.24915,0.31278 -4.77724,0.31278c0,0 -0.90594,0 -0.90594,-0.90594c0,-0.90594 0.90594,-0.90595 0.90594,-0.90595c1.22016,0 4.63468,-0.71603 5.62309,-0.10323c1.41493,0.87723 1.00566,2.67124 0.47608,3.8691c-1.06227,2.40273 -3.91376,3.97496 -6.44154,3.43098l0.06503,0.02321c0,0 -0.90594,-0.00001 -0.90594,-0.90595z"/></g><g><path d="M18.94675,-10.91956c0,0.90594 -0.90594,0.90594 -0.90594,0.90594h-0.73178c-0.87503,0 -1.75453,-0.02877 -2.63535,-0.07595c-0.10367,2.30908 -0.29124,4.62207 -0.54129,6.90143l0.00554,0.0045c0,0 0,0.90594 -0.90594,0.90594c-0.90594,0 -0.90594,-0.90594 -0.90594,-0.90594l0.00554,-0.20458c0.25327,-2.24774 0.44097,-4.53707 0.5407,-6.82015c-1.27128,-0.09732 -2.54087,-0.21826 -3.79936,-0.33167c0,0 -0.90222,-0.08201 -0.8202,-0.98423c0.08202,-0.90222 0.98424,-0.8202 0.98424,-0.8202c1.22372,0.11227 2.45877,0.23067 3.69559,0.32597c0.01464,-0.64612 0.02173,-1.29071 0.02072,-1.93269c0,0 0,-0.90594 0.90594,-0.90594c0.90594,0 0.90594,0.90594 0.90594,0.90594c-0.00096,0.68213 -0.01039,1.36646 -0.02774,2.05202c0.85964,0.04586 1.71792,0.07368 2.57161,0.07368h0.73178c0,0 0.90594,0 0.90594,0.90594z"/><path d="M11.99088,-8.84214c0.64059,0.64059 0,1.28119 0,1.28119l-0.14392,0.07817c-0.48007,0.95763 -1.01138,1.78967 -1.65364,2.64736c0,0 -0.54357,0.72475 -1.26832,0.18118c-0.72475,-0.54356 -0.18118,-1.26831 -0.18118,-1.26831c0.58007,-0.77213 1.05194,-1.50684 1.48255,-2.37052l0.48331,-0.54907c0,0 0.6406,-0.64059 1.28119,0z"/><path d="M18.4723,-4.42478c-0.64059,0.64059 -1.28119,0 -1.28119,0l-0.42793,-0.56319c-0.33869,-1.01745 -0.72967,-1.96876 -0.96577,-3.01706c0,0 -0.19653,-0.88437 0.68784,-1.08089c0.88437,-0.19653 1.08089,0.68784 1.08089,0.68784c0.21562,0.98577 0.5967,1.88067 0.91593,2.83715l-0.00977,-0.14504c0,0 0.64059,0.6406 0,1.28119z"/><path d="M16.63397,-15.2368c0.90594,0 0.90594,0.90594 0.90594,0.90594v0.9707c0,0 0,0.90594 -0.90594,0.90594c-0.90594,0 -0.90594,-0.90594 -0.90594,-0.90594v-0.9707c0,0 0,-0.90594 0.90594,-0.90594z"/><path d="M17.80807,-13.22149c0,-0.50034 0.4056,-0.90594 0.90594,-0.90594c0.50034,0 0.90594,0.4056 0.90594,0.90594c0,0.50034 -0.4056,0.90594 -0.90594,0.90594c-0.50034,0 -0.90594,-0.4056 -0.90594,-0.90594z"/></g></g></g></g><g stroke-width="0.5"><g fill="#ff4040"><path d="M19.36108,63.85545c0,1.25 -1.25,1.25 -1.25,1.25h-1.01278c-2.16133,0 -4.804,0.33392 -6.08782,-1.93797c-1.33101,-2.35539 0.28525,-7.75446 2.69132,-8.88531c1.08412,-0.50953 2.13291,-0.24261 3.22411,-0.10555c0,0 1.23904,0.16521 1.07383,1.40424c-0.16521,1.23903 -1.40424,1.07383 -1.40424,1.07383c-2.51893,-0.36117 -4.51346,2.87873 -3.36835,5.35679c0.47977,1.03824 3.06739,0.59397 3.87114,0.59397h1.01278c0,0 1.25,0 1.25,1.25z"/><path d="M22.6398,53.83319c1.24487,-0.11317 1.35804,1.1317 1.35804,1.1317l0.07857,0.87634c0.358,2.68498 0.51735,5.30558 0.51735,8.01422c0,0 0,1.25 -1.25,1.25c-1.25,0 -1.25,-1.25 -1.25,-1.25c0,-2.59872 -0.15197,-5.10787 -0.49542,-7.6838l-0.09023,-0.98042c0,0 -0.11317,-1.24487 1.1317,-1.35804z"/><path d="M27.98564,59.31393c1.25,0 1.25,1.25 1.25,1.25v0.67519c-0.00183,0.90104 -0.06248,1.80376 -0.17976,2.69714c0,0 -0.16521,1.23904 -1.40424,1.07383c-1.23904,-0.16521 -1.07383,-1.40423 -1.07383,-1.40423c0.1063,-0.78348 0.15967,-1.57607 0.15783,-2.36673v-0.67519c0,0 0,-1.25 1.25,-1.25z"/><path d="M26.56684,56.00645c0,-0.69036 0.55965,-1.25 1.25,-1.25c0.69035,0 1.25,0.55964 1.25,1.25c0,0.69036 -0.55965,1.25 -1.25,1.25c-0.69035,0 -1.25,-0.55964 -1.25,-1.25z"/><path d="M36.83146,64.27744c0,1.25 -1.25,1.25 -1.25,1.25l-1.16606,-0.04221c-2.9891,-0.85685 -6.02296,-4.97134 -1.50797,-6.61354c0.91985,-0.33457 2.25843,0.03462 3.17237,0.21332c0,0 1.22572,0.24514 0.98058,1.47087c-0.24514,1.22573 -1.47087,0.98058 -1.47087,0.98058c-2.57182,-0.52831 -3.28669,0.88064 -0.52995,1.53318l0.52191,-0.04221c0,0 1.25,0 1.25,1.25z"/><path d="M46.21999,64.66639c-0.72655,1.01717 -1.74371,0.29062 -1.74371,0.29062l-0.61424,-0.43915c-0.93868,-0.70402 -1.84289,-1.35686 -2.68255,-2.09133c-0.02734,0.67019 -0.04374,1.34272 -0.04374,2.01971c0,0 0,1.25 -1.25,1.25c-1.25,0 -1.25,-1.25 -1.25,-1.25c0,-2.66994 0.2487,-5.27442 0.42476,-7.93216l-0.00277,-0.76083c0,0 0,-1.25 1.25,-1.25c1.25,0 1.25,1.25 1.25,1.25l-0.00277,0.92713c-0.04556,0.67931 -0.09589,1.3549 -0.1454,2.02891c0.83327,-0.35825 1.66993,-0.70317 2.52885,-1.0105l0.66781,-0.19352c0,0 1.2019,-0.3434 1.5453,0.85851c0.3434,1.20191 -0.8585,1.5453 -0.8585,1.5453l-0.51377,0.14407c-0.59361,0.21159 -1.1757,0.44298 -1.75339,0.68462c0.73606,0.62148 1.52984,1.17535 2.33617,1.78008l0.56733,0.40482c0,0 1.01717,0.72655 0.29062,1.74372z"/><path d="M55.87977,57.62667c0.88682,0 1.77437,-0.02283 2.65919,-0.08232c0,0 1.24723,-0.08315 1.33038,1.16409c0.08315,1.24723 -1.16408,1.33038 -1.16408,1.33038c-0.91255,0.06035 -1.82773,0.08648 -2.74228,0.08648l-0.21282,0.01431c0.1799,1.49927 0.70766,2.72528 1.98342,2.653l0.9745,-0.36751c0,0 1.17717,-0.42042 1.59759,0.75676c0.42042,1.17718 -0.75675,1.5976 -0.75675,1.5976l-1.38865,0.47647c-5.29999,-0.11023 -5.22406,-6.00027 -4.7463,-10.0707c0,0 0.14605,-1.24143 1.38749,-1.09538c1.24144,0.14605 1.09538,1.38749 1.09538,1.38749c-0.0562,0.4765 -0.15016,1.26931 -0.19712,2.16126z"/><path d="M63.77651,60.66861c-0.34455,1.15141 1.67578,2.72626 2.44911,1.83496c1.23729,-1.42604 -1.22325,-1.80719 -2.03326,-1.78681h-0.0844c0,0 -0.14259,0 -0.33145,-0.04815zM64.93669,58.24964c1.46004,0.11007 3.08204,0.53492 3.75839,2.02637c0.95121,2.09755 -0.42639,4.56743 -2.63256,4.98489c-4.47266,0.84633 -6.09005,-5.19498 -2.86287,-7.4495c0,0 1.06457,-0.65512 1.7197,0.40945c0.00592,0.00962 0.01171,0.01922 0.01735,0.02878z"/><path d="M76.4186,52.98778c1.24632,-0.09587 1.34219,1.15044 1.34219,1.15044l0.08808,1.19304c-0.00704,3.03467 0.42047,6.07075 0.42199,9.11498c0,0 0,1.25 -1.25,1.25c-1.25,0 -1.25,-1.25 -1.25,-1.25c0.00161,-3.04509 -0.41581,-6.07834 -0.42199,-9.11498l-0.08071,-1.0013c0,0 -0.09587,-1.24632 1.15045,-1.34219z"/><path d="M83.1113,61.06288c-0.32888,-0.07366 -0.64477,-0.10494 -0.87242,0.09872c-1.05407,0.94301 0.81,2.55877 1.74814,2.474c1.20339,-0.10874 0.74515,-1.32183 0.13284,-1.64967l-0.15167,0.01706c0,0 -0.74376,-0.24792 -0.85689,-0.94011zM85.18722,59.80774l0.43264,0.17819c3.00282,2.56633 0.89912,7.23296 -3.20681,5.80236c-2.43465,-0.84829 -4.11156,-4.43016 -1.83284,-6.49719c0.97064,-0.88048 2.32478,-0.62707 3.44442,-0.56517c0,0 1.07632,0.07175 1.16259,1.08182z"/><path d="M95.73846,65.20708c0.08315,1.24723 -1.16408,1.33038 -1.16408,1.33038l-1.30752,0.08648c-2.0419,-0.03253 -5.40231,-1.03866 -5.59348,-3.70358c-0.21164,-2.95037 3.74697,-3.96189 5.79132,-3.76556c0,0 1.24035,0.15504 1.08531,1.39539c-0.15505,1.24034 -1.39539,1.08531 -1.39539,1.08531c-3.37342,-0.5876 -3.40806,2.57755 0.02905,2.48983l1.22442,-0.08232c0,0 1.24723,-0.08315 1.33038,1.16408z"/><path d="M105.40586,66.32119c-0.69338,1.04007 -1.73344,0.34668 -1.73344,0.34668l-0.61324,-0.41738c-1.32343,-1.10308 -2.72404,-2.07182 -4.10952,-3.07246c-0.01448,0.692 -0.04385,1.39201 -0.08814,2.10577c0,0 -0.07798,1.24757 -1.32554,1.1696c-1.24757,-0.07798 -1.16959,-1.32554 -1.16959,-1.32554c0.19847,-3.15374 0.09127,-5.9874 -0.32906,-9.12499l-0.07109,-0.34205c0,0 -0.24515,-1.22573 0.98058,-1.47087c1.22573,-0.24515 1.47087,0.98058 1.47087,0.98058l0.09771,0.50193c0.14642,1.10307 0.25666,2.17524 0.33076,3.23803c0.81777,-0.34167 1.64076,-0.54356 2.65369,-0.68275l0.87481,-0.22683c0,0 1.21268,-0.30317 1.51585,0.90951c0.30317,1.21268 -0.90951,1.51585 -0.90951,1.51585l-1.15074,0.27955c-0.61492,0.07897 -1.11047,0.17579 -1.5808,0.33096c1.4827,1.07919 2.99054,2.1104 4.41018,3.29319l0.39953,0.25781c0,0 1.04006,0.69337 0.34669,1.73344z"/></g><g fill="#ffffff"><path d="M17.62413,61.26726c0,1.25 -1.25,1.25 -1.25,1.25h-1.01278c-2.16133,0 -4.804,0.33392 -6.08782,-1.93797c-1.33101,-2.35539 0.28525,-7.75446 2.69132,-8.88531c1.08412,-0.50953 2.13291,-0.24261 3.22411,-0.10555c0,0 1.23904,0.16521 1.07383,1.40424c-0.16521,1.23903 -1.40424,1.07383 -1.40424,1.07383c-2.51893,-0.36117 -4.51346,2.87873 -3.36835,5.35679c0.47977,1.03824 3.06739,0.59397 3.87114,0.59397h1.01278c0,0 1.25,0 1.25,1.25z"/><path d="M20.90285,51.245c1.24487,-0.11317 1.35804,1.1317 1.35804,1.1317l0.07857,0.87634c0.358,2.68498 0.51735,5.30558 0.51735,8.01422c0,0 0,1.25 -1.25,1.25c-1.25,0 -1.25,-1.25 -1.25,-1.25c0,-2.59872 -0.15197,-5.10787 -0.49542,-7.6838l-0.09023,-0.98042c0,0 -0.11317,-1.24487 1.1317,-1.35804z"/><path d="M26.24869,56.72574c1.25,0 1.25,1.25 1.25,1.25v0.67519c-0.00183,0.90104 -0.06248,1.80376 -0.17976,2.69714c0,0 -0.16521,1.23904 -1.40424,1.07383c-1.23904,-0.16521 -1.07383,-1.40423 -1.07383,-1.40423c0.1063,-0.78348 0.15967,-1.57607 0.15783,-2.36673v-0.67519c0,0 0,-1.25 1.25,-1.25z"/><path d="M24.82989,53.41825c0,-0.69036 0.55965,-1.25 1.25,-1.25c0.69035,0 1.25,0.55964 1.25,1.25c0,0.69036 -0.55965,1.25 -1.25,1.25c-0.69035,0 -1.25,-0.55964 -1.25,-1.25z"/><path d="M35.09451,61.68925c0,1.25 -1.25,1.25 -1.25,1.25l-1.16606,-0.04221c-2.9891,-0.85685 -6.02296,-4.97134 -1.50797,-6.61354c0.91985,-0.33457 2.25843,0.03462 3.17237,0.21332c0,0 1.22572,0.24514 0.98058,1.47087c-0.24514,1.22573 -1.47087,0.98058 -1.47087,0.98058c-2.57182,-0.52831 -3.28669,0.88064 -0.52995,1.53318l0.52191,-0.04221c0,0 1.25,0 1.25,1.25z"/><path d="M44.48304,62.07821c-0.72655,1.01717 -1.74371,0.29062 -1.74371,0.29062l-0.61424,-0.43915c-0.93868,-0.70402 -1.84289,-1.35686 -2.68255,-2.09133c-0.02734,0.67019 -0.04374,1.34272 -0.04374,2.01971c0,0 0,1.25 -1.25,1.25c-1.25,0 -1.25,-1.25 -1.25,-1.25c0,-2.66994 0.2487,-5.27442 0.42476,-7.93216l-0.00277,-0.76083c0,0 0,-1.25 1.25,-1.25c1.25,0 1.25,1.25 1.25,1.25l-0.00277,0.92713c-0.04556,0.67931 -0.09589,1.3549 -0.1454,2.02891c0.83327,-0.35825 1.66993,-0.70317 2.52885,-1.0105l0.66781,-0.19352c0,0 1.2019,-0.3434 1.5453,0.85851c0.3434,1.20191 -0.8585,1.5453 -0.8585,1.5453l-0.51377,0.14407c-0.59361,0.21159 -1.1757,0.44298 -1.75339,0.68462c0.73606,0.62148 1.52984,1.17535 2.33617,1.78008l0.56733,0.40482c0,0 1.01717,0.72655 0.29062,1.74372z"/><path d="M54.14282,55.03848c0.88682,0 1.77437,-0.02283 2.65919,-0.08232c0,0 1.24723,-0.08315 1.33038,1.16409c0.08315,1.24723 -1.16408,1.33038 -1.16408,1.33038c-0.91255,0.06035 -1.82773,0.08648 -2.74228,0.08648l-0.21282,0.01431c0.1799,1.49927 0.70766,2.72528 1.98342,2.653l0.9745,-0.36751c0,0 1.17717,-0.42042 1.59759,0.75676c0.42042,1.17718 -0.75675,1.5976 -0.75675,1.5976l-1.38865,0.47647c-5.29999,-0.11023 -5.22406,-6.00027 -4.7463,-10.0707c0,0 0.14605,-1.24143 1.38749,-1.09538c1.24144,0.14605 1.09538,1.38749 1.09538,1.38749c-0.0562,0.4765 -0.15016,1.26931 -0.19712,2.16126z"/><path d="M62.03957,58.08041c-0.34455,1.15141 1.67578,2.72626 2.44911,1.83496c1.23729,-1.42604 -1.22325,-1.80719 -2.03326,-1.78681h-0.0844c0,0 -0.14259,0 -0.33145,-0.04815zM63.19974,55.66144c1.46004,0.11007 3.08204,0.53492 3.75839,2.02637c0.95121,2.09755 -0.42639,4.56743 -2.63256,4.98489c-4.47266,0.84633 -6.09005,-5.19498 -2.86287,-7.4495c0,0 1.06457,-0.65512 1.7197,0.40945c0.00592,0.00962 0.01171,0.01922 0.01735,0.02878z"/><path d="M74.68165,50.39958c1.24632,-0.09587 1.34219,1.15044 1.34219,1.15044l0.08808,1.19304c-0.00704,3.03467 0.42047,6.07075 0.42199,9.11498c0,0 0,1.25 -1.25,1.25c-1.25,0 -1.25,-1.25 -1.25,-1.25c0.00161,-3.04509 -0.41581,-6.07834 -0.42199,-9.11498l-0.08071,-1.0013c0,0 -0.09587,-1.24632 1.15045,-1.34219z"/><path d="M81.37435,58.47468c-0.32888,-0.07366 -0.64477,-0.10494 -0.87242,0.09872c-1.05407,0.94301 0.81,2.55877 1.74814,2.474c1.20339,-0.10874 0.74515,-1.32183 0.13284,-1.64967l-0.15167,0.01706c0,0 -0.74376,-0.24792 -0.85689,-0.94011zM83.45027,57.21955l0.43264,0.17819c3.00282,2.56633 0.89912,7.23296 -3.20681,5.80236c-2.43465,-0.84829 -4.11156,-4.43016 -1.83284,-6.49719c0.97064,-0.88048 2.32478,-0.62707 3.44442,-0.56517c0,0 1.07632,0.07175 1.16259,1.08182z"/><path d="M94.00151,62.61888c0.08315,1.24723 -1.16408,1.33038 -1.16408,1.33038l-1.30752,0.08648c-2.0419,-0.03253 -5.40231,-1.03866 -5.59348,-3.70358c-0.21164,-2.95037 3.74697,-3.96189 5.79132,-3.76556c0,0 1.24035,0.15504 1.08531,1.39539c-0.15505,1.24034 -1.39539,1.08531 -1.39539,1.08531c-3.37342,-0.5876 -3.40806,2.57755 0.02905,2.48983l1.22442,-0.08232c0,0 1.24723,-0.08315 1.33038,1.16408z"/><path d="M103.66891,63.733c-0.69338,1.04007 -1.73344,0.34668 -1.73344,0.34668l-0.61324,-0.41738c-1.32343,-1.10308 -2.72404,-2.07182 -4.10952,-3.07246c-0.01448,0.692 -0.04385,1.39201 -0.08814,2.10577c0,0 -0.07798,1.24757 -1.32554,1.1696c-1.24757,-0.07798 -1.16959,-1.32554 -1.16959,-1.32554c0.19847,-3.15374 0.09127,-5.9874 -0.32906,-9.12499l-0.07109,-0.34205c0,0 -0.24515,-1.22573 0.98058,-1.47087c1.22573,-0.24515 1.47087,0.98058 1.47087,0.98058l0.09771,0.50193c0.14642,1.10307 0.25666,2.17524 0.33076,3.23803c0.81777,-0.34167 1.64076,-0.54356 2.65369,-0.68275l0.87481,-0.22683c0,0 1.21268,-0.30317 1.51585,0.90951c0.30317,1.21268 -0.90951,1.51585 -0.90951,1.51585l-1.15074,0.27955c-0.61492,0.07897 -1.11047,0.17579 -1.5808,0.33096c1.4827,1.07919 2.99054,2.1104 4.41018,3.29319l0.39953,0.25781c0,0 1.04006,0.69337 0.34669,1.73344z"/></g></g></g></g></svg>