<svg version="1.1" xmlns="http://www.w3.org/2000/svg" xmlns:xlink="http://www.w3.org/1999/xlink" width="261.01453" height="197.13506" viewBox="0,0,261.01453,197.13506"><g transform="translate(-249.81223,-76.5468)"><g data-paper-data="{&quot;isPaintingLayer&quot;:true}" fill-rule="nonzero" stroke="none" stroke-linecap="butt" stroke-linejoin="miter" stroke-miterlimit="10" stroke-dasharray="" stroke-dashoffset="0" style="mix-blend-mode: normal"><path d="M249.81223,273.68186v-197.13506h222.7859v197.13506z" fill="#250074" stroke-width="0"/><g stroke-width="0.5"><path d="M327.00876,156.12815c0.92848,2.32119 -1.39272,3.24967 -1.39272,3.24967l-2.45039,0.90387c-1.8548,0.26077 -3.73183,0.39602 -5.60487,0.40022c-0.40273,0 -5.38877,0.00711 -5.59807,-0.02416c-4.70151,-0.70264 -9.43217,-4.05183 -13.15198,-6.84924c-4.17602,-3.1405 -7.7764,-8.49342 -12.60315,-10.57702c-3.29349,-1.42172 -8.518,-0.88753 -11.84597,0.09992c0,0 -2.40381,0.6868 -3.09061,-1.71701c-0.6868,-2.40381 1.71701,-3.09061 1.71701,-3.09061c4.46027,-1.23657 10.77363,-1.77164 15.16078,0.09992c4.39919,1.87669 8.10425,6.27462 11.59296,9.46009c3.20912,2.93018 8.47061,7.02896 12.91447,7.62228c1.62049,0.21636 3.26969,-0.02416 4.90456,-0.02416c1.63674,0.0042 3.27805,-0.11438 4.89776,-0.34997l1.30055,-0.59651c0,0 2.32119,-0.92848 3.24967,1.39272z" fill="#fe537b"/><path d="M341.74158,152.69935c0.60634,2.42536 -1.81902,3.0317 -1.81902,3.0317l-2.10671,0.44974c-7.93545,-0.01781 -15.509,-2.35435 -22.74024,-5.45345c-5.94663,-2.55115 -12.6392,-7.29974 -19.27027,-7.29974c-9.01802,0 -16.11393,7.69482 -23.77139,11.05068c0,0 -2.29786,0.9848 -3.28266,-1.31306c-0.9848,-2.29786 1.31306,-3.28266 1.31306,-3.28266c2.84855,-1.18556 4.5682,-3.10416 7.19716,-4.72012c5.12063,-3.14754 12.47018,-6.73483 18.54383,-6.73483c7.48141,0 14.54913,4.83962 21.23986,7.70401c6.58702,2.82301 13.53146,5.06777 20.77064,5.04918l0.89404,-0.30045c0,0 2.42536,-0.60634 3.0317,1.81902z" fill="#ed66ff"/><path d="M335.06454,172.06037c0,2.5 -2.5,2.5 -2.5,2.5l-2.18718,-0.09619c-5.75317,-1.6579 -11.66031,-2.61846 -17.36563,-4.53576c-7.54986,-2.53716 -13.9504,-8.10967 -18.92355,-14.12909c-1.82281,-3.59208 -3.4713,-6.83637 -3.77729,-10.94359c-0.38294,-5.14009 0.73711,-10.57855 -0.66363,-15.63125c-1.79466,-6.47365 -9.55423,-12.12713 -15.21501,-14.94306c0,0 -2.23607,-1.11803 -1.11803,-3.3541c1.11803,-2.23607 3.3541,-1.11803 3.3541,-1.11803c7.01679,3.52427 15.48562,10.15883 17.79324,18.06519c1.57273,5.38849 0.46522,11.1373 0.83675,16.62681c0.21778,3.21774 1.58787,5.73558 2.9744,8.56129c4.28691,5.08634 9.88163,9.99586 16.33526,12.12748c5.64327,1.86396 11.45031,2.85234 17.143,4.46649l0.81357,-0.09619c0,0 2.5,0 2.5,2.5z" fill="#92f58d"/><path d="M348.89445,126.18374c0.49029,2.45145 -1.96116,2.94174 -1.96116,2.94174l-1.67896,0.32746c-2.74036,0.7772 -5.25093,2.05807 -8.04239,2.66687c-4.85539,1.05892 -9.8037,1.65869 -14.66946,2.63401c-4.10477,0.82278 -7.77832,2.44376 -11.74031,3.68452c-5.38977,1.68789 -11.32441,3.26084 -15.63365,7.02432c-1.04111,0.85013 -2.50041,1.73614 -3.02934,3.10889c-1.14012,2.95898 1.27346,6.42511 1.64086,9.26362c1.11149,8.58726 -3.63683,15.77732 -12.05034,17.78857c-2.11616,0.50587 -5.3493,0.54574 -7.44296,0.4332c-3.50852,-0.18858 -6.28766,-1.08969 -9.47371,-2.44888c0,0 -2.29787,-0.98479 -1.31306,-3.28266c0.9848,-2.29787 3.28266,-1.31306 3.28266,-1.31306c2.65784,1.14491 4.84727,1.90179 7.78061,2.05225c1.6504,0.08465 4.34703,0.07749 6.06042,-0.31698c5.87366,-1.35232 9.03758,-6.21182 8.20471,-12.21893c-0.39149,-2.82367 -1.94831,-5.26578 -1.89963,-8.22373c0.06813,-4.14036 2.05319,-6.15533 5.01227,-8.66108c4.94319,-4.17296 11.26789,-6.07534 17.37461,-7.97943c4.13338,-1.2888 7.98148,-2.96224 12.26569,-3.81736c4.84063,-0.96618 9.75168,-1.60207 14.58785,-2.61731c2.65629,-0.55762 5.10024,-1.83345 7.71156,-2.58444l2.07198,-0.42274c0,0 2.45145,-0.49029 2.94174,1.96116z" fill="#5faaff"/><path d="M337.44853,183.00909c-6.2285,-0.95823 -12.49921,-1.27789 -18.73918,-2.16933c-1.38636,-0.21329 -2.78487,-0.52486 -4.18727,-0.85885c-0.44155,0.37515 -1.0884,0.62407 -2.02582,0.4483c-1.06588,-0.19985 -1.58271,-0.77537 -1.82626,-1.36304c-1.2256,-0.27218 -2.4484,-0.50846 -3.66288,-0.65823c-0.2238,0.05762 -0.47642,0.09014 -0.76155,0.09014c-0.47539,0 -0.86038,-0.0904 -1.17216,-0.23681c-3.25324,-0.0207 -5.09181,1.41524 -8.31759,2.14317c-1.18007,0.26629 -2.28669,0.29448 -3.35857,0.20214c-0.37236,0.64615 -1.25928,1.68056 -2.94422,1.11891c-1.06667,-0.35556 -1.4937,-1.03094 -1.64068,-1.66654c-0.25629,0.27258 -0.61729,0.51171 -1.12086,0.67957c-1.77879,0.59293 -2.66818,-0.59294 -3.0017,-1.22292c-4.38792,0.22129 -8.53242,1.54123 -12.98824,1.54861c0,0 -2.5,0 -2.5,-2.5c0,-0.12321 0.00607,-0.24036 0.01762,-0.35173c-0.01762,-0.14856 -0.01762,-0.24046 -0.01762,-0.24046c0.01562,-6.42206 -1.46723,-12.90862 -3.0776,-19.10932c-0.54243,-2.08862 -2.94816,-8.00441 -1.76096,-9.89897c1.82933,-2.91928 5.43972,-2.48972 8.12814,-2.50869c4.55048,-0.0321 13.16294,-1.18117 15.67608,3.98316c0.60161,1.23627 0.16378,2.74488 0.24566,4.11732c-0.41042,7.01465 0.07874,13.52436 0.58918,20.38764c0.28916,0.06512 0.57788,0.13288 0.86644,0.2002c1.68046,-6.6761 2.09317,-14.0296 1.83786,-20.76272c-0.13669,-3.60487 -0.5822,-7.19285 -0.95974,-10.76988c-0.13283,-1.25851 -0.79495,-2.63094 -0.27852,-3.78627c2.55524,-5.7164 11.27571,-3.16407 16.05806,-2.84298c1.37658,0.20589 3.15405,-0.37501 4.12974,0.61766c2.6052,2.6505 0.74523,8.17033 0.22539,11.1842c-0.60656,3.51667 -1.49924,7.04088 -1.96105,10.5751c-0.60829,4.65525 -0.2103,9.55762 -0.17686,14.26436c0.78522,0.13086 1.57153,0.28779 2.35832,0.45881c1.00232,-6.15246 1.52465,-12.02983 1.52661,-18.41516c0.00102,-3.32445 -0.50284,-7.43332 2.67233,-9.76498c1.36232,-1.00041 5.61299,-0.87344 7.20063,-0.82723c4.57629,0.1332 13.20869,0.83381 15.76223,5.47821c0.61703,1.12227 0.43994,2.52336 0.65991,3.78504c0.62368,4.37655 1.8304,8.61243 2.55677,12.96604c0.79151,4.74399 0.83943,9.45804 1.20986,14.22724l0.00736,0.38914c0,0 0,2.5 -2.5,2.5c-1.24192,0 -1.86689,-0.61694 -2.1814,-1.23788z" fill="#252525"/><path d="M272.30838,161.09831c-2.47093,-0.38014 -2.09079,-2.85107 -2.09079,-2.85107c0.20128,-1.30835 0.79915,-5.87493 1.50227,-6.52936c1.60773,-1.4964 10.30004,-1.90275 11.94062,-0.25833c2.12194,2.1269 1.39362,7.36662 -1.06251,8.95285c-0.80637,0.52078 -5.2592,-0.27077 -6.61941,-0.48224l-1.107,-0.08515c-0.34504,0.6768 -1.07481,1.48228 -2.56319,1.2533z" fill="#404040"/><path d="M275.18502,166.22468c1.38453,-1.40685 3.41656,-2.08681 5.66047,-1.07807c1.37643,0.61877 1.42061,2.67208 1.95568,4.08315c0.94009,2.47917 2.12965,8.12703 -0.31845,10.17956c-3.02437,2.53568 -6.38405,0.89917 -8.30827,-1.61046c-1.61742,-2.10948 -1.80264,-6.37151 -2.00462,-8.91262c0,0 -0.19174,-2.49264 2.30089,-2.68438c0.26286,-0.02022 0.50013,-0.01059 0.71429,0.02283z" fill="#404040"/><path d="M300.08214,178.59572c-0.01645,0.11631 -0.03344,0.23252 -0.051,0.34863c0,0 -0.38014,2.47093 -2.85107,2.09079c-2.47093,-0.38014 -2.09079,-2.85107 -2.09079,-2.85107c0.36569,-2.33004 -0.36604,-7.23943 0.78653,-9.14086c2.3958,-3.95242 5.59354,-4.66451 8.32023,-0.16006c1.59728,2.63868 -1.29654,7.3502 -2.42582,9.61472z" fill="#404040"/><path d="M300.2224,162.25552c-0.32061,0.27412 -1.43241,1.09207 -2.67724,0.47938c-0.27816,-0.03783 -0.58002,-0.12951 -0.90558,-0.29229c-2.23607,-1.11803 -1.11803,-3.3541 -1.11803,-3.3541c0.51179,-1.00482 3.1348,-6.15961 3.15479,-6.16504c1.70186,-0.46228 3.20957,1.46248 4.81435,2.19373l0.06057,0.09953l0.02405,-0.02672l1.96561,1.76905c0.51296,0.45784 0.83592,1.12407 0.83592,1.86573c0,1.3278 -1.03515,2.41383 -2.34247,2.49512l-2.19651,0.15689c-0.54416,0.24802 -1.08338,0.50622 -1.61545,0.77873z" fill="#404040"/><path d="M306.3811,143.50684c0.78531,0.73987 0.78531,1.89512 0.78531,1.89512l-0.39085,1.73698c-0.86783,1.05545 -1.30332,2.74601 -2.60349,3.16634c-4.36868,1.41235 -11.77294,-3.88384 -7.59488,-9.03498c1.00854,-1.24344 3.11807,-0.989 4.71693,-0.90569c1.25037,0.06515 2.34079,0.8896 3.51118,1.3344c0,0 1.33735,0.53494 1.57579,1.80784z" fill="#404040"/><path d="M321.99381,160.10541c-0.26262,0.11591 -0.57584,0.1963 -0.94931,0.22503c-2.49264,0.19174 -2.68438,-2.30089 -2.68438,-2.30089c-0.09261,-1.21545 -0.54917,-6.2796 -0.14813,-6.75693c1.5316,-1.82299 7.87344,-2.4863 9.58366,-0.25368c0.955,1.24671 0.32025,3.16316 0.05482,4.71101c-0.24853,1.44928 -0.39792,3.23423 -1.56967,4.1226c-1.12818,0.85533 -2.82535,0.187 -4.23802,0.28051zM322.95332,154.75321c0.02558,-0.07265 0.06286,-0.13992 0.10876,-0.20259c-0.31452,-0.18315 -0.65166,-0.68475 -0.75293,-0.41214c-0.10454,0.28142 0.36381,0.40532 0.64417,0.61473zM323.23592,155.41104c0.02388,0.14226 0.04042,0.28587 0.052,0.4304c0.01083,-0.00512 0.02168,-0.01122 0.03257,-0.01838c0.14065,-0.09241 0.04661,-0.24259 -0.08457,-0.41202z" fill="#404040"/><path d="M332.2134,161.95517c-2.34082,-0.87781 -1.46301,-3.21863 -1.46301,-3.21863l0.06066,-0.16131c-0.90626,-0.79265 -0.80466,-2.11354 -0.80466,-2.11354c0.56478,-1.55585 0.0712,-4.34336 1.69433,-4.66754c8.11739,-1.6213 4.94211,4.86455 4.29037,7.20259l-0.55905,1.49543c0,0 -0.87781,2.34082 -3.21863,1.46301z" fill="#404040"/><path d="M318.657,169.59915c-0.70504,-0.28021 -1.56785,-0.92948 -1.48476,-2.42509c0.13868,-2.49615 2.63483,-2.35748 2.63483,-2.35748c1.8409,0.11659 3.72894,0.07549 5.52229,-0.35628l0.10925,0.01452l-0.00454,-0.03176l2.72095,-0.38871c0.12902,-0.02054 0.26133,-0.03121 0.39613,-0.03121c1.38071,0 2.5,1.11929 2.5,2.5c0,0.5074 -0.15116,0.9795 -0.41091,1.37371l-1.3617,2.13981l-0.08632,-0.05493c-0.14413,0.24858 -0.31103,0.48357 -0.50731,0.70101c-2.02396,2.24213 -4.91406,1.3541 -7.47409,0.32983c-0.70849,0.00567 -1.27869,-0.27942 -1.27869,-0.27942l-0.00527,-0.24529c-0.56287,-0.22939 -1.09656,-0.43819 -1.58585,-0.5883z" fill="#404040"/><path d="M334.87238,163.43097c0.30136,-0.56208 0.87444,-1.08535 1.9591,-1.17573c2.49136,-0.20761 2.69898,2.28375 2.69898,2.28375l0.19867,2.38461c0.32326,4.24259 3.23752,11.22008 -0.58509,14.63831c-1.32003,1.18039 -3.03839,2.80742 -4.7544,2.37023c-1.64702,-0.41962 -2.15511,-2.69821 -2.76291,-4.28545c-0.36438,-0.95155 -0.04275,-2.0375 -0.04855,-3.05642c-0.02058,-3.61486 0.79229,-7.0257 0.78958,-10.6593c0,0 0,-2.5 2.5,-2.5c0.00154,0 0.00308,0 0.00462,0z" fill="#404040"/><path d="M328.73422,174.26191c0.52008,0.0647 1.08089,0.3326 1.5929,0.9909c1.53485,1.97338 -0.43853,3.50823 -0.43853,3.50823l-2.19337,1.64445c-1.42734,0.5378 -2.77878,1.87192 -4.28201,1.61341c-2.79463,-0.48059 -5.78648,-5.68444 -4.17665,-8.29565c0.73974,-1.19989 5.57185,-1.01475 7.14323,-1.01475c0,0 1.82041,0 2.35443,1.5534z" fill="#404040"/></g><g stroke-width="0.5"><path d="M476.65612,223.14052c0.31009,2.48069 -2.17061,2.79078 -2.17061,2.79078l-1.99927,0.2489c-6.91736,1.06177 -13.73008,1.35795 -20.59414,2.82803c-2.14996,0.37959 -7.06369,1.26202 -9.17189,1.57221c-3.3927,0.49918 -4.23099,0.4309 -7.40973,1.01957c-2.60349,0.48214 -5.22479,0.96472 -7.87027,1.07451c-10.76491,0.44674 -30.33053,-0.36065 -29.74048,-15.54517c0.12842,-3.30478 1.09396,-5.9486 2.30894,-8.97878c3.92181,-7.06857 10.47025,-11.96543 14.60354,-18.84367c1.05303,-1.75236 3.62651,-5.37969 1.72267,-7.51274c-1.5599,-1.7477 -4.54222,-2.73466 -6.57352,-3.66505c-2.8398,-1.30071 -5.68585,-2.58449 -8.52938,-3.87698c0,0 -2.27592,-1.03451 -1.24141,-3.31042c1.03451,-2.27592 3.31042,-1.24141 3.31042,-1.24141c5.14272,2.33764 13.38378,4.39155 16.97159,9.01255c3.33723,4.29826 1.00766,9.19361 -1.38131,13.18048c-4.03921,6.7409 -10.53802,11.52328 -14.36698,18.40413c-0.50476,1.26559 -1.35344,3.20413 -1.61396,4.57461c-2.52332,13.27391 15.69569,13.13747 24.36349,12.80522c2.39869,-0.09194 4.77199,-0.55773 7.13231,-0.99481c3.47684,-0.64384 3.9203,-0.50994 7.59285,-1.04975c1.97457,-0.29023 6.91562,-1.17566 8.93468,-1.53178c6.93136,-1.48611 13.81266,-1.78624 20.7923,-2.86261l2.13938,-0.26843c0,0 2.48069,-0.31009 2.79078,2.17061z" fill="#92f58d"/><path d="M481.7433,240.72355c-0.71837,2.39457 -3.11294,1.6762 -3.11294,1.6762l-2.58665,-0.776c-11.37691,-3.41926 -25.78729,-6.08682 -32.94026,-16.81895c-2.0581,-3.08791 -2.93676,-7.1966 -3.9722,-10.69768c-0.37866,-3.67053 -1.15869,-7.27162 -1.81799,-10.90252c-0.45335,-2.49674 -0.67132,-5.35921 -2.15508,-7.52139c-1.29621,-1.88888 -3.98927,-2.5558 -6.00956,-3.23021c-7.63073,-2.54726 -15.79335,-1.83123 -23.46187,-4.11429c0,0 -2.39457,-0.71837 -1.6762,-3.11294c0.71837,-2.39457 3.11294,-1.6762 3.11294,-1.6762c7.69827,2.32948 15.90917,1.59755 23.61521,4.163c3.18303,1.05967 6.42652,2.19039 8.4757,5.04708c3.61338,5.03731 4.23612,14.31187 4.82155,20.37588c0.88216,2.89144 1.567,6.4066 3.27043,8.96088c6.33506,9.49939 20.17168,11.74262 30.17407,14.73821l2.58665,0.776c0,0 2.39457,0.71837 1.6762,3.11294z" fill="#5faaff"/><path d="M491.34076,187.74399c2.08013,1.38675 0.69338,3.46688 0.69338,3.46688l-1.03466,1.55199c-2.54511,3.80101 -5.6647,6.17902 -8.93361,9.257c-3.24154,3.05221 -5.53193,7.02482 -8.78432,10.07852c-4.09554,3.84534 -8.36666,6.463 -13.8189,7.84202c-5.32617,1.05965 -10.73961,1.49219 -16.15484,1.86562c-4.23882,0.29231 -8.95924,0.20649 -13.0141,1.66131c-3.55461,1.27534 -6.48143,4.54902 -9.65382,6.51509c-3.96761,2.45891 -8.1651,4.58873 -12.17252,6.99319c0,0 -2.14373,1.28624 -3.42997,-0.85749c-1.28624,-2.14373 0.85749,-3.42997 0.85749,-3.42997c3.99774,-2.39864 8.18149,-4.52601 12.14201,-6.97474c3.54647,-2.19272 6.55423,-5.47832 10.52207,-6.9355c9.24319,-3.39455 20.18476,-1.77963 29.80674,-3.7157c9.6183,-2.37094 13.60504,-10.36754 20.33522,-16.74061c2.96248,-2.80529 5.83803,-4.86468 8.1383,-8.33224l1.03466,-1.55199c0,0 1.38675,-2.08013 3.46688,-0.69338z" fill="#ed66ff"/><path d="M510.79994,228.05516c0.31009,2.48069 -2.17061,2.79078 -2.17061,2.79078l-2.37941,0.27797c-5.27283,-0.0033 -10.95017,-0.13604 -16.10362,-1.36242c-12.50095,-2.97488 -23.92846,-11.74596 -34.04294,-19.3267c-3.64465,-2.83712 -7.08324,-6.44818 -10.95994,-8.93899c-3.93179,-2.5262 -8.94579,-2.44557 -13.3891,-2.44638c-3.28778,-0.0006 -6.88088,-0.199 -10.12189,0.47015c-4.95054,1.02211 -9.18457,4.13005 -13.42374,6.67487c0,0 -2.14373,1.28624 -3.42997,-0.85749c-1.28624,-2.14373 0.85749,-3.42997 0.85749,-3.42997c4.77645,-2.86431 9.46385,-6.12525 15.02945,-7.29305c3.55512,-0.74596 7.47991,-0.56386 11.08866,-0.56451c5.49599,-0.00098 11.24627,0.21865 16.09874,3.24425c4.01118,2.50105 7.54772,6.26323 11.28527,9.16758c9.51532,7.14165 20.40011,15.63307 32.17537,18.43843c4.76791,1.13591 10.05919,1.2275 14.93622,1.22423l1.75924,-0.23936c0,0 2.48069,-0.31009 2.79078,2.17061z" fill="#fe537b"/><path d="M403.21025,180.90621c1.14778,0 1.76861,0.52696 2.1044,1.09702c4.94504,2.42304 11.57718,2.26306 16.96164,2.76919c2.98793,0.28086 4.57663,-0.68824 6.68364,2.75886c0.29678,0.48553 0.71748,6.17343 0.75216,7.14458c0.24272,6.79654 0.00159,13.64744 0.00159,20.44917c0,8.29269 -0.41815,16.57859 -1.07957,24.84606c-0.12409,1.55104 -0.36306,6.21907 -1.44692,6.96335c-1.89703,1.30268 -7.7062,-1.07399 -10.02269,-1.24125c-4.00359,-0.28908 -11.70795,1.64054 -14.98499,-1.27858c-1.83758,-1.63688 -1.72435,-4.9106 -1.89154,-7.03688c-1.28035,-17.92555 0.42228,-35.83212 0.42228,-53.7572v-0.21432c0,0 0,-2.5 2.5,-2.5z" fill="#252525"/><path d="M430.14693,244.08839c-0.14468,-0.65782 -0.01132,-1.23575 -0.01132,-1.23575c1.44264,-6.2393 1.82513,-12.86266 2.0813,-19.25885c0.08665,-2.16342 -0.83612,-7.7614 0.45017,-9.47437c0.8799,-1.17178 2.54935,-1.53145 3.97139,-1.88511c1.21388,-0.30189 2.5021,-0.07322 3.7524,-0.03576c3.19742,0.0958 8.36561,0.41041 11.22058,1.93772c1.24389,0.66544 2.67655,1.36664 3.32332,2.62034c0.66913,1.29704 0.18837,2.91285 0.28255,4.36927c-0.00332,6.46295 -0.33053,12.61424 0.20568,19.08086c0.13096,1.57936 0.64013,5.82439 -0.19692,6.95227c-2.45814,3.31222 -4.55215,1.95455 -7.42992,1.74768c-4.44235,-0.31934 -8.84093,-0.70482 -13.28902,-1.0717l-2.65392,-0.73975c0,0 -2.32364,-0.69709 -1.70629,-3.00686z" fill="#252525"/><path d="M474.43835,252.53346c-1.63935,-0.23419 -2.03767,-1.39915 -2.11977,-2.15905c-0.16203,0.02661 -0.33737,0.04101 -0.5271,0.04101c-2.5,0 -2.5,-2.5 -2.5,-2.5c0.0052,-6.45368 -0.77486,-13.04573 0.2466,-19.47461c0.15833,-0.99647 0.20034,-2.08073 0.34569,-3.11834c-1.58195,0.15738 -3.18221,0.19968 -4.83135,-0.00131c-1.28319,-0.15639 -6.06648,-0.97701 -6.67277,-1.64421c-0.90387,-0.99468 -0.97893,-5.4241 -0.87373,-6.95578c0.10673,-1.55402 -0.64389,-3.59999 0.51125,-4.64498c1.28295,-1.16061 3.43705,-0.52586 5.16673,-0.49156c4.39405,0.08715 9.22616,1.66577 13.61659,2.34364c1.95747,0.16193 3.91512,0.3168 5.87183,0.48234c0.4812,0.03446 1.06021,0.08175 1.65266,0.14277c1.1341,0.10028 2.26778,0.20582 3.40081,0.32008l0.35537,0.42712l0.1239,-0.22714l2.31289,1.26158c0.80067,0.4167 1.34745,1.25403 1.34745,2.21906c0,0.68368 -0.27444,1.30326 -0.71915,1.75459c0.69052,0.4449 1.14779,1.2206 1.14779,2.1031c0,1.38071 -1.11929,2.5 -2.5,2.5c-0.1348,0 -0.26711,-0.01067 -0.39613,-0.03121l-2.80623,-0.40089c-0.18047,0.00375 -0.36019,0.00948 -0.53926,0.01694c-0.1766,0.01579 -0.35738,0.02464 -0.54168,0.02771c-2.07938,0.12526 -4.08523,0.45325 -6.19089,0.59131c-0.445,0.83793 -0.88744,1.68946 -0.97463,2.52707c-0.73126,7.02479 -0.26105,14.0838 -0.84763,21.12327l-0.23081,1.64615c0,0 -0.35355,2.47487 -2.82843,2.12132zM462.51329,216.57405c0.0062,0.0258 0.01212,0.05165 0.01777,0.07755c0.02261,-0.01424 0.04546,-0.02813 0.06855,-0.04166c-0.02888,-0.01169 -0.05765,-0.02365 -0.08631,-0.03589z" fill="#252525"/><path d="M413.85976,238.06444c0.25233,0.3565 0.42314,0.83917 0.42314,1.49264c0,2.5 -2.5,2.5 -2.5,2.5l-1.20943,-0.94262c-0.35423,0.50732 -0.96213,0.94262 -2.00532,0.94262c-2.5,0 -2.5,-2.5 -2.5,-2.5c0.00215,-2.66736 0.21587,-5.26621 0.43727,-7.923l-0.00864,-1.50692c0,0 0,-1.70954 1.41367,-2.30127c0.2083,-0.71985 0.75834,-1.59003 2.19411,-1.69259c2.49365,-0.17812 2.67176,2.31553 2.67176,2.31553c0.23278,3.25907 0.58141,6.40897 1.08342,9.61561z" fill="#404040"/><path d="M423.14167,240.77119c-1.02042,0 -1.62434,-0.4165 -1.98175,-0.9095c-0.32215,0.16382 -0.7262,0.26655 -1.23299,0.26655c-2.5,0 -2.5,-2.5 -2.5,-2.5c0,-2.71467 0,-5.42935 0,-8.14402v-2.5718c0,0 0,-2.5 2.5,-2.5c0.11107,0 0.2172,0.00493 0.31862,0.01437c-0.04501,-0.29798 -0.0344,-0.57863 -0.00735,-0.80278c-2.38264,-0.07699 -2.38264,-2.49812 -2.38264,-2.49812c0.0118,-3.57499 -0.5508,-7.14927 -0.84863,-10.72252l-0.00864,-1.49351c0,0 0,-2.5 2.5,-2.5c1.8527,0 2.3324,1.37299 2.4566,2.08399c0.30891,-0.7006 1.03158,-1.65919 2.6385,-1.41197c2.47093,0.38014 2.09079,2.85107 2.09079,2.85107c-0.69816,4.52142 -0.91733,8.98072 -1.26419,13.52784l-0.33524,1.24178c0,0 -0.09977,0.29931 -0.33476,0.64983c0.89168,0.73132 0.89168,1.98866 0.89168,1.98866c0,3.5005 0,7.001 0,10.5015v0.42863c0,0 0,2.5 -2.5,2.5z" fill="#404040"/><path d="M409.06349,208.25268c0.05118,-0.01706 0.10162,-0.03265 0.15133,-0.04682c0.20879,-0.63884 0.71111,-1.30267 1.86348,-1.53314c0.89782,-0.17956 1.53258,0.03545 1.97655,0.38011c0.00464,-0.00002 0.0093,-0.00003 0.01396,-0.00003c2.5,0 2.5,2.5 2.5,2.5c-0.00238,2.94893 -0.2639,5.62417 -0.77967,8.53081l-0.07897,0.0775c0.00144,0.5584 0.00137,1.11784 0.00137,1.67887c0,0 0,2.5 -2.5,2.5c-0.45114,0 -0.82087,-0.08141 -1.12388,-0.21485c-1.2412,-0.02547 -2.26019,-0.95552 -2.42453,-2.15769l-0.42273,-2.74774l0.33177,-0.05104c-0.52879,-1.66385 -0.79615,-3.31734 -0.99515,-5.69371l-0.09466,-0.05999c0,0 -0.79057,-2.37171 1.58114,-3.16228z" fill="#404040"/><path d="M413.63996,190.26433l-0.00864,1.49351c-0.25097,2.929 -0.89535,5.63748 -1.5556,8.49856c0,0 -0.56215,2.43598 -2.99813,1.87383c-1.01512,-0.23426 -1.5096,-0.79391 -1.74108,-1.36709c-0.54674,-0.66391 -0.61677,-1.50422 -0.61677,-1.50422c-0.30705,-3.72082 -0.30698,-7.41108 0,-11.13104l-0.00864,-0.0067c0,0 0,-2.5 2.5,-2.5c1.94688,0 2.37762,1.51613 2.47292,2.18702c1.95592,0.33348 1.95592,2.45614 1.95592,2.45614z" fill="#404040"/><path d="M413.64387,197.80201c0.45758,-1.83032 1.95112,-1.93405 2.65642,-1.87478c-1.13468,-3.30421 -0.93917,-8.98621 4.26982,-8.55447c1.73902,0.14413 2.48428,2.5354 3.25174,4.10256c1.02991,2.1031 0.3196,6.33252 0.3196,8.64756c0,0 0,2.5 -2.5,2.5c-1.12414,0 -1.7428,-0.50548 -2.08328,-1.06185c-1.03604,-0.09154 -2.19012,-0.49676 -3.19383,-0.50239l-0.90146,-0.22494c0,0 -2.42536,-0.60634 -1.81902,-3.0317z" fill="#404040"/><path d="M437.18157,225.85045c-0.45251,0.19223 -1.03066,0.24679 -1.75718,0.00462c-2.37171,-0.79057 -1.58114,-3.16228 -1.58114,-3.16228c0.73151,-2.14184 0.02954,-5.53394 2.09538,-6.45853c5.86542,-2.62512 10.0389,7.11825 5.6088,10.26535c-1.19963,0.85221 -2.89874,-0.38329 -4.36587,-0.64916z" fill="#404040"/><path d="M448.46761,226.76599c-0.1222,-0.03055 -0.23671,-0.06572 -0.34398,-0.10496c-0.51696,0.38773 -1.2695,0.62541 -2.3046,0.22729c-2.33336,-0.89745 -1.43592,-3.23081 -1.43592,-3.23081c0.55117,-1.22421 1.10235,-2.44841 1.65352,-3.67262l1.04649,-0.15463l-0.14942,-0.4109l2.30304,-0.83747c0.28168,-0.10996 0.58819,-0.17031 0.90879,-0.17031c1.38071,0 2.5,1.11929 2.5,2.5c0,0.29691 -0.05176,0.58173 -0.14675,0.84593l-0.83881,2.51643l-0.16067,0.67303c0,0 -0.60634,2.42536 -3.0317,1.81902z" fill="#404040"/><path d="M445.96184,246.5964c-0.11854,0.70473 -0.58945,2.1045 -2.46012,2.1045c-0.85889,0 -1.42271,-0.29508 -1.79282,-0.68249c-0.31792,0.15641 -0.71404,0.25385 -1.20761,0.25385c-2.5,0 -2.5,-2.5 -2.5,-2.5c0.00299,-3.41089 -0.51313,-6.87791 -0.21432,-10.28718c0.12309,-1.40443 -0.40644,-3.19285 0.59245,-4.18773c1.19486,-1.19007 3.2216,-1.48563 4.89515,-1.27787c5.68568,0.70584 5.10187,7.47066 4.65383,11.57036c-0.14672,1.34252 0.27176,3.0757 -0.72586,3.986c-0.43989,0.40139 -0.85269,0.73988 -1.2407,1.02056z" fill="#404040"/></g><path d="M490.24959,181.46233c0.70872,0.87985 1.30409,1.75287 1.74031,2.50862c0.34305,0.59434 0.55048,1.25044 0.73734,1.91591c0.47645,1.15287 0.85014,2.41657 0.82038,3.51317c0.09931,0.55154 0.17268,1.1048 0.1647,1.66345c-0.03181,2.2286 -0.96146,6.80117 -3.91283,7.36388c-1.38247,0.26358 -3.14133,-1.01089 -4.63436,-2.38308c-1.30192,-0.19584 -2.50844,-1.31712 -3.53455,-2.3914l0.24916,0.87205c0.07283,0.23452 0.11205,0.48385 0.11205,0.74232c0,1.38071 -1.11929,2.5 -2.5,2.5c-0.41632,0 -0.80887,-0.10177 -1.15413,-0.28177c-1.18423,1.16935 -3.33085,1.00486 -5.53129,0.45398c-1.6904,4.58596 -10.00986,0.84132 -13.35207,-0.30904c-1.09836,-0.37804 -2.18414,-0.7919 -3.28177,-1.17206c-1.83945,-0.63709 -6.68435,-1.99643 -7.48121,-3.52404c-0.06699,-0.12841 -0.12448,-0.2661 -0.17273,-0.41153c-3.57331,-1.03848 -6.82245,-2.83204 -7.54851,-5.77927c-0.15857,-0.64368 -0.1359,-1.40323 0.01457,-2.19485c-0.20788,-0.36463 -0.32666,-0.78665 -0.32666,-1.23641c0,-0.33667 0.06655,-0.65779 0.18721,-0.95093l0.40846,-1.06199c-0.41552,-0.23075 -0.81266,-0.48199 -1.18671,-0.75446c-4.13796,1.30012 -8.44772,1.73528 -13.16339,0.75257c-2.15931,-0.44998 -6.41618,-2.41128 -7.99426,-3.72889c-0.54233,-0.45282 -1.1798,-0.92281 -1.71352,-1.44953c-0.61856,-0.13503 -1.92665,-0.40597 -3.29786,-0.80298c-1.18484,1.47728 -3.00173,2.05865 -5.80953,0.51196c-2.35014,-1.29459 -2.87733,-4.83076 -1.89776,-7.36008c-0.23195,-1.15492 -0.33861,-2.19621 -0.12768,-2.72599c0.5251,-1.31889 1.21585,-2.21821 2.02071,-2.80139c0.10775,-1.28134 1.18191,-2.28769 2.49111,-2.28769c0.64652,0 1.23573,0.24542 1.67954,0.64818l1.09208,0.98287c1.3537,0.29457 2.74002,0.79916 4.04863,1.29225c0.57015,-3.56106 1.67916,-4.65033 6.16161,-5.2632c1.30453,-0.17837 2.59992,0.44413 3.86967,0.79246c4.20725,1.15418 8.58055,3.15863 12.39677,5.57411c1.0741,0.3351 2.12338,0.84786 3.14837,1.43417c0.24331,-0.08422 0.49063,-0.15981 0.74134,-0.22638c5.01993,-1.33306 10.23418,0.04392 9.10928,5.84669c0.54393,-0.02587 0.96972,-0.04559 1.19832,-0.05629l-0.23033,-4.14594c-0.00332,-0.05274 -0.00501,-0.10593 -0.00501,-0.15951c0,-1.38071 1.11929,-2.5 2.5,-2.5c1.14459,0 2.10953,0.7692 2.40609,1.81887l0.63039,2.04877c0.0843,-0.07497 0.17149,-0.14848 0.2616,-0.22048c2.15551,-1.72231 4.19395,-1.71699 6.14987,-1.00283c0.45496,-0.47398 1.09493,-0.76902 1.80381,-0.76902c1.17669,0 2.16352,0.81295 2.42946,1.90784l0.43718,1.63944c1.88202,1.60044 3.20719,3.57546 4.05678,5.75866c0.27312,-0.28616 0.5978,-0.57146 0.98039,-0.85616c1.25923,-0.93706 2.6209,-1.27976 4.00423,-1.19924l1.90896,-0.73422c0.29314,-0.12066 0.61427,-0.18721 0.95093,-0.18721c1.38071,0 2.5,1.11929 2.5,2.5c0,0.16916 -0.0168,0.3344 -0.04883,0.49413c2.19491,1.49831 4.1546,3.5676 5.49368,5.39151zM457.78528,187.78071l-0.20921,-0.34868c-0.03113,0.03086 -0.06306,0.06089 -0.09577,0.09009l-0.5067,0.45602c0.25693,-0.07068 0.529,-0.13522 0.81168,-0.19743zM466.16401,181.02227c-0.1574,0.15207 -0.31424,0.3319 -0.46968,0.54171l0.5041,0.12602c-0.00898,-0.21919 -0.02076,-0.442 -0.03441,-0.66773zM488.53099,192.08494c0.01071,-0.04294 0.02166,-0.08588 0.0326,-0.12882c-0.05255,-0.00725 -0.10492,-0.01453 -0.15709,-0.0218c0.04352,0.04985 0.08511,0.10004 0.12449,0.15062zM445.93464,184.95635c-0.0532,0.2481 -0.02816,0.48676 0.1167,0.7091c-0.0428,-0.23605 -0.08007,-0.47353 -0.1167,-0.7091z" fill-opacity="0.50196" fill="#808080" stroke-width="0.5"/><path d="M310.81058,178.48351c2.00693,-0.07771 4.00737,-0.06936 5.9897,0.12292c4.59207,2.41843 8.00117,2.09519 13.07373,2.28787c2.87945,0.10938 5.70513,0.65523 8.57324,0.90129l0.17771,0.12234l0.02032,-0.08127l2.55796,0.63949c1.1133,0.25265 1.9444,1.24829 1.9444,2.43804c0,1.26477 -0.93921,2.31019 -2.15823,2.47684l-2.78772,0.42888l-0.0066,-0.04294c-0.06068,0.02223 -0.12165,0.04382 -0.18291,0.06473c-2.84945,0.97264 -7.66884,-0.3402 -10.7389,-0.21227c-4.63236,0.19303 -9.36337,0.99205 -14.00575,0.64581c-4.0919,-0.30518 -8.14555,-1.15162 -12.26829,-1.29721c-6.04897,-0.21361 -12.11148,-0.01228 -18.15316,-0.44085c-3.74405,-0.31516 -7.46965,-0.28388 -11.21396,0.00535l-0.28906,-0.14869l-0.01946,0.11678l-2.56816,-0.42803c-1.13554,-0.16868 -2.02198,-1.10094 -2.12044,-2.25794c-0.3025,-0.39566 -0.49995,-0.9503 -0.43525,-1.72677c0.20761,-2.49137 2.69898,-2.28375 2.69898,-2.28375c0.6965,0.06055 1.37752,0.08848 2.04748,0.09047l0.10513,-0.05257l0.01977,0.03956c0.08139,-0.05275 0.16375,-0.10417 0.24719,-0.15417c0.84582,-0.50674 6.28071,-1.32055 7.44117,-1.60193c9.85291,-2.38913 19.2268,-1.15608 29.27946,-1.15608h0.43478c0,0 1.78168,0 2.33686,1.5041z" fill="#252525" stroke-width="0.5"/><path d="M476.71243,254.58279c0.51869,0.42909 0.95345,1.14129 0.74271,2.30036c-0.44722,2.45968 -2.90689,2.01246 -2.90689,2.01246l-2.1517,-0.40309c-0.83499,-0.07031 -1.66998,-0.14062 -2.50498,-0.21092c-19.32729,0 -38.59659,-2.96275 -57.82609,-4.56521c-2.65869,0.00211 -5.38991,0.16022 -8.04348,0c-1.12281,-0.06779 -2.39139,0.21638 -3.35484,-0.36418c-4.77934,-2.87995 -5.1203,-4.62978 -0.78401,-7.06976c0.00045,-0.08734 0.00444,-0.17782 0.01225,-0.27152c0.20761,-2.49137 2.69898,-2.28375 2.69898,-2.28375c4.65526,0.39056 9.24417,1.35959 13.89605,1.73777c5.4344,0.4418 11.01859,-0.23861 16.44461,-0.4399c6.58875,-0.24443 13.52756,0.33408 20.09411,0.87604c5.49788,0.46124 10.90546,1.50494 16.41803,1.73265c1.53389,0.06336 6.01011,-0.29456 6.88126,0.94746c1.12007,1.59691 1.40327,4.11228 0.48238,5.83177c-0.0313,0.05843 -0.06412,0.11501 -0.0984,0.1698z" fill="#252525" stroke-width="0.5"/><path d="M277.953,110.92507c0.0233,0.04661 0.04499,0.09373 0.06508,0.14129c0.2172,0.37052 0.34171,0.80195 0.34171,1.26246c0,1.12237 -0.73961,2.07198 -1.75804,2.38806c-0.62152,0.2652 -1.36806,0.23237 -2.13951,-0.29175c-3.66503,-2.49 -12.15281,-8.44657 -14.43413,-12.10172c-1.15448,-1.84972 -4.1652,-4.35905 -1.1435,-6.37351c1.0627,-0.70847 2.96421,0.50417 3.64292,1.2671c1.23755,1.39111 1.8838,3.38848 3.39315,4.56147c3.48757,2.71036 9.42429,4.93066 11.77078,8.84148z" fill="#92f58d" stroke-width="0.5"/><path d="M300.0349,111.10053c-1.85697,0.19079 -3.66765,0.45085 -5.21453,0.62201c-0.08976,0.00993 -0.17988,0.02483 -0.27024,0.04341c0.00828,0.07157 0.01495,0.14312 0.02006,0.21465c0.02508,0.01184 0.05022,0.02363 0.07543,0.03537c1.14738,-0.31776 2.92297,-0.41852 4.44838,-0.31773c0.26201,-0.26449 0.58268,-0.47076 0.94089,-0.5977zM272.7758,113.34116l-0.36156,-0.27494l-0.05903,0.16235l-2.52375,-0.91773c-0.98859,-0.33348 -1.70042,-1.26831 -1.70042,-2.3694c0,-1.18976 0.8311,-2.18539 1.94439,-2.43804l2.34432,-0.58608c-0.19366,-0.35509 -0.30372,-0.76234 -0.30372,-1.19529c0,-1.38071 1.11929,-2.5 2.5,-2.5c0.16656,0 0.32931,0.01628 0.48675,0.04735c0.34526,-0.18 0.73782,-0.28177 1.15413,-0.28177c0.16973,0 0.33551,0.01691 0.49574,0.04915l2.53,0.46l-0.00466,0.02562l0.06226,-0.01444c0.47713,0.11001 0.92364,0.21329 1.34488,0.31306c1.25781,-0.1604 2.71028,0.33835 4.01058,0.33868c2.96902,0.00075 9.37097,-1.52621 10.5355,2.51394c1.10207,-0.08493 2.07525,-0.14091 2.42452,-0.16424c3.37545,-0.2255 7.91862,-0.94556 11.25186,-0.1818c2.41107,0.55246 4.75729,1.7071 7.12834,2.78517c4.29289,-0.18631 8.49041,0.15094 12.68076,0.72592c4.92714,-0.47568 9.97662,-0.30685 14.34092,0.1917c1.99057,0.22739 5.53883,0.358 6.79936,2.55118c1.44396,0.46406 2.70306,1.61641 3.51966,3.69079c0.58641,1.48964 -0.12631,3.19931 -0.18947,4.79897c-0.56317,0.89357 -1.12634,1.78713 -1.68951,2.6807l-2.63042,1.90531c0,0 -1.95664,1.22289 -3.28527,-0.56073c-1.65083,1.76638 -3.78749,2.77918 -5.645,1.76253c-0.12622,-0.06909 -0.24027,-0.149 -0.34324,-0.23852c-0.20836,0.03601 -0.42614,0.06978 -0.65366,0.10122c-0.23924,0.03306 -0.48414,0.03805 -0.73109,0.01798c-0.5813,0.17176 -1.18613,0.31565 -1.80838,0.43639c-0.17613,0.4472 -0.41437,0.8585 -0.73853,1.20722c-2.70175,2.90645 -4.26825,2.68199 -5.86929,1.34334c-0.07146,0.01234 -0.14289,0.02428 -0.21423,0.03581c-0.26109,0.19459 -0.56146,0.3394 -0.88706,0.42038l-2.52613,0.68894l-0.08065,-0.29573c-0.23442,0.12688 -0.46882,0.25376 -0.70324,0.38064l-0.55846,-0.42827l0.82079,0.67155c0.56901,0.45825 0.93309,1.16067 0.93309,1.94813c0,1.38071 -1.11929,2.5 -2.5,2.5h-3.985v-0.03697l-0.13104,0.03354c-7.58215,-0.79435 -14.63031,-1.63222 -21.14585,-5.78508c0,0 -0.43018,-0.27654 -0.77634,-0.77405c-0.933,-0.60179 -1.84387,-1.24686 -2.73616,-1.92679c-5.45879,0.60569 -12.45532,0.44462 -9.78721,-6.86566c0.07773,-0.21296 0.17359,-0.41541 0.28585,-0.60786c-0.03625,-0.00464 -0.07241,-0.00965 -0.10849,-0.01503c-0.43116,-0.06432 -0.94655,-0.20038 -1.49833,-0.39503c-0.95947,1.11052 -1.98696,1.98518 -2.68351,2.01449c-1.57094,0.06611 -3.83227,-0.26817 -4.8843,-1.38283c-0.16566,-0.05476 -0.32782,-0.12356 -0.48591,-0.20874c-0.20896,-0.11258 -0.40032,-0.24483 -0.57722,-0.39325l-0.00552,0.00621l-2.10036,-1.86698c-0.52022,-0.45813 -0.84843,-1.12915 -0.84843,-1.87683c0,-0.96071 0.5419,-1.79484 1.3367,-2.21343c-0.41865,-0.01122 -0.8136,-0.02039 -1.16996,-0.01273z" fill-opacity="0.50196" fill="#808080" stroke-width="0.5"/><path d="M276.21693,141.18596c-0.36153,0.63268 -0.48569,1.50434 -0.99036,1.99291c-0.07697,0.07451 -0.16278,0.14011 -0.25964,0.19459c-0.04432,0.02493 -0.09973,0.04676 -0.16552,0.06567c-0.32804,0.15818 -0.69591,0.24683 -1.08448,0.24683c-0.32654,0 -0.63845,-0.0626 -0.9244,-0.17646c-3.72803,-0.20417 -10.80924,-1.44478 -12.18029,-1.53782c-2.07381,-0.14073 -3.73571,1.12326 -5.75245,1.57143c-1.41363,0.31414 -2.92857,-0.97011 -2.92857,-2.5c0,-2.92288 2.83388,-2.26047 4.39548,-3.22387c3.28759,-2.02822 10.0667,-0.86263 13.71343,0.23324c0.97772,0.29381 4.39303,0.01188 4.94564,0.97895z" fill="#fe537b" stroke-width="0.5"/><path d="M379.08251,144.91622c-0.35821,-0.12694 -0.67888,-0.33321 -0.94089,-0.5977c-1.52541,0.10079 -3.301,0.00003 -4.44838,-0.31773c-0.02521,0.01174 -0.05035,0.02353 -0.07543,0.03537c-0.00511,0.07153 -0.01178,0.14308 -0.02006,0.21465c0.09036,0.01858 0.18048,0.03348 0.27024,0.04341c1.54688,0.17116 3.35756,0.43122 5.21453,0.62201zM351.82342,142.67558c0.35636,0.00766 0.75131,-0.00151 1.16996,-0.01273c-0.7948,-0.41859 -1.3367,-1.25272 -1.3367,-2.21343c0,-0.74768 0.32821,-1.4187 0.84843,-1.87683l2.10036,-1.86698l0.00552,0.00621c0.1769,-0.14842 0.36826,-0.28067 0.57722,-0.39325c0.15809,-0.08518 0.32025,-0.15398 0.48591,-0.20874c1.05203,-1.11466 3.31336,-1.44894 4.8843,-1.38283c0.69655,0.02931 1.72404,0.90397 2.68351,2.01449c0.55178,-0.19465 1.06717,-0.33071 1.49833,-0.39503c0.03608,-0.00538 0.07224,-0.01039 0.10849,-0.01503c-0.11226,-0.19245 -0.20812,-0.3949 -0.28585,-0.60786c-2.66811,-7.31028 4.32842,-7.47135 9.78721,-6.86566c0.89229,-0.67993 1.80316,-1.325 2.73616,-1.92679c0.34616,-0.49751 0.77634,-0.77405 0.77634,-0.77405c6.51554,-4.15286 13.5637,-4.99073 21.14585,-5.78508l0.13104,0.03354v-0.03697h3.985c1.38071,0 2.5,1.11929 2.5,2.5c0,0.78746 -0.36408,1.48988 -0.93309,1.94813l-0.82079,0.67155l0.55846,-0.42827c0.23442,0.12688 0.46882,0.25376 0.70324,0.38064l0.08065,-0.29573l2.52613,0.68894c0.3256,0.08098 0.62597,0.22579 0.88706,0.42038c0.07134,0.01153 0.14277,0.02347 0.21423,0.03581c1.60104,-1.33865 3.16754,-1.56311 5.86929,1.34334c0.32416,0.34872 0.5624,0.76002 0.73853,1.20722c0.62225,0.12074 1.22708,0.26463 1.80838,0.43639c0.24695,-0.02007 0.49185,-0.01508 0.73109,0.01798c0.22752,0.03144 0.4453,0.06521 0.65366,0.10122c0.10297,-0.08952 0.21702,-0.16943 0.34324,-0.23852c1.85751,-1.01665 3.99417,-0.00385 5.645,1.76253c1.32863,-1.78362 3.28527,-0.56073 3.28527,-0.56073l2.63042,1.90531c0.56317,0.89357 1.12634,1.78713 1.68951,2.6807c0.06316,1.59966 0.77588,3.30933 0.18947,4.79897c-0.8166,2.07438 -2.0757,3.22673 -3.51966,3.69079c-1.26053,2.19318 -4.80879,2.32379 -6.79936,2.55118c-4.3643,0.49855 -9.41378,0.66738 -14.34092,0.1917c-4.19035,0.57498 -8.38787,0.91223 -12.68076,0.72592c-2.37105,1.07807 -4.71727,2.23271 -7.12834,2.78517c-3.33324,0.76376 -7.87641,0.0437 -11.25186,-0.1818c-0.34927,-0.02333 -1.32245,-0.07931 -2.42452,-0.16424c-1.16453,4.04015 -7.56648,2.51319 -10.5355,2.51394c-1.3003,0.00033 -2.75277,0.49908 -4.01058,0.33868c-0.42124,0.09977 -0.86775,0.20305 -1.34488,0.31306l-0.06226,-0.01444l0.00466,0.02562l-2.53,0.46c-0.16023,0.03224 -0.32601,0.04915 -0.49574,0.04915c-0.41631,0 -0.80887,-0.10177 -1.15413,-0.28177c-0.15744,0.03107 -0.32019,0.04735 -0.48675,0.04735c-1.38071,0 -2.5,-1.11929 -2.5,-2.5c0,-0.43295 0.11006,-0.8402 0.30372,-1.19529l-2.34432,-0.58608c-1.11329,-0.25265 -1.94439,-1.24828 -1.94439,-2.43804c0,-1.10109 0.71183,-2.03592 1.70042,-2.3694l2.52375,-0.91773l0.05903,0.16235l0.36156,-0.27494z" data-paper-data="{&quot;index&quot;:null}" fill-opacity="0.50196" fill="#808080" stroke-width="0.5"/><path d="M466.7597,166.87341c-0.34447,0.34447 -0.68893,0.59944 -1.02759,0.78235l0.45385,1.02116c0.22853,0.48464 0.3563,1.02614 0.3563,1.59748c0,2.07107 -1.67893,3.75 -3.75,3.75c-0.85786,0 -1.64845,-0.28806 -2.2803,-0.77273l-1.92023,-1.44017c-0.4473,-0.2463 -0.90004,-0.48441 -1.35736,-0.71569c-0.21762,0.89391 -0.82457,1.82308 -2.25992,2.39722c-3.48179,1.39272 -4.8745,-2.08907 -4.8745,-2.08907c-1.71727,-5.05305 -7.20085,-4.14233 -11.53413,-5.42976c-3.22376,-0.95778 -6.37392,-2.0317 -8.98753,-3.87906l-0.8411,0.36047l-0.04639,0.00748l-0.03809,0.02751l-0.75758,0.30303l-0.7037,0.09596l-0.68901,0.17225l-2.51958,0l-1.13169,0.12574l-1.154,0.14425l-0.98488,0.1407l-0.86609,0.14435l-0.31243,-0.02499l-0.30407,0.07602l-0.7941,0l-0.79678,0.11383l-0.26848,-0.02777l-0.26185,0.06546h-2.35595l-0.39346,0.07869l-0.37308,-0.01777l-0.36235,0.09059l-0.37997,0l-0.07416,0.03955l-0.60606,0.15152h-0.2681l-0.21313,0.07104l-0.38218,0.0294l-0.0461,0.01152h-0.10371l-0.00665,0.00051l-0.04074,0.03904l-0.07464,-0.02099l-0.53184,0.13296h-0.30303l-0.23831,-0.05958l-0.19982,0.01537l-0.10132,-0.09066l-1.33555,-0.33389l-0.29029,-0.508l-0.56324,-0.15841l-0.90951,-1.70533l-0.15152,-0.60606v-0.46165l-0.11197,-0.44786v-1.81818l0.09059,-0.36235l-0.01777,-0.37308l0.15152,-0.75758l0.21442,-0.45266l0.10866,-0.48895l0.75758,-1.51515l0.39231,-0.45769l0.31015,-0.51691l0.45455,-0.45455l0.23145,-0.13887l0.1702,-0.20948l0.36335,-0.27251l0.01061,-0.03184l0.08644,-0.04094l0.14566,-0.10924l0.76471,-0.32198l0.74986,-0.3552l0.17854,-0.03571l0.08815,-0.03711l0.03081,0.01332l1.21766,-0.24353l0.37308,0.01777l0.36235,-0.09059h1.9014l0.39346,-0.07869l0.37308,0.01777l0.36235,-0.09059h1.51515l0.26185,0.06546l0.17494,-0.0181l-0.02453,-0.24528l-0.10617,-0.26543l-0.01741,-0.12766l-0.85366,-0.5691l-0.04176,-0.04593l-0.05776,-0.02275l-0.82118,-0.58656l-0.8838,-0.4419l-1.41883,-0.35471l-0.03618,-0.0193l-0.041,-0.00087l-1.36463,-0.37217l-1.01753,-0.10175h-4.50994l-0.33068,-0.08267l-0.34014,0.02218l-1.63954,-0.2981l-1.79098,-0.2985l-0.11596,-0.05042l-0.12644,0.00176l-2.57576,-0.60606l-0.02382,-0.01228h-0.0268l-2.33767,-0.58442l-2.9428,-0.58856l-0.08264,-0.03914h-0.09144l-2.37638,-0.5941l-2.67911,-0.59536l-0.01404,-0.00702l-0.01569,0.00029l-1.9697,-0.45455l-0.03123,-0.01593h-0.03506l-1.81818,-0.45455l-0.17489,-0.09327l-0.19714,-0.02054l-1.66667,-0.60606l-0.016,-0.0108l-0.01918,-0.00219l-1.21212,-0.45455l-0.35607,-0.24557l-0.40734,-0.14548l-0.71483,-0.47656l-0.48143,-0.24071l-0.0418,0.00522l-0.08359,-0.06792l-0.09346,-0.04673l-0.65421,-0.56075l-0.66874,-0.54335l-0.06269,-0.08359l-0.08178,-0.07009l-0.00234,-0.04206l-0.76228,-1.01638l-0.07639,-0.18144l-0.1392,-0.1392l-0.45455,-0.75758l-0.07511,-0.24678l-0.15609,-0.20538l-0.45455,-1.06061l-0.04835,-0.29977l-0.06799,-0.12748l-0.06285,0.03142l-0.11008,0.02446l-0.08978,0.06823l-1.06061,0.45455l-0.1571,0.02534l-0.13425,0.08543l-3.57051,1.19017l-1.14712,0.43017l-0.07077,0.00809l-0.06009,0.03824l-1.81818,0.60606l-0.14661,0.01128l-0.12974,0.06919l-1.1515,0.28788l-0.57859,0.16531l-0.56809,0.20289l-0.7221,0.31396l-0.29433,0.04906l-0.06215,0.02219l-0.01776,-0.00888l-0.13501,0.0225l-0.38121,0.15248l-0.34375,0.04687l-0.31353,0.14852l-0.52864,0.10573l-0.21118,0.07039l-0.0367,0.02446l-0.14209,0.05075l-0.06304,0.11032l-0.81949,0.20487l-0.7955,0.28411l-0.06668,-0.03334l-0.82566,0.27522l-0.59962,0.04612c-0.0868,0.02502 -0.1749,0.047 -0.26417,0.0658l-0.32206,0.08052h-0.45455c-0.63917,0 -1.241,-0.15991 -1.76765,-0.44191l-0.10735,-0.02684l-0.02825,-0.04944c-1.10528,-0.65232 -1.84675,-1.85547 -1.84675,-3.23181c0,-1.37634 0.74147,-2.57949 1.84675,-3.23181l0.02825,-0.04944l0.10735,-0.02684c0.48119,-0.25766 1.02514,-0.4134 1.603,-0.43836l0.79697,-0.26566l0.49242,-0.03788l0.41667,-0.26515l0.90909,-0.30303l0.23627,-0.01817l0.21415,-0.10144l0.41997,-0.08399l0.43791,-0.17516l0.40311,-0.05497l0.3731,-0.16222l0.45521,-0.07587l0.49472,-0.28541l1.06061,-0.30303l0.0641,-0.00214l0.05659,-0.03018l1.0724,-0.2681l0.66796,-0.22265h-0.67934l-0.26185,-0.06546l-0.26848,0.02777l-0.79678,-0.11383h-0.49107l-0.30407,-0.07602l-0.31243,0.02499l-0.60295,-0.10049h-0.44722l-0.30407,-0.07602l-0.31243,0.02499l-0.60295,-0.10049h-1.20479l-0.36235,-0.09059l-0.37308,0.01777l-0.39346,-0.07869h-0.23474l-0.30407,-0.07602l-0.31243,0.02499l-0.90909,-0.15152l-0.14017,-0.06094h-0.15284l-0.60606,-0.15152l-0.12974,-0.06919l-0.14661,-0.01128l-0.90909,-0.30303l-0.42257,-0.26891l-0.4717,-0.16846l-0.24341,-0.16228l-0.2626,-0.05836l-0.30303,-0.15152l-0.23246,-0.19925l-0.1868,-0.01038l-0.3915,-0.45675l-0.02556,-0.01626l-0.00354,-0.01768l-0.06317,-0.0737l-0.56439,-0.48376l-0.01038,-0.1868l-0.19925,-0.23246l-0.19361,-0.38721l-0.03657,-0.0209l-0.02612,-0.10449l-0.04673,-0.09346l-0.12121,-0.54545l-0.0303,-0.06061l-0.05855,-0.26348l-0.14491,-0.22771l-0.06724,-0.20172l-0.03233,-0.06466l-0.02155,-0.09699l-0.03039,-0.09117l-0.00536,-0.06972l-0.05135,-0.23106l-0.21442,-0.45266l-0.13401,-0.67007l-0.28139,-1.12555v-0.41962l-0.07104,-0.21313l-0.01256,-0.16333l-0.02836,-0.11344v-0.00753l-0.07869,-0.16613l-0.13401,-0.67007l-0.28139,-1.12555v-0.41962l-0.07104,-0.21313l-0.01256,-0.16333l-0.02836,-0.11344l0,-0.25523l-0.00531,-0.06905l-0.1462,-0.58482v-0.59896l-0.03955,-0.1582v-0.46165l-0.06508,-0.26033c-3.87567,0.79454 -8.55811,0.36353 -11.92419,1.14353c-11.96743,2.77313 -27.29911,1.92312 -40.104,-0.19775c-3.88912,-0.64415 -7.70953,-3.22922 -10.85974,-5.45137c-1.04182,-0.7349 -1.97772,-1.67713 -2.70085,-2.73329c-0.33284,-0.48612 -0.33539,-1.88289 -0.82886,-1.56105c-3.35121,2.18569 -3.53401,-0.59416 -4.86115,-0.31127c-0.02257,0.00481 -0.0448,0.01091 -0.06672,0.01823c-0.24917,0.81775 -0.77026,1.51697 -1.45793,1.99233c-0.47581,0.69519 -1.09114,1.18236 -2.1298,0.66309c-1.5978,0 -2.9622,-0.99928 -3.50234,-2.40697c-0.24003,-0.37902 -0.3467,-0.79287 -0.24639,-1.24427c-0.00085,-0.03281 -0.00128,-0.06573 -0.00128,-0.09875c0,-0.93182 0.33987,-1.78426 0.9024,-2.44012c1.90919,-3.79919 5.42434,-5.81828 6.52184,-8.81015c1.20344,-3.28066 0.01168,-6.11867 5.0474,-6.03211c1.30796,0.02248 4.26156,3.38336 5.15242,3.89046c0.29297,0.16677 0.39897,-0.54381 0.58563,-0.82453c0.68062,-1.02364 1.446,-1.9088 2.39958,-2.69161c2.04532,-1.67905 4.94963,-2.27269 7.53467,-2.14496c6.40872,0.31666 13.48308,2.61241 18.59528,6.5389c1.17159,0.89985 2.05874,2.45831 3.30678,3.25276c0.05291,0.03368 0.82351,-1.02897 1.05235,-1.26907c0.90609,-0.95067 1.88858,-1.86488 2.87879,-2.72727c2.08903,-1.81938 4.57013,-2.35055 7.30819,-2.13602c6.79711,0.53255 19.65338,5.6435 23.39,13.22064l0.77174,-0.2205l0.0641,-0.00214l0.05659,-0.03018l0.60606,-0.15152l0.19686,0l0.18231,-0.07428l0.6156,-0.08794l0.3402,-0.13608l0.11173,-0.01524l0.09513,-0.06054l0.45455,-0.15152l0.14661,-0.01128l0.12974,-0.06919l0.60606,-0.15152h0.09144l0.08264,-0.03914l1.51515,-0.30303l0.37308,0.01777l0.36235,-0.09059h1.81818l0.30407,0.07602l0.31243,-0.02499l0.60295,0.10049h0.2957l0.50744,0.12686l0.52277,0.01743l1.06061,0.30303l0.07236,0.04175l0.08329,0.00641l0.90909,0.30303l0.06009,0.03824l0.07077,0.00809l1.21212,0.45455l0.16485,0.11369l0.19549,0.04344l0.73305,0.36652l1.02783,0.38544l0.16485,0.11369l0.19549,0.04344l1.51515,0.75758l0.2588,0.22183l0.31415,0.13227l1.12885,0.84664l1.27703,0.85135l0.09414,0.10355l0.12801,0.05656l1.36364,1.06061l0.0163,0.0208l0.02403,0.01101l1.46941,1.17553l1.16526,0.87394l0.07876,0.09693l0.11171,0.05585l1.06061,0.90909l0.0114,0.01606l0.01753,0.00899l1.21212,1.06061l0.07281,0.10484l0.10945,0.06567l0.98331,0.98331h0.91091l0.60606,0.15152l0.12974,0.06919l0.14661,0.01128l0.77246,0.25749l0.98583,0.24646l1.36836,0.27367l1.75854,0.29309l0.05693,0.02475l0.06201,-0.00295l1.51515,0.30303l0.08264,0.03914h0.09144l0.1582,0.03955l0.44744,0l0.50744,0.12686l0.52277,0.01743l1.00053,0.28586l0.02314,0.00579l0.37876,0.03156l0.1486,0.05059l0.15648,-0.01252l1.66642,0.27774l1.50942,0.12579h6.6697l1.80014,-0.13847l1.64073,-0.14916l0.01435,0.00223l0.01374,-0.00468l1.63733,-0.13644l1.48812,-0.27057l0.34014,0.02218l0.33068,-0.08267h3.63636l0.58482,0.1462l0.60104,0.04623l0.45455,0.15152l0.1712,0.10895l0.0634,0.01585l0.01417,0.02479l0.24243,0.05387l0.60606,0.30303l0.2588,0.22183l0.31415,0.13227l0.60606,0.45455l0.03793,0.04668l0.05468,0.02506l0.75758,0.60606l0.12797,0.16797l0.18107,0.10864l0.60606,0.60606l0.31015,0.51691l0.39231,0.45769l0.30303,0.60606l0.05387,0.24243l0.02479,0.01417l0.01585,0.0634l0.10895,0.1712l0.15152,0.45455l0.03796,0.49347l0.46142,0.3955l0.28118,0.05624l0.25869,0.40651l0.36584,0.31358l0.01591,0.28631l0.24405,0.38351l0.17031,0.25546l0.0797,0.22316l0.15421,0.17992l0.30303,0.60606l0.05855,0.26348l0.14491,0.22771l0.15152,0.45455l0.01128,0.14661l0.06919,0.12974l0.20319,0.81277l0.11894,0.23787l0.12152,0.54684l0.22336,0.51372l0.14157,0.84945l0.13966,0.69828l-0.01777,0.37308l0.09059,0.36235v0.7941l0.11383,0.79678l-0.02777,0.26848l0.06546,0.26185v1.21212l-0.05747,0.22989l0.02851,0.23524l-0.30303,2.42424l-0.06833,0.17651c2.00253,0.60791 3.69531,2.01418 5.5082,3.07431c4.72385,2.76239 9.25615,6.05698 13.84317,9.04498c5.91296,3.85172 12.17993,6.95308 17.8404,11.19843l0.92797,0.87467c0,0 2.65165,2.65165 0,5.3033z" fill-opacity="0.50196" fill="#808080" stroke-width="0.5"/></g></g></svg>