<svg version="1.1" xmlns="http://www.w3.org/2000/svg" xmlns:xlink="http://www.w3.org/1999/xlink" width="111.56108" height="147.17109" viewBox="0,0,111.56108,147.17109"><defs><linearGradient x1="92.54275" y1="147.19411" x2="92.54275" y2="180.69979" gradientUnits="userSpaceOnUse" id="color-1"><stop offset="0" stop-color="#81471e"/><stop offset="1" stop-color="#914f21"/></linearGradient><linearGradient x1="88.7952" y1="168.81756" x2="88.7952" y2="176.6436" gradientUnits="userSpaceOnUse" id="color-2"><stop offset="0" stop-color="#81471e"/><stop offset="1" stop-color="#914f21"/></linearGradient></defs><g transform="translate(-173.62408,-64.54239)"><g data-paper-data="{&quot;isPaintingLayer&quot;:true}" fill-rule="nonzero" stroke-linecap="butt" stroke-linejoin="miter" stroke-miterlimit="10" stroke-dasharray="" stroke-dashoffset="0" style="mix-blend-mode: normal"><path d="M192.79261,99.57944l1.43393,-7.61085l2.09574,-4.9636l2.23364,-1.96954l1.28198,-6.67833l2.12589,-3.2653l-0.67401,-5.24988l18.18938,-4.72478l3.45675,3.10545l2.59941,8.25536l4.35726,7.49242l6.63662,2.56292l1.03002,10.20857l-34.94971,9.2351z" fill="#c6c6c6" stroke="#999999" stroke-width="0"/><path d="" fill-opacity="0.50196" fill="#000000" stroke="none" stroke-width="0.5"/><path d="" fill-opacity="0.50196" fill="#000000" stroke="none" stroke-width="0.5"/><path d="" fill-opacity="0.50196" fill="#000000" stroke="none" stroke-width="0.5"/><path d="" fill="#ba141b" stroke="none" stroke-width="0.5"/><path d="" fill-opacity="0.50196" fill="#000000" stroke="none" stroke-width="0.5"/><g fill="#595959" stroke="none" stroke-width="0.5"><path d=""/><path d=""/><path d=""/></g><path d="" fill="#6a3b18" stroke="none" stroke-width="0.5"/><path d="" fill="#6a3b18" stroke="none" stroke-width="0.5"/><path d="" fill="#6a3b18" stroke="none" stroke-width="0.5"/><path d="" fill="#bb5a4c" stroke="none" stroke-width="0.5"/><path d="M238.54244,184.63578l-0.18295,-98.24369l22.50275,9.69631l3.11014,90.19393z" fill-opacity="0.25098" fill="#000000" stroke="none" stroke-width="0"/><g stroke="none"><path d="M237.58961,84.72682c4.33751,0.57007 8.67458,4.94076 12.0341,7.91619c0.67328,0.01953 1.21309,0.57146 1.21309,1.24947v1.63079h-0.04645c2.34424,9.94519 2.32955,20.51995 2.32955,30.65884c0,11.5468 1.93539,23.00358 1.95695,34.57273c0,7.32044 0.02926,15.07613 0.64806,22.40179c0.11853,1.40322 0.51592,4.14451 0.39183,6.74321c-1.77143,1.2056 -3.03845,0.79753 -4.09411,0.79753c-3.37333,0.84598 -6.98759,0.93075 -10.43705,1.30463c-8.67935,0.94073 -17.04074,5.17626 -24.70786,9.00982c-5.87413,2.93442 -12.13661,4.92675 -17.93868,7.82779c-1.90574,0.95287 -3.56349,1.17723 -5.62481,1.42723c-0.81832,0.09924 -2.36422,0.83302 -3.09566,0.61632c-2.02461,-0.59982 -3.13143,-3.89796 -4.52455,-5.27801c-1.7118,-2.28241 -3.99721,-4.35385 -6.30973,-6.00195c-1.13717,-0.81044 -3.12905,-1.39467 -4.06689,-2.41327c-1.47797,-1.60526 -1.01843,-3.82222 -1.01843,-5.77625c0,-4.67493 0,-9.34986 0,-14.02479c0,-12.83389 -0.32616,-25.62748 -0.32616,-38.48663c0,-5.73898 -0.40159,-11.65399 0.00314,-17.37498c0.39139,-5.53251 1.62765,-11.01793 1.62765,-16.54544c0,-0.43488 0,-0.86975 0,-1.30463v-1.30464c0,-0.69035 0.55964,-1.25 1.25,-1.25c0.02633,0 0.05246,0.00082 0.07838,0.00242c4.32833,-0.97067 8.59201,-2.23767 12.91733,-3.19885l1.21209,-0.40578c0,0 0.18129,-0.06043 0.42574,-0.06315c0.15763,-1.5143 0.55005,-3.07213 0.75988,-4.36979c0.09672,-0.59815 -0.21058,-1.3436 0.17732,-1.80907c0.23539,-0.28245 0.52877,-0.52478 0.85434,-0.71984c-0.00753,-0.00728 -0.01506,-0.01468 -0.02259,-0.02222c-0.88388,-0.88389 0,-1.76777 0,-1.76777c1.38373,-1.38373 2.39006,-2.65579 4.11303,-3.35054c-0.13557,-1.02897 0.2676,-1.23964 0.42258,-2.44146c0.15241,-1.18187 -0.38129,-3.06131 0.32813,-4.22384c0.00994,-0.10249 0.02598,-0.16665 0.02598,-0.16665c0.26862,-1.05195 0.68687,-2.06825 1.1771,-3.03698l0.88205,-0.90021c-0.0376,-0.03122 -0.07089,-0.06265 -0.09957,-0.09428c-0.72975,-0.80501 -0.81118,-2.99197 -0.32911,-4.49465c-0.02418,-0.09705 -0.03701,-0.19859 -0.03701,-0.30312c0,-0.69035 0.55964,-1.25 1.25,-1.25h1.63079c0.19004,-0.00361 0.3777,-0.00525 0.55562,-0.00572c2.72606,-0.71984 5.50981,-1.20309 8.14312,-2.19974c2.57831,-0.97584 5.58673,-2.02244 8.4142,-1.69907c2.02657,0.23177 3.76134,1.18797 5.69512,1.65875l0.90816,0.4208c0,0 1.11803,0.55902 0.55902,1.67705c-0.55901,1.11804 -1.67705,0.55902 -1.67705,0.55902l-0.39647,-0.23152c-0.3406,-0.08697 -0.67416,-0.1874 -1.00372,-0.29502c0.74222,1.11571 1.13454,2.74567 0.65687,3.88446c0.73998,0.12766 1.46639,0.3105 2.25782,0.50835c0,0 1.21268,0.30316 0.90951,1.51584c-0.11747,0.46985 -0.37146,0.71215 -0.63856,0.8327c0.72945,0.91331 1.1338,2.31895 1.54466,3.24443c0.43123,0.97138 0.88834,2.00448 1.16306,3.03843c2.26338,1.1268 4.56981,2.13521 6.60058,3.64912c0,0 0.06175,0.04631 0.14305,0.13126zM241.24022,89.38244c-1.29628,-0.94809 -2.27537,-2.03923 -3.92669,-2.1709l-0.03399,0.05981c0.04524,0.14125 0.09054,0.28014 0.13854,0.41347c0.75085,2.08567 0.87355,5.6052 0.69854,7.83845c-0.05444,0.69478 0.17063,1.52972 -0.26474,2.0739c-0.46335,0.57915 -2.9031,0.94056 -3.64644,1.1026c-3.08159,0.67175 -5.9912,2.15048 -9.10349,2.92855c-7.26012,1.81503 -14.27088,4.05696 -21.52642,5.87084l-1.28164,0.03732c0,0 -0.11017,0 -0.26511,-0.03271c-0.18827,0.05498 -0.41604,0.06397 -0.69038,-0.00462c-0.52287,-0.13072 -0.76394,-0.43052 -0.869,-0.7293c-0.02534,-0.01075 -0.03916,-0.01766 -0.03916,-0.01766c-2.45659,-1.2283 -8.07685,-3.62047 -8.81149,-6.37552c-0.03309,-0.12409 -0.06159,-0.25041 -0.08584,-0.37867l-1.0163,0.33743c-3.76568,0.83682 -7.48494,1.9034 -11.23974,2.8096c1.95307,1.54663 3.49488,3.35417 5.57118,5.13255c1.30149,1.11474 2.76529,1.99608 4.18139,2.9469c1.97599,-0.6814 5.14642,-0.8378 6.29197,-0.96339c7.65958,-0.83979 15.33168,-2.63558 22.94357,-3.87374c4.88892,-1.97011 9.94019,-3.34041 14.9064,-5.18712c5.24275,-1.94953 10.20071,-2.96122 14.36267,-7.02457c-2.05367,-1.68744 -4.12179,-3.20461 -6.29382,-4.79322zM200.56981,92.44828c1.06265,0.54431 2.0218,1.71128 3.18145,1.83435c1.99318,0.21152 4.42832,-1.28137 6.29092,-1.89865c2.84717,-0.94357 5.9857,-1.01084 8.82735,-1.96398c3.23053,-1.08357 6.56161,-2.1326 9.86615,-2.95873c0.83103,-0.20231 2.49011,-1.07165 4.0716,-1.69527c-0.96455,-0.54521 -1.96837,-1.02685 -2.97092,-1.50939c-0.18637,0.74622 -0.58971,1.46026 -1.3012,2.11546c-3.13896,2.8906 -9.11208,2.91222 -13.0422,3.86868c-2.11195,0 -5.45722,0.26963 -7.70976,1.06805c-0.00827,0.17797 -0.10553,1.22442 -1.24923,1.22442c-0.41094,0 -0.68679,-0.1351 -0.87195,-0.31648c-0.20535,-0.03788 -0.42469,-0.14306 -0.64445,-0.3563c-0.05765,-0.00843 -0.0914,-0.01687 -0.0914,-0.01687c-1.97826,-0.55175 -5.046,-2.13906 -6.58549,-4.14995c-1.18545,0.38497 -2.00616,1.42925 -2.87635,2.37953c1.56158,0.29972 4.02078,1.83277 5.1055,2.37513zM222.51569,74.59413l-1.21133,-0.45812c0,0 -0.37746,-0.18873 -0.58408,-0.56619c-2.46278,-0.12959 -5.48478,-0.51521 -7.55564,0.29435c-1.48769,0.58158 -3.122,1.57037 -4.77019,2.06879c-0.08797,0.37006 -0.36096,0.94428 -1.20818,0.94428c-0.64807,0 -0.96014,-0.33599 -1.11042,-0.65959c-0.00693,-0.00068 -0.01386,-0.00138 -0.02078,-0.00209c-0.64287,-0.06631 -2.15063,-0.30863 -3.5031,-0.65323c-0.10011,0.3701 -0.35265,0.62264 -0.35265,0.62264l-0.84831,0.82547c-0.09409,0.19187 -0.18184,0.38715 -0.26342,0.58516c1.39434,0.21291 2.78794,1.06619 4.14173,1.0217l1.27584,0.36248c0.72518,-0.33425 1.43312,-0.60035 1.74936,-0.66608c3.68314,-0.76559 7.05139,-1.98985 10.69642,-2.92065c1.69141,-0.41163 3.40243,-0.53534 5.12629,-0.66235c-0.49806,-0.08746 -1.00622,-0.14107 -1.56155,-0.13656zM220.35254,67.25958c-0.30228,-0.07201 -0.60989,-0.13224 -0.925,-0.17629c-3.3648,-0.47038 -7.17193,1.38635 -10.47096,2.35831c0.06038,0.04949 0.11604,0.10452 0.16621,0.16432c0.14056,-0.03249 0.2744,-0.06239 0.39852,-0.09044c2.87092,-0.64889 5.70417,-1.30048 8.60161,-1.65187c0.69545,-0.08434 1.45947,-0.39572 2.22963,-0.60402zM208.23715,73.40781c1.86547,-0.75988 3.58697,-2.00934 5.64571,-2.28254c2.50657,-0.33262 5.29729,-0.02057 7.82779,0c0.87404,0.26884 0.28653,-1.45503 0.00054,-1.51841c-1.13181,-0.25083 -3.40861,0.59354 -4.58745,0.7381c-2.34271,0.28728 -4.74249,1.10583 -7.05397,1.6097c-0.6081,0.13255 -1.49132,-0.11231 -1.82019,0.41609c-0.06178,0.09927 -0.05049,0.52337 -0.01243,1.03706zM205.84186,73.74758c-0.02676,-0.59713 -0.03616,-1.21776 0.01647,-1.73219c-0.95685,0.00454 -2.73213,-0.66144 -3.65579,-0.69091c0.00093,0.01355 0.0008,0.0269 -0.00059,0.04c-0.05113,0.48388 -0.74395,1.16842 -0.3288,1.42221c0.51181,0.31287 2.51567,0.79339 3.96871,0.96088zM200.22109,80.11966c-0.14719,0.10962 0.07046,3.00892 0.05187,3.16196c-0.43283,3.56295 0.69486,3.10698 3.40415,5.03022c0.50081,0.35551 0.98379,0.80509 1.55292,1.01844c-0.12358,-2.36067 -0.42891,-4.64942 -0.58902,-7.02713c-0.03034,-0.45048 -0.26443,-0.93186 -0.31409,-1.37865c-1.35912,-0.40598 -3.47651,-1.27357 -4.10583,-0.80484zM207.75045,88.74733c2.38228,-0.67224 5.29327,-0.98785 7.43704,-0.98785c3.70023,-0.95601 8.5567,-0.93038 11.7458,-3.30679c0.47624,-0.35488 0.63021,-0.88351 0.60249,-1.47722l-0.16878,-0.11076c0,0 -1.04006,-0.69337 -0.34669,-1.73344c0.00774,-0.01161 0.01552,-0.023 0.02334,-0.03418c-0.27032,-0.66177 -0.58741,-1.27225 -0.77589,-1.6958c-0.37841,-0.85036 -0.17531,-2.13238 -0.96885,-2.6188c-0.22438,-0.13754 -0.41589,0.35829 -0.67354,0.41195c-1.65893,0.34546 -3.40081,0.1936 -5.06809,0.62436c-3.14676,0.76607 -5.98872,2.5893 -9.28286,2.96337c-0.32866,0.03732 -2.34761,0.08407 -3.2061,0.35356c-0.11711,0.11434 -0.2473,0.18882 -0.37823,0.23576c-0.07786,0.24571 0.70152,2.78123 0.75834,3.23584c0.1727,1.38161 0.26041,2.75505 0.30202,4.14zM224.49562,99.20294c2.70472,-0.67618 5.11246,-1.6114 7.69728,-2.56894c0.43105,-0.15968 3.63295,-0.50593 3.68848,-0.57538c0.387,-0.48394 -0.26711,-1.22035 -0.26475,-1.84c0.00564,-1.48058 0.16026,-5.56382 -0.62369,-6.71483c-0.35889,-0.52693 -1.00957,0.81402 -1.60652,1.03787c-1.32003,0.49501 -2.67156,0.99438 -4.04441,1.34495c-3.2542,0.81355 -6.5176,1.85648 -9.70332,2.91211c-2.83339,0.93888 -5.95812,1.0015 -8.78518,1.94992c-2.25428,0.75626 -4.96227,2.34435 -7.40771,2.01524c-0.0782,-0.01053 -0.15417,-0.02255 -0.22806,-0.03599v0.42614c0,2.56615 0.25382,5.30165 -0.07854,7.87716c7.19501,-1.80627 14.15188,-4.02712 21.35642,-5.82825zM199.45178,94.68438c-1.27621,-0.6381 -2.49971,-1.0428 -3.78856,-1.57647c-0.37751,-0.15632 -1.08193,-0.92266 -1.11226,-0.51519c-0.13959,1.87516 -0.44698,3.93232 -0.46563,5.86599c-0.00441,0.45748 -0.23829,1.597 0.2862,2.05154c1.58427,1.37299 4.27804,2.60046 6.37757,3.61435c0.22867,-2.28546 -0.03135,-4.74012 -0.03135,-6.97052v-1.30463c0,0 0,-0.15 0.05196,-0.34607c-0.38742,-0.28074 -0.79955,-0.56807 -1.31793,-0.819zM187.4021,113.08651c-2.27841,-1.66003 -4.48565,-3.20944 -6.54002,-5.26382c-0.93286,-0.93287 -2.02856,-1.73931 -2.75853,-2.77761c-0.00921,5.57245 -1.23195,11.08774 -1.63389,16.65945c-0.40818,5.6582 0.00315,11.52077 0.00315,17.19776c0,12.8593 0.32616,25.65241 0.32616,38.48663c0,4.67493 0,9.34986 0,14.02479c0,0.66646 -0.44245,3.39283 0.2862,4.00848c3.5251,2.97845 7.57942,4.65422 10.49749,8.54499c0.58112,0.58613 1.54924,2.57164 2.40745,3.70662c-0.03556,-0.16186 -0.03557,-0.27836 -0.03557,-0.27836c0,-9.44064 0.94457,-18.78628 0.98456,-28.17275c0.60607,-3.03034 0.32008,-6.24765 0.32008,-9.33541c0,-5.17239 0.23613,-10.41203 -0.32008,-15.5324c-0.2615,-2.40738 0.27037,-4.77294 -0.32288,-7.14592c-0.06544,-10.18211 -2.69138,-20.23324 -2.60926,-30.33269c-0.15117,-0.60469 -0.56523,-2.56657 -0.60486,-3.78976zM192.28285,208.0503c0.2369,-0.12372 0.47717,-0.23282 0.72591,-0.26475c2.43804,-0.31284 3.95326,-1.02818 6.2422,-1.88867c5.42249,-2.0385 11.24152,-4.48505 16.50872,-7.12115c7.94916,-3.97458 16.54027,-8.23516 25.52044,-9.25503c3.4598,-0.39292 7.04881,-0.46019 10.43705,-1.30463c0.81113,0 1.92106,-0.95173 1.84751,-1.54205c-0.21971,-1.76346 -0.33326,-3.58673 -0.33552,-5.37126c-0.0087,-6.87616 -0.65232,-13.7085 -0.65232,-20.54794c0.02382,-11.56863 -1.95694,-23.02318 -1.95694,-34.57273c0,-7.6552 -0.34885,-15.12868 -0.97421,-22.72795c-0.12602,-1.53136 -1.28978,-4.64617 -1.21307,-6.70844c-7.9357,6.9744 -20.06606,8.30443 -29.494,12.04917c-7.18328,1.222 -14.48234,2.18255 -21.61809,3.6097c-1.81693,0.36338 -3.37083,0.5506 -5.18878,0.97214c-0.10453,0.02424 -0.20925,0.04868 -0.31417,0.07273c-0.00546,0.12413 -0.03016,0.2598 -0.07949,0.40779c-0.39529,1.18586 -1.58114,0.79057 -1.58114,0.79057l-0.25275,-0.09707c0.19991,0.71927 0.47083,1.56725 0.58404,2.02007c0.06508,10.12682 2.69224,20.12656 2.60926,30.33268c0.60113,2.40455 0.05316,4.77752 0.32944,7.20503c0.59153,5.19735 0.33225,10.52811 0.33225,15.77875c0,3.16793 0.2896,6.4725 -0.33225,9.58175c0.04783,9.28979 -0.97239,18.57844 -0.97239,27.92641c0,0 0.00001,0.33275 -0.17168,0.6549z" fill="#999999" stroke-width="0.5"/><path d="M192.23258,208.09441c0.17169,-0.32215 0.17157,-0.65496 0.17157,-0.65496c0,-9.34797 1.00759,-18.6463 0.95976,-27.93609c0.62185,-3.10925 0.32605,-6.42189 0.32605,-9.58982c0,-5.25064 0.25191,-10.60469 -0.33962,-15.80204c-0.27628,-2.42751 0.27248,-4.81277 -0.32865,-7.21732c0.06236,-7.66988 -1.39676,-15.23913 -2.15342,-22.82533c-0.25021,-2.50857 -0.42361,-5.019 -0.43978,-7.53554c-0.11321,-0.45282 -0.89776,-2.8691 -0.89776,-2.8691c0,0 2.43937,-0.30291 2.5439,-0.32715c1.81795,-0.42154 3.37597,-0.6116 5.1929,-0.97499c7.13575,-1.42715 14.45754,-2.39506 21.64082,-3.61706c9.42794,-3.74474 21.58329,-5.07009 29.51899,-12.04449c-0.07671,2.06227 1.09019,5.1787 1.21621,6.71007c0.62536,7.59927 0.98649,15.08249 0.98649,22.73769c0,11.54955 1.99216,23.05113 1.96834,34.61977c0,6.83944 0.63205,13.69258 0.64075,20.56874c0.00226,1.78453 0.11298,3.61061 0.33269,5.37408c0.07355,0.59032 -1.03833,1.54375 -1.84945,1.54375c-3.38824,0.84444 -6.98615,0.9176 -10.44595,1.31052c-8.98017,1.01987 -17.601,5.28558 -25.55016,9.26017c-5.2672,2.6361 -11.09911,5.07909 -16.5216,7.11759c-2.28894,0.86049 -3.80777,1.57412 -6.24581,1.88696c-0.24874,0.03193 -0.48937,0.14084 -0.72627,0.26456z" data-paper-data="{&quot;noHover&quot;:false,&quot;origItem&quot;:[&quot;Path&quot;,{&quot;applyMatrix&quot;:true,&quot;segments&quot;:[[[384.51232,416.1006],[0,0],[0.4738,-0.24744]],[[385.96414,415.5711],[-0.49748,0.06386],[4.87608,-0.62568]],[[398.44854,411.79376],[-4.57788,1.72098],[10.84498,-4.077]],[[431.46598,397.55146],[-10.5344,5.2722],[15.89832,-7.94916]],[[482.50686,379.0414],[-17.96034,2.03974],[6.9196,-0.78584]],[[503.38096,376.43214],[-6.77648,1.68888],[1.62226,0]],[[508.23906,376.72256],[-1.0937,1.19816],[0.80212,-0.87874]],[[507.07598,373.34804],[0.1471,1.18064],[-0.43942,-3.52692]],[[506.40494,362.60552],[0.00452,3.56906],[-0.0174,-13.75232]],[[505.1003,321.50964],[0,13.67888],[0.04764,-23.13726]],[[501.18642,252.36418],[0,23.0991],[0,-15.3104]],[[499.238,206.90828],[1.25072,15.19854],[-0.25204,-3.06272]],[[496.81186,193.4914],[-0.15342,4.12454],[-15.8714,13.9488]],[[437.82386,217.58974],[18.85588,-7.48948],[-14.36656,2.444]],[[394.58768,224.80914],[14.2715,-2.8543],[-3.63386,0.72676]],[[384.21012,226.75342],[3.6359,-0.84308],[-0.20906,0.04848]],[[383.58178,226.89888],[0.20984,-0.0481],[-0.01092,0.24826]],[[383.4228,227.71446],[0.09866,-0.29598],[-0.79058,2.37172]],[380.26052,229.2956],[[379.75502,229.10146],[0,0],[0.39982,1.43854]],[[380.9231,233.1416],[-0.22642,-0.90564],[0.13016,20.25364]],[[386.14162,293.80696],[0.16596,-20.41224],[1.20226,4.8091]],[[386.8005,308.21702],[-0.55256,-4.85502],[1.18306,10.3947]],[[387.465,339.77452],[0,-10.50128],[0,6.33586]],[[386.8005,358.93802],[1.2437,-6.2185],[0.09566,18.57958]],[[384.85572,414.79084],[0,-18.69594],[0,0]],[[384.51236,416.10064],[0.34338,-0.6443],[0,0]]],&quot;closed&quot;:true,&quot;fillColor&quot;:[0.6,0.4,1]}]}" fill="#c3c3c3" stroke-width="0.5"/><path d="M241.26069,89.36579c2.17203,1.58861 4.24247,3.11513 6.29614,4.80257c-4.16196,4.06335 -9.11964,5.08733 -14.36239,7.03686c-4.96621,1.84671 -10.03917,3.25341 -14.92809,5.22352c-7.61189,1.23816 -15.35472,3.01862 -23.0143,3.85841c-1.14555,0.12559 -4.31816,0.27803 -6.29415,0.95943c-1.4161,-0.95082 -2.88271,-1.83914 -4.1842,-2.95388c-2.0763,-1.77838 -3.62012,-3.59532 -5.57319,-5.14195c3.7548,-0.9062 7.47379,-1.97606 11.23947,-2.81288l1.11621,-0.34165c0.02425,0.12826 0.05271,0.25371 0.0858,0.3778c0.73464,2.75505 6.34821,5.12477 8.8048,6.35307c0,0 0.01376,0.00681 0.0391,0.01756c0.10506,0.29878 0.34417,0.59549 0.86704,0.72621c0.27434,0.06859 0.5013,0.05845 0.68957,0.00347c0.15494,0.03271 0.26472,0.03218 0.26472,0.03218l1.27985,-0.03956c7.25554,-1.81388 14.17909,-4.03369 21.43921,-5.84872c3.11229,-0.77807 6.02088,-2.24546 9.10247,-2.91721c0.74334,-0.16204 3.18319,-0.52139 3.64654,-1.10054c0.43537,-0.54418 0.21074,-1.37504 0.26518,-2.06982c0.17501,-2.23325 0.05669,-5.73853 -0.69416,-7.8242c-0.048,-0.13333 -0.09294,-0.2715 -0.13818,-0.41275l0.12339,-0.10462c1.65132,0.13167 2.63287,1.22859 3.92915,2.17668z" data-paper-data="{&quot;noHover&quot;:false,&quot;origItem&quot;:[&quot;Path&quot;,{&quot;applyMatrix&quot;:true,&quot;segments&quot;:[[[482.42706,178.76488],[0,0],[-2.59256,-1.89618]],[[474.57368,174.42308],[3.30264,0.26334],[0,0]],[[474.5057,174.5427],[0,0],[0.09048,0.2825]],[[474.78278,175.36964],[-0.096,-0.26666],[1.5017,4.17134]],[[476.17986,191.04654],[0.35002,-4.4665],[-0.10888,1.38956]],[[475.65038,195.19434],[0.87074,-1.08836],[-0.9267,1.1583]],[[468.3575,197.39954],[1.48668,-0.32408],[-6.16318,1.3435]],[[450.15052,203.25664],[6.22458,-1.55614],[-14.52024,3.63006]],[[407.09768,214.99832],[14.51108,-3.62776],[0,0]],[404.5344,215.07296],[[404.00418,215.00754],[0.30988,0.06542],[-0.37654,0.10996]],[[402.62342,214.9983],[0.54868,0.13718],[-1.04574,-0.26144]],[[400.88542,213.5397],[0.21012,0.59756],[-0.05068,-0.0215]],[[400.8071,213.50438],[0,0],[-4.91318,-2.4566]],[[383.18412,200.75334],[1.46928,5.5101],[-0.06618,-0.24818]],[[383.01244,199.996],[0.0485,0.25652],[0,0]],[[380.97984,200.67086],[0,0],[-7.53136,1.67364]],[[358.50036,206.29006],[7.5096,-1.8124],[3.90614,3.09326]],[[369.64272,216.55516],[-4.1526,-3.55676],[2.60298,2.22948]],[[378.0055,222.44896],[-2.8322,-1.90164],[3.95198,-1.3628]],[[390.58944,220.52218],[-2.2911,0.25118],[15.31916,-1.67958]],[[436.47658,212.7747],[-15.22378,2.47632],[9.77784,-3.94022]],[[466.28938,202.40046],[-9.93242,3.69342],[10.4855,-3.89906]],[[495.01472,188.35132],[-8.32392,8.1267],[-4.10734,-3.37488]],[[482.42708,178.76488],[4.34406,3.17722],[0,0]]],&quot;closed&quot;:true,&quot;fillColor&quot;:[0.6,0.4,1]}]}" fill="#c3c3c3" stroke-width="0.5"/><path d="M241.26068,89.36578c2.17203,1.58861 4.24247,3.11513 6.29614,4.80257c-4.16196,4.06335 -9.11963,5.08734 -14.36238,7.03687c-4.96621,1.84671 -10.03918,3.25341 -14.9281,5.22352c-7.61189,1.23816 -15.35472,3.01862 -23.0143,3.85841c-1.14555,0.12559 -4.31816,0.27802 -6.29415,0.95942c-1.4161,-0.95082 -2.88271,-1.83913 -4.1842,-2.95387c-2.0763,-1.77838 -3.62012,-3.59532 -5.57319,-5.14195c3.7548,-0.9062 7.47379,-1.97606 11.23947,-2.81288l1.11621,-0.34165c0.02425,0.12826 0.05271,0.25371 0.0858,0.3778c0.73464,2.75505 6.34821,5.12477 8.8048,6.35307c0,0 0.01376,0.00681 0.0391,0.01756c0.10506,0.29878 0.34418,0.5955 0.86705,0.72622c0.27434,0.06859 0.5013,0.05846 0.68957,0.00348c0.15494,0.03271 0.26472,0.03218 0.26472,0.03218l1.27985,-0.03957c7.25554,-1.81388 14.17909,-4.03369 21.43921,-5.84872c3.11229,-0.77807 6.02089,-2.24546 9.10248,-2.91721c0.74334,-0.16204 3.18318,-0.52139 3.64653,-1.10054c0.43537,-0.54418 0.21074,-1.37503 0.26518,-2.06981c0.17501,-2.23325 0.05669,-5.73853 -0.69416,-7.8242c-0.048,-0.13333 -0.09294,-0.27149 -0.13818,-0.41274l0.12339,-0.10462c1.65132,0.13167 2.63287,1.22859 3.92915,2.17668z" data-paper-data="{&quot;noHover&quot;:true,&quot;origItem&quot;:[&quot;Path&quot;,{&quot;applyMatrix&quot;:true,&quot;segments&quot;:[[[241.21353,89.38244],[0,0],[-1.29628,-0.94809]],[[237.28684,87.21154],[1.65132,0.13167],[0,0]],[[237.25285,87.27135],[0,0],[0.04524,0.14125]],[[237.39139,87.68482],[-0.048,-0.13333],[0.75085,2.08567]],[[238.08993,95.52327],[0.17501,-2.23325],[-0.05444,0.69478]],[[237.82519,97.59717],[0.43537,-0.54418],[-0.46335,0.57915]],[[234.17875,98.69977],[0.74334,-0.16204],[-3.08159,0.67175]],[[225.07526,101.62831],[3.11229,-0.77807],[-7.26012,1.81503]],[[203.54884,107.49916],[7.25554,-1.81388],[0,0]],[202.2672,107.53648],[[202.00209,107.50376],[0.15494,0.03271],[-0.18827,0.05498]],[[201.31171,107.49915],[0.27434,0.06859],[-0.52287,-0.13072]],[[200.44271,106.76985],[0.10506,0.29878],[-0.02534,-0.01075]],[[200.40355,106.75219],[0,0],[-2.45659,-1.2283]],[[191.59206,100.37667],[0.73464,2.75505],[-0.03309,-0.12409]],[[191.50622,99.998],[0.02425,0.12826],[0,0]],[[190.48992,100.33542],[0,0],[-3.76568,0.83682]],[[179.25018,103.14503],[3.7548,-0.9062],[1.95307,1.54663]],[[184.82136,108.27758],[-2.0763,-1.77838],[1.30149,1.11474]],[[189.00275,111.22447],[-1.4161,-0.95082],[1.97599,-0.6814]],[[195.29472,110.26108],[-1.14555,0.12559],[7.65958,-0.83979]],[[218.23829,106.38734],[-7.61189,1.23816],[4.88892,-1.97011]],[[233.14469,101.20022],[-4.96621,1.84671],[5.24275,-1.94953]],[[247.50736,94.17566],[-4.16196,4.06335],[-2.05367,-1.68744]],[[241.21354,89.38243],[2.17203,1.58861],[0,0]]],&quot;closed&quot;:true,&quot;fillColor&quot;:[0.6,0.4,1]}]}" fill="#9966ff" stroke-width="0.5"/><path d="M187.98556,116.82656c-0.08212,10.09945 2.56838,20.16019 2.63382,30.3423c0.59325,2.37298 0.07967,4.76512 0.34117,7.1725c0.55621,5.12037 0.29607,10.41734 0.29607,15.58973c0,3.08776 0.27675,6.30901 -0.32932,9.33935c-0.03999,9.38647 -0.99347,18.73402 -0.99347,28.17466c0,0 0.00001,0.1165 0.03557,0.27836c-0.85821,-1.13498 -1.82836,-3.12029 -2.40948,-3.70642c-2.91807,-3.89077 -6.98482,-5.56711 -10.50992,-8.54556c-0.72865,-0.61565 -0.28752,-3.34227 -0.28752,-4.00873c0,-4.67493 -0.00601,-9.35145 -0.00601,-14.02638c0,-12.83422 -0.32972,-25.72086 -0.32972,-38.58016c0,-5.67699 -0.40232,-11.54238 0.00586,-17.20058c0.40194,-5.57171 1.62951,-11.08778 1.63872,-16.66023c0.72997,1.0383 1.82817,1.84453 2.76103,2.7774c2.05437,2.05438 4.26878,3.60387 6.54719,5.2639c0.03963,1.22319 0.45484,3.18518 0.60601,3.78987z" data-paper-data="{&quot;noHover&quot;:true,&quot;origItem&quot;:[&quot;Path&quot;,{&quot;applyMatrix&quot;:true,&quot;segments&quot;:[[[187.37541,113.08625],[0.03963,1.22319],[-2.27841,-1.66003]],[[180.83539,107.82243],[2.05437,2.05438],[-0.93286,-0.93287]],[[178.07686,105.04482],[0.72997,1.0383],[-0.00921,5.57245]],[[176.44297,121.70427],[0.40194,-5.57171],[-0.40818,5.6582]],[[176.44612,138.90203],[0,-5.67699],[0,12.8593]],[[176.77228,177.38866],[0,-12.83422],[0,4.67493]],[[176.77228,191.41345],[0,-4.67493],[0,0.66646]],[[177.05848,195.42193],[-0.72865,-0.61565],[3.5251,2.97845]],[[187.55597,203.96692],[-2.91807,-3.89077],[0.58112,0.58613]],[[189.96342,207.67354],[-0.85821,-1.13498],[-0.03556,-0.16186]],[[189.92785,207.39518],[0,0],[0,-9.44064]],[[190.91241,179.22243],[-0.03999,9.38647],[0.60607,-3.03034]],[[191.23249,169.88702],[0,3.08776],[0,-5.17239]],[[190.91241,154.35462],[0.55621,5.12037],[-0.2615,-2.40738]],[[190.58953,147.2087],[0.59325,2.37298],[-0.06544,-10.18211]],[[187.98027,116.87601],[-0.08212,10.09945],[-0.15117,-0.60469]]],&quot;closed&quot;:true,&quot;fillColor&quot;:[0.6,0.4,1],&quot;strokeWidth&quot;:0.5}]}" fill="#9966ff" stroke-width="0.25"/><path d="M199.46278,166.51881c-0.1749,0.11434 -0.40698,0.1902 -0.71492,0.1902c-1.25,0 -1.25,-1.25 -1.25,-1.25c0,-5.48537 -0.18295,-10.96683 -0.18295,-16.46542c0,-1.87321 -0.55521,-4.77964 0.97264,-6.24355c0.24102,-0.23093 2.65171,-0.8816 3.1268,-1.01629c0.85518,-0.12203 2.98835,-0.56484 3.65563,0.10816c1.24714,1.25782 0.5993,5.47322 0.5993,7.15168c0,3.04538 -0.02614,6.20005 0.1798,9.24179c0.13358,1.9728 0.78941,5.0636 -0.07917,6.93796c-1.10607,2.38683 -2.58765,2.10296 -4.72146,1.50818c-0.39891,-0.05601 -0.79781,-0.11202 -1.19672,-0.16803zM199.99324,164.03655l0.21204,0.00209c0.45486,0.06596 0.9097,0.13192 1.36456,0.19788c0.56882,0.16707 1.17128,0.73212 1.71077,0.48631c0.6786,-0.30919 0.30318,-4.40434 0.25771,-5.02956c-0.25736,-3.53922 -0.36904,-7.14745 -0.36904,-10.69966c0,-1.38989 0.56193,-4.07511 0.2334,-5.28886c-0.13426,-0.49603 -0.95824,0.40127 -1.46694,0.47405c-0.65509,0.18882 -1.44613,0.04396 -1.99578,0.44731c-0.7143,0.52417 -0.12505,5.01076 -0.12505,5.83109c0,4.53707 0.1499,9.05455 0.17833,13.57936z" fill="#808080" stroke-width="0.5"/></g><path d="M176.3601,196.38631c0,0 -1.6872,-40.61548 -1.46603,-57.61719c0.14958,-11.49846 2.66445,-34.50619 2.66445,-34.50619l10.33623,8.758c0,0 3.78262,19.85807 4.29183,36.68065c0.45316,14.97086 -1.38505,59.34896 -1.38505,59.34896z" data-paper-data="{&quot;index&quot;:null}" fill="#c6c6c6" stroke="#999999" stroke-width="2.5"/><path d="" fill="#595959" stroke="none" stroke-width="0.5"/><path d="" fill="#595959" stroke="none" stroke-width="0.5"/><path d="" fill="#632817" stroke="none" stroke-width="0.5"/><path d="" fill="#dc5f4d" stroke="none" stroke-width="0.5"/><g stroke="none" stroke-width="0.5"><path d="" fill="url(#color-1)"/><path d="" fill="url(#color-2)"/></g><path d="" fill="#f1cf5d" stroke="none" stroke-width="0.5"/><path d="" fill="#061633" stroke="none" stroke-width="0.5"/><path d="M285.18034,169.93847l-0.03371,-0.00728h0.03853z" fill="#f2f2f2" stroke="none" stroke-width="0.5"/><path d="" fill="#6a3b18" stroke="none" stroke-width="0.5"/><path d="" fill="#6a3b18" stroke="none" stroke-width="0.5"/><path d="" fill="#000000" stroke="none" stroke-width="0.5"/><path d="" fill="#000000" stroke="none" stroke-width="0.5"/><path d="" fill="#000000" stroke="none" stroke-width="0.5"/><path d="" fill="#000000" stroke="none" stroke-width="0.5"/><path d="" fill="#000000" stroke="none" stroke-width="0.5"/><path d="" fill="#000000" stroke="none" stroke-width="0.5"/><path d="" fill="#000000" stroke="none" stroke-width="0.5"/><path d="" fill="#000000" stroke="none" stroke-width="0.5"/><path d="" fill="#000000" stroke="none" stroke-width="0.5"/><path d="" fill="#000000" stroke="none" stroke-width="0.5"/><path d="" fill="#2417bd" stroke="none" stroke-width="0.5"/><path d="" fill="#2417bd" stroke="none" stroke-width="0.5"/><path d="" fill="#000000" stroke="none" stroke-width="0.5"/><path d="" fill="#000000" stroke="none" stroke-width="0.5"/><path d="" fill="#000000" stroke="none" stroke-width="0.5"/><path d="M227.02779,98.51008l-0.10295,-8.02399l3.06372,-0.81729l0.34237,7.80312z" fill="#c6c6c6" stroke="#000000" stroke-width="0"/><path d="M227.66137,87.75777l0.04631,-0.75937c0,0 0.59119,-0.53137 0.92317,-0.79346c0.08731,-0.06893 0.72445,-0.79168 0.72445,-0.79168l-0.03451,1.89356z" fill="#c6c6c6" stroke="#000000" stroke-width="0"/><path d="M189.42344,112.47924l-11.04804,-9.9331l14.49422,-2.93939l8.7168,7.19643l35.66257,-9.44432l-0.06336,-10.91639l6.74047,2.86314l5.32823,5.4339l-25.32424,11.09209z" fill="#c6c6c6" stroke="#999999" stroke-width="2.5"/><path d="" fill="#c3c3c3" stroke="none" stroke-width="0.5"/><path d="M179.22456,205.66166l0.05205,-0.0097c-0.0174,0.00334 -0.03476,0.00657 -0.05205,0.0097z" fill-opacity="0.50196" fill="#fa9600" stroke="none" stroke-width="0.5"/><g fill="none" stroke="none" stroke-width="1" font-family="sans-serif" font-weight="normal" font-size="12" text-anchor="start"/><g fill="none" stroke="none" stroke-width="1" font-family="sans-serif" font-weight="normal" font-size="12" text-anchor="start"/></g></g></svg>