<svg version="1.1" xmlns="http://www.w3.org/2000/svg" xmlns:xlink="http://www.w3.org/1999/xlink" width="72.23115" height="114.73907" viewBox="0,0,72.23115,114.73907"><defs><linearGradient x1="435.97497" y1="221.09294" x2="435.97497" y2="252.64602" gradientUnits="userSpaceOnUse" id="color-1"><stop offset="0" stop-color="#808080"/><stop offset="1" stop-color="#b3b3b3"/></linearGradient><linearGradient x1="92.54275" y1="147.19411" x2="92.54275" y2="180.69979" gradientUnits="userSpaceOnUse" id="color-2"><stop offset="0" stop-color="#81471e"/><stop offset="1" stop-color="#914f21"/></linearGradient><linearGradient x1="88.7952" y1="168.81756" x2="88.7952" y2="176.6436" gradientUnits="userSpaceOnUse" id="color-3"><stop offset="0" stop-color="#81471e"/><stop offset="1" stop-color="#914f21"/></linearGradient></defs><g transform="translate(-398.96101,-153.83217)"><g data-paper-data="{&quot;isPaintingLayer&quot;:true}" fill-rule="nonzero" stroke-linejoin="miter" stroke-miterlimit="10" stroke-dasharray="" stroke-dashoffset="0" style="mix-blend-mode: normal"><path d="M401.24603,228.5629l7.96055,-7.46997l58.50045,25.52105l0.44115,14.02322c0,0 -26.82194,-10.62228 -36.11611,-14.75848c-10.85221,-4.82958 -30.78604,-17.31582 -30.78604,-17.31582z" fill="url(#color-1)" stroke="none" stroke-width="0" stroke-linecap="butt"/><path d="" fill-opacity="0.50196" fill="#000000" stroke="none" stroke-width="0.5" stroke-linecap="butt"/><path d="" fill-opacity="0.50196" fill="#000000" stroke="none" stroke-width="0.5" stroke-linecap="butt"/><path d="M398.96101,234.19694l0.24912,-6.36597c0,0 21.8519,12.52983 34.20098,18.46783c9.5455,4.5899 36.00387,13.86478 36.00387,13.86478l-0.30597,8.40766z" fill-opacity="0.25098" fill="#000000" stroke="none" stroke-width="0" stroke-linecap="butt"/><path d="" fill="none" stroke="#000000" stroke-width="2.5" stroke-linecap="round"/><path d="" fill-opacity="0.50196" fill="#000000" stroke="none" stroke-width="0.5" stroke-linecap="butt"/><path d="" fill="#ba141b" stroke="none" stroke-width="0.5" stroke-linecap="butt"/><path d="" fill-opacity="0.50196" fill="#000000" stroke="none" stroke-width="0.5" stroke-linecap="butt"/><g fill="#595959" stroke="none" stroke-width="0.5" stroke-linecap="butt"><path/><path d="M469.72093,255.64148c0,2.117 0.74964,5.11685 -1.89481,6.09701c-1.54145,0.57133 -4.37476,-1.2526 -5.85537,-1.62275c-2.87142,-0.71785 -5.42452,-2.35378 -8.23537,-3.28489c-3.48746,-1.15525 -7.05433,-2.35344 -10.20466,-4.27457c-3.24629,-0.79524 -6.12198,-2.90184 -9.16613,-4.2546c-4.56234,-2.02741 -8.94894,-4.31222 -13.41942,-6.54542c-2.35724,-1.17755 -4.61646,-2.92146 -7.15367,-3.5771c-3.25362,-2.37616 -6.82725,-4.46126 -10.23084,-6.58852c-0.88097,-0.55061 -4.33108,-2.11391 -4.49059,-3.1462c-0.11673,-0.75543 1.70618,-2.44031 2.30693,-3.04105c1.75007,-1.75008 3.96508,-3.27104 5.62368,-5.1085c-0.1739,-0.33868 -0.29084,-0.87667 0.24716,-1.41466c0.09927,-0.09927 0.19853,-0.17624 0.29654,-0.23467c0.12295,-8.73573 1.30037,-17.36164 1.30037,-26.07573c0.89536,-4.47681 0.48693,-9.17348 0.97848,-13.69863c0.61321,-5.64515 0.97239,-11.47584 0.97239,-17.1632c0,-1.68868 -0.21407,-3.54535 0,-5.21852c0.09801,-0.76606 -0.19443,-1.85727 0.45752,-2.27131c2.45547,-1.55942 5.39127,2.03629 6.98872,3.15427c1.98842,1.39159 4.10019,2.33487 6.20261,3.59841c4.06054,2.44037 7.49688,6.03834 11.71193,8.13612c10.49138,6.98237 21.3255,12.94316 32.54739,18.5541c3.41512,1.96133 2.32177,6.07174 2.32177,9.59813c0,8.24862 -0.32615,16.50438 -0.32615,24.788c0,6.08569 -0.31466,12.35891 -0.98456,18.38801c-0.12471,1.12237 -0.00543,4.31229 -0.63635,5.75571c0.08474,3.13966 0.64243,6.26453 0.64243,9.45054zM404.12324,226.1927c-0.04635,0.04635 -1.32275,1.15879 -2.06736,1.67677c0.87791,0.18794 2.54803,1.42513 2.81912,1.59455c3.30661,2.06663 6.90125,4.06266 9.99094,6.4578c2.5405,0.61175 4.84461,2.42093 7.19728,3.59837c4.44198,2.22308 8.79145,4.48546 13.32552,6.50089c3.03085,1.34724 5.87528,3.40451 9.0987,4.22551c4.42036,2.61491 9.49836,4.03749 14.30628,5.85333c2.57619,0.97297 5.61756,2.95621 8.36507,3.2293c0.14483,0.01439 0.06214,-3.42237 0.06214,-3.68773c0,-2.78393 -0.39217,-5.49949 -0.56864,-8.236c-2.20377,-0.08346 -4.69011,-2.1056 -6.28451,-3.06224c-3.09804,-1.56895 -6.64292,-2.72953 -9.91505,-3.82731c-2.93195,-0.98365 -5.75155,-2.7657 -8.73741,-3.56631c-4.1728,-1.11888 -8.68446,-2.38117 -12.56925,-4.30352c-4.25126,-1.70595 -8.54653,-3.68034 -12.28666,-6.32325c-2.30523,-1.62895 -5.06097,-3.7106 -7.85982,-4.55241c-1.48365,1.6034 -3.31043,2.85632 -4.87635,4.42225zM466.3066,244.62122c0,0 -0.34795,-1.04384 0.5884,-1.49928c0.00703,-1.41465 0.16129,-2.87353 0.33529,-4.26726c0.68724,-5.5048 0.96911,-11.23902 0.96911,-16.80748c0,-8.28322 0.32615,-16.54014 0.32615,-24.788c0,-1.83366 1.04674,-6.65463 -0.9398,-7.36207c-11.26251,-5.63126 -22.1639,-11.60124 -32.68418,-18.62789c-2.41947,-1.21508 -4.33162,-3.10207 -6.56944,-4.59443c-3.34789,-2.23264 -6.94225,-4.25024 -10.17174,-6.56466c-0.45,-0.3225 -3.83058,-2.34278 -4.96524,-3.40011c0.06434,0.37953 0.10046,0.83113 0.10046,1.08406c0,1.30463 0,2.60926 0,3.91389c0,5.76343 -0.33383,11.6921 -0.98456,17.40954c-0.51472,4.52243 -0.08273,9.21994 -0.97847,13.69863c0,8.90981 -1.24197,17.73051 -1.29668,26.6699c2.94718,0.99689 5.86408,3.05768 8.28528,4.80866c3.56246,2.57631 7.76729,4.44253 11.84902,6.07075c3.75908,1.90142 8.17331,3.05644 12.21875,4.17659c3.03688,0.84089 5.88842,2.62053 8.87511,3.60916c3.41859,1.13159 7.05888,2.39268 10.30674,4.00048c1.16812,0.70087 2.40382,1.28311 3.58774,1.95695c0.40958,0.23311 0.92121,0.80992 1.34285,0.94613z"/><path/></g><path d="" fill="#6a3b18" stroke="none" stroke-width="0.5" stroke-linecap="butt"/><path d="" fill="#6a3b18" stroke="none" stroke-width="0.5" stroke-linecap="butt"/><path d="" fill="#6a3b18" stroke="none" stroke-width="0.5" stroke-linecap="butt"/><path d="" fill="#bb5a4c" stroke="none" stroke-width="0.5" stroke-linecap="butt"/><path d="" fill="#000000" stroke="none" stroke-width="0.5" stroke-linecap="butt"/><g stroke="none" stroke-width="0.5" stroke-linecap="butt"><path d="" fill="#999999"/><path d="" data-paper-data="{&quot;noHover&quot;:false,&quot;origItem&quot;:[&quot;Path&quot;,{&quot;applyMatrix&quot;:true,&quot;segments&quot;:[[[482.42706,178.76488],[0,0],[-2.59256,-1.89618]],[[474.57368,174.42308],[3.30264,0.26334],[0,0]],[[474.5057,174.5427],[0,0],[0.09048,0.2825]],[[474.78278,175.36964],[-0.096,-0.26666],[1.5017,4.17134]],[[476.17986,191.04654],[0.35002,-4.4665],[-0.10888,1.38956]],[[475.65038,195.19434],[0.87074,-1.08836],[-0.9267,1.1583]],[[468.3575,197.39954],[1.48668,-0.32408],[-6.16318,1.3435]],[[450.15052,203.25664],[6.22458,-1.55614],[-14.52024,3.63006]],[[407.09768,214.99832],[14.51108,-3.62776],[0,0]],[404.5344,215.07296],[[404.00418,215.00754],[0.30988,0.06542],[-0.37654,0.10996]],[[402.62342,214.9983],[0.54868,0.13718],[-1.04574,-0.26144]],[[400.88542,213.5397],[0.21012,0.59756],[-0.05068,-0.0215]],[[400.8071,213.50438],[0,0],[-4.91318,-2.4566]],[[383.18412,200.75334],[1.46928,5.5101],[-0.06618,-0.24818]],[[383.01244,199.996],[0.0485,0.25652],[0,0]],[[380.97984,200.67086],[0,0],[-7.53136,1.67364]],[[358.50036,206.29006],[7.5096,-1.8124],[3.90614,3.09326]],[[369.64272,216.55516],[-4.1526,-3.55676],[2.60298,2.22948]],[[378.0055,222.44896],[-2.8322,-1.90164],[3.95198,-1.3628]],[[390.58944,220.52218],[-2.2911,0.25118],[15.31916,-1.67958]],[[436.47658,212.7747],[-15.22378,2.47632],[9.77784,-3.94022]],[[466.28938,202.40046],[-9.93242,3.69342],[10.4855,-3.89906]],[[495.01472,188.35132],[-8.32392,8.1267],[-4.10734,-3.37488]],[[482.42708,178.76488],[4.34406,3.17722],[0,0]]],&quot;closed&quot;:true,&quot;fillColor&quot;:[0.6,0.4,1]}]}" fill="#c3c3c3"/><path d="" data-paper-data="{&quot;noHover&quot;:true,&quot;origItem&quot;:[&quot;Path&quot;,{&quot;applyMatrix&quot;:true,&quot;segments&quot;:[[[241.21353,89.38244],[0,0],[-1.29628,-0.94809]],[[237.28684,87.21154],[1.65132,0.13167],[0,0]],[[237.25285,87.27135],[0,0],[0.04524,0.14125]],[[237.39139,87.68482],[-0.048,-0.13333],[0.75085,2.08567]],[[238.08993,95.52327],[0.17501,-2.23325],[-0.05444,0.69478]],[[237.82519,97.59717],[0.43537,-0.54418],[-0.46335,0.57915]],[[234.17875,98.69977],[0.74334,-0.16204],[-3.08159,0.67175]],[[225.07526,101.62831],[3.11229,-0.77807],[-7.26012,1.81503]],[[203.54884,107.49916],[7.25554,-1.81388],[0,0]],[202.2672,107.53648],[[202.00209,107.50376],[0.15494,0.03271],[-0.18827,0.05498]],[[201.31171,107.49915],[0.27434,0.06859],[-0.52287,-0.13072]],[[200.44271,106.76985],[0.10506,0.29878],[-0.02534,-0.01075]],[[200.40355,106.75219],[0,0],[-2.45659,-1.2283]],[[191.59206,100.37667],[0.73464,2.75505],[-0.03309,-0.12409]],[[191.50622,99.998],[0.02425,0.12826],[0,0]],[[190.48992,100.33542],[0,0],[-3.76568,0.83682]],[[179.25018,103.14503],[3.7548,-0.9062],[1.95307,1.54663]],[[184.82136,108.27758],[-2.0763,-1.77838],[1.30149,1.11474]],[[189.00275,111.22447],[-1.4161,-0.95082],[1.97599,-0.6814]],[[195.29472,110.26108],[-1.14555,0.12559],[7.65958,-0.83979]],[[218.23829,106.38734],[-7.61189,1.23816],[4.88892,-1.97011]],[[233.14469,101.20022],[-4.96621,1.84671],[5.24275,-1.94953]],[[247.50736,94.17566],[-4.16196,4.06335],[-2.05367,-1.68744]],[[241.21354,89.38243],[2.17203,1.58861],[0,0]]],&quot;closed&quot;:true,&quot;fillColor&quot;:[0.6,0.4,1]}]}" fill="#9966ff"/><path d="" fill="#808080"/></g><path d="" fill="#595959" stroke="none" stroke-width="0.5" stroke-linecap="butt"/><path d="" fill="#595959" stroke="none" stroke-width="0.5" stroke-linecap="butt"/><path d="" fill="#632817" stroke="none" stroke-width="0.5" stroke-linecap="butt"/><path d="" fill="#dc5f4d" stroke="none" stroke-width="0.5" stroke-linecap="butt"/><g stroke="none" stroke-width="0.5" stroke-linecap="butt"><path d="" fill="url(#color-2)"/><path d="" fill="url(#color-3)"/></g><path d="" fill="#f1cf5d" stroke="none" stroke-width="0.5" stroke-linecap="butt"/><path d="" fill="#061633" stroke="none" stroke-width="0.5" stroke-linecap="butt"/><path fill="#f2f2f2" stroke="none" stroke-width="0.5" stroke-linecap="butt"/><path d="" fill="#6a3b18" stroke="none" stroke-width="0.5" stroke-linecap="butt"/><path d="" fill="#6a3b18" stroke="none" stroke-width="0.5" stroke-linecap="butt"/><g stroke="none" stroke-width="0.5" stroke-linecap="butt"><g><path d="" fill="#e3dbad"/><path d="" fill="#35d863"/></g><path d="" fill="#fdeca6"/><path d="" fill="#fdeca6"/><path d="" fill="#fdeca6"/></g><path fill="#000000" stroke="none" stroke-width="0.5" stroke-linecap="butt"/><path fill="#000000" stroke="none" stroke-width="0.5" stroke-linecap="butt"/><path fill="#000000" stroke="none" stroke-width="0.5" stroke-linecap="butt"/><path fill="#000000" stroke="none" stroke-width="0.5" stroke-linecap="butt"/><path fill="#000000" stroke="none" stroke-width="0.5" stroke-linecap="butt"/><path fill="#000000" stroke="none" stroke-width="0.5" stroke-linecap="butt"/><path fill="#000000" stroke="none" stroke-width="0.5" stroke-linecap="butt"/><path fill="#000000" stroke="none" stroke-width="0.5" stroke-linecap="butt"/><path fill="#000000" stroke="none" stroke-width="0.5" stroke-linecap="butt"/><path fill="#000000" stroke="none" stroke-width="0.5" stroke-linecap="butt"/><path fill="#2417bd" stroke="none" stroke-width="0.5" stroke-linecap="butt"/><path fill="#2417bd" stroke="none" stroke-width="0.5" stroke-linecap="butt"/><path d="" fill="#000000" stroke="none" stroke-width="0.5" stroke-linecap="butt"/><path d="" fill="#000000" stroke="none" stroke-width="0.5" stroke-linecap="butt"/><path d="" fill="#000000" stroke="none" stroke-width="0.5" stroke-linecap="butt"/><path d="" fill="#c6c6c6" stroke="#000000" stroke-width="0" stroke-linecap="butt"/><path d="" fill="#c6c6c6" stroke="#000000" stroke-width="0" stroke-linecap="butt"/><path d="" fill="#c6c6c6" stroke="#999999" stroke-width="2.5" stroke-linecap="butt"/><path d="" fill="#8b735c" stroke="none" stroke-width="0.5" stroke-linecap="butt"/><path d="" fill="#3e68d6" stroke="none" stroke-width="0.5" stroke-linecap="butt"/><path d="" fill-opacity="0.50196" fill="#fa9600" stroke="none" stroke-width="0.5" stroke-linecap="butt"/><path d="" fill-opacity="0.50196" fill="#fa9600" stroke="none" stroke-width="0.5" stroke-linecap="butt"/><g fill="#000000" stroke="none" stroke-width="0.5" stroke-linecap="butt" font-family="&quot;Helvetica Neue&quot;, Helvetica, Arial, sans-serif" font-weight="400" font-size="16" text-anchor="start"/><g fill="#000000" stroke="none" stroke-width="0.5" stroke-linecap="butt" font-family="&quot;Helvetica Neue&quot;, Helvetica, Arial, sans-serif" font-weight="400" font-size="16" text-anchor="start"/><g fill="#000000" stroke="none" stroke-width="0.5" stroke-linecap="butt" font-family="&quot;Helvetica Neue&quot;, Helvetica, Arial, sans-serif" font-weight="400" font-size="16" text-anchor="start"/><g fill="#000000" stroke="none" stroke-width="0.5" stroke-linecap="butt" font-family="&quot;Helvetica Neue&quot;, Helvetica, Arial, sans-serif" font-weight="400" font-size="16" text-anchor="start"/><g fill="#000000" stroke="none" stroke-width="0.5" stroke-linecap="butt" font-family="&quot;Helvetica Neue&quot;, Helvetica, Arial, sans-serif" font-weight="400" font-size="16" text-anchor="start"/></g></g></svg>