<svg version="1.1" xmlns="http://www.w3.org/2000/svg" xmlns:xlink="http://www.w3.org/1999/xlink" width="29.39591" height="48.99195" viewBox="0,0,29.39591,48.99195"><g transform="translate(-219.98557,-185.93758)"><g data-paper-data="{&quot;isPaintingLayer&quot;:true}" fill-rule="nonzero" stroke="none" stroke-linecap="butt" stroke-linejoin="miter" stroke-miterlimit="10" stroke-dasharray="" stroke-dashoffset="0" style="mix-blend-mode: normal"><path d="M219.98557,197.69227c0,-6.49194 5.26276,-11.7547 11.7547,-11.7547c6.49194,0 11.7547,5.26276 11.7547,11.7547c0,6.49194 -5.26276,11.7547 -11.7547,11.7547c-6.49194,0 -11.7547,-5.26276 -11.7547,-11.7547z" fill-opacity="0.50196" fill="#fa9600" stroke-width="0"/><path d="M245.15536,229.90922c1.60823,-1.26593 3.62834,-2.07698 4.19156,0.81706c0.23472,1.20607 -0.75626,1.99533 -2.05342,2.50226l-0.15434,0.11991c-0.75608,0.33508 -1.34108,0.55479 -1.90252,0.70051l0.04891,0.14672l-1.17779,0.3926c-0.05324,0.01914 -0.10814,0.03477 -0.16445,0.04661l-0.39573,0.17588c-0.16154,0.07618 -0.34204,0.11876 -0.53249,0.11876c-0.69036,0 -1.25,-0.55964 -1.25,-1.25c0,-0.37765 0.16747,-0.71617 0.43219,-0.94537l0.99238,-0.86834c0.01792,-0.02373 0.03714,-0.04866 0.05762,-0.07471c-0.59624,-0.2627 -2.09442,-0.78325 -2.55937,-0.96438c-1.56279,-0.60883 -3.17451,-1.1927 -4.76514,-1.72079c0,0 -1.18586,-0.39528 -0.79057,-1.58113c0.39529,-1.18586 1.58114,-0.79057 1.58114,-0.79057c2.05341,0.68696 4.06719,1.51309 6.08404,2.29743c0.54385,0.2115 1.62686,0.48081 2.35796,0.87756z" fill="#653b51" stroke-width="0.5"/><path d="M235.7422,218.78055c1.25,0 1.25,1.25 1.25,1.25l-0.00764,0.42805c0.24206,2.20703 0.29069,4.42714 0.29069,6.64809c0,0 0,1.25 -1.25,1.25c-1.25,0 -1.25,-1.25 -1.25,-1.25c0,-2.12729 -0.03721,-4.25869 -0.2754,-6.37201l-0.00764,-0.70413c0,0 0,-1.25 1.25,-1.25z" fill="#4cc7e8" stroke-width="0.5"/><g stroke-width="0.5"><path d="M233.16073,218.73541c1.55349,-0.01601 3.65638,0.04061 4.48456,-0.38455c0.19905,-0.10218 -0.42396,-3.67529 -0.45725,-3.99153c-0.38508,-3.65793 -0.91443,-7.31971 -1.17387,-10.9884c-3.61025,-1.46441 -8.49567,1.7628 -10.35651,4.80713c-0.24683,0.40381 -0.06882,3.1285 -0.19388,4.31352c0.25118,-0.19996 0.58011,-0.40698 0.76394,-0.54453c1.1016,-0.82432 2.15871,-1.58331 3.3326,-2.31699c0.72016,-0.28097 1.44248,-1.12934 2.16048,-0.84289c0.83351,0.33253 1.14451,1.42862 1.43554,2.27751c0.65672,1.9155 -0.22744,5.49615 0.00439,7.67074zM230.85337,219.63772l-0.17464,-0.6013c-0.20303,-1.82729 -0.24889,-3.47253 -0.14726,-5.30199c0.02293,-0.41285 0.01964,-1.17936 0.06186,-1.78883c-1.61225,1.1359 -4.95041,4.20704 -6.70513,3.19392c-0.66422,-0.3835 -0.52921,-1.44326 -0.71018,-2.18858c-0.38143,-1.57082 -0.49283,-4.52186 0.28812,-5.97589c2.66007,-4.95269 9.69092,-8.05044 14.55149,-5.09947c1.22034,4.30931 1.30302,9.03939 1.79737,13.48821c0.17202,1.54814 0.81323,3.65962 -0.59803,4.93124c-1.14139,1.02846 -5.47897,0.80707 -7.01633,0.97789c0,0 -1.24236,0.13804 -1.38039,-1.10432c-0.02286,-0.2058 -0.00785,-0.3813 0.03312,-0.53088z" fill="#dc5f4d"/><path d="M233.10671,211.05854c-0.29103,-0.84889 -0.55591,-1.88904 -1.38942,-2.22156c-0.718,-0.28644 -1.39425,0.53829 -2.11441,0.81925c-1.17389,0.73369 -2.22455,1.45658 -3.32615,2.2809c-0.18383,0.13755 -0.6101,0.36726 -0.86128,0.56722c0.12507,-1.18502 -0.05012,-3.94325 0.1967,-4.34706c1.86085,-3.04433 6.81723,-6.29385 10.42749,-4.82944c0.25944,3.66869 0.8058,7.39989 1.19087,11.05782c0.03329,0.31624 0.64533,3.90178 0.44628,4.00396c-0.82818,0.42515 -2.95269,0.37873 -4.50618,0.39474c-0.23183,-2.17459 0.59281,-5.81032 -0.06391,-7.72582z" data-paper-data="{&quot;noHover&quot;:false,&quot;origItem&quot;:[&quot;Path&quot;,{&quot;applyMatrix&quot;:true,&quot;segments&quot;:[[[466.32145,437.46999],[-0.46366,-4.34917],[3.10699,-0.03201]],[[475.29057,436.7009],[-1.65636,0.85031],[0.3981,-0.20437]],[[474.37608,428.71784],[0.06658,0.63247],[-0.77015,-7.31585]],[[472.02834,406.74105],[0.51888,7.33738],[-7.22051,-2.92882]],[[451.31532,416.3553],[3.72169,-6.08866],[-0.49365,0.80761]],[[450.92755,424.98235],[0.25013,-2.37004],[0.50237,-0.39993]],[[452.45543,423.89328],[-0.36765,0.27511],[2.2032,-1.64864]],[[459.12063,419.25929],[-2.34779,1.46737],[1.44032,-0.56193]],[[463.44159,417.5735],[-1.436,-0.57289],[1.66702,0.66505]],[[466.31267,422.12852],[-0.58207,-1.69778],[1.31344,3.83101]]],&quot;closed&quot;:true}]}" fill="#fd6e5a"/></g><g stroke-width="0.5"><path d="M230.54151,202.58164c-2.09052,-1.93327 -2.13366,-3.86799 -0.35306,-6.05473l0.66117,-1.05788c0.21873,-0.36304 0.61674,-0.60585 1.07147,-0.60585c0.60575,0 1.11087,0.43088 1.22557,1.00287l0.22186,0.99836c0.52075,0.93209 0.32357,3.46006 0.32357,3.46006l-1.03505,2.37591c-0.8375,0.73086 -2.11552,-0.11874 -2.11552,-0.11874z" fill="#fb9801"/><path d="M232.91158,201.83055c-0.00194,0.28041 -0.11347,0.59556 -0.46005,0.89263c-0.94907,0.81349 -1.76256,-0.13558 -1.76256,-0.13558c-0.73857,-0.94384 -1.08458,-2.22412 -1.10163,-3.42246l0.14156,-0.3179l0.69615,-1.11383c0.21873,-0.36304 0.61673,-0.60585 1.07146,-0.60585c0.38613,0 0.73138,0.17508 0.96068,0.4502c0.56904,0.117 0.99694,0.62071 0.99694,1.22437v1.27371l-0.33114,1.33406c0,0 -0.05842,0.20447 -0.21141,0.42065z" fill="#f3cc02"/></g></g></g></svg>