<svg version="1.1" xmlns="http://www.w3.org/2000/svg" xmlns:xlink="http://www.w3.org/1999/xlink" width="44.38995" height="66.73419" viewBox="0,0,44.38995,66.73419"><defs><linearGradient x1="367.70885" y1="147.41333" x2="367.70885" y2="205.86172" gradientUnits="userSpaceOnUse" id="color-1"><stop offset="0" stop-color="#ffffff"/><stop offset="1" stop-color="#cccccc"/></linearGradient><linearGradient x1="92.54275" y1="147.19411" x2="92.54275" y2="180.69979" gradientUnits="userSpaceOnUse" id="color-2"><stop offset="0" stop-color="#81471e"/><stop offset="1" stop-color="#914f21"/></linearGradient><linearGradient x1="88.7952" y1="168.81756" x2="88.7952" y2="176.6436" gradientUnits="userSpaceOnUse" id="color-3"><stop offset="0" stop-color="#81471e"/><stop offset="1" stop-color="#914f21"/></linearGradient></defs><g transform="translate(-345.88761,-145.73291)"><g data-paper-data="{&quot;isPaintingLayer&quot;:true}" fill-rule="nonzero" stroke-linejoin="miter" stroke-miterlimit="10" stroke-dasharray="" stroke-dashoffset="0" style="mix-blend-mode: normal"><path d="M345.88761,199.80792l6.73357,-46.62258l37.65638,11.68339l-10.02545,47.59838z" fill-opacity="0.25098" fill="#000000" stroke="none" stroke-width="0" stroke-linecap="butt"/><path d="" fill-opacity="0.50196" fill="#000000" stroke="none" stroke-width="0.5" stroke-linecap="butt"/><path d="" fill-opacity="0.50196" fill="#000000" stroke="none" stroke-width="0.5" stroke-linecap="butt"/><path d="" fill="none" stroke="#000000" stroke-width="2.5" stroke-linecap="round"/><path d="M347.46704,196.75374l4.72729,-49.34039c0,0 8.74083,3.99843 13.89502,6.35617c0.46727,0.21375 -0.97267,2.02453 -0.42128,2.27677c0.43284,0.198 2.34573,1.22003 2.83403,1.42606c0.53705,0.2266 1.85331,-1.75293 2.43008,-1.52776c7.47365,2.91766 17.01848,7.82523 17.01848,7.82523l-9.3148,44.24545z" fill="url(#color-1)" stroke="none" stroke-width="0" stroke-linecap="butt"/><path d="" fill-opacity="0.50196" fill="#000000" stroke="none" stroke-width="0.5" stroke-linecap="butt"/><path d="" fill="#ba141b" stroke="none" stroke-width="0.5" stroke-linecap="butt"/><path d="" fill-opacity="0.50196" fill="#000000" stroke="none" stroke-width="0.5" stroke-linecap="butt"/><g fill="#595959" stroke="none" stroke-width="0.5" stroke-linecap="butt"><path d=""/><path d="M375.8746,156.638c3.26687,1.30675 6.53849,2.73821 9.55535,4.54255c0.50244,0.3005 2.60395,1.52044 2.78875,1.86246c0.68802,1.27343 -0.10052,3.70243 -0.32358,5.04078c-0.67425,4.04549 -1.3089,8.40623 -2.59838,12.28522c-0.63642,3.76439 -1.65486,7.58571 -2.58407,11.27325c-1.08015,4.28655 -0.61418,8.91355 -1.64088,13.12705c-0.37699,1.54715 -0.74414,4.49578 -2.57425,5.11615c-0.71221,0.24142 -1.39294,-0.56728 -2.08941,-0.85092c-6.47371,-3.91203 -14.1858,-5.80548 -21.15411,-8.58512c-2.17198,-0.8664 -7.12099,-1.44086 -8.35756,-3.59146c-0.62137,-1.08067 -0.16137,-4.1495 -0.15911,-5.39272c0.59648,-4.17539 0.12645,-8.476 0.46994,-12.67272c0.58983,-7.20649 1.16886,-14.76261 2.35456,-21.88833c0.35053,-2.41971 0.318,-4.85283 0.70323,-7.26676c0.19243,-1.20581 0.19768,-3.21933 1.73926,-3.79415c1.28198,-0.47802 2.56427,0.72111 3.56766,1.22461c3.55074,1.78172 6.82517,3.51165 10.22153,5.52158c0.35467,-0.2409 0.72827,-0.36768 1.11452,-0.43325c0.02522,-0.0975 0.06356,-0.20021 0.11751,-0.30813c0.55902,-1.11803 1.67705,-0.55902 1.67705,-0.55902l1.02175,0.51499c1.14006,0.75267 1.80789,1.95762 1.95949,3.15762c1.39691,0.55877 2.79383,1.11753 4.19074,1.6763zM355.72437,149.81717c-0.5432,-0.21824 -2.42498,-1.61431 -2.85266,-1.62912c-0.61189,-0.0212 -0.04712,1.22597 -0.13603,1.83173c-0.35462,2.41597 -0.36151,4.84462 -0.70323,7.26676c-1.18077,7.07283 -1.72614,14.55905 -2.33367,21.71223c-0.35563,4.18725 0.1278,8.47517 -0.46771,12.64374c0.00158,0.77878 -0.45868,3.37575 -0.15911,3.98375c0.33642,0.68278 1.40123,0.59982 2.12425,0.83775c1.7062,0.56148 3.3126,0.99286 4.98936,1.66549c7.10326,2.84948 14.88122,4.8093 21.5088,8.76134c0.0849,0.18518 0.0575,0.60668 0.2547,0.55555c0.69819,-0.18102 0.06599,-1.45032 0.23869,-2.15061c0.57509,-2.33187 0.5196,-4.53801 0.91225,-6.91505c1.03775,-6.28231 2.74618,-12.37435 3.77044,-18.61433c1.27575,-3.81667 1.89473,-8.10992 2.55868,-12.09359c0.07346,-0.44076 0.84607,-3.0172 0.61407,-3.39804c-0.23801,-0.39069 -2.48982,-1.35964 -2.98388,-1.60577c-2.66899,-1.32963 -5.33329,-2.59784 -8.11319,-3.7098c-1.26569,-0.50627 -2.53137,-1.01255 -3.79706,-1.51882c-0.58166,0.8551 -1.61724,1.42524 -3.1398,1.36658c-2.22056,-0.08555 -3.91305,-2.13958 -3.56922,-4.12217c-2.87726,-1.76591 -5.53053,-3.58795 -8.71568,-4.86764zM369.20093,154.54067c-0.19999,0.05411 -0.35409,0.05411 -0.35409,0.05411c-0.26147,-0.00504 -2.78557,-0.06311 -1.9596,1.18148c0.65531,0.98743 2.01148,0.53211 2.39895,-0.24665c0.02045,-0.0761 0.04676,-0.14544 0.07772,-0.20862c0.06268,-0.24971 0.0237,-0.52011 -0.16298,-0.78032z"/></g><path d="" fill="#6a3b18" stroke="none" stroke-width="0.5" stroke-linecap="butt"/><path d="" fill="#6a3b18" stroke="none" stroke-width="0.5" stroke-linecap="butt"/><path d="" fill="#6a3b18" stroke="none" stroke-width="0.5" stroke-linecap="butt"/><path d="" fill="#bb5a4c" stroke="none" stroke-width="0.5" stroke-linecap="butt"/><path d="" fill="#000000" stroke="none" stroke-width="0.5" stroke-linecap="butt"/><g stroke="none" stroke-width="0.5" stroke-linecap="butt"><path d="" fill="#999999"/><path d="" data-paper-data="{&quot;noHover&quot;:false,&quot;origItem&quot;:[&quot;Path&quot;,{&quot;applyMatrix&quot;:true,&quot;segments&quot;:[[[482.42706,178.76488],[0,0],[-2.59256,-1.89618]],[[474.57368,174.42308],[3.30264,0.26334],[0,0]],[[474.5057,174.5427],[0,0],[0.09048,0.2825]],[[474.78278,175.36964],[-0.096,-0.26666],[1.5017,4.17134]],[[476.17986,191.04654],[0.35002,-4.4665],[-0.10888,1.38956]],[[475.65038,195.19434],[0.87074,-1.08836],[-0.9267,1.1583]],[[468.3575,197.39954],[1.48668,-0.32408],[-6.16318,1.3435]],[[450.15052,203.25664],[6.22458,-1.55614],[-14.52024,3.63006]],[[407.09768,214.99832],[14.51108,-3.62776],[0,0]],[404.5344,215.07296],[[404.00418,215.00754],[0.30988,0.06542],[-0.37654,0.10996]],[[402.62342,214.9983],[0.54868,0.13718],[-1.04574,-0.26144]],[[400.88542,213.5397],[0.21012,0.59756],[-0.05068,-0.0215]],[[400.8071,213.50438],[0,0],[-4.91318,-2.4566]],[[383.18412,200.75334],[1.46928,5.5101],[-0.06618,-0.24818]],[[383.01244,199.996],[0.0485,0.25652],[0,0]],[[380.97984,200.67086],[0,0],[-7.53136,1.67364]],[[358.50036,206.29006],[7.5096,-1.8124],[3.90614,3.09326]],[[369.64272,216.55516],[-4.1526,-3.55676],[2.60298,2.22948]],[[378.0055,222.44896],[-2.8322,-1.90164],[3.95198,-1.3628]],[[390.58944,220.52218],[-2.2911,0.25118],[15.31916,-1.67958]],[[436.47658,212.7747],[-15.22378,2.47632],[9.77784,-3.94022]],[[466.28938,202.40046],[-9.93242,3.69342],[10.4855,-3.89906]],[[495.01472,188.35132],[-8.32392,8.1267],[-4.10734,-3.37488]],[[482.42708,178.76488],[4.34406,3.17722],[0,0]]],&quot;closed&quot;:true,&quot;fillColor&quot;:[0.6,0.4,1]}]}" fill="#c3c3c3"/><path d="" data-paper-data="{&quot;noHover&quot;:true,&quot;origItem&quot;:[&quot;Path&quot;,{&quot;applyMatrix&quot;:true,&quot;segments&quot;:[[[241.21353,89.38244],[0,0],[-1.29628,-0.94809]],[[237.28684,87.21154],[1.65132,0.13167],[0,0]],[[237.25285,87.27135],[0,0],[0.04524,0.14125]],[[237.39139,87.68482],[-0.048,-0.13333],[0.75085,2.08567]],[[238.08993,95.52327],[0.17501,-2.23325],[-0.05444,0.69478]],[[237.82519,97.59717],[0.43537,-0.54418],[-0.46335,0.57915]],[[234.17875,98.69977],[0.74334,-0.16204],[-3.08159,0.67175]],[[225.07526,101.62831],[3.11229,-0.77807],[-7.26012,1.81503]],[[203.54884,107.49916],[7.25554,-1.81388],[0,0]],[202.2672,107.53648],[[202.00209,107.50376],[0.15494,0.03271],[-0.18827,0.05498]],[[201.31171,107.49915],[0.27434,0.06859],[-0.52287,-0.13072]],[[200.44271,106.76985],[0.10506,0.29878],[-0.02534,-0.01075]],[[200.40355,106.75219],[0,0],[-2.45659,-1.2283]],[[191.59206,100.37667],[0.73464,2.75505],[-0.03309,-0.12409]],[[191.50622,99.998],[0.02425,0.12826],[0,0]],[[190.48992,100.33542],[0,0],[-3.76568,0.83682]],[[179.25018,103.14503],[3.7548,-0.9062],[1.95307,1.54663]],[[184.82136,108.27758],[-2.0763,-1.77838],[1.30149,1.11474]],[[189.00275,111.22447],[-1.4161,-0.95082],[1.97599,-0.6814]],[[195.29472,110.26108],[-1.14555,0.12559],[7.65958,-0.83979]],[[218.23829,106.38734],[-7.61189,1.23816],[4.88892,-1.97011]],[[233.14469,101.20022],[-4.96621,1.84671],[5.24275,-1.94953]],[[247.50736,94.17566],[-4.16196,4.06335],[-2.05367,-1.68744]],[[241.21354,89.38243],[2.17203,1.58861],[0,0]]],&quot;closed&quot;:true,&quot;fillColor&quot;:[0.6,0.4,1]}]}" fill="#9966ff"/><path d="" fill="#808080"/></g><path d="" fill="#595959" stroke="none" stroke-width="0.5" stroke-linecap="butt"/><path d="" fill="#595959" stroke="none" stroke-width="0.5" stroke-linecap="butt"/><path d="" fill="#632817" stroke="none" stroke-width="0.5" stroke-linecap="butt"/><path d="" fill="#dc5f4d" stroke="none" stroke-width="0.5" stroke-linecap="butt"/><g stroke="none" stroke-width="0.5" stroke-linecap="butt"><path d="" fill="url(#color-2)"/><path d="" fill="url(#color-3)"/></g><path d="" fill="#f1cf5d" stroke="none" stroke-width="0.5" stroke-linecap="butt"/><path d="" fill="#061633" stroke="none" stroke-width="0.5" stroke-linecap="butt"/><path d="" fill="#f2f2f2" stroke="none" stroke-width="0.5" stroke-linecap="butt"/><path d="" fill="#6a3b18" stroke="none" stroke-width="0.5" stroke-linecap="butt"/><path d="" fill="#6a3b18" stroke="none" stroke-width="0.5" stroke-linecap="butt"/><g stroke="none" stroke-width="0.5" stroke-linecap="butt"><g><path d="" fill="#e3dbad"/><path d="" fill="#35d863"/></g><path d="" fill="#fdeca6"/><path d="" fill="#fdeca6"/><path d="" fill="#fdeca6"/></g><path d="M353.83176,156.01165c0,-0.25 0.25,-0.25 0.25,-0.25l0.15393,0.00485c0.86497,0.17299 1.73907,0.41874 2.56139,0.74732c0,0 0.23212,0.09285 0.13927,0.32497c-0.09285,0.23212 -0.32497,0.13927 -0.32497,0.13927c-0.25067,-0.10038 -0.50644,-0.19264 -0.76539,-0.27715l-0.01108,0.03298c-0.33567,0.82945 -0.40171,1.85257 -0.40171,2.73942c0,0 0,0.25 -0.25,0.25c-0.25,0 -0.25,-0.25 -0.25,-0.25c0,-0.95038 0.08333,-2.02675 0.43496,-2.91874c-0.40775,-0.11696 -0.82034,-0.21574 -1.23052,-0.29778l-0.05587,0.00485c0,0 -0.25,0 -0.25,-0.25z" fill="#000000" stroke="none" stroke-width="0.5" stroke-linecap="butt"/><path d="M357.47234,158.93904c-0.53421,0.03526 -1.66272,0.43661 -0.54404,0.8178c0.30964,0.10551 0.5615,-0.42389 0.54404,-0.8178zM356.93384,158.55526c-0.05104,-0.13857 0.06565,-0.25526 0.06565,-0.25526l0.42697,-0.21269c0.94927,0.43941 0.51858,2.43188 -0.63163,2.15143c-1.40802,-0.34332 -0.76767,-1.33926 0.139,-1.68347z" fill="#000000" stroke="none" stroke-width="0.5" stroke-linecap="butt"/><path d="M361.66552,159.40975c0.0269,0.66229 -0.05569,1.4781 -0.01501,1.92223c0.04278,0.03675 0.07661,0.09489 0.07661,0.18686c0,0.25 -0.25,0.25 -0.25,0.25l-0.29759,-0.20097c-0.03573,-0.1826 -0.06653,-0.3812 -0.09117,-0.58994c-0.16427,0.1931 -0.36392,0.32674 -0.60112,0.36423c-0.89802,0.14196 -0.61492,-1.91352 0.53634,-1.66465c0.00734,-0.3973 0.04109,-0.79062 0.10788,-1.14828h-0.06169v-0.36715c0,-0.13807 0.11193,-0.25 0.25,-0.25c0.12289,0 0.22507,0.08867 0.24605,0.20551l0.04932,0.24659c0.07826,0.24453 0.09729,0.63084 0.05038,1.04557zM360.91849,160.15599c-0.39698,-0.16415 -0.3479,0.42175 -0.52071,0.68369c0.12274,-0.13829 0.3616,-0.41034 0.44375,-0.54815c0.0267,-0.04479 0.0524,-0.08998 0.07696,-0.13554z" fill="#000000" stroke="none" stroke-width="0.5" stroke-linecap="butt"/><path d="M363.36097,160.66002c-0.02225,-0.00499 -0.03607,-0.01052 -0.03607,-0.01052c-0.93954,-0.43037 -0.39694,2.83107 0.18394,0.08948l-0.13619,-0.06915c0,0 -0.00451,-0.00338 -0.01167,-0.00981zM363.5768,160.22504c0.05668,0.01542 0.09585,0.0448 0.09585,0.0448l0.2834,0.24554c0.01255,0.27474 -0.03306,0.56602 -0.1618,0.80905c-1.59279,3.00678 -2.18374,-1.83536 -0.28365,-1.13916c0,0 0.03123,0.01249 0.0662,0.03977z" fill="#000000" stroke="none" stroke-width="0.5" stroke-linecap="butt"/><path d="M364.88975,161.55418c-0.24515,-0.04903 -0.19612,-0.29417 -0.19612,-0.29417l0.05169,-0.25829c0.12241,-0.73445 0.19202,-1.46699 0.314,-2.1989c0,0 0.0411,-0.2466 0.2877,-0.2055c0.2466,0.0411 0.2055,0.2877 0.2055,0.2877c-0.12236,0.73414 -0.19257,1.46989 -0.31539,2.20684l-0.05321,0.26621c0,0 -0.04903,0.24515 -0.29417,0.19612z" fill="#000000" stroke="none" stroke-width="0.5" stroke-linecap="butt"/><path d="M364.58388,162.5678c0,-0.13807 0.11193,-0.25 0.25,-0.25c0.13807,0 0.25,0.11193 0.25,0.25c0,0.13807 -0.11193,0.25 -0.25,0.25c-0.13807,0 -0.25,-0.11193 -0.25,-0.25z" fill="#000000" stroke="none" stroke-width="0.5" stroke-linecap="butt"/><path d="M354.68607,165.68895c-0.07906,0.23717 -0.31623,0.15811 -0.31623,0.15811l-0.12732,-0.04448c-0.52111,-0.10515 -1.03862,-0.26015 -1.5769,-0.25739c0,0 -0.25,0 -0.25,-0.25c0,-0.25 0.25,-0.25 0.25,-0.25c0.57368,0.00243 1.11887,0.15699 1.67496,0.2671l0.18738,0.06042c0,0 0.23717,0.07906 0.15811,0.31623z" fill="#000000" stroke="none" stroke-width="0.5" stroke-linecap="butt"/><path d="M357.05166,167.76847c-0.06063,0.24254 -0.30317,0.1819 -0.30317,0.1819l-0.19819,-0.04984c-2.29276,-0.46716 -1.57111,-3.50896 0.44278,-2.84254c0,0 0.23717,0.07906 0.15811,0.31623c-0.07906,0.23717 -0.31623,0.15811 -0.31623,0.15811c-1.34005,-0.45034 -1.82964,1.55661 -0.18661,1.87791l0.2214,0.05506c0,0 0.24254,0.06063 0.1819,0.30317z" fill="#000000" stroke="none" stroke-width="0.5" stroke-linecap="butt"/><path d="M358.78839,168.44909c-0.09908,-0.19815 0.06524,-0.30851 0.10394,-0.33106c0.09829,-0.67745 -0.12159,-1.48424 -0.83976,-1.20151c-0.05709,0.33133 -0.103,0.66312 -0.10181,1.00118c0,0 0,0.25 -0.25,0.25c-0.25,0 -0.25,-0.25 -0.25,-0.25c0.00093,-0.3073 0.03885,-0.60784 0.08807,-0.90685c-0.01845,-0.01711 -0.03614,-0.03878 -0.05245,-0.06596c-0.12862,-0.21437 0.08575,-0.343 0.08575,-0.343c0.01447,-0.00848 0.02887,-0.01671 0.04319,-0.02471c0.0762,-0.42049 0.15013,-0.84295 0.15013,-1.28195v-0.05245c0,0 0,-0.25 0.25,-0.25c0.25,0 0.25,0.25 0.25,0.25v0.05245c0,0.36902 -0.0534,0.72788 -0.11621,1.08368c0.95621,-0.15879 1.41209,0.93642 1.21279,1.95496l-0.23824,0.22703c0,0 -0.22361,0.1118 -0.33541,-0.1118z" fill="#000000" stroke="none" stroke-width="0.5" stroke-linecap="butt"/><path d="M360.52336,167.98613c-0.29014,0.22409 -0.37002,0.43703 0.63906,0.41586c0,0 0.25,0 0.25,0.25c0,0.25 -0.25,0.25 -0.25,0.25c-0.92398,-0.01347 -2.0349,-1.54347 -0.7609,-2.0082c0.96319,-0.35135 2.15943,0.84594 0.67091,1.10732l-0.23676,0.09626c0,0 -0.21269,0.08507 -0.31232,-0.11124z" fill="#000000" stroke="none" stroke-width="0.5" stroke-linecap="butt"/><path d="M363.6153,169.17648c0,0.25 -0.25,0.25 -0.25,0.25h-0.1049c-2.02286,-0.00858 -1.52715,-2.33372 0.36373,-1.96373c0,0 0.24515,0.04903 0.19612,0.29417c-0.04903,0.24515 -0.29417,0.19612 -0.29417,0.19612c-1.17064,-0.24023 -1.62286,0.98039 -0.26567,0.97344h0.1049c0,0 0.25,0 0.25,0.25z" fill="#000000" stroke="none" stroke-width="0.5" stroke-linecap="butt"/><path d="M366.47924,170.45469c-0.17678,0.17678 -0.35355,0 -0.35355,0l-0.16024,-0.18883c-0.24996,-0.6249 -0.64482,-1.16468 -0.99549,-1.74082c-0.00395,-0.00079 -0.0079,-0.00158 -0.01184,-0.00237c-0.0835,0.30351 -0.19118,0.60199 -0.31171,0.904c0,0 -0.09285,0.23212 -0.32497,0.13927c-0.23212,-0.09285 -0.13927,-0.32497 -0.13927,-0.32497c0.25465,-0.63527 0.45663,-1.25296 0.45416,-1.95268v-0.15735c0,0 0,-0.25 0.25,-0.25c0.25,0 0.25,0.25 0.25,0.25v0.15735c-0.00077,0.25731 -0.02507,0.50484 -0.06757,0.7466c0.35764,0.07153 0.71529,0.14306 1.07293,0.21459l0.05587,-0.00485c0,0 0.25,0 0.25,0.25c0,0.25 -0.25,0.25 -0.25,0.25l-0.15393,-0.00485c-0.13344,-0.02669 -0.26687,-0.05337 -0.40031,-0.08006c0.29136,0.45932 0.58313,0.91238 0.78635,1.42045l0.04956,0.02097c0,0 0.17678,0.17678 0,0.35355z" fill="#000000" stroke="none" stroke-width="0.5" stroke-linecap="butt"/><path d="M369.59297,169.8514c0.01031,-0.02062 0.02157,-0.03839 0.03352,-0.05365c-2.25703,0.09355 1.48724,1.70814 0.11821,0.39468l-0.03993,-0.00562c0,0 -0.22361,-0.1118 -0.1118,-0.33541zM369.97911,169.76926l0.11914,0.06963c0.52078,0.53633 0.52617,1.81339 -0.53875,1.6286c-1.72377,-0.29911 -1.2565,-2.16585 0.30952,-2.17387c0,0 0.25,0 0.25,0.25c0,0.13496 -0.07286,0.19706 -0.13991,0.22564z" fill="#000000" stroke="none" stroke-width="0.5" stroke-linecap="butt"/><path d="M371.92679,171.79894c0,-0.11819 0.05588,-0.18051 0.1148,-0.21336c0.43597,-1.291 -0.68173,-1.86544 -0.98188,-0.00779c0,0 -0.0411,0.2466 -0.2877,0.2055c-0.2466,-0.0411 -0.2055,-0.2877 -0.2055,-0.2877c0.42534,-2.48777 2.73073,-1.6935 1.89485,0.39619l-0.28457,0.15715c0,0 -0.25,0 -0.25,-0.25z" fill="#000000" stroke="none" stroke-width="0.5" stroke-linecap="butt"/><path d="M375.02785,171.29705c0.18646,0.03729 0.36931,0.09485 0.5461,0.16486c0,0 0.23212,0.09285 0.13927,0.32497c-0.09285,0.23212 -0.32497,0.13927 -0.32497,0.13927c-0.16214,-0.06561 -0.33137,-0.11553 -0.50288,-0.14983l-0.06094,-0.02413c0.02629,1.06838 0.18828,2.30369 0.87626,1.26043l0.09689,-0.14602c0,0 0.13868,-0.20801 0.34669,-0.06934c0.20801,0.13868 0.06934,0.34669 0.06934,0.34669l-0.11291,0.16867c-1.86557,2.31999 -1.74855,-2.16778 -1.76123,-2.77247c0,0 0,-0.25 0.25,-0.25c0.25,0 0.25,0.25 0.25,0.25c-0.00043,0.02948 -0.01462,0.30436 -0.0184,0.67322z" fill="#000000" stroke="none" stroke-width="0.5" stroke-linecap="butt"/><path d="M379.37181,174.44166c0.40504,0.2769 0.9118,0.49283 1.08063,0.51989c0,0 0.2466,0.0411 0.2055,0.2877c-0.0411,0.2466 -0.2877,0.2055 -0.2877,0.2055c-0.48356,-0.08315 -1.57364,-0.6529 -1.94077,-1.30461c-0.00792,0.05378 -0.01735,0.10813 -0.02831,0.16295l0.00485,0.05587c0,0 0,0.25 -0.25,0.25c-0.25,0 -0.25,-0.25 -0.25,-0.25l0.00485,-0.15393c0.19343,-0.96655 -0.04658,-1.72664 -0.97988,-1.11286c-0.06817,0.21942 -0.14148,0.4399 -0.21618,0.664c0,0 -0.07906,0.23717 -0.31623,0.15811c-0.23717,-0.07906 -0.15811,-0.31623 -0.15811,-0.31623c0.05613,-0.1684 0.11174,-0.33462 0.1649,-0.49989c-0.08958,-0.17599 0.07962,-0.30289 0.07962,-0.30289c0.00639,-0.00478 0.01277,-0.00952 0.01914,-0.01421c0.1728,-0.5774 0.30046,-1.15274 0.30046,-1.77886l-0.03962,-0.07829c0,0 -0.07906,-0.23717 0.15811,-0.31623c0.23717,-0.07906 0.31623,0.15811 0.31623,0.15811l0.06528,0.23641c0,0.50427 -0.07565,0.97728 -0.19109,1.44362c0.72331,-0.24918 1.19311,0.1786 1.31568,0.88651c0.0491,-0.07273 0.11394,-0.14444 0.19637,-0.21455c1.12464,-0.9566 3.36154,1.38778 1.07933,1.38507c-0.10295,-0.02053 -0.2059,-0.04106 -0.30885,-0.0616zM378.95443,174.07816c0.00338,-0.02013 0.00936,-0.04155 0.01846,-0.06431c0.09285,-0.23212 0.32497,-0.13927 0.32497,-0.13927l0.24064,0.09738c0.07188,0.01443 0.14376,0.02887 0.21564,0.0433c1.29476,-0.00218 -0.46273,-0.80855 -0.80885,-0.50311c-0.192,0.16944 -0.14991,0.36946 0.00914,0.56601z" fill="#000000" stroke="none" stroke-width="0.5" stroke-linecap="butt"/><path d="M356.75325,169.56072c0.24515,0.04903 0.19612,0.29417 0.19612,0.29417l-0.05245,0.26225c-0.33175,1.64414 -1.07676,1.04467 -1.29183,0.56444c-0.7375,0.9329 -0.68214,-0.79679 -0.56214,-1.39679c0,0 0.04903,-0.24515 0.29417,-0.19612c0.24515,0.04903 0.19612,0.29417 0.19612,0.29417c-0.0666,0.33299 -0.50363,1.40332 -0.21053,0.84343l0.09825,-0.24561c0.03545,-0.09495 0.12697,-0.16256 0.23428,-0.16256c0.12289,0 0.22507,0.08867 0.24605,0.20551l0.05154,0.25771l-0.05713,0.01143c0.21551,0.55712 0.27601,0.91276 0.51093,-0.27367l0.05245,-0.26225c0,0 0.04903,-0.24515 0.29417,-0.19612z" fill="#000000" stroke="none" stroke-width="0.5" stroke-linecap="butt"/><path d="M358.44324,172.56597c-0.24254,0.06063 -0.30317,-0.1819 -0.30317,-0.1819l-0.05506,-0.31946c0.00006,-0.0003 0.00012,-0.0006 0.00018,-0.00089c-0.86635,0.34603 -1.58772,-1.93737 0.34645,-1.55891c0,0 0.24515,0.04903 0.19612,0.29417c-0.00737,0.03686 -0.01918,0.06707 -0.03392,0.09179c0.0849,0.03996 0.14367,0.12628 0.14367,0.22633c0,0.01348 -0.00107,0.02671 -0.00312,0.03961l-0.05184,0.36289l-0.03923,-0.0056c0.00663,0.19518 -0.01505,0.38339 -0.06801,0.64867l0.04984,0.10013c0,0 0.06063,0.24254 -0.1819,0.30317zM358.25322,171.02967c0.00594,-0.0159 0.01345,-0.03104 0.02234,-0.04522c-1.01375,-0.16359 -0.5457,1.14299 -0.1222,0.29486z" fill="#000000" stroke="none" stroke-width="0.5" stroke-linecap="butt"/><path d="M359.27425,172.78323c-0.25,0 -0.25,-0.25 -0.25,-0.25v-0.05245c0.00241,-0.79901 0.29276,-1.56748 0.423,-2.34887c0,0 0.0411,-0.2466 0.2877,-0.2055c0.2466,0.0411 0.2055,0.2877 0.2055,0.2877c-0.12492,0.74954 -0.41889,1.50083 -0.41619,2.26667v0.05245c0,0 0,0.25 -0.25,0.25z" fill="#000000" stroke="none" stroke-width="0.5" stroke-linecap="butt"/><path d="M360.63793,173.36018c-0.25,0 -0.25,-0.25 -0.25,-0.25v-0.2098c0.00211,-0.70051 0.1049,-1.39159 0.1049,-2.09798c0,0 0,-0.25 0.25,-0.25c0.25,0 0.25,0.25 0.25,0.25c0,0.70527 -0.10736,1.39945 -0.1049,2.09798v0.2098c0,0 0,0.25 -0.25,0.25z" fill="#000000" stroke="none" stroke-width="0.5" stroke-linecap="butt"/><path d="M353.74198,175.96906c-0.07906,0.23717 -0.31623,0.15811 -0.31623,0.15811l-0.12732,-0.04448c-0.6276,-0.1256 -1.23938,-0.24871 -1.85538,-0.42436c0,0 -0.24038,-0.06868 -0.1717,-0.30906c0.06868,-0.24038 0.30906,-0.1717 0.30906,-0.1717c0.60307,0.17267 1.2015,0.29199 1.81608,0.41483l0.18738,0.06042c0,0 0.23717,0.07906 0.15811,0.31623z" fill="#000000" stroke="none" stroke-width="0.5" stroke-linecap="butt"/><path d="M356.44198,178.18551c-0.25,0 -0.25,-0.25 -0.25,-0.25l0.0034,-0.19845c0.04131,-0.2436 -0.01449,-0.84627 0.0022,-1.29733c-0.14667,0.30211 -0.36164,0.61933 -0.5633,0.64235c-0.28788,0.03286 -0.47233,-0.25267 -0.5517,-0.5893c-0.14691,0.30915 -0.28835,0.62004 -0.3965,0.94484c0,0 -0.07906,0.23717 -0.31623,0.15811c-0.23717,-0.07906 -0.15811,-0.31623 -0.15811,-0.31623c0.20453,-0.61294 0.52295,-1.17465 0.78105,-1.76773l0.04804,-0.28823c0.0179,-0.1205 0.12179,-0.21295 0.24727,-0.21295c0.12289,0 0.22507,0.08867 0.24605,0.20551l0.05154,0.25771l-0.08243,0.01649l-0.02102,0.12609l-0.01985,-0.00331c0.00142,0.00861 0.00281,0.01724 0.00419,0.02589l0.00898,0.00661c-0.00193,0.00455 -0.00386,0.0091 -0.0058,0.01365c0.09402,0.60674 0.09232,1.29876 0.10154,0.92683c0.00966,-0.38949 0.49731,-1.35202 1.01269,-1.05918c0.46727,0.2655 0.17072,1.88933 0.10459,2.29238l0.0034,0.11625c0,0 0,0.25 -0.25,0.25z" fill="#000000" stroke="none" stroke-width="0.5" stroke-linecap="butt"/><path d="M358.15431,177.56961c-0.56536,-0.11567 -1.05147,0.17755 -0.3811,0.75605c0.21368,0.1844 0.23829,-0.5051 0.3811,-0.75605zM358.81128,177.74468c0.09632,0.29168 0.09351,0.57333 0.16152,0.96725c0.03566,0.02042 0.20589,0.13107 0.10546,0.33194c-0.1118,0.22361 -0.33541,0.1118 -0.33541,0.1118l-0.23824,-0.22703c-0.045,-0.22512 -0.13143,-0.52419 -0.13591,-0.79687c-1.33642,1.6757 -1.92614,-2.26023 0.45723,-0.83021c0,0 0.21437,0.12862 0.08575,0.343c-0.03006,0.0501 -0.0648,0.08147 -0.1004,0.10012z" fill="#000000" stroke="none" stroke-width="0.5" stroke-linecap="butt"/><path d="M361.39575,179.76404c0.06134,0.03181 0.12158,0.09429 0.12158,0.21701c0,0.25 -0.25,0.25 -0.25,0.25l-0.28457,-0.15715c-0.25747,-0.64939 -0.58912,-1.24417 -0.72855,-1.93576c-0.01316,-0.00222 -0.02632,-0.00445 -0.0395,-0.00669c-0.08007,0.30562 -0.17827,0.61061 -0.28368,0.93212c0,0 -0.07906,0.23717 -0.31623,0.15811c-0.23717,-0.07906 -0.15811,-0.31623 -0.15811,-0.31623c0.10892,-0.32227 0.20855,-0.62669 0.28696,-0.93336c-0.0313,-0.04398 -0.0497,-0.10543 -0.03269,-0.1905c0.01829,-0.09144 0.06386,-0.14195 0.11382,-0.16934c0.0573,-0.29687 0.09112,-0.60291 0.09112,-0.93551v-0.05245c0,0 0,-0.25 0.25,-0.25c0.25,0 0.25,0.25 0.25,0.25v0.05245c0,0.34373 -0.03403,0.66134 -0.09148,0.9695c0.52897,0.09467 1.04146,0.16641 1.56026,0.37187l0.01205,-0.01788c0,0 0.25,0 0.25,0.25c0,0.25 -0.25,0.25 -0.25,0.25l-0.19775,-0.01788c-0.30477,-0.12334 -0.60694,-0.19545 -0.91235,-0.25279c0.13732,0.53834 0.39364,1.02349 0.60913,1.5345z" fill="#000000" stroke="none" stroke-width="0.5" stroke-linecap="butt"/><path d="M362.74516,179.29746c0.13244,0.27583 0.45079,0.50418 0.71299,0.60882c0,0 0.23212,0.09285 0.13927,0.32497c-0.09285,0.23212 -0.32497,0.13927 -0.32497,0.13927c-0.47763,-0.19146 -0.93095,-0.80174 -1.01862,-1.35694c-0.05768,-0.0472 -0.11466,-0.13087 -0.0698,-0.26547c0.01813,-0.05438 0.04456,-0.09213 0.07455,-0.11803c0.06801,-0.31754 0.31544,-0.56743 0.82893,-0.62938c1.50723,-0.18184 1.09422,2.0344 -0.34236,1.29676zM362.78684,178.72345c0.047,0.03535 0.094,0.0707 0.14101,0.10605c1.02528,0.6339 0.62874,-0.81019 0.01693,-0.27937c-0.06611,0.05736 -0.11821,0.11531 -0.15794,0.17332z" fill="#000000" stroke="none" stroke-width="0.5" stroke-linecap="butt"/><path d="M365.32564,180.13022c0.06063,-0.24254 0.30317,-0.1819 0.30317,-0.1819l0.24201,0.06287c2.2244,0.88993 -0.27903,-0.36788 -0.07132,-0.98927c0.19363,-0.57925 0.9555,-0.20179 1.33873,-0.1252c0,0 0.24515,0.04903 0.19612,0.29417c-0.04903,0.24515 -0.29417,0.19612 -0.29417,0.19612c-1.87923,-0.37609 0.73186,0.10891 0.32509,1.07299c-0.29284,0.69406 -1.26364,0.18199 -1.68014,0.01542l-0.17758,-0.04203c0,0 -0.24254,-0.06063 -0.1819,-0.30317z" fill="#000000" stroke="none" stroke-width="0.5" stroke-linecap="butt"/><path d="M369.08228,179.52125c0.25,0 0.25,0.25 0.25,0.25v0.26225c-0.00978,0.67092 -0.77735,1.81557 -1.58963,1.26049c-0.48137,-0.32895 -0.27406,-1.4346 -0.27406,-1.94233c0,0 0,-0.25 0.25,-0.25c0.25,0 0.25,0.25 0.25,0.25c0,1.1819 0.89627,2.23464 0.86368,0.68184v-0.26225c0,0 0,-0.25 0.25,-0.25z" fill="#000000" stroke="none" stroke-width="0.5" stroke-linecap="butt"/><path d="M371.75541,180.48687c-0.13868,0.20801 -0.34669,0.06934 -0.34669,0.06934l-0.13048,-0.0893c-0.8697,-0.45983 -1.10678,0.2981 -1.10678,1.03518c0,0 0,0.25 -0.25,0.25c-0.25,0 -0.25,-0.25 -0.25,-0.25c0,-1.13422 0.61308,-2.06638 1.83039,-1.48239l0.18422,0.12049c0,0 0.20801,0.13868 0.06934,0.34669z" fill="#000000" stroke="none" stroke-width="0.5" stroke-linecap="butt"/><path d="M372.72035,181.51392c0.15928,0.33841 0.3722,0.62815 0.51748,0.54278c0,0 0.23212,-0.09285 0.32497,0.13927c0.09285,0.23212 -0.13927,0.32497 -0.13927,0.32497c-0.93505,0.3041 -1.9322,-1.93721 -1.02771,-2.35127c1.22891,-0.56257 2.50184,1.74233 0.4702,1.36851c-0.04855,-0.00809 -0.09711,-0.01617 -0.14566,-0.02426zM372.52622,180.96494l0.11127,0.0283c0.10622,0.01771 0.21244,0.03543 0.31867,0.05314c1.50229,0.33448 -0.34264,-0.66612 -0.44349,-0.34027c-0.0172,0.05556 -0.01048,0.14777 0.01355,0.25883z" fill="#000000" stroke="none" stroke-width="0.5" stroke-linecap="butt"/><path d="M375.9654,180.24329c0,-0.13807 0.11193,-0.25 0.25,-0.25c0.13807,0 0.25,0.11193 0.25,0.25c0,0.13807 -0.11193,0.25 -0.25,0.25c-0.13807,0 -0.25,-0.11193 -0.25,-0.25z" fill="#000000" stroke="none" stroke-width="0.5" stroke-linecap="butt"/><path d="M374.91892,181.51918c0.03536,-0.24749 0.28284,-0.21213 0.28284,-0.21213l0.38393,0.05543c0.03891,0.01112 0.0778,0.02219 0.11667,0.03323c0.03572,-0.0494 0.09614,-0.09118 0.19834,-0.09118c0.19275,0 0.23689,0.14861 0.247,0.21668c0.23519,0.06596 0.46968,0.13151 0.70381,0.1982c-0.04284,-0.51809 -0.04692,-1.00381 -0.04692,-1.26631c0,0 0,-0.25 0.25,-0.25c0.25,0 0.25,0.25 0.25,0.25c0,0.18056 -0.03446,0.79709 -0.01089,1.39412c0.33123,0.09739 0.66218,0.19904 0.99384,0.30934c0,0 0.23717,0.07906 0.15811,0.31623c-0.07906,0.23717 -0.31623,0.15811 -0.31623,0.15811c-0.26518,-0.08858 -0.52992,-0.17139 -0.79472,-0.25081c0.08731,0.69468 0.31685,1.12662 0.88358,0.33568l0.1931,-0.12606c0,0 0.22361,-0.1118 0.33541,0.1118c0.1118,0.22361 -0.1118,0.33541 -0.1118,0.33541l-0.0167,-0.02116c-1.10833,1.43242 -1.53999,0.42202 -1.70771,-0.76032c-0.25777,-0.07439 -0.51588,-0.14678 -0.7748,-0.21937c-0.02823,0.27789 -0.09152,0.54753 -0.14726,0.82627c0,0 -0.04903,0.24515 -0.29417,0.19612c-0.24515,-0.04903 -0.19612,-0.29417 -0.19612,-0.29417c0.05803,-0.29015 0.13155,-0.57283 0.14878,-0.86571c-0.05514,-0.01562 -0.11033,-0.03131 -0.16558,-0.0471l-0.35036,-0.04946c0,0 -0.24749,-0.03536 -0.21213,-0.28284z" fill="#000000" stroke="none" stroke-width="0.5" stroke-linecap="butt"/><path d="M353.87196,180.25553c0.25,0 0.25,0.25 0.25,0.25l-0.00485,0.10148c-0.07467,0.36387 -0.08373,0.7331 -0.15735,1.10144c0,0 -0.04903,0.24515 -0.29417,0.19612c-0.24515,-0.04903 -0.19612,-0.29417 -0.19612,-0.29417c0.0739,-0.36926 0.0856,-0.73474 0.15735,-1.10144l-0.00485,-0.00342c0,0 0,-0.25 0.25,-0.25z" fill="#000000" stroke="none" stroke-width="0.5" stroke-linecap="butt"/><path d="M353.56951,179.71879c0,-0.13807 0.11193,-0.25 0.25,-0.25c0.13807,0 0.25,0.11193 0.25,0.25c0,0.13807 -0.11193,0.25 -0.25,0.25c-0.13807,0 -0.25,-0.11193 -0.25,-0.25z" fill="#000000" stroke="none" stroke-width="0.5" stroke-linecap="butt"/><path d="M354.5709,182.23294c-0.04903,-0.24515 0.19612,-0.29417 0.19612,-0.29417l0.26621,-0.05321c0.02513,-0.00419 0.05294,-0.00796 0.08182,-0.01041c-0.57409,-0.70522 -0.09083,-1.1173 0.85147,-0.93292c0,0 0.24515,0.04903 0.19612,0.29417c-0.04903,0.24515 -0.29417,0.19612 -0.29417,0.19612c-0.11587,-0.02378 -0.33881,0.15921 -0.26177,0.24513l0.19622,0.14717c0.06204,0.04549 0.10233,0.11891 0.10233,0.20175c0,0.12289 -0.08867,0.22507 -0.20551,0.24605l-0.25771,0.05154l-0.00609,-0.03044c-0.10199,0.0367 -0.20614,0.06591 -0.31257,0.08365l-0.25829,0.05169c0,0 -0.24515,0.04903 -0.29417,-0.19612z" fill="#000000" stroke="none" stroke-width="0.5" stroke-linecap="butt"/><path d="M359.58894,181.77657c0.20979,0.00306 0.42149,0.04753 0.61734,0.12278c0,0 0.23212,0.09285 0.13927,0.32497c-0.09285,0.23212 -0.32497,0.13927 -0.32497,0.13927c-0.13521,-0.05711 -0.2849,-0.0901 -0.43165,-0.08702h-0.16808c-0.10171,0.43606 -0.11628,0.73436 0.35415,0.42727l-0.04253,-0.00233c0,0 0.1118,-0.22361 0.33541,-0.1118c0.22361,0.1118 0.1118,0.33541 0.1118,0.33541l-0.14743,0.20747c-1.24006,0.70357 -1.09325,-0.32764 -0.97006,-1.21743c-0.10013,0.07857 -0.23416,0.03389 -0.23416,0.03389c-1.38231,-0.46126 0.06044,0.15654 -0.09241,0.73746c-0.16344,0.62119 -1.02052,0.29017 -1.39859,0.2146l-0.1802,-0.12082c0,0 -0.17678,-0.17678 0,-0.35355c0.16266,-0.16266 0.32533,-0.02597 0.35026,-0.00311c0.11391,0.01846 0.27158,0.03789 0.41565,0.05948c-0.20432,-0.31505 -0.2401,-1.00536 0.005,-1.18804c0.27791,-0.20714 0.79399,0.0916 1.0584,0.17964c0,0 0.0708,0.0236 0.12214,0.08369c0.01277,-0.11616 0.02108,-0.22417 0.02085,-0.31856c0,0 0,-0.25 0.25,-0.25c0.25,0 0.25,0.25 0.25,0.25c-0.00033,0.15243 -0.0374,0.34209 -0.08376,0.53674z" fill="#000000" stroke="none" stroke-width="0.5" stroke-linecap="butt"/><path d="M362.12594,182.26938c0.13911,0.13911 0.05928,0.27822 0.01895,0.33119c-0.05715,1.57208 -1.43515,1.59336 -1.44226,-0.10196c0,0 0,-0.25 0.25,-0.25c0.25,0 0.25,0.25 0.25,0.25c-0.00412,1.14973 0.44409,1.00602 0.44409,0l0.12567,-0.22923c0,0 0.17678,-0.17678 0.35355,0z" fill="#000000" stroke="none" stroke-width="0.5" stroke-linecap="butt"/><path d="M364.84769,183.50206c-0.1118,0.22361 -0.33541,0.1118 -0.33541,0.1118l-0.19084,-0.09639c-0.85289,-0.34377 -0.97916,-0.40138 -1.35341,0.54257c0,0 -0.09285,0.23212 -0.32497,0.13927c-0.23212,-0.09285 -0.13927,-0.32497 -0.13927,-0.32497c0.4708,-1.16803 0.9099,-1.25464 2.00335,-0.82111l0.22875,0.11341c0,0 0.22361,0.1118 0.1118,0.33541z" fill="#000000" stroke="none" stroke-width="0.5" stroke-linecap="butt"/><path d="M366.01438,183.07956c0.00023,-0.00133 0.00046,-0.00266 0.0007,-0.00399h-0.06751v-0.3147c0,-0.13807 0.11193,-0.25 0.25,-0.25c0.12289,0 0.22507,0.08867 0.24605,0.20551l0.05005,0.25026c0.24261,0.8491 0.2007,1.35619 0.02737,1.62628c-0.00359,0.08856 -0.00762,0.17283 -0.01126,0.25015c0.06766,-0.03512 0.17591,-0.05945 0.28415,0.0488c0.17678,0.17678 0,0.35355 0,0.35355l-0.13412,0.13057l-0.1556,0.20747c-0.04549,0.06204 -0.11891,0.10233 -0.20175,0.10233c-0.12289,0 -0.22507,-0.08867 -0.24605,-0.20551l-0.05154,-0.25771l0.00801,-0.0016l-0.01164,-0.02279c-0.0005,-0.11739 -0.00368,-0.23464 -0.00813,-0.35168c-0.72458,-0.04901 -1.58005,-1.14732 -0.01022,-1.54195c0.00751,-0.06943 0.01691,-0.13862 0.02852,-0.20757c-0.00154,-0.00521 -0.00299,-0.01019 -0.00434,-0.01496zM365.95686,183.81668c-0.65376,0.17235 -0.52204,1.02799 0.02581,0.79059c-0.01256,-0.26534 -0.02671,-0.52922 -0.02581,-0.79059z" fill="#000000" stroke="none" stroke-width="0.5" stroke-linecap="butt"/><path d="M366.70263,185.99329c0.17678,-0.17678 0.35355,0 0.35355,0l0.05675,0.0673c1.34778,0.80867 1.00429,-0.0713 0.94773,-0.86029c-0.4544,0.42914 -0.80586,-0.23183 -1.0068,-1.23653c0,0 -0.04903,-0.24515 0.19612,-0.29417c0.24515,-0.04903 0.29417,0.19612 0.29417,0.19612c0.20242,1.0121 0.04769,1.47596 0.52012,0.37365l0.10189,-0.25472c0.03545,-0.09495 0.12697,-0.16256 0.23428,-0.16256c0.10731,0 0.19883,0.06761 0.23428,0.16256l0.10274,0.25684l-0.07888,0.03155c0.56649,1.33944 -0.15354,3.20591 -1.8029,2.2163l-0.15305,-0.1425c0,0 -0.17678,-0.17678 0,-0.35355z" fill="#000000" stroke="none" stroke-width="0.5" stroke-linecap="butt"/><path d="M369.25188,185.59311c0,-0.13807 0.11193,-0.25 0.25,-0.25c0.13807,0 0.25,0.11193 0.25,0.25c0,0.13807 -0.11193,0.25 -0.25,0.25c-0.13807,0 -0.25,-0.11193 -0.25,-0.25z" fill="#000000" stroke="none" stroke-width="0.5" stroke-linecap="butt"/><path d="M369.93372,185.64557c0,-0.13807 0.11193,-0.25 0.25,-0.25c0.13807,0 0.25,0.11193 0.25,0.25c0,0.13807 -0.11193,0.25 -0.25,0.25c-0.13807,0 -0.25,-0.11193 -0.25,-0.25z" fill="#000000" stroke="none" stroke-width="0.5" stroke-linecap="butt"/><path d="M370.93026,185.75049c0,-0.13807 0.11193,-0.25 0.25,-0.25c0.13807,0 0.25,0.11193 0.25,0.25c0,0.13807 -0.11193,0.25 -0.25,0.25c-0.13807,0 -0.25,-0.11193 -0.25,-0.25z" fill="#000000" stroke="none" stroke-width="0.5" stroke-linecap="butt"/><path d="M377.02465,170.69628c-0.15812,0.47434 -0.63245,0.31623 -0.63245,0.31623l-0.15224,-0.0523c-3.65344,-0.91909 -7.20562,-1.77448 -10.92133,-2.44893c-3.75449,-0.46811 -7.72911,-1.9852 -11.52238,-1.51075c0,0 -0.49614,0.06202 -0.55815,-0.43412c-0.06201,-0.49614 0.43412,-0.55816 0.43412,-0.55816c3.89976,-0.48718 7.94151,1.03138 11.79793,1.51458c3.74427,0.68194 7.32853,1.55273 11.01235,2.46724l0.22593,0.07376c0,0 0.47435,0.15812 0.31623,0.63246z" fill="#ec1c24" stroke="none" stroke-width="0.5" stroke-linecap="butt"/><path d="M361.32061,171.66926c-0.1857,0.46424 -0.64993,0.27854 -0.64993,0.27854l-0.23791,-0.1022c-1.30063,-0.28913 -2.57902,-0.38888 -3.88871,-0.62644c0,0 -0.49194,-0.08944 -0.40249,-0.58138c0.08945,-0.49194 0.58137,-0.40249 0.58137,-0.40249c1.32044,0.24068 2.61352,0.34239 3.92675,0.63412l0.39237,0.14991c0,0 0.46424,0.18569 0.27855,0.64993z" fill="#ec1c24" stroke="none" stroke-width="0.5" stroke-linecap="butt"/><path d="M376.29398,180.43353c0,0.5 -0.5,0.5 -0.5,0.5h-0.06303c-1.76777,-0.00207 -3.61173,-0.36468 -5.34948,-0.65322c-4.97121,-0.82554 -10.12282,-0.54507 -15.00374,-1.75677c0,0 -0.48507,-0.12127 -0.3638,-0.60634c0.12127,-0.48507 0.60634,-0.3638 0.60634,-0.3638c4.8435,1.21847 9.98539,0.92151 14.9251,1.74043c1.68102,0.28027 3.4745,0.64192 5.18557,0.6397h0.06303c0,0 0.5,0 0.5,0.5z" fill="#ec1c24" stroke="none" stroke-width="0.5" stroke-linecap="butt"/><path d="M368.79366,184.59335c0,0.5 -0.5,0.5 -0.5,0.5h-0.37817c-3.35589,-0.00327 -7.28837,-1.05036 -10.57109,-1.77668c0,0 -0.48809,-0.10847 -0.37963,-0.59656c0.10847,-0.48809 0.59656,-0.37963 0.59656,-0.37963c3.19992,0.71444 7.0793,1.75636 10.35416,1.75287h0.37817c0,0 0.5,0 0.5,0.5z" fill="#ec1c24" stroke="none" stroke-width="0.5" stroke-linecap="butt"/><path d="M352.86127,176.32696c-0.10033,1.64706 -0.28977,3.28503 -0.28977,4.94455c0,0 0,0.5 -0.5,0.5c-0.5,0 -0.5,-0.5 -0.5,-0.5c0,-1.6653 0.19066,-3.30841 0.29073,-4.96065c-0.03541,-0.03755 -0.0685,-0.08458 -0.09775,-0.14309c-0.15793,-0.31586 0.01877,-0.52018 0.1362,-0.61295c0.01342,-0.33687 0.02131,-0.67431 0.02131,-1.01259c0,-0.8624 -0.51672,-2.14488 0.4815,-2.68768c0.63777,-0.3468 1.70471,0.10612 2.30771,0.33108c1.17305,0.50735 2.63336,2.18603 1.18744,3.36973c-0.7177,0.58755 -2.03137,0.68268 -3.03737,0.77161zM352.91022,175.28412c1.52771,-0.28277 4.00494,-1.07877 1.42835,-2.17049c-0.38275,-0.1444 -1.04909,-0.46723 -1.47751,-0.36989c-0.1667,0.03787 0.06092,1.60401 0.06092,1.79851c0,0.24771 -0.00423,0.49496 -0.01176,0.74187z" fill="#2417bd" stroke="none" stroke-width="0.5" stroke-linecap="butt"/><path d="M358.80362,177.4764c-0.26985,-0.07802 -0.54636,-0.13481 -0.82469,-0.1748c-0.13506,1.0068 -0.35121,1.99322 -0.75404,2.91127c0,0 -0.20307,0.45691 -0.65998,0.25384c-0.45691,-0.20307 -0.25384,-0.65998 -0.25384,-0.65998c0.8836,-1.95836 0.80289,-4.33909 1.01149,-6.44191l0.00259,-0.0059l-0.00187,-0.00023l0.06927,-0.55419c0.02758,-0.25005 0.23956,-0.44456 0.49696,-0.44456c0.16227,0 0.30649,0.07731 0.39784,0.1971l0.48751,0.6268l-0.14791,0.11504c1.01634,1.41212 1.12728,3.18104 1.63593,4.96134l0.15827,0.2306c0,0 0.25725,0.42875 -0.1715,0.68599c-0.42875,0.25725 -0.68599,-0.1715 -0.68599,-0.1715l-0.26231,-0.47037c-0.08517,-0.29811 -0.20616,-0.6535 -0.34058,-1.0404c-0.09064,0.00088 -0.15718,-0.01813 -0.15718,-0.01813zM358.1875,175.06403c-0.0298,0.4132 -0.06016,0.8289 -0.09829,1.24382c0.16504,0.02369 0.32956,0.05218 0.49292,0.08602c-0.14758,-0.44406 -0.28777,-0.8973 -0.39463,-1.32984z" fill="#2417bd" stroke="none" stroke-width="0.5" stroke-linecap="butt"/><path d="M367.4423,179.63873c-0.4,0.3 -0.7,-0.1 -0.7,-0.1l-0.18992,-0.25499c-1.22666,-1.43281 -3.00626,-2.13296 -3.78271,-3.84355l1.06908,-0.27265c0.2092,0.05127 0.70294,0.07686 1.10809,0.14139c-0.65733,-0.3401 -1.41627,-1.03321 -1.90825,-1.3141c-0.17438,-0.09956 -0.50023,-0.29983 -0.76061,-0.4735c0.61527,1.09595 0.66784,4.75174 0.66784,5.50711c0,0 0,0.5 -0.5,0.5c-0.5,0 -0.5,-0.5 -0.5,-0.5c0,-1.66119 -0.35519,-3.19954 -0.62441,-4.82668c-0.07866,-0.47542 -0.48607,-1.0164 -0.23334,-1.42668c0.98822,-1.60427 4.8144,1.91516 5.43217,2.77118c-0.56193,0.59799 -0.99817,0.81659 -1.52755,0.82701c0.91369,0.62034 1.82151,1.67998 2.31895,2.25967l0.23066,0.30578c0,0 0.3,0.4 -0.1,0.7z" fill="#2417bd" stroke="none" stroke-width="0.5" stroke-linecap="butt"/><path d="M366.01823,173.40859c0.0822,-0.4932 0.5754,-0.411 0.5754,-0.411l0.43644,0.073c1.51255,0.30387 3.05773,0.36955 4.56669,0.70316c0,0 0.48809,0.10847 0.37963,0.59656c-0.10847,0.48809 -0.59656,0.37963 -0.59656,0.37963c-0.67585,-0.15102 -1.35927,-0.24688 -2.04395,-0.33403c0.22056,1.21358 0.70153,2.85799 0.72033,4.15051c0.0965,-0.117 0.29792,-0.27857 0.60424,-0.1254c0.44721,0.22361 0.22361,0.67082 0.22361,0.67082l-0.08023,0.15941c-1.91843,3.42662 -2.32516,-2.93048 -2.51466,-4.9879c-0.48683,-0.06425 -0.97266,-0.13607 -1.45522,-0.23218l-0.40472,-0.06719c0,0 -0.4932,-0.0822 -0.411,-0.5754z" fill="#2417bd" stroke="none" stroke-width="0.5" stroke-linecap="butt"/><path d="M375.25459,181.26593c-0.48507,0.12127 -0.60634,-0.3638 -0.60634,-0.3638l-0.07696,-0.4911c0.20423,-1.12168 0.51447,-2.26837 0.72721,-3.40367c-0.92296,-0.41984 -0.76441,-2.57792 -1.11543,-3.3897c0,0 -0.19696,-0.45957 0.26261,-0.65653c0.45957,-0.19696 0.65653,0.26261 0.65653,0.26261c0.26237,0.61693 0.37972,1.15493 0.45756,1.82066c0.01357,0.1161 0.0288,0.29475 0.04943,0.47703c0.08155,-0.09359 0.21223,-0.16743 0.42049,-0.14429c0.09406,0.01045 0.16833,0.03673 0.22695,0.07246c0.4382,-0.91744 0.66878,-1.93323 0.91509,-2.92124l-0.01493,-0.01893c0,0 0,-0.5 0.5,-0.5c0.5,0 0.5,0.5 0.5,0.5l-0.01493,0.26146c-0.22846,0.91145 -0.69734,3.57342 -1.8291,4.21132c-0.21766,1.20261 -0.5409,2.41415 -0.75761,3.60769l0.06323,0.06968c0,0 0.12127,0.48507 -0.3638,0.60634z" fill="#2417bd" stroke="none" stroke-width="0.5" stroke-linecap="butt"/><path d="M379.19894,179.10784c-0.5,0 -0.5,-0.5 -0.5,-0.5l0.01191,-0.31876c0.38155,-1.71662 0.44521,-3.28736 0.27096,-5.02894c0,0 -0.04975,-0.49752 0.44777,-0.54727c0.49752,-0.04975 0.54727,0.44777 0.54727,0.44777c0.1846,1.84702 0.11449,3.52564 -0.28981,5.34538l0.01191,0.10182c0,0 0,0.5 -0.5,0.5z" fill="#2417bd" stroke="none" stroke-width="0.5" stroke-linecap="butt"/><path d="M380.13577,181.55952c0.04998,0.12824 0.08904,0.27936 0.11423,0.45511c0.25558,1.78312 -2.1805,1.54332 -2.44213,0.23873c-0.24316,-1.21253 0.62985,-1.4335 1.46154,-1.26323c0.23658,-0.04899 0.47397,0.01392 0.65942,0.21993c0.08912,0.04231 0.17266,0.08807 0.24842,0.13613z" fill="#2417bd" stroke="none" stroke-width="0.5" stroke-linecap="butt"/><path d="" fill="#000000" stroke="none" stroke-width="0.5" stroke-linecap="butt"/><path d="" fill="#000000" stroke="none" stroke-width="0.5" stroke-linecap="butt"/><path d="" fill="#000000" stroke="none" stroke-width="0.5" stroke-linecap="butt"/><path d="" fill="#c6c6c6" stroke="#000000" stroke-width="0" stroke-linecap="butt"/><path d="" fill="#c6c6c6" stroke="#000000" stroke-width="0" stroke-linecap="butt"/><path d="" fill="#c6c6c6" stroke="#999999" stroke-width="2.5" stroke-linecap="butt"/><path d="" fill="#8b735c" stroke="none" stroke-width="0.5" stroke-linecap="butt"/><path d="M366.55101,153.7345c0.29401,-0.54882 0.83474,-0.96076 1.69178,-1.05326c2.58838,-0.27937 2.90421,1.5937 2.19601,3.22164c0.32862,0.97658 -0.64796,1.46487 -0.64796,1.46487l-0.45389,0.08354c-0.99779,0.88855 -2.34376,1.10771 -3.45042,-0.47069c-1.25828,-1.79466 -0.53639,-2.78558 0.66447,-3.2461z" fill="#d63e3e" stroke="none" stroke-width="0.5" stroke-linecap="butt"/><path d="" fill="#3e68d6" stroke="none" stroke-width="0.5" stroke-linecap="butt"/><path d="" fill-opacity="0.50196" fill="#fa9600" stroke="none" stroke-width="0.5" stroke-linecap="butt"/><path d="" fill-opacity="0.50196" fill="#fa9600" stroke="none" stroke-width="0.5" stroke-linecap="butt"/><g fill="#000000" stroke="none" stroke-width="0.5" stroke-linecap="butt" font-family="&quot;Helvetica Neue&quot;, Helvetica, Arial, sans-serif" font-weight="400" font-size="16" text-anchor="start"/><g fill="#000000" stroke="none" stroke-width="0.5" stroke-linecap="butt" font-family="&quot;Helvetica Neue&quot;, Helvetica, Arial, sans-serif" font-weight="400" font-size="16" text-anchor="start"/></g></g></svg>