<svg version="1.1" xmlns="http://www.w3.org/2000/svg" xmlns:xlink="http://www.w3.org/1999/xlink" width="110.06552" height="66.15546" viewBox="0,0,110.06552,66.15546"><defs><linearGradient x1="92.54275" y1="147.19411" x2="92.54275" y2="180.69979" gradientUnits="userSpaceOnUse" id="color-1"><stop offset="0" stop-color="#81471e"/><stop offset="1" stop-color="#914f21"/></linearGradient><linearGradient x1="88.7952" y1="168.81756" x2="88.7952" y2="176.6436" gradientUnits="userSpaceOnUse" id="color-2"><stop offset="0" stop-color="#81471e"/><stop offset="1" stop-color="#914f21"/></linearGradient></defs><g transform="translate(-69.21109,-187.58095)"><g data-paper-data="{&quot;isPaintingLayer&quot;:true}" fill-rule="nonzero" stroke="none" stroke-width="0.5" stroke-linecap="butt" stroke-linejoin="miter" stroke-miterlimit="10" stroke-dasharray="" stroke-dashoffset="0" style="mix-blend-mode: normal"><path d="M173.2157,234.50658c0.29358,-0.15203 0.57951,-0.32051 0.88345,-0.45017c0.0055,-0.00235 0.01101,-0.0047 0.01651,-0.00704c-0.08053,0.14691 -0.1324,0.31176 -0.1481,0.48702c-0.26077,-0.02455 -0.51335,-0.03617 -0.75187,-0.02982zM171.15567,240.51804c0.32777,0.04383 0.66472,0.07988 1.00266,0.11128c-0.36711,-0.01038 -0.7008,-0.04853 -1.00266,-0.11128z" fill-opacity="0.50196" fill="#000000"/><path d="" fill-opacity="0.50196" fill="#000000"/><path d="" fill-opacity="0.50196" fill="#000000"/><g><path d="M102.14484,251.64859c-2.55938,-3.35904 -3.92893,-7.30352 -5.71874,-11.0501c-0.87475,-1.83112 -2.89825,-2.95761 -3.79474,-4.75059c-0.84517,-1.69035 -0.9586,-4.3082 0,-5.90587c3.51333,-5.85556 12.52424,-7.85167 18.61087,-9.30824c5.38567,-1.28883 10.13941,-4.18072 15.0571,-6.63957c4.41419,-2.20709 10.12605,-3.58832 14.87321,-4.9707c4.74597,-1.38203 11.82262,-5.44735 15.94657,-0.7045c1.39484,1.60416 1.78526,3.67406 2.81456,5.44772c1.85564,3.19761 4.87606,6.63117 4.87606,10.47262c0,4.59657 -4.15725,6.97082 -7.52753,8.77822c-8.42297,4.51702 -17.4983,7.64405 -26.50084,11.37302c-5.55552,2.30117 -11.76597,4.09681 -17.00603,6.71684c-0.98746,0.49373 -4.2923,3.26978 -5.64433,2.36843c-0.5235,0.16916 -1.08196,0.26054 -1.66176,0.26054c-1.04379,0 -2.01841,-0.29617 -2.8444,-0.80906c-0.54783,-0.30205 -1.04834,-0.71224 -1.47997,-1.27873z" fill="#ba141b"/><path d="M118.1015,238.20605c-0.50134,1.25335 -1.75468,0.75201 -1.75468,0.75201l-1.26572,-0.50629c-2.04048,-0.82314 -3.74344,-1.95461 -5.11926,-3.71349c-0.02934,-0.03751 -0.06047,-0.07908 -0.09269,-0.12394c-0.0147,0.10041 -0.0297,0.19336 -0.04323,0.27455c-0.37379,2.24232 -0.51007,4.48477 -1.34391,6.60804c0,0 -0.50134,1.25335 -1.75468,0.75201c-1.25335,-0.50134 -0.75201,-1.75468 -0.75201,-1.75468c0.98613,-2.40938 0.62657,-5.11949 1.44069,-7.56808c0.2929,-0.88095 0.21385,-2.28827 1.10226,-2.5577c0.98634,-0.29912 1.94329,0.76225 2.76457,1.38502c1.87317,1.42042 2.34174,3.21767 4.80096,4.19157l1.26572,0.50629c0,0 1.25335,0.50134 0.75201,1.75468z" fill="#8e021b"/><path d="M130.06219,230.5493c1.07992,0.80994 0.26998,1.88985 0.26998,1.88985l-0.88483,1.15716c-5.44198,5.26864 -11.08766,-1.93988 -11.16449,-7.53629c0,0 0,-1.3499 1.3499,-1.3499c1.3499,0 1.3499,1.3499 1.3499,1.3499c-0.05962,3.09316 3.22012,9.1251 6.55566,5.62725l0.63404,-0.868c0,0 0.80994,-1.07992 1.88985,-0.26998z" fill="#8e021b"/><path d="M140.61255,219.15931c1.33153,0.22192 1.10961,1.55345 1.10961,1.55345l-0.38439,1.91464c-0.56543,0.54734 -0.9794,1.31742 -1.69628,1.64203c-2.53411,1.14747 -4.29577,-1.89589 -4.22959,1.53745c0,0 0,1.3499 -1.3499,1.3499c-1.3499,0 -1.3499,-1.3499 -1.3499,-1.3499c0.03636,-2.64838 0.329,-4.16371 3.37505,-4.38763c0.99369,-0.07305 2.11986,0.82339 2.85004,-0.02723l0.1219,-1.1231c0,0 0.22192,-1.33153 1.55345,-1.10961z" fill="#8e021b"/><path d="M148.50286,211.06651c1.32368,0.26474 1.05894,1.58842 1.05894,1.58842l-0.32348,1.50233c-0.42324,1.00845 -1.05697,1.94573 -1.8177,2.73149c0,0 -0.95452,0.95452 -1.90904,0c-0.95452,-0.95452 0,-1.90904 0,-1.90904c0.52959,-0.50502 0.9655,-1.13903 1.22004,-1.82512l0.18281,-1.02912c0,0 0.26474,-1.32368 1.58842,-1.05894z" fill="#8e021b"/><path d="M153.04788,212.81231c1.3499,0 1.3499,1.3499 1.3499,1.3499v0.25314c0,4.07266 0.032,10.26345 -5.03988,11.67986c-1.0672,0.29803 -2.55765,-0.04851 -3.61999,-0.22253c0,0 -1.33153,-0.22192 -1.10961,-1.55345c0.22192,-1.33153 1.55345,-1.10961 1.55345,-1.10961c5.55869,0.94485 5.51624,-4.67279 5.51624,-8.79427v-0.25314c0,0 0,-1.3499 1.3499,-1.3499z" fill="#8e021b"/></g><path d="M101.06411,237.07948c-0.01529,-0.01191 -0.03062,-0.02379 -0.04598,-0.03562c0.02521,-0.0208 0.05025,-0.04202 0.07511,-0.06367c0.06526,0.14625 0.138,0.29095 0.21949,0.43389c-0.05741,-0.09478 -0.17359,-0.27616 -0.24862,-0.3346zM70.33577,188.3824c-0.26352,-0.1759 -0.52704,-0.3518 -0.79056,-0.52769l-0.32549,-0.24412c-0.00287,-0.00988 -0.00574,-0.01976 -0.00863,-0.02964c0.20088,0.01609 0.4072,0.07698 0.62197,0.17157c0.1728,0.20686 0.33918,0.41729 0.50271,0.62987zM96.62487,232.73229c0.00853,0.01328 0.01706,0.02644 0.02558,0.03945c-0.01204,-0.00342 -0.02409,-0.0068 -0.03616,-0.01013c0.00358,-0.00966 0.00711,-0.01945 0.01058,-0.02932z" fill-opacity="0.50196" fill="#000000"/><g fill="#595959"><path d=""/><path d=""/><path d=""/></g><path d="" fill="#6a3b18"/><path d="" fill="#6a3b18"/><path d="" fill="#6a3b18"/><path d="" fill="#bb5a4c"/><g><path d="" fill="#999999"/><path d="" fill="#808080"/></g><path d="" fill="#595959"/><path d="" fill="#595959"/><path d="" fill="#632817"/><path d="" fill="#dc5f4d"/><g><path d="" fill="url(#color-1)"/><path d="" fill="url(#color-2)"/></g><path d="" fill="#061633"/><path d="" fill="#f2f2f2"/><path d="" fill="#6a3b18"/><path d="" fill="#6a3b18"/><path d="" fill="#000000"/><path d="" fill="#000000"/><path d="" fill="#000000"/><path d="" fill="#000000"/><path d="" fill="#000000"/><path d="" fill="#000000"/><path d="" fill="#000000"/><path d="" fill="#000000"/><path d="" fill="#000000"/><path d="" fill="#000000"/><path d="" fill="#2417bd"/><path d="" fill="#2417bd"/><path d="" fill="#000000"/><path d="" fill="#000000"/><path d="" fill="#8b735c"/><path d="" fill="#c3c3c3"/><path d="M179.22456,205.66166l0.05205,-0.0097c-0.0174,0.00334 -0.03476,0.00657 -0.05205,0.0097z" fill-opacity="0.50196" fill="#fa9600"/><g fill="#000000" font-family="&quot;Helvetica Neue&quot;, Helvetica, Arial, sans-serif" font-weight="400" font-size="16" text-anchor="start"/><g fill="#000000" font-family="&quot;Helvetica Neue&quot;, Helvetica, Arial, sans-serif" font-weight="400" font-size="16" text-anchor="start"/><g fill="#000000" font-family="&quot;Helvetica Neue&quot;, Helvetica, Arial, sans-serif" font-weight="400" font-size="16" text-anchor="start"/><g fill="#000000" font-family="&quot;Helvetica Neue&quot;, Helvetica, Arial, sans-serif" font-weight="400" font-size="16" text-anchor="start"/><g fill="#000000" font-family="&quot;Helvetica Neue&quot;, Helvetica, Arial, sans-serif" font-weight="400" font-size="16" text-anchor="start"/></g></g></svg>