<svg version="1.1" xmlns="http://www.w3.org/2000/svg" xmlns:xlink="http://www.w3.org/1999/xlink" width="50.56176" height="81.50207" viewBox="0,0,50.56176,81.50207"><defs><linearGradient x1="35.52869" y1="138.95838" x2="35.52869" y2="195.7975" gradientUnits="userSpaceOnUse" id="color-1"><stop offset="0" stop-color="#ffffff"/><stop offset="1" stop-color="#bcbcbc"/></linearGradient></defs><g transform="translate(-9.36664,-118.77661)"><g data-paper-data="{&quot;isPaintingLayer&quot;:true}" fill-rule="nonzero" stroke="none" stroke-linecap="butt" stroke-linejoin="miter" stroke-miterlimit="10" stroke-dasharray="" stroke-dashoffset="0" style="mix-blend-mode: normal"><path d="M14.15408,200.27868c0,0 -5.7051,-31.94415 -4.65946,-48.06619c0.21369,-3.29483 37.86677,-7.81082 37.86677,-7.81082l11.35673,43.23652c0,0 -14.44727,2.66161 -21.79098,4.74464c-7.50737,2.12945 -22.77306,7.89585 -22.77306,7.89585z" data-paper-data="{&quot;index&quot;:null}" fill-opacity="0.25098" fill="#000000" stroke-width="0"/><path d="M15.27992,149.35639c0.40048,0.20024 0.58578,0.4722 0.65867,0.73882c0.58408,-0.15965 1.16619,-0.33483 1.74667,-0.5227c-0.90387,-0.69135 -1.15716,0.41151 -1.15716,0.41151c1.47284,-2.20022 3.14387,-6.64844 4.17644,-9.01753c2.30852,-5.2966 5.6714,-10.41333 8.89543,-15.25161c0.00088,-0.05638 0.0241,-0.80675 0.63753,-1.11541c-0.67002,-1.49711 -0.83525,-3.11323 -0.11456,-4.34726c1.13096,-1.93654 3.45119,-1.41037 5.22812,-1.41037l1.3092,0.50706c0,0 0.60038,0.30018 0.70125,0.90056c0.20952,0.08595 0.40592,0.19161 0.58508,0.32098c0.93968,0.67855 1.38085,1.79145 1.4242,2.98414c4.31485,2.54098 6.56209,6.92798 9.70014,10.74852c0.8243,1.00358 1.73668,1.54036 2.54749,2.43592c0.15968,-0.05638 0.32006,-0.11015 0.48127,-0.16092c0.71303,-0.22459 1.47722,-1.16103 2.10932,-0.7619c1.75252,1.10661 1.52184,6.10316 1.52184,7.78088c0,6.61634 0.19835,14.15297 1.49429,20.63264c0,3.72602 1.04498,7.54602 1.4971,11.22325c0.23146,1.88252 1.55947,4.86237 1.1163,6.74266c-0.52876,2.24346 -2.73174,2.41056 -4.47053,3.17752c-4.01669,1.77173 -8.71544,2.22442 -13.02011,3.08617c-6.98724,1.37574 -13.10416,4.31246 -19.61942,7.0442c-1.84262,0.77258 -3.26515,3.16199 -5.59525,2.71418c-2.53641,-0.48746 -2.49503,-3.15025 -2.88167,-5.08346c-2.34989,-9.39024 -3.88754,-18.89663 -2.64675,-28.559c0.26296,-2.04772 -0.13667,-3.95443 0.37509,-6.0015c-0.01893,-2.72403 0.49487,-5.01881 1.15324,-7.65231l0.46974,-1.00604c0,0 0.55902,-1.11803 1.67705,-0.55902zM32.71591,143.65896c3.85106,-1.28194 7.53134,-1.9166 11.20372,-3.73393c1.83016,-0.44317 3.54234,-1.34249 5.27839,-2.16108c-0.6555,-0.61283 -1.39259,-1.08331 -2.06045,-1.87558c-2.77455,-3.29145 -4.73238,-7.28104 -8.28006,-9.70563c-0.67945,1.55309 -1.98385,2.755 -3.64285,2.65381c-1.19087,-0.07263 -2.42306,-0.82562 -3.42401,-1.90056c-3.16348,4.74313 -6.6069,9.81717 -8.79982,15.04218c-0.98596,2.34921 -1.82041,4.66683 -3.18254,6.85365c4.32056,-1.60718 8.5742,-3.73035 12.90762,-5.17285zM15.24224,152.83741c-0.46556,2.01807 -0.76874,3.86278 -0.78108,6.04183c-0.51176,2.04703 -0.12346,3.93752 -0.37509,6.0015c-1.14696,9.40785 0.3206,18.56043 2.60457,27.70506c0.21479,1.07396 -0.22492,3.21643 0.86926,3.16861c1.94017,-0.08478 4.96699,-2.8842 6.78284,-3.66242c5.83046,-2.49876 11.25116,-4.80918 17.51486,-6.08408c4.0973,-0.81866 8.68045,-1.21034 12.48627,-2.91532c0.0276,-0.01236 3.04807,-1.15677 3.03135,-1.32361c-0.57299,-5.71556 -2.63791,-11.48726 -2.63791,-17.29289c-1.27389,-6.36944 -0.82262,-13.06763 -1.5022,-19.52495c-0.10553,-1.00276 -0.6128,-4.2848 -0.34032,-5.95011c-0.74382,0.438 -1.61256,0.64765 -2.40937,0.98865c-1.81817,0.77811 -3.78999,1.78907 -5.69841,2.27978c-3.68718,1.86597 -7.42464,2.47358 -11.30191,3.76794c-6.09042,2.03319 -11.93917,5.17007 -18.08592,6.775c0,0 -0.06011,0.01503 -0.15692,0.02501zM32.25902,122.37848c0.10352,1.38705 1.06352,2.68188 2.21908,3.38433c0.12564,0.07637 1.16008,0.96941 1.59118,0.48118c0.226,-0.25595 0.26005,-0.63251 0.35999,-0.959c1.02833,-3.35952 -0.97602,-2.81745 -3.70387,-2.81745c0,0 -0.21484,0 -0.46639,-0.08906z" fill="#595959" stroke-width="0.5"/><path d="M15.20162,152.8083c0.09681,-0.00998 0.15705,-0.02519 0.15705,-0.02519c6.14675,-1.60493 12.03124,-4.76227 18.12166,-6.79546c3.87727,-1.29436 7.63679,-1.89911 11.32397,-3.76508c1.90842,-0.49071 3.8869,-1.49864 5.70508,-2.27675c0.79681,-0.341 1.66768,-0.54942 2.4115,-0.98741c-0.27248,1.66531 0.23967,4.95076 0.34521,5.95352c0.67958,6.45732 0.24677,13.18729 1.52066,19.55673c0,5.80563 2.05724,11.6123 2.63023,17.32787c0.01672,0.16684 -3.00713,1.3158 -3.03473,1.32816c-3.80582,1.70498 -8.41127,2.11195 -12.50857,2.93061c-6.2637,1.2749 -11.72109,3.58353 -17.55155,6.08229c-1.81585,0.77822 -4.8488,3.57433 -6.78897,3.65911c-1.09418,0.04782 -0.65765,-2.09684 -0.87244,-3.1708c-2.28397,-9.14463 -3.77126,-18.34304 -2.6243,-27.75089c0.25163,-2.06398 -0.13338,-3.96739 0.37838,-6.01442c0.01234,-2.17905 0.32125,-4.03418 0.78681,-6.05225z" data-paper-data="{&quot;noHover&quot;:false,&quot;origItem&quot;:[&quot;Path&quot;,{&quot;applyMatrix&quot;:true,&quot;segments&quot;:[[[30.48448,305.67481],[0,0],[-0.93112,4.03614]],[[28.92232,317.75847],[0.02468,-4.3581],[-1.02352,4.09406]],[[28.17214,329.76147],[0.50326,-4.12796],[-2.29392,18.8157]],[[33.38128,385.17159],[-4.56794,-18.28926],[0.42958,2.14792]],[[35.1198,391.50881],[-2.18836,0.09564],[3.88034,-0.16956]],[[48.68548,384.18397],[-3.6317,1.55644],[11.66092,-4.99752]],[[83.7152,372.01581],[-12.5274,2.5498],[8.1946,-1.63732]],[[108.68774,366.18517],[-7.61164,3.40996],[0.0552,-0.02472]],[[114.75044,363.53795],[0.03344,0.33368],[-1.14598,-11.43112]],[[109.47462,328.95217],[0,11.61126],[-2.54778,-12.73888]],[[106.47022,289.90227],[1.35916,12.91464],[-0.21106,-2.00552]],[[105.78958,278.00205],[-0.54496,3.33062],[-1.48764,0.876]],[[100.97084,279.97935],[1.59362,-0.682],[-3.63634,1.55622]],[[89.57402,284.53891],[3.81684,-0.98142],[-7.37436,3.73194]],[[66.9702,292.07479],[7.75454,-2.58872],[-12.18084,4.06638]],[[30.79836,305.62479],[12.2935,-3.20986],[0,0]],[[30.48452,305.67481],[0.19362,-0.01996],[0,0]]],&quot;closed&quot;:true,&quot;fillColor&quot;:[0,0,0,1]}]}" fill="url(#color-1)" stroke-width="0.5"/><path d="M18.73528,160.63271c0.61692,1.1641 2.61846,0.23793 0.43267,-0.82244l-0.14488,0.52515c0,0 -0.10231,0.16078 -0.28778,0.29729zM18.99699,158.01631c0.95949,0.0245 2.03348,0.07595 2.70714,0.87946c1.7981,2.1447 -0.59549,5.21956 -3.0971,4.18886c-5.29279,-2.1807 0.30174,-8.46345 2.72258,-10.28206c0,0 0.8,-0.6 1.4,0.2c0.6,0.8 -0.2,1.4 -0.2,1.4c-1.15633,0.86572 -2.76434,2.12214 -3.53262,3.61374z" fill="#000000" stroke-width="0.5"/><path d="M27.80186,162.77545c0.44721,-0.89443 1.34164,-0.44721 1.34164,-0.44721l0.35774,0.17959c1.24693,0.68699 1.31541,0.27678 1.13983,-0.48978c-0.45068,0.09235 -1.0356,-0.06008 -1.80178,-0.58238c-0.94525,-0.64437 -0.97627,-2.92348 -1.13138,-3.93083c0,0 -0.15205,-0.98838 0.83632,-1.14043c0.98837,-0.15205 1.14043,0.83631 1.14043,0.83631c0.21079,1.37129 0.18389,4.36132 0.54337,1.44199l0.07937,-1.03173c0.03491,-0.52061 0.46826,-0.9321 0.99773,-0.9321c0.55229,0 1,0.44771 1,1v1.14136h-0.21926l0.13226,0.02295c-0.01696,0.12017 -0.03494,0.24305 -0.05445,0.36731c0.74957,3.27263 0.62926,7.35143 -3.62014,5.0531l-0.29446,-0.14652c0,0 -0.89443,-0.44721 -0.44721,-1.34164z" fill="#000000" stroke-width="0.5"/><path d="M38.41958,156.2929c0,1 -1,1 -1,1l-0.10125,-0.02561c-0.64014,0.14764 -3.42848,0.3874 -1.88289,1.26121c0,0 0.78087,0.6247 0.15617,1.40556c-0.6247,0.78087 -1.40556,0.15617 -1.40556,0.15617c-2.91354,-2.6681 0.0632,-4.1669 2.68257,-4.77173l0.55096,-0.02561c0,0 1,0 1,1z" fill="#000000" stroke-width="0.5"/><path d="M38.81908,159.32791c-0.26311,-0.96476 0.70165,-1.22788 0.70165,-1.22788l0.80092,-0.21316c2.05204,-0.523 -4.31406,-3.55947 0.80199,-4.38648c0.4179,-0.06755 0.83869,0.11575 1.25804,0.17362c0,0 0.98837,0.15205 0.83632,1.14042c-0.15205,0.98837 -1.14043,0.83632 -1.14043,0.83632c-2.56291,-0.45358 0.75961,0.09027 1.02353,1.39902c0.40613,2.01391 -0.85777,2.16187 -2.06149,2.70379l-0.99265,0.276c0,0 -0.96477,0.26312 -1.22789,-0.70165z" fill="#000000" stroke-width="0.5"/><path d="M19.89538,176.77467c-0.17431,0.14415 -0.76878,0.54921 -1.36324,-0.04525c-0.7071,-0.70711 0,-1.41421 0,-1.41421l0.34142,-0.26885c0.49726,-0.24227 1.02054,-0.4587 1.55898,-0.59816c-1.02803,-0.63152 -1.83964,-2.24908 -1.66319,-3.11151c0.32642,-1.59547 2.5907,-2.14706 3.82748,-2.26356c0,0 0.99779,-0.06652 1.06431,0.93127c0.06652,0.99778 -0.93126,1.0643 -0.93126,1.0643c-0.31393,0.00713 -0.6459,-0.08375 -0.94179,0.02138c-3.11829,1.10793 1.80619,1.79965 2.03366,2.56948c0.8418,2.84884 -2.41943,2.45612 -3.92636,3.11513z" fill="#000000" stroke-width="0.5"/><path d="M28.5872,170.72578c-0.24926,0.04172 -0.45956,-0.01085 -0.45956,-0.01085c-1.61163,-0.58619 -1.97299,1.94924 -0.87738,2.02996c0.9641,0.07102 1.55906,-1.19846 1.33694,-2.0191zM27.01913,168.84237c0.32135,-0.92971 1.25964,-0.61694 1.25964,-0.61694l1.22954,0.45138c0.69108,0.87441 1.28544,2.08059 1.05826,3.17173c-0.4595,2.20702 -3.28992,3.85673 -5.11668,2.01529c-1.99732,-2.01336 -0.52507,-4.43768 1.56923,-5.02146z" fill="#000000" stroke-width="0.5"/><path d="M35.01512,170.58107c-0.69121,0.61422 -1.14381,1.24837 -1.69671,2.01665c-0.15512,0.21554 0.49932,-0.19771 0.71301,-0.35537c0.62707,-0.46264 1.13335,-1.06502 0.98371,-1.66128zM34.42752,168.60133c0.37528,-0.37846 0.95186,-0.23431 0.95186,-0.23431l0.86444,0.42697c1.36706,1.92401 0.26426,6.01399 -2.84491,5.70067c-2.63233,-0.26528 -2.13746,-2.39011 -1.1328,-3.91783c0.62832,-0.95543 0.87397,-1.04726 1.74834,-1.76905c0,0 0.16872,-0.13805 0.41307,-0.20645z" fill="#000000" stroke-width="0.5"/><path d="M41.71878,171.86446c0,-0.1242 0.01543,-0.23297 0.04245,-0.32823c-0.34139,-2.56085 -1.85498,-2.35645 -1.39665,0.42075c0,0 0.15206,0.98838 -0.83631,1.14043c-0.98837,0.15205 -1.14043,-0.83632 -1.14043,-0.83632c-0.32116,-2.21032 0.95328,-6.52719 4.1134,-4.29634c1.25131,0.88335 1.19383,2.50435 1.29613,3.82301l-1.07858,1.07669c0,0 -1,0 -1,-1z" fill="#000000" stroke-width="0.5"/><path d="M46.30594,170.25562c-1,0 -1,-1 -1,-1l0.00295,-0.00483c-0.12253,-1.59292 -0.21666,-3.183 -0.40373,-4.7699c0,0 -0.11684,-0.99315 0.87631,-1.10999c0.99315,-0.11684 1.10999,0.87631 1.10999,0.87631c0.1895,1.61383 0.28693,3.23037 0.41154,4.85019l0.00294,0.15822c0,0 0,1 -1,1z" fill="#000000" stroke-width="0.5"/><path d="M45.55052,172.02753c0,-0.55229 0.44772,-1 1,-1c0.55228,0 1,0.44771 1,1c0,0.55229 -0.44772,1 -1,1c-0.55228,0 -1,-0.44771 -1,-1z" fill="#000000" stroke-width="0.5"/><path d="M49.78988,171.61987c0,-0.55229 0.44772,-1 1,-1c0.55228,0 1,0.44771 1,1c0,0.55229 -0.44772,1 -1,1c-0.55228,0 -1,-0.44771 -1,-1z" fill="#000000" stroke-width="0.5"/><path d="M48.58867,166.01622c-1,0 -1,-1 -1,-1l0.07693,-0.9553c1.08781,-2.05125 3.82206,-2.29233 5.0707,0.08508c0.968,1.84307 -0.53795,3.54345 -1.57317,4.83749c0,0 -0.62469,0.78087 -1.40556,0.15617c-0.78087,-0.6247 -0.15618,-1.40556 -0.15618,-1.40556c0.39207,-0.49008 1.86554,-1.83285 1.36177,-2.66291c-0.38567,-0.63548 -1.33842,-1.12342 -1.4514,-0.24103l0.07692,0.18607c0,0 0,1 -1,1z" fill="#000000" stroke-width="0.5"/><path d="M44.57431,175.11205c0.31623,0.94869 -0.63246,1.26491 -0.63246,1.26491l-0.6203,0.15268c-4.62163,0 -9.06668,1.02643 -13.54272,2.09879c-3.30297,0.79132 -6.74679,1.23424 -9.88254,2.58418c0,0 -0.91914,0.39392 -1.31306,-0.52522c-0.39392,-0.91914 0.52522,-1.31307 0.52522,-1.31307c3.2455,-1.38521 6.77316,-1.86577 10.18639,-2.68644c4.63488,-1.11441 9.24003,-2.15824 14.02671,-2.15824l-0.01215,-0.05005c0,0 0.94868,-0.31623 1.26491,0.63246z" fill="#000000" stroke-width="0.5"/><path d="M50.17047,178.12513c0.24254,0.97014 -0.72761,1.21268 -0.72761,1.21268l-0.96287,0.22847c-6.06088,0.54283 -13.05386,0.81746 -18.87116,2.49959c0,0 -0.96152,0.27472 -1.23625,-0.6868c-0.27472,-0.96152 0.6868,-1.23625 0.6868,-1.23625c5.98084,-1.6907 13.02451,-1.99572 19.23953,-2.56832l0.65887,-0.17697c0,0 0.97014,-0.24254 1.21268,0.72761z" fill="#000000" stroke-width="0.5"/><path d="M38.02919,123.392c0.69909,2.33646 -0.38497,5.61814 -4.02595,4.27273c-3.39418,-1.25421 -3.73146,-6.91067 0.3979,-7.33638c1.24497,-0.12835 2.28379,0.62588 3.27712,1.18355c0,0 1.0853,0.62017 0.46513,1.70548c-0.03656,0.06398 -0.07473,0.12203 -0.11421,0.17463z" fill="#3e68d6" stroke-width="0.5"/></g></g></svg>