<svg version="1.1" xmlns="http://www.w3.org/2000/svg" xmlns:xlink="http://www.w3.org/1999/xlink" width="66.6688" height="57.54773" viewBox="0,0,66.6688,57.54773"><defs><linearGradient x1="309.79724" y1="296.11547" x2="309.79724" y2="313.56472" gradientUnits="userSpaceOnUse" id="color-1"><stop offset="0" stop-color="#81471e"/><stop offset="1" stop-color="#914f21"/></linearGradient></defs><g transform="translate(-282.78907,-292.60297)"><g data-paper-data="{&quot;isPaintingLayer&quot;:true}" fill-rule="nonzero" stroke="none" stroke-width="0.5" stroke-linecap="butt" stroke-linejoin="miter" stroke-miterlimit="10" stroke-dasharray="" stroke-dashoffset="0" style="mix-blend-mode: normal"><path d="M333.06064,322.60554c0,0 0,-1.25 1.25,-1.25c1.25,0 1.25,1.25 1.25,1.25c-0.01025,1.94847 -0.3747,4.04706 -0.97254,6.10751c3.36149,-0.22719 6.72424,-0.07622 10.06494,0.75736c0,0 0.95808,0.23952 0.95817,1.14436c3.68857,2.28778 5.15771,6.7221 2.46666,11.20878c-1.96042,3.26853 -5.51992,5.29706 -9.13199,6.20995c-4.00162,1.45301 -8.531,1.51943 -12.74989,1.78313c-7.05184,0.44077 -14.10152,0.74138 -20.98988,-1.09259c-1.61643,-0.5763 -3.18408,-1.13489 -4.70767,-1.93192c-4.34554,-2.27326 -6.70258,-7.60204 -1.40465,-10.51344c1.80977,-0.99453 3.79836,-1.70952 5.86529,-2.26378c-3.96564,-1.35494 -7.86129,-2.88029 -11.44848,-5.02939c0,0 -1.07187,-0.64312 -0.42875,-1.71499c0.64312,-1.07187 1.71499,-0.42874 1.71499,-0.42874c4.61681,2.77454 9.79144,4.48047 14.94701,6.13924c2.46864,-0.43968 4.94035,-0.78406 7.25821,-1.21866c4.90163,-0.91906 9.89723,-2.18754 14.90941,-2.7941c0.711,-2.14437 1.16205,-4.37047 1.14919,-6.36272z" fill-opacity="0.50196" fill="#000000"/><g><path d="M335.64711,322.92441c-0.88389,0.88389 -1.76777,0 -1.76777,0l-0.53127,-0.5656c-2.32313,-3.48469 -4.42316,-7.04083 -6.75169,-10.50263c0,0 -0.00712,-0.01068 -0.01884,-0.03061c-1.28361,0.45639 -2.55357,0.85545 -3.71405,1.24228c-6.87433,3.41568 -14.9828,3.41582 -22.72818,2.26049c-0.36378,0.46031 -1.00599,0.46031 -1.00599,0.46031l-0.67826,-0.03732c-0.17259,-0.04438 -0.34629,-0.0851 -0.52096,-0.12278c-0.74338,3.55196 -1.56154,6.85496 -2.46432,10.46609l-0.40192,1.2174c0,0 -0.39529,1.18586 -1.58114,0.79057c-1.18586,-0.39529 -0.79057,-1.58114 -0.79057,-1.58114l0.34827,-1.03316c0.88648,-3.54591 1.70788,-6.76977 2.42283,-10.25133c-1.60149,-0.20773 -3.21464,-0.40917 -4.71659,-1.05554c-3.80214,-1.63628 -5.76322,-4.80944 -7.46256,-8.35783c-0.00534,-0.28577 -0.07232,-3.08965 -0.02407,-3.44067c0.7161,-5.20999 5.9296,-4.85195 9.92205,-5.93161c1.27799,-0.3456 2.41706,-1.10091 3.68522,-1.48098c6.27583,-1.88082 13.36932,-1.47765 19.72183,-0.41936c5.38786,0.89837 11.12847,2.11342 15.83051,5.0459c1.57468,0.98206 3.91246,2.35017 3.96626,4.51682c0.00658,0.26513 -1.4802,2.60746 -1.78128,2.96538c-1.41575,1.68303 -3.46231,2.87895 -5.64555,3.82028c2.18356,3.33366 4.2506,6.74491 6.46912,10.0727l0.21892,0.18459c0,0 0.88389,0.88388 0,1.76776zM289.72436,310.66662c0.1936,-0.00061 0.33077,0.03368 0.33077,0.03368c9.82551,2.47474 22.2423,4.89437 31.85163,0.05783c3.13732,-1.04577 7.21568,-2.15625 9.8134,-4.31295c0.36762,-0.30521 2.12448,-1.9923 2.17056,-2.48683c0.08904,-0.95565 -3.55002,-2.61275 -4.18765,-2.93033c-4.27733,-2.13034 -8.81104,-3.22577 -13.52495,-4.01107c-5.94646,-0.99151 -12.65684,-1.43551 -18.53773,0.33083c-1.31149,0.39391 -2.49624,1.1569 -3.81666,1.51977c-2.02006,0.55514 -6.86977,0.36834 -7.80485,2.67341c-0.47012,1.15889 -0.26813,2.49123 -0.30167,3.70824c0.63256,1.19253 1.13142,2.57372 2.00068,3.62074c0.61831,0.74474 1.29138,1.32918 2.00647,1.79669z" fill="#6a3b18"/><path d="M289.67634,310.68058c-0.71509,-0.46751 -1.38933,-1.05691 -2.00764,-1.80165c-0.86926,-1.04702 -1.36892,-2.43634 -2.00149,-3.62887c0.03354,-1.21701 -0.16798,-2.55707 0.30214,-3.71596c0.93508,-2.30507 5.78749,-2.12892 7.80755,-2.68406c1.32042,-0.36287 2.50944,-1.13458 3.82093,-1.52849c5.88089,-1.76634 12.66541,-1.33485 18.61187,-0.34334c4.71391,0.7853 9.26514,1.91007 13.54247,4.04041c0.63763,0.31758 4.27755,1.98226 4.18851,2.93791c-0.04608,0.49453 -1.80303,2.18709 -2.17065,2.4923c-2.59772,2.1567 -6.68102,3.28548 -9.81834,4.33125c-9.60933,4.83654 -22.11898,2.40919 -31.94449,-0.06555c0,0 -0.13726,-0.03458 -0.33086,-0.03397z" data-paper-data="{&quot;noHover&quot;:false,&quot;origItem&quot;:[&quot;Path&quot;,{&quot;applyMatrix&quot;:true,&quot;segments&quot;:[[[579.44872,621.33323],[0,0],[0.3872,-0.00122]],[[580.11026,621.40059],[0,0],[19.65102,4.94948]],[[643.81352,621.51625],[-19.21866,9.67308],[6.27464,-2.09154]],[[663.44032,612.89035],[-5.19544,4.3134],[0.73524,-0.61042]],[[667.78144,607.91669],[-0.09216,0.98906],[0.17808,-1.9113]],[[659.40614,602.05603],[1.27526,0.63516],[-8.55466,-4.26068]],[[632.35624,594.03389],[9.42782,1.5706],[-11.89292,-1.98302]],[[595.28078,594.69555],[11.76178,-3.53268],[-2.62298,0.78782]],[[587.64746,597.73509],[2.64084,-0.72574],[-4.04012,1.11028]],[[572.03776,603.08191],[1.87016,-4.61014],[-0.94024,2.31778]],[[571.43442,610.49839],[0.06708,-2.43402],[1.26512,2.38506]],[[575.43578,617.73987],[-1.73852,-2.09404],[1.23662,1.48948]],[[579.44872,621.33325],[-1.43018,-0.93502],[0,0]]],&quot;closed&quot;:true,&quot;fillColor&quot;:[0,0,0,1]}]}" fill="url(#color-1)"/></g><path d="M335.75337,300.79227c0,1.25 -1.25,1.25 -1.25,1.25l-0.47364,-0.03732c-1.35847,-0.33962 -2.71695,-0.67924 -4.0754,-1.01896c-4.13295,-0.93221 -7.5752,-3.49332 -11.53362,-4.80525c-4.96432,-1.64531 -11.05092,-1.09334 -16.15235,-0.45566c-2.31396,0.28924 -4.46321,0.93015 -6.74447,1.35219c-3.47269,0.64245 -6.69583,-0.39496 -9.3295,2.64276c-1.18774,1.36996 -0.90444,4.17144 -0.9013,5.84551c0,0 0,1.25 -1.25,1.25c-1.25,0 -1.25,-1.25 -1.25,-1.25c0.00309,-1.84621 -0.10301,-4.19024 0.60155,-5.92121c2.11259,-5.19025 7.33606,-4.19913 11.67021,-5.02455c2.32795,-0.44335 4.52909,-1.07984 6.89344,-1.37539c5.47503,-0.68438 11.93959,-1.21499 17.26054,0.56718c3.87421,1.2976 7.26156,3.85697 11.30989,4.74129c1.36913,0.34217 2.73825,0.68446 4.10735,1.02673l-0.1327,-0.03733c0,0 1.25,0 1.25,1.25z" fill-opacity="0.50196" fill="#fa9600"/></g></g></svg>