<svg version="1.1" xmlns="http://www.w3.org/2000/svg" xmlns:xlink="http://www.w3.org/1999/xlink" width="156.18657" height="39.61689" viewBox="0,0,156.18657,39.61689"><g transform="translate(-2.70586,-0.53911)"><g data-paper-data="{&quot;isPaintingLayer&quot;:true}" fill="#ffffff" fill-rule="nonzero" stroke="none" stroke-width="0.5" stroke-linecap="butt" stroke-linejoin="miter" stroke-miterlimit="10" stroke-dasharray="" stroke-dashoffset="0" style="mix-blend-mode: normal"><g><path d="M5.26854,20.9175c0.00423,0.06213 0.00857,0.12426 0.013,0.18637c0,0 0.07125,0.99746 -0.92621,1.06871c-0.99746,0.07125 -1.06871,-0.92621 -1.06871,-0.92621c-0.00751,-0.10521 -0.01544,-0.2118 -0.0237,-0.31968c-0.25484,-0.10779 -0.51513,-0.33845 -0.55285,-0.82877c-0.03713,-0.48265 0.17735,-0.74962 0.40854,-0.89664c-0.28525,-3.30187 -0.61025,-7.27385 0.26863,-10.10091c1.13946,-3.66524 6.34006,-1.82114 8.27089,0.09527c0.64973,1.5561 1.28425,1.82663 -0.25328,3.23633c-0.11219,0.10286 -1.18053,0.50182 -2.17168,0.74375c0.44849,0.22414 0.82719,0.46185 0.90189,0.5068c1.45775,0.87686 3.25204,2.80114 2.5821,4.67998c-0.92951,2.60678 -5.01391,2.46036 -7.44862,2.55501zM5.1668,18.93291c1.72964,-0.01526 4.98915,0.13788 5.68491,-1.29163c0.23687,-0.48667 -0.81615,-1.49716 -1.05418,-1.72705c-0.96661,-0.93358 -4.3874,-1.37935 -4.26739,-3.17655c0.10432,-1.56231 5.43436,-1.3129 4.5055,-2.37264c-0.79692,-0.80921 -3.52113,-1.99033 -4.65625,-1.20601c-0.31079,0.21475 -0.15861,2.11126 -0.16808,2.3878c-0.08413,2.45728 -0.13183,4.92541 -0.04452,7.38609z"/><path d="M18.62409,14.64095c-1.8288,-0.07898 -2.75973,2.02878 -0.70942,2.86098c1.77828,0.72179 2.41355,-1.94403 0.91814,-2.75916zM20.98951,14.17107c1.58221,2.54058 -0.22786,6.57749 -3.79629,5.1962c-2.64727,-1.02472 -3.29463,-4.872 -0.82309,-6.4654c1.38861,-0.89523 2.67187,-0.42773 4.02978,0.14222c0,0 0.79447,0.34049 0.5896,1.12698z"/><path d="M29.13133,17.15126c1.66417,-2.30032 -2.30163,-2.54671 -3.96624,-2.4358c0.03146,1.0433 0.03827,2.08668 0.00629,3.12914c1.1593,-0.05229 3.41494,0.06 3.95995,-0.69334zM27.9975,12.4969c2.09581,0.58685 4.21522,3.6497 2.78795,5.77864c-1.13567,1.69398 -3.9991,1.33278 -5.73396,1.58173l-0.36846,0.00645c-0.15104,0.10018 -0.35456,0.16303 -0.62864,0.14589c-0.99806,-0.06238 -0.93567,-1.06043 -0.93567,-1.06043c0.20727,-3.29344 -0.05314,-6.60448 -0.28788,-9.89089l-0.00254,-0.35972c0,0 0,-1 1,-1c1,0 1,1 1,1l-0.00255,0.21723c0.08751,1.22518 0.17724,2.4532 0.24601,3.68235c0.96017,-0.2361 1.88863,-0.39164 2.92575,-0.10124z"/><path d="M43.38981,10.39669c-0.23891,0.0438 -0.43945,0.00082 -0.43945,0.00082c-0.501,-0.12967 -1.07824,-0.13049 -1.5504,0.08136c-5.38674,2.41688 3.00906,8.59797 3.58006,3.65062c0.06648,-0.57602 -0.04334,-1.09099 -0.12248,-1.65706c-0.35041,-0.98642 -0.7906,-1.64321 -1.46773,-2.07575zM40.51356,8.68259c0.11839,-0.65366 0.84617,-0.75763 0.84617,-0.75763l0.84237,-0.06275c2.47834,0.51832 3.74835,1.76249 4.59694,4.13008c0.18552,1.27921 0.39417,2.62168 -0.21469,3.84859c-3.4649,6.982 -13.96622,-3.76222 -6.07079,-7.15828z"/><path d="M54.37308,12.30529c0.25563,1.28933 0.65987,2.48966 1.6098,3.36723c0.29605,0.0778 0.72568,0.30363 0.72568,0.9591c0,1 -1,1 -1,1l-0.77747,-0.22604c-0.31423,-0.26045 -0.70672,-0.7834 -1.09834,-1.44364c-0.49757,1.36335 -1.41859,2.30632 -3.07517,2.0953c-2.69266,-0.34301 -3.16506,-5.50088 -0.83183,-6.53597c0.7213,-0.31999 1.53935,-0.05288 2.25645,0.23677c-0.12661,-0.74001 -0.1111,-1.39158 0.12371,-1.83266c-0.02007,-0.21725 -0.03699,-0.39067 -0.04602,-0.50563h-0.00337v-1.08178c0,-0.55229 0.44772,-1 1,-1c0.55228,0 1,0.44772 1,1v0.98283c0.04953,0.68665 0.1343,1.78943 0.11655,2.98451zM52.36707,13.94661c-0.16256,-0.01948 -0.27524,-0.06456 -0.27524,-0.06456c-0.46372,-0.19207 -0.92661,-0.60681 -1.41828,-0.50584c-0.4499,0.09239 -0.19801,2.67502 0.32208,2.69525c0.84987,0.03304 1.22709,-0.92109 1.37144,-2.12485z"/><path d="M55.85402,21.32883c0.35113,-0.93633 1.28745,-0.5852 1.28745,-0.5852l0.56217,0.21094c0.63759,0.22927 1.11518,0.44726 1.78834,0.52426c0.72796,0.08327 1.04201,-0.03808 1.76843,-0.25113c2.9582,-0.8676 1.54879,-3.17666 1.08718,-5.13154c-2.00793,2.39132 -4.51163,0.12601 -5.7694,-3.1442c0,0 -0.35898,-0.93334 0.57437,-1.29232c0.93335,-0.35898 1.29232,0.57437 1.29232,0.57437c0.74004,1.9241 1.74408,4.70109 3.05373,1.46921l0.0632,-0.88477c0.03251,-0.52293 0.46692,-0.93698 0.99804,-0.93698c0.39921,0 0.74377,0.23391 0.90412,0.57216l0.56726,1.13453l-0.3055,0.15275c1.18766,2.00996 2.01481,4.69562 1.29336,6.75238c-1.15641,3.29678 -5.34633,3.28259 -7.98813,2.34478l-0.59174,-0.22177c0,0 -0.93633,-0.35112 -0.58521,-1.28745z"/><path d="M65.48852,15.85718c0.34175,-0.9398 1.28154,-0.59805 1.28154,-0.59805l0.59298,0.23832c0.49452,0.07198 2.53077,0.50628 2.91531,-0.00205c0.17534,-0.23179 -0.40328,-0.41866 -0.60724,-0.62572c-0.59319,-0.60224 -1.63934,-1.66343 -1.32471,-2.677c0.62377,-2.00953 2.7615,-1.44646 4.06616,-0.96575c0,0 0.93335,0.35898 0.57437,1.29233c-0.35898,0.93334 -1.29233,0.57437 -1.29233,0.57437c-3.11038,-1.26988 1.27488,1.29523 0.40335,3.23188c-0.82094,1.82423 -3.51285,1.3633 -5.01776,1.15185l-0.99363,-0.33863c0,0 -0.9398,-0.34174 -0.59805,-1.28154z"/><path d="M74.15911,14.91486c0.54493,-0.54494 1.08987,-0.24995 1.31117,-0.08599c0.23969,0.0959 0.47804,0.19551 0.72277,0.27744c4.6505,1.55685 -3.38577,-0.85484 -1.38397,-3.79026c0.63622,-0.93294 4.01614,-0.42237 4.95841,-0.28997c0,0 0.98994,0.14142 0.84852,1.13138c-0.14142,0.98995 -1.13137,0.84852 -1.13137,0.84852c-0.31305,-0.04557 -0.62359,-0.11416 -0.93913,-0.1367c-0.31213,-0.0223 -0.62585,0.00221 -0.93877,0.00252c-3.44516,0.00338 3.48868,0.27178 2.3227,3.41547c-0.86005,2.31885 -3.93885,0.88143 -5.35008,0.34018l-0.42025,-0.29836c0,0 -0.7071,-0.70711 0,-1.41421z"/><path d="M85.59481,15.0623c0.54189,0.13464 1.00239,0.20509 1.09331,0.21096c0,0 0.99778,0.06652 0.93126,1.0643c-0.06652,0.99779 -1.0643,0.93126 -1.0643,0.93126c-2.35355,-0.16131 -7.14276,-2.55459 -3.92832,-5.55572c0.75724,-0.70699 3.97573,-0.95159 4.64461,0.05562c1.22966,1.85164 -0.12458,2.8773 -1.67656,3.29358zM83.82596,13.31584c0.57748,0.15077 0.69345,0.25721 1.30724,-0.01421c0.19358,-0.0856 0.72887,-0.43051 0.55015,-0.3171c-0.5063,0.32124 -1.29756,-0.1102 -1.70184,0.19986c-0.05806,0.04453 -0.1098,0.08834 -0.15554,0.13146z"/><path d="M90.80167,23.27526c0.49614,-0.86825 1.36438,-0.3721 1.36438,-0.3721l0.26635,0.19048c1.62478,0.58416 1.52784,-1.28488 1.48334,-2.53638c-0.03498,-0.98386 -0.3723,-2.68215 -0.45154,-4.21185c-1.05634,1.14154 -2.47825,1.71376 -3.90255,0.23985c-1.10536,-1.14386 -0.79258,-3.58338 -0.69218,-5.00107c0,0 0.07124,-0.99745 1.0687,-0.92621c0.99746,0.07125 0.92621,1.0687 0.92621,1.0687c-0.06523,0.90494 -0.38338,2.69844 0.17325,3.50896c0.71082,1.03505 1.90552,-1.63457 2.02825,-2.03618l0.1351,-1.01329c0.05854,-0.49651 0.48083,-0.88167 0.99307,-0.88167c0.48826,0 0.8948,0.34994 0.98248,0.81269l0.28454,1.35156l-0.01578,0.00332c0.00944,0.02195 0.01873,0.04397 0.02785,0.06608c0.0062,0.01504 0.14364,2.1432 0.14994,2.21456c0.28365,3.21128 1.56299,10.43301 -3.70603,9.2734l-0.74331,-0.38646c0,0 -0.86824,-0.49614 -0.3721,-1.36439z"/><g><path d="M60.1853,2.83661c0.11769,0.64728 -0.52959,0.76496 -0.52959,0.76496l-0.40343,0.06166c-2.42003,0.85563 0.26649,4.75143 1.21816,5.89196c0,0 0.42117,0.50541 -0.08423,0.92658c-0.50541,0.42117 -0.92657,-0.08424 -0.92657,-0.08424c-1.65144,-1.98413 -4.23213,-6.52226 -0.67969,-7.96238l0.64039,-0.12813c0,0 0.64728,-0.11769 0.76497,0.52959z"/><path d="M64.08334,7.30027c0.3811,-0.19055 0.63878,-0.01087 0.77306,0.13941c0.27366,0.08554 0.56443,0.12542 0.84965,0.12326c0.25602,-0.00194 0.51232,0.01277 0.76809,0.00113c2.26207,-0.10297 -1.20621,-2.03973 -1.23126,-3.24835c-0.03933,-1.89706 1.29443,-1.66749 2.4357,-1.08665c0,0 0.57926,0.31191 0.26735,0.89116c-0.3119,0.57925 -0.89117,0.26736 -0.89117,0.26736c-0.19763,-0.11604 -0.4034,-0.55606 -0.56427,-0.39283c-0.12842,0.13031 0.76242,1.09763 0.76668,1.10275c0.68206,0.82188 2.02277,1.84099 1.21833,3.07287c-0.74815,1.14569 -3.25039,0.80909 -4.28668,0.42727l-0.39971,-0.41471c0,0 -0.29421,-0.58844 0.29422,-0.88266z"/><path d="M70.53877,6.49856c0.00246,0.0102 0.00566,0.0203 0.00962,0.03026c0.24935,0.62816 1.27389,0.70506 1.80074,0.65622c0,0 0.65622,-0.04688 0.7031,0.60934c0.04688,0.65622 -0.60935,0.70309 -0.60935,0.70309c-1.69622,0.09636 -4.62298,-1.56377 -2.64508,-3.49581c1.70776,-1.66816 4.51345,0.52365 1.64822,1.74557l-0.03684,0.02184c0,0 -0.57242,0.28621 -0.8704,-0.27052z"/><path d="M77.15394,5.03742c-0.13785,0.64328 -0.78114,0.50544 -0.78114,0.50544l-0.57235,-0.12934c-1.20043,0.05012 -0.72517,1.55035 -0.54254,2.44105c0,0 0.12902,0.64512 -0.5161,0.77414c-0.64512,0.12903 -0.77414,-0.51609 -0.77414,-0.51609c-0.37762,-1.92867 -0.47734,-3.80752 1.92467,-4.01167l0.75615,0.15534c0,0 0.64329,0.13785 0.50544,0.78114z"/><path d="M78.97786,4.95338c0.65789,0 0.65789,0.65789 0.65789,0.65789l-0.00167,0.14177c-0.05146,0.71382 -0.04577,1.42011 -0.04577,2.13566c0,0 -0.00001,0.65789 -0.6579,0.65789c-0.65789,0 -0.65789,-0.65789 -0.65789,-0.65789c0,-0.74687 -0.00365,-1.48423 0.04912,-2.2294l-0.00168,-0.04802c0,0 0.00001,-0.65789 0.6579,-0.65789z"/><path d="M78.08274,3.33385c0,-0.36334 0.29455,-0.65789 0.65789,-0.65789c0.36334,0 0.65789,0.29455 0.65789,0.65789c0,0.36334 -0.29455,0.65789 -0.65789,0.65789c-0.36334,0 -0.65789,-0.29455 -0.65789,-0.65789z"/><path d="M82.53545,6.88005c0.49918,0.34908 1.27813,0.448 1.75747,0.25229c0,0 0.61405,-0.23617 0.85021,0.37787c0.23617,0.61404 -0.37788,0.8502 -0.37788,0.8502c-1.18491,0.43658 -2.38017,0.38876 -3.26031,-0.67227c-1.07006,-1.29 -0.80109,-3.60541 1.13634,-3.86002c2.30799,-0.30331 2.35864,3.17226 -0.10287,3.05068zM82.14403,5.65001l0.20045,-0.07262c0.44912,0.04392 1.13831,0.10347 0.70867,-0.5711c-0.18353,-0.28815 -0.72211,0.23689 -0.86728,0.54615c-0.01547,0.03296 -0.0294,0.06549 -0.04184,0.09758z"/><path d="M85.64239,7.46131c0.14271,-0.64223 0.78494,-0.49951 0.78494,-0.49951l0.37125,0.085c0.20722,0.02971 0.41235,0.08664 0.62167,0.08913c1.73992,0.02072 -0.84078,-0.26082 -1.18529,-1.30182c-0.68459,-2.06866 1.60335,-2.24746 2.81108,-1.6653c0,0 0.58843,0.29421 0.29421,0.88265c-0.29421,0.58844 -0.88265,0.29422 -0.88265,0.29422c-2.29481,-1.20693 0.65874,1.01473 0.68467,1.06581c1.02327,2.01603 -1.25857,2.09763 -2.51759,1.93956l-0.48278,-0.10479c0,0 -0.64223,-0.14272 -0.49952,-0.78495z"/><path d="M91.79766,2.53653c0.4652,-0.4652 0.93039,0 0.93039,0l0.41682,0.47418c1.32702,2.88906 2.79551,4.53893 -0.33855,6.96519c0,0 -0.52146,0.40112 -0.92258,-0.12034c-0.40112,-0.52146 0.12033,-0.92258 0.12033,-0.92258c2.56883,-1.96138 1.03437,-3.02307 -0.05387,-5.37088l-0.15254,-0.09517c0,0 -0.4652,-0.4652 0,-0.93039z"/></g><g><path d="M111.80849,8.56298c1,0 1,1 1,1l-0.00254,0.72032c-0.16546,2.31641 0.02583,4.52043 -0.44156,6.69097l0.22521,0.01609l-0.07153,1.00143c-0.03252,0.52293 -0.46693,0.93699 -0.99805,0.93699c-0.37529,0 -0.70228,-0.20672 -0.87333,-0.51252l-0.49528,-0.84904l0.02015,-0.01176l-0.04953,-0.04237c-0.40531,-0.94163 -1.41094,-2.48936 -2.08205,-3.93919c-0.07364,1.35659 -0.1857,2.71243 -0.28235,4.06552c0,0 -0.07125,0.99746 -1.06871,0.92622c-0.99746,-0.07125 -0.92621,-1.06871 -0.92621,-1.06871c0.15854,-2.21955 0.35842,-4.44598 0.35869,-6.67145l0.01417,-0.03472l-0.01227,-0.00088l0.07153,-1.00143c0.03252,-0.52293 0.46693,-0.93698 0.99805,-0.93698c0.33133,0 0.62501,0.16113 0.80698,0.40931l0.85845,1.14459l-0.22129,0.16597c0.76675,0.9174 1.36333,1.9116 1.89745,2.97816c0.05753,-1.36758 0.23092,-2.76961 0.27656,-3.40869l-0.00254,-0.57782c0,0 0,-1 1,-1z"/><path d="M116.71282,15.2546c0.34829,0.8693 1.10813,1.17163 2.43159,1.32132c0,0 0.99228,0.12403 0.86824,1.11632c-0.12404,0.99228 -1.11632,0.86824 -1.11632,0.86824c-2.86952,-0.38493 -7.01295,-4.73093 -3.52494,-7.40216c1.45113,-1.11133 4.53593,-0.32072 4.19628,1.99323c-0.14924,1.01672 -1.53883,1.50637 -2.29181,1.86291l-0.52997,0.22754c0,0 -0.01172,0.00502 -0.03308,0.01261zM116.44983,13.19316c0.37729,-0.16752 0.76524,-0.3119 1.15782,-0.43952c0.31593,-0.1027 -0.73727,-0.23413 -0.99628,-0.02611c-0.10201,0.08193 -0.14637,0.26381 -0.16154,0.46562z"/><path d="M128.58682,9.31943c0.96476,0.26311 0.70165,1.22788 0.70165,1.22788l-0.18366,0.60144c-0.07287,1.01168 -0.06457,5.39588 -0.74991,5.99639c-1.7104,1.49868 -2.56643,0.19929 -3.39465,-0.90835c-0.04448,-0.05949 -0.09334,-0.13305 -0.14176,-0.21471c-0.18512,0.83402 -0.7459,1.81981 -1.88347,1.66127c-1.29623,-0.18065 -1.74764,-4.21623 -1.8769,-5.17555c0,0 -0.13217,-0.99122 0.85907,-1.12339c0.99123,-0.13217 1.12339,0.85906 1.12339,0.85906c0.02836,0.21525 0.21342,0.84707 0.36578,1.51426c0.25011,-0.40665 0.56979,-0.72733 0.88744,-0.7737c1.18468,-0.17294 1.88052,1.26277 2.30251,2.08315c-0.14933,-1.22503 0.44188,-3.04831 0.51356,-4.06094l0.24905,-0.98517c0,0 0.26311,-0.96476 1.22788,-0.70165z"/><path d="M133.3257,9.02352c0.17889,-0.98387 1.16275,-0.80498 1.16275,-0.80498l0.41831,0.14752c0.96269,-0.18716 1.81993,-0.42998 2.66179,-0.6393c0.00919,-0.2968 0.1257,-0.83548 0.83164,-0.95313c0.66082,-0.11014 0.95272,0.29622 1.07342,0.57647c0.73981,-0.09276 1.51739,-0.11286 2.38824,-0.0054c0,0 0.99228,0.12403 0.86825,1.11631c-0.12403,0.99228 -1.11631,0.86825 -1.11631,0.86825c-0.7168,-0.09088 -1.35962,-0.08235 -1.96889,-0.01306c0.03113,2.10669 0.14683,4.21045 0.27833,6.31453c0,0 0.06238,0.99805 -0.93567,1.06043c-0.99805,0.06238 -1.06043,-0.93567 -1.06043,-0.93567c-0.12555,-2.00888 -0.23471,-4.0172 -0.27445,-6.02811c-0.73827,0.19846 -1.49575,0.42428 -2.35368,0.59985l-1.16831,-0.14095c0,0 -0.98387,-0.17889 -0.80498,-1.16276z"/><path d="M145.01369,11.07799c0.30999,0.14845 0.47711,0.44092 0.47711,0.44092c0.22758,0.42647 0.60222,0.80278 0.68275,1.27942c0.78739,4.66033 -7.04265,3.37366 -5.47649,-0.50512c0.28547,-0.70699 1.39028,-1.34865 2.00054,-1.75928l1.34801,-0.16795c0,0 0.79737,-0.00001 0.96807,0.71201zM143.6625,12.28383c-0.39514,0.23684 -1.45011,0.89594 -1.29108,1.1472c0.52451,0.82864 2.49192,0.82178 1.3829,-0.91984c0,0 -0.05112,-0.08946 -0.09183,-0.22735z"/><path d="M152.77112,8.7819c0.99746,0.07124 0.92622,1.0687 0.92622,1.0687l-0.07212,1.00967c-0.08353,1.1693 0.23779,4.79545 -1.36682,5.16198c-0.64371,0.14704 -1.67379,-0.85606 -2.17137,-1.64399c-0.35299,0.53104 -1.01755,1.09903 -1.47737,1.08114c-0.84181,-0.03275 -1.8974,-2.7088 -2.27129,-3.40297c0,0 -0.4741,-0.88047 0.40637,-1.35457c0.88047,-0.4741 1.35457,0.40637 1.35457,0.40637c0.04641,0.08623 0.45412,0.68418 0.73569,1.25749c0.21552,-0.41137 0.54188,-0.78791 0.84368,-0.82386c0.51207,-0.06099 1.24467,0.40782 1.77543,0.96076c0.04315,-0.77816 0.16239,-1.59163 0.17619,-1.78485l0.07211,-1.00966c0,0 0.07125,-0.99745 1.0687,-0.92621z"/><path d="M157.89243,15.17861c-1,0 -1,-1 -1,-1l0.00557,-0.90432c-0.61558,-3.00529 -0.52972,-0.90615 -0.52972,0.8322c0,0 0,1 -1,1c-1,0 -1,-1 -1,-1c0,-0.76046 -0.28538,-3.25809 0.20165,-3.77542c2.28164,-2.42358 3.95309,1.07803 4.31694,2.73253l0.00556,1.11502c0,0 0,1 -1,1z"/><path d="M98.18769,15.98158c0,-0.55228 0.44772,-1 1,-1c0.55228,0 1,0.44772 1,1c0,0.55228 -0.44772,1 -1,1c-0.55228,0 -1,-0.44771 -1,-1z"/><path d="M97.68286,11.36598c0,-0.55228 0.44772,-1 1,-1c0.55228,0 1,0.44772 1,1c0,0.55228 -0.44772,1 -1,1c-0.55228,0 -1,-0.44772 -1,-1z"/></g></g><g><path d="M3.76513,29.62004c-0.00828,-0.59544 -0.49714,-3.02877 1,-3.02877c1.47579,0 0.99026,2.27994 1,2.90567c0.04348,2.79416 1.09773,7.20213 -0.02478,9.81295c-0.09992,0.4403 -0.49037,0.77025 -0.95915,0.77763c-0.49395,0.17045 -0.98621,0.05955 -0.98621,-0.75636c-0.0195,-0.07795 -0.02986,-0.15952 -0.02986,-0.24351c0,-0.08683 0.01107,-0.17107 0.03187,-0.2514c0.36536,-3.04325 0.01053,-6.16553 -0.03187,-9.2162z"/><path d="M11.76146,28.46624c0.5185,1.11048 2.4078,2.56183 1.57996,3.76671c-0.67504,0.98249 -4.49385,0.90521 -4.92692,-0.394c-0.29814,-0.89443 -0.1118,-1.26711 0.78262,-1.56525c0.53137,-0.17712 1.77433,1.05644 1.59606,0.52545c-0.39483,-1.17601 -1.92929,-2.6723 -0.78026,-4.01283c0.56293,-0.65676 3.97941,-0.40334 3.65118,0.80016c0.02068,0.08011 0.03168,0.16411 0.03168,0.25068c0,0.55228 -0.44772,1 -1,1c-0.13958,0 -0.27249,-0.0286 -0.39317,-0.08026c-0.09865,-0.04222 -0.18913,-0.09985 -0.26842,-0.16986c-0.18576,-0.13232 -0.33405,-0.25213 -0.27274,-0.12081z"/><path d="M19.00501,27.93803c0.04696,0.01044 0.09169,0.02156 0.13426,0.03333c0.03937,0.00945 0.07782,0.02122 0.11522,0.03517c0.4133,0.1391 0.58377,0.34849 0.58448,0.57902c0.04269,0.11121 0.06608,0.23199 0.06608,0.35823c0,0.55228 -0.44772,1 -1,1c-0.17522,0 -0.33991,-0.04506 -0.48312,-0.12423c-0.43209,0.1378 -0.89648,0.17999 -1.28964,0.05696c0.00142,0.06503 0.00344,0.13038 0.00626,0.19603c0.0631,1.47209 1.27619,0.04061 1.98179,0.74621c0.69648,0.69648 -0.11247,1.91977 -0.87229,2.10972c-2.43909,0.60977 -2.99801,-2.1419 -3.2026,-3.80378c-0.01062,-0.08626 -0.3045,-1.86653 0.10833,-2.10243l0.86182,-0.49247c0.56182,0.32104 0.84237,0.72672 0.98155,1.19216c0.008,0.02674 0.01553,0.05368 0.02262,0.0808c0.61052,-0.16684 1.38824,-0.13332 1.8656,0.10537z"/><path d="M29.89988,37.37619l-0.00028,0.00199l-0.00617,0.00446l-0.07593,0.07593l-0.17256,0.10354l-0.16315,0.11783l-0.0997,0.03988l-0.00652,0.00391l-0.00194,-0.00052l-0.10255,0.04102l-0.0978,0.0652l-0.03789,0.01353l-0.01681,0.02942l-0.21853,0.05464l-0.21213,0.07576l-0.0303,-0.01515l-0.03904,0.00975h-1.6599l-0.15595,-0.03898l-0.16027,-0.01233l-0.18444,-0.06148l-0.06073,-0.03864l-0.07026,-0.01561l-0.12296,-0.06148l-0.04798,-0.04113l-0.05951,-0.02125l-0.13263,-0.08842l-0.06727,-0.03364l-0.04798,-0.04113l-0.0595,-0.02125l-0.18444,-0.12296l-0.067,-0.07369l-0.08541,-0.05125l-0.18443,-0.18444l-0.05124,-0.08541l-0.0737,-0.06699l-0.12295,-0.18444l-0.04492,-0.12579l-0.07171,-0.11269l-0.12295,-0.36886l-0.01233,-0.16028l-0.03899,-0.15595v-0.67625l0.03899,-0.15595l0.01233,-0.16028l0.04949,-0.14845l0.0164,-0.06563l0.04984,-0.2243l0.01246,-0.02492l0.00697,-0.02786l0.00975,-0.00558l0.062,-0.12398l0.039,-0.11702l0.10592,-0.16644l0.00424,-0.07635l0.09755,-0.08362l0.06899,-0.1084l0.06092,-0.01219l0.27084,-0.40625l0.0737,-0.067l0.05124,-0.08541l0.05294,-0.05294l0.19099,-0.28648l0.0737,-0.067l0.05125,-0.0854l0.12296,-0.12296l0.08541,-0.05124l0.06699,-0.0737l0.18444,-0.12296l0.05291,-0.0189l0.04059,-0.04059l0.13784,-0.0827l0.12205,-0.10462l0.18755,-0.09378l0.00558,-0.00975l0.02787,-0.00697l0.02492,-0.01246l0.2243,-0.04984l0.22292,-0.05573h0.02787l0.02803,-0.00623l0.00934,0.00623h0.36133l0.00934,-0.00623l0.02804,0.00623h0.02787l0.22291,0.05573l0.2243,0.04984l0.02459,0.0123l0.22133,0.04918l0.02492,0.01246l0.02786,0.00697l0.00557,0.00975l0.55642,0.27821l0.12205,0.10461l0.13784,0.08271l0.03713,0.03713l0.36237,-0.20707l0.875,0.5l0.125,0.5v0.11337l0.11126,0.77882l0.11839,0.71037l0.05365,0.26825l0.02909,0.11633l0.07386,0.14773l0.02389,0.1075l0.05182,0.09717l0.01947,0.07787l0.02688,0.04031l0.04492,0.12579l0.0717,0.11268l0.01913,0.05738l0.04867,0.07301l0.02125,0.05951l0.04113,0.04798l0.06148,0.12296l0.1118,0.50312l-0.55902,0.83853l-1.00623,-0.05591l-0.33541,-0.39131l-0.0148,-0.0296zM28.85171,34.25612l-0.12126,-0.08084l-0.06727,-0.03364l-0.12205,-0.10461l-0.13784,-0.08271l-0.00821,-0.00821l-0.37127,-0.18563l-0.0229,-0.00509h-0.10605l-0.05954,0.03572l-0.12205,0.10462l-0.06727,0.03363l-0.04,0.02667l-0.18416,0.27623l-0.0737,0.067l-0.05125,0.08541l-0.05293,0.05294l-0.30662,0.45992l-0.00085,0.01531l-0.12196,0.10453l-0.00657,0.02957l-0.05956,0.11913l-0.00914,0.11876l-0.01016,0.03048v0.35171l0.02773,0.08318l0.03971,0.0397l0.05024,0.0335l0.06727,0.03363l0.04798,0.04112l0.05951,0.02125l0.11694,0.07796h1.22191l0.07122,-0.05143l0.11681,-0.04673l0.10898,-0.10898l0.2472,-0.49441l0.09056,-0.36224l0.0374,-0.18696v-0.39187c-0.06392,-0.0267 -0.12448,-0.05985 -0.18086,-0.09864z"/><path d="M34.31915,31.7995c2.03768,-0.50942 5.69154,3.23666 4.95768,5.43822c-1.2332,3.69958 -4.42689,-6.24146 -3.75639,-1.71596c0.07261,0.49007 0.18703,0.99419 0.30739,1.47562v0.30739c0,0.55228 -0.44772,1 -1,1c-0.55228,0 -1,-0.44772 -1,-1c0,-0.18437 0.04989,-0.35709 0.13692,-0.50539c-0.92368,-1.69048 -1.46087,-4.54607 0.35439,-4.99988z"/><path d="M40.46123,32.69951c0.10312,-0.52817 0.62271,-0.84518 1.08879,-0.80909c1.3754,0.10648 1.21581,3.10125 1.41942,4.17596c0.01988,0.10492 0.02542,0.21263 0.05132,0.31623v0.67625c0,0.20427 -0.06125,0.39424 -0.16639,0.55254c-0.29841,0.8075 -0.64001,0.8349 -0.97043,0.43818c-0.48756,-0.0667 -0.86318,-0.48484 -0.86318,-0.99072c0,-0.18962 0.05277,-0.36691 0.14443,-0.51798c-0.4813,-1.43686 -0.807,-3.31367 -0.70396,-3.84137z"/><path d="M39.48381,28.02161c0,-0.55229 0.44772,-1 1,-1c0.55228,0 1,0.44771 1,1c0,0.55229 -0.44772,1 -1,1c-0.55228,0 -1,-0.44771 -1,-1z"/></g><g><path d="M26.06615,6.13907c-0.32229,-0.40287 0.08058,-0.72516 0.08058,-0.72516l0.37202,-0.2965c0.44136,-0.39722 0.89432,-0.76666 1.32467,-1.16409c-0.36504,-0.00475 -0.7314,0.02755 -1.10044,0.11548l-0.25075,0.09882c0,0 -0.48307,0.18116 -0.66422,-0.30192c-0.18116,-0.48307 0.30192,-0.66422 0.30192,-0.66422l0.38104,-0.13809c0.72149,-0.1622 1.42441,-0.16269 2.12834,-0.08169c0.01549,-0.15895 0.02889,-0.31781 0.03947,-0.47655c0,0 0.03432,-0.51477 0.5491,-0.48046c0.51478,0.03431 0.48046,0.54909 0.48046,0.54909c-0.0127,0.19051 -0.02977,0.38139 -0.04982,0.57254c0.11765,0.02336 0.23558,0.0479 0.35389,0.07325c0,0 0.50447,0.1081 0.39637,0.61257c-0.1081,0.50447 -0.61257,0.39637 -0.61257,0.39637c-0.0886,-0.01898 -0.17713,-0.03773 -0.26561,-0.05598c-0.12376,0.90557 -0.25807,1.81278 -0.25545,2.71038v0.15794c0,0 0,0.51593 -0.51592,0.51593c-0.51592,0 -0.51592,-0.51593 -0.51592,-0.51593v-0.15794c0.00173,-0.68158 0.07615,-1.36589 0.16475,-2.0506c-0.39303,0.35454 -0.79987,0.69284 -1.19901,1.05208l-0.4177,0.33527c0,0 -0.40288,0.3223 -0.72517,-0.08057z"/><path d="M43.59221,5.17561c-0.45099,-0.25055 -0.20045,-0.70154 -0.20045,-0.70154l0.28362,-0.46964c0.11359,-0.11334 0.29841,-0.30944 0.47546,-0.46971c-0.10986,-0.01145 -0.21836,-0.02742 -0.30065,-0.03255c-0.35981,-0.02245 -0.7004,-0.04525 -1.03755,-0.0796c-0.10337,0.95502 -0.15171,1.98416 0.14295,2.29169c0.35211,0.36748 1.25728,0.10539 1.67741,0.04038l0.42197,-0.04293c0,0 0.51336,-0.05133 0.5647,0.46202c0.05134,0.51336 -0.46202,0.5647 -0.46202,0.5647l-0.36774,0.03605c-0.57411,0.08786 -1.31898,0.25109 -1.888,0.06233c-1.2242,-0.40611 -1.22649,-2.10018 -1.08675,-3.55933c-0.09876,-0.01938 -0.19851,-0.04061 -0.2996,-0.06393c0,0 -0.50272,-0.11601 -0.38671,-0.61872c0.11601,-0.50271 0.61872,-0.3867 0.61872,-0.3867c0.06084,0.01404 0.12173,0.02684 0.18265,0.03855c0.02362,-0.20573 0.04371,-0.3946 0.05542,-0.55974c0,0 0.03675,-0.51461 0.55137,-0.47785c0.51461,0.03676 0.47785,0.55137 0.47785,0.55137c-0.01012,0.14047 -0.03724,0.3527 -0.07088,0.60779c0.54386,0.04052 1.08626,0.06453 1.62044,0.18451c0.31797,0.07142 0.7856,-0.01194 0.93783,0.27621c0.4387,0.83039 -0.66604,1.47285 -1.09724,1.90509l-0.11125,0.24112c0,0 -0.25055,0.451 -0.70155,0.20044z"/><path d="M48.21985,6.70045c-0.5089,-0.08482 -0.4241,-0.59372 -0.4241,-0.59372l0.03378,-0.18886c0.04984,-0.69186 0.0472,-1.38671 0.04219,-2.08107c-0.35804,0.19388 -0.74542,0.35203 -1.15271,0.4787c0,0 -0.49311,0.15172 -0.64484,-0.34138c-0.15172,-0.49311 0.34138,-0.64483 0.34138,-0.64483c1.16122,-0.35278 2.18218,-1.02139 2.54109,-2.2252l0.02669,-0.14689c0,0 0.10118,-0.50591 0.60708,-0.40472c0.5059,0.10118 0.40472,0.60708 0.40472,0.60708l-0.05228,0.24798c-0.2152,0.68268 -0.57669,1.23906 -1.0433,1.68776c0.00044,0.96538 0.02744,1.93295 -0.0408,2.89608l-0.04519,0.28498c0,0 -0.08482,0.5089 -0.59372,0.42408z"/><g><path d="M36.6597,6.77789c0,-0.51592 0.51592,-0.51593 0.51592,-0.51593h0.19743c1.62651,0.00476 2.73049,-0.53153 2.96401,-2.20258c0,0 0.07296,-0.51075 0.58369,-0.43778c0.51074,0.07296 0.43778,0.5837 0.43778,0.5837c-0.31943,2.19467 -1.85308,3.0831 -3.98548,3.0885h-0.19743c0,0 -0.51592,0 -0.51592,-0.51592z"/><path d="M38.44536,2.96014c0.46146,-0.23073 0.69218,0.23072 0.69218,0.23072l0.11063,0.23695c0.10764,0.35057 0.20332,0.70506 0.286,1.06234c0,0 0.11601,0.5027 -0.3867,0.61871c-0.50271,0.11601 -0.61872,-0.3867 -0.61872,-0.3867c-0.0767,-0.33336 -0.16599,-0.66404 -0.2668,-0.99092l-0.04731,-0.07894c0,0 -0.23073,-0.46145 0.23072,-0.69218z"/><path d="M36.94525,3.11539c0.50364,-0.11192 0.61555,0.39172 0.61555,0.39172l0.05687,0.28208c0.13641,0.35698 0.25029,0.72364 0.33706,1.09582c0,0 0.11601,0.50271 -0.3867,0.61872c-0.50271,0.11601 -0.61872,-0.38671 -0.61872,-0.38671c-0.07424,-0.32557 -0.17407,-0.64607 -0.29471,-0.95744l-0.10108,-0.42866c0,0 -0.11191,-0.50363 0.39173,-0.61554z"/></g><g><path d="M30.57471,7.06581c-0.04285,-0.51414 0.4713,-0.55698 0.4713,-0.55698l0.43822,-0.03526c1.14768,-0.13382 1.49599,-1.34218 1.56321,-2.37611c-0.52105,-0.01766 -1.04206,-0.03363 -1.56373,-0.03331c0,0 -0.51592,0 -0.51592,-0.51592c0,-0.51592 0.51592,-0.51592 0.51592,-0.51592c1.15912,0.00067 2.31458,0.07897 3.47475,0.07897h0.43434c0,0 0.51593,0 0.51593,0.51592c0,0.51592 -0.51593,0.51592 -0.51593,0.51592h-0.43434c-0.29429,0 -0.58828,-0.00512 -0.88213,-0.01276c-0.10481,1.54668 -0.74059,3.06283 -2.4352,3.36306l-0.50943,0.04371c0,0 -0.51413,0.04284 -0.55698,-0.4713z"/><path d="M34.86971,0.82877c0.42927,-0.28619 0.71546,0.14309 0.71546,0.14309l0.07897,0.11845c0.20061,0.30103 0.40691,0.59839 0.61974,0.89091c0,0 0.30345,0.41724 -0.11379,0.72069c-0.41724,0.30345 -0.72069,-0.1138 -0.72069,-0.1138c-0.02501,-0.03441 -0.04995,-0.06888 -0.07479,-0.10341h-0.21871c-1.14664,-0.0007 -2.28672,0.11845 -3.43527,0.11845c0,0 -0.51592,-0.00001 -0.51592,-0.51593c0,-0.51592 0.51592,-0.51592 0.51592,-0.51592c0.99054,0 1.97442,-0.08761 2.96209,-0.11214c-0.05925,-0.13963 -0.12455,-0.4227 0.187,-0.63041z"/><path d="M36.09411,0.73528c0.36481,-0.36481 0.72962,0 0.72962,0l0.13827,0.13928c0.13162,0.11845 0.26324,0.23691 0.39486,0.35536c0,0 0.38348,0.34514 0.03834,0.72862c-0.34513,0.38348 -0.72861,0.03835 -0.72861,0.03835c-0.13162,-0.11845 -0.26324,-0.23691 -0.39486,-0.35537l-0.17762,-0.17662c0,0 -0.36481,-0.36481 0,-0.72962z"/></g><g><path d="M24.17365,1.51865c0.1916,-0.47902 0.67063,-0.28741 0.67063,-0.28741l0.38931,0.21286c0.11846,0.13162 0.23691,0.26323 0.35536,0.39485c0,0 0.34513,0.38349 -0.03834,0.72861c-0.26409,0.23767 -0.50999,0.12981 -0.63751,0.03961c0.04385,0.11247 0.04876,0.25694 -0.0517,0.42915c-0.25996,0.44564 -0.70561,0.18569 -0.70561,0.18569c-0.15794,-0.09213 -0.31588,-0.18426 -0.47382,-0.2764l-0.25977,-0.20072c0,0 -0.40287,-0.32228 -0.08058,-0.72515c0.32229,-0.40287 0.72517,-0.08058 0.72517,-0.08058l0.13509,0.11517c0.13523,0.07889 0.27046,0.15777 0.4057,0.23665c-0.04699,-0.05221 -0.09397,-0.10441 -0.14096,-0.15663l-0.00556,0.05491c0,0 -0.47902,-0.19161 -0.28741,-0.67063z"/><path d="M19.99074,6.96186c0,-0.51592 0.51592,-0.51592 0.51592,-0.51592l0.19498,0.01322c0.82879,0.21017 1.7688,-0.29712 2.27073,-0.986c0.05053,-0.06934 0.56984,-1.24319 0.41281,-1.25339c-0.82846,-0.05377 -1.85036,0.17813 -2.72058,0.17813c0,0 -0.51592,0 -0.51592,-0.51593c0,-0.51592 0.51592,-0.51592 0.51592,-0.51592c0.69487,0 2.6394,-0.40777 3.20229,-0.05879c0.80579,0.49957 0.57271,1.52125 0.27112,2.20341c-0.60495,1.36832 -2.22884,2.26369 -3.66838,1.9539l0.03703,0.01322c0,0 -0.51592,-0.00001 -0.51592,-0.51593z"/></g><g><path d="M19.14247,3.45773c0,0.51592 -0.51592,0.51592 -0.51592,0.51592h-0.41674c-0.49832,0 -0.99919,-0.01638 -1.5008,-0.04325c-0.05904,1.315 -0.16586,2.63222 -0.30826,3.93029l0.00316,0.00256c0,0 -0.00001,0.51592 -0.51593,0.51592c-0.51592,0 -0.51592,-0.51592 -0.51592,-0.51592l0.00316,-0.11651c0.14424,-1.28006 0.25113,-2.5838 0.30792,-3.88399c-0.72398,-0.05543 -1.447,-0.12429 -2.16369,-0.18888c0,0 -0.5138,-0.04671 -0.46709,-0.56051c0.04671,-0.51381 0.56051,-0.4671 0.56051,-0.4671c0.69689,0.06393 1.40024,0.13137 2.1046,0.18564c0.00834,-0.36796 0.01237,-0.73504 0.0118,-1.10065c0,0 0,-0.51592 0.51592,-0.51592c0.51592,0 0.51592,0.51593 0.51592,0.51593c-0.00054,0.38847 -0.00592,0.77818 -0.0158,1.1686c0.48955,0.02611 0.97834,0.04196 1.46451,0.04196h0.41674c0,0 0.51592,0 0.51592,0.51592z"/><path d="M15.18119,4.64081c0.36481,0.36481 0,0.72962 0,0.72962l-0.08196,0.04452c-0.2734,0.54536 -0.57597,1.01919 -0.94173,1.50764c0,0 -0.30956,0.41273 -0.7223,0.10318c-0.41273,-0.30955 -0.10318,-0.72229 -0.10318,-0.72229c0.33034,-0.43972 0.59907,-0.85812 0.8443,-1.34998l0.27524,-0.31269c0,0 0.36481,-0.36481 0.72962,0z"/><path d="M18.8723,7.15645c-0.36481,0.36481 -0.72963,0 -0.72963,0l-0.2437,-0.32073c-0.19288,-0.57942 -0.41554,-1.12119 -0.54999,-1.71818c0,0 -0.11192,-0.50364 0.39172,-0.61556c0.50364,-0.11192 0.61556,0.39172 0.61556,0.39172c0.12279,0.56139 0.33981,1.07102 0.52161,1.61573l-0.00556,-0.0826c0,0 0.36481,0.36481 0,0.72962z"/><path d="M17.82537,0.99912c0.51592,0 0.51592,0.51592 0.51592,0.51592v0.55281c0,0 0,0.51592 -0.51592,0.51592c-0.51592,0 -0.51592,-0.51592 -0.51592,-0.51592v-0.5528c0,0 0,-0.51592 0.51592,-0.51592z"/><path d="M18.49403,2.14681c0,-0.28494 0.23098,-0.51592 0.51592,-0.51592c0.28494,0 0.51593,0.23099 0.51593,0.51593c0,0.28494 -0.23099,0.51592 -0.51593,0.51592c-0.28494,0 -0.51592,-0.23098 -0.51592,-0.51592z"/></g></g></g></g></svg>