<svg version="1.1" xmlns="http://www.w3.org/2000/svg" xmlns:xlink="http://www.w3.org/1999/xlink" width="115.77312" height="116.57076" viewBox="0,0,115.77312,116.57076"><g transform="translate(-376.21335,-241.25382)"><g data-paper-data="{&quot;isPaintingLayer&quot;:true}" fill-rule="nonzero" stroke="none" stroke-width="0.5" stroke-linecap="butt" stroke-linejoin="miter" stroke-miterlimit="10" stroke-dasharray="" stroke-dashoffset="0" style="mix-blend-mode: normal"><path d="M413.5006,319.74558c-1.29492,-1.47809 0.0214,-3.1235 0.0214,-3.1235l1.60009,-1.81171c3.09033,-2.02178 5.19507,-2.71468 8.88804,-2.74786c2.6707,0 5.74898,-0.39019 8.38166,0.0265c3.04561,0.48205 3.1123,1.02966 5.66744,2.30565c3.90319,1.94918 7.9182,3.80898 11.85621,5.67c9.01875,4.26207 17.72204,9.38114 26.8431,13.42388c6.63774,2.96385 14.71798,7.59636 15.19081,15.61059c0.10517,1.78265 0.05367,6.81737 -1.06279,7.91354c-1.59046,1.56155 -5.45912,0.45352 -7.33485,0.09862c-9.08605,-1.71913 -18.15121,-5.43487 -26.59184,-9.19054c-6.27945,-2.28344 -12.50316,-4.97152 -18.21399,-8.46118c-8.55131,-5.22538 -16.22518,-12.22373 -24.25437,-18.24108c0,0 -0.75841,-0.5688 -0.99091,-1.4729z" fill-opacity="0.50196" fill="#000000"/><g><g><path d="M415.30015,268.00229c-0.35933,0.48844 -1.02743,0.48844 -1.02743,0.48844c-1.6283,-0.01006 -3.65398,-0.08488 -4.85381,-1.44087c-1.95314,-2.20734 -1.23797,-9.77785 0.44206,-11.97785c2.35751,-3.08715 6.38406,-3.1435 9.78924,-3.56914c5.2558,0 11.86138,-1.48673 16.90921,0.59913c4.71319,1.94758 4.82167,9.73409 1.38044,12.62456c-6.97014,3.03493 -15.20388,1.76038 -22.63971,3.27573z" fill="#e3dbad"/><path d="M409.71354,308.2275l8.35289,-1.23633c5.56567,-2.38529 5.0995,-0.44217 11.0946,-1.19143c2.7709,-0.30462 7.97877,-4.17926 10.24996,-2.1286c3.25884,2.9424 2.21852,14.19648 -1.04941,16.50871c-1.86838,1.32197 -5.11281,1.58611 -7.3064,2.07179c-7.97779,1.00508 -20.22319,0.51887 -21.56961,-9.60031z" data-paper-data="{&quot;index&quot;:null}" fill="#81741c"/><path d="M438.76536,259.51537c0.10946,0.06291 0.17393,0.11664 0.17393,0.11664l1.1065,0.92876c1.88691,2.248 2.75034,3.76971 2.75034,6.7728c0.46411,3.71288 0.29456,7.52716 0.51192,11.25982c0.38236,6.56608 1.58372,12.99868 0.15405,19.54602c-0.62406,4.96684 -3.70979,11.31291 -8.86049,12.90957c-4.47928,1.38853 -10.05331,0.91263 -14.70325,0.91263c-2.94337,0 -6.35923,0.39913 -9.00638,-1.20707c-5.94757,-3.60878 -7.75433,-13.35808 -7.75433,-19.72511c0.9138,-7.41052 0.79142,-15.22739 4.96827,-21.73532c1.46256,-2.27881 2.59777,-4.1216 5.16298,-5.24798c5.67692,-2.43296 11.44382,-3.79009 17.49692,-4.856c2.58261,-0.45478 5.18542,-0.6788 7.68679,0.18736c0.03434,0.01071 0.06737,0.02246 0.09893,0.03485c0.00881,0.00316 0.01762,0.00633 0.02643,0.00951c0,0 0.07858,0.02947 0.18739,0.0935z" fill="#ffe638"/><path d="M440.18903,254.86356c0.11057,0.17939 0.18289,0.41407 0.18289,0.72106c0,1.30318 -1.30318,1.30318 -1.30318,1.30318c-2.51515,-0.00472 -4.57146,0.7629 -6.94593,1.37645c-1.81671,0.46942 -3.76625,-0.05859 -5.5422,0.6623c-1.32319,0.5371 -2.4372,1.7302 -3.80602,2.1598c-3.00868,0.94427 -5.8806,-1.21113 -8.999,-0.50116c-1.4719,0.3586 -4.57632,1.07515 -5.6823,-0.59784c-0.43005,-0.65052 0.1164,-1.55542 0.1919,-2.33158c0.32842,-3.37641 0.48256,-5.75637 3.02543,-8.32442c1.89307,-1.91182 4.26656,-3.61658 6.9997,-3.92843c3.06236,-0.34942 5.3578,0.47017 8.53471,-0.32432c3.79259,-0.94197 9.73584,-0.67267 12.09075,3.07148c1.17397,1.86654 0.98546,3.95703 1.24835,6.02882z" fill="#d29717"/><path d="M401.18255,268.09309c2.89124,2.29805 1.47804,7.57118 -0.61261,10.00857c-1.54313,1.79906 -3.84219,2.1424 -6.05445,2.1424c-5.11406,-1.26093 -9.68002,-7.23574 -5.79328,-12.38651c2.82184,-3.73955 8.48447,-2.42617 11.85087,-0.50881c0,0 0.45909,0.26234 0.60947,0.74435z" fill="#e3dbad"/><path d="M400.46433,252.69384c1.25,0 1.25,1.25 1.25,1.25v1.36379c-0.01028,6.13278 -1.37126,11.52941 -6.24588,15.62103c0,0 -0.74902,0.62418 -1.47529,0.1085c-1.23104,-0.15968 -1.07671,-1.3943 -1.07671,-1.3943c0.65332,-5.16078 0.96822,-8.51672 -2.33737,-12.67879c-0.34589,-0.13474 -0.74081,-0.44242 -0.74081,-1.14503c0,-1.25 1.25,-1.25 1.25,-1.25l1.13075,0.44977c3.41987,4.10384 3.85803,7.62047 3.47313,12.19231c2.79274,-3.30629 3.53064,-7.403 3.52219,-11.9035v-1.36379c0,0 0,-1.25 1.25,-1.25z" fill="#35d863"/><path d="M393.19485,257.49389c-0.58878,0.12498 -1.29312,0.09117 -2.15279,-0.14541c-0.68491,-0.18849 -2.11756,-1.73249 -2.9818,-1.36196c-1.24926,0.53561 -0.72993,1.55262 -2.48092,1.9014c-2.22181,0.44257 -3.37762,-1.62095 -4.71007,-2.85064c-2.86185,-2.64115 -4.35004,-5.19594 -2.46581,-8.91124c2.98689,-0.50752 1.52648,-3.04476 3.94304,-4.21063c2.4297,-1.17221 5.11882,2.14001 7.47378,1.59705c1.7591,-0.40558 3.45864,-2.03948 5.36835,-2.22996c2.41216,-0.2406 4.0283,1.07978 5.90412,2.20466c1.42326,0.85349 3.69767,0.66312 5.3004,1.06119c2.16138,0.58345 3.67776,1.3313 3.49166,3.94455c-0.05611,0.78797 -0.99695,1.43501 -0.85182,2.21153c0.33582,1.79685 1.76044,2.57024 0.53137,4.70759c-1.62116,2.8192 -3.62083,0.90676 -5.60246,2.01525c-1.71139,0.95731 -1.85468,3.28041 -4.26908,3.70757c-2.54879,0.45094 -4.52875,-2.14752 -6.49797,-3.64095z" fill="#e1e1e1"/></g><path d="M391.48789,247.17439c1.8173,1.27972 1.21041,4.66097 -1.14373,5.08993c-2.15284,0.39228 -3.51693,-1.12652 -3.202,-3.202c0.13891,-0.91545 0.71663,-1.41978 1.39149,-1.78345c0.36183,-0.27067 0.77141,-0.46234 1.18619,-0.53522c0.06574,-0.02838 0.13056,-0.0569 0.19413,-0.08579c0,0 1.05172,-0.45074 1.57392,0.51653z" fill="#fdeca6"/><path d="M399.2396,248.15782c0.17993,-0.14114 0.39776,-0.25787 0.65704,-0.3429c0.64496,-0.21153 1.2034,-0.13958 1.6553,0.11241c0.38422,0.09496 0.64864,0.35939 0.64864,0.35939l0.49927,0.75119c0.08269,0.7408 0.67325,1.61016 0.24808,2.22241c-0.13272,0.19112 -0.26713,0.35906 -0.40243,0.50547c-0.38065,0.75025 -1.14295,1.28074 -2.36124,1.20711c-2.03876,-0.12321 -2.78463,-2.70609 -1.94065,-4.17334c0.20233,-0.35174 0.58455,-0.51226 0.99599,-0.64174z" fill="#fdeca6"/><path d="M399.2396,248.15782c0.17993,-0.14114 0.39776,-0.25787 0.65704,-0.3429c0.64496,-0.21153 1.2034,-0.13958 1.6553,0.11241c0.38422,0.09496 0.64864,0.35939 0.64864,0.35939l0.49927,0.75119c0.08269,0.7408 0.67325,1.61016 0.24808,2.22241c-0.13272,0.19112 -0.26713,0.35906 -0.40243,0.50547c-0.38065,0.75025 -1.14295,1.28074 -2.36124,1.20711c-2.03876,-0.12321 -2.78463,-2.70609 -1.94065,-4.17334c0.20233,-0.35174 0.58455,-0.51226 0.99599,-0.64174z" fill="#fdeca6"/></g><path d="M380.7018,242.94493c1.25,0 1.25,1.25 1.25,1.25l-0.00966,0.66646c-0.17564,0.69754 -0.02454,1.57783 -0.52693,2.09263c-0.64607,0.66204 -1.91587,0.06779 -2.72759,0.51143c-0.39736,0.21717 0.32236,0.84648 0.47118,1.27416c0.16494,0.474 0.25241,0.97155 0.36904,1.45968c0.58124,2.43259 2.8183,4.18089 4.79856,5.59354c0,0 1.01717,0.72655 0.29062,1.74371c-0.72655,1.01716 -1.74372,0.29062 -1.74372,0.29062c-2.92165,-2.08942 -6.79134,-5.80644 -6.65652,-9.78197c0.02769,-0.81637 0.1576,-1.73949 0.70307,-2.34752c1.18252,-1.31815 2.92692,0.16908 2.54159,-1.14637l-0.00965,-0.35638c0,0 0,-1.25 1.25,-1.25z" fill-opacity="0.50196" fill="#fa9600"/><path d="M390.79127,278.4917c-0.88389,0.88389 -1.76776,0 -1.76776,0l-0.66974,-0.92166c-1.11886,-4.53433 -4.73242,-9.14626 0.99643,-11.99149c0.93007,-0.46191 1.93087,-0.82955 2.95926,-0.97378c0,0 1.24034,-0.15504 1.39539,1.08531c0.15504,1.24034 -1.0853,1.39539 -1.0853,1.39539c-6.60681,0.682 -2.8549,5.8656 -1.84042,9.87824l0.01216,-0.23977c0,0 0.88389,0.88388 0,1.76776z" fill-opacity="0.50196" fill="#fa9600"/><path d="M424.74075,245.55872c0,1.25 -1.25,1.25 -1.25,1.25l-0.69733,-0.00965c-1.91034,0.23879 -3.59862,0.54226 -5.4312,1.15312c-4.90796,1.22284 -5.35707,3.35296 -7.21283,7.64547c-0.44949,1.0397 -1.48426,1.957 -1.4332,3.08756c0.12581,2.78535 1.17726,5.4411 1.52461,8.19817c0,0 0.09927,0.7942 -0.49656,1.19101c-0.01904,0.30962 -0.13718,0.54589 -0.13718,0.54589c-1.52294,3.04352 -3.808,6.35922 -4.68482,9.6554c-1.0912,4.10205 -0.12634,9.11052 0.38205,13.23331c0,4.39429 0.68511,9.16616 2.29903,13.24981c0.6795,1.71931 2.28717,3.12436 2.77573,4.91821c0.24132,0.88606 -0.05005,1.85932 0.17605,2.74939c0.51247,2.0174 1.69719,3.93302 2.7111,5.72314c0.26196,0.31185 0.52394,0.62371 0.7859,0.93556l0.28972,0.97071c0,0 0,1.25 -1.25,1.25c-0.82086,0 -1.10267,-0.53905 -1.19942,-0.90918c-0.22656,-0.27373 -0.45313,-0.54747 -0.6797,-0.8212c-1.17523,-2.04124 -2.51327,-4.23601 -3.08502,-6.55098c-0.21666,-0.87724 0.06079,-1.83081 -0.16489,-2.70577c-0.41612,-1.61335 -2.04279,-3.05315 -2.67944,-4.62833c-1.73606,-4.29532 -2.47424,-9.38944 -2.47424,-14.02602c-0.55932,-4.4078 -1.47034,-9.66146 -0.29985,-14.04252c0.92623,-3.46684 3.2635,-6.92054 4.86173,-10.11957c0,0 0.12357,-0.24714 0.37071,-0.45093c-0.373,-2.76848 -1.60345,-5.55532 -1.52552,-8.36611c0.05273,-1.90173 0.95761,-2.47366 1.63533,-4.07236c2.08432,-4.91672 3.21346,-7.65682 8.81172,-9.06097c1.95031,-0.6501 3.78699,-0.97938 5.82008,-1.23351l1.00741,-0.00966c0,0 1.25,0 1.25,1.25z" fill-opacity="0.50196" fill="#fa9600"/></g></g></svg>