<svg version="1.1" xmlns="http://www.w3.org/2000/svg" xmlns:xlink="http://www.w3.org/1999/xlink" width="71.58525" height="50.67839" viewBox="0,0,71.58525,50.67839"><defs><linearGradient x1="92.54275" y1="147.19411" x2="92.54275" y2="180.69979" gradientUnits="userSpaceOnUse" id="color-1"><stop offset="0" stop-color="#81471e"/><stop offset="1" stop-color="#914f21"/></linearGradient><linearGradient x1="88.7952" y1="168.81756" x2="88.7952" y2="176.6436" gradientUnits="userSpaceOnUse" id="color-2"><stop offset="0" stop-color="#81471e"/><stop offset="1" stop-color="#914f21"/></linearGradient></defs><g transform="translate(-383.57479,-306.73847)"><g data-paper-data="{&quot;isPaintingLayer&quot;:true}" fill-rule="nonzero" stroke="none" stroke-width="0.5" stroke-linecap="butt" stroke-linejoin="miter" stroke-miterlimit="10" stroke-dasharray="" stroke-dashoffset="0" style="mix-blend-mode: normal"><path d="" fill-opacity="0.50196" fill="#000000"/><path d="" fill-opacity="0.50196" fill="#000000"/><g><path d="M428.6484,307.44087l0.43127,-0.21563c0.55996,-0.29481 1.1978,-0.46167 1.87459,-0.46167c0.03548,0 0.07086,0.00046 0.10611,0.00138l0.11915,-0.02648l0.05172,0.03447c1.89245,0.12847 3.42635,1.56354 3.70674,3.41029l0.0321,0.00178l0.37783,0.4408l3.05039,1.5252l0.50706,0.12677l0.90384,0.20086l0.10043,0.05021l0.11228,0.02807l0.02246,0.0393l0.26862,0.13431l0.19333,0.16571l0.2398,0.08564l0.30667,0.20444l0.74996,0.24998l0.04367,-0.01191l0.09925,0.05954l0.10652,0.0355l0.78114,0.49709l0.79395,0.47636l0.0794,0.0794l0.09764,0.06213l0.00719,0.03595l0.20919,0.07471l0.30667,0.20444l0.24372,0.08124l0.54649,0.34777l0.59699,0.25137l0.91808,0.68855l4.44092,2.96061l0.26998,0.29697l0.34416,0.2065l0.54516,0.54516l0.42268,0.21134l0.24979,0.21411l0.20073,0.01115l0.51983,0.60647l0.60647,0.51983l0.01115,0.20073l0.21411,0.24979l0.25189,0.50377l0.30035,1.35156l0.15017,0.22526l-0.05005,0.22526l0.05005,0.22526l-0.15017,0.22526l-0.30035,1.35156l-0.25189,0.50377l-0.21411,0.24979l-0.01115,0.20073l-0.60647,0.51983l-0.14553,0.16978l-0.00367,0.06605l-0.19958,0.17106l-0.17106,0.19958l-0.06605,0.00367l-0.16978,0.14553l-0.51983,0.60647l-0.11335,0.0063l-0.52239,0.60946l-0.00117,0.02116l-0.06395,0.0548l-0.0548,0.06395l-0.02116,0.00117l-0.46656,0.39991l-0.51983,0.60647l-0.20073,0.01115l-0.24979,0.21411l-0.70528,0.35265l-0.08758,0.07507l-0.51983,0.60647l-0.20073,0.01115l-0.24979,0.21411l-0.42268,0.21134l-0.04139,0.04139l-0.55545,0.33327l-0.20797,0.17826l-0.74791,0.74791l-0.34416,0.2065l-0.26998,0.29697l-1.17933,0.78622l-0.47352,0.47352l-0.34416,0.2065l-0.26998,0.29697l-2.26699,1.51133l-0.21968,0.07845l-0.4916,0.4916l-0.00888,0.04438l-0.09764,0.06213l-0.0794,0.0794l-0.79395,0.47636l-0.78114,0.49709l-0.05565,0.01855l-0.24285,0.26713l-3.44632,2.29755l-0.72541,0.72541l-0.55545,0.33327l-0.49181,0.42156l-0.92645,0.46323l-0.04139,0.04139l-0.34416,0.2065l-0.26998,0.29697l-1.935,1.29l-0.22164,0.22164l-0.55545,0.33327l-0.49181,0.42156l-0.78317,0.39158l-0.54693,0.36462l-0.2398,0.08564l-0.19333,0.16571l-0.78317,0.39158l-0.54693,0.36462l-0.21968,0.07845l-0.17373,0.17373l-0.55545,0.33327l-0.49181,0.42156l-0.27938,0.13969l-0.54693,0.36462l-0.2398,0.08564l-0.19333,0.16571l-0.27938,0.13969l-0.54693,0.36462l-0.21968,0.07845l-0.17373,0.17373l-0.55545,0.33327l-0.49181,0.42156l-0.42268,0.21134l-0.04139,0.04139l-0.34416,0.2065l-0.26998,0.29697l-1.51133,1.00756l-0.2398,0.08564l-0.19333,0.16571l-0.62572,0.31287l-0.92609,0.74087l-0.1621,0.07429l-0.11995,0.13194l-0.42368,0.28245l-0.47352,0.47352l-0.55545,0.33327l-0.49181,0.42156l-0.26862,0.13431l-0.02246,0.0393l-0.11228,0.02807l-0.10043,0.05021l-0.20141,0.04476l-0.02839,0.01703l-0.02167,-0.00591l-0.65236,0.14497l-0.89824,0.22456h-0.11228l-0.11298,0.0251l-0.02663,-0.01775l-0.02663,0.01775l-0.11298,-0.0251h-0.11228l-0.89824,-0.22456l-0.90384,-0.20086l-0.10043,-0.05021l-0.11228,-0.02807l-0.02246,-0.0393l-0.26862,-0.13431l-0.24979,-0.21411l-0.20073,-0.01115l-0.51983,-0.60647l-0.08758,-0.07507l-2.7204,-1.36019l-0.49181,-0.42156l-0.55545,-0.33327l-0.04139,-0.04139l-0.42268,-0.21134l-0.49181,-0.42156l-0.13329,-0.07998l-0.10652,-0.0355l-0.78114,-0.49709l-0.79395,-0.47636l-0.04139,-0.04139l-0.16653,-0.08327l-0.48399,-0.16133l-0.45407,-0.28896l-0.50687,-0.18102l-0.75566,-0.50377l-0.26998,-0.29697l-0.34416,-0.2065l-0.22164,-0.22164l-0.42368,-0.28245l-0.07701,-0.08472l-0.10552,-0.04443l-0.43324,-0.32492l-0.07998,-0.04799l-0.10652,-0.0355l-0.78114,-0.49709l-0.79395,-0.47636l-0.0794,-0.0794l-0.09764,-0.06213l-0.00888,-0.04438l-0.27131,-0.27131l-0.51205,-0.32585l-0.79395,-0.47636l-0.0794,-0.0794l-0.09764,-0.06213l-0.00888,-0.04438l-0.05823,-0.05823l-0.20797,-0.17826l-0.55545,-0.33327l-0.22164,-0.22164l-0.21493,-0.14329l-0.27938,-0.13969l-0.19333,-0.16571l-0.2398,-0.08564l-0.75566,-0.50377l-0.26998,-0.29697l-0.34416,-0.2065l-0.74791,-0.74791l-0.20797,-0.17826l-0.55545,-0.33327l-0.50377,-0.50377l-0.28337,-0.47229l-0.47229,-0.28337l-0.50377,-0.50377l-0.33327,-0.55545l-0.17826,-0.20797l-0.05823,-0.05823l-0.04438,-0.00888l-0.06213,-0.09764l-0.0794,-0.0794l-0.47636,-0.79395l-0.49709,-0.78114l-0.0355,-0.10652l-0.05954,-0.09925l0.01191,-0.04367l-0.07818,-0.23455l-0.25813,-0.51625l-0.0393,-0.02246l-0.02807,-0.11228l-0.05021,-0.10043l-0.20086,-0.90384l-0.22456,-0.89824v-0.11228l-0.0251,-0.11298l0.0251,-0.03766v-0.24085l0.5037,-2.01479l0.13816,-0.07895l0.00882,-0.15887l0.74936,-0.64232l0.0063,-0.11335l0.60647,-0.51983l0.51983,-0.60647l0.19558,-0.01086l0.21523,-0.21523l0.55545,-0.33327l0.20797,-0.17826l0.24414,-0.24414l0.55545,-0.33327l0.49181,-0.42156l0.20151,-0.10075l0.08758,-0.07507l0.51983,-0.60647l0.19558,-0.01086l0.21523,-0.21523l0.55545,-0.33327l0.49181,-0.42156l0.42268,-0.21134l0.04139,-0.04139l0.68168,-0.40901l0.15288,-0.26753l0.50231,-0.12557l0.44398,-0.26639l0.0396,0.0108l0.23438,-0.2009l1.20907,-0.60453l0.08758,-0.07507l0.51983,-0.60647l0.20073,-0.01115l0.24979,-0.21411l0.42268,-0.21134l0.04139,-0.04139l0.55545,-0.33327l0.49181,-0.42156l1.20907,-0.60453l0.08758,-0.07507l0.51983,-0.60647l0.19558,-0.01086l0.21523,-0.21523l0.22476,-0.13486l0.00133,-0.02407l0.60647,-0.51983l0.51983,-0.60647l0.20073,-0.01115l0.24979,-0.21411l0.24217,-0.12108l0.56675,-0.66121l0.15887,-0.00882l0.07895,-0.13816l0.76403,-0.19101l0.45622,-0.39105l1.51133,-0.75566l0.28312,-0.06292l0.24469,-0.15571l0.10652,-0.0355l0.13329,-0.07998l0.49181,-0.42156l0.50377,-0.25189l0.20141,-0.04476l0.02839,-0.01703l0.02167,0.00591l0.03166,-0.00704l0.24469,-0.15571l0.29544,-0.09848l0.44815,-0.26889l0.49181,-0.42156l2.51889,-1.25944l0.28312,-0.06292l0.24469,-0.15571l0.48399,-0.16133l0.75141,-0.37571l0.28312,-0.06292l0.24469,-0.15571l1.23965,-0.41322l0.52703,-0.26351l0.54693,-0.36462l0.2398,-0.08564l0.19333,-0.16571l1.00756,-0.50377l0.28312,-0.06292l0.24469,-0.15571l0.48399,-0.16133l0.24763,-0.12382l0.28312,-0.06292l0.24469,-0.15571l0.48399,-0.16133l0.01248,-0.00623l0.02246,-0.0393l0.11228,-0.02807l0.10043,-0.05021l0.90384,-0.20086l0.00329,-0.00082l0.10043,-0.05021l0.28312,-0.06292l0.24469,-0.15571l0.48399,-0.16133l1.02002,-0.51002l0.02246,-0.0393l0.11228,-0.02807l0.10043,-0.05021l0.90384,-0.20086l0.00329,-0.00082l0.36905,-0.18452l0.02246,-0.0393l0.11228,-0.02807l0.10043,-0.05021l0.90384,-0.20086l0.00329,-0.00082l0.87282,-0.43641l0.02246,-0.0393l0.11228,-0.02807l0.10043,-0.05021l0.08204,-0.01824l0.2231,-0.26029l0.20073,-0.01115l0.24979,-0.21411l0.26862,-0.13431l0.02246,-0.0393l0.11228,-0.02807l0.10043,-0.05021l0.56675,-0.12595zM444.94966,324.8824l-0.13479,-0.08987l0.01771,0.07971l-0.0251,0.03766v0.09437z" fill="#ba141b"/><path d="M413.57398,339.92851c1.34319,0 1.34319,1.34319 1.34319,1.34319l-0.29434,1.34286c-1.60815,1.84432 -4.44218,3.4662 -6.08167,0.14471c-0.32748,-0.66345 0.09593,-1.47726 0.18146,-2.21217c0.16745,-1.43883 0.05591,-4.6916 0.88587,-6.06617c-0.02267,0.02089 -0.04399,0.03802 -0.06261,0.0493c-0.17581,0.10653 -2.21687,0.91359 -2.27404,0.93572c-0.72975,0.28244 -1.32227,0.8416 -1.93923,1.32292c-0.71167,0.55521 -1.51069,1.01096 -2.14383,1.65429c0,0 -0.94978,0.94978 -1.89956,0c-0.94978,-0.94978 0,-1.89956 0,-1.89956c1.66347,-1.64253 7.84637,-6.76214 10.46376,-4.2821c1.88193,1.78318 -0.74626,7.49193 -0.70284,9.53773c0.01209,0.56948 1.15495,-0.39164 1.47497,-0.86284l-0.29434,0.33531c0,0 0,-1.34319 1.34319,-1.34319z" fill="#8b011b"/><path d="M424.85117,329.74254c0.94978,0.94978 0,1.89956 0,1.89956l-1.23274,0.87891c-1.42349,0.23317 -5.19555,1.03647 -5.80173,-1.23439c-0.44087,-1.65159 3.63791,-5.28555 4.74183,-6.17715c0,0 1.04886,-0.83909 1.88794,0.20977c0.83909,1.04886 -0.20977,1.88794 -0.20977,1.88794c-0.96326,0.76178 -1.606,1.87402 -2.42872,2.73981c0.4575,-0.01375 0.9219,0.00014 1.36881,-0.07582l-0.22519,-0.12864c0,0 0.94978,-0.94978 1.89956,0z" fill="#8b011b"/><path d="M438.62096,325.16133c0.74507,1.1176 -0.37253,1.86267 -0.37253,1.86267l-1.00188,0.6333c-1.63209,0.64304 -3.84163,1.46981 -5.53689,0.36693c-1.5396,-1.00162 -2.94897,-5.34707 -3.92227,-6.9683c0,0 -0.69107,-1.15178 0.46071,-1.84285c1.15178,-0.69107 1.84285,0.46071 1.84285,0.46071c0.84861,1.41519 1.74557,2.68527 2.36234,4.22243c0.25525,0.63615 0.21178,1.50724 0.76826,1.90745c0.66828,0.48062 2.44599,-0.40375 3.02731,-0.64062l0.50944,-0.37426c0,0 1.1176,-0.74507 1.86267,0.37253z" fill="#8b011b"/></g><g fill="#595959"><path d=""/><path d=""/><path d=""/></g><path d="" fill="#6a3b18"/><path d="" fill="#6a3b18"/><path d="" fill="#6a3b18"/><path d="" fill="#bb5a4c"/><g><path d="" fill="#999999"/><path d="" fill="#808080"/></g><path d="" fill="#595959"/><path d="" fill="#595959"/><path d="" fill="#632817"/><path d="" fill="#dc5f4d"/><g><path d="" fill="url(#color-1)"/><path d="" fill="url(#color-2)"/></g><path d="" fill="#061633"/><path d="" fill="#f2f2f2"/><path d="" fill="#6a3b18"/><path d="" fill="#6a3b18"/><path d="" fill="#000000"/><path d="" fill="#000000"/><path d="" fill="#000000"/><path d="" fill="#000000"/><path d="" fill="#000000"/><path d="" fill="#000000"/><path d="" fill="#000000"/><path d="" fill="#000000"/><path d="" fill="#000000"/><path d="" fill="#000000"/><path d="" fill="#2417bd"/><path d="" fill="#2417bd"/><path d="" fill="#000000"/><path d="" fill="#000000"/><path d="" fill="#8b735c"/><path d="" fill="#c3c3c3"/><g fill="#000000" font-family="&quot;Helvetica Neue&quot;, Helvetica, Arial, sans-serif" font-weight="400" font-size="16" text-anchor="start"/><g fill="#000000" font-family="&quot;Helvetica Neue&quot;, Helvetica, Arial, sans-serif" font-weight="400" font-size="16" text-anchor="start"/><g fill="#000000" font-family="&quot;Helvetica Neue&quot;, Helvetica, Arial, sans-serif" font-weight="400" font-size="16" text-anchor="start"/><g fill="#000000" font-family="&quot;Helvetica Neue&quot;, Helvetica, Arial, sans-serif" font-weight="400" font-size="16" text-anchor="start"/><g fill="#000000" font-family="&quot;Helvetica Neue&quot;, Helvetica, Arial, sans-serif" font-weight="400" font-size="16" text-anchor="start"/></g></g></svg>