<svg version="1.1" xmlns="http://www.w3.org/2000/svg" xmlns:xlink="http://www.w3.org/1999/xlink" width="208.04911" height="159.61801" viewBox="0,0,208.04911,159.61801"><g transform="translate(-374.58305,-175.90723)"><g data-paper-data="{&quot;isPaintingLayer&quot;:true}" fill-rule="nonzero" stroke="none" stroke-linecap="butt" stroke-linejoin="miter" stroke-miterlimit="10" stroke-dasharray="" stroke-dashoffset="0" style="mix-blend-mode: normal"><path d="M374.58305,335.52524v-159.61801h208.04911v159.61801z" fill="none" stroke-width="0"/><path d="M466.42154,299.38061c-1.74449,-0.90461 -1.11825,-2.91654 -1.11825,-2.91654l0.8299,-2.27021c2.14114,-3.00887 3.84868,-4.42107 7.27564,-5.79766c2.48708,-0.97319 5.21153,-2.45825 7.81504,-3.02954c3.01187,-0.66089 3.27351,-0.17523 6.11794,0.08195c4.3451,0.39287 8.76175,0.66177 13.10715,0.95985c9.95173,0.68267 19.92199,2.27836 29.88907,2.7195c7.26137,0.34133 16.47411,1.71096 19.83476,9.00188c0.74752,1.62176 2.53418,6.32909 1.89391,7.75672c-0.91209,2.03374 -4.91852,2.4116 -6.79461,2.7646c-9.08778,1.70995 -18.88366,1.55296 -28.11249,1.13121c-6.67978,0.16174 -13.4551,-0.07365 -20.04489,-1.24239c-9.86746,-1.75008 -19.56386,-5.47096 -29.23369,-8.14882c0,0 -0.91354,-0.25333 -1.4595,-1.01055z" fill-opacity="0.50196" fill="#000000" stroke-width="0.5"/><path d="M461.97409,243.2528c-1.54006,-0.39431 -6.25815,-1.85571 -6.90232,-2.74772c-2.17249,-3.00834 -0.98744,-5.71925 -0.16386,-8.57979c0.43196,-1.50032 1.67332,-5.79592 2.47682,-6.55894c1.09296,-1.03789 2.80282,-1.1157 4.23713,-1.57886c4.66432,-1.50618 9.58834,-1.18231 14.38685,-0.80959c2.04569,-0.17159 4.11153,-0.11493 6.15847,0.04102l0.34329,0.27963l0.05506,-0.18344l2.39878,0.71998c1.24832,0.35113 2.28001,1.34084 2.62231,2.68795c0.22418,0.88225 0.11535,1.77097 -0.2475,2.53333c0.30655,0.89383 0.40904,1.92719 0.69625,2.81661c1.23071,3.81125 1.23694,7.99197 1.12029,11.94947c0.5812,7.09815 -1.08616,14.23048 -2.09882,21.19761c-0.82207,5.65585 -1.0901,11.43513 -2.09884,17.06129c-0.46917,2.61676 -1.11826,5.18423 -1.76961,7.7596c-0.08027,0.3812 -0.17408,0.75736 -0.28438,1.12673c-0.35848,1.4262 -0.70974,2.85737 -1.02371,4.3032c0,0 -0.76468,3.50476 -4.22609,2.91069c-2.12549,1.19543 -4.67672,1.14637 -7.3811,-1.43554c-1.58139,-1.50977 -0.99557,-6.02617 -0.84858,-8.094c0.46684,-6.56767 1.85948,-13.00694 1.30479,-19.61987c0.28136,-3.78222 -0.48954,-7.37871 -0.57713,-11.15481c-0.10426,-4.49431 -0.24351,-8.77902 0.10907,-13.00875c-2.80752,-0.40505 -5.59394,-0.92623 -8.28719,-1.61579zM461.39724,235.43988c0.17548,-0.02008 0.38943,-0.01627 0.6294,0.00568c-0.14612,-0.10949 -0.28448,-0.22975 -0.41376,-0.35999c-0.07135,0.12433 -0.14454,0.24486 -0.21564,0.35431z" fill="#c3c3c3" stroke-width="0.5"/><path d="M464.56965,233.53123c0.00699,0.01224 0.01436,0.02444 0.02209,0.03663c0.58929,0.28468 1.09275,0.719 1.46107,1.25362c0.63675,0.54167 1.12464,1.19502 0.65973,2.12493c0,2.07107 -1.67893,3.75 -3.75,3.75c-0.44423,0 -0.87042,-0.07724 -1.26587,-0.21903c-1.31248,0.0379 -2.53064,-0.61894 -3.22084,-2.32567c-1.59026,-3.93238 2.94466,-8.23736 6.03147,-4.63608z" fill="#c3c3c3" stroke-width="0.5"/><path d="M496.1041,249.8219c-3.98318,2.43695 -8.30241,4.16204 -12.46319,6.23686l-2.24414,1.42809c-0.39421,0.25975 -0.86631,0.41091 -1.37371,0.41091c-1.07657,0 -1.99421,-0.68049 -2.34624,-1.63481c-0.73363,-0.43566 -1.22534,-1.23595 -1.22534,-2.15109c0,-0.14102 0.01168,-0.27932 0.03412,-0.41398c-0.0984,-0.11378 -0.19411,-0.24226 -0.28622,-0.387c-1.34219,-2.10915 0.76696,-3.45134 0.76696,-3.45134c2.25573,-1.43546 4.50796,-2.75617 6.79867,-3.99665c-0.88252,-0.06273 -1.76543,-0.12595 -2.64893,-0.18862l-0.01434,-0.00609l-0.00041,0.0049l-2.54823,-0.21235c-1.29477,-0.09421 -2.31595,-1.17452 -2.31595,-2.49333c0,-0.84247 0.41672,-1.58761 1.05528,-2.04054l2.33177,-1.69583l0.06033,0.08295c0.14656,-0.13061 0.29888,-0.25519 0.45796,-0.37269c0.01393,-0.01029 2.65646,-0.47102 4.44305,-0.77293c-1.97293,-1.03302 -2.98942,-1.99757 -2.98761,-3.33108c-1.04201,-0.28114 -1.87689,-0.59352 -2.14857,-0.9177c-2.28586,-2.72755 -2.62324,-4.35061 -1.84268,-5.40231c-1.00435,-0.91894 -0.66256,-2.40006 -0.66256,-2.40006c0.61245,-2.64643 0.85216,-5.35649 1.47021,-7.99287c0.3071,-1.30999 0.09951,-2.97326 1.08671,-3.88749c1.18458,-1.09702 3.03641,-1.17519 4.63375,-1.41015c0.11194,-0.01647 0.25049,-0.02546 0.41066,-0.0281c-0.29099,-3.1686 -0.0925,-6.35539 1.99755,-8.1656c1.06133,-0.91922 2.68929,-0.87667 4.08544,-1.02557c3.73304,-0.39813 7.88787,1.31222 11.42888,2.21444c0.9576,0.24399 2.04032,0.08058 2.91487,0.54068c1.32742,0.69836 2.8666,1.47112 3.49649,2.83236c0.39149,0.84604 -0.49098,5.54865 -0.70867,6.84907l-0.05957,0.08794l0.0373,0.00933l-0.0458,0.18319c0.69875,0.30637 1.29034,0.718 1.65479,1.29163c1.35708,2.13599 -0.05572,6.79616 -1.22125,10.0591c0.87412,0.42425 1.71127,0.87041 2.49824,1.33365c5.58988,3.29036 7.48848,10.50029 1.74462,14.89911c-2.44754,1.87439 -6.08706,2.38712 -9.00849,2.8381c-0.96396,0.00254 -1.92662,-0.00471 -2.88825,-0.02039c-1.38531,1.19785 -3.53719,2.58828 -4.3675,3.09627z" fill="#c3c3c3" stroke-width="0.5"/></g></g></svg>