<svg version="1.1" xmlns="http://www.w3.org/2000/svg" xmlns:xlink="http://www.w3.org/1999/xlink" width="42.83984" height="91.51976" viewBox="0,0,42.83984,91.51976"><g transform="translate(-170.61577,-51.0541)"><g data-paper-data="{&quot;isPaintingLayer&quot;:true}" fill-rule="nonzero" stroke="none" stroke-linecap="butt" stroke-linejoin="miter" stroke-miterlimit="10" stroke-dasharray="" stroke-dashoffset="0" style="mix-blend-mode: normal"><path d="M173.67932,142.57387l-3.06355,-56.36495l38.98391,-5.89572l3.85593,55.20587z" data-paper-data="{&quot;index&quot;:null}" fill-opacity="0.25098" fill="#000000" stroke-width="0"/><path d="M193.9368,92.01065l-0.36744,0.0787c0.08516,0.87017 -0.32961,2.12353 -0.48081,2.76399c-0.26715,1.13167 -0.24472,2.49608 -1.03907,3.42716c-1.35263,1.58545 -7.20137,2.69876 -9.56171,2.76384c-0.20816,0.40094 -0.62715,0.67485 -1.11012,0.67485c-0.69036,0 -1.25,-0.55965 -1.25,-1.25c0,-0.12924 0.01962,-0.25389 0.05603,-0.37116l0.34092,-1.19324c0.00391,-0.01267 0.00785,-0.02529 0.01181,-0.03788c-0.00002,-0.00028 -0.00005,-0.00056 -0.00007,-0.00083c-0.04271,-0.50219 0.91813,-2.16039 1.13615,-2.5653c1.02223,-1.89853 2.33875,-3.21358 3.88129,-4.16762c1.22412,-0.82399 2.60012,-1.41175 3.88504,-1.64917c0.00102,-0.00029 0.00204,-0.00059 0.00306,-0.00089c1.15896,-0.55128 2.36895,-0.99455 3.7262,-1.26928l0.43607,-0.08721c0,0 1.22573,-0.24514 1.47087,0.98058c0.08374,0.41871 -0.00415,0.72299 -0.15619,0.94217c-0.12482,0.77761 -0.98205,0.9613 -0.98205,0.9613z" fill="#000000" stroke-width="0.5"/><path d="M175.96071,113.0107c-1.25,0 -1.25,-1.25 -1.25,-1.25l0.00965,-0.16414c-0.83577,-6.78961 -1.59333,-14.03811 -1.60557,-20.90193c0,0 0,-0.49329 0.30989,-0.86011c0.10407,-0.55782 0.63912,-0.86356 0.63912,-0.86356c1.51423,-0.84919 3.21947,-1.45145 4.97021,-1.94537c0.01857,-0.14353 0.0498,-0.23725 0.0498,-0.23725l0.13277,-0.38666c0.53782,-2.13805 1.05913,-4.23651 1.59591,-6.38366c1.98159,-7.92636 5.13016,-15.78993 6.0348,-23.93317c0,0 0.08182,-0.73636 0.68639,-1.01228c-0.1179,-0.34118 -0.18203,-0.67955 -0.18161,-1.00292c-0.0489,-0.05465 -0.09667,-0.11629 -0.1429,-0.18563c-0.69338,-1.04006 0.34669,-1.73343 0.34669,-1.73343l0.28826,-0.163c2.85367,-2.49639 8.51986,0.42695 8.03449,3.91024c4.08726,2.58123 6.69904,7.19679 10.65223,10.00052l0.63611,0.61205c0,0 0.88388,0.88388 0,1.76777c-0.88388,0.88389 -1.76776,0 -1.76776,0l-0.32144,-0.34549c-3.81566,-2.74214 -6.43769,-7.34756 -10.38797,-9.83651c-1.60406,1.51091 -3.89662,0.77108 -5.49073,-0.65389c-1.05971,7.8769 -4.03875,15.49228 -5.96121,23.1821c-0.47808,1.91235 -0.95073,3.79116 -1.4238,5.69139c0.9433,-0.2244 1.87766,-0.43859 2.7806,-0.66398c3.98015,-0.99353 7.90185,-2.21251 11.88341,-3.2079l1.35122,-0.17119c0,0 1.24034,-0.15505 1.39539,1.0853c0.15505,1.24035 -1.08531,1.39539 -1.08531,1.39539l-1.20225,0.14799c-3.93399,0.9835 -7.8031,2.19107 -11.73612,3.17576c-3.09213,0.77416 -6.7699,1.35168 -9.58634,2.88894c0.00678,6.6668 0.75231,13.73697 1.5864,20.32042l0.00965,0.47422c0,0 0,1.25 -1.25,1.25zM192.35179,54.02339c-0.4309,0.77521 -1.37348,0.53956 -1.37348,0.53956c-3.525,-1.10883 1.68065,2.47085 2.01985,1.70312c0.35616,-0.80613 -0.01801,-1.65363 -0.64637,-2.24269z" fill="#595959" stroke-width="0.5"/><path d="M191.64379,52.72133c1.02459,-0.19637 2.12276,-0.17369 2.68822,1.13086c0.87711,2.02356 -0.95542,3.60092 -2.65407,3.68067c-2.61668,0.12285 -4.76946,-3.3929 -1.58123,-4.9954c0.46885,-0.23566 1.01309,0.00654 1.54709,0.18387z" fill="#3e68d6" stroke-width="0.5"/><path d="M190.24383,109.09915c-0.58116,-0.33209 -0.92604,-1.07576 -1.04408,-1.93756c0.22359,-0.33885 0.60772,-0.56244 1.04408,-0.56244c0.69036,0 1.25,0.55965 1.25,1.25c0,0.69035 -0.55964,1.25 -1.25,1.25c-0.69036,0 -1.25,-0.55965 -1.25,-1.25c0,-0.25401 0.07577,-0.49031 0.20592,-0.68756c-0.25018,-1.82649 0.51853,-4.18363 2.21609,-4.27794c1.53987,-0.08555 3.58827,4.0779 1.80748,4.6715c-0.53134,0.17712 -1.16187,-1.20889 -1.49808,-0.76094c-0.2495,0.33243 0.00833,1.45367 -0.40413,1.68936z" fill="#000000" stroke-width="0.5"/><path d="M197.05493,101.61375c1.28052,0.36988 4.34464,3.6392 2.34743,4.63781c-0.48173,0.24086 -1.14784,-0.29822 -1.61546,-0.03101c-0.21744,0.36843 -0.61849,0.61558 -1.07727,0.61558c-0.69036,0 -1.25,-0.55965 -1.25,-1.25c0,-0.32234 0.12201,-0.61618 0.32237,-0.83786c-0.2995,-1.63028 -0.10583,-3.53278 1.27293,-3.13451z" fill="#000000" stroke-width="0.5"/></g></g></svg>