<svg version="1.1" xmlns="http://www.w3.org/2000/svg" xmlns:xlink="http://www.w3.org/1999/xlink" width="55.64554" height="45.47698" viewBox="0,0,55.64554,45.47698"><defs><linearGradient x1="168.10114" y1="279.29439" x2="168.10114" y2="290.21746" gradientUnits="userSpaceOnUse" id="color-1"><stop offset="0" stop-color="#81471e"/><stop offset="1" stop-color="#914f21"/></linearGradient></defs><g transform="translate(-132.6746,-275.81542)"><g data-paper-data="{&quot;isPaintingLayer&quot;:true}" fill-rule="nonzero" stroke="none" stroke-width="0.5" stroke-linecap="butt" stroke-linejoin="miter" stroke-miterlimit="10" stroke-dasharray="" stroke-dashoffset="0" style="mix-blend-mode: normal"><path d="M150.66541,321.17421c-6.31578,0.68836 -14.34547,-1.6186 -17.7816,-7.2209c-1.11477,-4.9874 2.38273,-6.78979 6.75774,-7.69908c2.84957,-0.59224 5.96641,-0.22128 8.88336,0.7674c0.52589,-2.30723 0.98696,-4.62213 1.22502,-6.88133c0,0 0.13804,-1.24236 1.3804,-1.10432c1.24236,0.13804 1.10431,1.3804 1.10431,1.3804c-0.28825,2.48841 -0.80847,5.02098 -1.38458,7.54154c1.36443,0.63898 2.64976,1.4047 3.8004,2.25603c1.96748,-0.80361 3.93408,-1.61192 5.85935,-2.5152c2.50658,-1.17601 4.41582,-3.20622 7.03888,-4.10582c0,0 1.18586,-0.39529 1.58114,0.79057c0.39529,1.18586 -0.79057,1.58114 -0.79057,1.58114c-1.45625,0.46731 -2.71382,1.37599 -3.9851,2.27378c7.2891,-2.80649 13.64249,-7.31147 19.96498,-11.82754c0,0 1.01716,-0.72654 1.74371,0.29062c0.72655,1.01716 -0.29062,1.74372 -0.29062,1.74372c-6.63701,4.74072 -13.30748,9.41244 -20.98971,12.30446c-2.56572,0.96166 -5.26203,1.65449 -7.99119,2.24649c2.45383,4.13804 -1.60497,7.68532 -6.12592,8.17805zM149.39796,318.52746c-0.55321,0.10843 -1.12887,0.18402 -1.71023,0.2318c0.83648,0.03463 1.65087,0.01892 2.42248,-0.04463c-0.18385,-0.04469 -0.3533,-0.08946 -0.50169,-0.12991c-0.06836,-0.01864 -0.13859,-0.03771 -0.21055,-0.05725z" fill-opacity="0.50196" fill="#000000"/><g><path d="M186.35978,297.79315c-0.88388,0.88389 -1.76776,0 -1.76776,0l-1.12528,-1.12528c-1.72284,-1.73511 -3.00614,-4.14662 -5.06081,-5.47022c0,0 -0.2149,-0.14327 -0.38421,-0.39724c-2.62466,0.77873 -5.42506,1.40096 -8.2536,1.70074c-0.81474,3.35201 -0.42858,7.57098 0.41634,10.85664l0.03732,1.05336c0,0 0,1.25 -1.25,1.25c-1.25,0 -1.25,-1.25 -1.25,-1.25l0.03733,-0.44702c-0.85274,-3.49266 -1.24588,-7.6548 -0.57794,-11.28352c-1.61046,0.05009 -3.21549,-0.02042 -4.78796,-0.24206c-2.29234,-0.1797 -4.47413,-0.61623 -6.66834,-1.31006c-1.13914,2.46526 -1.37898,5.20817 -2.96733,7.59944l-0.2293,0.82719c0,0 -0.39529,1.18586 -1.58114,0.79057c-1.18586,-0.39529 -0.79057,-1.58114 -0.79057,-1.58114l0.52088,-1.42337c1.47039,-2.19656 1.78507,-4.69452 2.73421,-7.03559c-0.09889,-0.03897 -0.19791,-0.07845 -0.29704,-0.11844c-0.90852,-0.36654 -4.79951,-2.39276 -4.89526,-3.32774c-0.12278,-1.19889 2.4305,-2.25152 3.24583,-2.65919c3.78827,-2.53406 8.60456,-5.77472 13.09341,-6.88711c7.33718,-1.81824 15.62052,1.97829 21.42614,5.95909c0.3721,0.66972 1.1163,1.24302 1.1163,2.00916c0,2.52182 -3.93966,3.88316 -6.29328,4.63577c1.65296,1.47853 2.83714,3.40644 4.42679,4.98297l1.12528,1.12528c0,0 0.88388,0.88388 0,1.76776zM156.16177,287.99218c0.08041,0.05361 0.15047,0.1093 0.21129,0.16641c0.41611,-0.05105 0.77964,0.13071 0.77964,0.13071c1.76721,0.89433 3.69179,1.42455 5.67842,1.68381c0.65353,0.04104 1.3221,0.0597 2.01463,0.0597h0.75019c0,0 0.28693,0 0.58585,0.13747c3.04208,-0.01947 6.10471,-0.53319 8.86528,-1.22589c2.37533,-0.59604 4.65935,-1.04615 6.86907,-2.15546c0.42398,-0.21285 3.21,-1.17756 2.30079,-1.74902c-5.22808,-3.3273 -12.56529,-6.94419 -19.08399,-5.29372c-4.25898,1.07833 -8.80029,4.2147 -12.41297,6.61626c-0.21273,0.10636 -0.56405,0.25271 -0.91617,0.37245c0.86738,0.25142 2.07973,0.78119 3.02887,1.21507c0.30484,-0.20056 0.76619,-0.33306 1.32911,0.04221z" fill="#6a3b18"/><path d="M156.11353,288.00544c-0.56292,-0.37527 -1.02462,-0.24415 -1.32946,-0.04359c-0.94914,-0.43388 -2.16252,-0.96933 -3.0299,-1.22075c0.35212,-0.11974 0.70335,-0.26692 0.91608,-0.37328c3.61268,-2.40156 8.17822,-5.58615 12.4372,-6.66448c6.5187,-1.65047 13.9314,2.01033 19.15948,5.33763c0.90921,0.57146 -1.87733,1.54257 -2.30131,1.75542c-2.20972,1.10931 -4.5004,1.57796 -6.87573,2.174c-2.76057,0.6927 -5.8827,1.22771 -8.92478,1.24719c-0.29892,-0.13747 -0.59059,-0.13942 -0.59059,-0.13942l-0.755,-0.00261c-0.69253,0 -1.37038,-0.02604 -2.02391,-0.06708c-1.98663,-0.25926 -3.92327,-0.8093 -5.69048,-1.70363c0,0 -0.36397,-0.18318 -0.78008,-0.13214c-0.06082,-0.05711 -0.13112,-0.11365 -0.21153,-0.16726z" data-paper-data="{&quot;noHover&quot;:false,&quot;origItem&quot;:[&quot;Path&quot;,{&quot;applyMatrix&quot;:true,&quot;segments&quot;:[[[312.32354,575.98435],[0,0],[0.16082,0.10722]],[[312.74612,576.31717],[-0.12164,-0.11422],[0.83222,-0.1021]],[[314.3054,576.57859],[0,0],[3.53442,1.78866]],[[325.66224,579.94621],[-3.97326,-0.51852],[1.30706,0.08208]],[[329.6915,580.06561],[-1.38506,0],[0,0]],[331.19188,580.06561],[[332.36358,580.34055],[-0.59784,-0.27494],[6.08416,-0.03894]],[[350.09414,577.88877],[-5.52114,1.3854],[4.75066,-1.19208]],[[363.83228,573.57785],[-4.41944,2.21862],[0.84796,-0.4257]],[[368.43386,570.07981],[1.81842,1.14292],[-10.45616,-6.6546]],[[330.26588,559.49237],[13.0374,-3.30094],[-8.51796,2.15666]],[[305.43994,572.72489],[7.22536,-4.80312],[-0.42546,0.21272]],[[303.6076,573.46979],[0.70424,-0.23948],[1.73476,0.50284]],[[309.66534,575.89993],[-1.89828,-0.86776],[0.60968,-0.40112]],[[312.32356,575.98435],[-1.12584,-0.75054],[0,0]]],&quot;closed&quot;:true,&quot;fillColor&quot;:[0,0,0,1]}]}" fill="url(#color-1)"/></g><path d="M187.92731,285.65161c-0.88388,0.88389 -1.76777,0 -1.76777,0l-0.58782,-0.59508c-4.53156,-5.4847 -13.35458,-7.41717 -20.19392,-6.54931c0,0 -1.24034,0.15504 -1.39539,-1.08531c-0.15505,-1.24034 1.08531,-1.39539 1.08531,-1.39539c7.73876,-0.95427 17.27378,1.29309 22.42456,7.42955l0.43503,0.42777c0,0 0.88388,0.88388 0,1.76776z" fill-opacity="0.50196" fill="#fa9600"/></g></g></svg>