<svg xmlns="http://www.w3.org/2000/svg" xmlns:xlink="http://www.w3.org/1999/xlink" version="1.1" width="70.95693414450022" height="107.84296624899241" viewBox="-1.5745516669766726 -1.9842883002774538 70.95693414450022 107.84296624899241">
  <defs>
    <linearGradient id="grad_1" y2="1" x2="0">
      <stop offset="0" stop-color="#DBD3BC" stop-opacity="1"/>
      <stop offset="1" stop-color="#E7DEA6" stop-opacity="1"/>
    </linearGradient>
  <linearGradient id="grad_1-0.4454749822616577,0,0,0.4454749822616577,101.8,-29" y2="37.501" x2="64.0041" x1="64.0041" y1="3.7562" gradientUnits="userSpaceOnUse">
      <stop offset="0" stop-color="#DBD3BC" stop-opacity="1"/>
      <stop offset="1" stop-color="#E7DEA6" stop-opacity="1"/>
    </linearGradient></defs>
  <!-- Exported by Scratch - http://scratch.mit.edu/ -->
  <path id="rect8769-9" fill="#A54436" stroke="none" stroke-width="4.276559998992408" d="M 64.0264 60.0776 L 64.0264 80.7784 C 64.0264 93.4923 53.7983 103.7204 41.0844 103.7204 L 29.3765 103.7204 C 16.6626 103.7204 6.4345 93.4923 6.4345 80.7784 L 6.4345 60.0776 L 64.0264 60.0776 Z "/>
  <path id="rect9302" fill="#E25D4A" stroke="none" stroke-width="4.276559998992408" d="M 61.9937 34.2597 L 7.9001 34.2597 C 4.9916 34.2597 2.6502 36.6011 2.6502 39.51 L 2.6502 79.7618 C 2.6502 82.6703 4.9916 85.0122 7.9001 85.0122 L 61.9937 85.0122 C 64.9022 85.0122 67.2441 82.6703 67.2441 79.7618 L 67.2441 39.51 C 67.2441 36.6011 64.9022 34.2597 61.9937 34.2597 Z "/>
  <path id="ID0.4224610994569957" fill="#E3DAAC" stroke="none" d="M 20.2 44 C 22.959 44 25.459 45.121 27.269 46.931 C 29.079 48.741 30.2 51.241 30.2 54 C 30.2 56.759 29.079 59.259 27.269 61.069 C 25.459 62.879 22.959 64 20.2 64 C 17.441 64 14.941 62.879 13.131 61.069 C 11.321 59.259 10.2 56.759 10.2 54 C 10.2 51.241 11.321 48.741 13.131 46.931 C 14.941 45.121 17.441 44 20.2 44 Z " stroke-width="1"/>
  <path id="rect8769" fill="url(#grad_1-0.4454749822616577,0,0,0.4454749822616577,101.8,-29)" stroke="none" stroke-width="4.276559998992408" d="M 41.0483 3.7562 C 53.7627 3.7562 64.0041 13.9839 64.0041 26.6982 L 64.0041 37.501 L 6.3989 37.501 L 6.3989 26.6982 C 6.3989 13.9839 16.6403 3.7562 29.3546 3.7562 L 41.0483 3.7562 Z "/>
  <path id="path9304" fill="#8b735c" stroke="none" stroke-width="4.276559998992408" d="M 1.4505 14.7782 C 4.6771 11.5547 48.0232 19.028 51.4003 27.6029 C 50.9588 26.0077 57.3006 14.036 58.6214 27.3401 C 59.2718 33.8881 65.7838 32.0385 64.883 29.1617 C 66.2409 4.0427 48.5938 -1.0701 32.0502 0.3782 C 15.0086 -0.1248 -3.7651 19.9884 1.4505 14.7782 Z "/>
  <g id="ID0.25995567301288247">
    <path id="path9281" fill="#030302" stroke="none" stroke-width="4.276559998992408" d="M 38.7926 27.2067 C 38.7909 29.185 40.3941 30.7901 42.3725 30.7901 C 44.3508 30.7901 45.9541 29.185 45.9523 27.2067 C 45.9541 25.2283 44.3508 23.6233 42.3725 23.6233 C 40.3941 23.6233 38.7909 25.2283 38.7926 27.2067 Z "/>
    <path id="path9281-8" fill="#030302" stroke="none" stroke-width="4.276559998992408" d="M 22.5926 27.4067 C 22.5909 29.385 24.1941 30.9901 26.1725 30.9901 C 28.1508 30.9901 29.7541 29.385 29.7523 27.4067 C 29.7541 25.4283 28.1508 23.8233 26.1725 23.8233 C 24.1941 23.8233 22.5909 25.4283 22.5926 27.4067 Z "/>
  </g>
  <path id="ID0.4224610994569957" fill="#E3DAAC" stroke="none" d="M 50.177 43.304 C 53.165 43.304 55.8725 44.5181 57.8327 46.4783 C 59.793 48.4385 61.007 51.146 61.007 54.134 C 61.007 57.122 59.793 59.8295 57.8327 61.7897 C 55.8725 63.75 53.165 64.964 50.177 64.964 C 47.189 64.964 44.4815 63.75 42.5213 61.7897 C 40.561 59.8295 39.347 57.122 39.347 54.134 C 39.347 51.146 40.561 48.4385 42.5213 46.4783 C 44.4815 44.5181 47.189 43.304 50.177 43.304 Z " stroke-width="1.0830000638961792"/>
</svg>