<svg version="1.1" xmlns="http://www.w3.org/2000/svg" xmlns:xlink="http://www.w3.org/1999/xlink" width="159.04317" height="76.35016" viewBox="0,0,159.04317,76.35016"><g transform="translate(-179.67369,-169.25338)"><g data-paper-data="{&quot;isPaintingLayer&quot;:true}" fill-rule="nonzero" stroke-linecap="butt" stroke-linejoin="miter" stroke-miterlimit="10" stroke-dasharray="" stroke-dashoffset="0" style="mix-blend-mode: normal"><g><path d="M237.07751,201.20782c1.15185,0.73744 2.30926,1.40113 3.43707,2.24014c0.3771,0.28053 0.97553,0.34682 1.18222,0.76895c0.16603,0.33911 0.13195,0.74582 0.23537,1.10896c0.49537,1.73943 0.94589,3.55357 0.61032,5.39012c-0.10522,0.57592 -0.35363,1.12164 -0.45063,1.69901c-0.04721,0.28097 0.10362,0.58232 0.02091,0.85496c-0.05826,0.19204 -0.30841,0.26726 -0.41348,0.43823c-0.55055,0.89595 -0.98451,1.8715 -1.61649,2.712c-0.73257,1.01001 -1.73738,2.34622 -2.95362,2.76512c-1.53586,0.52898 -3.25624,0.06004 -4.73911,-0.35217c-0.47499,-0.13204 -0.9891,-0.14527 -1.43814,-0.34879c-0.38083,-0.17261 -0.6323,-0.55955 -1.00162,-0.7556c-0.21835,-0.11591 -0.56419,0.02822 -0.72473,-0.15977c-0.80067,-0.93749 -1.38976,-2.05101 -1.901,-3.17289c-0.59132,-1.29762 -0.32205,-2.21538 -1.45784,-3.36153c-1.37894,-1.39152 -2.40126,-0.89479 -4.07006,-1.20326c-1.06928,-0.19764 -2.11614,-0.38131 -3.11475,-0.8229c-0.887,-0.29298 -1.89407,-0.50893 -2.74844,-0.88405c-0.49756,-0.21846 -0.54433,-0.72165 -0.93011,-1.09938c-1.50297,-1.47162 -3.49788,-2.63577 -5.18457,-3.89053c-1.11384,-0.82861 -2.96367,-1.71396 -3.71859,-2.91977c-0.29798,-0.47593 0.11511,-1.33031 0.1904,-1.74746c0.11331,-0.62779 0.0732,-1.31845 0.3804,-1.87754c0.23055,-0.41959 0.69573,-0.74638 0.75908,-1.22093c0.10804,-0.80946 -0.17965,-1.6251 -0.26992,-2.43674c-0.47693,-0.73236 -1.82337,-2.39063 -1.66053,-3.37901c0.21057,-1.27819 1.36184,-2.87456 2.26686,-3.74231c0.64414,-0.61762 1.67019,-1.21072 2.58445,-1.22306c0.39195,-0.00529 0.78337,0.07664 1.17501,0.06021c0.10223,-0.00429 0.2328,0.02711 0.33987,0.01807c0.19059,0.55263 0.47441,1.03507 0.76979,1.54005c0.6771,1.15758 1.57438,1.74168 2.61595,2.51653c1.80692,1.29474 3.86734,1.32962 5.97366,1.83328c0.67618,0.16169 1.42975,0.10706 2.04297,0.43466c1.20618,0.64438 2.14013,1.84283 3.34975,2.50009c0.7148,0.38841 1.55726,0.50738 2.28377,0.87344c1.06298,0.53561 2.65922,1.73386 3.48332,2.59336c0.81118,0.84602 1.20356,1.71229 2.17752,2.46422c0.52337,0.38935 1.57046,1.17057 2.09383,1.55992c0,0 0.16391,0.12225 0.42112,0.22633z" data-paper-data="{&quot;noHover&quot;:false,&quot;origItem&quot;:[&quot;Path&quot;,{&quot;applyMatrix&quot;:true,&quot;segments&quot;:[[[-120.28055,399.18328],[0,0],[1.54452,-0.4028]],[[-117.56097,398.78048],[0,0],[3.75234,0]],[[-102.55159,398.78048],[-3.75234,0],[7.0769,0.12638]],[[-84.06421,402.66196],[-6.64872,-1.11952],[6.75466,1.13736]],[[-59.12527,402.66196],[-6.74506,1.17774],[4.60996,-0.80492]],[[-45.61207,398.85542],[-4.6327,0.66162],[7.8395,-1.11962]],[[-21.60181,398.90962],[-7.7794,1.16736],[3.95506,-0.5935]],[[-10.69361,393.91318],[-3.67598,1.57542],[11.4507,-4.90744]],[[23.15199,381.89494],[-12.7851,0.22832],[7.4677,0]],[[43.86437,384.53232],[-7.09962,-3.0178],[3.09716,1.3165]],[[52.89373,389.0634],[-2.7771,-1.89626],[0.46312,-0.40934]],[[54.33555,387.91386],[-0.4571,0.3708],[1.75116,-1.42054]],[[59.96407,384.16152],[-1.79084,1.37018],[4.17726,-3.19604]],[[67.69013,369.65522],[-0.85238,5.06218],[1.19758,-7.11236]],[[65.30215,344.61942],[3.41676,6.62228],[-2.6421,-5.12084]],[[46.03727,334.7354],[4.71576,1.7426],[-3.20334,-3.43606]],[[36.42727,324.4272],[2.28058,4.10692],[-1.337,-2.4077]],[[35.74099,316.19368],[0.37656,2.72816],[-0.50174,-3.63518]],[[31.05439,306.23216],[1.63254,3.2865],[-1.0848,-2.18382]],[[25.93811,297.52218],[3.00938,1.17354],[-7.6244,-2.97322]],[[-1.23825,296.82926],[7.9858,0],[-12.09292,0]],[[-38.48735,296.70014],[11.98954,1.63166],[-3.07746,-0.41882]],[[-46.54075,294.82396],[3.0465,-0.7001],[-5.23116,1.20216]],[[-62.23225,300.1828],[5.09972,-1.6933],[-6.12512,1.39062]],[[-79.39633,307.06944],[5.61374,-2.75914],[-8.76124,4.30612]],[[-102.27723,315.46186],[11.14208,1.6878],[-9.17732,-1.3902]],[[-120.54511,304.94952],[7.18452,3.95868],[-6.21148,-3.42254]],[[-140.21013,296.82834],[6.91426,1.57778],[-1.3864,-0.31636]],[[-144.10173,298.5763],[1.40574,-0.21474],[-2.37762,0.3632]],[[-151.31717,298.52498],[2.35032,-0.51094],[-2.77126,0.60246]],[[-159.14953,301.84762],[2.64564,-1.0215],[-8.25926,3.18892]],[[-182.22519,316.4768],[5.2723,-7.71476],[-4.1751,6.10928]],[[-186.36021,339.36208],[-0.08678,-7.17684],[-0.03094,6.04908]],[[-184.50919,357.41492],[-0.53528,-6.02544],[0.10214,1.14988]],[[-184.91311,360.85448],[-0.39048,-1.08634],[0.55438,1.54232]],[[-181.88147,364.72536],[-0.74684,-1.45888],[1.53468,2.99784]],[[-178.12913,374.10622],[-1.49176,-3.01942],[4.75698,9.6285]],[[-156.81339,396.86472],[-8.25862,-6.3273],[1.72414,1.32094]],[[-151.92215,401.1698],[-1.93066,-0.99504],[2.40326,1.2386]],[[-143.82739,400.65664],[-2.70368,0],[8.08602,0]],[[-120.28055,399.18326],[-7.84822,0.55132],[0,0]]],&quot;closed&quot;:true,&quot;fillColor&quot;:[0,0,0,1]}]}" fill="#052d04" stroke="#032802" stroke-width="2.5"/><path d="M227.16093,205.24365c0.48362,-0.6501 1.13372,-0.16648 1.13372,-0.16648l0.17956,0.14138c0.86763,0.84285 1.07036,1.65606 1.72132,2.58237c0.68061,0.96848 2.96351,1.08747 3.95859,1.64501c1.449,0.81187 2.0694,1.94508 2.47947,3.49136c0,0 0.20552,0.78377 -0.57824,0.98928c-0.78376,0.20552 -0.98928,-0.57824 -0.98928,-0.57824c-0.73614,-2.84479 -2.9796,-2.53156 -5.175,-3.79774c-1.2945,-0.74659 -1.48047,-2.16623 -2.53794,-3.16186l-0.02575,-0.01137c0,0 -0.6501,-0.48362 -0.16648,-1.13372z" fill="#032802" stroke="none" stroke-width="0.5"/><path d="M211.28045,198.52647c0.58393,-0.56175 1.14567,0.02217 1.14567,0.02217l0.56881,0.59293c2.97046,3.4438 7.25155,1.9175 11.01125,4.02891c0,0 0.70506,0.39925 0.30582,1.10432c-0.39925,0.70506 -1.10432,0.30582 -1.10432,0.30582c-2.28102,-1.30417 -4.17116,-0.81111 -6.53504,-1.28934c-2.05085,-0.41489 -3.57272,-1.55168 -4.90398,-3.0903l-0.51038,-0.52885c0,0 -0.56174,-0.58392 0.02218,-1.14567z" fill="#032802" stroke="none" stroke-width="0.5"/><path d="M223.75005,199.03828c-0.48362,0.6501 -1.13372,0.16648 -1.13372,0.16648l-0.26265,-0.23425c-0.34031,-0.44817 -0.52229,-1.00871 -0.89063,-1.43412c-0.39915,-0.46098 -1.67922,-0.37471 -2.2245,-0.47263c-1.21083,-0.21745 -2.6162,-0.63233 -3.70613,-1.22495c-2.26752,-1.23289 -3.47128,-3.80486 -5.58294,-4.94869c0,0 -0.70506,-0.39925 -0.30581,-1.10432c0.39925,-0.70506 1.10432,-0.30581 1.10432,-0.30581c2.1448,1.25367 3.27159,3.69376 5.562,4.93703c1.80505,0.97981 4.87812,0.6259 6.31611,1.9909c0.45361,0.43059 0.63287,1.0829 1.01483,1.57814l-0.05732,-0.08151c0,0 0.6501,0.48362 0.16648,1.13372z" fill="#032802" stroke="none" stroke-width="0.5"/><path d="M237.437,208.28013c-0.38682,0.71196 -1.09879,0.32514 -1.09879,0.32514l-0.84448,-0.46116c-2.42702,-1.80552 -4.40166,-3.98991 -6.96311,-5.65785c-0.96962,-0.63139 -1.62882,-1.28406 -2.83568,-1.21254c0,0 -0.80975,0.02847 -0.83823,-0.78129c-0.02847,-0.80976 0.7813,-0.83823 0.7813,-0.83823c4.27536,-0.08096 7.61367,4.80734 10.72837,7.12443l0.7455,0.40273c0,0 0.71196,0.38683 0.32514,1.09879z" fill="#032802" stroke="none" stroke-width="0.5"/></g><g stroke="none" stroke-width="0.5"><path d="M298.17012,211.63522c0.23404,-7.78938 -10.73588,-16.2001 -18.1592,-15.87111c-2.36339,0.10474 -4.00374,2.40719 -5.67154,3.78717c-5.77141,-2.64569 -13.61721,-6.9456 -19.5072,-1.56112c-1.97155,1.80234 2.56784,4.54533 2.39944,6.0695c-0.09848,0.89141 -1.30629,1.30078 -2.1405,1.63003c-2.02868,0.80067 -6.02996,-0.74092 -8.08045,-1.10437c-2.32521,-0.17266 -6.15499,-1.13633 -8.04876,0.80951c-1.62249,1.6671 -0.23348,4.0021 0.11915,5.7187c0.16643,0.81025 0.84426,1.88526 0.25733,2.46811c-1.71884,1.7069 -3.94065,0.50124 -5.75529,0.36336c-0.44667,-0.03394 -1.24581,0.047 -1.24941,0.49494c-0.008,0.99374 1.06401,1.67974 1.63676,2.49185c1.44932,2.05498 3.02562,3.77388 4.66813,5.63938c1.69574,1.55069 4.48076,5.18812 7.19034,4.78509c1.36935,-0.20368 2.68695,-1.60712 4.04238,-2.0206c2.62866,-0.80191 7.52778,-1.64066 10.15344,-0.26404c2.42596,1.27191 1.98966,3.99783 3.70789,5.60524c1.15397,1.07953 2.75093,1.36296 4.22656,1.61512c3.04781,0.5374 8.38183,0.44206 10.61966,-2.11238c1.69837,-1.93866 2.83123,-4.68202 4.6768,-6.44146c1.21347,-1.15683 2.86924,-1.25536 4.27286,-1.8819c0.51122,-0.22819 1.26584,-1.48949 1.51686,-1.77101c1.43237,-1.60638 3.19343,-3.08926 4.80923,-4.51317c1.52494,-1.3265 2.61956,-2.75858 4.31552,-3.93683zM300.604,210.28239c0.02783,0.01825 0.05589,0.03783 0.08416,0.05879c1.00399,0.74465 0.25931,1.74864 0.25931,1.74864l-0.98871,1.30592c-1.75259,1.24636 -2.87478,2.65201 -4.45282,4.05331c-2.14212,1.88118 -4.35624,5.34826 -6.83198,6.62932c-1.09403,0.56611 -2.7526,0.5442 -3.72193,1.49613c-1.78191,1.74995 -2.78461,4.44643 -4.53332,6.29766c-2.97576,3.15021 -8.92338,3.58187 -12.89364,2.88182c-1.97312,-0.35707 -4.01931,-0.81779 -5.5322,-2.2818c-1.3532,-1.30949 -1.35308,-4.32001 -3.09707,-5.17001c-4.55395,-2.21954 -8.73801,1.93947 -12.76891,2.53624c-3.74775,0.55485 -6.86524,-3.31037 -9.27343,-5.51703c-2.23395,-2.54129 -4.99835,-5.05585 -6.46646,-8.17681c-1.22059,-2.59477 0.36825,-4.59913 3.12632,-4.69861c1.27445,-0.04597 2.48078,0.67498 3.75467,0.73445c0.21039,0.00982 -0.45426,-0.10721 -0.56247,-0.28791c-0.29589,-0.49415 -0.40959,-1.07727 -0.58374,-1.62627c-0.61857,-1.95007 -0.56392,-4.90956 0.97403,-6.53504c2.62277,-2.77201 6.88118,-1.87966 10.22578,-1.62645c1.59017,0.27901 2.63585,0.46196 4.2828,0.75358c0.60401,0.10696 1.20402,0.23917 1.81174,0.32264c0.4684,0.06434 1.78655,0.60181 1.36362,0.39044c-2.63296,-1.31589 -3.91813,-4.88967 -1.77391,-7.28846c0.35046,-0.39208 3.44046,-1.9613 3.81482,-2.10832c5.33567,-2.0954 12.95662,-1.31403 17.17607,2.90024c2.29255,-4.9737 8.47415,-4.03933 12.61074,-2.37926c6.09656,2.44664 13.24234,8.65153 13.99652,15.58678z" fill="#032802"/><path d="M298.22011,211.63407c-1.69596,1.17825 -2.79088,2.61703 -4.31581,3.94353c-1.6158,1.42391 -3.37901,2.91669 -4.81138,4.52307c-0.25103,0.28152 -1.00721,1.54701 -1.51843,1.7752c-1.40363,0.62654 -3.06315,0.73221 -4.27662,1.88904c-1.84557,1.75944 -2.99084,4.51615 -4.68922,6.45481c-2.23783,2.55445 -7.5952,2.65922 -10.64301,2.12182c-1.47564,-0.25216 -3.0835,-0.53537 -4.23747,-1.6149c-1.71823,-1.60741 -1.29688,-4.33705 -3.72284,-5.60896c-2.62566,-1.37661 -7.54373,-0.55188 -10.1724,0.25003c-1.35542,0.41348 -2.67435,1.81526 -4.0437,2.01895c-2.70959,0.40303 -5.50164,-3.24699 -7.19738,-4.79769c-1.64251,-1.86549 -3.22157,-3.59504 -4.67089,-5.65002c-0.57276,-0.81211 -1.64519,-1.50217 -1.63719,-2.49591c0.00361,-0.44794 0.90259,-0.53445 1.34926,-0.50051c1.81464,0.13789 3.93655,1.3483 5.6554,-0.35859c0.58693,-0.58285 -0.09089,-1.66258 -0.25732,-2.47283c-0.35263,-1.7166 -1.74004,-4.06198 -0.11755,-5.72907c1.89377,-1.94584 5.72587,-0.98893 8.05108,-0.81626c2.0505,0.36345 6.05589,1.89729 8.08457,1.09663c0.83421,-0.32925 2.04897,-0.74708 2.14746,-1.63849c0.16839,-1.52418 -4.36558,-4.27176 -2.39403,-6.0741c5.88999,-5.38447 13.79398,-1.08519 19.56539,1.5605c1.66781,-1.37998 3.31255,-3.67897 5.67594,-3.78371c7.42332,-0.32899 18.41017,8.11811 18.17613,15.9075z" data-paper-data="{&quot;noHover&quot;:false,&quot;origItem&quot;:[&quot;Path&quot;,{&quot;applyMatrix&quot;:true,&quot;segments&quot;:[[[609.22273,444.75653],[0,0],[5.9983,-14.38532]],[[586.62787,402.14118],[14.10339,4.68508],[-4.49015,-1.49161]],[[573.32832,405.16744],[4.10107,-1.38743],[-8.89353,-9.06316]],[[537.99878,388.32416],[14.84801,-5.85445],[-4.97006,1.95966]],[[538.14832,401.37646],[1.40275,-2.7273],[-0.8204,1.59505]],[[532.98564,402.89357],[1.79355,-0.01955],[-4.36167,0.0475]],[[518.67789,395.06149],[3.57134,2.14292],[-4.22078,-1.98261]],[[503.06298,390.82761],[4.9272,-2.28327],[-4.22138,1.95619]],[[499.20284,401.59655],[0.56673,-3.45877],[-0.26752,1.63256]],[[497.92153,406.39128],[1.51263,-0.66988],[-4.42981,1.96175]],[[486.90988,402.96126],[3.29174,1.55313],[-0.81026,-0.3823]],[[484.22232,402.99392],[0.32653,-0.83428],[-0.72441,1.85084]],[[485.50119,408.81782],[-0.49026,-1.92613],[1.24055,4.8739]],[[490.19625,422.68621],[-1.73677,-4.65781],[2.06096,4.1077]],[[500.2133,436.75927],[-5.34988,-1.1815],[2.70369,0.59709]],[[509.20798,435.87027],[-2.82744,-0.19519],[5.48347,0.37852]],[[528.36551,442.62579],[-3.92254,-4.44637],[3.62421,4.10818]],[[531.29098,455.74488],[-2.06249,-4.22972],[1.38517,2.84068]],[[538.03412,461.77976],[-2.57681,-1.52461],[5.31036,3.1799]],[[559.38225,465.415],[-6.00449,3.17466],[4.55702,-2.40936]],[[572.71836,456.71973],[-4.70408,1.96944],[3.09295,-1.2949]],[[582.04462,456.25441],[-3.06961,0.16843],[1.11799,-0.06133]],[[586.14284,454.02868],[-0.66996,0.34673],[3.82284,-1.97849]],[[598.3497,449.03046],[-4.03526,1.50663],[3.79597,-1.38953]],[[609.22272,444.7565],[-4.00964,0.99045],[0,0]]],&quot;closed&quot;:true,&quot;fillColor&quot;:[0,0,0,1]}]}" fill="#052d04"/><path d="M274.10812,230.23609c-1.24967,0.02858 -1.27825,-1.22109 -1.27825,-1.22109l-0.02298,-1.0889c0.01542,-0.44274 0.03085,-0.88549 0.04627,-1.32823c-0.21375,-2.01107 -0.54169,-4.24778 0.28557,-6.19238c3.00111,-7.05462 14.315,-5.0353 16.58394,-12.39822c0,0 0.38897,-1.18794 1.57691,-0.79898c1.18794,0.38896 0.79897,1.57691 0.79897,1.57691c-1.93825,5.67559 -6.98681,6.11613 -11.52552,8.71454c-1.80842,1.03532 -4.24634,1.78494 -5.13788,3.89391c-0.65905,1.55901 -0.24719,3.51485 -0.08356,5.11531c-0.01534,0.49957 -0.03068,0.99913 -0.04601,1.49869l0.02365,0.95018c0,0 0.02858,1.24967 -1.2211,1.27825z" fill="#032802"/><path d="M236.76468,218.79303c0.74467,-1.00398 1.74865,-0.25932 1.74865,-0.25932l0.20973,0.1712c1.54583,0.83704 3.00316,1.6542 4.68591,2.18275c5.78221,0.14818 13.79871,-6.72469 18.72824,-1.73846c1.74272,1.76278 3.03307,4.71102 4.13608,6.88688c0,0 0.56496,1.11504 -0.55008,1.68c-1.11504,0.56496 -1.68001,-0.55008 -1.68001,-0.55008c-0.91079,-1.7985 -2.47449,-5.91981 -4.44391,-6.82903c-2.3334,-1.07726 -4.21119,-0.10439 -6.4109,0.76536c-3.35786,1.32767 -6.54195,2.38811 -10.19191,2.25107c-1.97941,-0.60138 -3.65444,-1.47034 -5.46381,-2.45008l-0.50866,-0.36164c0,0 -1.00398,-0.74467 -0.25932,-1.74865z" fill="#032802"/><path d="M282.52509,202.73612c1.00398,0.74467 0.25932,1.74865 0.25932,1.74865l-0.08245,0.0035c-1.40271,4.23658 -7.42052,9.23367 -11.855,9.93211c-2.98742,-0.09399 -5.85827,-1.19828 -8.81684,-1.32984c-2.27415,-0.10113 -4.50593,0.97336 -6.80404,1.02086c-3.7937,0.07841 -7.61604,-1.1984 -11.42719,-1.38978c0,0 -1.24843,-0.0627 -1.18574,-1.31113c0.06269,-1.24842 1.31112,-1.18573 1.31112,-1.18573c3.73096,0.18735 7.53046,1.48198 11.23482,1.38754c2.36041,-0.06019 4.59896,-1.1148 6.95946,-1.02019c2.88312,0.11555 5.68606,1.23318 8.58525,1.33238c3.3609,-0.44564 8.5987,-5.04655 9.62227,-8.21415l0.45038,-0.71489c0,0 0.74466,-1.00398 1.74864,-0.25932z" fill="#032802"/><path d="M258.23438,207.79698c-0.71697,-1.02393 0.30697,-1.74091 0.30697,-1.74091l1.05566,-0.66088c0.18599,-0.05416 0.50018,-0.12408 0.8003,-0.16943c-0.38297,-0.39972 -0.72626,-1.14236 -0.73905,-1.59967c-0.0221,-0.78997 0.2265,-1.64334 0.72353,-2.25775c0.4669,-0.57718 1.22433,-0.95464 1.95937,-1.05883c1.22964,-0.17429 3.10889,0.92367 4.44111,0.95479c1.11827,0.02612 2.44519,-0.37892 3.55326,-0.54325c0,0 1.23648,-0.18337 1.41984,1.05311c0.18336,1.23648 -1.05312,1.41984 -1.05312,1.41984c-1.92149,0.28494 -3.59962,0.64007 -5.53283,0.30808c-0.30273,-0.05199 -2.64532,-0.83211 -2.8651,-0.53565c-0.58857,0.79392 1.46665,2.10482 1.28977,2.84722c-0.30364,1.27447 -2.27825,1.67334 -3.28431,1.97778l-0.33448,0.31252c0,0 -1.02395,0.71697 -1.74092,-0.30696z" fill="#032802"/></g><g data-paper-data="{&quot;index&quot;:null}"><path d="M319.60668,225.16343c-0.26849,-0.07002 -0.47297,-0.06977 -0.47297,-0.06977c-0.65231,0 -1.95872,0.00182 -2.61103,0.00182c-1.23025,0.02197 -2.06212,0.4828 -3.21793,0.67742c-1.17422,0.19772 -3.17014,0.20637 -4.3427,0.00164c-0.80139,-0.13993 -1.54834,-0.54732 -2.35368,-0.66233c-1.36282,-0.19464 -2.82749,0.20946 -4.17986,0.00653c-0.68754,-0.10317 -1.25955,-0.59678 -1.89858,-0.87065c-1.99059,-0.8531 -3.66456,-2.05493 -5.88711,-2.09462c-1.29818,0 -2.36673,-0.06692 -3.60092,0.4577c-0.53841,0.22886 -1.05408,0.44653 -1.53685,0.77617c-0.08051,-0.07116 -0.20401,-0.1239 -0.28347,-0.18836c-0.30442,-0.24695 -0.66737,-0.41484 -0.97869,-0.65303c-0.72618,-0.5556 -1.19541,-1.64389 -1.34358,-2.5239c-0.20819,-1.23641 -0.17906,-3.2044 0.41491,-4.35562c0.45929,-0.89021 2.52936,-1.41704 3.34915,-1.71997c0.55687,-0.59733 1.27453,-1.08003 1.67099,-1.79397c0.23242,-0.41856 0.05424,-0.95841 0.11971,-1.43267c0.08723,-0.63194 0.53165,-1.16214 0.81545,-1.73347c0.18858,-0.37963 0.3671,-1.31169 0.89025,-1.51569c1.32542,-0.51687 3.33804,-0.1231 4.72629,-0.1231c2.10223,0 4.39766,0.25668 6.48192,-0.02697c0.53498,-0.0728 0.87285,-0.44861 1.40245,-0.32691c0.90938,0.20898 1.84629,0.63681 2.73283,0.93117c1.06479,0.24175 2.01435,0.71923 2.99024,1.19888c1.52305,0.74857 2.0468,1.75731 3.98374,1.4639c1.59539,-0.24167 1.92714,-1.13874 3.17609,-1.82692c1.0798,-0.59498 2.21708,-1.13678 3.41905,-1.41106c0.24101,-0.055 0.43247,0.26706 0.67684,0.30439c0.41333,0.06314 0.84605,-0.09722 1.25463,-0.0084c0.48175,0.10473 0.90214,0.40097 1.36205,0.57854c1.43579,0.55436 3.09601,1.20497 4.01255,2.5461c0.7258,1.06204 0.73444,2.73387 0.71936,3.98149c0.00539,1.05157 -0.22871,2.09331 -0.32176,3.14077c-0.01775,0.19989 0.13806,0.40955 0.07018,0.5984c-0.09637,0.26811 -0.39725,0.41987 -0.52708,0.67348c-0.26679,0.52114 -0.39321,1.10725 -0.65254,1.63214c-0.82695,1.67382 -2.27123,2.86046 -3.70691,3.96039c-0.29972,0.22963 -0.51513,0.57629 -0.85075,0.74927c-0.41779,0.21532 -0.9375,-0.08868 -1.4075,-0.08868c-1.40566,0 -2.73043,-0.15832 -4.09476,-0.25416z" data-paper-data="{&quot;noHover&quot;:false,&quot;origItem&quot;:[&quot;Path&quot;,{&quot;applyMatrix&quot;:true,&quot;segments&quot;:[[[-120.28055,399.18328],[0,0],[1.54452,-0.4028]],[[-117.56097,398.78048],[0,0],[3.75234,0]],[[-102.55159,398.78048],[-3.75234,0],[7.0769,0.12638]],[[-84.06421,402.66196],[-6.64872,-1.11952],[6.75466,1.13736]],[[-59.12527,402.66196],[-6.74506,1.17774],[4.60996,-0.80492]],[[-45.61207,398.85542],[-4.6327,0.66162],[7.8395,-1.11962]],[[-21.60181,398.90962],[-7.7794,1.16736],[3.95506,-0.5935]],[[-10.69361,393.91318],[-3.67598,1.57542],[11.4507,-4.90744]],[[23.15199,381.89494],[-12.7851,0.22832],[7.4677,0]],[[43.86437,384.53232],[-7.09962,-3.0178],[3.09716,1.3165]],[[52.89373,389.0634],[-2.7771,-1.89626],[0.46312,-0.40934]],[[54.33555,387.91386],[-0.4571,0.3708],[1.75116,-1.42054]],[[59.96407,384.16152],[-1.79084,1.37018],[4.17726,-3.19604]],[[67.69013,369.65522],[-0.85238,5.06218],[1.19758,-7.11236]],[[65.30215,344.61942],[3.41676,6.62228],[-2.6421,-5.12084]],[[46.03727,334.7354],[4.71576,1.7426],[-3.20334,-3.43606]],[[36.42727,324.4272],[2.28058,4.10692],[-1.337,-2.4077]],[[35.74099,316.19368],[0.37656,2.72816],[-0.50174,-3.63518]],[[31.05439,306.23216],[1.63254,3.2865],[-1.0848,-2.18382]],[[25.93811,297.52218],[3.00938,1.17354],[-7.6244,-2.97322]],[[-1.23825,296.82926],[7.9858,0],[-12.09292,0]],[[-38.48735,296.70014],[11.98954,1.63166],[-3.07746,-0.41882]],[[-46.54075,294.82396],[3.0465,-0.7001],[-5.23116,1.20216]],[[-62.23225,300.1828],[5.09972,-1.6933],[-6.12512,1.39062]],[[-79.39633,307.06944],[5.61374,-2.75914],[-8.76124,4.30612]],[[-102.27723,315.46186],[11.14208,1.6878],[-9.17732,-1.3902]],[[-120.54511,304.94952],[7.18452,3.95868],[-6.21148,-3.42254]],[[-140.21013,296.82834],[6.91426,1.57778],[-1.3864,-0.31636]],[[-144.10173,298.5763],[1.40574,-0.21474],[-2.37762,0.3632]],[[-151.31717,298.52498],[2.35032,-0.51094],[-2.77126,0.60246]],[[-159.14953,301.84762],[2.64564,-1.0215],[-8.25926,3.18892]],[[-182.22519,316.4768],[5.2723,-7.71476],[-4.1751,6.10928]],[[-186.36021,339.36208],[-0.08678,-7.17684],[-0.03094,6.04908]],[[-184.50919,357.41492],[-0.53528,-6.02544],[0.10214,1.14988]],[[-184.91311,360.85448],[-0.39048,-1.08634],[0.55438,1.54232]],[[-181.88147,364.72536],[-0.74684,-1.45888],[1.53468,2.99784]],[[-178.12913,374.10622],[-1.49176,-3.01942],[4.75698,9.6285]],[[-156.81339,396.86472],[-8.25862,-6.3273],[1.72414,1.32094]],[[-151.92215,401.1698],[-1.93066,-0.99504],[2.40326,1.2386]],[[-143.82739,400.65664],[-2.70368,0],[8.08602,0]],[[-120.28055,399.18326],[-7.84822,0.55132],[0,0]]],&quot;closed&quot;:true,&quot;fillColor&quot;:[0,0,0,1]}]}" fill="#052d04" stroke="#032802" stroke-width="2.5"/><path d="M314.05913,216.00634c0,-0.81026 0.81026,-0.81026 0.81026,-0.81026l0.02745,0.00625c1.44271,-0.16765 2.43927,-1.19568 3.92351,-1.02204c2.51719,0.29448 4.13024,1.88486 6.41885,0.04177c0,0 0.6327,-0.50616 1.13887,0.12654c0.50617,0.6327 -0.12654,1.13887 -0.12654,1.13887c-1.25195,0.99587 -2.4261,1.53478 -4.07327,1.3213c-1.13117,-0.14661 -3.03384,-1.41375 -4.15798,-1.04294c-1.07518,0.35467 -1.72323,0.88613 -2.92243,1.04451l-0.22845,0.00626c0,0 -0.81026,0 -0.81026,-0.81026z" fill="#032802" stroke="none" stroke-width="0.5"/><path d="M297.97441,210.98466l0.72515,-0.11968c1.98648,-0.43989 3.88604,-0.44361 5.77915,0.44761c2.18207,1.02724 3.40429,2.55102 6.01286,2.86612c0,0 0.804,0.10051 0.7035,0.90451c-0.10051,0.804 -0.90451,0.7035 -0.90451,0.7035c-4.27678,-0.55001 -6.80064,-4.32988 -11.23946,-3.3398l-0.81028,0.13622c0,0 -0.79923,0.13321 -0.93244,-0.66603c-0.1332,-0.79924 0.66603,-0.93245 0.66603,-0.93245z" fill="#032802" stroke="none" stroke-width="0.5"/><path d="M307.61866,218.94927c0,0.81026 -0.81026,0.81026 -0.81026,0.81026l0.09464,-0.03118c-0.60206,0.16937 -1.13524,0.58574 -1.75619,0.66047c-1.96848,0.23689 -4.22287,-1.88131 -6.25595,-2.17256c-2.57975,-0.36957 -4.94024,0.91565 -7.40937,0.64133c0,0 -0.804,-0.1005 -0.7035,-0.9045c0.1005,-0.804 0.9045,-0.7035 0.9045,-0.7035c2.37698,0.34266 4.87794,-1.00243 7.43313,-0.63819c1.22821,0.17508 2.60342,0.68104 3.7047,1.22928c0.49595,0.2469 1.4715,1.08016 2.0669,0.94854c0.54946,-0.12147 1.03004,-0.46259 1.57058,-0.61905l0.35055,-0.03118c0,0 0.81026,0 0.81026,0.81026z" fill="#032802" stroke="none" stroke-width="0.5"/><path d="M324.11641,219.7036c-0.11459,0.80212 -0.91671,0.68753 -0.91671,0.68753l-0.83852,-0.12185c-3.88204,0 -9.47818,1.92949 -12.86013,-0.68732c0,0 -0.63271,-0.50618 -0.12654,-1.13888c0.50617,-0.6327 1.13887,-0.12654 1.13887,-0.12654c0.92562,0.77772 1.84408,0.64752 2.9989,0.71968c3.05069,0.19062 5.93882,-0.38338 8.96377,-0.38338l0.95281,0.13405c0,0 0.80212,0.1146 0.68753,0.91671z" fill="#032802" stroke="none" stroke-width="0.5"/></g><path d="" fill="#032802" stroke="none" stroke-width="0.5"/><g stroke="none" stroke-width="0.5"><path d="" fill="#032802"/><path d="" data-paper-data="{&quot;noHover&quot;:false,&quot;origItem&quot;:[&quot;Path&quot;,{&quot;applyMatrix&quot;:true,&quot;segments&quot;:[[[609.22273,444.75653],[0,0],[5.9983,-14.38532]],[[586.62787,402.14118],[14.10339,4.68508],[-4.49015,-1.49161]],[[573.32832,405.16744],[4.10107,-1.38743],[-8.89353,-9.06316]],[[537.99878,388.32416],[14.84801,-5.85445],[-4.97006,1.95966]],[[538.14832,401.37646],[1.40275,-2.7273],[-0.8204,1.59505]],[[532.98564,402.89357],[1.79355,-0.01955],[-4.36167,0.0475]],[[518.67789,395.06149],[3.57134,2.14292],[-4.22078,-1.98261]],[[503.06298,390.82761],[4.9272,-2.28327],[-4.22138,1.95619]],[[499.20284,401.59655],[0.56673,-3.45877],[-0.26752,1.63256]],[[497.92153,406.39128],[1.51263,-0.66988],[-4.42981,1.96175]],[[486.90988,402.96126],[3.29174,1.55313],[-0.81026,-0.3823]],[[484.22232,402.99392],[0.32653,-0.83428],[-0.72441,1.85084]],[[485.50119,408.81782],[-0.49026,-1.92613],[1.24055,4.8739]],[[490.19625,422.68621],[-1.73677,-4.65781],[2.06096,4.1077]],[[500.2133,436.75927],[-5.34988,-1.1815],[2.70369,0.59709]],[[509.20798,435.87027],[-2.82744,-0.19519],[5.48347,0.37852]],[[528.36551,442.62579],[-3.92254,-4.44637],[3.62421,4.10818]],[[531.29098,455.74488],[-2.06249,-4.22972],[1.38517,2.84068]],[[538.03412,461.77976],[-2.57681,-1.52461],[5.31036,3.1799]],[[559.38225,465.415],[-6.00449,3.17466],[4.55702,-2.40936]],[[572.71836,456.71973],[-4.70408,1.96944],[3.09295,-1.2949]],[[582.04462,456.25441],[-3.06961,0.16843],[1.11799,-0.06133]],[[586.14284,454.02868],[-0.66996,0.34673],[3.82284,-1.97849]],[[598.3497,449.03046],[-4.03526,1.50663],[3.79597,-1.38953]],[[609.22272,444.7565],[-4.00964,0.99045],[0,0]]],&quot;closed&quot;:true,&quot;fillColor&quot;:[0,0,0,1]}]}" fill="#052d04"/><path d="" fill="#032802"/><path d="" fill="#032802"/><path d="" fill="#032802"/><path d="" fill="#032802"/></g><g><path d="" fill="#191d11" stroke="none" stroke-width="0.5"/><path d="" fill="#191d11" stroke="none" stroke-width="0.5"/><path d="" fill="#191d11" stroke="none" stroke-width="0.5"/><path d="" fill="#191d11" stroke="none" stroke-width="0.5"/><path d="" fill="#191d11" stroke="none" stroke-width="0.5"/><path d="" fill="#191d11" stroke="none" stroke-width="0.5"/><path d="" fill="#0d150c" stroke="#032802" stroke-width="0"/><path d="" fill="#191d11" stroke="none" stroke-width="0.5"/><path d="" fill="#191d11" stroke="none" stroke-width="0.5"/><path d="" fill="#191d11" stroke="none" stroke-width="0"/><path d="" fill="#191d11" stroke="none" stroke-width="0"/><g><path d="" data-paper-data="{&quot;noHover&quot;:false,&quot;origItem&quot;:[&quot;Path&quot;,{&quot;applyMatrix&quot;:true,&quot;segments&quot;:[[[-120.28055,399.18328],[0,0],[1.54452,-0.4028]],[[-117.56097,398.78048],[0,0],[3.75234,0]],[[-102.55159,398.78048],[-3.75234,0],[7.0769,0.12638]],[[-84.06421,402.66196],[-6.64872,-1.11952],[6.75466,1.13736]],[[-59.12527,402.66196],[-6.74506,1.17774],[4.60996,-0.80492]],[[-45.61207,398.85542],[-4.6327,0.66162],[7.8395,-1.11962]],[[-21.60181,398.90962],[-7.7794,1.16736],[3.95506,-0.5935]],[[-10.69361,393.91318],[-3.67598,1.57542],[11.4507,-4.90744]],[[23.15199,381.89494],[-12.7851,0.22832],[7.4677,0]],[[43.86437,384.53232],[-7.09962,-3.0178],[3.09716,1.3165]],[[52.89373,389.0634],[-2.7771,-1.89626],[0.46312,-0.40934]],[[54.33555,387.91386],[-0.4571,0.3708],[1.75116,-1.42054]],[[59.96407,384.16152],[-1.79084,1.37018],[4.17726,-3.19604]],[[67.69013,369.65522],[-0.85238,5.06218],[1.19758,-7.11236]],[[65.30215,344.61942],[3.41676,6.62228],[-2.6421,-5.12084]],[[46.03727,334.7354],[4.71576,1.7426],[-3.20334,-3.43606]],[[36.42727,324.4272],[2.28058,4.10692],[-1.337,-2.4077]],[[35.74099,316.19368],[0.37656,2.72816],[-0.50174,-3.63518]],[[31.05439,306.23216],[1.63254,3.2865],[-1.0848,-2.18382]],[[25.93811,297.52218],[3.00938,1.17354],[-7.6244,-2.97322]],[[-1.23825,296.82926],[7.9858,0],[-12.09292,0]],[[-38.48735,296.70014],[11.98954,1.63166],[-3.07746,-0.41882]],[[-46.54075,294.82396],[3.0465,-0.7001],[-5.23116,1.20216]],[[-62.23225,300.1828],[5.09972,-1.6933],[-6.12512,1.39062]],[[-79.39633,307.06944],[5.61374,-2.75914],[-8.76124,4.30612]],[[-102.27723,315.46186],[11.14208,1.6878],[-9.17732,-1.3902]],[[-120.54511,304.94952],[7.18452,3.95868],[-6.21148,-3.42254]],[[-140.21013,296.82834],[6.91426,1.57778],[-1.3864,-0.31636]],[[-144.10173,298.5763],[1.40574,-0.21474],[-2.37762,0.3632]],[[-151.31717,298.52498],[2.35032,-0.51094],[-2.77126,0.60246]],[[-159.14953,301.84762],[2.64564,-1.0215],[-8.25926,3.18892]],[[-182.22519,316.4768],[5.2723,-7.71476],[-4.1751,6.10928]],[[-186.36021,339.36208],[-0.08678,-7.17684],[-0.03094,6.04908]],[[-184.50919,357.41492],[-0.53528,-6.02544],[0.10214,1.14988]],[[-184.91311,360.85448],[-0.39048,-1.08634],[0.55438,1.54232]],[[-181.88147,364.72536],[-0.74684,-1.45888],[1.53468,2.99784]],[[-178.12913,374.10622],[-1.49176,-3.01942],[4.75698,9.6285]],[[-156.81339,396.86472],[-8.25862,-6.3273],[1.72414,1.32094]],[[-151.92215,401.1698],[-1.93066,-0.99504],[2.40326,1.2386]],[[-143.82739,400.65664],[-2.70368,0],[8.08602,0]],[[-120.28055,399.18326],[-7.84822,0.55132],[0,0]]],&quot;closed&quot;:true,&quot;fillColor&quot;:[0,0,0,1]}]}" fill="#052d04" stroke="#032802" stroke-width="2.5"/><path d="" fill="#032802" stroke="none" stroke-width="0.5"/><path d="" fill="#032802" stroke="none" stroke-width="0.5"/><path d="" fill="#032802" stroke="none" stroke-width="0.5"/><path d="" fill="#032802" stroke="none" stroke-width="0.5"/></g><g><path d="" data-paper-data="{&quot;noHover&quot;:false,&quot;origItem&quot;:[&quot;Path&quot;,{&quot;applyMatrix&quot;:true,&quot;segments&quot;:[[[-120.28055,399.18328],[0,0],[1.54452,-0.4028]],[[-117.56097,398.78048],[0,0],[3.75234,0]],[[-102.55159,398.78048],[-3.75234,0],[7.0769,0.12638]],[[-84.06421,402.66196],[-6.64872,-1.11952],[6.75466,1.13736]],[[-59.12527,402.66196],[-6.74506,1.17774],[4.60996,-0.80492]],[[-45.61207,398.85542],[-4.6327,0.66162],[7.8395,-1.11962]],[[-21.60181,398.90962],[-7.7794,1.16736],[3.95506,-0.5935]],[[-10.69361,393.91318],[-3.67598,1.57542],[11.4507,-4.90744]],[[23.15199,381.89494],[-12.7851,0.22832],[7.4677,0]],[[43.86437,384.53232],[-7.09962,-3.0178],[3.09716,1.3165]],[[52.89373,389.0634],[-2.7771,-1.89626],[0.46312,-0.40934]],[[54.33555,387.91386],[-0.4571,0.3708],[1.75116,-1.42054]],[[59.96407,384.16152],[-1.79084,1.37018],[4.17726,-3.19604]],[[67.69013,369.65522],[-0.85238,5.06218],[1.19758,-7.11236]],[[65.30215,344.61942],[3.41676,6.62228],[-2.6421,-5.12084]],[[46.03727,334.7354],[4.71576,1.7426],[-3.20334,-3.43606]],[[36.42727,324.4272],[2.28058,4.10692],[-1.337,-2.4077]],[[35.74099,316.19368],[0.37656,2.72816],[-0.50174,-3.63518]],[[31.05439,306.23216],[1.63254,3.2865],[-1.0848,-2.18382]],[[25.93811,297.52218],[3.00938,1.17354],[-7.6244,-2.97322]],[[-1.23825,296.82926],[7.9858,0],[-12.09292,0]],[[-38.48735,296.70014],[11.98954,1.63166],[-3.07746,-0.41882]],[[-46.54075,294.82396],[3.0465,-0.7001],[-5.23116,1.20216]],[[-62.23225,300.1828],[5.09972,-1.6933],[-6.12512,1.39062]],[[-79.39633,307.06944],[5.61374,-2.75914],[-8.76124,4.30612]],[[-102.27723,315.46186],[11.14208,1.6878],[-9.17732,-1.3902]],[[-120.54511,304.94952],[7.18452,3.95868],[-6.21148,-3.42254]],[[-140.21013,296.82834],[6.91426,1.57778],[-1.3864,-0.31636]],[[-144.10173,298.5763],[1.40574,-0.21474],[-2.37762,0.3632]],[[-151.31717,298.52498],[2.35032,-0.51094],[-2.77126,0.60246]],[[-159.14953,301.84762],[2.64564,-1.0215],[-8.25926,3.18892]],[[-182.22519,316.4768],[5.2723,-7.71476],[-4.1751,6.10928]],[[-186.36021,339.36208],[-0.08678,-7.17684],[-0.03094,6.04908]],[[-184.50919,357.41492],[-0.53528,-6.02544],[0.10214,1.14988]],[[-184.91311,360.85448],[-0.39048,-1.08634],[0.55438,1.54232]],[[-181.88147,364.72536],[-0.74684,-1.45888],[1.53468,2.99784]],[[-178.12913,374.10622],[-1.49176,-3.01942],[4.75698,9.6285]],[[-156.81339,396.86472],[-8.25862,-6.3273],[1.72414,1.32094]],[[-151.92215,401.1698],[-1.93066,-0.99504],[2.40326,1.2386]],[[-143.82739,400.65664],[-2.70368,0],[8.08602,0]],[[-120.28055,399.18326],[-7.84822,0.55132],[0,0]]],&quot;closed&quot;:true,&quot;fillColor&quot;:[0,0,0,1]}]}" fill="#052d04" stroke="#032802" stroke-width="2.5"/><path d="" fill="#032802" stroke="none" stroke-width="0.5"/><path d="" fill="#032802" stroke="none" stroke-width="0.5"/><path d="" fill="#032802" stroke="none" stroke-width="0.5"/><path d="" fill="#032802" stroke="none" stroke-width="0.5"/></g><path d="" fill="#032802" stroke="none" stroke-width="0.5"/><path d="" data-paper-data="{&quot;noHover&quot;:false,&quot;origItem&quot;:[&quot;Path&quot;,{&quot;applyMatrix&quot;:true,&quot;segments&quot;:[[[588.07498,443.32253],[2.93119,-2.90967],[2.2442,15.42338]],[[629.35351,468.27605],[-14.50683,3.22602],[4.6186,-1.02708]],[[639.20903,458.84711],[-2.80569,3.29723],[12.28629,3.20666]],[[678.17292,455.14729],[-9.73106,12.65088],[3.25727,-4.23463]],[[671.33905,444.02599],[0.19766,3.06052],[-0.1156,-1.78993]],[[674.98894,440.07209],[-1.52873,0.93819],[3.71766,-2.28154]],[[691.28785,439.44104],[-4.16491,-0.00375],[4.63974,-0.46745]],[[706.85969,435.05138],[-3.05423,4.49023],[2.61672,-3.84701]],[[704.63897,423.82911],[1.29069,3.25859],[-0.60921,-1.53807]],[[703.27499,419.05724],[-0.95361,1.35182],[2.79268,-3.95886]],[[714.48451,416.34282],[-3.62204,0.35862],[0.89156,-0.08827]],[[716.7735,414.93407],[0.14846,0.88353],[-0.32936,-1.96008]],[[712.68431,410.59451],[1.41016,1.40065],[-3.56825,-3.5442]],[[701.53138,401.10829],[3.88299,3.10389],[-3.87849,-2.46536]],[[685.70735,394.18064],[5.19689,-1.73482],[-2.62637,0.87673]],[[678.44715,399.56432],[2.52606,-1.28513],[-4.89897,2.49236]],[[658.54047,403.61056],[5.64962,1.79954],[-5.21992,-1.66267]],[[649.29071,393.85808],[3.9425,2.56926],[-2.64779,-1.72552]],[[640.40509,392.14475],[2.99403,-0.01579],[-6.18964,0]],[[620.22203,399.99342],[3.52054,-5.80845],[-2.67186,4.40823]],[[613.24757,414.30482],[3.02405,-4.10635],[-1.98832,2.69994]],[[605.48523,419.49536],[2.54702,-1.72149],[-0.92766,0.62699]],[[603.11265,423.51035],[0.39665,-0.64166],[-2.26335,3.66141]],[[595.20767,434.06975],[2.68801,-3.3657],[-2.54287,3.1423]]],&quot;closed&quot;:true}]}" fill="#052d04" stroke="none" stroke-width="0.5"/><path d="" fill="#032802" stroke="none" stroke-width="0.5"/><path d="" fill="#032802" stroke="none" stroke-width="0.5"/><path d="" fill="#032802" stroke="none" stroke-width="0.5"/><path d="" data-paper-data="{&quot;noHover&quot;:false,&quot;origItem&quot;:[&quot;Path&quot;,{&quot;applyMatrix&quot;:true,&quot;segments&quot;:[[[337.95928,232.59247],[0.69338,-1.04006],[-0.02698,0.04046]],[[337.87686,232.70614],[0.02794,-0.03536],[1.82594,2.40517]],[[345.48464,236.08546],[-2.59304,0.93377],[1.42677,-0.51379]],[[349.36444,233.29136],[-1.43493,0.42767],[2.53724,-0.75621]],[[358.06366,234.96886],[-2.74865,-0.09203],[1.65197,-0.88657]],[[362.89357,231.99627],[-1.78723,0.59724],[0.71818,-0.23999]],[[366.10326,231.74621],[-0.73942,-0.15639],[0.44327,0.09375]],[[368.47088,232.42326],[-0.70746,0.29724],[2.23501,-0.93903]],[[372.35075,226.18543],[0.43181,2.48998],[-0.15311,-0.88286]],[[369.31121,223.16061],[0.50221,0.70832],[-1.18927,-1.67735]],[[366.3215,219.8494],[2.13469,0.5849],[-0.64659,-0.10027]],[[364.38172,219.54858],[0.42813,0.49482],[-1.04786,-1.21109]],[[363.97598,215.40556],[-0.21394,1.32186],[0.09602,-0.59327]],[[364.58099,213.70713],[0.3851,0.4614],[-0.37086,-0.44433]],[[362.8515,213.86063],[0.57876,-0.00268],[-1.72607,0.00798]],[[357.63023,213.85821],[1.7215,0.10185],[-2.57532,-0.15237]],[[348.75436,212.63543],[2.84651,-0.20024],[0.03027,0.02328]],[[348.84454,212.70612],[-0.02984,-0.02386],[0,0]],[349.05132,212.77849],[[349.61034,214.45554],[0.55902,-1.11803],[-0.55902,1.11803]],[347.93329,215.01456],[[347.2828,214.6583],[0,0],[-0.19328,-0.15473]],[[345.89178,213.54444],[0.60191,0.48247],[-1.55704,0.92507]],[[341.55778,217.01578],[1.32301,-1.05869],[-0.14216,0.11373]],[[339.81329,218.62636],[-0.27212,-0.41276],[0.44769,0.67906]],[[341.81254,220.95647],[0.09573,-0.65494],[-0.40794,2.79107]],[[337.30226,223.78152],[1.62341,-0.78288],[-2.43451,1.17402]],[[337.39431,230.91145],[-0.8006,-1.6012],[0,0]],[337.6126,230.85904]],&quot;closed&quot;:true}]}" fill="#052d04" stroke="none" stroke-width="0.5"/><path d="" fill="#032802" stroke="none" stroke-width="0.5"/><path d="" fill="#032802" stroke="none" stroke-width="0.5"/><path d="" fill="#032802" stroke="none" stroke-width="0.5"/><path d="" fill="#032802" stroke="none" stroke-width="0.5"/><path d="" fill="#032802" stroke="none" stroke-width="0.5"/><path d="" fill="#032802" stroke="none" stroke-width="0.5"/><path d="" fill="#032802" stroke="none" stroke-width="0.5"/></g><g><path d="" data-paper-data="{&quot;noHover&quot;:false,&quot;origItem&quot;:[&quot;Path&quot;,{&quot;applyMatrix&quot;:true,&quot;segments&quot;:[[[-120.28055,399.18328],[0,0],[1.54452,-0.4028]],[[-117.56097,398.78048],[0,0],[3.75234,0]],[[-102.55159,398.78048],[-3.75234,0],[7.0769,0.12638]],[[-84.06421,402.66196],[-6.64872,-1.11952],[6.75466,1.13736]],[[-59.12527,402.66196],[-6.74506,1.17774],[4.60996,-0.80492]],[[-45.61207,398.85542],[-4.6327,0.66162],[7.8395,-1.11962]],[[-21.60181,398.90962],[-7.7794,1.16736],[3.95506,-0.5935]],[[-10.69361,393.91318],[-3.67598,1.57542],[11.4507,-4.90744]],[[23.15199,381.89494],[-12.7851,0.22832],[7.4677,0]],[[43.86437,384.53232],[-7.09962,-3.0178],[3.09716,1.3165]],[[52.89373,389.0634],[-2.7771,-1.89626],[0.46312,-0.40934]],[[54.33555,387.91386],[-0.4571,0.3708],[1.75116,-1.42054]],[[59.96407,384.16152],[-1.79084,1.37018],[4.17726,-3.19604]],[[67.69013,369.65522],[-0.85238,5.06218],[1.19758,-7.11236]],[[65.30215,344.61942],[3.41676,6.62228],[-2.6421,-5.12084]],[[46.03727,334.7354],[4.71576,1.7426],[-3.20334,-3.43606]],[[36.42727,324.4272],[2.28058,4.10692],[-1.337,-2.4077]],[[35.74099,316.19368],[0.37656,2.72816],[-0.50174,-3.63518]],[[31.05439,306.23216],[1.63254,3.2865],[-1.0848,-2.18382]],[[25.93811,297.52218],[3.00938,1.17354],[-7.6244,-2.97322]],[[-1.23825,296.82926],[7.9858,0],[-12.09292,0]],[[-38.48735,296.70014],[11.98954,1.63166],[-3.07746,-0.41882]],[[-46.54075,294.82396],[3.0465,-0.7001],[-5.23116,1.20216]],[[-62.23225,300.1828],[5.09972,-1.6933],[-6.12512,1.39062]],[[-79.39633,307.06944],[5.61374,-2.75914],[-8.76124,4.30612]],[[-102.27723,315.46186],[11.14208,1.6878],[-9.17732,-1.3902]],[[-120.54511,304.94952],[7.18452,3.95868],[-6.21148,-3.42254]],[[-140.21013,296.82834],[6.91426,1.57778],[-1.3864,-0.31636]],[[-144.10173,298.5763],[1.40574,-0.21474],[-2.37762,0.3632]],[[-151.31717,298.52498],[2.35032,-0.51094],[-2.77126,0.60246]],[[-159.14953,301.84762],[2.64564,-1.0215],[-8.25926,3.18892]],[[-182.22519,316.4768],[5.2723,-7.71476],[-4.1751,6.10928]],[[-186.36021,339.36208],[-0.08678,-7.17684],[-0.03094,6.04908]],[[-184.50919,357.41492],[-0.53528,-6.02544],[0.10214,1.14988]],[[-184.91311,360.85448],[-0.39048,-1.08634],[0.55438,1.54232]],[[-181.88147,364.72536],[-0.74684,-1.45888],[1.53468,2.99784]],[[-178.12913,374.10622],[-1.49176,-3.01942],[4.75698,9.6285]],[[-156.81339,396.86472],[-8.25862,-6.3273],[1.72414,1.32094]],[[-151.92215,401.1698],[-1.93066,-0.99504],[2.40326,1.2386]],[[-143.82739,400.65664],[-2.70368,0],[8.08602,0]],[[-120.28055,399.18326],[-7.84822,0.55132],[0,0]]],&quot;closed&quot;:true,&quot;fillColor&quot;:[0,0,0,1]}]}" fill="#052d04" stroke="#032802" stroke-width="2.5"/><path d="" fill="#032802" stroke="none" stroke-width="0.5"/><path d="" fill="#032802" stroke="none" stroke-width="0.5"/><path d="" fill="#032802" stroke="none" stroke-width="0.5"/><path d="" fill="#032802" stroke="none" stroke-width="0.5"/></g><g><path d="" data-paper-data="{&quot;noHover&quot;:false,&quot;origItem&quot;:[&quot;Path&quot;,{&quot;applyMatrix&quot;:true,&quot;segments&quot;:[[[-120.28055,399.18328],[0,0],[1.54452,-0.4028]],[[-117.56097,398.78048],[0,0],[3.75234,0]],[[-102.55159,398.78048],[-3.75234,0],[7.0769,0.12638]],[[-84.06421,402.66196],[-6.64872,-1.11952],[6.75466,1.13736]],[[-59.12527,402.66196],[-6.74506,1.17774],[4.60996,-0.80492]],[[-45.61207,398.85542],[-4.6327,0.66162],[7.8395,-1.11962]],[[-21.60181,398.90962],[-7.7794,1.16736],[3.95506,-0.5935]],[[-10.69361,393.91318],[-3.67598,1.57542],[11.4507,-4.90744]],[[23.15199,381.89494],[-12.7851,0.22832],[7.4677,0]],[[43.86437,384.53232],[-7.09962,-3.0178],[3.09716,1.3165]],[[52.89373,389.0634],[-2.7771,-1.89626],[0.46312,-0.40934]],[[54.33555,387.91386],[-0.4571,0.3708],[1.75116,-1.42054]],[[59.96407,384.16152],[-1.79084,1.37018],[4.17726,-3.19604]],[[67.69013,369.65522],[-0.85238,5.06218],[1.19758,-7.11236]],[[65.30215,344.61942],[3.41676,6.62228],[-2.6421,-5.12084]],[[46.03727,334.7354],[4.71576,1.7426],[-3.20334,-3.43606]],[[36.42727,324.4272],[2.28058,4.10692],[-1.337,-2.4077]],[[35.74099,316.19368],[0.37656,2.72816],[-0.50174,-3.63518]],[[31.05439,306.23216],[1.63254,3.2865],[-1.0848,-2.18382]],[[25.93811,297.52218],[3.00938,1.17354],[-7.6244,-2.97322]],[[-1.23825,296.82926],[7.9858,0],[-12.09292,0]],[[-38.48735,296.70014],[11.98954,1.63166],[-3.07746,-0.41882]],[[-46.54075,294.82396],[3.0465,-0.7001],[-5.23116,1.20216]],[[-62.23225,300.1828],[5.09972,-1.6933],[-6.12512,1.39062]],[[-79.39633,307.06944],[5.61374,-2.75914],[-8.76124,4.30612]],[[-102.27723,315.46186],[11.14208,1.6878],[-9.17732,-1.3902]],[[-120.54511,304.94952],[7.18452,3.95868],[-6.21148,-3.42254]],[[-140.21013,296.82834],[6.91426,1.57778],[-1.3864,-0.31636]],[[-144.10173,298.5763],[1.40574,-0.21474],[-2.37762,0.3632]],[[-151.31717,298.52498],[2.35032,-0.51094],[-2.77126,0.60246]],[[-159.14953,301.84762],[2.64564,-1.0215],[-8.25926,3.18892]],[[-182.22519,316.4768],[5.2723,-7.71476],[-4.1751,6.10928]],[[-186.36021,339.36208],[-0.08678,-7.17684],[-0.03094,6.04908]],[[-184.50919,357.41492],[-0.53528,-6.02544],[0.10214,1.14988]],[[-184.91311,360.85448],[-0.39048,-1.08634],[0.55438,1.54232]],[[-181.88147,364.72536],[-0.74684,-1.45888],[1.53468,2.99784]],[[-178.12913,374.10622],[-1.49176,-3.01942],[4.75698,9.6285]],[[-156.81339,396.86472],[-8.25862,-6.3273],[1.72414,1.32094]],[[-151.92215,401.1698],[-1.93066,-0.99504],[2.40326,1.2386]],[[-143.82739,400.65664],[-2.70368,0],[8.08602,0]],[[-120.28055,399.18326],[-7.84822,0.55132],[0,0]]],&quot;closed&quot;:true,&quot;fillColor&quot;:[0,0,0,1]}]}" fill="#052d04" stroke="#032802" stroke-width="2.5"/><path d="" fill="#032802" stroke="none" stroke-width="0.5"/><path d="" fill="#032802" stroke="none" stroke-width="0.5"/><path d="" fill="#032802" stroke="none" stroke-width="0.5"/><path d="" fill="#032802" stroke="none" stroke-width="0.5"/></g><path d="" fill="#032802" stroke="none" stroke-width="0.5"/><path d="" data-paper-data="{&quot;noHover&quot;:false,&quot;origItem&quot;:[&quot;Path&quot;,{&quot;applyMatrix&quot;:true,&quot;segments&quot;:[[[588.07498,443.32253],[2.93119,-2.90967],[2.2442,15.42338]],[[629.35351,468.27605],[-14.50683,3.22602],[4.6186,-1.02708]],[[639.20903,458.84711],[-2.80569,3.29723],[12.28629,3.20666]],[[678.17292,455.14729],[-9.73106,12.65088],[3.25727,-4.23463]],[[671.33905,444.02599],[0.19766,3.06052],[-0.1156,-1.78993]],[[674.98894,440.07209],[-1.52873,0.93819],[3.71766,-2.28154]],[[691.28785,439.44104],[-4.16491,-0.00375],[4.63974,-0.46745]],[[706.85969,435.05138],[-3.05423,4.49023],[2.61672,-3.84701]],[[704.63897,423.82911],[1.29069,3.25859],[-0.60921,-1.53807]],[[703.27499,419.05724],[-0.95361,1.35182],[2.79268,-3.95886]],[[714.48451,416.34282],[-3.62204,0.35862],[0.89156,-0.08827]],[[716.7735,414.93407],[0.14846,0.88353],[-0.32936,-1.96008]],[[712.68431,410.59451],[1.41016,1.40065],[-3.56825,-3.5442]],[[701.53138,401.10829],[3.88299,3.10389],[-3.87849,-2.46536]],[[685.70735,394.18064],[5.19689,-1.73482],[-2.62637,0.87673]],[[678.44715,399.56432],[2.52606,-1.28513],[-4.89897,2.49236]],[[658.54047,403.61056],[5.64962,1.79954],[-5.21992,-1.66267]],[[649.29071,393.85808],[3.9425,2.56926],[-2.64779,-1.72552]],[[640.40509,392.14475],[2.99403,-0.01579],[-6.18964,0]],[[620.22203,399.99342],[3.52054,-5.80845],[-2.67186,4.40823]],[[613.24757,414.30482],[3.02405,-4.10635],[-1.98832,2.69994]],[[605.48523,419.49536],[2.54702,-1.72149],[-0.92766,0.62699]],[[603.11265,423.51035],[0.39665,-0.64166],[-2.26335,3.66141]],[[595.20767,434.06975],[2.68801,-3.3657],[-2.54287,3.1423]]],&quot;closed&quot;:true}]}" fill="#052d04" stroke="none" stroke-width="0.5"/><path d="" fill="#032802" stroke="none" stroke-width="0.5"/><path d="" fill="#032802" stroke="none" stroke-width="0.5"/><path d="" fill="#032802" stroke="none" stroke-width="0.5"/><path d="" data-paper-data="{&quot;noHover&quot;:false,&quot;origItem&quot;:[&quot;Path&quot;,{&quot;applyMatrix&quot;:true,&quot;segments&quot;:[[[675.91857,465.18495],[1.38675,-2.08013],[-0.05395,0.08093]],[[675.75372,465.41228],[0.05589,-0.07072],[3.65188,4.81034]],[[690.96928,472.17092],[-5.18608,1.86753],[2.85354,-1.02757]],[[698.72888,466.58272],[-2.86987,0.85535],[5.07449,-1.51243]],[[716.12733,469.93773],[-5.49731,-0.18406],[3.30393,-1.77315]],[[725.78715,463.99254],[-3.57446,1.19447],[1.43636,-0.47999]],[[732.20652,463.49242],[-1.47884,-0.31277],[0.88654,0.1875]],[[736.94177,464.84652],[-1.41492,0.59448],[4.47002,-1.87807]],[[744.7015,452.37087],[0.86363,4.97996],[-0.30621,-1.76571]],[[738.62243,446.32123],[1.00443,1.41665],[-2.37854,-3.3547]],[[732.643,439.69881],[4.26938,1.1698],[-1.29318,-0.20055]],[[728.76345,439.09717],[0.85625,0.98963],[-2.09572,-2.42218]],[[727.95197,430.81112],[-0.42789,2.64372],[0.19204,-1.18654]],[[729.16197,427.41426],[0.7702,0.92279],[-0.74171,-0.88867]],[[725.70299,427.72126],[1.15751,-0.00535],[-3.45215,0.01596]],[[715.26047,427.71643],[3.443,0.2037],[-5.15063,-0.30474]],[[697.50871,425.27086],[5.69302,-0.40047],[0.06054,0.04656]],[[697.68908,425.41225],[-0.05969,-0.04772],[0,0]],[698.10264,425.55699],[[699.22067,428.91109],[1.11803,-2.23607],[-1.11803,2.23607]],[695.86657,430.02912],[[694.5656,429.31659],[0,0],[-0.38656,-0.30947]],[[691.78357,427.08888],[1.20382,0.96495],[-3.11407,1.85014]],[[683.11557,434.03155],[2.64603,-2.11738],[-0.28432,0.22745]],[[679.62657,437.25272],[-0.54424,-0.82552],[0.89538,1.35812]],[[683.62507,441.91294],[0.19145,-1.30989],[-0.81588,5.58215]],[[674.60452,447.56305],[3.24682,-1.56575],[-4.86902,2.34805]],[[674.78861,461.8229],[-1.6012,-3.20241],[0,0]],[675.22519,461.71807]],&quot;closed&quot;:true}]}" fill="#052d04" stroke="none" stroke-width="0.5"/><path d="" fill="#032802" stroke="none" stroke-width="0.5"/><path d="" fill="#032802" stroke="none" stroke-width="0.5"/><path d="" fill="#032802" stroke="none" stroke-width="0.5"/><path d="" fill="#032802" stroke="none" stroke-width="0.5"/><path d="" fill="#032802" stroke="none" stroke-width="0.5"/><path d="" fill="#032802" stroke="none" stroke-width="0.5"/><path d="" fill="#032802" stroke="none" stroke-width="0.5"/><g stroke="none" stroke-width="0.5"><path d="" fill="#032802"/><path d="" data-paper-data="{&quot;noHover&quot;:false,&quot;origItem&quot;:[&quot;Path&quot;,{&quot;applyMatrix&quot;:true,&quot;segments&quot;:[[[609.22273,444.75653],[0,0],[5.9983,-14.38532]],[[586.62787,402.14118],[14.10339,4.68508],[-4.49015,-1.49161]],[[573.32832,405.16744],[4.10107,-1.38743],[-8.89353,-9.06316]],[[537.99878,388.32416],[14.84801,-5.85445],[-4.97006,1.95966]],[[538.14832,401.37646],[1.40275,-2.7273],[-0.8204,1.59505]],[[532.98564,402.89357],[1.79355,-0.01955],[-4.36167,0.0475]],[[518.67789,395.06149],[3.57134,2.14292],[-4.22078,-1.98261]],[[503.06298,390.82761],[4.9272,-2.28327],[-4.22138,1.95619]],[[499.20284,401.59655],[0.56673,-3.45877],[-0.26752,1.63256]],[[497.92153,406.39128],[1.51263,-0.66988],[-4.42981,1.96175]],[[486.90988,402.96126],[3.29174,1.55313],[-0.81026,-0.3823]],[[484.22232,402.99392],[0.32653,-0.83428],[-0.72441,1.85084]],[[485.50119,408.81782],[-0.49026,-1.92613],[1.24055,4.8739]],[[490.19625,422.68621],[-1.73677,-4.65781],[2.06096,4.1077]],[[500.2133,436.75927],[-5.34988,-1.1815],[2.70369,0.59709]],[[509.20798,435.87027],[-2.82744,-0.19519],[5.48347,0.37852]],[[528.36551,442.62579],[-3.92254,-4.44637],[3.62421,4.10818]],[[531.29098,455.74488],[-2.06249,-4.22972],[1.38517,2.84068]],[[538.03412,461.77976],[-2.57681,-1.52461],[5.31036,3.1799]],[[559.38225,465.415],[-6.00449,3.17466],[4.55702,-2.40936]],[[572.71836,456.71973],[-4.70408,1.96944],[3.09295,-1.2949]],[[582.04462,456.25441],[-3.06961,0.16843],[1.11799,-0.06133]],[[586.14284,454.02868],[-0.66996,0.34673],[3.82284,-1.97849]],[[598.3497,449.03046],[-4.03526,1.50663],[3.79597,-1.38953]],[[609.22272,444.7565],[-4.00964,0.99045],[0,0]]],&quot;closed&quot;:true,&quot;fillColor&quot;:[0,0,0,1]}]}" fill="#052d04"/><path d="" fill="#032802"/><path d="" fill="#032802"/><path d="" fill="#032802"/><path d="" fill="#032802"/></g><path d="M179.67369,173.73564v-4.48226h3.68577v4.48226z" fill="none" stroke="none" stroke-width="0"/><path d="M338.71687,240.3895v5.21405h-5.27655v-5.21405z" fill="none" stroke="none" stroke-width="0"/></g></g></svg>