<svg version="1.1" xmlns="http://www.w3.org/2000/svg" xmlns:xlink="http://www.w3.org/1999/xlink" width="110.00127" height="126.02187" viewBox="0,0,110.00127,126.02187"><defs><linearGradient x1="239.5745" y1="111.57603" x2="239.5745" y2="179.99987" gradientUnits="userSpaceOnUse" id="color-1"><stop offset="0" stop-color="#a16f55"/><stop offset="1" stop-color="#c1747e"/></linearGradient><linearGradient x1="239.2645" y1="53.978" x2="239.2645" y2="116.981" gradientUnits="userSpaceOnUse" id="color-2"><stop offset="0" stop-color="#00e508"/><stop offset="1" stop-color="#00b333"/></linearGradient><linearGradient x1="264.93801" y1="60.21" x2="264.93801" y2="138.814" gradientUnits="userSpaceOnUse" id="color-3"><stop offset="0" stop-color="#00e508"/><stop offset="1" stop-color="#00b333"/></linearGradient><linearGradient x1="226.4535" y1="79.137" x2="226.4535" y2="142.14" gradientUnits="userSpaceOnUse" id="color-4"><stop offset="0" stop-color="#00e508"/><stop offset="1" stop-color="#00b333"/></linearGradient></defs><g transform="translate(-194.63465,-53.978)"><g data-paper-data="{&quot;isPaintingLayer&quot;:true}" fill-rule="nonzero" stroke="none" stroke-width="1" stroke-linecap="butt" stroke-linejoin="miter" stroke-miterlimit="10" stroke-dasharray="" stroke-dashoffset="0" style="mix-blend-mode: normal"><path d="M219.786,175.085c10.412,-12.685 18.548,-31.982 19.793,-49.202c1.244,-17.221 16.415,-18.739 15.138,-5.4c-1.277,13.339 0.857,46.802 4.646,56.318c-9.573,4.116 -32.34,4.969 -39.577,-1.716z" fill="url(#color-1)"/><path d="M234.81,116.981c-17.398,0 -29.507,-14.104 -27.047,-31.502c2.46,-17.398 18.558,-31.501 35.956,-31.501c17.398,0 29.507,14.103 27.047,31.501c-2.46,17.398 -18.558,31.502 -35.956,31.502z" fill="url(#color-2)"/><path d="M259.38,138.814c-21.705,0 -36.813,-17.596 -33.744,-39.302c3.069,-21.706 23.154,-39.302 44.86,-39.302c21.706,0 36.813,17.596 33.744,39.302c-3.069,21.706 -23.154,39.302 -44.86,39.302z" fill="url(#color-3)"/><path d="M221.999,142.14c-17.398,0 -29.507,-14.104 -27.047,-31.502c2.46,-17.398 18.558,-31.501 35.956,-31.501c17.398,0 29.507,14.103 27.047,31.501c-2.46,17.398 -18.558,31.502 -35.956,31.502z" fill="url(#color-4)"/></g></g></svg>