<svg version="1.1" xmlns="http://www.w3.org/2000/svg" xmlns:xlink="http://www.w3.org/1999/xlink" width="38.8084" height="46.0254" viewBox="0,0,38.8084,46.0254"><g transform="translate(-218.8647,-142.1816)"><g data-paper-data="{&quot;isPaintingLayer&quot;:true}" fill-rule="nonzero" stroke="none" stroke-linecap="butt" stroke-linejoin="miter" stroke-miterlimit="10" stroke-dasharray="" stroke-dashoffset="0" style="mix-blend-mode: normal"><path d="M252.7083,168.113v9.5311c0,5.8537 -4.7092,10.5629 -10.5629,10.5629h-5.3906c-5.8537,0 -10.5629,-4.7092 -10.5629,-10.5629v-9.5311z" fill="#25a2ab" stroke-width="1.96901"/><path d="M254.1898,158.6433v18.5327c0,1.3391 -1.0782,2.4174 -2.4174,2.4174h-24.9057c-1.3391,0 -2.4172,-1.0783 -2.4172,-2.4174v-18.5327c0,-1.3393 1.0781,-2.4173 2.4172,-2.4173h24.9057c1.3392,0 2.4174,1.078 2.4174,2.4173z" fill="#30cfdb" stroke-width="1.96901"/><path d="M253.0689,167.1507c1.2703,0 2.4214,0.5161 3.2547,1.3495c0.8334,0.8333 1.3495,1.9844 1.3495,3.2547c0,1.2702 -0.5161,2.4213 -1.3495,3.2547c-0.8333,0.8333 -1.9844,1.3494 -3.2547,1.3494c-1.2703,0 -2.4213,-0.5161 -3.2547,-1.3494c-0.8334,-0.8334 -1.3495,-1.9845 -1.3495,-3.2547c0,-1.2703 0.5161,-2.4214 1.3495,-3.2547c0.8334,-0.8334 1.9844,-1.3495 3.2547,-1.3495z" fill="#ffc96f" stroke-width="0.46042"/><path d="M242.1288,142.1816c5.8539,0 10.5693,4.709 10.5693,10.5629v4.9738h-26.5226v-4.9738c0,-5.8539 4.7154,-10.5629 10.5693,-10.5629z" fill="#ffc96f" stroke-width="1.96901"/><g fill="#030302" stroke-width="1.96901"><path d="M245.60298,149.18909c0.9109,0 1.6491,0.739 1.6483,1.6499c0.0008,0.9108 -0.7374,1.6498 -1.6483,1.6498c-0.9108,0 -1.649,-0.739 -1.6482,-1.6498c-0.0008,-0.9109 0.7374,-1.6499 1.6482,-1.6499z"/><path d="M238.20298,149.28909c0.9109,0 1.6491,0.739 1.6483,1.6499c0.0008,0.9108 -0.7374,1.6498 -1.6483,1.6498c-0.9108,0 -1.649,-0.739 -1.6482,-1.6498c-0.0008,-0.9109 0.7374,-1.6499 1.6482,-1.6499z"/></g><path d="M223.4689,167.1507c1.2703,0 2.4214,0.5161 3.2547,1.3495c0.8334,0.8333 1.3495,1.9844 1.3495,3.2547c0,1.2702 -0.5161,2.4213 -1.3495,3.2547c-0.8333,0.8333 -1.9844,1.3494 -3.2547,1.3494c-1.2703,0 -2.4213,-0.5161 -3.2547,-1.3494c-0.8334,-0.8334 -1.3495,-1.9845 -1.3495,-3.2547c0,-1.2703 0.5161,-2.4214 1.3495,-3.2547c0.8334,-0.8334 1.9844,-1.3495 3.2547,-1.3495z" fill="#ffc96f" stroke-width="0.46042"/></g></g></svg>