<svg version="1.1" xmlns="http://www.w3.org/2000/svg" xmlns:xlink="http://www.w3.org/1999/xlink" width="649.20797" height="371.34966" viewBox="0,0,649.20797,371.34966"><g transform="translate(86.34885,5.34369)"><g data-paper-data="{&quot;isPaintingLayer&quot;:true}" fill-rule="nonzero" stroke="none" stroke-linecap="butt" stroke-linejoin="miter" stroke-miterlimit="10" stroke-dasharray="" stroke-dashoffset="0" style="mix-blend-mode: normal"><path d="M-86.34885,364.95662v-146.26068h644.99731v146.26068z" fill="#f3f3f3" stroke-width="0"/><path d="M297.0957,366.00597v-371.34966h265.76342v371.34966z" fill="#f3f3f3" stroke-width="0"/><g stroke-width="1" font-family="Sans Serif" font-weight="normal" font-size="40" text-anchor="start"><text transform="translate(324.49912,46.08988) scale(0.96365,0.96365)" font-size="40" xml:space="preserve" fill="#d7d7d7" fill-rule="nonzero" stroke="none" stroke-width="1" stroke-linecap="butt" stroke-linejoin="miter" stroke-miterlimit="10" stroke-dasharray="" stroke-dashoffset="0" font-family="Sans Serif" font-weight="normal" text-anchor="start" style="mix-blend-mode: normal"><tspan x="0" dy="0">Paused</tspan></text><text transform="translate(319.47634,40.58374) scale(0.96365,0.96365)" font-size="40" xml:space="preserve" fill="#ff0000" fill-rule="nonzero" stroke="none" stroke-width="1" stroke-linecap="butt" stroke-linejoin="miter" stroke-miterlimit="10" stroke-dasharray="" stroke-dashoffset="0" font-family="Sans Serif" font-weight="normal" text-anchor="start" style="mix-blend-mode: normal"><tspan x="0" dy="0">Paused</tspan></text></g><g stroke-width="0"><path d="M309.49942,361.26754v-98.44185h16.09331v98.44185z" fill="#e5e5e5"/><path d="M285.94824,265.96584v-14.91575h62.80317v14.91575z" fill="#e5e5e5"/><path d="M363.00401,361.48308v-137.38192h54.76442v137.38192z" fill="#e5e5e5"/><path d="M432.38885,361.68718v-78.50396h39.25198v78.50396z" fill="#e5e5e5"/><g fill="#f2f2f2"><path d="M368.37739,245.68975v-17.66339h11.77559v17.66339z"/><path d="M384.07818,245.68975v-17.66339h11.77559v17.66339z"/><path d="M399.77897,245.68975v-17.66339h11.77559v17.66339z"/></g><g fill="#f2f2f2"><path d="M368.37739,267.27834v-17.66339h11.77559v17.66339z"/><path d="M384.07818,267.27834v-17.66339h11.77559v17.66339z"/><path d="M399.77897,267.27834v-17.66339h11.77559v17.66339z"/></g><g fill="#f2f2f2"><path d="M368.37739,288.86692v-17.66339h11.77559v17.66339z"/><path d="M384.07818,288.86692v-17.66339h11.77559v17.66339z"/><path d="M399.77897,288.86692v-17.66339h11.77559v17.66339z"/></g><g fill="#f2f2f2"><path d="M368.37739,310.45551v-17.66339h11.77559v17.66339z"/><path d="M384.07818,310.45551v-17.66339h11.77559v17.66339z"/><path d="M399.77897,310.45551v-17.66339h11.77559v17.66339z"/></g><g fill="#f2f2f2"><path d="M368.37739,332.0441v-17.66339h11.77559v17.66339z"/><path d="M384.07818,332.0441v-17.66339h11.77559v17.66339z"/><path d="M399.77897,332.0441v-17.66339h11.77559v17.66339z"/></g><path d="M368.37739,353.63269v-17.66339h11.77559v17.66339z" fill="#f2f2f2"/><path d="M384.07818,362.68249v-26.71319h11.77559v26.71319z" fill="#f2f2f2"/><path d="M399.77897,353.63269v-17.66339h11.77559v17.66339z" fill="#f2f2f2"/><path d="M437.97996,340.56238v-52.99017h11.77559v52.99017z" fill="#f2f2f2"/><path d="M453.68075,305.2356v-17.66339h11.77559v17.66339z" fill="#f2f2f2"/><path d="M453.68075,362.15115v-52.99017h11.77559v52.99017z" fill="#f2f2f2"/><path d="M437.97996,362.15115v-17.66339h11.77559v17.66339z" fill="#f2f2f2"/></g><g stroke-width="1" font-family="Sans Serif" font-weight="normal" font-size="40" text-anchor="start"><text transform="translate(16.1888,256.48666) scale(0.71423,0.71423)" font-size="40" xml:space="preserve" fill="#d7d7d7" fill-rule="nonzero" stroke="none" stroke-width="1" stroke-linecap="butt" stroke-linejoin="miter" stroke-miterlimit="10" stroke-dasharray="" stroke-dashoffset="0" font-family="Sans Serif" font-weight="normal" text-anchor="start" style="mix-blend-mode: normal"><tspan x="0" dy="0">New Town</tspan></text><text transform="translate(12.46608,252.40569) scale(0.71423,0.71423)" font-size="40" xml:space="preserve" fill="#ff0000" fill-rule="nonzero" stroke="none" stroke-width="1" stroke-linecap="butt" stroke-linejoin="miter" stroke-miterlimit="10" stroke-dasharray="" stroke-dashoffset="0" font-family="Sans Serif" font-weight="normal" text-anchor="start" style="mix-blend-mode: normal"><tspan x="0" dy="0">New Town</tspan></text></g><g stroke-width="1" font-family="Sans Serif" font-weight="normal" font-size="40" text-anchor="start"><text transform="translate(15.76787,287.79348) scale(0.55422,0.55422)" font-size="40" xml:space="preserve" fill="#d7d7d7" fill-rule="nonzero" stroke="none" stroke-width="1" stroke-linecap="butt" stroke-linejoin="miter" stroke-miterlimit="10" stroke-dasharray="" stroke-dashoffset="0" font-family="Sans Serif" font-weight="normal" text-anchor="start" style="mix-blend-mode: normal"><tspan x="0" dy="0">Talk to the residents of </tspan><tspan x="0" dy="48px">New Town and explore all </tspan><tspan x="0" dy="48px">the secrets</tspan></text><text transform="translate(12.87916,284.62679) scale(0.55422,0.55422)" font-size="40" xml:space="preserve" fill="#ff0000" fill-rule="nonzero" stroke="none" stroke-width="1" stroke-linecap="butt" stroke-linejoin="miter" stroke-miterlimit="10" stroke-dasharray="" stroke-dashoffset="0" font-family="Sans Serif" font-weight="normal" text-anchor="start" style="mix-blend-mode: normal"><tspan x="0" dy="0">Talk to the residents of </tspan><tspan x="0" dy="48px">New Town and explore all </tspan><tspan x="0" dy="48px">the secrets</tspan></text></g></g></g></svg>