<svg version="1.1" xmlns="http://www.w3.org/2000/svg" xmlns:xlink="http://www.w3.org/1999/xlink" width="46.4084" height="47.68393" viewBox="0,0,46.4084,47.68393"><defs><linearGradient x1="251.1981" y1="141.7816" x2="251.1981" y2="157.3183" gradientUnits="userSpaceOnUse" id="color-1"><stop offset="0" stop-color="#dbd3bc"/><stop offset="1" stop-color="#e7dea6"/></linearGradient></defs><g transform="translate(-209.7647,-140.12307)"><g data-paper-data="{&quot;isPaintingLayer&quot;:true}" fill-rule="nonzero" stroke="none" stroke-linecap="butt" stroke-linejoin="miter" stroke-miterlimit="10" stroke-dasharray="" stroke-dashoffset="0" style="mix-blend-mode: normal"><path d="M251.2083,167.713v9.5311c0,5.8537 -4.7092,10.5629 -10.5629,10.5629h-5.3906c-5.8537,0 -10.5629,-4.7092 -10.5629,-10.5629v-9.5311z" fill="#81741c" stroke-width="1.96901"/><path d="M252.6898,158.2433v18.5327c0,1.3391 -1.0782,2.4174 -2.4174,2.4174h-24.9057c-1.3391,0 -2.4172,-1.0783 -2.4172,-2.4174v-18.5327c0,-1.3393 1.0781,-2.4173 2.4172,-2.4173h24.9057c1.3392,0 2.4174,1.078 2.4174,2.4173z" fill="#ffe638" stroke-width="1.96901"/><path d="M251.5689,166.7507c1.2703,0 2.4214,0.5161 3.2547,1.3495c0.8334,0.8333 1.3495,1.9844 1.3495,3.2547c0,1.2702 -0.5161,2.4213 -1.3495,3.2547c-0.8333,0.8333 -1.9844,1.3494 -3.2547,1.3494c-1.2703,0 -2.4213,-0.5161 -3.2547,-1.3494c-0.8334,-0.8334 -1.3495,-1.9845 -1.3495,-3.2547c0,-1.2703 0.5161,-2.4214 1.3495,-3.2547c0.8334,-0.8334 1.9844,-1.3495 3.2547,-1.3495z" fill="#e3daac" stroke-width="0.46042"/><path d="M240.6288,141.7816c5.8539,0 10.5693,4.709 10.5693,10.5629v4.9738h-26.5226v-4.9738c0,-5.8539 4.7154,-10.5629 10.5693,-10.5629z" fill="url(#color-1)" stroke-width="1.96901"/><path d="M236.4859,140.2263c7.617,-0.6668 15.742,1.6872 15.1168,13.2524c0.4148,1.3246 -2.5835,2.1762 -2.8829,-0.8386c-0.6082,-6.1255 -3.528,-0.6135 -3.3248,0.121c-1.5549,-3.9481 -21.5122,-7.3889 -22.9978,-5.9048c-2.4014,2.3989 6.2424,-6.8616 14.0887,-6.63z" fill="#d29717" stroke-width="1.96901"/><g fill="#030302" stroke-width="1.96901"><path d="M241.32573,152.95225c0.9109,0 1.54157,-1.25025 1.54077,-0.33935c0.0008,0.9108 -0.7374,1.6498 -1.6483,1.6498c-0.9108,0 -1.649,-0.739 -1.6482,-1.6498c-0.0008,-0.9109 0.84493,0.33935 1.75573,0.33935z"/><path d="M233.8182,152.99848c0.9109,0 1.6491,-1.19648 1.6483,-0.28558c0.0008,0.9108 -0.7374,1.6498 -1.6483,1.6498c-0.9108,0 -1.649,-0.739 -1.6482,-1.6498c-0.0008,-0.9109 0.7374,0.28558 1.6482,0.28558z"/></g><path d="M214.3689,162.83766c1.2703,0 2.4214,0.5161 3.2547,1.3495c0.8334,0.8333 1.3495,1.9844 1.3495,3.2547c0,1.2702 -0.5161,2.4213 -1.3495,3.2547c-0.8333,0.8333 -1.9844,1.3494 -3.2547,1.3494c-1.2703,0 -2.4213,-0.5161 -3.2547,-1.3494c-0.8334,-0.8334 -1.3495,-1.9845 -1.3495,-3.2547c0,-1.2703 0.5161,-2.4214 1.3495,-3.2547c0.8334,-0.8334 1.9844,-1.3495 3.2547,-1.3495z" fill="#e3daac" stroke-width="0.46042"/></g></g></svg>