<svg version="1.1" xmlns="http://www.w3.org/2000/svg" xmlns:xlink="http://www.w3.org/1999/xlink" width="106.85514" height="126.02187" viewBox="0,0,106.85514,126.02187"><defs><linearGradient x1="218.549" y1="145.78795" x2="258.669" y2="145.78795" gradientUnits="userSpaceOnUse" id="color-1"><stop offset="0" stop-color="#a16f55"/><stop offset="1" stop-color="#c1747e"/></linearGradient><linearGradient x1="209.71112" y1="53.978" x2="209.71112" y2="116.981" gradientUnits="userSpaceOnUse" id="color-2"><stop offset="0" stop-color="#00e508"/><stop offset="1" stop-color="#00b333"/></linearGradient><linearGradient x1="239.819" y1="60.21" x2="239.819" y2="138.814" gradientUnits="userSpaceOnUse" id="color-3"><stop offset="0" stop-color="#00e508"/><stop offset="1" stop-color="#00b333"/></linearGradient><linearGradient x1="204.8505" y1="79.137" x2="204.8505" y2="142.14" gradientUnits="userSpaceOnUse" id="color-4"><stop offset="0" stop-color="#00e508"/><stop offset="1" stop-color="#00b333"/></linearGradient></defs><g transform="translate(-172.86705,-53.978)"><g data-paper-data="{&quot;isPaintingLayer&quot;:true}" fill-rule="nonzero" stroke="none" stroke-width="1" stroke-linecap="butt" stroke-linejoin="miter" stroke-miterlimit="10" stroke-dasharray="" stroke-dashoffset="0" style="mix-blend-mode: normal"><path d="M218.549,175.085c6.404,-12.685 8.441,-31.982 4.244,-49.202c-4.197,-17.221 10.494,-18.739 13.432,-5.4c2.939,13.339 15.647,46.802 22.444,56.318c-8.273,4.116 -30.77,4.969 -40.12,-1.716z" fill="url(#color-1)"/><path d="M215.211,116.981c-17.397,0 -33.964,-14.104 -37.002,-31.502c-3.037,-17.398 8.604,-31.501 26.002,-31.501c17.398,0 33.964,14.103 37.002,31.501c3.038,17.398 -8.604,31.502 -26.002,31.502z" fill="url(#color-2)"/><path d="M246.681,138.814c-21.706,0 -42.374,-17.596 -46.164,-39.302c-3.79,-21.706 10.734,-39.302 32.44,-39.302c21.706,0 42.374,17.596 46.164,39.302c3.79,21.706 -10.734,39.302 -32.44,39.302z" fill="url(#color-3)"/><path d="M210.351,142.14c-17.398,0 -33.965,-14.104 -37.002,-31.502c-3.038,-17.398 8.603,-31.501 26.001,-31.501c17.398,0 33.964,14.103 37.002,31.501c3.038,17.398 -8.603,31.502 -26.001,31.502z" fill="url(#color-4)"/></g></g></svg>