<svg version="1.1" xmlns="http://www.w3.org/2000/svg" xmlns:xlink="http://www.w3.org/1999/xlink" width="35.63835" height="33.37753" viewBox="0,0,35.63835,33.37753"><g transform="translate(-222.18083,-163.31123)"><g data-paper-data="{&quot;isPaintingLayer&quot;:true}" fill="#ff6666" fill-rule="nonzero" stroke="none" stroke-width="0.5" stroke-linecap="butt" stroke-linejoin="miter" stroke-miterlimit="10" stroke-dasharray="" stroke-dashoffset="0" style="mix-blend-mode: normal"><path d="M237.87137,196.6261c-0.45053,0.38583 -2.24144,-1.06999 -3.85114,-2.71885c-4.49594,-5.8802 -11.06531,-10.82635 -11.79604,-18.83383c-0.35243,-3.86204 1.4349,-10.22074 5.66003,-11.60805c1.61735,-0.53105 3.41206,0.43134 4.99759,1.05096c2.15965,0.84399 3.91584,2.51069 5.50635,4.32556c0.57017,-1.11646 1.49855,-2.05155 3.53345,-3.3253c9.15111,-5.72818 18.75062,4.3281 15.10474,13.6169c-1.07239,2.73222 -3.76466,4.47126 -5.8802,6.21076c-3.74784,3.08168 -7.19734,5.95818 -10.44462,9.43847c-0.14462,0.48843 -2.58802,1.73245 -2.83017,1.84341z"/></g></g></svg>