<svg xmlns="http://www.w3.org/2000/svg" xmlns:xlink="http://www.w3.org/1999/xlink" version="1.1" width="128.84586541877212" height="85.24811761603773" viewBox="1.7929200280407018 -1.3562827359935694 128.84586541877212 85.24811761603773">
  <defs>
    <linearGradient id="grad_1" y2="1" x2="0">
      <stop offset="0" stop-color="#DBD3BC" stop-opacity="1"/>
      <stop offset="1" stop-color="#E7DEA6" stop-opacity="1"/>
    </linearGradient>
  <linearGradient id="grad_1-0.0003258777142036706,0.44547486305236816,-0.44547486305236816,-0.0003258777142036706,139.55,-19.45" y2="18.2972" x2="73.0214" x1="106.7661" y1="18.3219" gradientUnits="userSpaceOnUse">
      <stop offset="0" stop-color="#DBD3BC" stop-opacity="1"/>
      <stop offset="1" stop-color="#E7DEA6" stop-opacity="1"/>
    </linearGradient></defs>
  <!-- Exported by Scratch - http://scratch.mit.edu/ -->
  <path id="rect8769-9" fill="#A54436" stroke="none" stroke-width="4.276559837324445" d="M 44.087 16.4694 L 23.5988 19.4286 C 11.0156 21.2461 2.3546 32.8313 4.1721 45.4145 L 5.8458 57.0023 C 7.6632 69.5855 19.2484 78.2465 31.8317 76.429 L 52.3198 73.4698 L 44.087 16.4694 Z "/>
  <path id="rect9302" fill="#E25D4A" stroke="none" stroke-width="4.276559998850237" d="M 76.3112 20.31 L 76.2717 74.4036 C 76.2695 77.3121 73.9264 79.6518 71.0174 79.6497 L 30.7657 79.6202 C 27.8572 79.6181 25.517 77.275 25.5191 74.3665 L 25.5587 20.2729 C 25.5608 17.3644 27.9044 15.0242 30.8129 15.0264 L 71.0647 15.0558 C 73.9736 15.0579 76.3134 17.4015 76.3112 20.31 Z "/>
  <path id="ID0.4224610994569957" fill="#E3DAAC" stroke="none" d="M 75.5505 10.7893 C 75.5526 8.0303 74.4334 5.5295 72.6247 3.7182 C 70.816 1.9069 68.3169 0.784 65.5579 0.782 C 62.7989 0.78 60.298 1.8992 58.4867 3.7079 C 56.6754 5.5165 55.5526 8.0157 55.5505 10.7747 C 55.5485 13.5337 56.6677 16.0345 58.4764 17.8458 C 60.2851 19.6572 62.7842 20.78 65.5432 20.782 C 68.3022 20.784 70.8031 19.6649 72.6144 17.8562 C 74.4257 16.0475 75.5485 13.5483 75.5505 10.7893 Z " stroke-width="1.0000000291485527"/>
  <g id="ID0.11722990404814482">
    <path id="rect8769" fill="url(#grad_1-0.0003258777142036706,0.44547486305236816,-0.44547486305236816,-0.0003258777142036706,139.55,-19.45)" stroke="none" stroke-width="4.276559998850033" d="M 106.7493 41.2777 C 106.7586 28.5634 96.5385 18.3144 83.8242 18.3051 L 73.0214 18.2972 L 72.9793 75.9025 L 83.782 75.9104 C 96.4963 75.9197 106.7315 65.6857 106.7408 52.9714 L 106.7493 41.2777 Z "/>
    <path id="path9281" fill="#030302" stroke="none" stroke-width="4.276559998850033" d="M 83.3004 55.521 C 81.3221 55.5214 79.7182 53.9169 79.7196 51.9386 C 79.7211 49.9602 81.3273 48.3581 83.3057 48.3614 C 85.284 48.361 86.8879 49.9655 86.8864 51.9438 C 86.885 53.9222 85.2788 55.5243 83.3004 55.521 Z "/>
    <path id="path9281-8" fill="#030302" stroke="none" stroke-width="4.276559998850033" d="M 83.1004 71.671 C 81.1221 71.6714 79.5182 70.0669 79.5196 68.0886 C 79.5211 66.1102 81.1273 64.5081 83.1057 64.5114 C 85.084 64.511 86.6879 66.1155 86.6864 68.0938 C 86.685 70.0722 85.0788 71.6743 83.1004 71.671 Z "/>
    <path id="path9304" fill="#8b735c" stroke="none" stroke-width="4.276559998850033" d="M 95.6984 80.8674 C 98.9243 77.6432 91.4827 34.2917 82.9102 30.9083 C 84.5051 31.3509 96.4815 25.0179 83.1783 23.6873 C 76.6308 23.0321 78.4851 16.5215 81.3614 17.4244 C 106.4813 16.085 111.5811 33.7357 110.1208 50.2783 C 110.6113 67.3203 90.4844 86.0792 95.6984 80.8674 Z "/>
  </g>
  <path id="ID0.4224610994569957" fill="#E3DAAC" stroke="none" d="M 128.5005 36.7893 C 128.5026 34.0303 127.3834 31.5295 125.5747 29.7182 C 123.766 27.9069 121.2669 26.784 118.5079 26.782 C 115.7489 26.78 113.248 27.8992 111.4367 29.7079 C 109.6254 31.5165 108.5026 34.0157 108.5005 36.7747 C 108.4985 39.5337 109.6177 42.0345 111.4264 43.8458 C 113.2351 45.6572 115.7342 46.78 118.4932 46.782 C 121.2522 46.784 123.7531 45.6649 125.5644 43.8562 C 127.3757 42.0475 128.4985 39.5483 128.5005 36.7893 Z " stroke-width="1.0000000291485527"/>
</svg>