<svg version="1.1" xmlns="http://www.w3.org/2000/svg" xmlns:xlink="http://www.w3.org/1999/xlink" width="510" height="150.00002" viewBox="0,0,510,150.00002"><g transform="translate(-1053.30417,-317.97642)"><g data-paper-data="{&quot;isPaintingLayer&quot;:true}" fill-rule="nonzero" stroke="none" stroke-width="0.71932" stroke-linecap="butt" stroke-linejoin="miter" stroke-dasharray="" stroke-dashoffset="0" style="mix-blend-mode: normal"><g><g><g fill="#ffffff" stroke-miterlimit="10"><path d="M1053.30417,452.97644v-15h15v15z"/></g><g fill="#f5f5f5" stroke-miterlimit="4"><path d="M1068.30417,452.97644h-15v-15c15,15 0,0 15,15z"/></g></g><g><g fill="#ffffff" stroke-miterlimit="10"><path d="M1068.30417,452.97644v-15h15v15z"/></g><g fill="#f5f5f5" stroke-miterlimit="4"><path d="M1083.30417,452.97644h-15v-15c15,15 0,0 15,15z"/></g></g><g><g fill="#ffffff" stroke-miterlimit="10"><path d="M1053.30417,467.97644v-15h15v15z"/></g><g fill="#f5f5f5" stroke-miterlimit="4"><path d="M1068.30417,467.97644h-15v-15c15,15 0,0 15,15z"/></g></g><g><g fill="#ffffff" stroke-miterlimit="10"><path d="M1068.30417,467.97644v-15h15v15z"/></g><g fill="#f5f5f5" stroke-miterlimit="4"><path d="M1083.30417,467.97644h-15v-15c15,15 0,0 15,15z"/></g></g></g><g><g><g fill="#ffffff" stroke-miterlimit="10"><path d="M1053.30417,422.97644v-15h15v15z"/></g><g fill="#f5f5f5" stroke-miterlimit="4"><path d="M1068.30417,422.97644h-15v-15c15,15 0,0 15,15z"/></g></g><g><g fill="#ffffff" stroke-miterlimit="10"><path d="M1068.30417,422.97644v-15h15v15z"/></g><g fill="#f5f5f5" stroke-miterlimit="4"><path d="M1083.30417,422.97644h-15v-15c15,15 0,0 15,15z"/></g></g><g><g fill="#ffffff" stroke-miterlimit="10"><path d="M1053.30417,437.97644v-15h15v15z"/></g><g fill="#f5f5f5" stroke-miterlimit="4"><path d="M1068.30417,437.97644h-15v-15c15,15 0,0 15,15z"/></g></g><g><g fill="#ffffff" stroke-miterlimit="10"><path d="M1068.30417,437.97644v-15h15v15z"/></g><g fill="#f5f5f5" stroke-miterlimit="4"><path d="M1083.30417,437.97644h-15v-15c15,15 0,0 15,15z"/></g></g></g><g><g><g fill="#ffffff" stroke-miterlimit="10"><path d="M1053.30417,392.97644v-15h15v15z"/></g><g fill="#f5f5f5" stroke-miterlimit="4"><path d="M1068.30417,392.97644h-15v-15c15,15 0,0 15,15z"/></g></g><g><g fill="#ffffff" stroke-miterlimit="10"><path d="M1068.30417,392.97644v-15h15v15z"/></g><g fill="#f5f5f5" stroke-miterlimit="4"><path d="M1083.30417,392.97644h-15v-15c15,15 0,0 15,15z"/></g></g><g><g fill="#ffffff" stroke-miterlimit="10"><path d="M1053.30417,407.97644v-15h15v15z"/></g><g fill="#f5f5f5" stroke-miterlimit="4"><path d="M1068.30417,407.97644h-15v-15c15,15 0,0 15,15z"/></g></g><g><g fill="#ffffff" stroke-miterlimit="10"><path d="M1068.30417,407.97644v-15h15v15z"/></g><g fill="#f5f5f5" stroke-miterlimit="4"><path d="M1083.30417,407.97644h-15v-15c15,15 0,0 15,15z"/></g></g></g><g><g><g fill="#ffffff" stroke-miterlimit="10"><path d="M1083.30417,452.97644v-15h15v15z"/></g><g fill="#f5f5f5" stroke-miterlimit="4"><path d="M1098.30417,452.97644h-15v-15c15,15 0,0 15,15z"/></g></g><g><g fill="#ffffff" stroke-miterlimit="10"><path d="M1098.30417,452.97644v-15h15v15z"/></g><g fill="#f5f5f5" stroke-miterlimit="4"><path d="M1113.30417,452.97644h-15v-15c15,15 0,0 15,15z"/></g></g><g><g fill="#ffffff" stroke-miterlimit="10"><path d="M1083.30417,467.97644v-15h15v15z"/></g><g fill="#f5f5f5" stroke-miterlimit="4"><path d="M1098.30417,467.97644h-15v-15c15,15 0,0 15,15z"/></g></g><g><g fill="#ffffff" stroke-miterlimit="10"><path d="M1098.30417,467.97644v-15h15v15z"/></g><g fill="#f5f5f5" stroke-miterlimit="4"><path d="M1113.30417,467.97644h-15v-15c15,15 0,0 15,15z"/></g></g></g><g><g><g fill="#ffffff" stroke-miterlimit="10"><path d="M1083.30417,422.97644v-15h15v15z"/></g><g fill="#f5f5f5" stroke-miterlimit="4"><path d="M1098.30417,422.97644h-15v-15c15,15 0,0 15,15z"/></g></g><g><g fill="#ffffff" stroke-miterlimit="10"><path d="M1098.30417,422.97644v-15h15v15z"/></g><g fill="#f5f5f5" stroke-miterlimit="4"><path d="M1113.30417,422.97644h-15v-15c15,15 0,0 15,15z"/></g></g><g><g fill="#ffffff" stroke-miterlimit="10"><path d="M1083.30417,437.97644v-15h15v15z"/></g><g fill="#f5f5f5" stroke-miterlimit="4"><path d="M1098.30417,437.97644h-15v-15c15,15 0,0 15,15z"/></g></g><g><g fill="#ffffff" stroke-miterlimit="10"><path d="M1098.30417,437.97644v-15h15v15z"/></g><g fill="#f5f5f5" stroke-miterlimit="4"><path d="M1113.30417,437.97644h-15v-15c15,15 0,0 15,15z"/></g></g></g><g><g><g fill="#ffffff" stroke-miterlimit="10"><path d="M1083.30417,392.97644v-15h15v15z"/></g><g fill="#f5f5f5" stroke-miterlimit="4"><path d="M1098.30417,392.97644h-15v-15c15,15 0,0 15,15z"/></g></g><g><g fill="#ffffff" stroke-miterlimit="10"><path d="M1098.30417,392.97644v-15h15v15z"/></g><g fill="#f5f5f5" stroke-miterlimit="4"><path d="M1113.30417,392.97644h-15v-15c15,15 0,0 15,15z"/></g></g><g><g fill="#ffffff" stroke-miterlimit="10"><path d="M1083.30417,407.97644v-15h15v15z"/></g><g fill="#f5f5f5" stroke-miterlimit="4"><path d="M1098.30417,407.97644h-15v-15c15,15 0,0 15,15z"/></g></g><g><g fill="#ffffff" stroke-miterlimit="10"><path d="M1098.30417,407.97644v-15h15v15z"/></g><g fill="#f5f5f5" stroke-miterlimit="4"><path d="M1113.30417,407.97644h-15v-15c15,15 0,0 15,15z"/></g></g></g><g><g><g fill="#ffffff" stroke-miterlimit="10"><path d="M1113.30417,452.97644v-15h15v15z"/></g><g fill="#f5f5f5" stroke-miterlimit="4"><path d="M1128.30417,452.97644h-15v-15c15,15 0,0 15,15z"/></g></g><g><g fill="#ffffff" stroke-miterlimit="10"><path d="M1128.30417,452.97644v-15h15v15z"/></g><g fill="#f5f5f5" stroke-miterlimit="4"><path d="M1143.30417,452.97644h-15v-15c15,15 0,0 15,15z"/></g></g><g><g fill="#ffffff" stroke-miterlimit="10"><path d="M1113.30417,467.97644v-15h15v15z"/></g><g fill="#f5f5f5" stroke-miterlimit="4"><path d="M1128.30417,467.97644h-15v-15c15,15 0,0 15,15z"/></g></g><g><g fill="#ffffff" stroke-miterlimit="10"><path d="M1128.30417,467.97644v-15h15v15z"/></g><g fill="#f5f5f5" stroke-miterlimit="4"><path d="M1143.30417,467.97644h-15v-15c15,15 0,0 15,15z"/></g></g></g><g><g><g fill="#ffffff" stroke-miterlimit="10"><path d="M1113.30417,422.97644v-15h15v15z"/></g><g fill="#f5f5f5" stroke-miterlimit="4"><path d="M1128.30417,422.97644h-15v-15c15,15 0,0 15,15z"/></g></g><g><g fill="#ffffff" stroke-miterlimit="10"><path d="M1128.30417,422.97644v-15h15v15z"/></g><g fill="#f5f5f5" stroke-miterlimit="4"><path d="M1143.30417,422.97644h-15v-15c15,15 0,0 15,15z"/></g></g><g><g fill="#ffffff" stroke-miterlimit="10"><path d="M1113.30417,437.97644v-15h15v15z"/></g><g fill="#f5f5f5" stroke-miterlimit="4"><path d="M1128.30417,437.97644h-15v-15c15,15 0,0 15,15z"/></g></g><g><g fill="#ffffff" stroke-miterlimit="10"><path d="M1128.30417,437.97644v-15h15v15z"/></g><g fill="#f5f5f5" stroke-miterlimit="4"><path d="M1143.30417,437.97644h-15v-15c15,15 0,0 15,15z"/></g></g></g><g><g><g fill="#ffffff" stroke-miterlimit="10"><path d="M1113.30417,392.97644v-15h15v15z"/></g><g fill="#f5f5f5" stroke-miterlimit="4"><path d="M1128.30417,392.97644h-15v-15c15,15 0,0 15,15z"/></g></g><g><g fill="#ffffff" stroke-miterlimit="10"><path d="M1128.30417,392.97644v-15h15v15z"/></g><g fill="#f5f5f5" stroke-miterlimit="4"><path d="M1143.30417,392.97644h-15v-15c15,15 0,0 15,15z"/></g></g><g><g fill="#ffffff" stroke-miterlimit="10"><path d="M1113.30417,407.97644v-15h15v15z"/></g><g fill="#f5f5f5" stroke-miterlimit="4"><path d="M1128.30417,407.97644h-15v-15c15,15 0,0 15,15z"/></g></g><g><g fill="#ffffff" stroke-miterlimit="10"><path d="M1128.30417,407.97644v-15h15v15z"/></g><g fill="#f5f5f5" stroke-miterlimit="4"><path d="M1143.30417,407.97644h-15v-15c15,15 0,0 15,15z"/></g></g></g><g><g><g fill="#ffffff" stroke-miterlimit="10"><path d="M1053.30417,362.97645v-15h15v15z"/></g><g fill="#f5f5f5" stroke-miterlimit="4"><path d="M1068.30417,362.97645h-15v-15c15,15 0,0 15,15z"/></g></g><g><g fill="#ffffff" stroke-miterlimit="10"><path d="M1068.30417,362.97645v-15h15v15z"/></g><g fill="#f5f5f5" stroke-miterlimit="4"><path d="M1083.30417,362.97645h-15v-15c15,15 0,0 15,15z"/></g></g><g><g fill="#ffffff" stroke-miterlimit="10"><path d="M1053.30417,377.97645v-15h15v15z"/></g><g fill="#f5f5f5" stroke-miterlimit="4"><path d="M1068.30417,377.97645h-15v-15c15,15 0,0 15,15z"/></g></g><g><g fill="#ffffff" stroke-miterlimit="10"><path d="M1068.30417,377.97645v-15h15v15z"/></g><g fill="#f5f5f5" stroke-miterlimit="4"><path d="M1083.30417,377.97645h-15v-15c15,15 0,0 15,15z"/></g></g></g><g><g><g fill="#ffffff" stroke-miterlimit="10"><path d="M1083.30417,362.97645v-15h15v15z"/></g><g fill="#f5f5f5" stroke-miterlimit="4"><path d="M1098.30417,362.97645h-15v-15c15,15 0,0 15,15z"/></g></g><g><g fill="#ffffff" stroke-miterlimit="10"><path d="M1098.30417,362.97645v-15h15v15z"/></g><g fill="#f5f5f5" stroke-miterlimit="4"><path d="M1113.30417,362.97645h-15v-15c15,15 0,0 15,15z"/></g></g><g><g fill="#ffffff" stroke-miterlimit="10"><path d="M1083.30417,377.97645v-15h15v15z"/></g><g fill="#f5f5f5" stroke-miterlimit="4"><path d="M1098.30417,377.97645h-15v-15c15,15 0,0 15,15z"/></g></g><g><g fill="#ffffff" stroke-miterlimit="10"><path d="M1098.30417,377.97645v-15h15v15z"/></g><g fill="#f5f5f5" stroke-miterlimit="4"><path d="M1113.30417,377.97645h-15v-15c15,15 0,0 15,15z"/></g></g></g><g><g fill="#338000" stroke-miterlimit="10"><path d="M1203.30418,317.97644v15h-15v-15z"/></g><g fill="#44aa00" stroke-miterlimit="4"><path d="M1188.30418,317.97644h15v15c-15,-15 0,0 -15,-15z"/></g></g><g><g fill="#338000" stroke-miterlimit="10"><path d="M1218.30418,317.97644v15h-15v-15z"/></g><g fill="#44aa00" stroke-miterlimit="4"><path d="M1203.30418,317.97644h15v15c-15,-15 0,0 -15,-15z"/></g></g><g><g fill="#338000" stroke-miterlimit="10"><path d="M1233.30418,317.97644v15h-15v-15z"/></g><g fill="#44aa00" stroke-miterlimit="4"><path d="M1218.30418,317.97644h15v15c-15,-15 0,0 -15,-15z"/></g></g><g><g fill="#338000" stroke-miterlimit="10"><path d="M1248.30417,317.97644v15h-15v-15z"/></g><g fill="#44aa00" stroke-miterlimit="4"><path d="M1233.30417,317.97644h15v15c-15,-15 0,0 -15,-15z"/></g></g><g><g fill="#338000" stroke-miterlimit="10"><path d="M1263.30417,317.97644v15h-15v-15z"/></g><g fill="#44aa00" stroke-miterlimit="4"><path d="M1248.30417,317.97644h15v15c-15,-15 0,0 -15,-15z"/></g></g><g><g fill="#338000" stroke-miterlimit="10"><path d="M1278.30417,317.97644v15h-15v-15z"/></g><g fill="#44aa00" stroke-miterlimit="4"><path d="M1263.30417,317.97644h15v15c-15,-15 0,0 -15,-15z"/></g></g><g><g fill="#338000" stroke-miterlimit="10"><path d="M1293.30417,317.97644v15h-15v-15z"/></g><g fill="#44aa00" stroke-miterlimit="4"><path d="M1278.30417,317.97644h15v15c-15,-15 0,0 -15,-15z"/></g></g><g><g fill="#338000" stroke-miterlimit="10"><path d="M1308.30416,317.97644v15h-15v-15z"/></g><g fill="#44aa00" stroke-miterlimit="4"><path d="M1293.30416,317.97644h15v15c-15,-15 0,0 -15,-15z"/></g></g><g><g fill="#338000" stroke-miterlimit="10"><path d="M1323.30416,317.97644v15h-15v-15z"/></g><g fill="#44aa00" stroke-miterlimit="4"><path d="M1308.30416,317.97644h15v15c-15,-15 0,0 -15,-15z"/></g></g><g><g fill="#338000" stroke-miterlimit="10"><path d="M1338.30416,317.97644v15h-15v-15z"/></g><g fill="#44aa00" stroke-miterlimit="4"><path d="M1323.30416,317.97644h15v15c-15,-15 0,0 -15,-15z"/></g></g><g><g fill="#338000" stroke-miterlimit="10"><path d="M1353.30416,317.97644v15h-15v-15z"/></g><g fill="#44aa00" stroke-miterlimit="4"><path d="M1338.30416,317.97644h15v15c-15,-15 0,0 -15,-15z"/></g></g><g><g fill="#338000" stroke-miterlimit="10"><path d="M1368.30415,317.97644v15h-15v-15z"/></g><g fill="#44aa00" stroke-miterlimit="4"><path d="M1353.30415,317.97644h15v15c-15,-15 0,0 -15,-15z"/></g></g><g><g fill="#338000" stroke-miterlimit="10"><path d="M1383.30415,317.97644v15h-15v-15z"/></g><g fill="#44aa00" stroke-miterlimit="4"><path d="M1368.30415,317.97644h15v15c-15,-15 0,0 -15,-15z"/></g></g><g><g fill="#338000" stroke-miterlimit="10"><path d="M1398.30414,317.97644v15h-15v-15z"/></g><g fill="#44aa00" stroke-miterlimit="4"><path d="M1383.30414,317.97644h15v15c-15,-15 0,0 -15,-15z"/></g></g><g><g fill="#338000" stroke-miterlimit="10"><path d="M1188.30417,317.97643v15h-15v-15z"/></g><g fill="#44aa00" stroke-miterlimit="4"><path d="M1173.30417,317.97643h15v15c-15,-15 0,0 -15,-15z"/></g></g><g><g fill="#338000" stroke-miterlimit="10"><path d="M1413.30418,317.97644v15h-15v-15z"/></g><g fill="#44aa00" stroke-miterlimit="4"><path d="M1398.30418,317.97644h15v15c-15,-15 0,0 -15,-15z"/></g></g><g><g fill="#338000" stroke-miterlimit="10"><path d="M1428.30418,317.97644v15h-15v-15z"/></g><g fill="#44aa00" stroke-miterlimit="4"><path d="M1413.30418,317.97644h15v15c-15,-15 0,0 -15,-15z"/></g></g><g><g fill="#338000" stroke-miterlimit="10"><path d="M1443.30418,317.97644v15h-15v-15z"/></g><g fill="#44aa00" stroke-miterlimit="4"><path d="M1428.30418,317.97644h15v15c-15,-15 0,0 -15,-15z"/></g></g><g><g fill="#338000" stroke-miterlimit="10"><path d="M1458.30417,317.97644v15h-15v-15z"/></g><g fill="#44aa00" stroke-miterlimit="4"><path d="M1443.30417,317.97644h15v15c-15,-15 0,0 -15,-15z"/></g></g><g><g fill="#338000" stroke-miterlimit="10"><path d="M1473.30417,317.97644v15h-15v-15z"/></g><g fill="#44aa00" stroke-miterlimit="4"><path d="M1458.30417,317.97644h15v15c-15,-15 0,0 -15,-15z"/></g></g><g><g fill="#338000" stroke-miterlimit="10"><path d="M1488.30416,317.97644v15h-15v-15z"/></g><g fill="#44aa00" stroke-miterlimit="4"><path d="M1473.30416,317.97644h15v15c-15,-15 0,0 -15,-15z"/></g></g><g><g><g fill="#ffffff" stroke-miterlimit="10"><path d="M1233.30418,347.97644v-15h15v15z"/></g><g fill="#f5f5f5" stroke-miterlimit="4"><path d="M1248.30418,332.97644v15h-15c15,-15 0,0 15,-15z"/></g></g><g><g fill="#ffffff" stroke-miterlimit="10"><path d="M1263.30418,332.97644v15h-15v-15z"/></g><g fill="#f5f5f5" stroke-miterlimit="4"><path d="M1248.30418,347.97644v-15h15c-15,15 0,0 -15,15z"/></g></g><g><g fill="#ffffff" stroke-miterlimit="10"><path d="M1233.30418,362.97644v-15h15v15z"/></g><g fill="#f5f5f5" stroke-miterlimit="4"><path d="M1248.30418,347.97644v15h-15c15,-15 0,0 15,-15z"/></g></g><g><g fill="#ffffff" stroke-miterlimit="10"><path d="M1263.30418,347.97644v15h-15v-15z"/></g><g fill="#f5f5f5" stroke-miterlimit="4"><path d="M1248.30418,362.97644v-15h15c-15,15 0,0 -15,15z"/></g></g></g><g><g><g fill="#ffffff" stroke-miterlimit="10"><path d="M1263.30417,347.97642v-15h15v15z"/></g><g fill="#f5f5f5" stroke-miterlimit="4"><path d="M1278.30417,332.97642v15h-15c15,-15 0,0 15,-15z"/></g></g><g><g fill="#ffffff" stroke-miterlimit="10"><path d="M1293.30417,332.97642v15h-15v-15z"/></g><g fill="#f5f5f5" stroke-miterlimit="4"><path d="M1278.30417,347.97642v-15h15c-15,15 0,0 -15,15z"/></g></g><g><g fill="#ffffff" stroke-miterlimit="10"><path d="M1263.30417,362.97642v-15h15v15z"/></g><g fill="#f5f5f5" stroke-miterlimit="4"><path d="M1278.30417,347.97642v15h-15c15,-15 0,0 15,-15z"/></g></g><g><g fill="#ffffff" stroke-miterlimit="10"><path d="M1293.30417,347.97642v15h-15v-15z"/></g><g fill="#f5f5f5" stroke-miterlimit="4"><path d="M1278.30417,362.97642v-15h15c-15,15 0,0 -15,15z"/></g></g></g><g><g><g fill="#ffffff" stroke-miterlimit="10"><path d="M1173.30418,347.97644v-15h15v15z"/></g><g fill="#f5f5f5" stroke-miterlimit="4"><path d="M1188.30418,332.97644v15h-15c15,-15 0,0 15,-15z"/></g></g><g><g fill="#ffffff" stroke-miterlimit="10"><path d="M1203.30418,332.97644v15h-15v-15z"/></g><g fill="#f5f5f5" stroke-miterlimit="4"><path d="M1188.30418,347.97644v-15h15c-15,15 0,0 -15,15z"/></g></g><g><g fill="#ffffff" stroke-miterlimit="10"><path d="M1173.30418,362.97644v-15h15v15z"/></g><g fill="#f5f5f5" stroke-miterlimit="4"><path d="M1188.30418,347.97644v15h-15c15,-15 0,0 15,-15z"/></g></g><g><g fill="#ffffff" stroke-miterlimit="10"><path d="M1203.30418,347.97644v15h-15v-15z"/></g><g fill="#f5f5f5" stroke-miterlimit="4"><path d="M1188.30418,362.97644v-15h15c-15,15 0,0 -15,15z"/></g></g></g><g><g><g fill="#ffffff" stroke-miterlimit="10"><path d="M1203.30418,347.97644v-15h15v15z"/></g><g fill="#f5f5f5" stroke-miterlimit="4"><path d="M1218.30418,332.97644v15h-15c15,-15 0,0 15,-15z"/></g></g><g><g fill="#ffffff" stroke-miterlimit="10"><path d="M1233.30418,332.97644v15h-15v-15z"/></g><g fill="#f5f5f5" stroke-miterlimit="4"><path d="M1218.30418,347.97644v-15h15c-15,15 0,0 -15,15z"/></g></g><g><g fill="#ffffff" stroke-miterlimit="10"><path d="M1203.30418,362.97644v-15h15v15z"/></g><g fill="#f5f5f5" stroke-miterlimit="4"><path d="M1218.30418,347.97644v15h-15c15,-15 0,0 15,-15z"/></g></g><g><g fill="#ffffff" stroke-miterlimit="10"><path d="M1233.30418,347.97644v15h-15v-15z"/></g><g fill="#f5f5f5" stroke-miterlimit="4"><path d="M1218.30418,362.97644v-15h15c-15,15 0,0 -15,15z"/></g></g></g><g><g><g fill="#ffffff" stroke-miterlimit="10"><path d="M1113.30417,362.97645v-15h15v15z"/></g><g fill="#f5f5f5" stroke-miterlimit="4"><path d="M1128.30417,362.97645h-15v-15c15,15 0,0 15,15z"/></g></g><g><g fill="#ffffff" stroke-miterlimit="10"><path d="M1128.30417,362.97645v-15h15v15z"/></g><g fill="#f5f5f5" stroke-miterlimit="4"><path d="M1143.30417,362.97645h-15v-15c15,15 0,0 15,15z"/></g></g><g><g fill="#ffffff" stroke-miterlimit="10"><path d="M1113.30417,377.97645v-15h15v15z"/></g><g fill="#f5f5f5" stroke-miterlimit="4"><path d="M1128.30417,377.97645h-15v-15c15,15 0,0 15,15z"/></g></g><g><g fill="#ffffff" stroke-miterlimit="10"><path d="M1128.30417,377.97645v-15h15v15z"/></g><g fill="#f5f5f5" stroke-miterlimit="4"><path d="M1143.30417,377.97645h-15v-15c15,15 0,0 15,15z"/></g></g></g><g><g><g fill="#ffffff" stroke-miterlimit="10"><path d="M1353.30417,347.97644v-15h15v15z"/></g><g fill="#f5f5f5" stroke-miterlimit="4"><path d="M1368.30417,332.97644v15h-15c15,-15 0,0 15,-15z"/></g></g><g><g fill="#ffffff" stroke-miterlimit="10"><path d="M1383.30417,332.97644v15h-15v-15z"/></g><g fill="#f5f5f5" stroke-miterlimit="4"><path d="M1368.30417,347.97644v-15h15c-15,15 0,0 -15,15z"/></g></g><g><g fill="#ffffff" stroke-miterlimit="10"><path d="M1353.30417,362.97644v-15h15v15z"/></g><g fill="#f5f5f5" stroke-miterlimit="4"><path d="M1368.30417,347.97644v15h-15c15,-15 0,0 15,-15z"/></g></g><g><g fill="#ffffff" stroke-miterlimit="10"><path d="M1383.30417,347.97644v15h-15v-15z"/></g><g fill="#f5f5f5" stroke-miterlimit="4"><path d="M1368.30417,362.97644v-15h15c-15,15 0,0 -15,15z"/></g></g></g><g><g><g fill="#ffffff" stroke-miterlimit="10"><path d="M1383.30417,347.97642v-15h15v15z"/></g><g fill="#f5f5f5" stroke-miterlimit="4"><path d="M1398.30417,332.97642v15h-15c15,-15 0,0 15,-15z"/></g></g><g><g fill="#ffffff" stroke-miterlimit="10"><path d="M1413.30417,332.97642v15h-15v-15z"/></g><g fill="#f5f5f5" stroke-miterlimit="4"><path d="M1398.30417,347.97642v-15h15c-15,15 0,0 -15,15z"/></g></g><g><g fill="#ffffff" stroke-miterlimit="10"><path d="M1383.30417,362.97642v-15h15v15z"/></g><g fill="#f5f5f5" stroke-miterlimit="4"><path d="M1398.30417,347.97642v15h-15c15,-15 0,0 15,-15z"/></g></g><g><g fill="#ffffff" stroke-miterlimit="10"><path d="M1413.30417,347.97642v15h-15v-15z"/></g><g fill="#f5f5f5" stroke-miterlimit="4"><path d="M1398.30417,362.97642v-15h15c-15,15 0,0 -15,15z"/></g></g></g><g><g><g fill="#ffffff" stroke-miterlimit="10"><path d="M1293.30417,347.97644v-15h15v15z"/></g><g fill="#f5f5f5" stroke-miterlimit="4"><path d="M1308.30417,332.97644v15h-15c15,-15 0,0 15,-15z"/></g></g><g><g fill="#ffffff" stroke-miterlimit="10"><path d="M1323.30417,332.97644v15h-15v-15z"/></g><g fill="#f5f5f5" stroke-miterlimit="4"><path d="M1308.30417,347.97644v-15h15c-15,15 0,0 -15,15z"/></g></g><g><g fill="#ffffff" stroke-miterlimit="10"><path d="M1293.30417,362.97644v-15h15v15z"/></g><g fill="#f5f5f5" stroke-miterlimit="4"><path d="M1308.30417,347.97644v15h-15c15,-15 0,0 15,-15z"/></g></g><g><g fill="#ffffff" stroke-miterlimit="10"><path d="M1323.30417,347.97644v15h-15v-15z"/></g><g fill="#f5f5f5" stroke-miterlimit="4"><path d="M1308.30417,362.97644v-15h15c-15,15 0,0 -15,15z"/></g></g></g><g><g><g fill="#ffffff" stroke-miterlimit="10"><path d="M1323.30417,347.97644v-15h15v15z"/></g><g fill="#f5f5f5" stroke-miterlimit="4"><path d="M1338.30417,332.97644v15h-15c15,-15 0,0 15,-15z"/></g></g><g><g fill="#ffffff" stroke-miterlimit="10"><path d="M1353.30417,332.97644v15h-15v-15z"/></g><g fill="#f5f5f5" stroke-miterlimit="4"><path d="M1338.30417,347.97644v-15h15c-15,15 0,0 -15,15z"/></g></g><g><g fill="#ffffff" stroke-miterlimit="10"><path d="M1323.30417,362.97644v-15h15v15z"/></g><g fill="#f5f5f5" stroke-miterlimit="4"><path d="M1338.30417,347.97644v15h-15c15,-15 0,0 15,-15z"/></g></g><g><g fill="#ffffff" stroke-miterlimit="10"><path d="M1353.30417,347.97644v15h-15v-15z"/></g><g fill="#f5f5f5" stroke-miterlimit="4"><path d="M1338.30417,362.97644v-15h15c-15,15 0,0 -15,15z"/></g></g></g><g><g><g fill="#ffffff" stroke-miterlimit="10"><path d="M1473.30417,347.97644v-15h15v15z"/></g><g fill="#f5f5f5" stroke-miterlimit="4"><path d="M1488.30417,332.97644v15h-15c15,-15 0,0 15,-15z"/></g></g><g><g fill="#ffffff" stroke-miterlimit="10"><path d="M1503.30417,332.97644v15h-15v-15z"/></g><g fill="#f5f5f5" stroke-miterlimit="4"><path d="M1488.30417,347.97644v-15h15c-15,15 0,0 -15,15z"/></g></g><g><g fill="#ffffff" stroke-miterlimit="10"><path d="M1473.30417,362.97644v-15h15v15z"/></g><g fill="#f5f5f5" stroke-miterlimit="4"><path d="M1488.30417,347.97644v15h-15c15,-15 0,0 15,-15z"/></g></g><g><g fill="#ffffff" stroke-miterlimit="10"><path d="M1503.30417,347.97644v15h-15v-15z"/></g><g fill="#f5f5f5" stroke-miterlimit="4"><path d="M1488.30417,362.97644v-15h15c-15,15 0,0 -15,15z"/></g></g></g><g><g><g fill="#ffffff" stroke-miterlimit="10"><path d="M1503.30417,347.97642v-15h15v15z"/></g><g fill="#f5f5f5" stroke-miterlimit="4"><path d="M1518.30417,332.97642v15h-15c15,-15 0,0 15,-15z"/></g></g><g><g fill="#ffffff" stroke-miterlimit="10"><path d="M1533.30417,332.97642v15h-15v-15z"/></g><g fill="#f5f5f5" stroke-miterlimit="4"><path d="M1518.30417,347.97642v-15h15c-15,15 0,0 -15,15z"/></g></g><g><g fill="#ffffff" stroke-miterlimit="10"><path d="M1503.30417,362.97642v-15h15v15z"/></g><g fill="#f5f5f5" stroke-miterlimit="4"><path d="M1518.30417,347.97642v15h-15c15,-15 0,0 15,-15z"/></g></g><g><g fill="#ffffff" stroke-miterlimit="10"><path d="M1533.30417,347.97642v15h-15v-15z"/></g><g fill="#f5f5f5" stroke-miterlimit="4"><path d="M1518.30417,362.97642v-15h15c-15,15 0,0 -15,15z"/></g></g></g><g><g><g fill="#ffffff" stroke-miterlimit="10"><path d="M1413.30417,347.97644v-15h15v15z"/></g><g fill="#f5f5f5" stroke-miterlimit="4"><path d="M1428.30417,332.97644v15h-15c15,-15 0,0 15,-15z"/></g></g><g><g fill="#ffffff" stroke-miterlimit="10"><path d="M1443.30417,332.97644v15h-15v-15z"/></g><g fill="#f5f5f5" stroke-miterlimit="4"><path d="M1428.30417,347.97644v-15h15c-15,15 0,0 -15,15z"/></g></g><g><g fill="#ffffff" stroke-miterlimit="10"><path d="M1413.30417,362.97644v-15h15v15z"/></g><g fill="#f5f5f5" stroke-miterlimit="4"><path d="M1428.30417,347.97644v15h-15c15,-15 0,0 15,-15z"/></g></g><g><g fill="#ffffff" stroke-miterlimit="10"><path d="M1443.30417,347.97644v15h-15v-15z"/></g><g fill="#f5f5f5" stroke-miterlimit="4"><path d="M1428.30417,362.97644v-15h15c-15,15 0,0 -15,15z"/></g></g></g><g><g><g fill="#ffffff" stroke-miterlimit="10"><path d="M1443.30417,347.97644v-15h15v15z"/></g><g fill="#f5f5f5" stroke-miterlimit="4"><path d="M1458.30417,332.97644v15h-15c15,-15 0,0 15,-15z"/></g></g><g><g fill="#ffffff" stroke-miterlimit="10"><path d="M1473.30417,332.97644v15h-15v-15z"/></g><g fill="#f5f5f5" stroke-miterlimit="4"><path d="M1458.30417,347.97644v-15h15c-15,15 0,0 -15,15z"/></g></g><g><g fill="#ffffff" stroke-miterlimit="10"><path d="M1443.30417,362.97644v-15h15v15z"/></g><g fill="#f5f5f5" stroke-miterlimit="4"><path d="M1458.30417,347.97644v15h-15c15,-15 0,0 15,-15z"/></g></g><g><g fill="#ffffff" stroke-miterlimit="10"><path d="M1473.30417,347.97644v15h-15v-15z"/></g><g fill="#f5f5f5" stroke-miterlimit="4"><path d="M1458.30417,362.97644v-15h15c-15,15 0,0 -15,15z"/></g></g></g><g><g fill="#338000" stroke-miterlimit="10"><path d="M1503.3042,317.97645v15h-15v-15z"/></g><g fill="#44aa00" stroke-miterlimit="4"><path d="M1488.3042,317.97645h15v15c-15,-15 0,0 -15,-15z"/></g></g><g><g fill="#338000" stroke-miterlimit="10"><path d="M1518.3042,317.97645v15h-15v-15z"/></g><g fill="#44aa00" stroke-miterlimit="4"><path d="M1503.3042,317.97645h15v15c-15,-15 0,0 -15,-15z"/></g></g><g><g><g fill="#ffffff" stroke-miterlimit="10"><path d="M1053.30422,332.97642v-15h15v15z"/></g><g fill="#f5f5f5" stroke-miterlimit="4"><path d="M1068.30422,317.97642v15h-15c15,-15 0,0 15,-15z"/></g></g><g><g fill="#ffffff" stroke-miterlimit="10"><path d="M1068.30418,332.97639v15h-15v-15z"/></g><g fill="#f5f5f5" stroke-miterlimit="4"><path d="M1053.30418,332.97639h15v15c-15,-15 0,0 -15,-15z"/></g></g><g><g fill="#ffffff" stroke-miterlimit="10"><path d="M1068.30417,332.97644v-15h15v15z"/></g><g fill="#f5f5f5" stroke-miterlimit="4"><path d="M1083.30417,332.97644h-15v-15c15,15 0,0 15,15z"/></g></g><g><g fill="#ffffff" stroke-miterlimit="10"><path d="M1083.30417,332.97645v15h-15v-15z"/></g><g fill="#f5f5f5" stroke-miterlimit="4"><path d="M1068.30417,347.97645v-15h15c-15,15 0,0 -15,15z"/></g></g></g><g><g><g fill="#ffffff" stroke-miterlimit="10"><path d="M1083.30421,332.97648v-15h15v15z"/></g><g fill="#f5f5f5" stroke-miterlimit="4"><path d="M1098.30421,317.97648v15h-15c15,-15 0,0 15,-15z"/></g></g><g><g fill="#ffffff" stroke-miterlimit="10"><path d="M1098.30417,332.97645v15h-15v-15z"/></g><g fill="#f5f5f5" stroke-miterlimit="4"><path d="M1083.30417,332.97645h15v15c-15,-15 0,0 -15,-15z"/></g></g><g><g fill="#ffffff" stroke-miterlimit="10"><path d="M1098.30416,332.9765v-15h15v15z"/></g><g fill="#f5f5f5" stroke-miterlimit="4"><path d="M1113.30416,332.9765h-15v-15c15,15 0,0 15,15z"/></g></g><g><g fill="#ffffff" stroke-miterlimit="10"><path d="M1113.30416,332.97651v15h-15v-15z"/></g><g fill="#f5f5f5" stroke-miterlimit="4"><path d="M1098.30416,347.97651v-15h15c-15,15 0,0 -15,15z"/></g></g></g><g><g><g fill="#ffffff" stroke-miterlimit="10"><path d="M1113.30421,332.97648v-15h15v15z"/></g><g fill="#f5f5f5" stroke-miterlimit="4"><path d="M1128.30421,317.97648v15h-15c15,-15 0,0 15,-15z"/></g></g><g><g fill="#ffffff" stroke-miterlimit="10"><path d="M1128.30417,332.97645v15h-15v-15z"/></g><g fill="#f5f5f5" stroke-miterlimit="4"><path d="M1113.30417,332.97645h15v15c-15,-15 0,0 -15,-15z"/></g></g><g><g fill="#ffffff" stroke-miterlimit="10"><path d="M1128.30416,332.9765v-15h15v15z"/></g><g fill="#f5f5f5" stroke-miterlimit="4"><path d="M1143.30416,332.9765h-15v-15c15,15 0,0 15,15z"/></g></g><g><g fill="#ffffff" stroke-miterlimit="10"><path d="M1143.30416,332.97651v15h-15v-15z"/></g><g fill="#f5f5f5" stroke-miterlimit="4"><path d="M1128.30416,347.97651v-15h15c-15,15 0,0 -15,15z"/></g></g></g><g><g fill="#338000" stroke-miterlimit="10"><path d="M1173.30417,317.97643v15h-15v-15z"/></g><g fill="#44aa00" stroke-miterlimit="4"><path d="M1158.30417,317.97643h15v15c-15,-15 0,0 -15,-15z"/></g></g><g><g fill="#338000" stroke-miterlimit="10"><path d="M1158.30416,317.97642v15h-15v-15z"/></g><g fill="#44aa00" stroke-miterlimit="4"><path d="M1143.30416,317.97642h15v15c-15,-15 0,0 -15,-15z"/></g></g><g><g><g fill="#ffffff" stroke-miterlimit="10"><path d="M1143.30417,347.97645v-15h15v15z"/></g><g fill="#f5f5f5" stroke-miterlimit="4"><path d="M1158.30417,332.97645v15h-15c15,-15 0,0 15,-15z"/></g></g><g><g fill="#ffffff" stroke-miterlimit="10"><path d="M1173.30417,332.97645v15h-15v-15z"/></g><g fill="#f5f5f5" stroke-miterlimit="4"><path d="M1158.30417,347.97645v-15h15c-15,15 0,0 -15,15z"/></g></g><g><g fill="#ffffff" stroke-miterlimit="10"><path d="M1143.30417,362.97645v-15h15v15z"/></g><g fill="#f5f5f5" stroke-miterlimit="4"><path d="M1158.30417,347.97645v15h-15c15,-15 0,0 15,-15z"/></g></g><g><g fill="#ffffff" stroke-miterlimit="10"><path d="M1173.30417,347.97645v15h-15v-15z"/></g><g fill="#f5f5f5" stroke-miterlimit="4"><path d="M1158.30417,362.97645v-15h15c-15,15 0,0 -15,15z"/></g></g></g><g><g><g fill="#ffffff" stroke-miterlimit="10"><path d="M1143.30417,377.97645v-15h15v15z"/></g><g fill="#f5f5f5" stroke-miterlimit="4"><path d="M1158.30417,362.97645v15h-15c15,-15 0,0 15,-15z"/></g></g><g><g fill="#ffffff" stroke-miterlimit="10"><path d="M1173.30417,362.97645v15h-15v-15z"/></g><g fill="#f5f5f5" stroke-miterlimit="4"><path d="M1158.30417,377.97645v-15h15c-15,15 0,0 -15,15z"/></g></g><g><g fill="#ffffff" stroke-miterlimit="10"><path d="M1143.30417,392.97645v-15h15v15z"/></g><g fill="#f5f5f5" stroke-miterlimit="4"><path d="M1158.30417,377.97645v15h-15c15,-15 0,0 15,-15z"/></g></g><g><g fill="#ffffff" stroke-miterlimit="10"><path d="M1173.30417,377.97645v15h-15v-15z"/></g><g fill="#f5f5f5" stroke-miterlimit="4"><path d="M1158.30417,392.97645v-15h15c-15,15 0,0 -15,15z"/></g></g></g><g><g><g fill="#ffffff" stroke-miterlimit="10"><path d="M1173.30417,377.97645v-15h15v15z"/></g><g fill="#f5f5f5" stroke-miterlimit="4"><path d="M1188.30417,362.97645v15h-15c15,-15 0,0 15,-15z"/></g></g><g><g fill="#ffffff" stroke-miterlimit="10"><path d="M1203.30417,362.97645v15h-15v-15z"/></g><g fill="#f5f5f5" stroke-miterlimit="4"><path d="M1188.30417,377.97645v-15h15c-15,15 0,0 -15,15z"/></g></g><g><g fill="#ffffff" stroke-miterlimit="10"><path d="M1173.30417,392.97645v-15h15v15z"/></g><g fill="#f5f5f5" stroke-miterlimit="4"><path d="M1188.30417,377.97645v15h-15c15,-15 0,0 15,-15z"/></g></g><g><g fill="#ffffff" stroke-miterlimit="10"><path d="M1203.30417,377.97645v15h-15v-15z"/></g><g fill="#f5f5f5" stroke-miterlimit="4"><path d="M1188.30417,392.97645v-15h15c-15,15 0,0 -15,15z"/></g></g></g><g><g><g fill="#ffffff" stroke-miterlimit="10"><path d="M1203.30417,377.97645v-15h15v15z"/></g><g fill="#f5f5f5" stroke-miterlimit="4"><path d="M1218.30417,362.97645v15h-15c15,-15 0,0 15,-15z"/></g></g><g><g fill="#ffffff" stroke-miterlimit="10"><path d="M1233.30417,362.97645v15h-15v-15z"/></g><g fill="#f5f5f5" stroke-miterlimit="4"><path d="M1218.30417,377.97645v-15h15c-15,15 0,0 -15,15z"/></g></g><g><g fill="#ffffff" stroke-miterlimit="10"><path d="M1203.30417,392.97645v-15h15v15z"/></g><g fill="#f5f5f5" stroke-miterlimit="4"><path d="M1218.30417,377.97645v15h-15c15,-15 0,0 15,-15z"/></g></g><g><g fill="#ffffff" stroke-miterlimit="10"><path d="M1233.30417,377.97645v15h-15v-15z"/></g><g fill="#f5f5f5" stroke-miterlimit="4"><path d="M1218.30417,392.97645v-15h15c-15,15 0,0 -15,15z"/></g></g></g><g><g><g fill="#ffffff" stroke-miterlimit="10"><path d="M1233.30417,377.97645v-15h15v15z"/></g><g fill="#f5f5f5" stroke-miterlimit="4"><path d="M1248.30417,362.97645v15h-15c15,-15 0,0 15,-15z"/></g></g><g><g fill="#ffffff" stroke-miterlimit="10"><path d="M1263.30417,362.97645v15h-15v-15z"/></g><g fill="#f5f5f5" stroke-miterlimit="4"><path d="M1248.30417,377.97645v-15h15c-15,15 0,0 -15,15z"/></g></g><g><g fill="#ffffff" stroke-miterlimit="10"><path d="M1233.30417,392.97645v-15h15v15z"/></g><g fill="#f5f5f5" stroke-miterlimit="4"><path d="M1248.30417,377.97645v15h-15c15,-15 0,0 15,-15z"/></g></g><g><g fill="#ffffff" stroke-miterlimit="10"><path d="M1263.30417,377.97645v15h-15v-15z"/></g><g fill="#f5f5f5" stroke-miterlimit="4"><path d="M1248.30417,392.97645v-15h15c-15,15 0,0 -15,15z"/></g></g></g><g><g><g fill="#ffffff" stroke-miterlimit="10"><path d="M1263.30417,377.97642v-15h15v15z"/></g><g fill="#f5f5f5" stroke-miterlimit="4"><path d="M1278.30417,362.97642v15h-15c15,-15 0,0 15,-15z"/></g></g><g><g fill="#ffffff" stroke-miterlimit="10"><path d="M1293.30417,362.97642v15h-15v-15z"/></g><g fill="#f5f5f5" stroke-miterlimit="4"><path d="M1278.30417,377.97642v-15h15c-15,15 0,0 -15,15z"/></g></g><g><g fill="#ffffff" stroke-miterlimit="10"><path d="M1263.30417,392.97642v-15h15v15z"/></g><g fill="#f5f5f5" stroke-miterlimit="4"><path d="M1278.30417,377.97642v15h-15c15,-15 0,0 15,-15z"/></g></g><g><g fill="#ffffff" stroke-miterlimit="10"><path d="M1293.30417,377.97642v15h-15v-15z"/></g><g fill="#f5f5f5" stroke-miterlimit="4"><path d="M1278.30417,392.97642v-15h15c-15,15 0,0 -15,15z"/></g></g></g><g><g><g fill="#ffffff" stroke-miterlimit="10"><path d="M1293.30417,377.97644v-15h15v15z"/></g><g fill="#f5f5f5" stroke-miterlimit="4"><path d="M1308.30417,362.97644v15h-15c15,-15 0,0 15,-15z"/></g></g><g><g fill="#ffffff" stroke-miterlimit="10"><path d="M1323.30417,362.97644v15h-15v-15z"/></g><g fill="#f5f5f5" stroke-miterlimit="4"><path d="M1308.30417,377.97644v-15h15c-15,15 0,0 -15,15z"/></g></g><g><g fill="#ffffff" stroke-miterlimit="10"><path d="M1293.30417,392.97644v-15h15v15z"/></g><g fill="#f5f5f5" stroke-miterlimit="4"><path d="M1308.30417,377.97644v15h-15c15,-15 0,0 15,-15z"/></g></g><g><g fill="#ffffff" stroke-miterlimit="10"><path d="M1323.30417,377.97644v15h-15v-15z"/></g><g fill="#f5f5f5" stroke-miterlimit="4"><path d="M1308.30417,392.97644v-15h15c-15,15 0,0 -15,15z"/></g></g></g><g><g><g fill="#ffffff" stroke-miterlimit="10"><path d="M1323.30417,377.97644v-15h15v15z"/></g><g fill="#f5f5f5" stroke-miterlimit="4"><path d="M1338.30417,362.97644v15h-15c15,-15 0,0 15,-15z"/></g></g><g><g fill="#ffffff" stroke-miterlimit="10"><path d="M1353.30417,362.97644v15h-15v-15z"/></g><g fill="#f5f5f5" stroke-miterlimit="4"><path d="M1338.30417,377.97644v-15h15c-15,15 0,0 -15,15z"/></g></g><g><g fill="#ffffff" stroke-miterlimit="10"><path d="M1323.30417,392.97644v-15h15v15z"/></g><g fill="#f5f5f5" stroke-miterlimit="4"><path d="M1338.30417,377.97644v15h-15c15,-15 0,0 15,-15z"/></g></g><g><g fill="#ffffff" stroke-miterlimit="10"><path d="M1353.30417,377.97644v15h-15v-15z"/></g><g fill="#f5f5f5" stroke-miterlimit="4"><path d="M1338.30417,392.97644v-15h15c-15,15 0,0 -15,15z"/></g></g></g><g><g><g fill="#ffffff" stroke-miterlimit="10"><path d="M1353.30417,377.97644v-15h15v15z"/></g><g fill="#f5f5f5" stroke-miterlimit="4"><path d="M1368.30417,362.97644v15h-15c15,-15 0,0 15,-15z"/></g></g><g><g fill="#ffffff" stroke-miterlimit="10"><path d="M1383.30417,362.97644v15h-15v-15z"/></g><g fill="#f5f5f5" stroke-miterlimit="4"><path d="M1368.30417,377.97644v-15h15c-15,15 0,0 -15,15z"/></g></g><g><g fill="#ffffff" stroke-miterlimit="10"><path d="M1353.30417,392.97644v-15h15v15z"/></g><g fill="#f5f5f5" stroke-miterlimit="4"><path d="M1368.30417,377.97644v15h-15c15,-15 0,0 15,-15z"/></g></g><g><g fill="#ffffff" stroke-miterlimit="10"><path d="M1383.30417,377.97644v15h-15v-15z"/></g><g fill="#f5f5f5" stroke-miterlimit="4"><path d="M1368.30417,392.97644v-15h15c-15,15 0,0 -15,15z"/></g></g></g><g><g><g fill="#ffffff" stroke-miterlimit="10"><path d="M1383.30417,377.97642v-15h15v15z"/></g><g fill="#f5f5f5" stroke-miterlimit="4"><path d="M1398.30417,362.97642v15h-15c15,-15 0,0 15,-15z"/></g></g><g><g fill="#ffffff" stroke-miterlimit="10"><path d="M1413.30417,362.97642v15h-15v-15z"/></g><g fill="#f5f5f5" stroke-miterlimit="4"><path d="M1398.30417,377.97642v-15h15c-15,15 0,0 -15,15z"/></g></g><g><g fill="#ffffff" stroke-miterlimit="10"><path d="M1383.30417,392.97642v-15h15v15z"/></g><g fill="#f5f5f5" stroke-miterlimit="4"><path d="M1398.30417,377.97642v15h-15c15,-15 0,0 15,-15z"/></g></g><g><g fill="#ffffff" stroke-miterlimit="10"><path d="M1413.30417,377.97642v15h-15v-15z"/></g><g fill="#f5f5f5" stroke-miterlimit="4"><path d="M1398.30417,392.97642v-15h15c-15,15 0,0 -15,15z"/></g></g></g><g><g><g fill="#ffffff" stroke-miterlimit="10"><path d="M1413.30417,377.97642v-15h15v15z"/></g><g fill="#f5f5f5" stroke-miterlimit="4"><path d="M1428.30417,362.97642v15h-15c15,-15 0,0 15,-15z"/></g></g><g><g fill="#ffffff" stroke-miterlimit="10"><path d="M1443.30417,362.97642v15h-15v-15z"/></g><g fill="#f5f5f5" stroke-miterlimit="4"><path d="M1428.30417,377.97642v-15h15c-15,15 0,0 -15,15z"/></g></g><g><g fill="#ffffff" stroke-miterlimit="10"><path d="M1413.30417,392.97642v-15h15v15z"/></g><g fill="#f5f5f5" stroke-miterlimit="4"><path d="M1428.30417,377.97642v15h-15c15,-15 0,0 15,-15z"/></g></g><g><g fill="#ffffff" stroke-miterlimit="10"><path d="M1443.30417,377.97642v15h-15v-15z"/></g><g fill="#f5f5f5" stroke-miterlimit="4"><path d="M1428.30417,392.97642v-15h15c-15,15 0,0 -15,15z"/></g></g></g><g><g><g fill="#ffffff" stroke-miterlimit="10"><path d="M1443.30417,377.97644v-15h15v15z"/></g><g fill="#f5f5f5" stroke-miterlimit="4"><path d="M1458.30417,362.97644v15h-15c15,-15 0,0 15,-15z"/></g></g><g><g fill="#ffffff" stroke-miterlimit="10"><path d="M1473.30417,362.97644v15h-15v-15z"/></g><g fill="#f5f5f5" stroke-miterlimit="4"><path d="M1458.30417,377.97644v-15h15c-15,15 0,0 -15,15z"/></g></g><g><g fill="#ffffff" stroke-miterlimit="10"><path d="M1443.30417,392.97644v-15h15v15z"/></g><g fill="#f5f5f5" stroke-miterlimit="4"><path d="M1458.30417,377.97644v15h-15c15,-15 0,0 15,-15z"/></g></g><g><g fill="#ffffff" stroke-miterlimit="10"><path d="M1473.30417,377.97644v15h-15v-15z"/></g><g fill="#f5f5f5" stroke-miterlimit="4"><path d="M1458.30417,392.97644v-15h15c-15,15 0,0 -15,15z"/></g></g></g><g><g><g fill="#ffffff" stroke-miterlimit="10"><path d="M1473.30417,377.97644v-15h15v15z"/></g><g fill="#f5f5f5" stroke-miterlimit="4"><path d="M1488.30417,362.97644v15h-15c15,-15 0,0 15,-15z"/></g></g><g><g fill="#ffffff" stroke-miterlimit="10"><path d="M1503.30417,362.97644v15h-15v-15z"/></g><g fill="#f5f5f5" stroke-miterlimit="4"><path d="M1488.30417,377.97644v-15h15c-15,15 0,0 -15,15z"/></g></g><g><g fill="#ffffff" stroke-miterlimit="10"><path d="M1473.30417,392.97644v-15h15v15z"/></g><g fill="#f5f5f5" stroke-miterlimit="4"><path d="M1488.30417,377.97644v15h-15c15,-15 0,0 15,-15z"/></g></g><g><g fill="#ffffff" stroke-miterlimit="10"><path d="M1503.30417,377.97644v15h-15v-15z"/></g><g fill="#f5f5f5" stroke-miterlimit="4"><path d="M1488.30417,392.97644v-15h15c-15,15 0,0 -15,15z"/></g></g></g><g><g><g fill="#ffffff" stroke-miterlimit="10"><path d="M1503.30417,377.97642v-15h15v15z"/></g><g fill="#f5f5f5" stroke-miterlimit="4"><path d="M1518.30417,362.97642v15h-15c15,-15 0,0 15,-15z"/></g></g><g><g fill="#ffffff" stroke-miterlimit="10"><path d="M1533.30417,362.97642v15h-15v-15z"/></g><g fill="#f5f5f5" stroke-miterlimit="4"><path d="M1518.30417,377.97642v-15h15c-15,15 0,0 -15,15z"/></g></g><g><g fill="#ffffff" stroke-miterlimit="10"><path d="M1503.30417,392.97642v-15h15v15z"/></g><g fill="#f5f5f5" stroke-miterlimit="4"><path d="M1518.30417,377.97642v15h-15c15,-15 0,0 15,-15z"/></g></g><g><g fill="#ffffff" stroke-miterlimit="10"><path d="M1533.30417,377.97642v15h-15v-15z"/></g><g fill="#f5f5f5" stroke-miterlimit="4"><path d="M1518.30417,392.97642v-15h15c-15,15 0,0 -15,15z"/></g></g></g><g><g><g fill="#ffffff" stroke-miterlimit="10"><path d="M1533.30417,377.97645v-15h15v15z"/></g><g fill="#f5f5f5" stroke-miterlimit="4"><path d="M1548.30417,362.97645v15h-15c15,-15 0,0 15,-15z"/></g></g><g><g fill="#ffffff" stroke-miterlimit="10"><path d="M1563.30417,362.97645v15h-15v-15z"/></g><g fill="#f5f5f5" stroke-miterlimit="4"><path d="M1548.30417,377.97645v-15h15c-15,15 0,0 -15,15z"/></g></g><g><g fill="#ffffff" stroke-miterlimit="10"><path d="M1533.30417,392.97645v-15h15v15z"/></g><g fill="#f5f5f5" stroke-miterlimit="4"><path d="M1548.30417,377.97645v15h-15c15,-15 0,0 15,-15z"/></g></g><g><g fill="#ffffff" stroke-miterlimit="10"><path d="M1563.30417,377.97645v15h-15v-15z"/></g><g fill="#f5f5f5" stroke-miterlimit="4"><path d="M1548.30417,392.97645v-15h15c-15,15 0,0 -15,15z"/></g></g></g><g><g fill="#338000" stroke-miterlimit="10"><path d="M1533.3042,317.97645v15h-15v-15z"/></g><g fill="#44aa00" stroke-miterlimit="4"><path d="M1518.3042,317.97645h15v15c-15,-15 0,0 -15,-15z"/></g></g><g><g fill="#ffffff" stroke-miterlimit="10"><path d="M1533.30417,332.97645v-15h15v15z"/></g><g fill="#f5f5f5" stroke-miterlimit="4"><path d="M1548.30417,317.97645v15h-15c15,-15 0,0 15,-15z"/></g></g><g><g fill="#ffffff" stroke-miterlimit="10"><path d="M1533.30417,347.97645v-15h15v15z"/></g><g fill="#f5f5f5" stroke-miterlimit="4"><path d="M1548.30417,332.97645v15h-15c15,-15 0,0 15,-15z"/></g></g><g><g fill="#ffffff" stroke-miterlimit="10"><path d="M1533.30417,362.97645v-15h15v15z"/></g><g fill="#f5f5f5" stroke-miterlimit="4"><path d="M1548.30417,347.97645v15h-15c15,-15 0,0 15,-15z"/></g></g><g><g><g fill="#ffffff" stroke-miterlimit="10"><path d="M1233.30427,407.97641v-15h15v15z"/></g><g fill="#f5f5f5" stroke-miterlimit="4"><path d="M1248.30427,392.97641v15h-15c15,-15 0,0 15,-15z"/></g></g><g><g fill="#ffffff" stroke-miterlimit="10"><path d="M1263.30427,392.97641v15h-15v-15z"/></g><g fill="#f5f5f5" stroke-miterlimit="4"><path d="M1248.30427,407.97641v-15h15c-15,15 0,0 -15,15z"/></g></g><g><g fill="#ffffff" stroke-miterlimit="10"><path d="M1233.30427,422.97641v-15h15v15z"/></g><g fill="#f5f5f5" stroke-miterlimit="4"><path d="M1248.30427,407.97641v15h-15c15,-15 0,0 15,-15z"/></g></g><g><g fill="#ffffff" stroke-miterlimit="10"><path d="M1263.30427,407.97641v15h-15v-15z"/></g><g fill="#f5f5f5" stroke-miterlimit="4"><path d="M1248.30427,422.97641v-15h15c-15,15 0,0 -15,15z"/></g></g></g><g><g><g fill="#ffffff" stroke-miterlimit="10"><path d="M1263.30417,407.97639v-15h15v15z"/></g><g fill="#f5f5f5" stroke-miterlimit="4"><path d="M1278.30417,392.97639v15h-15c15,-15 0,0 15,-15z"/></g></g><g><g fill="#ffffff" stroke-miterlimit="10"><path d="M1293.30417,392.97639v15h-15v-15z"/></g><g fill="#f5f5f5" stroke-miterlimit="4"><path d="M1278.30417,407.97639v-15h15c-15,15 0,0 -15,15z"/></g></g><g><g fill="#ffffff" stroke-miterlimit="10"><path d="M1263.30417,422.97639v-15h15v15z"/></g><g fill="#f5f5f5" stroke-miterlimit="4"><path d="M1278.30417,407.97639v15h-15c15,-15 0,0 15,-15z"/></g></g><g><g fill="#ffffff" stroke-miterlimit="10"><path d="M1293.30417,407.97639v15h-15v-15z"/></g><g fill="#f5f5f5" stroke-miterlimit="4"><path d="M1278.30417,422.97639v-15h15c-15,15 0,0 -15,15z"/></g></g></g><g><g><g fill="#ffffff" stroke-miterlimit="10"><path d="M1173.30423,407.97641v-15h15v15z"/></g><g fill="#f5f5f5" stroke-miterlimit="4"><path d="M1188.30423,392.97641v15h-15c15,-15 0,0 15,-15z"/></g></g><g><g fill="#ffffff" stroke-miterlimit="10"><path d="M1203.30423,392.97641v15h-15v-15z"/></g><g fill="#f5f5f5" stroke-miterlimit="4"><path d="M1188.30423,407.97641v-15h15c-15,15 0,0 -15,15z"/></g></g><g><g fill="#ffffff" stroke-miterlimit="10"><path d="M1173.30423,422.97641v-15h15v15z"/></g><g fill="#f5f5f5" stroke-miterlimit="4"><path d="M1188.30423,407.97641v15h-15c15,-15 0,0 15,-15z"/></g></g><g><g fill="#ffffff" stroke-miterlimit="10"><path d="M1203.30423,407.97641v15h-15v-15z"/></g><g fill="#f5f5f5" stroke-miterlimit="4"><path d="M1188.30423,422.97641v-15h15c-15,15 0,0 -15,15z"/></g></g></g><g><g><g fill="#ffffff" stroke-miterlimit="10"><path d="M1203.30423,407.97641v-15h15v15z"/></g><g fill="#f5f5f5" stroke-miterlimit="4"><path d="M1218.30423,392.97641v15h-15c15,-15 0,0 15,-15z"/></g></g><g><g fill="#ffffff" stroke-miterlimit="10"><path d="M1233.30423,392.97641v15h-15v-15z"/></g><g fill="#f5f5f5" stroke-miterlimit="4"><path d="M1218.30423,407.97641v-15h15c-15,15 0,0 -15,15z"/></g></g><g><g fill="#ffffff" stroke-miterlimit="10"><path d="M1203.30423,422.97641v-15h15v15z"/></g><g fill="#f5f5f5" stroke-miterlimit="4"><path d="M1218.30423,407.97641v15h-15c15,-15 0,0 15,-15z"/></g></g><g><g fill="#ffffff" stroke-miterlimit="10"><path d="M1233.30423,407.97641v15h-15v-15z"/></g><g fill="#f5f5f5" stroke-miterlimit="4"><path d="M1218.30423,422.97641v-15h15c-15,15 0,0 -15,15z"/></g></g></g><g><g><g fill="#ffffff" stroke-miterlimit="10"><path d="M1353.30417,407.97641v-15h15v15z"/></g><g fill="#f5f5f5" stroke-miterlimit="4"><path d="M1368.30417,392.97641v15h-15c15,-15 0,0 15,-15z"/></g></g><g><g fill="#ffffff" stroke-miterlimit="10"><path d="M1383.30417,392.97641v15h-15v-15z"/></g><g fill="#f5f5f5" stroke-miterlimit="4"><path d="M1368.30417,407.97641v-15h15c-15,15 0,0 -15,15z"/></g></g><g><g fill="#ffffff" stroke-miterlimit="10"><path d="M1353.30417,422.97641v-15h15v15z"/></g><g fill="#f5f5f5" stroke-miterlimit="4"><path d="M1368.30417,407.97641v15h-15c15,-15 0,0 15,-15z"/></g></g><g><g fill="#ffffff" stroke-miterlimit="10"><path d="M1383.30417,407.97641v15h-15v-15z"/></g><g fill="#f5f5f5" stroke-miterlimit="4"><path d="M1368.30417,422.97641v-15h15c-15,15 0,0 -15,15z"/></g></g></g><g><g><g fill="#ffffff" stroke-miterlimit="10"><path d="M1383.30417,407.97639v-15h15v15z"/></g><g fill="#f5f5f5" stroke-miterlimit="4"><path d="M1398.30417,392.97639v15h-15c15,-15 0,0 15,-15z"/></g></g><g><g fill="#ffffff" stroke-miterlimit="10"><path d="M1413.30417,392.97639v15h-15v-15z"/></g><g fill="#f5f5f5" stroke-miterlimit="4"><path d="M1398.30417,407.97639v-15h15c-15,15 0,0 -15,15z"/></g></g><g><g fill="#ffffff" stroke-miterlimit="10"><path d="M1383.30417,422.97639v-15h15v15z"/></g><g fill="#f5f5f5" stroke-miterlimit="4"><path d="M1398.30417,407.97639v15h-15c15,-15 0,0 15,-15z"/></g></g><g><g fill="#ffffff" stroke-miterlimit="10"><path d="M1413.30417,407.97639v15h-15v-15z"/></g><g fill="#f5f5f5" stroke-miterlimit="4"><path d="M1398.30417,422.97639v-15h15c-15,15 0,0 -15,15z"/></g></g></g><g><g><g fill="#ffffff" stroke-miterlimit="10"><path d="M1293.30417,407.97641v-15h15v15z"/></g><g fill="#f5f5f5" stroke-miterlimit="4"><path d="M1308.30417,392.97641v15h-15c15,-15 0,0 15,-15z"/></g></g><g><g fill="#ffffff" stroke-miterlimit="10"><path d="M1323.30417,392.97641v15h-15v-15z"/></g><g fill="#f5f5f5" stroke-miterlimit="4"><path d="M1308.30417,407.97641v-15h15c-15,15 0,0 -15,15z"/></g></g><g><g fill="#ffffff" stroke-miterlimit="10"><path d="M1293.30417,422.97641v-15h15v15z"/></g><g fill="#f5f5f5" stroke-miterlimit="4"><path d="M1308.30417,407.97641v15h-15c15,-15 0,0 15,-15z"/></g></g><g><g fill="#ffffff" stroke-miterlimit="10"><path d="M1323.30417,407.97641v15h-15v-15z"/></g><g fill="#f5f5f5" stroke-miterlimit="4"><path d="M1308.30417,422.97641v-15h15c-15,15 0,0 -15,15z"/></g></g></g><g><g><g fill="#ffffff" stroke-miterlimit="10"><path d="M1323.30417,407.97641v-15h15v15z"/></g><g fill="#f5f5f5" stroke-miterlimit="4"><path d="M1338.30417,392.97641v15h-15c15,-15 0,0 15,-15z"/></g></g><g><g fill="#ffffff" stroke-miterlimit="10"><path d="M1353.30417,392.97641v15h-15v-15z"/></g><g fill="#f5f5f5" stroke-miterlimit="4"><path d="M1338.30417,407.97641v-15h15c-15,15 0,0 -15,15z"/></g></g><g><g fill="#ffffff" stroke-miterlimit="10"><path d="M1323.30417,422.97641v-15h15v15z"/></g><g fill="#f5f5f5" stroke-miterlimit="4"><path d="M1338.30417,407.97641v15h-15c15,-15 0,0 15,-15z"/></g></g><g><g fill="#ffffff" stroke-miterlimit="10"><path d="M1353.30417,407.97641v15h-15v-15z"/></g><g fill="#f5f5f5" stroke-miterlimit="4"><path d="M1338.30417,422.97641v-15h15c-15,15 0,0 -15,15z"/></g></g></g><g><g><g fill="#ffffff" stroke-miterlimit="10"><path d="M1473.30417,407.97641v-15h15v15z"/></g><g fill="#f5f5f5" stroke-miterlimit="4"><path d="M1488.30417,392.97641v15h-15c15,-15 0,0 15,-15z"/></g></g><g><g fill="#ffffff" stroke-miterlimit="10"><path d="M1503.30417,392.97641v15h-15v-15z"/></g><g fill="#f5f5f5" stroke-miterlimit="4"><path d="M1488.30417,407.97641v-15h15c-15,15 0,0 -15,15z"/></g></g><g><g fill="#ffffff" stroke-miterlimit="10"><path d="M1473.30417,422.97641v-15h15v15z"/></g><g fill="#f5f5f5" stroke-miterlimit="4"><path d="M1488.30417,407.97641v15h-15c15,-15 0,0 15,-15z"/></g></g><g><g fill="#ffffff" stroke-miterlimit="10"><path d="M1503.30417,407.97641v15h-15v-15z"/></g><g fill="#f5f5f5" stroke-miterlimit="4"><path d="M1488.30417,422.97641v-15h15c-15,15 0,0 -15,15z"/></g></g></g><g><g><g fill="#ffffff" stroke-miterlimit="10"><path d="M1503.30417,407.97639v-15h15v15z"/></g><g fill="#f5f5f5" stroke-miterlimit="4"><path d="M1518.30417,392.97639v15h-15c15,-15 0,0 15,-15z"/></g></g><g><g fill="#ffffff" stroke-miterlimit="10"><path d="M1533.30417,392.97639v15h-15v-15z"/></g><g fill="#f5f5f5" stroke-miterlimit="4"><path d="M1518.30417,407.97639v-15h15c-15,15 0,0 -15,15z"/></g></g><g><g fill="#ffffff" stroke-miterlimit="10"><path d="M1503.30417,422.97639v-15h15v15z"/></g><g fill="#f5f5f5" stroke-miterlimit="4"><path d="M1518.30417,407.97639v15h-15c15,-15 0,0 15,-15z"/></g></g><g><g fill="#ffffff" stroke-miterlimit="10"><path d="M1533.30417,407.97639v15h-15v-15z"/></g><g fill="#f5f5f5" stroke-miterlimit="4"><path d="M1518.30417,422.97639v-15h15c-15,15 0,0 -15,15z"/></g></g></g><g><g><g fill="#ffffff" stroke-miterlimit="10"><path d="M1413.30417,407.97641v-15h15v15z"/></g><g fill="#f5f5f5" stroke-miterlimit="4"><path d="M1428.30417,392.97641v15h-15c15,-15 0,0 15,-15z"/></g></g><g><g fill="#ffffff" stroke-miterlimit="10"><path d="M1443.30417,392.97641v15h-15v-15z"/></g><g fill="#f5f5f5" stroke-miterlimit="4"><path d="M1428.30417,407.97641v-15h15c-15,15 0,0 -15,15z"/></g></g><g><g fill="#ffffff" stroke-miterlimit="10"><path d="M1413.30417,422.97641v-15h15v15z"/></g><g fill="#f5f5f5" stroke-miterlimit="4"><path d="M1428.30417,407.97641v15h-15c15,-15 0,0 15,-15z"/></g></g><g><g fill="#ffffff" stroke-miterlimit="10"><path d="M1443.30417,407.97641v15h-15v-15z"/></g><g fill="#f5f5f5" stroke-miterlimit="4"><path d="M1428.30417,422.97641v-15h15c-15,15 0,0 -15,15z"/></g></g></g><g><g><g fill="#ffffff" stroke-miterlimit="10"><path d="M1443.30417,407.97641v-15h15v15z"/></g><g fill="#f5f5f5" stroke-miterlimit="4"><path d="M1458.30417,392.97641v15h-15c15,-15 0,0 15,-15z"/></g></g><g><g fill="#ffffff" stroke-miterlimit="10"><path d="M1473.30417,392.97641v15h-15v-15z"/></g><g fill="#f5f5f5" stroke-miterlimit="4"><path d="M1458.30417,407.97641v-15h15c-15,15 0,0 -15,15z"/></g></g><g><g fill="#ffffff" stroke-miterlimit="10"><path d="M1443.30417,422.97641v-15h15v15z"/></g><g fill="#f5f5f5" stroke-miterlimit="4"><path d="M1458.30417,407.97641v15h-15c15,-15 0,0 15,-15z"/></g></g><g><g fill="#ffffff" stroke-miterlimit="10"><path d="M1473.30417,407.97641v15h-15v-15z"/></g><g fill="#f5f5f5" stroke-miterlimit="4"><path d="M1458.30417,422.97641v-15h15c-15,15 0,0 -15,15z"/></g></g></g><g><g><g fill="#ffffff" stroke-miterlimit="10"><path d="M1143.30422,407.97642v-15h15v15z"/></g><g fill="#f5f5f5" stroke-miterlimit="4"><path d="M1158.30422,392.97642v15h-15c15,-15 0,0 15,-15z"/></g></g><g><g fill="#ffffff" stroke-miterlimit="10"><path d="M1173.30422,392.97642v15h-15v-15z"/></g><g fill="#f5f5f5" stroke-miterlimit="4"><path d="M1158.30422,407.97642v-15h15c-15,15 0,0 -15,15z"/></g></g><g><g fill="#ffffff" stroke-miterlimit="10"><path d="M1143.30422,422.97642v-15h15v15z"/></g><g fill="#f5f5f5" stroke-miterlimit="4"><path d="M1158.30422,407.97642v15h-15c15,-15 0,0 15,-15z"/></g></g><g><g fill="#ffffff" stroke-miterlimit="10"><path d="M1173.30422,407.97642v15h-15v-15z"/></g><g fill="#f5f5f5" stroke-miterlimit="4"><path d="M1158.30422,422.97642v-15h15c-15,15 0,0 -15,15z"/></g></g></g><g><g><g fill="#ffffff" stroke-miterlimit="10"><path d="M1143.30422,437.97642v-15h15v15z"/></g><g fill="#f5f5f5" stroke-miterlimit="4"><path d="M1158.30422,422.97642v15h-15c15,-15 0,0 15,-15z"/></g></g><g><g fill="#ffffff" stroke-miterlimit="10"><path d="M1173.30422,422.97642v15h-15v-15z"/></g><g fill="#f5f5f5" stroke-miterlimit="4"><path d="M1158.30422,437.97642v-15h15c-15,15 0,0 -15,15z"/></g></g><g><g fill="#ffffff" stroke-miterlimit="10"><path d="M1143.30422,452.97642v-15h15v15z"/></g><g fill="#f5f5f5" stroke-miterlimit="4"><path d="M1158.30422,437.97642v15h-15c15,-15 0,0 15,-15z"/></g></g><g><g fill="#ffffff" stroke-miterlimit="10"><path d="M1173.30422,437.97642v15h-15v-15z"/></g><g fill="#f5f5f5" stroke-miterlimit="4"><path d="M1158.30422,452.97642v-15h15c-15,15 0,0 -15,15z"/></g></g></g><g><g><g fill="#ffffff" stroke-miterlimit="10"><path d="M1173.30422,437.97642v-15h15v15z"/></g><g fill="#f5f5f5" stroke-miterlimit="4"><path d="M1188.30422,422.97642v15h-15c15,-15 0,0 15,-15z"/></g></g><g><g fill="#ffffff" stroke-miterlimit="10"><path d="M1203.30422,422.97642v15h-15v-15z"/></g><g fill="#f5f5f5" stroke-miterlimit="4"><path d="M1188.30422,437.97642v-15h15c-15,15 0,0 -15,15z"/></g></g><g><g fill="#ffffff" stroke-miterlimit="10"><path d="M1173.30422,452.97642v-15h15v15z"/></g><g fill="#f5f5f5" stroke-miterlimit="4"><path d="M1188.30422,437.97642v15h-15c15,-15 0,0 15,-15z"/></g></g><g><g fill="#ffffff" stroke-miterlimit="10"><path d="M1203.30422,437.97642v15h-15v-15z"/></g><g fill="#f5f5f5" stroke-miterlimit="4"><path d="M1188.30422,452.97642v-15h15c-15,15 0,0 -15,15z"/></g></g></g><g><g><g fill="#ffffff" stroke-miterlimit="10"><path d="M1203.30422,437.97642v-15h15v15z"/></g><g fill="#f5f5f5" stroke-miterlimit="4"><path d="M1218.30422,422.97642v15h-15c15,-15 0,0 15,-15z"/></g></g><g><g fill="#ffffff" stroke-miterlimit="10"><path d="M1233.30422,422.97642v15h-15v-15z"/></g><g fill="#f5f5f5" stroke-miterlimit="4"><path d="M1218.30422,437.97642v-15h15c-15,15 0,0 -15,15z"/></g></g><g><g fill="#ffffff" stroke-miterlimit="10"><path d="M1203.30422,452.97642v-15h15v15z"/></g><g fill="#f5f5f5" stroke-miterlimit="4"><path d="M1218.30422,437.97642v15h-15c15,-15 0,0 15,-15z"/></g></g><g><g fill="#ffffff" stroke-miterlimit="10"><path d="M1233.30422,437.97642v15h-15v-15z"/></g><g fill="#f5f5f5" stroke-miterlimit="4"><path d="M1218.30422,452.97642v-15h15c-15,15 0,0 -15,15z"/></g></g></g><g><g><g fill="#ffffff" stroke-miterlimit="10"><path d="M1233.30417,437.97642v-15h15v15z"/></g><g fill="#f5f5f5" stroke-miterlimit="4"><path d="M1248.30417,422.97642v15h-15c15,-15 0,0 15,-15z"/></g></g><g><g fill="#ffffff" stroke-miterlimit="10"><path d="M1263.30417,422.97642v15h-15v-15z"/></g><g fill="#f5f5f5" stroke-miterlimit="4"><path d="M1248.30417,437.97642v-15h15c-15,15 0,0 -15,15z"/></g></g><g><g fill="#ffffff" stroke-miterlimit="10"><path d="M1233.30417,452.97642v-15h15v15z"/></g><g fill="#f5f5f5" stroke-miterlimit="4"><path d="M1248.30417,437.97642v15h-15c15,-15 0,0 15,-15z"/></g></g><g><g fill="#ffffff" stroke-miterlimit="10"><path d="M1263.30417,437.97642v15h-15v-15z"/></g><g fill="#f5f5f5" stroke-miterlimit="4"><path d="M1248.30417,452.97642v-15h15c-15,15 0,0 -15,15z"/></g></g></g><g><g><g fill="#ffffff" stroke-miterlimit="10"><path d="M1263.30417,437.97639v-15h15v15z"/></g><g fill="#f5f5f5" stroke-miterlimit="4"><path d="M1278.30417,422.97639v15h-15c15,-15 0,0 15,-15z"/></g></g><g><g fill="#ffffff" stroke-miterlimit="10"><path d="M1293.30417,422.97639v15h-15v-15z"/></g><g fill="#f5f5f5" stroke-miterlimit="4"><path d="M1278.30417,437.97639v-15h15c-15,15 0,0 -15,15z"/></g></g><g><g fill="#ffffff" stroke-miterlimit="10"><path d="M1263.30417,452.97639v-15h15v15z"/></g><g fill="#f5f5f5" stroke-miterlimit="4"><path d="M1278.30417,437.97639v15h-15c15,-15 0,0 15,-15z"/></g></g><g><g fill="#ffffff" stroke-miterlimit="10"><path d="M1293.30417,437.97639v15h-15v-15z"/></g><g fill="#f5f5f5" stroke-miterlimit="4"><path d="M1278.30417,452.97639v-15h15c-15,15 0,0 -15,15z"/></g></g></g><g><g><g fill="#ffffff" stroke-miterlimit="10"><path d="M1293.30417,437.97641v-15h15v15z"/></g><g fill="#f5f5f5" stroke-miterlimit="4"><path d="M1308.30417,422.97641v15h-15c15,-15 0,0 15,-15z"/></g></g><g><g fill="#ffffff" stroke-miterlimit="10"><path d="M1323.30417,422.97641v15h-15v-15z"/></g><g fill="#f5f5f5" stroke-miterlimit="4"><path d="M1308.30417,437.97641v-15h15c-15,15 0,0 -15,15z"/></g></g><g><g fill="#ffffff" stroke-miterlimit="10"><path d="M1293.30417,452.97641v-15h15v15z"/></g><g fill="#f5f5f5" stroke-miterlimit="4"><path d="M1308.30417,437.97641v15h-15c15,-15 0,0 15,-15z"/></g></g><g><g fill="#ffffff" stroke-miterlimit="10"><path d="M1323.30417,437.97641v15h-15v-15z"/></g><g fill="#f5f5f5" stroke-miterlimit="4"><path d="M1308.30417,452.97641v-15h15c-15,15 0,0 -15,15z"/></g></g></g><g><g><g fill="#ffffff" stroke-miterlimit="10"><path d="M1323.30417,437.97641v-15h15v15z"/></g><g fill="#f5f5f5" stroke-miterlimit="4"><path d="M1338.30417,422.97641v15h-15c15,-15 0,0 15,-15z"/></g></g><g><g fill="#ffffff" stroke-miterlimit="10"><path d="M1353.30417,422.97641v15h-15v-15z"/></g><g fill="#f5f5f5" stroke-miterlimit="4"><path d="M1338.30417,437.97641v-15h15c-15,15 0,0 -15,15z"/></g></g><g><g fill="#ffffff" stroke-miterlimit="10"><path d="M1323.30417,452.97641v-15h15v15z"/></g><g fill="#f5f5f5" stroke-miterlimit="4"><path d="M1338.30417,437.97641v15h-15c15,-15 0,0 15,-15z"/></g></g><g><g fill="#ffffff" stroke-miterlimit="10"><path d="M1353.30417,437.97641v15h-15v-15z"/></g><g fill="#f5f5f5" stroke-miterlimit="4"><path d="M1338.30417,452.97641v-15h15c-15,15 0,0 -15,15z"/></g></g></g><g><g><g fill="#ffffff" stroke-miterlimit="10"><path d="M1353.30417,437.97641v-15h15v15z"/></g><g fill="#f5f5f5" stroke-miterlimit="4"><path d="M1368.30417,422.97641v15h-15c15,-15 0,0 15,-15z"/></g></g><g><g fill="#ffffff" stroke-miterlimit="10"><path d="M1383.30417,422.97641v15h-15v-15z"/></g><g fill="#f5f5f5" stroke-miterlimit="4"><path d="M1368.30417,437.97641v-15h15c-15,15 0,0 -15,15z"/></g></g><g><g fill="#ffffff" stroke-miterlimit="10"><path d="M1353.30417,452.97641v-15h15v15z"/></g><g fill="#f5f5f5" stroke-miterlimit="4"><path d="M1368.30417,437.97641v15h-15c15,-15 0,0 15,-15z"/></g></g><g><g fill="#ffffff" stroke-miterlimit="10"><path d="M1383.30417,437.97641v15h-15v-15z"/></g><g fill="#f5f5f5" stroke-miterlimit="4"><path d="M1368.30417,452.97641v-15h15c-15,15 0,0 -15,15z"/></g></g></g><g><g><g fill="#ffffff" stroke-miterlimit="10"><path d="M1383.30417,437.97639v-15h15v15z"/></g><g fill="#f5f5f5" stroke-miterlimit="4"><path d="M1398.30417,422.97639v15h-15c15,-15 0,0 15,-15z"/></g></g><g><g fill="#ffffff" stroke-miterlimit="10"><path d="M1413.30417,422.97639v15h-15v-15z"/></g><g fill="#f5f5f5" stroke-miterlimit="4"><path d="M1398.30417,437.97639v-15h15c-15,15 0,0 -15,15z"/></g></g><g><g fill="#ffffff" stroke-miterlimit="10"><path d="M1383.30417,452.97639v-15h15v15z"/></g><g fill="#f5f5f5" stroke-miterlimit="4"><path d="M1398.30417,437.97639v15h-15c15,-15 0,0 15,-15z"/></g></g><g><g fill="#ffffff" stroke-miterlimit="10"><path d="M1413.30417,437.97639v15h-15v-15z"/></g><g fill="#f5f5f5" stroke-miterlimit="4"><path d="M1398.30417,452.97639v-15h15c-15,15 0,0 -15,15z"/></g></g></g><g><g><g fill="#ffffff" stroke-miterlimit="10"><path d="M1413.30417,437.97639v-15h15v15z"/></g><g fill="#f5f5f5" stroke-miterlimit="4"><path d="M1428.30417,422.97639v15h-15c15,-15 0,0 15,-15z"/></g></g><g><g fill="#ffffff" stroke-miterlimit="10"><path d="M1443.30417,422.97639v15h-15v-15z"/></g><g fill="#f5f5f5" stroke-miterlimit="4"><path d="M1428.30417,437.97639v-15h15c-15,15 0,0 -15,15z"/></g></g><g><g fill="#ffffff" stroke-miterlimit="10"><path d="M1413.30417,452.97639v-15h15v15z"/></g><g fill="#f5f5f5" stroke-miterlimit="4"><path d="M1428.30417,437.97639v15h-15c15,-15 0,0 15,-15z"/></g></g><g><g fill="#ffffff" stroke-miterlimit="10"><path d="M1443.30417,437.97639v15h-15v-15z"/></g><g fill="#f5f5f5" stroke-miterlimit="4"><path d="M1428.30417,452.97639v-15h15c-15,15 0,0 -15,15z"/></g></g></g><g><g><g fill="#ffffff" stroke-miterlimit="10"><path d="M1443.30417,437.97641v-15h15v15z"/></g><g fill="#f5f5f5" stroke-miterlimit="4"><path d="M1458.30417,422.97641v15h-15c15,-15 0,0 15,-15z"/></g></g><g><g fill="#ffffff" stroke-miterlimit="10"><path d="M1473.30417,422.97641v15h-15v-15z"/></g><g fill="#f5f5f5" stroke-miterlimit="4"><path d="M1458.30417,437.97641v-15h15c-15,15 0,0 -15,15z"/></g></g><g><g fill="#ffffff" stroke-miterlimit="10"><path d="M1443.30417,452.97641v-15h15v15z"/></g><g fill="#f5f5f5" stroke-miterlimit="4"><path d="M1458.30417,437.97641v15h-15c15,-15 0,0 15,-15z"/></g></g><g><g fill="#ffffff" stroke-miterlimit="10"><path d="M1473.30417,437.97641v15h-15v-15z"/></g><g fill="#f5f5f5" stroke-miterlimit="4"><path d="M1458.30417,452.97641v-15h15c-15,15 0,0 -15,15z"/></g></g></g><g><g><g fill="#ffffff" stroke-miterlimit="10"><path d="M1473.30417,437.97641v-15h15v15z"/></g><g fill="#f5f5f5" stroke-miterlimit="4"><path d="M1488.30417,422.97641v15h-15c15,-15 0,0 15,-15z"/></g></g><g><g fill="#ffffff" stroke-miterlimit="10"><path d="M1503.30417,422.97641v15h-15v-15z"/></g><g fill="#f5f5f5" stroke-miterlimit="4"><path d="M1488.30417,437.97641v-15h15c-15,15 0,0 -15,15z"/></g></g><g><g fill="#ffffff" stroke-miterlimit="10"><path d="M1473.30417,452.97641v-15h15v15z"/></g><g fill="#f5f5f5" stroke-miterlimit="4"><path d="M1488.30417,437.97641v15h-15c15,-15 0,0 15,-15z"/></g></g><g><g fill="#ffffff" stroke-miterlimit="10"><path d="M1503.30417,437.97641v15h-15v-15z"/></g><g fill="#f5f5f5" stroke-miterlimit="4"><path d="M1488.30417,452.97641v-15h15c-15,15 0,0 -15,15z"/></g></g></g><g><g><g fill="#ffffff" stroke-miterlimit="10"><path d="M1503.30417,437.97639v-15h15v15z"/></g><g fill="#f5f5f5" stroke-miterlimit="4"><path d="M1518.30417,422.97639v15h-15c15,-15 0,0 15,-15z"/></g></g><g><g fill="#ffffff" stroke-miterlimit="10"><path d="M1533.30417,422.97639v15h-15v-15z"/></g><g fill="#f5f5f5" stroke-miterlimit="4"><path d="M1518.30417,437.97639v-15h15c-15,15 0,0 -15,15z"/></g></g><g><g fill="#ffffff" stroke-miterlimit="10"><path d="M1503.30417,452.97639v-15h15v15z"/></g><g fill="#f5f5f5" stroke-miterlimit="4"><path d="M1518.30417,437.97639v15h-15c15,-15 0,0 15,-15z"/></g></g><g><g fill="#ffffff" stroke-miterlimit="10"><path d="M1533.30417,437.97639v15h-15v-15z"/></g><g fill="#f5f5f5" stroke-miterlimit="4"><path d="M1518.30417,452.97639v-15h15c-15,15 0,0 -15,15z"/></g></g></g><g><g fill="#ffffff" stroke-miterlimit="10"><path d="M1533.30417,407.97642v-15h15v15z"/></g><g fill="#f5f5f5" stroke-miterlimit="4"><path d="M1548.30417,392.97642v15h-15c15,-15 0,0 15,-15z"/></g></g><g><g fill="#ffffff" stroke-miterlimit="10"><path d="M1533.30417,422.97642v-15h15v15z"/></g><g fill="#f5f5f5" stroke-miterlimit="4"><path d="M1548.30417,407.97642v15h-15c15,-15 0,0 15,-15z"/></g></g><g><g fill="#ffffff" stroke-miterlimit="10"><path d="M1533.30417,437.97642v-15h15v15z"/></g><g fill="#f5f5f5" stroke-miterlimit="4"><path d="M1548.30417,422.97642v15h-15c15,-15 0,0 15,-15z"/></g></g><g><g fill="#ffffff" stroke-miterlimit="10"><path d="M1533.30417,452.97639v-15h15v15z"/></g><g fill="#f5f5f5" stroke-miterlimit="4"><path d="M1548.30417,437.97639v15h-15c15,-15 0,0 15,-15z"/></g></g></g></g></svg>