<svg version="1.1" xmlns="http://www.w3.org/2000/svg" xmlns:xlink="http://www.w3.org/1999/xlink" width="141.02204" height="68.48484" viewBox="0,0,141.02204,68.48484"><g transform="translate(-169.48898,-145.75758)"><g data-paper-data="{&quot;isPaintingLayer&quot;:true}" fill-rule="nonzero" stroke="none" stroke-width="0" stroke-linecap="butt" stroke-linejoin="miter" stroke-miterlimit="10" stroke-dasharray="" stroke-dashoffset="0" style="mix-blend-mode: normal"><path d="M179.23909,214.24242v-38.71646h6.0875v38.71646z" fill="#bfbfbf"/><path d="M169.48898,177.59586v-5.25767h141.02204v5.25767z" fill="#bfbfbf"/><path d="M170.30745,171.28411l4.91545,-17.84124l5.39932,1.48757l-4.91545,17.84124z" fill="#c0c0c0"/><path d="M177.61493,172.44072v-4.38299h16.55798v4.38299z" fill="#c0c0c0"/><path d="M178.66931,167.65098v-4.38301h16.55798v4.38301z" fill="#c0c0c0"/><path d="M179.72366,163.10483v-4.38301h11.68799v4.38301z" fill="#c0c0c0"/><path d="M293.32458,214.24242v-38.71646h6.0875v38.71646z" fill="#bfbfbf"/><path d="M196.59736,172.17983v-17.67137h20.0325v17.67137z" fill="#c0c0c0"/><path d="M217.60217,172.17983v-10.58914h13.99868v10.58914z" fill="#c0c0c0"/><path d="M232.83519,172.17983v-26.42225h10.75761v26.42225z" fill="#c0c0c0"/><path d="M169.48898,184.2363v-3.95368h141.02204v3.95368z" fill="#bfbfbf"/><path d="M244.88923,172.17983v-16.37495h39.47889v16.37495z" fill="#c0c0c0"/><path d="M285.65301,167.65098v-4.38301h24.27943v4.38301z" fill="#c0c0c0"/><path d="M285.24684,172.44072v-4.38299h23.95533v4.38299z" fill="#c0c0c0"/><path d="M294.26214,163.96005l-16.08327,-9.15421l2.77035,-4.8673l16.08327,9.15421z" fill="#c0c0c0"/></g></g></svg>