<svg version="1.1" xmlns="http://www.w3.org/2000/svg" xmlns:xlink="http://www.w3.org/1999/xlink" width="53.65576" height="27.08022" viewBox="0,0,53.65576,27.08022"><g transform="translate(-213.17212,-166.45989)"><g data-paper-data="{&quot;isPaintingLayer&quot;:true}" fill="#808080" fill-rule="nonzero" stroke-linecap="butt" stroke-linejoin="miter" stroke-miterlimit="10" stroke-dasharray="" stroke-dashoffset="0" style="mix-blend-mode: normal"><g><path d="M222.79932,181.92333l2.39182,-5.0488l-0.1496,2.6684l-0.24621,4.7875l1.7613,1.4676l1.5851,-3.9333l2.34453,-5.9029l-0.0853,-5.1076l1.57949,6.6543l-0.55103,9.0527l1.4676,-2.0547v0.8805l0.2935,-2.994l-0.2935,5.812l-2.5832,3.4638l-2.9353,0.6457l-7.6319,-0.8806z" data-paper-data="{&quot;origPos&quot;:null}" stroke="#191919" stroke-width="0"/><path d="M213.17212,189.08573l2.1723,-8.5479l1.53762,-3.62501l3.19031,-4.6966l-1.01241,4.8462l-0.16972,2.724l0.7985,-1.0333l0.4462,-2.4304l0.2348,-0.7397v-0.5167l0.3522,-1.0097l2.92283,-4.7553l2.18352,-2.818l-0.4109,2.73841l-2.96944,17.32779l1.43744,3.1702l2.75349,-7.585l1.0037,-0.4462l-0.96774,10.8257l-2.4657,0.728l-4.7318,0.2348l-5.8355,-2.3483z" data-paper-data="{&quot;origPos&quot;:null}" stroke="none" stroke-width="0.23483"/></g><g><path d="M239.46839,181.98642l2.39182,-5.0488l-0.1496,2.6684l-0.24621,4.78751l1.7613,1.4676l1.5851,-3.9333l2.34453,-5.90291l-0.0853,-5.1076l1.5795,6.6543l-0.55103,9.0527l1.4676,-2.0547v0.8805l0.2935,-2.994l-0.2935,5.812l-2.5832,3.4638l-2.9353,0.6457l-7.6319,-0.8806z" data-paper-data="{&quot;origPos&quot;:null}" stroke="#191919" stroke-width="0"/><path d="M229.84119,189.14882l2.1723,-8.5479l1.53762,-3.62501l3.19031,-4.6966l-1.01241,4.8462l-0.16972,2.724l0.7985,-1.0333l0.4462,-2.4304l0.2348,-0.7397v-0.5167l0.3522,-1.0097l2.92283,-4.7553l2.18352,-2.818l-0.4109,2.73841l-2.96944,17.32779l1.43744,3.1702l2.75349,-7.585l1.0037,-0.4462l-0.96774,10.8257l-2.4657,0.728l-4.7318,0.2348l-5.8355,-2.3483z" data-paper-data="{&quot;origPos&quot;:null}" stroke="none" stroke-width="0.23483"/></g><g><path d="M256.43667,181.8999l2.39182,-5.0488l-0.1496,2.6684l-0.24621,4.78751l1.7613,1.4676l1.5851,-3.9333l2.34453,-5.90291l-0.08529,-5.1076l1.57949,6.6543l-0.55103,9.0527l1.4676,-2.0547v0.8805l0.2935,-2.994l-0.2935,5.812l-2.5832,3.4638l-2.9353,0.6457l-7.6319,-0.8806z" data-paper-data="{&quot;origPos&quot;:null}" stroke="#191919" stroke-width="0"/><path d="M246.80947,189.0623l2.1723,-8.5479l1.53762,-3.62501l3.19031,-4.6966l-1.01241,4.8462l-0.16972,2.724l0.7985,-1.0333l0.4462,-2.4304l0.2348,-0.7397v-0.5167l0.3522,-1.0097l2.92283,-4.7553l2.18352,-2.818l-0.4109,2.73841l-2.96944,17.32779l1.43744,3.1702l2.7535,-7.585l1.0037,-0.4462l-0.96773,10.8257l-2.4657,0.728l-4.7318,0.2348l-5.8355,-2.3483z" data-paper-data="{&quot;origPos&quot;:null}" stroke="none" stroke-width="0.23483"/></g></g></g></svg>