<svg version="1.1" xmlns="http://www.w3.org/2000/svg" xmlns:xlink="http://www.w3.org/1999/xlink" width="474.5" height="266.5" viewBox="0,0,474.5,266.5"><g transform="translate(24.75,-52.75)"><g data-paper-data="{&quot;isPaintingLayer&quot;:true}" fill="none" fill-rule="nonzero" stroke="#000000" stroke-width="0.5" stroke-linecap="round" stroke-linejoin="miter" stroke-miterlimit="10" stroke-dasharray="" stroke-dashoffset="0" style="mix-blend-mode: normal"><path d="M102.5,109l206,67"/><path d="M337.5,102l-107,166"/><path d="M335.5,319l114,-125"/><path d="M-24.5,115l89,182"/><path d="M249.5,53l-136,84"/><path d="M169.5,142l5,94"/><path d="M201.5,283l79,-25"/><path d="M440.5,111l-91,-28"/><path d="M299.5,76l-3,8"/><path d="M401.5,66l-62,6"/><path d="M277.5,92l-31,44"/><path d="M252.5,218l6,6"/><path d="M293.5,218l16,10"/><path d="M357.5,224l-80,-39"/><path d="M245.5,179l-6,9"/><path d="M223.5,213l-27,14"/><path d="M180.5,234l-36,20"/><path d="M87.5,222l-18,-34"/></g></g></svg>