<svg xmlns="http://www.w3.org/2000/svg" xmlns:xlink="http://www.w3.org/1999/xlink" version="1.1" width="100.56152570202367" height="101.58004987194555" viewBox="7.403033077943244 8.071107685792365 100.56152570202367 101.58004987194555">
  <defs>
    <linearGradient id="grad_1" y2="1" x2="0">
      <stop offset="0" stop-color="#DBD3BC" stop-opacity="1"/>
      <stop offset="1" stop-color="#E7DEA6" stop-opacity="1"/>
    </linearGradient>
  <linearGradient id="grad_1-.3364233674450383,0.2920056422330699,-0.2920056422330699,0.3364233674450383,58.63400133699179,-45.720212736725806" y2="29.2763" x2="43.5866" x1="65.706" y1="3.7923" gradientUnits="userSpaceOnUse">
      <stop offset="0" stop-color="#DBD3BC" stop-opacity="1"/>
      <stop offset="1" stop-color="#E7DEA6" stop-opacity="1"/>
    </linearGradient></defs>
  <!-- Exported by Scratch - http://scratch.mit.edu/ -->
  <g id="ID0.4407527786679566">
    <path id="ID0.4224610994569957" fill="#E3DAAC" stroke="none" d="M 82.6294 69.7551 C 80.5458 67.9466 77.923 67.1545 75.3696 67.3349 C 72.8163 67.5154 70.331 68.6686 68.5225 70.7522 C 66.714 72.8358 65.9218 75.4586 66.1023 78.012 C 66.2828 80.5653 67.4359 83.0506 69.5195 84.8591 C 71.6031 86.6676 74.226 87.4598 76.7793 87.2793 C 79.3327 87.0988 81.818 85.9457 83.6265 83.8621 C 85.435 81.7784 86.2271 79.1556 86.0467 76.6023 C 85.8662 74.0489 84.713 71.5636 82.6294 69.7551 Z " stroke-width="1.0000000004670164"/>
    <path id="rect8769-9" fill="#A54436" stroke="none" stroke-width="4.27656018688695" d="M 28.7496 46.2019 L 15.1804 61.8352 C 6.8466 71.4367 7.8664 85.8654 17.4679 94.1993 L 26.3098 101.8738 C 35.9113 110.2076 50.3401 109.1878 58.6739 99.5862 L 72.2431 83.953 L 28.7496 46.2019 Z "/>
    <path id="rect9302" fill="#E25D4A" stroke="none" stroke-width="4.27656018688695" d="M 47.2911 28.1116 L 88.1427 63.5696 C 90.3392 65.4761 90.5726 68.7791 88.6658 70.9759 L 62.2811 101.3741 C 60.3746 103.5706 57.0713 103.8044 54.8748 101.8979 L 14.0232 66.44 C 11.8267 64.5335 11.5932 61.2298 13.4997 59.0333 L 39.8845 28.6351 C 41.7912 26.4383 45.0946 26.2051 47.2911 28.1116 Z "/>
    <path id="ID0.4224610994569957" fill="#E3DAAC" stroke="none" d="M 44.2419 41.559 C 42.1583 39.7505 39.5354 38.9583 36.9821 39.1388 C 34.4287 39.3193 31.9434 40.4725 30.1349 42.5561 C 28.3264 44.6397 27.5343 47.2625 27.7147 49.8158 C 27.8952 52.3692 29.0484 54.8545 31.132 56.663 C 33.2156 58.4715 35.8384 59.2637 38.3918 59.0832 C 40.9451 58.9027 43.4304 57.7495 45.2389 55.6659 C 47.0474 53.5823 47.8396 50.9595 47.6591 48.4062 C 47.4786 45.8528 46.3255 43.3675 44.2419 41.559 Z " stroke-width="1.0000000004670164"/>
    <g id="ID0.11722990404814482">
      <path id="rect8769" fill="url(#grad_1-.3364233674450383,0.2920056422330699,-0.2920056422330699,0.3364233674450383,58.63400133699179,-45.720212736725806)" stroke="none" stroke-width="4.27656018688695" d="M 83.0423 18.8396 C 73.4404 10.5055 59.0019 11.5162 50.6677 21.1181 L 43.5866 29.2763 L 87.0902 67.0362 L 94.1713 58.8779 C 102.5055 49.276 101.4752 34.8389 91.8734 26.5048 L 83.0423 18.8396 Z "/>
      <path id="path9281" fill="#030302" stroke="none" stroke-width="4.27656018688695" d="M 78.4318 45.8368 C 77.1364 47.332 74.8735 47.4932 73.3794 46.1964 C 71.8854 44.8996 71.7267 42.6365 73.0248 41.1437 C 74.3203 39.6484 76.5832 39.4872 78.0772 40.784 C 79.5713 42.0808 79.73 44.3439 78.4318 45.8368 Z "/>
      <path id="path9281-8" fill="#030302" stroke="none" stroke-width="4.27656018688695" d="M 90.575 56.6453 C 89.2796 58.1406 87.0167 58.3018 85.5227 57.005 C 84.0286 55.7082 83.8699 53.4451 85.168 51.9522 C 86.4635 50.457 88.7264 50.2958 90.2204 51.5926 C 91.7145 52.8894 91.8732 55.1524 90.575 56.6453 Z "/>
      <path id="path9304" fill="#8b735c" stroke="none" stroke-width="4.27656018688695" d="M 105.7218 53.1195 C 105.398 48.5701 67.7644 25.8009 59.5931 30.0631 C 60.9722 29.1477 64.0302 15.9497 54.312 25.1312 C 49.5286 29.6499 45.8232 23.9845 48.3892 22.4024 C 63.8291 2.5424 80.5075 10.2488 92.052 22.1867 C 105.2515 32.9776 106.2454 60.4731 105.7218 53.1195 Z "/>
    </g>
  </g>
</svg>