<svg version="1.1" xmlns="http://www.w3.org/2000/svg" xmlns:xlink="http://www.w3.org/1999/xlink" width="354.0883" height="167.4158" viewBox="0,0,354.0883,167.4158"><g transform="translate(-62.95585,-96.2921)"><g data-paper-data="{&quot;isPaintingLayer&quot;:true}" fill-rule="nonzero" stroke="none" stroke-linecap="round" stroke-linejoin="miter" stroke-miterlimit="10" stroke-dasharray="" stroke-dashoffset="0" style="mix-blend-mode: normal"><g><g fill="#b40101"><path d="M69.85586,122.5972l37.7136,-7.2342l2.1894,12.7812l-20.8053,4.3378l-1.1924,17.23l6.3115,17.4924l16.9083,-2.8964l-0.3215,-11.5533l-26.1514,2.1579l1.5464,-10.3255l21.3528,-5.9794l-1.4166,-8.2702l0.7736,-14.8366l9.8871,4.4976l1.8345,25.2243l3.7348,21.8033l-1.5463,10.3255l-9.2756,3.9106l-15.6843,0.365l-18.6474,2.4203l-6.3755,-27.542z" stroke-width="0.7903"/><path d="M175.15585,104.9472l17.9872,-3.8551l1.1105,13.7399l-1.1924,17.23l6.3115,17.4924l16.9083,-2.8964l-0.3215,-11.5533l-26.1514,2.1579l1.5464,-10.3255l21.3528,-5.9794l11.0786,6.6151l3.7348,21.8033l-1.5463,10.3255l-9.2756,3.9106l-15.6843,0.365l-18.6474,2.4203l-6.3755,-27.542z" stroke-width="0.7903"/><path d="M122.99156,147.8056l11.3371,-11.2288l12.044,21.9277l16.9083,-2.8964l-0.3215,-11.5533l-25.3462,2.02l-3.961,-8.6082l26.055,-7.5588l11.0786,6.6151l3.7348,21.8033l-1.5463,10.3255l-9.2756,3.9106l-15.6843,0.365l-18.6474,2.4203z" stroke-width="0.7903"/><path d="M179.36906,207.1932l3.1548,28.0937l-18.3898,3.9241l-14.9116,4.876l-10.0482,-0.6004l-4.8949,-9.2222l-3.7349,-21.8032l8.2453,-9.9253l22.1255,-1.4684l4.8949,9.2222l-25.3786,6.669l3.5421,11.0017l16.9083,-2.8964l0.1297,-18.5957l-6.8591,-15.8508l-3.5259,-13.3261l18.2448,-2.3514z" stroke-width="0.7903"/><path d="M74.04315,207.1278l10.4816,-16.2231l14.254,34.8297l16.9083,-2.8964l-1.3909,-17.7963l-25.5601,0.7715l-4.8164,-13.6026l25.7698,-9.2235l11.8628,11.1932l5.8023,33.8729l-0.6195,15.7361l-9.0617,5.1592l-15.8982,-0.8836l-18.7187,2.0041z" stroke-width="1.01775"/><path d="M183.47986,201.60461l11.6408,-1.994l4.8782,21.4827l17.1509,-1.3048l1.4337,-23.1084l13.6587,-0.7066l0.0022,24.4954l3.2498,36.4592l-39.5788,6.7798l-2.575,-11.5347l24.7175,-2.601l-1.2818,-14.4779l-28.2233,-3.875z" stroke-width="0.56417"/><path d="M235.99356,203.27311l4.4932,-7.9669l24.4047,-3.3168l1.5331,8.9498l-17.4679,2.4165l-1.6775,4.6057l7.2363,-0.9517l7.3801,-0.1127l5.6788,0.7546l3.3543,5.1832l0.395,7.7054l-4.409,3.0583l-8.4586,4.6158l-14.0773,2.4114l-3.5701,-2.8431l1.5696,-3.4357l6.5415,-1.4084l12.6876,-3.325l-1.0181,-4.1439l-13.67,1.1901l-8.9493,-3.649z" stroke-width="0.58798"/><path d="M273.24356,200.073l4.4932,-7.9669l24.4047,-3.3168l1.5331,8.9498l-17.4679,2.4165l-1.6775,4.6057l7.2363,-0.9517l7.3801,-0.1127l5.6788,0.7546l3.3543,5.1832l0.395,7.7054l-4.409,3.0583l-8.4586,4.6158l-14.0773,2.4114l-3.5701,-2.8431l1.5696,-3.4357l6.5415,-1.4084l12.6876,-3.325l-1.0181,-4.1439l-13.67,1.1901l-8.9493,-3.649z" stroke-width="0.58798"/><path d="M365.02986,180.3547l11.6408,-1.994l4.8782,21.4827l17.1509,-1.3048l1.4337,-23.1084l13.6587,-0.7066l0.0022,24.4954l3.2498,36.4592l-39.5788,6.7798l-2.575,-11.5347l24.7175,-2.601l-1.2818,-14.4779l-28.2233,-3.875z" stroke-width="0.56417"/><path d="M314.91106,216.2641l-0.9806,-11.4405l5.8836,-16.3436l21.5736,-4.5762l14.5785,-0.3269l1.6997,16.0167l-5.1646,0.3923l-11.3097,1.9612l-13.5979,2.4189l1.3729,-5.6876l16.0167,-2.0266v-7.5181l-15.6899,1.6344l0.3269,7.1912l-1.9612,12.4211l30.4644,-4.9685l3.5956,11.8328l-32.4257,5.5568z" stroke-width="1.30749"/></g><g fill="#ffffff"><path d="M62.95585,117.7972l37.7136,-7.2342l2.1894,12.7812l-20.8053,4.3378l-1.1924,17.23l6.3115,17.4924l16.9083,-2.8964l-0.3215,-11.5533l-26.1514,2.1579l1.5464,-10.3255l21.3528,-5.9794l-1.4166,-8.2702l0.7736,-14.8366l9.8871,4.4976l1.8345,25.2243l3.7348,21.8033l-1.5463,10.3255l-9.2756,3.9106l-15.6843,0.365l-18.6474,2.4203l-6.3755,-27.542z" stroke-width="0.7903"/><path d="M168.30585,100.1472l17.9872,-3.8551l1.1105,13.7399l-1.1924,17.23l6.3115,17.4924l16.9083,-2.8964l-0.3215,-11.5533l-26.1514,2.1579l1.5464,-10.3255l21.3528,-5.9794l11.0786,6.6151l3.7348,21.8033l-1.5463,10.3255l-9.2756,3.9106l-15.6843,0.365l-18.6474,2.4203l-6.3755,-27.542z" stroke-width="0.7903"/><path d="M116.14155,143.0055l11.3371,-11.2288l12.044,21.9278l16.9083,-2.8964l-0.3215,-11.5534l-25.3462,2.0201l-3.961,-8.6083l26.055,-7.5588l11.0786,6.6151l3.7348,21.8033l-1.5463,10.3256l-9.2756,3.9105l-15.6843,0.365l-18.6474,2.4203z" stroke-width="0.7903"/><path d="M172.51905,202.4432l3.1548,28.0937l-18.3898,3.9241l-14.9116,4.876l-10.0482,-0.6004l-4.8949,-9.2222l-3.7349,-21.8032l8.2453,-9.9253l22.1255,-1.4684l4.8949,9.2222l-25.3786,6.669l3.5421,11.0017l16.9083,-2.8964l0.1297,-18.5957l-6.8591,-15.8508l-3.5259,-13.3261l18.2448,-2.3514z" stroke-width="0.7903"/><path d="M67.19315,202.32791l10.4816,-16.2231l14.254,34.8297l16.9083,-2.8964l-1.3909,-17.7963l-25.5601,0.7715l-4.8164,-13.6026l25.7698,-9.2235l11.8628,11.1932l5.8023,33.8729l-0.6195,15.7361l-9.0617,5.1592l-15.8982,-0.8836l-18.7187,2.0041z" stroke-width="1.01775"/><path d="M176.62986,196.8547l11.6408,-1.994l4.8782,21.4827l17.1509,-1.3048l1.4337,-23.1084l13.6587,-0.7066l0.0022,24.4954l3.2498,36.4592l-39.5788,6.7798l-2.575,-11.5347l24.7175,-2.601l-1.2818,-14.4779l-28.2233,-3.875z" stroke-width="0.56417"/><path d="M229.14356,198.4231l4.4932,-7.9669l24.4047,-3.3168l1.5331,8.9498l-17.4679,2.4165l-1.6775,4.6057l7.2363,-0.9517l7.3801,-0.1127l5.6788,0.7546l3.3543,5.1832l0.395,7.7054l-4.409,3.0583l-8.4586,4.6158l-14.0773,2.4114l-3.5701,-2.8431l1.5696,-3.4357l6.5415,-1.4084l12.6876,-3.325l-1.0181,-4.1439l-13.67,1.1901l-8.9493,-3.649z" stroke-width="0.58798"/><path d="M266.39356,195.27311l4.4932,-7.9669l24.4047,-3.3168l1.5331,8.9498l-17.4679,2.4165l-1.6775,4.6057l7.2363,-0.9517l7.3801,-0.1127l5.6788,0.7546l3.3543,5.1832l0.395,7.7054l-4.409,3.0583l-8.4586,4.6158l-14.0773,2.4114l-3.5701,-2.8431l1.5696,-3.4357l6.5415,-1.4084l12.6876,-3.325l-1.0181,-4.1439l-13.67,1.1901l-8.9493,-3.649z" stroke-width="0.58798"/><path d="M358.17986,175.6047l11.6408,-1.994l4.8782,21.4827l17.1509,-1.3048l1.4337,-23.1084l13.6587,-0.7066l0.0022,24.4954l3.2498,36.4592l-39.5788,6.7798l-2.575,-11.5347l24.7175,-2.601l-1.2818,-14.4779l-28.2233,-3.875z" stroke-width="0.56417"/><path d="M308.06106,211.4641l-0.9806,-11.4405l5.8836,-16.3436l21.5736,-4.5762l14.5785,-0.3269l1.6997,16.0167l-5.1646,0.3923l-11.3097,1.9612l-13.5979,2.4189l1.3729,-5.6876l16.0167,-2.0266v-7.5181l-15.6899,1.6344l0.3269,7.1912l-1.9612,12.4211l30.4644,-4.9685l3.5956,11.8328l-32.4257,5.5568z" stroke-width="1.30749"/></g></g></g></g></svg>