<svg version="1.1" xmlns="http://www.w3.org/2000/svg" xmlns:xlink="http://www.w3.org/1999/xlink" width="269.07873" height="225.79897" viewBox="0,0,269.07873,225.79897"><g transform="translate(-109.0794,-36.79867)"><g data-paper-data="{&quot;isPaintingLayer&quot;:true}" fill="#9966ff" fill-rule="nonzero" stroke="none" stroke-width="0.5" stroke-linecap="butt" stroke-linejoin="miter" stroke-miterlimit="10" stroke-dasharray="" stroke-dashoffset="0" style="mix-blend-mode: normal"><path d="M350.12829,229.20943c0.79057,-2.37171 3.16228,-1.58114 3.16228,-1.58114l2.9084,0.97141c5.03073,1.32023 7.64223,3.62558 11.95988,6.52995c4.19369,4.82594 8.93511,9.8355 9.81832,16.53322c0.20343,1.5427 0.41294,3.3464 -0.44087,4.64729c-1.20989,1.84343 -3.26565,3.06322 -5.25033,4.02402c-0.19864,0.09616 -10.24951,2.12899 -10.60994,2.15733c-4.92771,0.38752 -10.3401,-0.39607 -15.28393,-0.59382c-16.7274,-0.6691 -33.03973,-2.37281 -49.40464,-5.86912c-9.80554,-2.09492 -19.87935,-4.31425 -29.34605,-7.68063c-7.46525,-2.65466 -14.70134,-6.60845 -21.92888,-9.86084c-6.08918,-2.74013 -12.49215,-5.1694 -18.39619,-8.28507c-8.50642,-4.48899 -16.52229,-10.43412 -24.65575,-15.57415c-15.43415,-9.75466 -31.22217,-20.14184 -45.12311,-32.02492c-5.0694,-4.33352 -9.68546,-9.38378 -14.47479,-14.02731c-3.57772,-3.4688 -7.69069,-6.82679 -10.92857,-10.61096c-3.23789,-3.78418 -5.91937,-8.367 -8.79311,-12.43814c-4.33514,-6.15938 -8.69033,-13.64671 -11.21989,-20.75788c-0.96555,-2.7144 -0.95414,-5.68251 -1.41716,-8.52608c-1.35627,-8.32942 -2.53478,-17.45712 -0.62674,-25.85909c0.67516,-2.97304 2.53522,-5.5455 3.82255,-8.30912c0.21179,-0.45467 4.27298,-9.19705 4.42249,-9.41656c0.14952,-0.21952 6.79776,-7.19971 7.14331,-7.56328c3.54399,-3.72877 7.08877,-7.45546 10.65848,-11.15964c5.98689,-3.04538 12.2182,-7.04167 18.5457,-9.293c4.56081,-1.62274 9.961,-2.17873 14.69487,-3.20465c22.94732,-4.97311 46.54152,-6.23737 69.75048,-2.36921c10.92641,1.82107 21.49803,4.13195 32.24393,6.81619c9.48573,2.36946 19.25791,4.9676 27.76287,9.91762c0.37005,0.21537 8.72316,5.08128 8.909,5.22171c3.72386,2.81387 7.01937,7.06263 10.05803,10.56731c1.19954,1.3835 2.65438,2.58655 3.58027,4.16631c0.25527,0.43555 3.22283,9.61066 3.29853,9.84238c0.01477,1.55625 0.09871,8.20199 -0.01659,8.89237c-1.16591,6.98092 -6.94516,14.55157 -11.81251,19.38505c-0.25449,0.25272 -7.17381,7.11308 -7.3188,7.22705c-0.14756,0.11598 -8.44318,5.21514 -8.75128,5.40464c-13.62803,8.38199 -28.60664,14.05181 -43.39151,20.01774c-16.98264,4.26693 -33.95525,8.09707 -51.2051,11.12145c-11.78184,2.06569 -24.17125,4.52694 -35.76249,0.72386c0,0 -2.37171,-0.79057 -1.58114,-3.16228c0.79057,-2.37171 3.16228,-1.58114 3.16228,-1.58114c10.63298,3.60869 22.49622,0.99352 33.31756,-0.90526c17.01885,-2.98623 33.75556,-6.78211 50.52055,-10.95085c4.57827,-1.86042 9.15893,-3.71491 13.73955,-5.56954c9.81982,-3.97592 19.54527,-8.38949 28.57983,-13.95227c2.75736,-1.69777 5.73609,-3.07622 8.28188,-5.07731c2.54579,-2.00109 4.58645,-4.57235 6.88986,-6.84825c4.14472,-4.0952 9.48755,-10.85873 10.42908,-16.81672c0.36982,-2.34018 -0.04602,-4.73859 -0.01659,-7.10763c-0.92486,-2.71102 -1.24732,-5.68975 -2.70147,-8.15762c-0.7627,-1.2944 -2.00971,-2.23382 -3.00478,-3.35945c-2.86928,-3.24576 -5.87153,-7.28342 -9.35692,-9.90693c-2.57625,-1.93919 -5.58299,-3.2281 -8.36658,-4.85572c-8.07398,-4.72099 -17.44236,-7.13423 -26.45524,-9.38557c-10.61909,-2.65256 -21.05723,-4.93567 -31.8542,-6.73517c-22.58858,-3.76476 -45.53636,-2.5162 -67.86947,2.32381c-4.52775,0.98125 -9.73077,1.47985 -14.09336,3.0343c-5.88589,2.09723 -11.60885,5.84183 -17.23139,8.59555c-3.31664,3.54753 -6.66342,7.06536 -10.00912,10.58548c-2.20379,2.31869 -4.83422,4.28963 -6.63508,6.93348c-1.80086,2.64385 -2.67177,5.81327 -4.02252,8.71301c-1.15667,2.48311 -2.91961,4.75582 -3.50936,7.43088c-1.70928,7.75302 -0.53364,16.147 0.71616,23.82251c0.42269,2.59593 0.34381,5.31958 1.23995,7.79232c2.40716,6.64216 6.46836,13.65192 10.54694,19.4118c2.784,3.944 5.37014,8.40435 8.50738,12.07089c3.13724,3.66655 7.14396,6.9114 10.60994,10.27187c4.71409,4.57058 9.25365,9.55117 14.24322,13.81646c13.71736,11.72615 29.31392,21.97403 44.54532,31.59881c8.03179,5.07578 15.94996,10.96962 24.35196,15.39681c5.80221,3.05731 12.09821,5.43741 18.08068,8.12952c7.11489,3.2017 14.24433,7.11721 21.59426,9.72457c9.25043,3.28156 19.09392,5.4402 28.67351,7.48685c17.75394,3.79307 35.42502,5.23737 53.55583,5.9626c5.08322,0.20333 9.30763,0.44258 14.30628,-0.53232c2.42811,-0.47356 5.47521,-0.43359 7.25008,-2.64869c0.33099,-0.41309 0.01549,-1.07206 -0.12146,-1.58338c-0.37202,-1.38903 -0.81425,-2.76677 -1.39585,-4.0819c-1.64312,-3.71545 -4.2259,-6.33203 -6.78583,-9.38488c-3.71317,-2.45096 -5.74976,-4.46265 -10.04012,-5.47005l-3.0916,-1.02859c0,0 -2.37171,-0.79057 -1.58114,-3.16228z"/></g></g></svg>