<svg version="1.1" xmlns="http://www.w3.org/2000/svg" xmlns:xlink="http://www.w3.org/1999/xlink" width="127.4345" height="52.68061" viewBox="0,0,127.4345,52.68061"><g transform="translate(-224.4495,-135.5264)"><g data-paper-data="{&quot;isPaintingLayer&quot;:true}" fill-rule="nonzero" stroke="none" stroke-linecap="butt" stroke-linejoin="miter" stroke-miterlimit="10" stroke-dasharray="" stroke-dashoffset="0" style="mix-blend-mode: normal"><path d="M260.14628,160.47117c1.2703,0 2.4214,0.5161 3.2547,1.3495c0.8334,0.8333 1.3495,1.9844 1.3495,3.2547c0,1.2702 -0.5161,2.4213 -1.3495,3.2547c-0.8333,0.8333 -1.9844,1.3494 -3.2547,1.3494c-1.2703,0 -2.4213,-0.5161 -3.2547,-1.3494c-0.8334,-0.8334 -1.3495,-1.9845 -1.3495,-3.2547c0,-1.2703 0.5161,-2.4214 1.3495,-3.2547c0.8334,-0.8334 1.9844,-1.3495 3.2547,-1.3495z" fill="#b69150" stroke-width="0.46042"/><g stroke-width="0"><path d="M264.7819,172.17045c0,-8.4236 6.82865,-15.25224 15.25224,-15.25224c8.42358,0 15.25226,6.82866 15.25226,15.25224c0,8.4236 -6.82866,15.25224 -15.25226,15.25224c-8.42358,0 -15.25224,-6.82866 -15.25224,-15.25224z" fill="#000000"/><g><path d="M278.53396,180.7045c0,0 -22.4199,3.99848 -25.75098,-16.69443c-3.42311,-21.2646 18.45702,-23.90897 18.45702,-23.90897c0,0 3.3635,-0.60421 13.91247,-2.49922c6.47803,-1.1637 60.61926,1.10799 60.61926,1.10799l2.15221,11.98079c0,0 -49.4844,26.43801 -56.1714,27.63926c-10.56683,1.89822 -13.2186,2.37457 -13.2186,2.37457z" fill="#5a5a5a"/><path d="M346.33295,154.39104l-3.20968,-17.86745l5.55105,-0.99719l3.20968,17.86745z" fill="#414141"/></g><path d="M257.39408,172.88541c0,-8.42358 6.82866,-15.25224 15.25224,-15.25224c8.42358,0 15.25224,6.82866 15.25224,15.25224c0,8.42358 -6.82866,15.25224 -15.25224,15.25224c-8.42358,0 -15.25224,-6.82866 -15.25224,-15.25224z" fill="#1a1a1a"/></g><path d="M252.7083,168.11301v9.5311c0,5.8537 -4.7092,10.5629 -10.5629,10.5629h-5.3906c-5.8537,0 -10.5629,-4.7092 -10.5629,-10.5629v-9.5311z" fill="#5d1ab8" stroke-width="1.96901"/><path d="M254.1898,158.64331v18.5327c0,1.3391 -1.0782,2.4174 -2.4174,2.4174h-24.9057c-1.3391,0 -2.4172,-1.0783 -2.4172,-2.4174v-18.5327c0,-1.3393 1.0781,-2.4173 2.4172,-2.4173h24.9057c1.3392,0 2.4174,1.078 2.4174,2.4173z" fill="#6326ff" stroke-width="1.96901"/><path d="M242.1288,142.1816c5.8539,0 10.5693,4.709 10.5693,10.5629v4.9738h-26.5226v-4.9738c0,-5.8539 4.7154,-10.5629 10.5693,-10.5629z" fill="#b69150" stroke-width="1.96901"/><g fill="#522a00" stroke-width="1.96901"><path d="M250.05546,151.363c0.9109,0 1.6491,0.739 1.6483,1.6499c0.0008,0.9108 -0.7374,1.6498 -1.6483,1.6498c-0.9108,0 -1.649,-0.739 -1.6482,-1.6498c-0.0008,-0.9109 0.7374,-1.6499 1.6482,-1.6499z"/><path d="M242.65546,151.46301c0.9109,0 1.6491,0.739 1.6483,1.6499c0.0008,0.9108 -0.7374,1.6498 -1.6483,1.6498c-0.9108,0 -1.649,-0.739 -1.6482,-1.6498c-0.0008,-0.9109 0.7374,-1.6499 1.6482,-1.6499z"/></g><path d="M254.74561,167.32196c1.2703,0 2.4214,0.5161 3.2547,1.3495c0.8334,0.8333 1.3495,1.9844 1.3495,3.2547c0,1.2702 -0.5161,2.4213 -1.3495,3.2547c-0.8333,0.8333 -1.9844,1.3494 -3.2547,1.3494c-1.2703,0 -2.4213,-0.5161 -3.2547,-1.3494c-0.8334,-0.8334 -1.3495,-1.9845 -1.3495,-3.2547c0,-1.2703 0.5161,-2.4214 1.3495,-3.2547c0.8334,-0.8334 1.9844,-1.3495 3.2547,-1.3495z" fill="#b69150" stroke-width="0.46042"/><path d="M254.3119,148.6861c-1.4856,-1.4841 -21.4429,1.9567 -22.9978,5.9048c0.2032,-0.7345 -2.7166,-6.2465 -3.3248,-0.121c-0.2994,3.0148 -3.2977,2.1632 -2.8829,0.8386c-0.6252,-11.5652 7.4998,-13.9192 15.1168,-13.2524c7.8463,-0.2316 16.4901,9.0289 14.0887,6.63z" data-paper-data="{&quot;index&quot;:null}" fill="#48466f" stroke-width="1.96901"/></g></g></svg>