<svg version="1.1" xmlns="http://www.w3.org/2000/svg" xmlns:xlink="http://www.w3.org/1999/xlink" width="53.46682" height="35.61538" viewBox="0,0,53.46682,35.61538"><g transform="translate(-213.50717,-162.41481)"><g data-paper-data="{&quot;isPaintingLayer&quot;:true}" fill-rule="nonzero" stroke="none" stroke-width="0.5" stroke-linecap="butt" stroke-linejoin="miter" stroke-miterlimit="10" stroke-dasharray="" stroke-dashoffset="0" style="mix-blend-mode: normal"><path d="M224.96435,187.44329c-2.05223,-0.38721 -4.05724,-1.10411 -5.92552,-2.02678c-1.76297,-1.46196 -4.35733,-3.32592 -5.26206,-5.51061c-0.45246,-1.09259 -0.21302,-2.36375 -0.149,-3.54459c0.41014,-7.56453 9.39065,-11.08175 15.71047,-12.93359c12.2112,-3.57814 30.97161,2.89706 36.6799,10.45336c1.58401,4.28192 0.93851,4.58424 -0.06131,7.12114c-3.0789,7.81228 -13.47214,7.68011 -20.31703,7.31893c-2.41697,-0.12754 -6.29822,-1.44533 -8.69582,-0.29271c-2.385,1.14656 -4.07953,5.23714 -7.59997,9.09317c-3.17718,3.48006 -2.7195,-3.74624 -4.37968,-9.67832z" fill="#66a6ff"/><path d="M223.83929,175.98354c0,-1.38071 1.11929,-2.5 2.5,-2.5c1.38071,0 2.5,1.11929 2.5,2.5c0,1.38071 -1.11929,2.5 -2.5,2.5c-1.38071,0 -2.5,-1.11929 -2.5,-2.5z" fill="#d9e9ff"/><path d="M237.05357,176.10259c0,-1.38071 1.11929,-2.5 2.5,-2.5c1.38071,0 2.5,1.11929 2.5,2.5c0,1.38071 -1.11929,2.5 -2.5,2.5c-1.38071,0 -2.5,-1.11929 -2.5,-2.5z" fill="#d9e9ff"/><path d="M250.26786,176.57878c0,-1.38071 1.11929,-2.5 2.5,-2.5c1.38071,0 2.5,1.11929 2.5,2.5c0,1.38071 -1.11929,2.5 -2.5,2.5c-1.38071,0 -2.5,-1.11929 -2.5,-2.5z" fill="#d9e9ff"/></g></g></svg>