<svg xmlns="http://www.w3.org/2000/svg" xmlns:xlink="http://www.w3.org/1999/xlink" version="1.1" width="128.82007044727212" height="95.85313624317055" viewBox="2.254063515987964 0.25061550649699704 128.82007044727212 95.85313624317055">
  <defs>
    <linearGradient id="grad_1" y2="1" x2="0">
      <stop offset="0" stop-color="#DBD3BC" stop-opacity="1"/>
      <stop offset="1" stop-color="#E7DEA6" stop-opacity="1"/>
    </linearGradient>
  <linearGradient id="grad_1-.15467133693334745,0.4177615808065971,-0.4177615808065971,0.15467133693334745,105.76769715845585,-28.890087631344787" y2="29.644" x2="56.5268" x1="88.1722" y1="17.9276" gradientUnits="userSpaceOnUse">
      <stop offset="0" stop-color="#DBD3BC" stop-opacity="1"/>
      <stop offset="1" stop-color="#E7DEA6" stop-opacity="1"/>
    </linearGradient></defs>
  <!-- Exported by Scratch - http://scratch.mit.edu/ -->
  <path id="rect8769-9" fill="#A54436" stroke="none" stroke-width="4.276559927111344" d="M 43.6416 29.8349 L 23.2695 33.5093 C 10.7575 35.766 2.5073 47.6472 4.764 60.1591 L 6.8422 71.6812 C 9.0989 84.1932 20.98 92.4434 33.492 90.1867 L 53.8641 86.5123 L 43.6416 29.8349 Z "/>
  <path id="rect9302" fill="#E25D4A" stroke="none" stroke-width="4.276559927111344" d="M 69.4104 27.4027 L 79.0119 80.6374 C 79.5282 83.4997 77.6395 86.2195 74.7768 86.7358 L 35.1641 93.8805 C 32.3018 94.3967 29.5815 92.5082 29.0653 89.6458 L 19.4638 36.4112 C 18.9475 33.5489 20.8365 30.8285 23.6988 30.3123 L 63.3115 23.1677 C 66.1742 22.6513 68.8941 24.5404 69.4104 27.4027 Z "/>
  <path id="ID0.4224610994569957" fill="#E3DAAC" stroke="none" d="M 82.4758 10.6152 C 81.986 7.9 80.4391 5.6387 78.3366 4.1787 C 76.234 2.7187 73.5748 2.0592 70.8596 2.549 C 68.1444 3.0387 65.883 4.5856 64.4231 6.6881 C 62.9631 8.7907 62.3036 11.45 62.7933 14.1651 C 63.2831 16.8803 64.83 19.1417 66.9325 20.6017 C 69.0351 22.0616 71.6943 22.7211 74.4095 22.2314 C 77.1247 21.7417 79.386 20.1947 80.846 18.0922 C 82.306 15.9896 82.9655 13.3304 82.4758 10.6152 Z " stroke-width="0.9999999312872773"/>
  <g id="ID0.11722990404814482">
    <path id="rect8769" fill="url(#grad_1-.15467133693334745,0.4177615808065971,-0.4177615808065971,0.15467133693334745,105.76769715845585,-28.890087631344787)" stroke="none" stroke-width="4.2765600102604004" d="M 96.1426 39.4553 C 91.7281 27.532 78.5808 21.4787 66.6575 25.8932 L 56.5268 29.644 L 76.5276 83.6656 L 86.6583 79.9148 C 98.5817 75.5003 104.6172 62.3449 100.2027 50.4215 L 96.1426 39.4553 Z "/>
    <path id="path9281" fill="#030302" stroke="none" stroke-width="4.2765600102604004" d="M 79.0781 60.8849 C 77.2235 61.5734 75.1616 60.6272 74.4747 58.7719 C 73.7878 56.9166 74.7363 54.8558 76.5922 54.1706 C 78.4469 53.482 80.5088 54.4283 81.1957 56.2835 C 81.8825 58.1388 80.934 60.1996 79.0781 60.8849 Z "/>
    <path id="path9281-8" fill="#030302" stroke="none" stroke-width="4.2765600102604004" d="M 84.5523 76.2132 C 82.6976 76.9018 80.6358 75.9555 79.9489 74.1002 C 79.262 72.245 80.2105 70.1842 82.0664 69.4989 C 83.9211 68.8104 85.9829 69.7566 86.6698 71.6119 C 87.3567 73.4672 86.4082 75.528 84.5523 76.2132 Z "/>
    <path id="path9304" fill="#8b735c" stroke="none" stroke-width="4.2765600102604004" d="M 99.5549 80.4166 C 101.4575 76.2715 79.3992 38.2168 70.1851 38.0271 C 71.8344 37.8872 80.8594 27.7833 67.9244 31.1639 C 61.5579 32.8275 61.0314 26.0784 64.0421 25.9243 C 87.127 15.9295 98.0488 30.7035 102.4347 46.7208 C 108.8233 62.5276 96.4796 87.1168 99.5549 80.4166 Z "/>
  </g>
  <path id="ID0.4224610994569957" fill="#E3DAAC" stroke="none" d="M 128.7758 25.4652 C 128.286 22.75 126.7391 20.4887 124.6366 19.0287 C 122.534 17.5687 119.8748 16.9092 117.1596 17.399 C 114.4444 17.8887 112.183 19.4356 110.7231 21.5381 C 109.2631 23.6407 108.6036 26.3 109.0933 29.0151 C 109.5831 31.7303 111.13 33.9917 113.2325 35.4517 C 115.3351 36.9116 117.9943 37.5711 120.7095 37.0814 C 123.4247 36.5917 125.686 35.0447 127.146 32.9422 C 128.606 30.8396 129.2655 28.1804 128.7758 25.4652 Z " stroke-width="0.9999999312872773"/>
</svg>