<svg xmlns="http://www.w3.org/2000/svg" xmlns:xlink="http://www.w3.org/1999/xlink" version="1.1" width="124.92434614866721" height="99.535010516343" viewBox="3.967518240363659 5.822036177070202 124.92434614866721 99.535010516343">
  <defs>
    <linearGradient id="grad_1" y2="1" x2="0">
      <stop offset="0" stop-color="#DBD3BC" stop-opacity="1"/>
      <stop offset="1" stop-color="#E7DEA6" stop-opacity="1"/>
    </linearGradient>
  <linearGradient id="grad_1-.4308514842687845,-0.11320313439356089,0.11320313439356089,0.4308514842687845,-42.2169982738793,-1.5941274274140476" y2="53.1192" x2="11.2372" x1="2.6621" y1="20.4822" gradientUnits="userSpaceOnUse">
      <stop offset="0" stop-color="#DBD3BC" stop-opacity="1"/>
      <stop offset="1" stop-color="#E7DEA6" stop-opacity="1"/>
    </linearGradient></defs>
  <!-- Exported by Scratch - http://scratch.mit.edu/ -->
  <g id="ID0.8529925644397736">
    <path id="rect8769-9" fill="#A54436" stroke="none" stroke-width="4.583724200425026" d="M 31.4582 97.5461 L 54.531 102.4148 C 68.7016 105.405 82.2201 97.8043 84.8534 85.3661 L 87.2783 73.912 C 89.9115 61.4739 80.6298 49.0619 66.4592 46.0717 L 43.3864 41.203 L 31.4582 97.5461 Z "/>
    <path id="rect9302" fill="#E25D4A" stroke="none" stroke-width="4.276559936026151" d="M 11.3842 49.8549 L 59.3555 24.8575 C 61.9349 23.5135 65.0933 24.5079 66.4375 27.0876 L 85.0384 62.7837 C 86.3825 65.363 85.3883 68.5218 82.809 69.8659 L 34.8377 94.8633 C 32.2584 96.2074 29.0993 95.2128 27.7553 92.6334 L 9.1544 56.9373 C 7.8101 54.3576 8.8049 51.199 11.3842 49.8549 Z "/>
    <g id="ID0.11722990404814482">
      <path id="rect8769" fill="url(#grad_1-.4308514842687845,-0.11320313439356089,0.11320313439356089,0.4308514842687845,-42.2169982738793,-1.5941274274140476)" stroke="none" stroke-width="4.276559905380326" d="M 24.8643 14.6487 C 12.5674 17.8797 5.2611 30.3741 8.4921 42.6711 L 11.2372 53.1192 L 66.9515 38.4807 L 64.2063 28.0325 C 60.9754 15.7356 48.4711 8.4462 36.1742 11.6772 L 24.8643 14.6487 Z "/>
      <path id="path9281" fill="#030302" stroke="none" stroke-width="4.276559905380326" d="M 44.6228 33.6536 C 45.1272 35.5665 43.9845 37.5263 42.0711 38.0291 C 40.1577 38.5318 38.1991 37.3868 37.6981 35.473 C 37.1937 33.56 38.3364 31.6002 40.2499 31.0975 C 42.1633 30.5948 44.1218 31.7397 44.6228 33.6536 Z "/>
      <path id="path9281-8" fill="#030302" stroke="none" stroke-width="4.276559905380326" d="M 60.4146 29.7493 C 60.9191 31.6622 59.7763 33.622 57.8629 34.1247 C 55.9495 34.6275 53.991 33.4825 53.4899 31.5687 C 52.9855 29.6557 54.1283 27.6959 56.0417 27.1932 C 57.9551 26.6905 59.9136 27.8354 60.4146 29.7493 Z "/>
      <path id="path9304" fill="#8b735c" stroke="none" stroke-width="4.276559905380326" d="M 65.9631 15.2463 C 62.0233 12.9486 21.9993 31.1916 20.9121 40.3433 C 20.9337 38.6882 11.7578 28.7211 13.8612 41.9241 C 14.8961 48.4224 8.1279 48.2884 8.268 45.277 C 0.5716 21.3276 16.3401 11.8983 32.7087 9.095 C 49.0631 4.278 72.3316 18.9602 65.9631 15.2463 Z "/>
    </g>
    <path id="ID0.4224610994569957" fill="#E3DAAC" stroke="none" d="M 88.6 29 C 85.841 29 83.341 30.121 81.531 31.931 C 79.721 33.741 78.6 36.241 78.6 39 C 78.6 41.759 79.721 44.259 81.531 46.069 C 83.341 47.879 85.841 49 88.6 49 C 91.359 49 93.859 47.879 95.669 46.069 C 97.479 44.259 98.6 41.759 98.6 39 C 98.6 36.241 97.479 33.741 95.669 31.931 C 93.859 30.121 91.359 29 88.6 29 Z " stroke-width="1"/>
    <path id="ID0.4224610994569957" fill="#E3DAAC" stroke="none" d="M 116.6 46 C 113.841 46 111.341 47.121 109.531 48.931 C 107.721 50.741 106.6 53.241 106.6 56 C 106.6 58.759 107.721 61.259 109.531 63.069 C 111.341 64.879 113.841 66 116.6 66 C 119.359 66 121.859 64.879 123.669 63.069 C 125.479 61.259 126.6 58.759 126.6 56 C 126.6 53.241 125.479 50.741 123.669 48.931 C 121.859 47.121 119.359 46 116.6 46 Z " stroke-width="1"/>
  </g>
</svg>