<svg version="1.1" xmlns="http://www.w3.org/2000/svg" xmlns:xlink="http://www.w3.org/1999/xlink" width="608.73484" height="360.48619" viewBox="0,0,608.73484,360.48619"><g transform="translate(15.29468,-8.21283)"><g data-paper-data="{&quot;isPaintingLayer&quot;:true}" fill-rule="nonzero" stroke="none" stroke-linecap="butt" stroke-linejoin="miter" stroke-miterlimit="10" stroke-dasharray="" stroke-dashoffset="0" style="mix-blend-mode: normal"><path d="M45.9681,365.01836v-256.07294h41.8629v256.07295z" fill="#e5e5e5" stroke-width="0"/><path d="M-15.29468,117.11379v-38.79977h163.36742v38.79977z" fill="#e5e5e5" stroke-width="0"/><path d="M185.14749,365.57905v-357.36622h142.45654v357.36622z" fill="#e5e5e5" stroke-width="0"/><path d="M365.63557,366.10996v-204.20927h102.10463v204.20927z" fill="#e5e5e5" stroke-width="0"/><g stroke-width="0"><path d="M199.12506,64.37038v-45.94709h30.63139v45.94709z" fill="#f2f2f2"/><path d="M239.96691,64.37038v-45.94709h30.63139v45.94709z" fill="#dadada"/><path d="M280.80876,64.37038v-45.94709h30.6314v45.94709z" fill="#dadada"/></g><g stroke-width="0"><path d="M199.12506,120.52792v-45.94708h30.63139v45.94708z" fill="#dadada"/><path d="M239.96691,120.52792v-45.94708h30.63139v45.94709z" fill="#f2f2f2"/><path d="M280.80876,120.52792v-45.94708h30.6314v45.94709z" fill="#f2f2f2"/></g><g stroke-width="0"><path d="M199.12506,176.68547v-45.94708h30.63139v45.94708z" fill="#f2f2f2"/><path d="M239.96691,176.68547v-45.94709h30.63139v45.94709z" fill="#f2f2f2"/><path d="M280.80876,176.68547v-45.94709h30.6314v45.94709z" fill="#dadada"/></g><g stroke-width="0"><path d="M199.12506,232.84302v-45.94708h30.63139v45.94708z" fill="#dadada"/><path d="M239.96691,232.84302v-45.94708h30.63139v45.94708z" fill="#f2f2f2"/><path d="M280.80876,232.84302v-45.94708h30.6314v45.94708z" fill="#f2f2f2"/></g><g stroke-width="0"><path d="M199.12506,289.00057v-45.94708h30.63139v45.94708z" fill="#dadada"/><path d="M239.96691,289.00057v-45.94709h30.63139v45.94709z" fill="#f2f2f2"/><path d="M280.80876,289.00057v-45.94709h30.6314v45.94709z" fill="#f2f2f2"/></g><path d="M199.12506,345.15812v-45.94709h30.63139v45.94709z" fill="#f2f2f2" stroke-width="0"/><path d="M239.96691,368.69902v-69.48798h30.63139v69.48798z" fill="#f2f2f2" stroke-width="0"/><path d="M280.80876,345.15812v-45.94709h30.6314v45.94709z" fill="#f2f2f2" stroke-width="0"/><path d="M380.17951,311.15884v-137.84126h30.63139v137.84126z" fill="#dadada" stroke-width="0"/><path d="M421.02136,219.26467v-45.94709h30.63139v45.94709z" fill="#dadada" stroke-width="0"/><path d="M421.02136,367.31687v-137.84125h30.63139v137.84125z" fill="#f2f2f2" stroke-width="0"/><path d="M380.17951,367.31687v-45.94708h30.63139v45.94708z" fill="#f2f2f2" stroke-width="0"/><path d="M507.80876,364.15812v-116.44707h85.6314v116.44707z" fill="#f2f2f2" stroke-width="0"/><path d="" fill="#f2f2f2" stroke-width="0.5"/><path d="" fill="#f2f2f2" stroke-width="0.5"/></g></g></svg>