<svg xmlns="http://www.w3.org/2000/svg" xmlns:xlink="http://www.w3.org/1999/xlink" version="1.1" width="72.02291314941407" height="132.99695794921874" viewBox="-2.13828 -2.13828 72.02291314941407 132.99695794921874"><defs><linearGradient x1="267.48074" y1="197.06267" x2="267.48074" y2="230.80747" gradientUnits="userSpaceOnUse" id="color-1"><stop offset="0" stop-color="#dbd3bc"/><stop offset="1" stop-color="#e7dea6"/></linearGradient><linearGradient x1="61.3539" y1="28.7562" x2="61.3539" y2="62.501" gradientUnits="userSpaceOnUse" id="color-1-,0,0,1,-206.12684,-168.30647"><stop offset="0" stop-color="#dbd3bc"/><stop offset="1" stop-color="#e7dea6"/></linearGradient></defs><g><g data-paper-data="{&quot;isPaintingLayer&quot;:true}" fill-rule="nonzero" stroke-linecap="butt" stroke-linejoin="miter" stroke-miterlimit="10" stroke-dasharray="" stroke-dashoffset="0" style="mix-blend-mode: normal"><path d="M 61.3762 85.0776 L 61.3762 105.7784 C 61.3762 118.4923 51.1481 128.7204 38.4342 128.7204 L 26.7263 128.7204 C 14.0124 128.7204 3.7843 118.4923 3.7843 105.7784 L 3.7843 85.0776 Z " data-paper-data="{&quot;origPos&quot;:null}" id="rect8769-9" fill="#a54436" stroke-width="4.27656" stroke="none"/><path d="M 64.5939 64.51 L 64.5939 104.7618 C 64.5939 107.6703 62.252 110.0122 59.3435 110.0122 L 5.2499 110.0122 C 2.3414 110.0122 0 107.6703 0 104.7618 L 0 64.51 C 0 61.6011 2.3414 59.2597 5.2499 59.2597 L 59.3435 59.2597 C 62.252 59.2597 64.5939 61.6011 64.5939 64.51 Z " data-paper-data="{&quot;origPos&quot;:null}" id="rect9302" fill="#e25d4a" stroke-width="4.27656" stroke="none"/><path d="M 44.5498 1 C 47.3088 1 49.8088 2.121 51.6188 3.931 C 53.4288 5.741 54.5498 8.241 54.5498 11 C 54.5498 13.759 53.4288 16.259 51.6188 18.069 C 49.8088 19.879 47.3088 21 44.5498 21 C 41.7908 21 39.2908 19.879 37.4808 18.069 C 35.6708 16.259 34.5498 13.759 34.5498 11 C 34.5498 8.241 35.6708 5.741 37.4808 3.931 C 39.2908 2.121 41.7908 1 44.5498 1 Z " data-paper-data="{&quot;origPos&quot;:null}" id="ID0.4224610994569957" fill="#e3daac" stroke-width="1" stroke="none"/><path d="M 38.3981 28.7562 C 51.1125 28.7562 61.3539 38.9839 61.3539 51.6982 L 61.3539 62.501 L 3.7487 62.501 L 3.7487 51.6982 C 3.7487 38.9839 13.9901 28.7562 26.7044 28.7562 Z " data-paper-data="{&quot;origPos&quot;:null}" id="rect8769" fill="url(#color-1-,0,0,1,-206.12684,-168.30647)" stroke-width="4.27656" stroke="none"/><path d="M 66.8718 47.4449 C 63.6452 44.2214 59.6324 60.3613 21.5887 56.6029 C 1.3635 53.341 2.2052 57.3718 3.106 54.495 C 1.7481 29.376 19.3952 24.2632 35.9388 25.7115 C 52.9804 25.2085 72.0874 52.6551 66.8718 47.4449 Z " data-paper-data="{&quot;origPos&quot;:null,&quot;index&quot;:null}" id="path9304" fill="#8b735c" stroke-width="4.27656" stroke="none"/><path d="M 20.4998 0 C 23.2588 0 25.7588 1.121 27.5688 2.931 C 29.3788 4.741 30.4998 7.241 30.4998 10 C 30.4998 12.759 29.3788 15.259 27.5688 17.069 C 25.7588 18.879 23.2588 20 20.4998 20 C 17.7408 20 15.2408 18.879 13.4308 17.069 C 11.6208 15.259 10.4998 12.759 10.4998 10 C 10.4998 7.241 11.6208 4.741 13.4308 2.931 C 15.2408 1.121 17.7408 0 20.4998 0 Z " data-paper-data="{&quot;origPos&quot;:null}" id="ID0.4224610994569957" fill="#e3daac" stroke-width="1" stroke="none"/></g></g></svg>