<svg version="1.1" xmlns="http://www.w3.org/2000/svg" xmlns:xlink="http://www.w3.org/1999/xlink" width="1042.22547" height="178.76375" viewBox="0,0,1042.22547,178.76375"><defs><linearGradient x1="236.44222" y1="147" x2="236.44222" y2="213" gradientUnits="userSpaceOnUse" id="color-1"><stop offset="0" stop-color="#008eff" stop-opacity="0.50196"/><stop offset="1" stop-color="#0091ff" stop-opacity="0.90196"/></linearGradient><linearGradient x1="122.06871" y1="34.23625" x2="122.06871" y2="62.40787" gradientUnits="userSpaceOnUse" id="color-2"><stop offset="0" stop-color="#008eff" stop-opacity="0.50196"/><stop offset="1" stop-color="#0091ff" stop-opacity="0.90196"/></linearGradient><linearGradient x1="528.62334" y1="34.23625" x2="528.62334" y2="62.40787" gradientUnits="userSpaceOnUse" id="color-3"><stop offset="0" stop-color="#008eff" stop-opacity="0.50196"/><stop offset="1" stop-color="#0091ff" stop-opacity="0.90196"/></linearGradient><linearGradient x1="757.49751" y1="147" x2="757.49751" y2="213" gradientUnits="userSpaceOnUse" id="color-4"><stop offset="0" stop-color="#008eff" stop-opacity="0.50196"/><stop offset="1" stop-color="#0091ff" stop-opacity="0.90196"/></linearGradient></defs><g transform="translate(126.73045,-34.23625)"><g data-paper-data="{&quot;isPaintingLayer&quot;:true}" fill-rule="nonzero" stroke="none" stroke-width="0" stroke-linecap="butt" stroke-linejoin="miter" stroke-miterlimit="10" stroke-dasharray="" stroke-dashoffset="0" style="mix-blend-mode: normal"><path d="M-126.73045,213v-66h726.34535v66z" fill="url(#color-1)"/><path d="M64.97563,62.40787v-28.17162h114.18616v28.17162c0,0 -24.51629,0 -47.91076,0c-13.72065,0 -27.05545,0 -34.83222,0c-12.96799,0 -31.44318,0 -31.44318,0z" fill="url(#color-2)"/><path d="M454.72191,62.40787v-28.17162h147.80289v28.17162c0,0 -31.73395,0 -62.01582,0c-17.76005,0 -35.02065,0 -45.08693,0c-16.78581,0 -40.70013,0 -40.70013,0z" fill="url(#color-3)"/><path d="M599.5,213v-66h315.99503v66z" fill="url(#color-4)"/></g></g></svg>