<svg xmlns="http://www.w3.org/2000/svg" xmlns:xlink="http://www.w3.org/1999/xlink" version="1.1" width="119.0335637831721" height="107.84296624899241" viewBox="-1.9382799965159716 -1.9842883002774538 119.0335637831721 107.84296624899241">
  <defs>
    <linearGradient id="grad_1" y2="1" x2="0">
      <stop offset="0" stop-color="#DBD3BC" stop-opacity="1"/>
      <stop offset="1" stop-color="#E7DEA6" stop-opacity="1"/>
    </linearGradient>
  <linearGradient id="grad_1-0.4454749822616577,0,0,0.4454749822616577,125.8,-29" y2="37.501" x2="88.0041" x1="88.0041" y1="3.7562" gradientUnits="userSpaceOnUse">
      <stop offset="0" stop-color="#DBD3BC" stop-opacity="1"/>
      <stop offset="1" stop-color="#E7DEA6" stop-opacity="1"/>
    </linearGradient></defs>
  <!-- Exported by Scratch - http://scratch.mit.edu/ -->
  <path id="rect8769-9" fill="#A54436" stroke="none" stroke-width="4.276559998992408" d="M 88.0264 60.0776 L 88.0264 80.7784 C 88.0264 93.4923 77.7983 103.7204 65.0844 103.7204 L 53.3765 103.7204 C 40.6626 103.7204 30.4345 93.4923 30.4345 80.7784 L 30.4345 60.0776 L 88.0264 60.0776 Z "/>
  <path id="rect9302" fill="#E25D4A" stroke="none" stroke-width="4.276559998992408" d="M 85.9937 34.2597 L 31.9001 34.2597 C 28.9916 34.2597 26.6502 36.6011 26.6502 39.51 L 26.6502 79.7618 C 26.6502 82.6703 28.9916 85.0122 31.9001 85.0122 L 85.9937 85.0122 C 88.9022 85.0122 91.2441 82.6703 91.2441 79.7618 L 91.2441 39.51 C 91.2441 36.6011 88.9022 34.2597 85.9937 34.2597 Z "/>
  <path id="ID0.4224610994569957" fill="#E3DAAC" stroke="none" d="M 10.2 2 C 12.959 2 15.459 3.121 17.269 4.931 C 19.079 6.741 20.2 9.241 20.2 12 C 20.2 14.759 19.079 17.259 17.269 19.069 C 15.459 20.879 12.959 22 10.2 22 C 7.441 22 4.941 20.879 3.131 19.069 C 1.321 17.259 0.2 14.759 0.2 12 C 0.2 9.241 1.321 6.741 3.131 4.931 C 4.941 3.121 7.441 2 10.2 2 Z " stroke-width="1"/>
  <path id="rect8769" fill="url(#grad_1-0.4454749822616577,0,0,0.4454749822616577,125.8,-29)" stroke="none" stroke-width="4.276559998992408" d="M 65.0483 3.7562 C 77.7627 3.7562 88.0041 13.9839 88.0041 26.6982 L 88.0041 37.501 L 30.3989 37.501 L 30.3989 26.6982 C 30.3989 13.9839 40.6403 3.7562 53.3546 3.7562 L 65.0483 3.7562 Z "/>
  <path id="path9304" fill="#8b735c" stroke="none" stroke-width="4.276559998992408" d="M 25.4505 14.7782 C 28.6771 11.5547 72.0232 19.028 75.4003 27.6029 C 74.9588 26.0077 81.3006 14.036 82.6214 27.3401 C 83.2718 33.8881 89.7838 32.0385 88.883 29.1617 C 90.2409 4.0427 72.5938 -1.0701 56.0502 0.3782 C 39.0086 -0.1248 20.2349 19.9884 25.4505 14.7782 Z "/>
  <g id="ID0.25995567301288247">
    <path id="path9281" fill="#030302" stroke="none" stroke-width="4.276559998992408" d="M 62.7926 27.2067 C 62.7909 29.185 64.3941 30.7901 66.3725 30.7901 C 68.3508 30.7901 69.9541 29.185 69.9523 27.2067 C 69.9541 25.2283 68.3508 23.6233 66.3725 23.6233 C 64.3941 23.6233 62.7909 25.2283 62.7926 27.2067 Z "/>
    <path id="path9281-8" fill="#030302" stroke="none" stroke-width="4.276559998992408" d="M 46.5926 27.4067 C 46.5909 29.385 48.1941 30.9901 50.1725 30.9901 C 52.1508 30.9901 53.7541 29.385 53.7523 27.4067 C 53.7541 25.4283 52.1508 23.8233 50.1725 23.8233 C 48.1941 23.8233 46.5909 25.4283 46.5926 27.4067 Z "/>
  </g>
  <path id="ID0.4224610994569957" fill="#E3DAAC" stroke="none" d="M 104.127 2.304 C 107.115 2.304 109.8225 3.5181 111.7827 5.4783 C 113.743 7.4385 114.957 10.146 114.957 13.134 C 114.957 16.122 113.743 18.8295 111.7827 20.7897 C 109.8225 22.75 107.115 23.964 104.127 23.964 C 101.139 23.964 98.4315 22.75 96.4713 20.7897 C 94.511 18.8295 93.297 16.122 93.297 13.134 C 93.297 10.146 94.511 7.4385 96.4713 5.4783 C 98.4315 3.5181 101.139 2.304 104.127 2.304 Z " stroke-width="1.0830000638961792"/>
</svg>