<svg xmlns="http://www.w3.org/2000/svg" xmlns:xlink="http://www.w3.org/1999/xlink" version="1.1" width="77.28183161830512" height="107.87924372768012" viewBox="-1.4354113917331284 -1.166346488473851 77.28183161830512 107.87924372768012">
  <defs>
    <linearGradient id="grad_1" y2="1" x2="0">
      <stop offset="0" stop-color="#DBD3BC" stop-opacity="1"/>
      <stop offset="1" stop-color="#E7DEA6" stop-opacity="1"/>
    </linearGradient>
  <linearGradient id="grad_1-.4454559003887341,-0.00411989096222537,0.00411989096222537,0.4454559003887341,-34.484928186237816,-27.579542177170513" y2="38.569" x2="3.9244" x1="3.6123" y1="4.8257" gradientUnits="userSpaceOnUse">
      <stop offset="0" stop-color="#DBD3BC" stop-opacity="1"/>
      <stop offset="1" stop-color="#E7DEA6" stop-opacity="1"/>
    </linearGradient></defs>
  <!-- Exported by Scratch - http://scratch.mit.edu/ -->
  <g id="ID0.34915054962038994">
    <path id="ID0.4224610994569957" fill="#E3DAAC" stroke="none" d="M 63.6157 56.4421 C 60.8568 56.4676 58.3672 57.6117 56.5741 59.4383 C 54.7809 61.265 53.683 63.7752 53.7086 66.5341 C 53.7341 69.293 54.8782 71.7825 56.7048 73.5757 C 58.5315 75.3689 61.0417 76.4667 63.8006 76.4412 C 66.5595 76.4157 69.049 75.2716 70.8422 73.445 C 72.6354 71.6183 73.7332 69.108 73.7077 66.3492 C 73.6822 63.5903 72.5381 61.1008 70.7115 59.3076 C 68.8848 57.5144 66.3745 56.4166 63.6157 56.4421 Z " stroke-width="1.0000000385590688"/>
    <path id="rect8769-9" fill="#A54436" stroke="none" stroke-width="4.27655970668403" d="M 4.1109 61.1449 L 4.3023 81.8448 C 4.4199 94.5581 14.7422 104.6912 27.4555 104.5736 L 39.1629 104.4653 C 51.8763 104.3478 62.0093 94.0255 61.8918 81.3122 L 61.7003 60.6123 L 4.1109 61.1449 Z "/>
    <path id="rect9302" fill="#E25D4A" stroke="none" stroke-width="4.27655970668403" d="M 5.9047 35.3093 L 59.996 34.809 C 62.9044 34.7821 65.2673 37.1018 65.2942 40.0106 L 65.6665 80.2607 C 65.6934 83.169 63.3737 85.5325 60.4654 85.5594 L 6.3741 86.0596 C 3.4657 86.0865 1.1023 83.7664 1.0754 80.858 L 0.7031 40.608 C 0.6762 37.6992 2.9963 35.3362 5.9047 35.3093 Z "/>
    <path id="ID0.4224610994569957" fill="#E3DAAC" stroke="none" d="M 20.5907 56.9439 C 17.8318 56.9694 15.3422 58.1135 13.5491 59.9401 C 11.7559 61.7668 10.658 64.2771 10.6836 67.0359 C 10.7091 69.7948 11.8532 72.2844 13.6798 74.0775 C 15.5065 75.8707 18.0167 76.9686 20.7756 76.943 C 23.5345 76.9175 26.024 75.7734 27.8172 73.9468 C 29.6104 72.1201 30.7082 69.6099 30.6827 66.851 C 30.6572 64.0921 29.5131 61.6026 27.6865 59.8094 C 25.8598 58.0162 23.3495 56.9184 20.5907 56.9439 Z " stroke-width="1.0000000385590688"/>
    <g id="ID0.11722990404814482">
      <path id="rect8769" fill="url(#grad_1-.4454559003887341,-0.00411989096222537,0.00411989096222537,0.4454559003887341,-34.484928186237816,-27.579542177170513)" stroke="none" stroke-width="4.27655970668403" d="M 26.5671 4.6134 C 13.8533 4.731 3.7069 15.0529 3.8244 27.7667 L 3.9244 38.569 L 61.5271 38.0363 L 61.4272 27.234 C 61.3097 14.5202 50.974 4.3877 38.2603 4.5053 L 26.5671 4.6134 Z "/>
      <path id="path9281" fill="#030302" stroke="none" stroke-width="4.27655970668403" d="M 41.0281 27.9323 C 41.0481 29.9105 39.4598 31.5303 37.4815 31.5486 C 35.5033 31.5669 33.8852 29.9768 33.8687 27.9985 C 33.8486 26.0202 35.437 24.4004 37.4152 24.3821 C 39.3935 24.3639 41.0116 25.954 41.0281 27.9323 Z "/>
      <path id="path9281-8" fill="#030302" stroke="none" stroke-width="4.27655970668403" d="M 57.0318 27.9722 C 57.0519 29.9505 55.4636 31.5703 53.4853 31.5886 C 51.507 31.6069 49.889 30.0167 49.8725 28.0385 C 49.8524 26.0602 51.4408 24.4404 53.419 24.4221 C 55.3973 24.4038 57.0153 25.994 57.0318 27.9722 Z "/>
      <path id="path9304" fill="#8b735c" stroke="none" stroke-width="4.27655970668403" d="M 66.2651 15.2687 C 63.0089 12.0752 19.7338 19.949 16.4361 28.5549 C 16.8628 26.9556 10.4106 15.0431 9.2128 28.3588 C 8.623 34.9126 2.0942 33.1233 2.9683 30.2382 C 1.3783 5.1328 18.9773 -0.1429 35.5336 1.1523 C 52.5698 0.4918 71.5287 20.4305 66.2651 15.2687 Z "/>
    </g>
  </g>
</svg>