<svg version="1.1" xmlns="http://www.w3.org/2000/svg" xmlns:xlink="http://www.w3.org/1999/xlink" width="752.69253" height="607.95686" viewBox="0,0,752.69253,607.95686"><defs><linearGradient x1="246.91261" y1="-54.81071" x2="246.91261" y2="90.95179" gradientUnits="userSpaceOnUse" id="color-1"><stop offset="0" stop-color="#bfbfbf" stop-opacity="0.50196"/><stop offset="1" stop-color="#ffffff"/></linearGradient><linearGradient x1="240" y1="254.82081" x2="240" y2="449.45685" gradientUnits="userSpaceOnUse" id="color-2"><stop offset="0" stop-color="#e6e6e6" stop-opacity="0"/><stop offset="1" stop-color="#e6e6e6"/></linearGradient></defs><g transform="translate(131.66087,158.5)"><g data-paper-data="{&quot;isPaintingLayer&quot;:true}" fill-rule="nonzero" stroke="none" stroke-linecap="butt" stroke-linejoin="miter" stroke-miterlimit="10" stroke-dasharray="" stroke-dashoffset="0" style="mix-blend-mode: normal"><path d="M-69.87391,72.00214c-15.53143,5.91674 -32.09873,4.64318 -45.24082,-5.36919c-16.87144,-12.85359 -15.27416,-43.98657 -0.25442,-57.54156c4.46589,-4.03037 9.39057,-4.33742 14.38937,-6.83888c1.14833,-0.57464 4.71358,-5.92577 5.96477,-7.17696c5.42102,-5.42102 14.50003,-8.38324 21.75024,-9.74399c9.4279,-1.76947 20.80134,1.13508 29.4401,-3.49488c2.7445,-1.47092 4.41436,-4.40859 6.83317,-6.36954c4.50705,-3.65391 12.63234,-8.04539 18.73721,-9.72697c11.15283,-3.07204 20.98426,-3.04483 32.14965,0.14528c2.80035,0.8001 6.37462,2.05633 8.79674,3.66531c0.74169,0.49269 2.35893,2.89083 3.45627,2.90646c6.15142,0.08764 10.04273,0.24705 15.93001,1.98022c0.84959,0.25011 0.84646,-2.01862 0.9444,-2.41061c0.91988,-3.68172 2.12349,-8.32091 4.53324,-11.3331c6.80518,-8.50648 15.54783,-13.69058 26.40088,-15.26504c6.97389,-1.0117 15.20384,1.29308 21.23611,4.84081c3.9112,2.30028 7.06384,7.07823 11.60112,7.12133c0.3696,0.00351 6.62371,-3.9389 7.70892,-4.28419c2.82485,-0.89882 6.56831,-0.69544 9.50439,-0.69544c6.46033,0 13.78857,1.9469 19.44288,5.20181c3.5343,2.03452 7.01557,4.16045 10.49072,6.29443c0.51754,0.3178 0.88467,1.19975 1.4772,1.06652c6.01563,-1.35255 11.90005,-3.36915 18.15102,-3.00745c5.81252,0.33633 10.48823,2.27307 14.83612,6.14532c1.46756,1.30702 2.90956,2.73181 4.19629,4.19629c0.74063,0.84294 1.46382,1.70461 2.11992,2.6149c0.17758,0.24638 0.25773,0.94628 0.49925,0.76215c3.19382,-2.43506 5.38891,-5.73783 8.85253,-7.80699c11.99717,-7.16709 30.69285,-14.95913 45.03568,-9.58056c3.58586,1.3447 8.19384,2.85504 11.63181,5.09458c3.96577,2.58336 7.3405,6.2208 11.71983,8.01597c1.70448,0.6987 6.10129,-3.45555 6.73701,-3.80289c4.65474,-2.54321 12.57705,-3.90625 17.2696,-5.01231c10.86306,-2.56047 20.78933,0.26925 31.05009,3.40563c2.28356,0.69801 4.65724,2.1191 6.86875,2.46107c2.35351,0.36392 4.65395,-1.18643 7.03464,-1.24779c10.66737,-0.27493 21.78877,0.64278 31.39115,5.91166c0.21032,0.1154 11.79071,7.48559 13.30312,8.10961c2.32406,0.95891 7.49681,-0.34397 10.37616,0.42394c10.39947,2.77352 19.76105,5.48754 28.94513,10.90682c0.93461,0.55149 0.14595,-2.16851 0.31765,-3.24003c0.30894,-1.92803 0.15217,-3.93854 0.68123,-5.81812c1.94289,-6.9024 7.57074,-12.88745 14.04775,-15.15251c3.15614,-1.10372 6.09102,-2.78528 9.25222,-3.87442c9.10746,-3.13783 21.28356,-0.65791 29.83526,1.29058c4.89697,1.11576 9.53611,4.80602 14.19443,5.55919c4.43224,0.71662 10.16406,-1.20272 15.09392,-0.83227c8.15842,0.61306 16.07398,3.62775 23.9374,4.61729c1.74114,0.21911 3.10621,-1.65239 4.7439,-2.28288c3.44342,-1.32567 7.88176,-0.53731 11.12338,-1.89949c0.54564,-0.22929 -0.04208,-1.26155 0.28947,-1.75182c2.51284,-3.71574 4.00102,-7.13416 7.52759,-9.31106c8.49447,-5.2435 16.42675,-5.37609 26.10297,-5.37609c9.86434,0 26.17253,9.96851 31.92382,17.04701c3.60619,4.43839 7.16705,9.12734 6.42557,15.47381c-0.46074,3.94355 -3.47746,7.2049 -4.41297,11.06349c-0.64693,2.66832 1.38087,3.88626 0.93751,5.97662c-0.79362,3.74179 -0.66065,8.29673 -3.40908,10.957c-2.2825,2.20929 -4.72771,4.24966 -7.21237,6.22886c-8.07399,6.43152 -20.71287,1.0938 -28.45374,-2.33289c-2.84055,-1.25745 -5.64689,-2.59426 -8.51608,-3.78492c-0.99727,-0.41385 -2.06989,-1.4239 -3.07297,-1.02432c-0.72804,0.29002 -0.09914,1.56705 -0.22939,2.33983c-0.34261,2.03272 -1.00744,8.0678 -2.1667,10.18505c-2.2484,4.10641 -6.85712,8.56886 -11.03388,10.68369c-3.83443,1.9415 -10.30745,1.98561 -14.55522,2.22244c-1.25127,0.06977 -3.05185,-0.76095 -3.98864,-0.27852c-5.56629,2.86655 -9.69807,5.2297 -16.15488,6.39551c-1.72889,0.31216 -4.6928,-0.96293 -6.04455,-0.0828c-1.1716,0.76283 -0.25252,2.80702 -0.67642,4.13926c-0.7638,2.4005 -5.08419,7.50056 -7.32647,8.64861c-2.36875,1.2128 -6.05593,2.46733 -8.68057,2.99287c-2.22694,0.44591 -4.97448,-0.33201 -6.72073,1.12012c-1.98467,1.65039 -4.42571,8.52755 -6.83701,11.54827c-8.3292,10.43431 -19.03373,17.66262 -33.1329,16.88304c-10.24193,-0.5663 -19.7997,-8.22039 -27.06312,-14.38473c-2.45808,-2.08613 -4.94955,-4.13501 -7.3435,-6.29443c-0.87569,-0.7899 -1.27001,-2.90887 -2.40638,-2.59353c-18.99911,5.27223 -45.71734,9.95764 -60.61055,-6.88934c-3.10808,-3.51582 -4.56591,-9.07093 -5.28688,-13.66711c-0.10947,-0.69787 0.58814,-3.24607 0.34831,-3.71727c-0.02882,-0.05661 -4.46764,0.51278 -6.5016,0.34211c-3.50204,-0.29386 -7.00236,-0.62251 -10.49072,-1.04907c-3.2211,-0.39388 -5.7034,-1.96145 -8.82121,-2.72545c-0.19074,-0.04674 -5.86639,2.59284 -6.17866,2.68738c-5.12427,1.5515 -10.41034,1.84734 -15.83936,1.30444c-3.37464,-0.33746 -7.39159,-1.7919 -10.18361,-3.637c-2.01799,-1.33359 -4.01862,-2.69333 -6.03776,-4.02517c-0.40401,-0.26649 -0.7606,-0.88236 -1.23125,-0.76953c-1.88643,0.45224 -3.61184,3.62079 -5.36689,4.72924c-1.39117,0.87863 -8.53466,2.75178 -9.53852,4.96541c-0.3209,0.70762 -0.18079,2.64033 -0.33926,3.13836c-1.51237,4.75316 -5.08734,9.6761 -8.91673,12.84991c-5.02599,4.16555 -12.4184,6.80643 -18.98812,6.69438c-3.14557,-0.05365 -6.49979,-0.65797 -9.58207,-1.26465c-0.93105,-0.18326 -1.90498,-1.10568 -2.76053,-0.69524c-2.50596,1.20218 -4.50931,4.17401 -6.90994,5.82468c-4.89702,3.36718 -12.06598,6.17704 -18.1373,5.79359c-12.86535,-0.81255 -22.28722,-12.34988 -31.45911,-19.97495c-1.17293,-0.97512 -3.0513,-0.1793 -4.55554,-0.43208c-4.00223,-0.67254 -15.1919,-3.45105 -18.29319,-6.09773c-1.19162,-1.01694 -5.36366,-5.13589 -6.22886,-7.21237c-0.60219,-1.44525 -1.40903,-5.36772 -2.37333,-6.29443c-0.5642,-0.5422 -1.56565,0.03196 -2.34749,0c-2.97727,-0.12172 -6.50301,-0.61742 -9.23983,-1.4961c-2.93526,-0.94239 -6.49801,-4.00147 -9.01702,-4.62348c-2.11978,-0.52343 -5.73172,-0.38313 -8.10055,-1.03983c-0.9018,-0.25001 -4.40904,-3.61565 -4.78137,-3.36648c-2.21523,1.48247 -3.81091,3.73922 -5.88146,5.41783c-6.23507,5.05482 -15.91158,7.90908 -23.77649,6.95887c-3.93301,-0.47517 -7.73507,-4.36425 -11.45143,-4.68511c-0.40366,-0.03485 -0.26177,0.82704 -0.59225,1.06143c-0.57245,0.40602 -5.71527,3.07301 -6.44028,3.41942c-5.0776,2.42607 -10.44234,3.72953 -16.06106,3.72953c-5.94296,0 -9.79835,-3.25918 -15.06404,-4.59977c-5.31751,-1.35379 -12.51078,-2.78672 -18.02941,-2.2759c-1.34177,0.1242 -2.26384,1.46322 -3.42006,2.15525c-2.27421,1.36119 -7.57489,2.96234 -9.429,3.51299c-2.41509,0.71725 -10.12635,0.56543 -10.95718,1.0767c-1.46245,0.89996 -2.59793,2.26889 -4.05575,3.17633c-3.692,2.29814 -8.37731,1.94126 -12.35018,3.09277c-0.72401,0.20985 -0.44321,1.44797 -0.77778,2.12347c-1.37478,2.77574 -3.48673,5.71875 -5.48235,8.19199c-6.58008,8.15495 -16.46854,11.59098 -26.58309,10.57952z" fill="url(#color-1)" stroke-width="0.5"/><path d="M45.9681,365.01836v-256.07294h41.8629v256.07295z" fill="#e5e5e5" stroke-width="0"/><path d="M-15.29468,117.11379v-38.79977h163.36742v38.79977z" fill="#e5e5e5" stroke-width="0"/><path d="M185.14749,365.57905v-357.36622h142.45654v357.36622z" fill="#e5e5e5" stroke-width="0"/><path d="M365.63557,366.10996v-204.20927h102.10463v204.20927z" fill="#e5e5e5" stroke-width="0"/><g stroke-width="0"><path d="M199.12506,64.37038v-45.94709h30.63139v45.94709z" fill="#f2f2f2"/><path d="M239.96691,64.37038v-45.94709h30.63139v45.94709z" fill="#dadada"/><path d="M280.80876,64.37038v-45.94709h30.6314v45.94709z" fill="#dadada"/></g><g stroke-width="0"><path d="M199.12506,120.52792v-45.94708h30.63139v45.94708z" fill="#dadada"/><path d="M239.96691,120.52792v-45.94708h30.63139v45.94709z" fill="#f2f2f2"/><path d="M280.80876,120.52792v-45.94708h30.6314v45.94709z" fill="#f2f2f2"/></g><g stroke-width="0"><path d="M199.12506,176.68547v-45.94708h30.63139v45.94708z" fill="#f2f2f2"/><path d="M239.96691,176.68547v-45.94709h30.63139v45.94709z" fill="#f2f2f2"/><path d="M280.80876,176.68547v-45.94709h30.6314v45.94709z" fill="#dadada"/></g><g stroke-width="0"><path d="M199.12506,232.84302v-45.94708h30.63139v45.94708z" fill="#dadada"/><path d="M239.96691,232.84302v-45.94708h30.63139v45.94708z" fill="#f2f2f2"/><path d="M280.80876,232.84302v-45.94708h30.6314v45.94708z" fill="#f2f2f2"/></g><g stroke-width="0"><path d="M199.12506,289.00057v-45.94708h30.63139v45.94708z" fill="#dadada"/><path d="M239.96691,289.00057v-45.94709h30.63139v45.94709z" fill="#f2f2f2"/><path d="M280.80876,289.00057v-45.94709h30.6314v45.94709z" fill="#f2f2f2"/></g><path d="M199.12506,345.15812v-45.94709h30.63139v45.94709z" fill="#f2f2f2" stroke-width="0"/><path d="M239.96691,368.69902v-69.48798h30.63139v69.48798z" fill="#f2f2f2" stroke-width="0"/><path d="M280.80876,345.15812v-45.94709h30.6314v45.94709z" fill="#f2f2f2" stroke-width="0"/><path d="M380.17951,311.15884v-137.84126h30.63139v137.84126z" fill="#dadada" stroke-width="0"/><path d="M421.02136,219.26467v-45.94709h30.63139v45.94709z" fill="#dadada" stroke-width="0"/><path d="M421.02136,367.31687v-137.84125h30.63139v137.84125z" fill="#f2f2f2" stroke-width="0"/><path d="M380.17951,367.31687v-45.94708h30.63139v45.94708z" fill="#f2f2f2" stroke-width="0"/><path d="M-131.66087,449.45686v-194.63604h743.32174v194.63604z" fill="url(#color-2)" stroke-width="0"/><path d="M-110.19124,360.15812v-196.44707h85.6314v196.44708z" fill="#f2f2f2" stroke-width="0"/><path d="M507.80876,364.15812v-116.44707h85.6314v116.44707z" fill="#f2f2f2" stroke-width="0"/><path d="M-13,-146c0,-6.90356 5.59644,-12.5 12.5,-12.5c6.90356,0 12.5,5.59644 12.5,12.5c0,6.90356 -5.59644,12.5 -12.5,12.5c-6.90356,0 -12.5,-5.59644 -12.5,-12.5z" fill="#f2f2f2" stroke-width="0.5"/><path d="M-32.25,-129c0,-4.83249 3.91751,-8.75 8.75,-8.75c4.83249,0 8.75,3.91751 8.75,8.75c0,4.83249 -3.91751,8.75 -8.75,8.75c-4.83249,0 -8.75,-3.91751 -8.75,-8.75z" fill="#f2f2f2" stroke-width="0.5"/></g></g></svg>