<svg xmlns="http://www.w3.org/2000/svg" xmlns:xlink="http://www.w3.org/1999/xlink" version="1.1" width="97.12956445455882" height="107.84296624899241" viewBox="-1.8412799787537875 -1.9842883002774538 97.12956445455882 107.84296624899241">
  <defs>
    <linearGradient id="grad_1" y2="1" x2="0">
      <stop offset="0" stop-color="#DBD3BC" stop-opacity="1"/>
      <stop offset="1" stop-color="#E7DEA6" stop-opacity="1"/>
    </linearGradient>
  <linearGradient id="grad_1-0.4454749822616577,0,0,0.4454749822616577,116.8,-29" y2="37.501" x2="79.0041" x1="79.0041" y1="3.7562" gradientUnits="userSpaceOnUse">
      <stop offset="0" stop-color="#DBD3BC" stop-opacity="1"/>
      <stop offset="1" stop-color="#E7DEA6" stop-opacity="1"/>
    </linearGradient></defs>
  <!-- Exported by Scratch - http://scratch.mit.edu/ -->
  <path id="rect8769-9" fill="#A54436" stroke="none" stroke-width="4.276559998992408" d="M 79.0264 60.0776 L 79.0264 80.7784 C 79.0264 93.4923 68.7983 103.7204 56.0844 103.7204 L 44.3765 103.7204 C 31.6626 103.7204 21.4345 93.4923 21.4345 80.7784 L 21.4345 60.0776 L 79.0264 60.0776 Z "/>
  <path id="rect9302" fill="#E25D4A" stroke="none" stroke-width="4.276559998992408" d="M 76.9937 34.2597 L 22.9001 34.2597 C 19.9916 34.2597 17.6502 36.6011 17.6502 39.51 L 17.6502 79.7618 C 17.6502 82.6703 19.9916 85.0122 22.9001 85.0122 L 76.9937 85.0122 C 79.9022 85.0122 82.2441 82.6703 82.2441 79.7618 L 82.2441 39.51 C 82.2441 36.6011 79.9022 34.2597 76.9937 34.2597 Z "/>
  <path id="ID0.4224610994569957" fill="#E3DAAC" stroke="none" d="M 83.15 59 C 85.909 59 88.409 60.121 90.219 61.931 C 92.029 63.741 93.15 66.241 93.15 69 C 93.15 71.759 92.029 74.259 90.219 76.069 C 88.409 77.879 85.909 79 83.15 79 C 80.391 79 77.891 77.879 76.081 76.069 C 74.271 74.259 73.15 71.759 73.15 69 C 73.15 66.241 74.271 63.741 76.081 61.931 C 77.891 60.121 80.391 59 83.15 59 Z " stroke-width="1"/>
  <path id="rect8769" fill="url(#grad_1-0.4454749822616577,0,0,0.4454749822616577,116.8,-29)" stroke="none" stroke-width="4.276559998992408" d="M 56.0483 3.7562 C 68.7627 3.7562 79.0041 13.9839 79.0041 26.6982 L 79.0041 37.501 L 21.3989 37.501 L 21.3989 26.6982 C 21.3989 13.9839 31.6403 3.7562 44.3546 3.7562 L 56.0483 3.7562 Z "/>
  <path id="path9304" fill="#8b735c" stroke="none" stroke-width="4.276559998992408" d="M 16.4505 14.7782 C 19.6771 11.5547 63.0232 19.028 66.4003 27.6029 C 65.9588 26.0077 72.3006 14.036 73.6214 27.3401 C 74.2718 33.8881 80.7838 32.0385 79.883 29.1617 C 81.2409 4.0427 63.5938 -1.0701 47.0502 0.3782 C 30.0086 -0.1248 11.2349 19.9884 16.4505 14.7782 Z "/>
  <g id="ID0.25995567301288247">
    <path id="path9281" fill="#030302" stroke="none" stroke-width="4.276559998992408" d="M 53.7926 27.2067 C 53.7909 29.185 55.3941 30.7901 57.3725 30.7901 C 59.3508 30.7901 60.9541 29.185 60.9523 27.2067 C 60.9541 25.2283 59.3508 23.6233 57.3725 23.6233 C 55.3941 23.6233 53.7909 25.2283 53.7926 27.2067 Z "/>
    <path id="path9281-8" fill="#030302" stroke="none" stroke-width="4.276559998992408" d="M 37.5926 27.4067 C 37.5909 29.385 39.1941 30.9901 41.1725 30.9901 C 43.1508 30.9901 44.7541 29.385 44.7523 27.4067 C 44.7541 25.4283 43.1508 23.8233 41.1725 23.8233 C 39.1941 23.8233 37.5909 25.4283 37.5926 27.4067 Z "/>
  </g>
  <path id="ID0.4224610994569957" fill="#E3DAAC" stroke="none" d="M 11.127 43.254 C 14.115 43.254 16.8225 44.4681 18.7827 46.4283 C 20.743 48.3885 21.957 51.096 21.957 54.084 C 21.957 57.072 20.743 59.7795 18.7827 61.7397 C 16.8225 63.7 14.115 64.914 11.127 64.914 C 8.139 64.914 5.4315 63.7 3.4713 61.7397 C 1.511 59.7795 0.297 57.072 0.297 54.084 C 0.297 51.096 1.511 48.3885 3.4713 46.4283 C 5.4315 44.4681 8.139 43.254 11.127 43.254 Z " stroke-width="1.0830000638961792"/>
</svg>