<svg version="1.1" xmlns="http://www.w3.org/2000/svg" xmlns:xlink="http://www.w3.org/1999/xlink" width="188.21645" height="197.3271" viewBox="0,0,188.21645,197.3271"><g transform="translate(-181.91161,-67.48372)"><g data-paper-data="{&quot;isPaintingLayer&quot;:true}" fill="#9966ff" fill-rule="nonzero" stroke="none" stroke-width="0.5" stroke-linecap="butt" stroke-linejoin="miter" stroke-miterlimit="10" stroke-dasharray="" stroke-dashoffset="0" style="mix-blend-mode: normal"><path d="M323.27842,251.3341c-1.82623,0.18055 -3.68436,0.19056 -5.46486,0.17967c-1.79426,0.61371 -5.59128,1.90628 -5.91309,1.95395c-1.36978,0.2029 -2.77776,-0.13197 -4.15411,0.02011c-4.5758,0.50561 -8.86313,1.57849 -13.55181,0.99344c-2.72758,-0.34035 -5.27816,-1.61642 -8,-2c-4.92248,-0.69371 -9.4293,-1.83874 -14.30088,-3.05591c-4.55142,-1.13718 -9.56655,-1.55061 -13.99759,-3.01734c-1.39898,-0.46308 -2.52728,-1.61407 -3.95685,-1.97172c-1.21099,-0.30297 -2.50575,0.19775 -3.74468,0.04497c-1.36404,-0.16821 -2.63628,-0.82925 -4,-1c-1.35443,-0.16959 -2.74435,0.18392 -4.09499,-0.01355c-0.7603,-0.11116 -1.50574,-0.29011 -2.24405,-0.50221c0.50575,0.40308 1.00814,0.81201 1.5155,1.21418c2.96302,1.18887 5.95476,2.335 8.96334,3.46364c1.24467,0.41477 2.48818,0.83418 3.7316,1.25427c5.6768,1.4618 11.27112,3.3543 16.99321,4.66574c7.45974,1.70969 15.20441,2.27416 22.74368,3.61948c2.12509,0.37921 4.23248,0.81635 6.32948,1.20182c2.77138,0.086 5.55621,0.11537 8.3677,0.11537c2.20838,0 4.53062,0.14677 6.84082,0.20659c0.58188,-0.14283 1.16431,-0.31034 1.74748,-0.50487c3.37561,-2.54458 4.03427,-3.77949 6.19011,-6.86762zM353.94762,181.49093c0.02424,0.0629 0.04801,0.12609 0.07132,0.18958c0.00441,-0.02701 0.00886,-0.05399 0.01334,-0.08096c0.61295,-3.68911 1.48553,-7.56549 1.34968,-11.36347c-0.00995,-0.27799 -0.22669,0.50905 -0.36448,0.75069c-0.41908,0.73499 -0.94915,1.40947 -1.30493,2.17711c-0.4768,1.02875 -0.93653,2.06923 -1.41233,3.10143c0.31048,0.32213 0.5353,0.72738 0.63781,1.1791l0.98732,3.94927l-0.01432,0.00358c0.01233,0.03116 0.02452,0.06239 0.03658,0.09368zM331.65355,249.43496c-1.26697,1.21909 -2.66849,2.49385 -3.5687,3.76095c-1.37881,1.94076 -2.37449,3.37605 -3.43254,4.6505c6.22172,-1.66473 12.15994,-5.63926 16.50812,-10.03541c5.33407,-6.87766 8.85871,-14.21034 11.85052,-22.31723c1.15175,-3.1209 1.59451,-6.47252 2.73124,-9.59892c0.57291,-1.57569 1.67658,-2.92018 2.27168,-4.48763c0.31302,-0.82448 1.69292,-6.96207 2.11069,-8.18647c0.51005,-1.49484 1.40249,-2.85639 1.78814,-4.38806c0.25505,-1.01296 -0.03469,-2.0968 0.10529,-3.13195c0.44698,-3.30545 1.18874,-6.56754 1.60676,-9.87678c0.47095,-3.72823 -0.10667,-7.53792 0.40755,-11.22443c0.14562,-1.04398 0.78744,-1.96756 1,-3c0.4404,-2.13905 -0.25445,-2.66945 -1.17029,-4.71091c-2.07374,-0.58595 -4.02214,-0.77142 -5.98171,-0.92535c0.93117,0.80504 1.51133,2.40241 2.08744,4.63627c1.00326,3.89016 -0.38001,8.09292 -1,11.80091c-0.68244,4.08149 -0.60938,8.6201 -1.64026,12.68527c-0.54954,2.16706 -1.36689,4.18899 -2.32752,6.13467c-0.00067,2.4021 -0.00275,4.91742 -0.00846,4.9858c-0.57355,6.86812 -3.06341,13.40306 -5.21917,19.87746c-0.75891,2.27924 -1.04396,4.71789 -1.98603,6.92772c-0.48372,1.13467 -1.48931,1.98353 -2.0405,3.087c-2.16468,4.33363 -3.94031,10.308 -9.14741,12.14741c-1.51689,0.53584 -3.56852,1.7184 -4.94484,1.18917zM313.90046,264.46772c-4.64196,0.87413 -9.92289,-0.07707 -14.89432,-1.11973c-6.33479,-0.22841 -12.61055,-0.76013 -18.9644,-1.89034c-9.3795,-1.66841 -18.37606,-4.71834 -27.3732,-7.75553c-0.60279,-0.15436 -1.20652,-0.30379 -1.81146,-0.44711c-1.68817,-0.39996 -3.47949,-0.3436 -5.13019,-0.87754c-2.53643,-0.82045 -4.55893,-2.17749 -6.56668,-3.70225c-14.19089,-5.72415 -27.71074,-12.4385 -39.40261,-22.67071c-3.96488,-3.46989 -8.13201,-7.15167 -11.27472,-11.45186c-0.07171,0.07171 -0.14342,0.14342 -0.21513,0.21513l-1,1c0,0 -1.76776,1.76776 -3.53553,0c-1.76776,-1.76776 0,-3.53553 0,-3.53553c0.35428,-0.35428 1.70855,-1.70855 2.06283,-2.06283c-0.71744,-1.44734 -1.30254,-2.96451 -1.72042,-4.56307c0,0 -0.60634,-2.42535 1.81902,-3.03169c2.42535,-0.60634 3.03169,1.81902 3.03169,1.81902c0.16375,0.69512 0.37312,1.37487 0.62267,2.03999c2.05819,-1.9721 4.05757,-3.57127 6.36701,-5.36701c0.9324,-0.725 1.51799,-1.97353 2.62826,-2.37634c3.81754,-1.38503 9.02979,0.93821 11.72447,3.54193c0.8643,0.83513 1.15028,2.15005 2,3c0.83365,0.83388 2.11712,1.11726 2.95028,1.95163c4.08031,4.08623 7.04225,9.19919 11.37677,12.97386c9.00835,2.05769 17.88891,4.74358 26.06407,9.15622c2.1461,1.15838 4.31052,2.35667 6.43551,3.61165c3.16985,0.68708 6.36762,1.29335 9.58285,1.5807c6.4966,0.58061 13.29147,-0.00629 19.82277,-0.00629c4.69878,0 9.99399,0.63484 14.64883,0.02479c1.33189,-0.17455 2.55298,-0.85279 3.86507,-1.14061c1.50471,-0.33007 3.11548,-0.19236 4.56676,-0.709c1.07175,-0.38154 1.80227,-1.41452 2.82097,-1.92096c1.81542,-0.90252 4.04222,-0.84336 5.78405,-1.88083c3.57663,-2.13031 7.24262,-7.24647 9.00463,-10.83008c0.66759,-2.01692 1.27643,-3.98522 1.81741,-5.94993c0.05717,-3.83744 0.45333,-7.6487 2.22151,-11.14342c0.80764,-8.6365 -1.65839,-17.80891 -0.19693,-26.3504c0.94218,-5.50653 3.81497,-8.10612 7.82971,-11.48818c1.28116,-1.07926 2.10342,-2.8585 3.6813,-3.42106c3.8565,-1.37499 8.23955,0.58292 12.07927,0.8127c3.60492,0.21572 7.12272,1.37086 10.51545,2.60836c0.93171,1.77142 2.21186,3.39963 2.79511,5.31426c0.68397,2.24525 -0.62487,4.65256 -0.9654,6.97483c-0.52688,3.59314 0.07687,7.39059 -0.38216,11.04809c-0.41427,3.30089 -1.15264,6.55462 -1.60354,9.85071c-0.1621,1.18491 0.10753,2.42261 -0.1808,3.58328c-0.42286,1.70219 -1.36325,3.23544 -1.92577,4.89672c-1.22361,3.61365 -0.65966,4.34406 -2.18452,8.39574c-0.58355,1.55054 -1.68268,2.87504 -2.25077,4.43132c-2.07628,5.68793 -3.24296,11.72941 -5.63819,17.36887c-2.48065,5.84056 -6.0229,11.16028 -9.89132,16.14277c-6.16442,6.11019 -14.36129,11.26273 -23.16429,12.3699c-1.70839,0.21486 -3.48676,0.2594 -5.28075,0.23564c-0.83997,0.30617 -1.68856,0.57917 -2.56513,0.74424zM229,238c0,-1.01666 0.60686,-1.89158 1.4781,-2.28229c-0.9976,-0.50086 -1.87995,-1.22383 -2.82973,-1.8161c-0.95296,-0.43302 -1.90963,-0.85557 -2.86923,-1.26984c-4.15631,-1.42535 -8.9244,-2.05844 -12.59347,-4.50515c-0.09235,-0.06159 -0.51324,-0.4612 -1.09992,-1.03327c-1.41467,-0.56112 -2.82761,-1.1265 -4.23636,-1.70291c6.92883,5.43627 14.44807,9.75814 22.3102,13.49039c-0.10315,-0.27396 -0.15959,-0.5708 -0.15959,-0.88083zM198.5,215.5v0.03098c0.05889,-0.009 0.11796,-0.01724 0.17722,-0.02469c1.16244,-0.1461 8.76388,1.46209 10.01139,1.62337c3.17961,0.41108 6.38354,0.6848 9.5348,1.27068c-2.08563,-2.56895 -4.08252,-5.22885 -6.44145,-7.58421c-0.86658,-0.86526 -2.18369,-1.18257 -3.04972,-2.04837c-1.54367,-1.54325 -4.8244,-7.13594 -8.27553,-5.45807c-0.63719,0.3098 -0.82625,1.17151 -1.37174,1.62366c-2.42365,2.00893 -4.57077,3.58798 -6.81721,5.83441c-0.08891,0.08891 -0.17782,0.17783 -0.26673,0.26674c1.08368,1.57177 2.35328,3.05563 3.7104,4.4655zM273.31134,241.63532c2.75371,0.9084 5.68203,1.17046 8.49274,1.88325c2.68788,0.00011 5.33003,0.70247 8.00138,1.00017c1.68789,0.1881 3.40982,-0.19745 5.095,0.01355c1.04593,0.13096 1.95403,0.86937 3,1c1.60286,0.20019 3.23836,-0.17849 4.84589,-0.02011c4.44533,0.43796 8.24455,0.98784 12.75365,0.98783c0.44193,0 0.92698,0.01218 1.44338,0.02827c0.01562,-0.00537 0.03123,-0.01071 0.04686,-0.01602c3.06106,-1.21488 4.53831,-1.45064 6.92479,-3.4456c1.93255,-1.6155 3.38395,-3.6186 4.46702,-5.82993c-0.81947,-0.41038 -1.38205,-1.25785 -1.38205,-2.23672c0,-0.29691 0.05176,-0.58173 0.14675,-0.84593l0.98154,-2.94464l0.0486,0.0162l-0.00022,-0.14872c0.87002,-1.88082 1.82622,-3.69566 2.79935,-5.49689c0.0002,-0.20723 0.00043,-0.41447 0.00071,-0.62171c-0.00269,-0.07472 -0.00479,-0.1494 -0.00614,-0.22402c-2.25513,3.30364 -5.13476,6.57053 -8.15626,8.39234c-2.52425,1.52199 -3.76968,0.88873 -6.21595,2.11917c-1.13115,0.56895 -1.98604,1.65483 -3.17903,2.07904c-1.68939,0.60073 -3.5478,0.54182 -5.29719,0.93498c-1.44416,0.32457 -2.80294,1.02619 -4.27099,1.21541c-5.89933,0.76036 -12.39296,0.02479 -18.35117,0.02479c-5.3825,0 -10.97079,0.4458 -16.35207,0.05974c1.34285,0.8537 2.7281,1.60208 4.16341,2.07557zM339.73224,187.23224c0.71322,-0.75252 1.84816,-0.87999 2.87464,-1.16822c0.92869,-2.36196 1.82463,-4.73517 2.6365,-7.13997c2.01585,-3.17202 3.45471,-9.91105 6.73913,-11.91081c1.0288,-0.6264 1.90886,-1.06631 2.66861,-1.33249c-0.51094,-0.05809 -1.02739,-0.12709 -1.55158,-0.21303c-2.17588,-0.35674 -4.22666,-2.1392 -6.64283,-1.15802c-1.07107,0.43495 -1.44939,1.81692 -2.3187,2.57894c-1.15386,1.01145 -2.70619,1.56024 -3.71863,2.71323c-2.98751,3.4023 -2.41938,8.32086 -2.41938,12.39813c0,3.16279 0.0383,6.33235 0.03887,9.49613c0.54239,-1.74245 1.16931,-3.71096 1.69337,-4.26389zM255.06078,239.56371c1.58755,0.39309 2.87973,1.58948 4.43153,2.10595c1.91985,0.63897 3.95979,1.06623 6.02337,1.44199c-1.50016,-1.00238 -2.95735,-2.06671 -4.40243,-3.03152c-1.26734,-0.84615 -2.57073,-1.66182 -3.89345,-2.45322c-1.39512,-0.30815 -2.78535,-0.6285 -4.17044,-0.94395c-9.19329,-3.35582 -18.74838,-5.13483 -27.01113,-10.65484c-0.70685,-0.47222 -1.37715,-0.97734 -2.01791,-1.50917c-3.47662,-0.75308 -6.98989,-1.30462 -10.509,-1.81181c3.864,1.54945 7.73728,3.07528 11.5728,4.69879c1.14793,0.39838 2.27948,0.8158 3.3726,1.28439c0.55662,0.23861 1.07477,0.55223 1.58165,0.88796c1.53714,0.70121 3.06474,1.42708 4.57967,2.18567c1.94672,0.97479 5.22319,1.89787 7.82391,3.08739c0.98597,0.29419 1.965,0.56386 2.92542,0.80397l0.20666,0.19666l0.044,-0.08801l3.95156,1.97578c0.71111,0.3371 1.23777,0.99989 1.38733,1.79572c1.3611,0.12852 2.77624,-0.30045 4.10386,0.02828zM347.48962,214.46999c0.23949,0.01195 0.50033,0.05965 0.78389,0.15266c0.3001,-1.04167 0.57709,-2.08874 0.82015,-3.14208c-0.13711,0.24288 -0.27285,0.48656 -0.40697,0.73119c-0.40986,0.74756 -0.8083,1.50059 -1.19708,2.25823zM350.32752,196.92398c-0.3891,1.70092 -0.84078,3.38612 -1.34848,5.05579c0.46585,-0.80732 0.91436,-1.62359 1.33295,-2.45498c0.0153,-0.86328 0.02044,-1.73174 0.01553,-2.60081z"/><path d="M196.73223,126.23223c0.0109,-0.0109 0.02179,-0.02166 0.03269,-0.03229c-2.26463,-2.83151 -0.50195,-9.24172 0.74831,-12.71743c0.04139,-0.02904 0.08284,-0.05803 0.12434,-0.08697c-1.31602,-0.34715 -2.43601,-0.94477 -3.16569,-1.93377c-2.54455,-3.44889 1.07497,-9.48961 3.09475,-12.04675c1.0897,-1.37961 2.35202,-2.74479 3.74572,-4.01882c-0.23619,0.06611 -0.50544,0.10379 -0.81237,0.10379c-2.5,0 -2.5,-2.5 -2.5,-2.5v-1c0.00304,-0.32063 0.00609,-0.64126 0.00913,-0.96189c-0.69816,0.46189 -1.50913,0.46189 -1.50913,0.46189c-4.62368,-0.43063 -5.17732,6.03975 -6.71481,9.51385c-0.57406,1.29715 -1.4623,2.45503 -1.92051,3.79749c-1.15946,3.39694 -0.86188,5.55214 -0.86432,9.09637c-0.00343,4.97939 -1.06649,11.16487 2.37383,15.43779c2.59207,3.21938 10.28348,3.43768 13.80069,3.13614c3.28817,-0.2819 6.25562,-1.99992 9.05735,-3.75333c-1.79191,0.59706 -5.20194,1.72015 -5.33178,1.73941c-2.19975,0.32624 -4.50856,0.17615 -6.60989,0.90399l-3.55834,-1.60394c0,0 -1.76777,-1.76777 0,-3.53553zM208.07765,90.66309c0.45801,-1.69705 0.90284,-3.39816 1.33407,-5.10211c-2.21522,-0.51785 -4.3447,-0.614 -5.78509,1.75335c-0.37905,0.62298 -0.43927,1.39075 -0.6589,2.08612c0.01076,0.86652 0.02152,1.73303 0.03228,2.59955v1c0,0 0,0.57664 -0.27694,1.17604c1.65586,-1.35363 3.46017,-2.56077 5.35459,-3.51294zM213.04855,69.50971c0,0 0.49029,-2.45145 2.94174,-1.96116c2.45145,0.49029 1.96116,2.94174 1.96116,2.94174c-0.73286,3.66178 -1.52599,7.33641 -2.38287,11.00658c0.51228,-0.04664 1.02047,-0.07245 1.5058,0.07001c4.6663,1.36967 11.64398,5.95528 14.45373,9.97135c1.64639,2.35324 2.38039,4.04513 2.5964,6.04041c1.07852,0.27736 1.87549,1.25629 1.87549,2.42137c0,0.29691 -0.05176,0.58173 -0.14675,0.84593l-0.98155,2.94464l-0.03164,-0.01055c-0.02884,0.10664 -0.06019,0.21278 -0.09428,0.31836c-0.42268,1.30906 -1.03404,2.28384 -1.78831,3.05945c0.05396,0.75159 0.12743,1.5044 0.01024,2.24263c-0.38841,2.44688 -2.11384,4.48202 -3.22193,6.69793c-0.48168,0.96325 -0.49247,2.12942 -1.03134,3.06188c-2.67905,4.63582 -7.11201,8.34406 -10.9512,11.98077c-4.38143,2.68813 -8.78305,5.81412 -14.0785,6.31455c-5.30486,0.50132 -14.24407,-0.3208 -18.05895,-4.80107c-3.38594,-3.97653 -3.61173,-8.90525 -3.62574,-13.75172c-0.01515,-5.23981 -0.53603,-10.63863 1.13525,-15.71412c0.48883,-1.48453 1.44975,-2.77204 2.07949,-4.20251c1.70358,-3.8697 2.88842,-10.37643 7.32849,-12.29586c1.21203,-0.52396 2.6378,-0.12686 3.95671,-0.1903c0,0 1.20738,0 1.94401,0.83907c0.93357,-2.95869 1.38522,-4.73582 5.09928,-6.64877c1.95739,-1.00816 4.63288,-0.51321 7.04506,0.07163c0.88908,-3.74697 1.7107,-7.50204 2.4602,-11.25222zM213.79876,88.7097c0.43225,-0.07609 0.86603,-0.13559 1.30078,-0.17742c1.84391,-0.17744 3.7017,0.03571 5.55518,0.12743c-1.67379,-1.03125 -3.35232,-1.84697 -4.7291,-2.2266c-0.49982,-0.13782 -1.02394,-0.06682 -1.54916,-0.00077c-0.18975,0.7597 -0.3823,1.51887 -0.5777,2.27735zM225.8097,93.04329c0.14145,0.32098 0.18054,3.30753 0.18983,5.8222c0.98565,-0.16292 1.99478,-0.27118 3.03454,-0.31343c-0.04106,-1.26795 -0.44106,-2.56705 -1.56218,-4.09029c-0.56224,-0.76391 -1.34759,-1.59146 -2.26578,-2.41768c0.23855,0.3075 0.4442,0.63752 0.60358,0.9992zM227.04171,110.52126c-0.80161,0.36516 -1.58834,0.6856 -2.36491,0.96679c-1.07946,3.63745 -2.78878,7.01126 -5.01452,10.76676c-0.11398,0.19231 -0.21926,0.39091 -0.31882,0.5936c1.90748,-1.84831 3.70606,-3.81664 4.9421,-6.00868c0.50651,-0.89826 0.50753,-2.01574 0.96866,-2.93812c0.87447,-1.74918 1.7854,-2.3975 2.33627,-3.62713c-0.18148,0.08075 -0.36447,0.16282 -0.54878,0.24678zM206.09954,125.53228c1.95652,-0.26758 3.71555,-1.34629 5.60989,-1.90399c0.70788,-0.2084 1.64877,0.02225 2.15257,-0.51693c0.83644,-0.89519 0.88864,-2.29086 1.47573,-3.36618c1.33566,-2.44641 2.50571,-4.60196 3.43014,-6.76744c-2.6633,0.40408 -5.35223,0.49651 -8.27346,0.5168c-0.53935,1.44662 -1.09008,2.89588 -1.64969,4.37283c-0.53363,1.40839 -0.4761,3.02725 -1.16922,4.36438c-0.53644,1.03487 -1.5723,1.72313 -2.40774,2.53602c-0.29152,0.28365 -0.55921,0.61827 -0.82926,0.95126c0.55596,-0.05336 1.11063,-0.11147 1.66104,-0.18675zM221.08373,100.13435c0.20034,-2.5829 0.54638,-4.73784 -1.54044,-6.82466c-2.18143,0.09463 -4.24544,0.44062 -6.19149,1.0291c1.5012,1.21171 1.905,2.84947 1.79709,4.55868c0.28018,-0.17038 2.15113,-1.2044 3.43124,0.71577c0.30801,0.46201 0.44499,0.88981 0.47172,1.27582c0.67313,-0.26764 1.34947,-0.52073 2.03188,-0.75471zM205.96708,98.1398c-1.63199,1.2509 -3.14341,2.73565 -4.53372,4.44518c-1.13782,1.39906 -1.86386,3.11552 -2.46564,4.81548c-0.13568,0.38328 -0.69819,0.824 -0.43961,1.13777c0.29093,0.35302 0.91491,-0.00301 1.37235,-0.00594c0.09911,-0.00063 0.19821,-0.0013 0.29732,-0.00198c1.44759,-3.10154 3.29423,-6.03126 5.2221,-8.91705c0.05738,-0.08589 0.12543,-0.19171 0.20322,-0.31411c0.11532,-0.38613 0.22998,-0.77258 0.34398,-1.15934zM225.94597,104.00465c-0.02908,0.5455 -0.0698,1.07979 -0.1219,1.60425c0.8453,-0.36203 1.63093,-0.71632 2.20823,-1.0095c0.04758,-0.33304 0.10284,-0.65504 0.16251,-0.96774c-0.76657,0.09065 -1.51475,0.21676 -2.24884,0.37299zM220.45307,107.70974c0.14096,-0.68204 0.2563,-1.38454 0.34411,-2.11468c-2.29331,0.89925 -4.54567,1.98809 -6.91373,3.07165c2.24361,-0.0622 4.45782,-0.30451 6.56962,-0.95697z"/><path d="M295.5,107.5h2c0.1693,0 0.3386,0 0.5079,0c-0.01189,-2.52831 -0.0079,-6.75393 -0.0079,-7.5c0,-1.44883 -0.11456,-3.13038 -0.21591,-4.86698c-2.33843,4.11499 -3.57283,8.42009 -3.95925,12.94971c0.72829,-0.58273 1.67516,-0.58273 1.67516,-0.58273zM304.77554,78.60727c1.03724,-0.39043 2.2314,0.11074 3.324,-0.07499c2.13049,-0.36216 4.2394,-1.03228 6.40046,-1.03228c1.13401,0 2.53202,-0.08542 3.92643,-0.00272c-0.25413,-0.35695 -0.42643,-0.84096 -0.42643,-1.49728c0,-2.5 2.5,-2.5 2.5,-2.5h1c2.40267,0.02281 4.81693,0.50034 7.09838,1.25421c6.01807,3.99139 11.34143,9.45665 13.33474,16.67141c0.90951,3.29195 -0.33815,8.98635 -0.9855,12.08346c-0.56176,2.68761 -1.97489,5.133 -3.20183,7.58931c-0.6638,1.32891 -1.27882,2.68583 -1.90546,4.04168c0.56043,-0.5164 1.64637,-1.15355 3.04642,-0.22019c2.08013,1.38675 0.69338,3.46688 0.69338,3.46688c-2.02459,3.01619 -4.80909,6.91855 -7.36209,9.42938c-2.84284,2.7959 -6.54742,3.91333 -10.18678,5.01845c-2.74387,2.44124 -5.25471,4.53612 -8.95687,5.59853c-3.89868,1.1188 -9.14742,-1.26898 -12.80613,-2.25762c-9.58897,-9.1039 -13.65511,-21.73785 -10.74321,-34.97896c0.90703,-4.12448 2.47171,-6.267 4.63768,-9.75598c1.20804,-1.94594 2.55145,-3.7958 4.02406,-5.47228c0.99237,-3.56449 3.07223,-6.03734 6.58875,-7.361zM323.13801,79.11137c0.78049,0.73551 1.44051,1.92302 2.0037,3.22818c1.37041,-0.55368 2.81095,-0.89728 4.24746,-0.84441c-0.95715,-0.80899 -1.95965,-1.55918 -2.98755,-2.24934c-1.29915,-0.43909 -2.67937,-0.67712 -4.05576,-0.7337c0.28298,0.17127 0.54847,0.36965 0.79215,0.59928zM336.22496,91.67214c0.17261,-0.04414 0.3421,-0.08178 0.50743,-0.1119c-0.13896,-0.38491 -0.28967,-0.76409 -0.45147,-1.13751c-0.00946,0.41679 -0.02848,0.83425 -0.05596,1.2494zM330.37074,111.54048c0.13432,2.31657 -1.35045,3.0052 -2.65819,5.6234c-1.02924,2.06063 -2.00722,4.21912 -3.10081,6.31568c1.40817,-1.50432 2.70709,-3.09439 3.76163,-4.79388c1.84359,-2.97111 3.10153,-6.14273 4.60084,-9.2171c-0.82805,0.72304 -1.69973,1.41387 -2.60347,2.07191zM301.87648,120.85945c-2.10545,-1.96937 -2.35034,-5.46358 -2.82765,-8.35944c-0.51628,0 -1.03255,0 -1.54883,0h-2c0,0 -1.06784,0 -1.80773,-0.6979c0.01695,1.49117 0.11388,3.00636 0.28236,4.54668c0.33398,3.05348 2.43506,6.81726 3.77116,9.55283c0.82127,1.68148 2.10984,3.00398 3.41283,4.30903c-0.65058,-3.04876 -0.21112,-6.69364 0.71786,-9.3512zM331.01873,88.30546c-0.00597,-0.77853 0.44391,-1.73915 -0.05726,-2.33494c-0.33354,-0.39651 -0.94661,0.47131 -1.46147,0.52948c-0.75455,0.08525 -1.5569,-0.35259 -2.27554,-0.10727c-0.18969,0.06476 -0.36798,0.1516 -0.53843,0.25357c0.06387,0.19544 0.12572,0.38368 0.18568,0.56312c0.4739,1.4185 0.95134,2.96946 1.34075,4.58128c1.03726,0.39847 1.95302,1.11562 2.68641,2.27653c0.23559,-1.88726 0.13502,-3.78311 0.11986,-5.76177zM308.96464,125.41899c-0.22481,1.10887 0.2305,2.2574 0.19975,3.38842c-0.01573,0.57832 -0.28316,1.18602 -0.42836,1.7694c0.43671,0.02419 0.81394,0.04429 1.15499,0.04877c0.05424,-0.04132 0.11025,-0.0713 0.1681,-0.08639c0.48804,-0.12722 0.99156,-0.14221 1.50018,-0.12194c0.68275,-0.2207 1.40439,-0.65067 2.47894,-1.44535c3.11844,-2.30624 5.01038,-5.47049 6.655,-8.77861c-2.02263,1.08418 -4.50893,0.99039 -6.79277,1.27444c-1.26472,0.1573 -2.59741,1.25956 -3.77397,1.04557c-0.46217,0.94637 -0.95425,1.88172 -1.16185,2.9057zM320.7924,84.85519c-0.20724,-0.54896 -0.41291,-1.04944 -0.5978,-1.42152c-0.77357,0.17525 -1.48517,-0.06196 -1.48517,-0.06196c-2.2446,-0.77747 -4.36055,-0.94339 -6.34159,-0.64186c-0.53134,0.10144 -1.06077,0.22535 -1.59042,0.34803c-2.99754,0.85786 -5.65747,2.77361 -7.95542,5.18762c-0.49187,3.60931 0.178,8.16813 0.178,11.73449c0,1.83752 -0.16206,3.68446 -0.18302,5.52268c0.19036,-0.25137 0.36943,-0.50814 0.52075,-0.7775c1.70961,-3.04318 3.5716,-5.8685 5.6301,-8.49792c-1.01828,-1.54753 -1.92278,-3.18604 -3.23559,-4.4795c0,0 -1.76776,-1.76776 0,-3.53553c1.76776,-1.76776 3.53553,0 3.53553,0c1.199,1.21341 2.09436,2.68126 3.03305,4.11592c2.53677,-2.71765 5.34681,-5.20512 8.49158,-7.49297zM322.47715,89.83716c-1.27933,0.9873 -2.48798,2.01207 -3.63583,3.07695c0.29469,-0.09969 0.5947,-0.19837 0.90025,-0.29629c1.10643,-0.35459 2.22835,-0.68881 3.3258,-0.92054c-0.19934,-0.6655 -0.40217,-1.29196 -0.59021,-1.86012zM335.56321,97.21549c-0.02634,0.03297 -0.05289,0.06098 -0.07943,0.08281c-0.0261,0.02147 -0.05245,0.04259 -0.07901,0.06337c0.00978,0.01746 0.01931,0.03525 0.02858,0.05336c0.00766,0.01497 0.01522,0.02996 0.02269,0.04498c0.03608,-0.08106 0.0718,-0.16257 0.10717,-0.24452zM317.41751,110.92965c-1.3107,0.80366 -2.50157,1.77835 -3.47071,2.97925c1.06309,-0.26019 2.08006,-0.61326 3.18198,-1.08552c0.60926,-0.52289 1.20399,-1.06043 1.79279,-1.58508c0.07243,-0.06454 0.14479,-0.12905 0.21708,-0.19355c0.01562,-0.25299 0.02968,-0.51275 0.04032,-0.77642c-0.59638,0.23788 -1.18114,0.45862 -1.76146,0.66132zM313.79183,101.04223c-0.0523,-0.03844 -0.10456,-0.07686 -0.15677,-0.11529c-1.36529,0.99162 -2.60021,2.21144 -3.74233,3.79752c0.00399,0.08477 0.00737,0.16998 0.01016,0.25559c0.55738,-0.62279 1.24814,-1.1433 1.82935,-1.74782c0.71458,-0.69501 1.3552,-1.48229 2.0596,-2.19001zM319.91974,97.83647c1.36757,-0.40705 2.82868,-0.73604 4.26645,-0.9728c-0.02392,-0.2254 -0.05218,-0.45145 -0.08427,-0.67759c-0.95403,0.32047 -1.93611,0.89812 -2.84348,1.19609c-0.45738,0.1502 -0.90342,0.30096 -1.3387,0.45429z"/></g></g></svg>