<svg xmlns="http://www.w3.org/2000/svg" xmlns:xlink="http://www.w3.org/1999/xlink" version="1.1" width="98.27655999899241" height="107.84296624899241" viewBox="-1.9882799935357394 -1.9842883002774538 98.27655999899241 107.84296624899241">
  <defs>
    <linearGradient id="grad_1" y2="1" x2="0">
      <stop offset="0" stop-color="#DBD3BC" stop-opacity="1"/>
      <stop offset="1" stop-color="#E7DEA6" stop-opacity="1"/>
    </linearGradient>
  <linearGradient id="grad_1-0.4454749822616577,0,0,0.4454749822616577,117.8,-29" y2="37.501" x2="80.0041" x1="80.0041" y1="3.7562" gradientUnits="userSpaceOnUse">
      <stop offset="0" stop-color="#DBD3BC" stop-opacity="1"/>
      <stop offset="1" stop-color="#E7DEA6" stop-opacity="1"/>
    </linearGradient></defs>
  <!-- Exported by Scratch - http://scratch.mit.edu/ -->
  <path id="rect8769-9" fill="#A54436" stroke="none" stroke-width="4.276559998992408" d="M 80.0264 60.0776 L 80.0264 80.7784 C 80.0264 93.4923 69.7983 103.7204 57.0844 103.7204 L 45.3765 103.7204 C 32.6626 103.7204 22.4345 93.4923 22.4345 80.7784 L 22.4345 60.0776 L 80.0264 60.0776 Z "/>
  <path id="rect9302" fill="#E25D4A" stroke="none" stroke-width="4.276559998992408" d="M 77.9937 34.2597 L 23.9001 34.2597 C 20.9916 34.2597 18.6502 36.6011 18.6502 39.51 L 18.6502 79.7618 C 18.6502 82.6703 20.9916 85.0122 23.9001 85.0122 L 77.9937 85.0122 C 80.9022 85.0122 83.2441 82.6703 83.2441 79.7618 L 83.2441 39.51 C 83.2441 36.6011 80.9022 34.2597 77.9937 34.2597 Z "/>
  <path id="ID0.4224610994569957" fill="#E3DAAC" stroke="none" d="M 84.15 59 C 86.909 59 89.409 60.121 91.219 61.931 C 93.029 63.741 94.15 66.241 94.15 69 C 94.15 71.759 93.029 74.259 91.219 76.069 C 89.409 77.879 86.909 79 84.15 79 C 81.391 79 78.891 77.879 77.081 76.069 C 75.271 74.259 74.15 71.759 74.15 69 C 74.15 66.241 75.271 63.741 77.081 61.931 C 78.891 60.121 81.391 59 84.15 59 Z " stroke-width="1"/>
  <path id="rect8769" fill="url(#grad_1-0.4454749822616577,0,0,0.4454749822616577,117.8,-29)" stroke="none" stroke-width="4.276559998992408" d="M 57.0483 3.7562 C 69.7627 3.7562 80.0041 13.9839 80.0041 26.6982 L 80.0041 37.501 L 22.3989 37.501 L 22.3989 26.6982 C 22.3989 13.9839 32.6403 3.7562 45.3546 3.7562 L 57.0483 3.7562 Z "/>
  <path id="path9304" fill="#8b735c" stroke="none" stroke-width="4.276559998992408" d="M 17.4505 14.7782 C 20.6771 11.5547 64.0232 19.028 67.4003 27.6029 C 66.9588 26.0077 73.3006 14.036 74.6214 27.3401 C 75.2718 33.8881 81.7838 32.0385 80.883 29.1617 C 82.2409 4.0427 64.5938 -1.0701 48.0502 0.3782 C 31.0086 -0.1248 12.2349 19.9884 17.4505 14.7782 Z "/>
  <g id="ID0.25995567301288247">
    <path id="path9281" fill="#030302" stroke="none" stroke-width="4.276559998992408" d="M 54.7926 27.2067 C 54.7909 29.185 56.3941 30.7901 58.3725 30.7901 C 60.3508 30.7901 61.9541 29.185 61.9523 27.2067 C 61.9541 25.2283 60.3508 23.6233 58.3725 23.6233 C 56.3941 23.6233 54.7909 25.2283 54.7926 27.2067 Z "/>
    <path id="path9281-8" fill="#030302" stroke="none" stroke-width="4.276559998992408" d="M 38.5926 27.4067 C 38.5909 29.385 40.1941 30.9901 42.1725 30.9901 C 44.1508 30.9901 45.7541 29.385 45.7523 27.4067 C 45.7541 25.4283 44.1508 23.8233 42.1725 23.8233 C 40.1941 23.8233 38.5909 25.4283 38.5926 27.4067 Z "/>
  </g>
  <path id="ID0.4224610994569957" fill="#E3DAAC" stroke="none" d="M 12.15 42.05 C 15.4608 42.05 18.4608 43.3952 20.6328 45.5672 C 22.8048 47.7392 24.15 50.7392 24.15 54.05 C 24.15 57.3608 22.8048 60.3608 20.6328 62.5328 C 18.4608 64.7048 15.4608 66.05 12.15 66.05 C 8.8392 66.05 5.8392 64.7048 3.6672 62.5328 C 1.4952 60.3608 0.15 57.3608 0.15 54.05 C 0.15 50.7392 1.4952 47.7392 3.6672 45.5672 C 5.8392 43.3952 8.8392 42.05 12.15 42.05 Z " stroke-width="1.2000000476837158"/>
</svg>