<svg xmlns="http://www.w3.org/2000/svg" xmlns:xlink="http://www.w3.org/1999/xlink" version="1.1" width="125.99585943689466" height="72.34810858240247" viewBox="1.6929234004491565 -1.2918311619287732 125.99585943689466 72.34810858240247">
  <defs>
    <linearGradient id="grad_1" y2="1" x2="0">
      <stop offset="0" stop-color="#DBD3BC" stop-opacity="1"/>
      <stop offset="1" stop-color="#E7DEA6" stop-opacity="1"/>
    </linearGradient>
  <linearGradient id="grad_1-0.0003258777142036706,-0.44547486305236816,-0.44547486305236816,0.0003258777142036706,139.55,102.05" y2="64.3028" x2="73.0214" x1="106.7661" y1="64.2781" gradientUnits="userSpaceOnUse">
      <stop offset="0" stop-color="#DBD3BC" stop-opacity="1"/>
      <stop offset="1" stop-color="#E7DEA6" stop-opacity="1"/>
    </linearGradient></defs>
  <!-- Exported by Scratch - http://scratch.mit.edu/ -->
  <path id="rect8769-9" fill="#A54436" stroke="none" stroke-width="4.276560120488406" d="M 43.987 66.2306 L 23.4988 63.2714 C 10.9156 61.4539 2.2546 49.8687 4.0721 37.2855 L 5.7457 25.6977 C 7.5632 13.1144 19.1484 4.4535 31.7317 6.271 L 52.2198 9.2302 L 43.987 66.2306 Z "/>
  <path id="rect9302" fill="#E25D4A" stroke="none" stroke-width="4.276559998850237" d="M 76.2112 62.34 L 76.1717 8.2464 C 76.1695 5.3379 73.8264 2.9982 70.9174 3.0003 L 30.6657 3.0298 C 27.7572 3.0319 25.417 5.375 25.4191 8.2835 L 25.4587 62.3771 C 25.4608 65.2856 27.8044 67.6258 30.7129 67.6236 L 70.9647 67.5942 C 73.8736 67.5921 76.2134 65.2485 76.2112 62.34 Z "/>
  <path id="ID0.4224610994569957" fill="#E3DAAC" stroke="none" d="M 70.5505 58.9107 C 70.5526 61.6697 69.4334 64.1705 67.6247 65.9818 C 65.816 67.7931 63.3169 68.916 60.5579 68.918 C 57.7989 68.92 55.298 67.8008 53.4867 65.9921 C 51.6754 64.1835 50.5526 61.6843 50.5505 58.9253 C 50.5485 56.1663 51.6677 53.6655 53.4764 51.8542 C 55.2851 50.0428 57.7842 48.92 60.5432 48.918 C 63.3022 48.916 65.8031 50.0351 67.6144 51.8438 C 69.4257 53.6525 70.5485 56.1517 70.5505 58.9107 Z " stroke-width="1.0000000291485953"/>
  <g id="ID0.11722990404814482">
    <path id="rect8769" fill="url(#grad_1-0.0003258777142036706,-0.44547486305236816,-0.44547486305236816,0.0003258777142036706,139.55,102.05)" stroke="none" stroke-width="4.276559998850033" d="M 106.7493 41.3223 C 106.7586 54.0366 96.5385 64.2856 83.8242 64.2949 L 73.0214 64.3028 L 72.9793 6.6975 L 83.782 6.6896 C 96.4963 6.6803 106.7315 16.9143 106.7408 29.6286 L 106.7493 41.3223 Z "/>
    <path id="path9281" fill="#030302" stroke="none" stroke-width="4.276559998850033" d="M 83.3004 27.129 C 81.3221 27.1286 79.7182 28.7331 79.7196 30.7114 C 79.7211 32.6898 81.3273 34.2919 83.3057 34.2886 C 85.284 34.289 86.8879 32.6845 86.8864 30.7062 C 86.885 28.7278 85.2788 27.1257 83.3004 27.129 Z "/>
    <path id="path9281-8" fill="#030302" stroke="none" stroke-width="4.276559998850033" d="M 83.1004 10.929 C 81.1221 10.9286 79.5182 12.5331 79.5196 14.5114 C 79.5211 16.4898 81.1273 18.0919 83.1057 18.0886 C 85.084 18.089 86.6879 16.4845 86.6864 14.5062 C 86.685 12.5278 85.0788 10.9257 83.1004 10.929 Z "/>
    <path id="path9304" fill="#8b735c" stroke="none" stroke-width="4.276559998850033" d="M 95.6984 1.7326 C 98.9243 4.9568 91.4827 48.3083 82.9102 51.6917 C 84.5051 51.2491 96.4815 57.5821 83.1783 58.9127 C 76.6308 59.5679 78.4851 66.0785 81.3614 65.1756 C 106.4813 66.515 111.5811 48.8643 110.1208 32.3217 C 110.6113 15.2797 90.4844 -3.4792 95.6984 1.7326 Z "/>
  </g>
  <path id="ID0.4224610994569957" fill="#E3DAAC" stroke="none" d="M 125.5505 23.8107 C 125.5526 26.5697 124.4334 29.0705 122.6247 30.8818 C 120.816 32.6931 118.3169 33.816 115.5579 33.818 C 112.7989 33.82 110.298 32.7008 108.4867 30.8921 C 106.6754 29.0835 105.5526 26.5843 105.5505 23.8253 C 105.5485 21.0663 106.6677 18.5655 108.4764 16.7542 C 110.2851 14.9428 112.7842 13.82 115.5432 13.818 C 118.3022 13.816 120.8031 14.9351 122.6144 16.7438 C 124.4257 18.5525 125.5485 21.0517 125.5505 23.8107 Z " stroke-width="1.0000000291485953"/>
</svg>