<svg xmlns="http://www.w3.org/2000/svg" xmlns:xlink="http://www.w3.org/1999/xlink" version="1.1" width="112.29779291776667" height="77.4115700784112" viewBox="7.097530123453092 1.1375644175815096 112.29779291776667 77.4115700784112">
  <defs>
    <linearGradient id="grad_1" y2="1" x2="0">
      <stop offset="0" stop-color="#DBD3BC" stop-opacity="1"/>
      <stop offset="1" stop-color="#E7DEA6" stop-opacity="1"/>
    </linearGradient>
  <linearGradient id="grad_1-0.0715896733087531,-0.43968496888311237,-0.43968496888311237,0.0715896733087531,155.83461208492517,96.0223312035203" y2="69.4047" x2="84.124" x1="117.4302" y1="63.9818" gradientUnits="userSpaceOnUse">
      <stop offset="0" stop-color="#DBD3BC" stop-opacity="1"/>
      <stop offset="1" stop-color="#E7DEA6" stop-opacity="1"/>
    </linearGradient></defs>
  <!-- Exported by Scratch - http://scratch.mit.edu/ -->
  <g id="ID0.3135743481107056">
    <path id="rect8769-9" fill="#A54436" stroke="none" stroke-width="4.2765603127861995" d="M 37.9388 75.4905 L 20.2616 64.7185 C 9.4046 58.1027 5.9928 44.0461 12.6086 33.1892 L 18.7011 23.1912 C 25.3169 12.3343 39.3735 8.9225 50.2304 15.5383 L 67.9077 26.3103 L 37.9388 75.4905 Z "/>
    <path id="rect9302" fill="#E25D4A" stroke="none" stroke-width="4.276560159787596" d="M 88.4245 67.6062 L 84.1996 13.6778 C 83.9724 10.7782 81.4552 8.6268 78.5552 8.854 L 38.4264 11.9979 C 35.5267 12.225 33.3749 14.7422 33.6021 17.6418 L 37.827 71.5702 C 38.0542 74.4698 40.5718 76.6216 43.4714 76.3944 L 83.6003 73.2506 C 86.5003 73.0234 88.6517 70.5058 88.4245 67.6062 Z "/>
    <g id="ID0.11722990404814482">
      <path id="rect8769" fill="url(#grad_1-0.0715896733087531,-0.43968496888311237,-0.43968496888311237,0.0715896733087531,155.83461208492517,96.0223312035203)" stroke="none" stroke-width="4.27655992750204" d="M 113.7411 41.3244 C 115.7843 53.8734 107.3355 65.6254 94.7864 67.6686 L 84.124 69.4047 L 74.8666 12.5481 L 85.529 10.8121 C 98.0781 8.7688 109.8186 17.2336 111.8619 29.7826 L 113.7411 41.3244 Z "/>
      <path id="path9281" fill="#030302" stroke="none" stroke-width="4.27655992750204" d="M 88.3577 31.0526 C 86.4048 31.3688 85.0783 33.2091 85.3962 35.1618 C 85.7141 37.1144 87.556 38.4389 89.5083 38.1192 C 91.4612 37.803 92.7878 35.9627 92.4698 34.01 C 92.1519 32.0574 90.3101 30.7329 88.3577 31.0526 Z "/>
      <path id="path9281-8" fill="#030302" stroke="none" stroke-width="4.27655992750204" d="M 85.5409 15.031 C 83.588 15.3472 82.2614 17.1876 82.5794 19.1402 C 82.8973 21.0928 84.7391 22.4173 86.6915 22.0976 C 88.6444 21.7815 89.9709 19.9411 89.653 17.9885 C 89.3351 16.0358 87.4932 14.7113 85.5409 15.031 Z "/>
      <path id="path9304" fill="#8b735c" stroke="none" stroke-width="4.27655992750204" d="M 96.4989 4.0125 C 100.199 6.6791 99.7887 50.6627 91.8679 55.374 C 93.3715 54.6819 106.2067 59.0174 93.2878 62.4591 C 86.9294 64.1533 89.8015 70.2834 92.4962 68.932 C 117.5069 66.2355 119.7172 47.9961 115.6292 31.9003 C 113.3869 14.9993 90.5181 -0.2981 96.4989 4.0125 Z "/>
    </g>
  </g>
</svg>