<svg version="1.1" xmlns="http://www.w3.org/2000/svg" xmlns:xlink="http://www.w3.org/1999/xlink" width="721.15699" height="265.41333" viewBox="0,0,721.15699,265.41333"><defs><linearGradient x1="316.92314" y1="123.25749" x2="312.82282" y2="161.93985" gradientUnits="userSpaceOnUse" id="color-1"><stop offset="0" stop-color="#76523f"/><stop offset="1" stop-color="#603a3f"/></linearGradient><linearGradient x1="312.57876" y1="89.37271" x2="308.80332" y2="124.99003" gradientUnits="userSpaceOnUse" id="color-2"><stop offset="0" stop-color="#aad400"/><stop offset="1" stop-color="#57a208"/></linearGradient><linearGradient x1="328.30769" y1="93.03957" x2="323.59736" y2="137.47665" gradientUnits="userSpaceOnUse" id="color-3"><stop offset="0" stop-color="#aad400"/><stop offset="1" stop-color="#57a208"/></linearGradient><linearGradient x1="305.56638" y1="104.1737" x2="301.79095" y2="139.79102" gradientUnits="userSpaceOnUse" id="color-4"><stop offset="0" stop-color="#aad400"/><stop offset="1" stop-color="#57a208"/></linearGradient><linearGradient x1="222.36634" y1="24.91489" x2="222.36634" y2="289.42099" gradientUnits="userSpaceOnUse" id="color-5"><stop offset="0" stop-color="#bfbfbf"/><stop offset="1" stop-color="#cccccc"/></linearGradient><linearGradient x1="175.2326" y1="183.21064" x2="169.82741" y2="234.203" gradientUnits="userSpaceOnUse" id="color-6"><stop offset="0" stop-color="#76523f"/><stop offset="1" stop-color="#603a3f"/></linearGradient><linearGradient x1="169.50572" y1="138.5426" x2="164.52882" y2="185.49453" gradientUnits="userSpaceOnUse" id="color-7"><stop offset="0" stop-color="#aad400"/><stop offset="1" stop-color="#57a208"/></linearGradient><linearGradient x1="190.24005" y1="143.37638" x2="184.03069" y2="201.95481" gradientUnits="userSpaceOnUse" id="color-8"><stop offset="0" stop-color="#aad400"/><stop offset="1" stop-color="#57a208"/></linearGradient><linearGradient x1="160.26171" y1="158.05375" x2="155.28481" y2="205.00568" gradientUnits="userSpaceOnUse" id="color-9"><stop offset="0" stop-color="#aad400"/><stop offset="1" stop-color="#57a208"/></linearGradient><linearGradient x1="87.01282" y1="183.66767" x2="81.60765" y2="234.66002" gradientUnits="userSpaceOnUse" id="color-10"><stop offset="0" stop-color="#76523f"/><stop offset="1" stop-color="#603a3f"/></linearGradient><linearGradient x1="81.28602" y1="138.99963" x2="76.30912" y2="185.95156" gradientUnits="userSpaceOnUse" id="color-11"><stop offset="0" stop-color="#aad400"/><stop offset="1" stop-color="#57a208"/></linearGradient><linearGradient x1="102.02049" y1="143.83341" x2="95.81115" y2="202.41184" gradientUnits="userSpaceOnUse" id="color-12"><stop offset="0" stop-color="#aad400"/><stop offset="1" stop-color="#57a208"/></linearGradient><linearGradient x1="72.04201" y1="158.51078" x2="67.06512" y2="205.46271" gradientUnits="userSpaceOnUse" id="color-13"><stop offset="0" stop-color="#aad400"/><stop offset="1" stop-color="#57a208"/></linearGradient><linearGradient x1="222.36634" y1="24.91489" x2="222.36634" y2="289.42099" gradientUnits="userSpaceOnUse" id="color-14"><stop offset="0" stop-color="#bfbfbf"/><stop offset="1" stop-color="#cccccc"/></linearGradient><linearGradient x1="222.55739" y1="25.13999" x2="222.55739" y2="289.64609" gradientUnits="userSpaceOnUse" id="color-15"><stop offset="0" stop-color="#bfbfbf"/><stop offset="1" stop-color="#cccccc"/></linearGradient><linearGradient x1="222.36634" y1="24.91489" x2="222.36634" y2="289.42099" gradientUnits="userSpaceOnUse" id="color-16"><stop offset="0" stop-color="#bfbfbf"/><stop offset="1" stop-color="#cccccc"/></linearGradient><linearGradient x1="223.18284" y1="24.23276" x2="223.18284" y2="288.73886" gradientUnits="userSpaceOnUse" id="color-17"><stop offset="0" stop-color="#bfbfbf"/><stop offset="1" stop-color="#cccccc"/></linearGradient><linearGradient x1="-19.46354" y1="274.05504" x2="-19.46354" y2="286.29352" gradientUnits="userSpaceOnUse" id="color-18"><stop offset="0" stop-color="#cc3333"/><stop offset="1" stop-color="#bf0000"/></linearGradient><linearGradient x1="128.74873" y1="94.42286" x2="128.74873" y2="199.17451" gradientUnits="userSpaceOnUse" id="color-19"><stop offset="0" stop-color="#80caff" stop-opacity="0.8"/><stop offset="1" stop-color="#80ddff" stop-opacity="0.8"/></linearGradient><linearGradient x1="315.6518" y1="94.42286" x2="315.6518" y2="199.17451" gradientUnits="userSpaceOnUse" id="color-20"><stop offset="0" stop-color="#80caff" stop-opacity="0.8"/><stop offset="1" stop-color="#80ddff" stop-opacity="0.8"/></linearGradient><linearGradient x1="223.57986" y1="215.26014" x2="223.57986" y2="220.42248" gradientUnits="userSpaceOnUse" id="color-21"><stop offset="0" stop-color="#000000"/><stop offset="1" stop-color="#000000" stop-opacity="0"/></linearGradient><linearGradient x1="93.41321" y1="150.93438" x2="93.41321" y2="227.59968" gradientUnits="userSpaceOnUse" id="color-22"><stop offset="0" stop-color="#b37d59"/><stop offset="1" stop-color="#805a40"/></linearGradient><linearGradient x1="143.67514" y1="229.67492" x2="143.67514" y2="279.83914" gradientUnits="userSpaceOnUse" id="color-23"><stop offset="0" stop-color="#b37d59"/><stop offset="1" stop-color="#805a40"/></linearGradient><linearGradient x1="143.67514" y1="228.87918" x2="143.67514" y2="232.73128" gradientUnits="userSpaceOnUse" id="color-24"><stop offset="0" stop-color="#000000"/><stop offset="1" stop-color="#000000" stop-opacity="0"/></linearGradient><linearGradient x1="91.00849" y1="229.67492" x2="91.00849" y2="279.83914" gradientUnits="userSpaceOnUse" id="color-25"><stop offset="0" stop-color="#b37d59"/><stop offset="1" stop-color="#805a40"/></linearGradient><linearGradient x1="91.00849" y1="228.87918" x2="91.00849" y2="232.73128" gradientUnits="userSpaceOnUse" id="color-26"><stop offset="0" stop-color="#000000"/><stop offset="1" stop-color="#000000" stop-opacity="0"/></linearGradient><linearGradient x1="299.44209" y1="153.79152" x2="299.44209" y2="230.45682" gradientUnits="userSpaceOnUse" id="color-27"><stop offset="0" stop-color="#b37d59"/><stop offset="1" stop-color="#805a40"/></linearGradient><linearGradient x1="246.32297" y1="229.67493" x2="246.32297" y2="279.83914" gradientUnits="userSpaceOnUse" id="color-28"><stop offset="0" stop-color="#b37d59"/><stop offset="1" stop-color="#805a40"/></linearGradient><linearGradient x1="246.32297" y1="228.87919" x2="246.32297" y2="232.73129" gradientUnits="userSpaceOnUse" id="color-29"><stop offset="0" stop-color="#000000"/><stop offset="1" stop-color="#000000" stop-opacity="0"/></linearGradient><linearGradient x1="298.98972" y1="229.67493" x2="298.98972" y2="279.83914" gradientUnits="userSpaceOnUse" id="color-30"><stop offset="0" stop-color="#b37d59"/><stop offset="1" stop-color="#805a40"/></linearGradient><linearGradient x1="298.98972" y1="228.87919" x2="298.98972" y2="232.73129" gradientUnits="userSpaceOnUse" id="color-31"><stop offset="0" stop-color="#000000"/><stop offset="1" stop-color="#000000" stop-opacity="0"/></linearGradient><linearGradient x1="-119.08501" y1="216.06283" x2="-108.49239" y2="216.06283" gradientUnits="userSpaceOnUse" id="color-32"><stop offset="0" stop-color="#cccca3"/><stop offset="1" stop-color="#ccb627"/></linearGradient><linearGradient x1="-115.30793" y1="218.78915" x2="-100.96425" y2="218.78915" gradientUnits="userSpaceOnUse" id="color-33"><stop offset="0" stop-color="#ccb310"/><stop offset="1" stop-color="#cca123"/></linearGradient><linearGradient x1="526.7723" y1="214.75848" x2="537.36493" y2="214.75848" gradientUnits="userSpaceOnUse" id="color-34"><stop offset="0" stop-color="#ffffcc"/><stop offset="1" stop-color="#ffe530"/></linearGradient><linearGradient x1="530.54941" y1="217.4848" x2="544.89307" y2="217.4848" gradientUnits="userSpaceOnUse" id="color-35"><stop offset="0" stop-color="#ffe115"/><stop offset="1" stop-color="#ffca2b"/></linearGradient><linearGradient x1="478.16916" y1="274.05503" x2="478.16916" y2="286.29352" gradientUnits="userSpaceOnUse" id="color-36"><stop offset="0" stop-color="#cc3333"/><stop offset="1" stop-color="#bf0000"/></linearGradient></defs><g transform="translate(126.34138,-24.23276)"><g data-paper-data="{&quot;isPaintingLayer&quot;:true}" fill-rule="nonzero" stroke-linejoin="miter" stroke-dasharray="" stroke-dashoffset="0" style="mix-blend-mode: normal"><g data-paper-data="{&quot;index&quot;:null}" stroke="none" stroke-linecap="butt" stroke-miterlimit="10"><path d="M541.51591,158.54956h53.2997v123.45642h-53.2997z" fill="#2e385a" stroke-width="0.39947"/><g fill="none" stroke-width="1" font-family="sans-serif" font-weight="normal" font-size="12" text-anchor="start"/></g><g stroke-linecap="butt" stroke-miterlimit="10"><g><g><path d="M324.59191,153.79633l1.12661,-2.37812l-0.07047,1.25689l-0.11597,2.25504l0.82962,0.69128l0.74662,-1.85269l1.10434,-2.78043l-0.04018,-2.40582l0.74398,3.13436l-0.25955,4.26407l0.69128,-0.96782v0.41474l0.13825,-1.41025l-0.13825,2.73761l-1.21676,1.63155l-1.38261,0.30415l-3.59483,-0.41479z" data-paper-data="{&quot;origPos&quot;:null}" fill="#58bd1c" stroke="#58bd1c" stroke-width="0.70449"/><path d="M320.05726,157.17002l1.02321,-4.0263l0.72426,-1.70748l1.50272,-2.21223l-0.47688,2.28269l-0.07994,1.28308l0.37612,-0.48672l0.21017,-1.14478l0.11059,-0.34842v-0.24338l0.1659,-0.47559l1.37673,-2.23987l1.02849,-1.32736l-0.19354,1.28987l-1.39869,8.16186l0.67707,1.49325l1.29697,-3.57274l0.47277,-0.21017l-0.45583,5.0992l-1.16141,0.34291l-2.22881,0.11059l-2.74868,-1.10611z" data-paper-data="{&quot;origPos&quot;:null}" fill="#60ce1e" stroke="none" stroke-width="0.23483"/></g><g><path d="M332.44352,153.82605l1.12661,-2.37813l-0.07047,1.25689l-0.11597,2.25505l0.82962,0.69128l0.74662,-1.85269l1.10433,-2.78043l-0.04017,-2.40582l0.74398,3.13436l-0.25955,4.26407l0.69128,-0.96783v0.41474l0.13825,-1.41026l-0.13825,2.73761l-1.21675,1.63155l-1.38261,0.30415l-3.59483,-0.41478z" data-paper-data="{&quot;origPos&quot;:null}" fill="#58bd1c" stroke="#58bd1c" stroke-width="0.70449"/><path d="M327.90887,157.19973l1.02321,-4.0263l0.72426,-1.70748l1.50272,-2.21222l-0.47688,2.28269l-0.07994,1.28308l0.37611,-0.48671l0.21017,-1.14478l0.1106,-0.34842v-0.24338l0.1659,-0.47559l1.37673,-2.23988l1.0285,-1.32736l-0.19355,1.28986l-1.39869,8.16187l0.67707,1.49325l1.29697,-3.57274l0.47277,-0.21017l-0.45583,5.0992l-1.16141,0.34291l-2.22881,0.1106l-2.74868,-1.10611z" data-paper-data="{&quot;origPos&quot;:null}" fill="#60ce1e" stroke="none" stroke-width="0.23483"/></g><g><path d="M340.43605,153.78528l1.12661,-2.37812l-0.07047,1.25689l-0.11597,2.25505l0.82962,0.69128l0.74662,-1.85269l1.10434,-2.78044l-0.04017,-2.40582l0.74398,3.13436l-0.25955,4.26407l0.69128,-0.96782v0.41474l0.13825,-1.41026l-0.13825,2.73761l-1.21675,1.63155l-1.38261,0.30414l-3.59483,-0.41478z" data-paper-data="{&quot;origPos&quot;:null}" fill="#58bd1c" stroke="#58bd1c" stroke-width="0.70449"/><path d="M335.9014,157.15898l1.02321,-4.0263l0.72426,-1.70748l1.50272,-2.21223l-0.47687,2.28269l-0.07994,1.28308l0.37611,-0.48672l0.21017,-1.14479l0.11059,-0.34842v-0.24338l0.1659,-0.47559l1.37673,-2.23987l1.0285,-1.32736l-0.19355,1.28987l-1.39869,8.16186l0.67708,1.49325l1.29697,-3.57274l0.47277,-0.21017l-0.45583,5.0992l-1.16142,0.34291l-2.2288,0.11059l-2.74868,-1.10611z" data-paper-data="{&quot;origPos&quot;:null}" fill="#60ce1e" stroke="none" stroke-width="0.23483"/></g></g><g><path d="M349.67803,153.79632l1.12661,-2.37812l-0.07047,1.25689l-0.11597,2.25504l0.82962,0.69128l0.74662,-1.85269l1.10434,-2.78043l-0.04018,-2.40582l0.74398,3.13436l-0.25955,4.26407l0.69128,-0.96782v0.41474l0.13825,-1.41026l-0.13825,2.73761l-1.21675,1.63154l-1.38261,0.30415l-3.59483,-0.41479z" data-paper-data="{&quot;origPos&quot;:null}" fill="#58bd1c" stroke="#58bd1c" stroke-width="0.70449"/><path d="M345.14334,157.17001l1.02321,-4.0263l0.72426,-1.70748l1.50272,-2.21223l-0.47688,2.28269l-0.07994,1.28308l0.37611,-0.48672l0.21017,-1.14479l0.11059,-0.34842v-0.24338l0.1659,-0.4756l1.37673,-2.23987l1.0285,-1.32736l-0.19355,1.28987l-1.39869,8.16186l0.67707,1.49325l1.29697,-3.57274l0.47277,-0.21017l-0.45583,5.0992l-1.16141,0.34291l-2.22881,0.1106l-2.74868,-1.10611z" data-paper-data="{&quot;origPos&quot;:null}" fill="#60ce1e" stroke="none" stroke-width="0.23483"/></g><g><path d="M357.52962,153.82604l1.12661,-2.37813l-0.07046,1.25689l-0.11597,2.25505l0.82962,0.69128l0.74662,-1.8527l1.10433,-2.78043l-0.04017,-2.40582l0.74399,3.13435l-0.25955,4.26407l0.69128,-0.96782v0.41474l0.13825,-1.41026l-0.13825,2.73761l-1.21675,1.63155l-1.38261,0.30415l-3.59483,-0.41479z" data-paper-data="{&quot;origPos&quot;:null}" fill="#58bd1c" stroke="#58bd1c" stroke-width="0.70449"/><path d="M352.99492,157.19973l1.02322,-4.0263l0.72426,-1.70748l1.50272,-2.21222l-0.47688,2.28269l-0.07994,1.28308l0.37611,-0.48671l0.21017,-1.14479l0.1106,-0.34842v-0.24338l0.16589,-0.47559l1.37673,-2.23988l1.0285,-1.32736l-0.19355,1.28986l-1.39869,8.16187l0.67707,1.49326l1.29697,-3.57274l0.47277,-0.21017l-0.45583,5.0992l-1.16142,0.34291l-2.2288,0.1106l-2.74868,-1.10612z" data-paper-data="{&quot;origPos&quot;:null}" fill="#60ce1e" stroke="none" stroke-width="0.23483"/></g><g><path d="M365.52214,153.78528l1.12661,-2.37812l-0.07046,1.25689l-0.11597,2.25505l0.82962,0.69128l0.74662,-1.85269l1.10434,-2.78043l-0.04017,-2.40582l0.74398,3.13436l-0.25955,4.26407l0.69128,-0.96782v0.41474l0.13825,-1.41026l-0.13825,2.73761l-1.21675,1.63155l-1.38261,0.30414l-3.59483,-0.41478z" data-paper-data="{&quot;origPos&quot;:null}" fill="#58bd1c" stroke="#58bd1c" stroke-width="0.70449"/><path d="M360.98745,157.15898l1.02321,-4.0263l0.72426,-1.70748l1.50272,-2.21223l-0.47687,2.28269l-0.07995,1.28308l0.37611,-0.48671l0.21018,-1.14479l0.11059,-0.34842v-0.24338l0.16589,-0.47559l1.37673,-2.23987l1.0285,-1.32736l-0.19355,1.28986l-1.39869,8.16187l0.67708,1.49325l1.29697,-3.57275l0.47277,-0.21017l-0.45583,5.0992l-1.16141,0.34291l-2.22881,0.1106l-2.74868,-1.10612z" data-paper-data="{&quot;origPos&quot;:null}" fill="#60ce1e" stroke="none" stroke-width="0.23483"/></g></g><g stroke-linecap="butt" stroke-miterlimit="10"><g><g><path d="M266.7956,153.79633l1.12661,-2.37812l-0.07047,1.25689l-0.11597,2.25504l0.82962,0.69128l0.74662,-1.85269l1.10434,-2.78043l-0.04018,-2.40582l0.74398,3.13436l-0.25955,4.26407l0.69128,-0.96782v0.41474l0.13825,-1.41025l-0.13825,2.73761l-1.21676,1.63155l-1.38261,0.30415l-3.59483,-0.41479z" data-paper-data="{&quot;origPos&quot;:null}" fill="#58bd1c" stroke="#58bd1c" stroke-width="0.70449"/><path d="M262.26088,157.17002l1.02321,-4.0263l0.72426,-1.70748l1.50272,-2.21223l-0.47688,2.28269l-0.07994,1.28308l0.37612,-0.48672l0.21017,-1.14478l0.11059,-0.34842v-0.24338l0.1659,-0.47559l1.37673,-2.23987l1.02849,-1.32736l-0.19354,1.28987l-1.39869,8.16186l0.67707,1.49325l1.29697,-3.57274l0.47277,-0.21017l-0.45583,5.0992l-1.16141,0.34291l-2.22881,0.11059l-2.74868,-1.10611z" data-paper-data="{&quot;origPos&quot;:null}" fill="#60ce1e" stroke="none" stroke-width="0.23483"/></g><g><path d="M274.64716,153.82605l1.12661,-2.37813l-0.07047,1.25689l-0.11597,2.25505l0.82962,0.69128l0.74662,-1.85269l1.10433,-2.78043l-0.04017,-2.40582l0.74398,3.13436l-0.25955,4.26407l0.69128,-0.96783v0.41474l0.13825,-1.41026l-0.13825,2.73761l-1.21675,1.63155l-1.38261,0.30415l-3.59483,-0.41478z" data-paper-data="{&quot;origPos&quot;:null}" fill="#58bd1c" stroke="#58bd1c" stroke-width="0.70449"/><path d="M270.11249,157.19973l1.02321,-4.0263l0.72426,-1.70748l1.50272,-2.21222l-0.47688,2.28269l-0.07994,1.28308l0.37611,-0.48671l0.21017,-1.14478l0.1106,-0.34842v-0.24338l0.1659,-0.47559l1.37673,-2.23988l1.0285,-1.32736l-0.19355,1.28986l-1.39869,8.16187l0.67707,1.49325l1.29697,-3.57274l0.47277,-0.21017l-0.45583,5.0992l-1.16141,0.34291l-2.22881,0.1106l-2.74868,-1.10611z" data-paper-data="{&quot;origPos&quot;:null}" fill="#60ce1e" stroke="none" stroke-width="0.23483"/></g><g><path d="M282.63971,153.78529l1.12661,-2.37812l-0.07047,1.25689l-0.11597,2.25505l0.82962,0.69128l0.74662,-1.85269l1.10434,-2.78044l-0.04017,-2.40582l0.74398,3.13436l-0.25955,4.26407l0.69128,-0.96782v0.41474l0.13825,-1.41026l-0.13825,2.73761l-1.21675,1.63155l-1.38261,0.30414l-3.59483,-0.41478z" data-paper-data="{&quot;origPos&quot;:null}" fill="#58bd1c" stroke="#58bd1c" stroke-width="0.70449"/><path d="M278.10499,157.15898l1.02321,-4.0263l0.72426,-1.70748l1.50272,-2.21223l-0.47687,2.28269l-0.07994,1.28308l0.37611,-0.48672l0.21017,-1.14479l0.11059,-0.34842v-0.24338l0.1659,-0.47559l1.37673,-2.23987l1.0285,-1.32736l-0.19355,1.28987l-1.39869,8.16186l0.67708,1.49325l1.29697,-3.57274l0.47277,-0.21017l-0.45583,5.0992l-1.16142,0.34291l-2.2288,0.11059l-2.74868,-1.10611z" data-paper-data="{&quot;origPos&quot;:null}" fill="#60ce1e" stroke="none" stroke-width="0.23483"/></g></g><g><path d="M291.88165,153.79632l1.12661,-2.37812l-0.07047,1.25689l-0.11597,2.25504l0.82962,0.69128l0.74662,-1.85269l1.10434,-2.78043l-0.04018,-2.40582l0.74398,3.13436l-0.25955,4.26407l0.69128,-0.96782v0.41474l0.13825,-1.41025l-0.13825,2.73761l-1.21676,1.63155l-1.38261,0.30414l-3.59483,-0.41479z" data-paper-data="{&quot;origPos&quot;:null}" fill="#58bd1c" stroke="#58bd1c" stroke-width="0.70449"/><path d="M287.347,157.17001l1.02321,-4.0263l0.72426,-1.70748l1.50272,-2.21223l-0.47688,2.28269l-0.07994,1.28308l0.37612,-0.48672l0.21017,-1.14478l0.11059,-0.34842v-0.24338l0.1659,-0.47559l1.37673,-2.23987l1.02849,-1.32736l-0.19354,1.28987l-1.39869,8.16186l0.67707,1.49325l1.29697,-3.57274l0.47277,-0.21017l-0.45583,5.0992l-1.16141,0.34291l-2.22881,0.11059l-2.74868,-1.10611z" data-paper-data="{&quot;origPos&quot;:null}" fill="#60ce1e" stroke="none" stroke-width="0.23483"/></g><g><path d="M299.73321,153.82604l1.12661,-2.37813l-0.07047,1.25689l-0.11597,2.25505l0.82962,0.69128l0.74662,-1.85269l1.10433,-2.78043l-0.04017,-2.40582l0.74398,3.13436l-0.25955,4.26407l0.69128,-0.96783v0.41474l0.13825,-1.41026l-0.13825,2.73761l-1.21675,1.63155l-1.38261,0.30414l-3.59483,-0.41478z" data-paper-data="{&quot;origPos&quot;:null}" fill="#58bd1c" stroke="#58bd1c" stroke-width="0.70449"/><path d="M295.19856,157.19973l1.02321,-4.0263l0.72426,-1.70748l1.50272,-2.21222l-0.47688,2.28269l-0.07994,1.28308l0.37611,-0.48671l0.21017,-1.14478l0.1106,-0.34842v-0.24338l0.1659,-0.47559l1.37673,-2.23988l1.0285,-1.32736l-0.19355,1.28986l-1.39869,8.16187l0.67707,1.49325l1.29697,-3.57274l0.47277,-0.21017l-0.45583,5.09921l-1.16141,0.3429l-2.22881,0.1106l-2.74868,-1.10611z" data-paper-data="{&quot;origPos&quot;:null}" fill="#60ce1e" stroke="none" stroke-width="0.23483"/></g><g><path d="M307.72576,153.78529l1.12661,-2.37812l-0.07047,1.25689l-0.11597,2.25505l0.82962,0.69128l0.74662,-1.85269l1.10434,-2.78044l-0.04017,-2.40582l0.74398,3.13436l-0.25955,4.26407l0.69128,-0.96782v0.41474l0.13825,-1.41026l-0.13825,2.73761l-1.21675,1.63155l-1.38261,0.30414l-3.59483,-0.41479z" data-paper-data="{&quot;origPos&quot;:null}" fill="#58bd1c" stroke="#58bd1c" stroke-width="0.70449"/><path d="M303.19111,157.15898l1.02321,-4.0263l0.72426,-1.70748l1.50272,-2.21223l-0.47687,2.28269l-0.07994,1.28308l0.37611,-0.48672l0.21017,-1.14479l0.11059,-0.34842v-0.24338l0.1659,-0.47559l1.37673,-2.23987l1.0285,-1.32736l-0.19355,1.28987l-1.39869,8.16186l0.67708,1.49325l1.29697,-3.57274l0.47277,-0.21017l-0.45583,5.0992l-1.16142,0.34291l-2.2288,0.11059l-2.74868,-1.10611z" data-paper-data="{&quot;origPos&quot;:null}" fill="#60ce1e" stroke="none" stroke-width="0.23483"/></g></g><g stroke="none" stroke-width="1" stroke-linecap="butt" stroke-miterlimit="10"><path d="M301.64349,160.61794c5.86474,-7.46256 10.2552,-18.81494 10.63348,-28.94543c0.37828,-10.13108 9.27216,-11.02412 8.79505,-3.17681c-0.47711,7.84731 1.46545,27.53352 3.89041,33.13176c-5.54765,2.42143 -18.92378,2.92325 -23.31895,-1.00952z" fill="url(#color-1)"/><path d="M309.28844,126.43548c-10.23521,0 -17.64834,-8.29736 -16.55882,-18.53256c1.09012,-10.23521 10.27051,-18.53197 20.50571,-18.53197c10.23521,0 17.64894,8.29676 16.55882,18.53197c-1.08953,10.23521 -10.27051,18.53256 -20.50571,18.53256z" fill="url(#color-2)"/><path d="M324.19176,139.27979c-12.76959,0 -22.01881,-10.35169 -20.65925,-23.12128c1.36015,-12.76959 12.81371,-23.12128 25.58331,-23.12128c12.76959,0 22.0194,10.35169 20.65926,23.12128c-1.35955,12.76959 -12.81371,23.12128 -25.58331,23.12128z" fill="url(#color-3)"/><path d="M302.26883,141.23647c-10.23521,0 -17.64894,-8.29735 -16.55941,-18.53256c1.09012,-10.23521 10.27109,-18.53197 20.5063,-18.53197c10.23462,0 17.64834,8.29677 16.55882,18.53197c-1.09012,10.23521 -10.2705,18.53256 -20.50571,18.53256z" fill="url(#color-4)"/></g><g stroke="none" stroke-width="0.71932" stroke-linecap="butt"><g><g fill="#ffffff" stroke-miterlimit="10"><path d="M359.04785,200.01615v-21.48022h21.48022v21.48022z"/></g><g fill="#f5f5f5" stroke-miterlimit="4"><path d="M380.52807,200.01615h-21.48022v-21.48022c21.48022,21.48022 0,0 21.48022,21.48022z"/></g></g><g><g fill="#c87137" stroke-miterlimit="10"><path d="M337.56765,178.53593v-21.48022h21.48021v21.48022z"/></g><g fill="#a05a2c" stroke-miterlimit="4"><path d="M359.04785,178.53593h-21.48021v-21.48022c21.48022,21.48022 0,0 21.48021,21.48022z"/></g></g><g><g fill="#c87137" stroke-miterlimit="10"><path d="M316.08742,178.53593v-21.48022h21.48022v21.48022z"/></g><g fill="#a05a2c" stroke-miterlimit="4"><path d="M337.56765,178.53593h-21.48022v-21.48022c21.48022,21.48022 0,0 21.48022,21.48022z"/></g></g><g><g fill="#c87137" stroke-miterlimit="10"><path d="M294.6072,178.53593v-21.48022h21.48022v21.48022z"/></g><g fill="#a05a2c" stroke-miterlimit="4"><path d="M316.08742,178.53593h-21.48022v-21.48022c21.48022,21.48022 0,0 21.48022,21.48022z"/></g></g><g><g fill="#c87137" stroke-miterlimit="10"><path d="M273.12694,178.53593v-21.48022h21.48021v21.48022z"/></g><g fill="#a05a2c" stroke-miterlimit="4"><path d="M294.6072,178.53593h-21.48021v-21.48022c21.48022,21.48022 0,0 21.48021,21.48022z"/></g></g><g><g fill="#ffffff" stroke-miterlimit="10"><path d="M316.08742,200.01615v-21.48022h21.48022v21.48022z"/></g><g fill="#f5f5f5" stroke-miterlimit="4"><path d="M337.56765,200.01615h-21.48022v-21.48022c21.48022,21.48022 0,0 21.48022,21.48022z"/></g></g><g><g fill="#ffffff" stroke-miterlimit="10"><path d="M337.56765,200.01615v-21.48022h21.48021v21.48022z"/></g><g fill="#f5f5f5" stroke-miterlimit="4"><path d="M359.04785,200.01615h-21.48021v-21.48022c21.48022,21.48022 0,0 21.48021,21.48022z"/></g></g><g><g fill="#ffffff" stroke-miterlimit="10"><path d="M273.12694,200.01615v-21.48022h21.48021v21.48022z"/></g><g fill="#f5f5f5" stroke-miterlimit="4"><path d="M294.6072,200.01615h-21.48021v-21.48022c21.48022,21.48022 0,0 21.48021,21.48022z"/></g></g><g><g fill="#ffffff" stroke-miterlimit="10"><path d="M294.6072,200.01615v-21.48022h21.48022v21.48022z"/></g><g fill="#f5f5f5" stroke-miterlimit="4"><path d="M316.08742,200.01615h-21.48022v-21.48022c21.48022,21.48022 0,0 21.48022,21.48022z"/></g></g><g><g fill="#ffffff" stroke-miterlimit="10"><path d="M251.64664,200.01615v-21.48022h21.48022v21.48022z"/></g><g fill="#f5f5f5" stroke-miterlimit="4"><path d="M273.12694,200.01615h-21.48022v-21.48022c21.48022,21.48022 0,0 21.48022,21.48022z"/></g></g><g><g fill="#c87137" stroke-miterlimit="10"><path d="M359.04785,178.53593v-21.48022h21.48022v21.48022z"/></g><g fill="#a05a2c" stroke-miterlimit="4"><path d="M380.52807,178.53593h-21.48022v-21.48022c21.48022,21.48022 0,0 21.48022,21.48022z"/></g></g><g><g fill="#c87137" stroke-miterlimit="10"><path d="M251.64664,178.53593v-21.48022h21.48022v21.48022z"/></g><g fill="#a05a2c" stroke-miterlimit="4"><path d="M273.12694,178.53593h-21.48022v-21.48022c21.48022,21.48022 0,0 21.48022,21.48022z"/></g></g></g><path d="M440.68822,289.42099l-0.1043,-264.5061c0,0 113.30244,92.48938 113.30244,108.48556c0,42.32193 -0.5,156.02054 -0.5,156.02054z" fill="url(#color-5)" stroke="none" stroke-width="0" stroke-linecap="butt" stroke-miterlimit="10"/><g stroke="none" stroke-width="1" stroke-linecap="butt" stroke-miterlimit="10"><path d="M155.09044,232.46042c7.7311,-9.83739 13.51875,-24.80248 14.01741,-38.15682c0.49866,-13.35512 12.22287,-14.53236 11.59393,-4.18778c-0.62894,10.34458 1.9318,36.29559 5.12847,43.67538c-7.31309,3.19201 -24.94595,3.85353 -30.73981,-1.33078z" fill="url(#color-6)"/><path d="M165.16823,187.39997c-13.49239,0 -23.26463,-10.93785 -21.82838,-24.43024c1.43703,-13.49239 13.53892,-24.42945 27.03131,-24.42945c13.49239,0 23.26541,10.93706 21.82839,24.42945c-1.43625,13.49239 -13.53892,24.43024 -27.03131,24.43024z" fill="url(#color-7)"/><path d="M184.81428,204.33176c-16.8333,0 -29.02592,-13.64594 -27.23371,-30.47924c1.79299,-16.8333 16.89146,-30.47924 33.72476,-30.47924c16.8333,0 29.0267,13.64594 27.23372,30.47924c-1.79221,16.8333 -16.89146,30.47924 -33.72476,30.47924z" fill="url(#color-8)"/><path d="M155.91483,206.91112c-13.49239,0 -23.26541,-10.93784 -21.82916,-24.43023c1.43703,-13.49239 13.53969,-24.42946 27.03208,-24.42946c13.49161,0 23.26463,10.93707 21.82838,24.42946c-1.43703,13.49239 -13.53891,24.43023 -27.0313,24.43023z" fill="url(#color-9)"/></g><g stroke="none" stroke-width="1" stroke-linecap="butt" stroke-miterlimit="10"><path d="M66.87072,232.91745c7.7311,-9.83739 13.51875,-24.80248 14.01741,-38.15683c0.49866,-13.35512 12.22287,-14.53235 11.59393,-4.18777c-0.62894,10.34458 1.9318,36.29559 5.12848,43.67538c-7.3131,3.19201 -24.94595,3.85353 -30.73981,-1.33078z" fill="url(#color-10)"/><path d="M76.94853,187.85699c-13.49239,0 -23.26463,-10.93784 -21.82838,-24.43023c1.43703,-13.49239 13.53892,-24.42946 27.03131,-24.42946c13.49239,0 23.26541,10.93707 21.82838,24.42946c-1.43625,13.49239 -13.53892,24.43023 -27.03131,24.43023z" fill="url(#color-11)"/><path d="M96.59472,204.78879c-16.8333,0 -29.02592,-13.64594 -27.23371,-30.47924c1.79299,-16.8333 16.89146,-30.47925 33.72476,-30.47925c16.8333,0 29.02671,13.64595 27.23372,30.47925c-1.79221,16.8333 -16.89147,30.47924 -33.72477,30.47924z" fill="url(#color-12)"/><path d="M67.69513,207.36814c-13.49239,0 -23.26541,-10.93784 -21.82916,-24.43023c1.43703,-13.49239 13.53969,-24.42946 27.03208,-24.42946c13.49161,0 23.26464,10.93707 21.82838,24.42946c-1.43703,13.49239 -13.53892,24.43023 -27.03131,24.43023z" fill="url(#color-13)"/></g><path d="M-102.75568,289.42099c0,0 1.10211,-137.90142 1.10211,-178.54162c0,-14.16562 105.80244,-85.96448 105.80244,-85.96448l0.26437,264.5061z" fill="url(#color-14)" stroke="none" stroke-width="0" stroke-linecap="butt" stroke-miterlimit="10"/><path d="M258.5713,288.51436l0.35601,-87.59081l113.92515,-0.35333l-1.24828,-107.25245l-110.79338,0.0408l-2.38016,-68.21858h182.34437l1.05937,264.5061z" data-paper-data="{&quot;index&quot;:null}" fill="url(#color-15)" stroke="none" stroke-width="0" stroke-linecap="butt" stroke-miterlimit="10"/><path d="M3.0894,289.42099l1.05937,-264.5061h182.34437l-2.38016,68.21858l-110.79338,-0.0408l-1.24828,107.25245l113.92515,0.35333l0.35601,87.59081z" fill="url(#color-16)" stroke="none" stroke-width="0" stroke-linecap="butt" stroke-miterlimit="10"/><path d="M183.85341,288.73886l0.19001,-264.5061h78.27871l0.39781,264.5061z" fill="url(#color-17)" stroke="none" stroke-width="0" stroke-linecap="butt" stroke-miterlimit="10"/><path d="M200.63273,174.26466l-3.76377,-64.43562l46.73851,-2.73006l3.76377,64.43562z" fill="#e6e6e6" stroke="#a7a7a7" stroke-width="0" stroke-linecap="butt" stroke-miterlimit="10"/><text transform="translate(198.99017,117.08861) rotate(-3.90017) scale(0.16003,0.16003)" font-size="40" xml:space="preserve" fill="#1b1b1b" fill-rule="nonzero" stroke="none" stroke-width="1" stroke-linecap="butt" stroke-linejoin="miter" stroke-miterlimit="10" stroke-dasharray="" stroke-dashoffset="0" font-family="Sans Serif" font-weight="normal" text-anchor="start" style="mix-blend-mode: normal"><tspan x="0" dy="0">To do</tspan><tspan x="0" dy="46.15px"> </tspan><tspan x="0" dy="46.15px">Check on the</tspan><tspan x="0" dy="46.15px">wall</tspan><tspan x="0" dy="46.15px"> </tspan><tspan x="0" dy="46.15px">Make sure it</tspan><tspan x="0" dy="46.15px">is sturdy</tspan></text><path d="M217.25403,108.75926c0,-2.00331 1.62401,-3.62731 3.62731,-3.62731c2.00331,0 3.62731,1.62401 3.62731,3.62731c0,2.00331 -1.62401,3.62731 -3.62731,3.62731c-2.00331,0 -3.62731,-1.62401 -3.62731,-3.62731z" fill="#ff4848" stroke="none" stroke-width="0" stroke-linecap="butt" stroke-miterlimit="10"/><path d="M6.59305,277.83914v-95.43818h15.006v95.43818z" fill="#bfbfbf" stroke="none" stroke-width="0" stroke-linecap="butt" stroke-miterlimit="10"/><path d="M186.16146,82.97453z" fill="#ff0000" stroke="none" stroke-width="0" stroke-linecap="butt" stroke-miterlimit="10"/><path d="M6.21402,284.07163v-8.47683h430.95001v8.47683z" fill="#bfbfbf" stroke="none" stroke-width="0" stroke-linecap="butt" stroke-miterlimit="10"/><path d="M-61.15098,286.29352v-12.23848h83.37468v12.23848z" data-paper-data="{&quot;index&quot;:null}" fill="url(#color-18)" stroke="none" stroke-width="0" stroke-linecap="butt" stroke-miterlimit="10"/><path d="M-17.44155,187.50341v-12.96043h64.80219v12.96043z" fill="#bfbfbf" stroke="none" stroke-width="0" stroke-linecap="butt" stroke-miterlimit="10"/><path d="M-15.42394,171.94506l12.11683,-43.97962l13.30962,3.66694l-12.11683,43.97962z" fill="#cccccc" stroke="none" stroke-width="0" stroke-linecap="butt" stroke-miterlimit="10"/><path d="M2.5894,174.79592v-10.80432h40.81633v10.80432z" fill="#cccccc" stroke="none" stroke-width="0" stroke-linecap="butt" stroke-miterlimit="10"/><path d="M5.18849,162.9892v-10.80433h40.81633v10.80433z" fill="#cccccc" stroke="none" stroke-width="0" stroke-linecap="butt" stroke-miterlimit="10"/><path d="M7.78752,151.78271v-10.80433h28.81153v10.80433z" fill="#cccccc" stroke="none" stroke-width="0" stroke-linecap="butt" stroke-miterlimit="10"/><path d="M396.32202,276.98066v-100.43888h64.80219v100.43888z" data-paper-data="{&quot;index&quot;:null}" fill="#bfbfbf" stroke="none" stroke-width="0" stroke-linecap="butt" stroke-miterlimit="10"/><path d="M449.883,153.84623l-45.61258,-0.71937l0.21771,-13.8038l45.61257,0.71937z" data-paper-data="{&quot;index&quot;:null}" fill="#cccccc" stroke="none" stroke-width="0" stroke-linecap="butt" stroke-miterlimit="10"/><path d="M400.27689,176.79472v-10.80433h40.81633v10.80433z" data-paper-data="{&quot;index&quot;:null}" fill="#cccccc" stroke="none" stroke-width="0" stroke-linecap="butt" stroke-miterlimit="10"/><path d="M397.67784,164.98799v-10.80432h40.81633v10.80432z" data-paper-data="{&quot;index&quot;:null}" fill="#cccccc" stroke="none" stroke-width="0" stroke-linecap="butt" stroke-miterlimit="10"/><path d="M73.92534,199.17451v-104.75165h109.64658v104.75165z" fill="url(#color-19)" stroke="#a7a7a7" stroke-width="5" stroke-linecap="butt" stroke-miterlimit="10"/><path d="M260.82849,199.17451v-104.75165h109.64658v104.75165z" fill="url(#color-20)" stroke="#a7a7a7" stroke-width="5" stroke-linecap="butt" stroke-miterlimit="10"/><g stroke="none" stroke-width="0" stroke-linecap="butt" stroke-miterlimit="10"><path d="M215.47661,283.55343v-67.22689h16.20648v67.22689z" fill="#804419"/><path d="M215.47661,220.42248v-5.16233h16.20648v5.16233z" fill="url(#color-21)"/><path d="M268.29778,197.11885v20.40816h-88.83553v-20.40816z" fill="#b36025"/></g><path d="M102.68311,150.93438v76.6653h-18.53981v-76.6653z" fill="url(#color-22)" stroke="none" stroke-width="0" stroke-linecap="butt" stroke-miterlimit="10"/><g stroke="none" stroke-width="0" stroke-linecap="butt" stroke-miterlimit="10"><path d="M135.57191,279.83914v-50.16422h16.20648v50.16422z" fill="url(#color-23)"/><path d="M135.57191,232.73128v-3.8521h16.20648v3.8521z" fill="url(#color-24)"/></g><g stroke="none" stroke-width="0" stroke-linecap="butt" stroke-miterlimit="10"><path d="M82.9052,279.83914v-50.16422h16.20648v50.16422z" fill="url(#color-25)"/><path d="M82.9052,232.73128v-3.8521h16.20648v3.8521z" fill="url(#color-26)"/></g><path d="M154.75016,221.45219v14.07483h-74.5022v-14.07483z" fill="#b37e59" stroke="none" stroke-width="0" stroke-linecap="butt" stroke-miterlimit="10"/><path d="M308.712,153.79152v76.6653h-18.53981v-76.6653z" fill="url(#color-27)" stroke="none" stroke-width="0" stroke-linecap="butt" stroke-miterlimit="10"/><g data-paper-data="{&quot;index&quot;:null}" stroke="none" stroke-width="0" stroke-linecap="butt" stroke-miterlimit="10"><path d="M238.21972,279.83914v-50.16421h16.20648v50.16421z" fill="url(#color-28)"/><path d="M238.21972,232.73129v-3.8521h16.20648v3.8521z" fill="url(#color-29)"/></g><g data-paper-data="{&quot;index&quot;:null}" stroke="none" stroke-width="0" stroke-linecap="butt" stroke-miterlimit="10"><path d="M290.88642,279.83914v-50.16421h16.20648v50.16421z" fill="url(#color-30)"/><path d="M290.88642,232.73129v-3.8521h16.20648v3.8521z" fill="url(#color-31)"/></g><g stroke="none" stroke-linecap="butt" stroke-miterlimit="10"><path d="M-95.34137,159.85391h44.2997v123.45642h-44.2997z" fill="#7f5a40" stroke-width="0.39947"/><g fill="none" stroke-width="1" font-family="sans-serif" font-weight="normal" font-size="12" text-anchor="start"/></g><path d="M310.10733,221.45219v14.07483h-74.5022v-14.07483z" data-paper-data="{&quot;index&quot;:null}" fill="#b27f5a" stroke="none" stroke-width="0" stroke-linecap="butt" stroke-miterlimit="10"/><g stroke="none" stroke-miterlimit="10"><path d="M-126.34137,159.85391h65.2997v123.45642h-65.2997z" fill="#b37f5a" stroke-width="0.39947" stroke-linecap="butt"/><path d="M-119.74197,167.03483l51.73996,-0.70652l-0.65218,17.1347l-51.35952,0.97826z" fill="#ffffcc" stroke-width="0.56488" stroke-linecap="butt"/><path d="M-118.72179,259.57684l52.54322,0.16304l-0.27173,14.97929h-52.27148z" fill="#ffffcc" stroke-width="0.39947" stroke-linecap="butt"/><g><path d="M-119.08501,216.06283l10.59262,0.60891v17.65488h-8.52273z" fill="url(#color-32)" stroke-width="0.4767" stroke-linecap="round"/><path d="M-115.30793,218.78915h14.34366v6.94017h-14.34366z" fill="url(#color-33)" stroke-width="0.16947" stroke-linecap="butt"/><path d="M-115.58074,227.15658l4.13979,0.24316v5.47919h-3.04405z" fill="#8b7531" stroke-width="0.4767" stroke-linecap="round"/></g></g><g data-paper-data="{&quot;index&quot;:null}" stroke="none" stroke-miterlimit="10"><path d="M519.51591,158.54956h65.2997v123.45642h-65.2997z" fill="#1f263d" stroke-width="0.39947" stroke-linecap="butt"/><path d="M526.11538,173.33918h22.44648v38.87383h-22.44648z" fill="#ffffcc" stroke-width="0.56488" stroke-linecap="butt"/><path d="M552.64343,173.425h25.50739v55.09633h-25.50739z" fill="#ffffcc" stroke-width="0.39947" stroke-linecap="butt"/><path d="M527.13553,235.66379h23.46713v37.75102h-23.46713z" fill="#ffffcc" stroke-width="0.39947" stroke-linecap="butt"/><path d="M554.1759,232.60288h23.46662v18.36545h-23.46662z" fill="#ffffcc" stroke-width="0.39947" stroke-linecap="butt"/><path d="M555.1976,254.82409h23.46662v18.36545h-23.46662z" fill="#ffffcc" stroke-width="0.39947" stroke-linecap="butt"/><g><path d="M526.7723,214.75848l10.59262,0.60891v17.65488h-8.52273z" fill="url(#color-34)" stroke-width="0.4767" stroke-linecap="round"/><path d="M530.54941,217.4848h14.34366v6.94017h-14.34366z" fill="url(#color-35)" stroke-width="0.16947" stroke-linecap="butt"/><path d="M530.27665,225.85223l4.13979,0.24316v5.47919h-3.04405z" fill="#9c7b1a" stroke-width="0.4767" stroke-linecap="round"/></g></g><path d="M436.48184,286.29352v-12.23849h83.37468v12.23849z" fill="url(#color-36)" stroke="none" stroke-width="0" stroke-linecap="butt" stroke-miterlimit="10"/><path d="M401.75957,242.52711v-28.10233h8.69148v28.10233z" data-paper-data="{&quot;index&quot;:null}" fill="#cccccc" stroke="none" stroke-width="0" stroke-linecap="butt" stroke-miterlimit="10"/><path d="M237.20464,126.29191c0.07169,-0.05209 0.16942,-0.08759 0.30265,-0.08759c0.5,0 0.5,0.5 0.5,0.5l-0.5,0.58754c-0.51488,0 -1.02977,-0.00045 -1.54466,-0.00096c-6.54004,0.81897 -13.1439,1.09623 -19.70211,1.73187c-5.35322,0.51806 -10.93504,1.33087 -16.30787,1.33299c0,0 -0.5,0 -0.5,-0.5c0,-0.5 0.5,-0.5 0.5,-0.5c5.33993,0.00221 10.89118,-0.81347 16.21155,-1.32834c6.56999,-0.63486 13.18438,-0.91706 19.7363,-1.73459c0.43471,-0.00041 0.86943,-0.00079 1.30414,-0.00092z" fill="#ff6666" stroke="none" stroke-width="0.5" stroke-linecap="butt" stroke-miterlimit="10"/><path d="M214.8024,135.90136c0.0822,0.49319 -0.411,0.5754 -0.411,0.5754l-0.56051,0.09213c-4.26391,0.09422 -8.60825,1.9831 -12.84869,1.04078c0,0 -0.48809,-0.10846 -0.37963,-0.59655c0.10846,-0.48809 0.59656,-0.37963 0.59656,-0.37963c4.10456,0.91213 8.40085,-0.9628 12.5379,-1.06018l0.48996,-0.08294c0,0 0.4932,-0.08219 0.5754,0.411z" fill="#ff6666" stroke="none" stroke-width="0.5" stroke-linecap="butt" stroke-miterlimit="10"/><path d="M236.95681,147.88899c0,0.5 -0.5,0.5 -0.5,0.5l0.01547,-0.01073c-0.05856,0.01233 -0.51685,0.11281 -0.99875,0.25493l0.64741,0.39537c0.03188,0.01873 0.0615,0.0409 0.08835,0.06599c0.3376,-0.04601 0.67626,-0.09189 1.01611,-0.1375c0.13467,-0.07989 0.2819,-0.07989 0.2819,-0.07989l0.01668,0.03995c0.08919,-0.0119 0.17847,-0.02377 0.26783,-0.03562l-0.11486,0.40194l0.24614,0.5894c-2.44689,0.3237 -4.83016,0.66688 -7.20476,0.96822c-0.05676,0.17965 -0.21223,0.31545 -0.40277,0.34376l-0.97829,0.16305l-0.01844,-0.11061c-1.19686,0.34254 -2.27728,0.34584 -3.73743,0.22745l-0.36385,-0.0295c-1.00483,0.08411 -2.01559,0.15253 -3.03637,0.20071c-0.75881,0.15723 -1.51079,0.30667 -2.24488,0.41372l0.02231,0.08032l-0.95244,0.26457c-0.04586,0.01386 -0.09451,0.02132 -0.1449,0.02132c-0.27614,0 -0.5,-0.22386 -0.5,-0.5c0,-0.07128 0.01492,-0.13908 0.0418,-0.20044c-1.74075,-0.00084 -3.48161,-0.00594 -5.22246,-0.00855c-0.65304,0.22013 -1.30708,0.42206 -1.96144,0.58865c-1.12876,0.28737 -1.58694,-0.04857 -1.62548,-0.58836c-0.92743,0.00211 -1.85483,0.00623 -2.78219,0.01339c-0.71674,0.22244 -1.44591,0.36054 -2.23565,0.35365l-0.00182,0.15512l-0.99919,-0.01171c-0.25678,-0.00258 -0.46722,-0.19872 -0.49236,-0.44949c-0.54318,0.01003 -1.08633,0.02156 -1.62946,0.03481c0,0 -0.49985,0.01219 -0.51205,-0.48766c-0.01219,-0.49985 0.48766,-0.51204 0.48766,-0.51204c0.813,-0.01983 1.62606,-0.03583 2.43916,-0.04868c0.33089,-0.31435 0.6845,-0.65028 0.8178,-0.77691c0,0 0.3625,-0.34437 0.70687,0.01812c0.34437,0.3625 -0.01812,0.70687 -0.01812,0.70687c-0.0112,0.01064 -0.0224,0.02128 -0.0336,0.03192c0.18673,-0.00214 0.37347,-0.00413 0.5602,-0.00598c1.32349,-0.46915 2.7975,-0.86067 4.00635,-1.37195l0.77485,-0.34438c0.06462,-0.03047 0.13682,-0.04751 0.213,-0.04751c0.27614,0 0.5,0.22386 0.5,0.5c0,0.06312 -0.01169,0.1235 -0.03303,0.1791l-0.32571,0.91199c-0.00823,0.04374 -0.02225,0.0943 -0.04068,0.1496c0.46111,-0.00017 0.92223,0.00003 1.38335,0.00048c0.5052,-0.14514 0.99598,-0.25543 1.32578,-0.36273c2.2968,-0.74731 8.84694,-3.46761 6.613,0.35684c0.89636,-0.01925 1.78304,-0.05588 2.6628,-0.10689c0.52904,-0.09061 1.07127,-0.19602 1.61913,-0.2969l0.56618,-0.38917l0.12945,0.18832c2.29483,-1.44346 6.38312,-2.5277 8.90095,-1.97961c0.75264,-0.41964 1.74396,-0.6474 2.06991,-0.71602l0.19055,-0.01073c0,0 0.5,0 0.5,0.5zM233.34747,148.91996c-1.42035,-0.11315 -3.2034,0.45775 -4.85727,0.99274c0.28559,0.01571 0.56764,0.04592 0.84498,0.09365c1.32094,-0.15839 2.64151,-0.33342 3.97167,-0.51435c-0.05406,-0.20734 -0.03401,-0.39778 0.04062,-0.57203zM219.94916,149.21079c-0.62322,-0.44245 -1.40435,0.60949 -2.13117,0.84593c-0.62255,0.20252 -1.24753,0.42612 -1.87434,0.65537c0.98045,0.00188 1.96088,0.00342 2.94127,0.00342c0.09696,0 0.19379,-0.00022 0.2905,-0.00065c0.41033,-0.46007 1.09073,-1.27902 0.77373,-1.50407zM210.07544,150.37225c-0.25946,0.11199 -0.51249,0.2246 -0.76081,0.33563c0.18388,-0.0005 0.36777,-0.00092 0.55166,-0.00126c0.0613,-0.11305 0.13149,-0.22528 0.20916,-0.33437zM234.33016,149.1415c-0.04461,0.05378 -0.05712,0.10709 -0.02729,0.15867c0.01143,0.01977 0.02451,0.03641 0.03908,0.05031c0.10622,-0.01457 0.21251,-0.02917 0.31889,-0.04377c-0.10559,-0.06323 -0.21596,-0.11809 -0.33068,-0.1652z" fill="#ff6666" stroke="none" stroke-width="0.5" stroke-linecap="butt" stroke-miterlimit="10"/><path d="M204.20779,159.96219c0.09485,0.49092 -0.39608,0.58577 -0.39608,0.58577l-0.02877,0.00556c-0.65201,0.12573 -1.26502,0.2571 -1.88741,0.36911l0.02219,0.05873l-0.9247,0.34936c-0.0579,0.02343 -0.12118,0.03634 -0.18748,0.03634c-0.27614,0 -0.5,-0.22386 -0.5,-0.5c0,-0.13759 0.05557,-0.2622 0.1455,-0.3526c0.00002,-0.00002 0.00005,-0.00005 0.00007,-0.00007l0.70514,-0.70893c2.54479,-2.55847 5.53287,-4.8357 8.66017,-2.19861c1.21417,-1.21188 2.606,-2.32399 3.77113,-2.61697c0.56277,-0.14151 1.4057,0.05767 2.1746,0.30824l0.00083,-0.00529l0.97995,0.15473c0.24292,0.03412 0.42983,0.24278 0.42983,0.49511c0,0.15025 -0.06627,0.28501 -0.17118,0.37667l-0.50032,0.44146c4.2679,-0.64378 9.04776,-0.68895 12.79955,0.36637l0.00859,-0.08333l0.98909,0.1019c0.25477,0.02303 0.4544,0.23717 0.4544,0.49794c0,0.24096 -0.17045,0.44212 -0.39736,0.48946l-0.9646,0.2226l-0.00412,-0.01789l-0.05173,0.02748c-1.67159,0.00662 -3.62917,0.20704 -5.52631,0.20156c-1.12146,1.02066 -2.55194,2.08411 -3.96564,1.81034c-0.6754,-0.1308 -1.24847,-0.75718 -1.78673,-1.34587c-1.65004,0.18351 -3.30923,0.33783 -4.97157,0.46154c-1.87276,1.29793 -3.87491,2.30352 -6.18334,2.78765l0.02886,0.07564l-0.92356,0.35242c-0.0583,0.02382 -0.12211,0.03695 -0.18898,0.03695c-0.27614,0 -0.5,-0.22386 -0.5,-0.5c0,-0.14007 0.0576,-0.26669 0.1504,-0.35747l0.45525,-0.44601c0.41715,-0.40868 0.81482,-0.77181 1.21059,-1.10144l0.02458,-0.24579l0.0057,0.00057c-0.0011,-0.00682 -0.0022,-0.01365 -0.0033,-0.02047l0.04985,-0.27478c-1.01301,0.03027 -2.02455,0.04852 -3.03327,0.05444c0.01232,0.0323 0.02253,0.06805 0.03017,0.1076zM219.98036,159.38669c0.7729,0.18044 1.62293,-0.27419 2.38609,-0.87141c-0.03395,-0.00253 -0.06786,-0.00517 -0.10171,-0.00791c-0.5394,0.07036 -1.07881,0.14072 -1.61821,0.21107c-0.50612,0.06602 -1.01342,0.12932 -1.52171,0.18987c0.26449,0.22842 0.54508,0.4059 0.85554,0.47837zM216.67229,157.92862c-0.12326,-0.02577 -0.24782,-0.03966 -0.37351,-0.04322c-0.31424,0.04134 -0.62723,0.08658 -0.93856,0.13596c-0.19632,0.05666 -0.39424,0.12813 -0.59315,0.20906c-0.05752,0.04623 -0.11513,0.09224 -0.17281,0.13802c0.84042,-0.07249 1.67953,-0.15278 2.51654,-0.24066c-0.14524,-0.09805 -0.29093,-0.16829 -0.43852,-0.19915zM202.66229,159.72754c0.12353,-0.02329 0.25115,-0.04345 0.38268,-0.06391c-0.04077,-0.05463 -0.07186,-0.12471 -0.08452,-0.21461c-0.10003,0.0917 -0.19943,0.18468 -0.29816,0.27852zM207.50598,158.79049c0.08801,-0.08037 0.21976,-0.13623 0.41471,-0.10079c0.08604,0.01564 0.15428,0.04359 0.20834,0.07907c0.20623,-0.00769 0.41251,-0.01586 0.61881,-0.02454c0.12308,-0.13924 0.25022,-0.28013 0.38078,-0.42156c-1.94674,-1.62731 -3.79835,-0.84325 -5.48631,0.5339c1.28383,-0.00198 2.57267,-0.02424 3.86366,-0.06608zM210.66505,158.15619c0.10324,-0.04746 0.20834,-0.09487 0.3154,-0.14236c1.13176,-0.35988 2.39686,-0.68065 3.74075,-0.94452c0.30282,-0.29908 0.60148,-0.59183 0.89725,-0.86091l0.00732,-0.04636c-0.62953,-0.02132 -1.20614,-0.35025 -1.79434,-0.20235c-0.95489,0.24011 -2.11615,1.15966 -3.16638,2.19651zM219.29052,157.88121c-0.00093,-0.01248 -0.00141,-0.0251 -0.00141,-0.03782c0,-0.08845 0.02296,-0.17152 0.06325,-0.2436c-0.45783,0.02699 -0.91586,0.06049 -1.37282,0.10118c0.09299,0.09704 0.18528,0.19851 0.27762,0.30155c0.34489,-0.03916 0.68936,-0.0796 1.03336,-0.12131zM211.54786,159.59847c-0.5749,0.03618 -1.14996,0.06866 -1.72492,0.09736c-0.4249,0.23648 -0.81792,0.4832 -1.19965,0.75399c-0.01288,0.01637 -0.02564,0.03263 -0.03828,0.0488c1.00024,-0.31714 2.1027,-0.53717 2.96285,-0.90015z" fill="#ff6666" stroke="none" stroke-width="0.5" stroke-linecap="butt" stroke-miterlimit="10"/></g></g></svg>