<svg version="1.1" xmlns="http://www.w3.org/2000/svg" xmlns:xlink="http://www.w3.org/1999/xlink" width="47.8731" height="33.40591"><g transform="translate(-219.3107,-164.629)"><g data-paper-data="{&quot;isPaintingLayer&quot;:true}" fill="#000000" fill-rule="nonzero" stroke="none" stroke-width="1.19739" stroke-linecap="butt" stroke-linejoin="miter" stroke-miterlimit="10" stroke-dasharray="" stroke-dashoffset="0" font-family="none" font-weight="none" font-size="none" text-anchor="none" style="mix-blend-mode: normal"><path d="M241.81062,164.629c1.99825,0 3.80899,0.81161 5.12038,2.1226c1.31099,1.31139 2.1226,3.12213 2.1226,5.12041c0,1.99825 -0.81161,3.80899 -2.1226,5.12038c-1.31139,1.31099 -3.12213,2.1226 -5.12038,2.1226c-1.99829,0 -3.80902,-0.81161 -5.12041,-2.1226c-1.31099,-1.31139 -2.1226,-3.12213 -2.1226,-5.12038c0,-1.99829 0.81161,-3.80902 2.1226,-5.12041c1.31139,-1.31099 3.12213,-2.1226 5.12041,-2.1226z" data-paper-data="{&quot;origPos&quot;:null}" id="ID0.3529893239028752"/><path d="M251.89229,166.67894c1.99825,0 3.80899,0.81161 5.12038,2.1226c1.31099,1.31139 2.1226,3.12213 2.1226,5.12041c0,1.99825 -0.81161,3.80899 -2.1226,5.12038c-1.31139,1.31099 -3.12213,2.1226 -5.12038,2.1226c-1.99829,0 -3.80902,-0.81161 -5.12041,-2.1226c-1.31099,-1.31139 -2.1226,-3.12213 -2.1226,-5.12038c0,-1.99829 0.81161,-3.80902 2.1226,-5.12041c1.31139,-1.31099 3.12213,-2.1226 5.12041,-2.1226z" data-paper-data="{&quot;origPos&quot;:null}" id="ID0.3529893239028752"/><path d="M259.94082,170.678c1.99825,0 3.80899,0.81161 5.12038,2.1226c1.31099,1.31139 2.1226,3.12213 2.1226,5.12041c0,1.99825 -0.81161,3.80899 -2.1226,5.12038c-1.31139,1.31099 -3.12213,2.1226 -5.12038,2.1226c-1.99829,0 -3.80902,-0.81161 -5.12041,-2.1226c-1.31099,-1.31139 -2.1226,-3.12213 -2.1226,-5.12038c0,-1.99829 0.81161,-3.80902 2.1226,-5.12041c1.31139,-1.31099 3.12213,-2.1226 5.12041,-2.1226z" data-paper-data="{&quot;origPos&quot;:null}" id="ID0.3529893239028752"/><path d="M254.71516,182.32232c1.99825,0 3.80899,0.81161 5.12038,2.1226c1.31099,1.31139 2.1226,3.12213 2.1226,5.12041c0,1.99825 -0.81161,3.80899 -2.1226,5.12038c-1.31139,1.31099 -3.12213,2.1226 -5.12038,2.1226c-1.99829,0 -3.80902,-0.81161 -5.12041,-2.1226c-1.31099,-1.31139 -2.1226,-3.12213 -2.1226,-5.12038c0,-1.99829 0.81161,-3.80902 2.1226,-5.12041c1.31139,-1.31099 3.12213,-2.1226 5.12041,-2.1226z" data-paper-data="{&quot;origPos&quot;:null}" id="ID0.3529893239028752"/><path d="M236.2153,183.54893c1.99825,0 3.80899,0.81161 5.12038,2.1226c1.31099,1.31139 2.1226,3.12213 2.1226,5.12041c0,1.99825 -0.81161,3.80899 -2.1226,5.12038c-1.31139,1.31099 -3.12213,2.1226 -5.12038,2.1226c-1.99829,0 -3.80902,-0.81161 -5.12041,-2.1226c-1.31099,-1.31139 -2.1226,-3.12213 -2.1226,-5.12038c0,-1.99829 0.81161,-3.80902 2.1226,-5.12041c1.31139,-1.31099 3.12213,-2.1226 5.12041,-2.1226z" data-paper-data="{&quot;origPos&quot;:null}" id="ID0.3529893239028752"/><path d="M226.55371,179.51626c1.99825,0 3.80899,0.81161 5.12038,2.1226c1.31099,1.31139 2.1226,3.12213 2.1226,5.12041c0,1.99825 -0.81161,3.80899 -2.1226,5.12038c-1.31139,1.31099 -3.12213,2.1226 -5.12038,2.1226c-1.99829,0 -3.80902,-0.81161 -5.12041,-2.1226c-1.31099,-1.31139 -2.1226,-3.12213 -2.1226,-5.12038c0,-1.99829 0.81161,-3.80902 2.1226,-5.12041c1.31139,-1.31099 3.12213,-2.1226 5.12041,-2.1226z" data-paper-data="{&quot;origPos&quot;:null}" id="ID0.3529893239028752"/><path d="M232.5691,172.30787c1.99825,0 3.80899,0.81161 5.12038,2.1226c1.31099,1.31139 2.1226,3.12213 2.1226,5.12041c0,1.99825 -0.81161,3.80899 -2.1226,5.12038c-1.31139,1.31099 -3.12213,2.1226 -5.12038,2.1226c-1.99829,0 -3.80902,-0.81161 -5.12041,-2.1226c-1.31099,-1.31139 -2.1226,-3.12213 -2.1226,-5.12038c0,-1.99829 0.81161,-3.80902 2.1226,-5.12041c1.31139,-1.31099 3.12213,-2.1226 5.12041,-2.1226z" data-paper-data="{&quot;origPos&quot;:null}" id="ID0.3529893239028752"/><path d="M240.21436,176.727c1.99825,0 3.80899,0.81161 5.12038,2.1226c1.31099,1.31139 2.1226,3.12213 2.1226,5.12041c0,1.99825 -0.81161,3.80899 -2.1226,5.12038c-1.31139,1.31099 -3.12213,2.1226 -5.12038,2.1226c-1.99829,0 -3.80902,-0.81161 -5.12041,-2.1226c-1.31099,-1.31139 -2.1226,-3.12213 -2.1226,-5.12038c0,-1.99829 0.81161,-3.80902 2.1226,-5.12041c1.31139,-1.31099 3.12213,-2.1226 5.12041,-2.1226z" data-paper-data="{&quot;origPos&quot;:null}" id="ID0.3529893239028752"/><path d="M245.05356,183.16246c1.99825,0 3.80899,0.81161 5.12038,2.1226c1.31099,1.31139 2.1226,3.12213 2.1226,5.12041c0,1.99825 -0.81161,3.80899 -2.1226,5.12038c-1.31139,1.31099 -3.12213,2.1226 -5.12038,2.1226c-1.99829,0 -3.80902,-0.81161 -5.12041,-2.1226c-1.31099,-1.31139 -2.1226,-3.12213 -2.1226,-5.12038c0,-1.99829 0.81161,-3.80902 2.1226,-5.12041c1.31139,-1.31099 3.12213,-2.1226 5.12041,-2.1226z" data-paper-data="{&quot;origPos&quot;:null}" id="ID0.3529893239028752"/><path d="M247.97725,175.33237c1.99825,0 3.80899,0.81161 5.12038,2.1226c1.31099,1.31139 2.1226,3.12213 2.1226,5.12041c0,1.99825 -0.81161,3.80899 -2.1226,5.12038c-1.31139,1.31099 -3.12213,2.1226 -5.12038,2.1226c-1.99829,0 -3.80902,-0.81161 -5.12041,-2.1226c-1.31099,-1.31139 -2.1226,-3.12213 -2.1226,-5.12038c0,-1.99829 0.81161,-3.80902 2.1226,-5.12041c1.31139,-1.31099 3.12213,-2.1226 5.12041,-2.1226z" data-paper-data="{&quot;origPos&quot;:null}" id="ID0.3529893239028752"/></g></g></svg>