<svg version="1.1" xmlns="http://www.w3.org/2000/svg" xmlns:xlink="http://www.w3.org/1999/xlink" width="38.69012" height="112.42524" viewBox="0,0,38.69012,112.42524"><g transform="translate(-220.29491,-94.90058)"><g data-paper-data="{&quot;isPaintingLayer&quot;:true}" fill-rule="nonzero" stroke="none" stroke-linecap="butt" stroke-linejoin="miter" stroke-miterlimit="10" stroke-dasharray="" stroke-dashoffset="0" style="mix-blend-mode: normal"><path d="M229.90489,206.31784l2.75905,-71.36004l14.98653,1.00799l-2.75905,71.36004z" fill="#333333" stroke-width="0"/><path d="M256.07245,112.35877l-0.94386,18.50865c-0.0682,1.33736 -1.19992,2.35935 -2.53738,2.29115l-24.87338,-1.26843c-1.33736,-0.0682 -2.35915,-1.20001 -2.29095,-2.53737l0.94386,-18.50865c0.06821,-1.33756 1.19981,-2.35926 2.53717,-2.29106l24.87338,1.26843c1.33746,0.0682 2.35936,1.19972 2.29115,2.53728z" fill="#333333" stroke-width="1.96901"/><path d="M245.58124,95.40545c5.83207,0.50499 10.12368,5.60321 9.61869,11.43529l-0.42906,4.95526l-26.42373,-2.28798l0.42906,-4.95526c0.50499,-5.83207 5.60903,-10.11675 11.44111,-9.61175z" fill="#333333" stroke-width="1.96901"/><g fill="#3f3f3f" stroke-width="1.96901"><path d="M245.93839,104.86482c0.88507,0.2154 1.42758,1.108 1.2114,1.99288c-0.2146,0.88516 -1.10661,1.42864 -1.99168,1.21324c-0.88497,-0.21538 -1.42748,-1.10798 -1.21133,-1.99276c0.21462,-0.88526 1.10664,-1.42874 1.99161,-1.21336z"/><path d="M238.72462,103.21211c0.88507,0.2154 1.42758,1.108 1.2114,1.99288c-0.2146,0.88516 -1.10661,1.42864 -1.99168,1.21324c-0.88497,-0.21538 -1.42748,-1.10798 -1.21133,-1.99276c0.21462,-0.88526 1.10664,-1.42874 1.99161,-1.21336z"/></g><path d="M232.29978,142.09866l0.47339,-9.28302l14.98653,0.76424l-0.47339,9.28302z" fill="#333333" stroke-width="0"/><path d="M254.25383,118.93188l-0.48541,9.51873c-0.29812,5.8461 -5.24105,10.30936 -11.08715,10.01123l-5.3836,-0.27454c-5.8461,-0.29812 -10.30936,-5.24105 -10.01123,-11.08715l0.48541,-9.51873z" fill="#333333" stroke-width="1.96901"/><path d="M255.66776,119.76142c1.26865,0.0647 1.33943,-0.19719 2.12921,0.67757c0.78988,0.87466 1.24668,2.05055 1.18199,3.31921c-0.06469,1.26855 -0.63875,2.39187 -1.51351,3.18175c-0.87466,0.78978 -2.05055,1.24658 -3.3192,1.18189c-1.26865,-0.0647 -2.39187,-0.63875 -3.18175,-1.51341c-0.78987,-0.87476 -1.24668,-2.05065 -1.18199,-3.31921c0.0647,-1.26865 0.90561,-2.72354 1.78037,-3.51332c0.87476,-0.78987 2.83624,-0.07918 4.10489,-0.01448z" fill="#333333" stroke-width="0.46042"/><path d="M225.13368,116.9527c1.26865,0.0647 2.91101,0.51363 3.70079,1.38839c0.78988,0.87466 0.72764,2.17567 0.66295,3.44432c-0.06469,1.26855 -0.63875,2.39187 -1.51351,3.18175c-0.87466,0.78978 -2.05055,1.24658 -3.3192,1.18189c-1.26865,-0.0647 -2.39187,-0.63875 -3.18175,-1.51341c-0.78987,-0.87476 -1.24668,-2.05065 -1.18199,-3.31921c0.0647,-1.26865 0.63875,-2.39197 1.51351,-3.18175c0.87476,-0.78987 2.05055,-1.24668 3.31921,-1.18199z" fill="#333333" stroke-width="0.46042"/></g></g></svg>