<svg version="1.1" xmlns="http://www.w3.org/2000/svg" xmlns:xlink="http://www.w3.org/1999/xlink" width="109.30617" height="126.02187" viewBox="0,0,109.30617,126.02187"><g transform="translate(-185.34692,-116.98906)"><g data-paper-data="{&quot;isPaintingLayer&quot;:true}" fill-rule="nonzero" stroke="none" stroke-width="1" stroke-linecap="butt" stroke-linejoin="miter" stroke-miterlimit="10" stroke-dasharray="" stroke-dashoffset="0" style="mix-blend-mode: normal"><path d="M212.61251,238.09606c9.969,-12.685 17.432,-31.982 18.075,-49.202c0.643,-17.221 15.761,-18.739 14.95,-5.4c-0.811,13.339 2.491,46.802 6.613,56.318c-9.43,4.116 -32.167,4.969 -39.638,-1.716z" fill="#808080"/><path d="M225.60751,179.99206c-17.398,0 -29.999,-14.104 -28.147,-31.502c1.853,-17.398 17.458,-31.501 34.856,-31.501c17.398,0 30,14.103 28.147,31.501c-1.852,17.398 -17.458,31.502 -34.856,31.502z" fill="#f3f3f3"/><path d="M250.94051,201.82506c-21.706,0 -37.428,-17.596 -35.117,-39.302c2.312,-21.706 21.781,-39.302 43.487,-39.302c21.706,0 37.429,17.596 35.117,39.302c-2.311,21.706 -21.781,39.302 -43.487,39.302z" fill="#f3f3f3"/><path d="M213.67551,205.15106c-17.398,0 -30,-14.104 -28.148,-31.502c1.853,-17.398 17.459,-31.501 34.857,-31.501c17.397,0 29.999,14.103 28.147,31.501c-1.853,17.398 -17.458,31.502 -34.856,31.502z" fill="#f3f3f3"/></g></g></svg>