<svg xmlns="http://www.w3.org/2000/svg" xmlns:xlink="http://www.w3.org/1999/xlink" version="1.1" width="125.3765584731135" height="117.88990228414866" viewBox="-1.5382803332822146 -2.138279999496204 125.3765584731135 117.88990228414866">
  <defs>
    <linearGradient id="grad_1" y2="1" x2="0">
      <stop offset="0" stop-color="#DBD3BC" stop-opacity="1"/>
      <stop offset="1" stop-color="#E7DEA6" stop-opacity="1"/>
    </linearGradient>
  <linearGradient id="grad_1-.4454749822616577,0,0,0.4454749822616577,-11.75,-21.95" y2="44.551" x2="26.0459" x1="26.0459" y1="10.8062" gradientUnits="userSpaceOnUse">
      <stop offset="0" stop-color="#DBD3BC" stop-opacity="1"/>
      <stop offset="1" stop-color="#E7DEA6" stop-opacity="1"/>
    </linearGradient></defs>
  <!-- Exported by Scratch - http://scratch.mit.edu/ -->
  <path id="ID0.4224610994569957" fill="#E3DAAC" stroke="none" d="M 111.7 0 C 108.941 0 106.441 1.121 104.631 2.931 C 102.821 4.741 101.7 7.241 101.7 10 C 101.7 12.759 102.821 15.259 104.631 17.069 C 106.441 18.879 108.941 20 111.7 20 C 114.459 20 116.959 18.879 118.769 17.069 C 120.579 15.259 121.7 12.759 121.7 10 C 121.7 7.241 120.579 4.741 118.769 2.931 C 116.959 1.121 114.459 0 111.7 0 Z " stroke-width="1"/>
  <path id="rect8769-9" fill="#A54436" stroke="none" stroke-width="4.27655985890321" d="M 24.1799 73.4763 L 27.1541 93.9623 C 28.9808 106.5443 40.5723 115.1967 53.1543 113.37 L 64.7408 111.6879 C 77.3227 109.8612 85.9752 98.2697 84.1485 85.6878 L 81.1743 65.2018 L 24.1799 73.4763 Z "/>
  <path id="rect9302" fill="#E25D4A" stroke="none" stroke-width="4.276559998992408" d="M 28.0063 41.3097 L 82.0999 41.3097 C 85.0084 41.3097 87.3498 43.6511 87.3498 46.56 L 87.3498 86.8118 C 87.3498 89.7203 85.0084 92.0622 82.0999 92.0622 L 28.0063 92.0622 C 25.0978 92.0622 22.7559 89.7203 22.7559 86.8118 L 22.7559 46.56 C 22.7559 43.6511 25.0978 41.3097 28.0063 41.3097 Z "/>
  <path id="ID0.4224610994569957" fill="#E3DAAC" stroke="none" d="M 10.6 22 C 7.841 22 5.341 23.121 3.531 24.931 C 1.721 26.741 0.6 29.241 0.6 32 C 0.6 34.759 1.721 37.259 3.531 39.069 C 5.341 40.879 7.841 42 10.6 42 C 13.359 42 15.859 40.879 17.669 39.069 C 19.479 37.259 20.6 34.759 20.6 32 C 20.6 29.241 19.479 26.741 17.669 24.931 C 15.859 23.121 13.359 22 10.6 22 Z " stroke-width="1"/>
  <g id="ID0.11722990404814482">
    <path id="rect8769" fill="url(#grad_1-.4454749822616577,0,0,0.4454749822616577,-11.75,-21.95)" stroke="none" stroke-width="4.276559998992408" d="M 49.0017 10.8062 C 36.2873 10.8062 26.0459 21.0339 26.0459 33.7482 L 26.0459 44.551 L 83.6511 44.551 L 83.6511 33.7482 C 83.6511 21.0339 73.4097 10.8062 60.6954 10.8062 L 49.0017 10.8062 Z "/>
    <path id="path9281" fill="#030302" stroke="none" stroke-width="4.276559998992408" d="M 63.2074 34.2067 C 63.2091 36.185 61.6059 37.7901 59.6275 37.7901 C 57.6492 37.7901 56.0459 36.185 56.0477 34.2067 C 56.0459 32.2283 57.6492 30.6233 59.6275 30.6233 C 61.6059 30.6233 63.2091 32.2283 63.2074 34.2067 Z "/>
    <path id="path9281-8" fill="#030302" stroke="none" stroke-width="4.276559998992408" d="M 79.4574 34.4067 C 79.4591 36.385 77.8559 37.9901 75.8775 37.9901 C 73.8992 37.9901 72.2959 36.385 72.2977 34.4067 C 72.2959 32.4283 73.8992 30.8233 75.8775 30.8233 C 77.8559 30.8233 79.4591 32.4283 79.4574 34.4067 Z "/>
    <path id="path9304" fill="#8b735c" stroke="none" stroke-width="4.276559998992408" d="M 88.5995 21.8282 C 85.3729 18.6047 42.0268 26.078 38.6497 34.6529 C 39.0912 33.0577 32.7494 21.086 31.4286 34.3901 C 30.7782 40.9381 24.2662 39.0885 25.167 36.2117 C 23.8091 11.0927 41.4562 5.9799 57.9998 7.4282 C 75.0414 6.9252 93.8151 27.0384 88.5995 21.8282 Z "/>
  </g>
</svg>