<svg version="1.1" xmlns="http://www.w3.org/2000/svg" xmlns:xlink="http://www.w3.org/1999/xlink" width="401.24298" height="295.93928" viewBox="0,0,401.24298,295.93928"><g transform="translate(-51.75702,-33.6903)"><g data-paper-data="{&quot;isPaintingLayer&quot;:true}" fill="#9966ff" fill-rule="nonzero" stroke="none" stroke-width="0.5" stroke-linecap="butt" stroke-linejoin="miter" stroke-miterlimit="10" stroke-dasharray="" stroke-dashoffset="0" style="mix-blend-mode: normal"><path d="M351.70943,140.37171c-2.37171,-0.79057 -1.58114,-3.16228 -1.58114,-3.16228l0.98931,-2.96718c2.82366,-9.20205 8.92495,-16.30556 15.53808,-22.99523c-0.16519,-0.45696 -0.33082,-0.91376 -0.49694,-1.37038c-3.06694,-8.43009 -6.39307,-16.5118 -9.03948,-25.11369c-2.36622,-7.09713 -4.77781,-14.16725 -7.29194,-21.21339c-0.25115,-0.70388 -0.50128,-1.4089 -0.74545,-2.11609c-3.10536,1.00164 -6.20907,1.89574 -9.35785,2.70932c-0.00624,0.01157 -0.01246,0.02312 -0.01866,0.03466c-6.14266,11.44059 -10.73563,23.77158 -15.77743,35.72207c-1.35249,2.97585 -2.9206,5.86204 -4.06716,8.92314c-2.60213,6.94722 -3.73547,14.94448 -5.45445,22.16431c-3.02226,12.69368 -5.1932,25.32453 -6.5902,38.31489c-0.41654,3.87335 -0.47578,7.9878 -0.65101,12.0955c7.62853,6.52618 15.00512,13.32961 21.96588,20.63217c2.15859,0.5365 4.31121,1.09582 6.4552,1.68691c3.10607,0.85634 6.07769,2.24023 9.24954,2.80621c0.8794,0.15691 1.78537,-0.06717 2.67837,-0.08976c1.94955,-0.04932 9.66413,1.01357 10.49219,-2.25566c0.10953,-0.43242 -0.91389,-0.14627 -1.27405,-0.40946c-0.5838,-0.4266 -0.81428,-1.28995 -1.46962,-1.59546c-2.71533,-1.26586 -5.82691,-1.39695 -8.72954,-2.1387c-3.25195,-0.83102 -6.49252,-1.70786 -9.71988,-2.62979c0,0 -2.40381,-0.6868 -1.71701,-3.09061c0.6868,-2.40381 3.09062,-1.71701 3.09062,-1.71701c4.79035,1.36893 9.61324,2.55613 14.42844,3.83087c1.71112,0.45299 3.53721,0.61254 5.12214,1.40064c1.04185,0.51806 1.7633,1.52965 2.53038,2.40454c3.42654,3.90812 4.94857,5.1888 -1.46911,9.904c-1.64155,1.20607 -3.97352,0.94024 -5.99696,1.17481c-6.49819,0.75334 -11.47602,-0.79713 -17.51694,-2.48872c8.73241,10.17726 16.32119,21.33052 23.74837,32.47042c7.17489,10.76235 11.87365,22.02491 17.26497,33.71608c3.24933,7.04622 7.01162,13.84489 9.57508,21.20504c0.56983,1.63608 0.95912,3.32635 1.33227,5.02123c3.24171,-1.61494 6.05312,-3.94829 9.02252,-6.04434c5.56326,-3.92701 9.9918,-7.75972 14.6765,-12.70186c2.21531,-2.33706 4.78536,-4.37893 6.66273,-6.99521c5.68856,-7.92752 8.2169,-17.71543 10.99203,-26.88542c1.72944,-5.71466 4.68289,-12.06526 5.46771,-17.97426c0.42281,-3.18338 -0.02694,-6.42264 -0.02694,-9.63398v-1c0,0 0,-2.5 2.5,-2.5c2.5,0 2.5,2.5 2.5,2.5v1c0,0.47934 0.00836,10.10466 -0.02694,10.36602c-0.8335,6.1702 -3.82349,12.72716 -5.62818,18.69052c-2.93767,9.70711 -5.69686,19.96489 -11.71533,28.35217c-0.13047,0.18183 -6.80261,7.21012 -7.09629,7.51994c-7.32406,7.72656 -16.2451,15.81639 -26.09878,20.25312c0.79528,2.67258 1.22073,4.69318 -3.3601,6.25137c-1.41762,0.48221 -2.90996,-0.7076 -4.36495,-1.06141c0,0 -0.98656,-0.32886 -1.47501,-1.19867c-3.18829,1.38159 -6.37656,2.76318 -9.56485,4.14477c-0.42598,0.18459 -9.26615,4.0239 -9.51087,4.09384c-4.44848,1.27145 -9.83729,1.25511 -14.42584,1.82869c-19.2136,2.4017 -40.06615,1.8207 -58.34618,-4.94968c-1.37169,-0.50803 -2.76949,-0.99442 -4.17931,-1.47478c-3.68836,3.63698 -7.37633,7.07117 -11.63303,10.15661c-2.14634,1.55576 -6.89757,4.88496 -9.49997,5.46063c-2.00883,0.44437 -4.11477,-0.00375 -6.17215,-0.00563c-1.57374,-0.82162 -3.37182,-1.31124 -4.72122,-2.46485c-3.74074,-3.19797 -6.52723,-9.06463 -8.68101,-13.37246c-4.4801,-8.96077 -7.10498,-18.93337 -9.63586,-28.60965c-0.33166,-1.26802 -0.7292,-2.5188 -1.13198,-3.76797c-4.11264,-3.63914 -8.07453,-7.45053 -11.85644,-11.44534c-1.04996,-1.10906 -2.07586,-2.24729 -3.08555,-3.4042c-0.73621,1.61905 -1.44451,3.25468 -2.11203,4.92309c-3.93942,9.84623 -9.07068,19.4641 -15.23762,28.09834c-2.40573,3.36823 -5.25329,7.73734 -8.33457,10.53153c-2.10038,1.90467 -4.90382,2.84791 -7.36561,4.25465c-1.32191,0.75538 -7.23709,4.15293 -7.59867,4.24564c-2.84824,0.73027 -7.94889,0.02204 -10.71452,-1.15815c-2.66879,-1.13886 -4.67023,-3.44502 -6.98603,-5.1933c-5.49723,-7.21575 -8.24916,-15.07357 -10.7144,-23.73261c-2.15032,-7.55289 -4.05412,-15.28446 -4.71944,-23.14157c-0.46063,-5.43985 -0.20443,-11.07479 -0.07151,-16.61306c-0.01253,0.04306 -0.0251,0.08609 -0.03773,0.1291c-0.16993,0.57882 -3.42504,8.60446 -3.65694,9.28878c-1.48998,4.39688 -2.6011,8.8233 -4.58002,13.06149c-2.26463,4.8501 -3.93465,7.91234 -4.68621,13.29661c0,0 -0.35356,2.47487 -2.82843,2.12132c-2.47487,-0.35355 -2.12132,-2.82843 -2.12132,-2.82843c0.84561,-5.80019 2.663,-9.48923 5.10667,-14.70741c1.90342,-4.06453 2.942,-8.33128 4.3743,-12.54973c1.04821,-3.08722 2.67776,-5.96759 3.59586,-9.09598c2.23699,-7.62252 2.81608,-15.93545 3.94476,-23.77436l0.07165,-0.11437l-0.04372,-0.01093l0.23644,-0.94575c-10.65045,-0.68486 -21.67629,-0.34639 -32.17568,-1.97464c-6.62597,-1.02756 -13.45042,-3.00081 -19.77714,-5.1652c-3.38043,-1.18838 -6.59597,-3.00994 -9.35318,-5.29846l-0.11678,-0.09848c0,0 -1.91113,-1.6117 -0.29943,-3.52283c1.6117,-1.91113 3.52283,-0.29943 3.52283,-0.29943l0.11678,0.09848c2.25187,1.93563 4.9331,3.45451 7.75105,4.39087c6.03712,2.07361 12.56158,3.96314 18.88508,4.94851c11.05845,1.72321 22.7346,1.20891 33.90022,2.08312c0.23245,-0.07141 0.47933,-0.10985 0.73518,-0.10985c0.39524,0 0.76907,0.09172 1.10135,0.25504c8.4969,0.6769 16.98765,1.42242 25.48032,2.15203c0.16863,-0.44628 0.33541,-0.89308 0.50014,-1.34046c0.57727,-1.56772 1.1374,-3.14297 1.68554,-4.72335c-1.14772,0.71952 -2.18895,1.32697 -2.74692,1.439c-0.08154,0.01637 -0.16319,0.03106 -0.24495,0.04415l0.0151,0.0453l-2.94464,0.98154c-0.2642,0.09499 -0.54902,0.14675 -0.84593,0.14675c-1.38071,0 -2.5,-1.11929 -2.5,-2.5c0,-1.05578 0.65447,-1.95872 1.57984,-2.32522l3.07243,-1.29874c1.37071,-1.39718 2.80621,-2.85856 4.30441,-4.32452c-7.24486,-13.12677 -13.72043,-26.70286 -19.74297,-40.46868c-1.89847,-4.34871 -3.23857,-8.53754 -4.63272,-13.06872c-1.91047,-6.2093 -4.44923,-12.76624 -5.55681,-19.16735c-0.47541,-2.74757 -0.04307,-5.57681 -0.0241,-8.36514c0.0063,-0.92673 0.13576,-9.56002 0.19861,-9.83174c0.36577,-1.58133 0.9846,-3.13526 1.79106,-4.62798c-1.97707,0.13514 -3.94076,0.40766 -5.8834,0.90346c0,0 -2.42535,0.60634 -3.03169,-1.81901c-0.60634,-2.42535 1.81902,-3.03169 1.81902,-3.03169c3.52538,-0.86552 7.07518,-1.06006 10.63723,-1.03698c2.02982,-2.27824 4.39788,-4.24601 6.7525,-5.72167c1.62733,-1.01986 3.52409,-1.47454 5.40577,-1.95869c-0.89258,-3.51518 -1.77096,-7.03711 -2.63669,-10.56689c-1.2054,-4.91469 -2.01,-9.83895 -3.00306,-14.79584c-0.57493,-2.86975 -1.45549,-5.27324 -1.59405,-7.81042c-5.50887,11.13414 -10.5823,22.08 -14.53429,33.96438c-5.66161,17.02097 -11.5947,34.16141 -14.9623,51.80363c-1.73718,9.10077 -2.75027,18.34114 -4.52558,27.44304c-0.00623,0.03193 -2.13047,9.8946 -2.13438,9.90412c-0.01054,0.02565 -0.02115,0.05128 -0.03181,0.07686l0.01042,0.00298l-1.35842,4.75447c-0.28053,1.07387 -1.25722,1.86634 -2.41899,1.86634c-1.10951,0 -2.05021,-0.72277 -2.37695,-1.72315l-0.89197,-2.52854c-4.18852,-11.89409 -7.32973,-24.36344 -10.27415,-36.62992c-1.95862,-8.17518 -2.81196,-16.51625 -4.22143,-24.79645c-1.67835,-9.85979 -4.23546,-19.61698 -5.713,-29.502c-0.65157,-4.35917 -0.79601,-8.75847 -1.5225,-13.11304c-0.93752,-5.6194 -1.97968,-11.23051 -2.72481,-16.8792c-2.12991,7.05102 -3.92097,14.21138 -5.85815,21.31507c-4.34704,19.07869 -8.83077,38.08815 -12.20196,57.35445c-1.15349,6.59215 -2.84293,13.05016 -4.11687,19.61508c-0.85844,4.42375 -0.80575,9.86467 -2.57309,14.04908l-1.07397,4.83287c-0.22941,1.14398 -1.23964,2.00574 -2.45115,2.00574c-1.33646,0 -2.42799,-1.0487 -2.49658,-2.36809l-0.17897,-2.98771c-0.85355,-5.11689 -0.7367,-9.89748 -0.99096,-15.05566c-0.55808,-11.32193 -0.89449,-22.68493 -1.83132,-33.98464c-0.00603,-8.65536 0.24878,-17.3564 -0.00032,-26.00795c-0.12493,-4.33894 -0.8334,-8.66206 -1,-13c-0.54978,-14.31538 -0.00184,-28.76749 -0.00184,-43.09594c0,0 0,-2.5 2.5,-2.5c2.5,0 2.5,2.5 2.5,2.5c0,14.26421 -0.54915,28.653 -0.00184,42.90406c0.16661,4.3382 0.87311,8.66039 1,13c0.25279,8.64505 0.00613,17.3432 -0.00032,25.99205c0.91244,10.89114 1.24863,21.84604 1.77205,32.7625c0.64726,-3.28346 1.37022,-6.54505 2.09804,-9.82661c2.08154,-9.38518 3.04375,-19.01641 5.19217,-28.37686c2.98459,-13.00355 6.03658,-26.00472 9.00641,-39.02574c2.46706,-9.05463 4.71685,-18.18919 7.68975,-27.092l0.08793,-0.11016l-0.03413,-0.0157l2.06654,-4.49095c0.38436,-0.88625 1.26712,-1.50617 2.29467,-1.50617c1.32382,0 2.40732,1.02895 2.49436,2.33071l0.32706,4.26367l-0.34123,0.02617c3.01333,11.58059 3.55742,23.97974 5.31612,35.74584c1.47244,9.85095 4.02439,19.57591 5.69703,29.4021c1.39035,8.16788 2.2152,16.40641 4.15423,24.46845c2.45659,10.23417 5.03934,20.62151 8.28537,30.6773c0.35583,-1.97765 0.98798,-3.96816 1.42147,-6.19063c0.92745,-4.75502 1.72368,-9.56232 2.50741,-14.34339c1.49191,-9.10115 2.67007,-18.29712 5.04901,-27.23005c3.43033,-12.88091 7.88813,-25.64801 12.09455,-38.29414c4.34787,-13.06794 10.01039,-25.0554 16.16108,-37.32525l0.11892,-0.10742l-0.03678,-0.02452l1.97849,-2.96774c0.44513,-0.68926 1.2201,-1.14551 2.10163,-1.14551c1.22888,0 2.25067,0.88665 2.46053,2.05512l0.9715,4.85749l-0.39324,0.07864c2.90703,9.26761 4.2311,18.96788 6.56119,28.46353c0.44574,1.81646 0.89629,3.63051 1.3517,5.44235c5.43627,-1.74327 10.92478,-3.29859 16.40793,-4.89782c12.43401,-3.62619 24.92648,-6.69618 37.47898,-9.41606c0.73646,-2.6496 1.49996,-5.29341 2.29639,-7.93117c1.70351,-5.6419 3.18985,-11.70258 5.55522,-17.10856c2.99796,-6.85175 6.68216,-13.2762 9.18317,-20.35786l0.51112,-0.30118l-0.15226,-0.15226l2,-2l0.66916,0.66916l2.05531,-1.2111c0.23702,0.77007 0.47475,1.53997 0.71307,2.3097h0.83022v2.67377c2.96631,9.52804 6.0028,19.0378 8.88833,28.58737c0.80412,2.66123 1.56638,5.34246 2.31276,8.03249c9.25341,-1.64362 18.53966,-3.20173 27.85936,-4.75469c17.42228,-3.32143 34.93527,-6.31903 52.18812,-10.43614c0.4103,-0.09791 0.8215,-0.20137 1.23353,-0.30973c0.43545,-0.79519 0.87793,-1.58683 1.32799,-2.37463c0.84482,-1.47881 3.51193,-6.18853 4.14393,-7.03335c1.29597,-1.73238 2.16131,-4.47743 4.28856,-4.87179c4.55084,-0.84366 5.40793,6.86048 5.89546,8.73109c0.03969,0.15228 0.07972,0.30451 0.12009,0.45667c4.08357,-1.23436 8.18058,-2.16249 12.24188,-2.20105c0,0 2.5,0 2.5,2.5c0,2.5 -2.5,2.5 -2.5,2.5c-3.58256,-0.04449 -7.2489,1.1318 -10.75417,2.34798c2.44235,7.86391 5.54033,15.60369 8.13491,23.38908c2.545,8.27025 5.71782,16.04515 8.68368,24.12909c1.1012,-1.08228 2.20165,-2.16226 3.28911,-3.2474c5.01329,-3.84246 9.8259,-7.76281 15.61906,-10.39787c8.73521,-3.97327 17.96275,-5.59176 27.06489,-8.38516c7.85196,-2.40972 15.37076,-4.89001 23.38814,-6.76884c3.74908,-0.87858 6.71574,-2.03025 10.57438,-2.06688c0,0 2.5,0 2.5,2.5c0,2.5 -2.5,2.5 -2.5,2.5c-3.38935,-0.04209 -6.09921,1.15105 -9.42562,1.93312c-7.91228,1.86025 -15.31863,4.30372 -23.06997,6.68256c-8.90036,2.73147 -17.93058,4.30108 -26.477,8.16344c-5.33829,2.41252 -9.75655,6.08019 -14.38094,9.60213c-1.54391,1.54743 -3.13245,3.08624 -4.71757,4.6409c7.5521,21.10003 14.3718,42.41526 24.38079,62.52114c1.88668,5.63718 3.30675,10.84724 6.46029,15.8717c1.31462,2.09456 3.51096,4.46127 4.72798,6.99744c0.00447,-0.3046 0.00687,-0.60892 0.00203,-0.91243c-0.04356,-2.72843 0.18205,-5.45623 0.39085,-8.17702c0.21185,-2.76064 0.07761,-5.57203 0.65141,-8.28068c1.41021,-6.65696 4.19539,-13.04279 6.68825,-19.33862l0.44508,-1.12405c0,0 0.92036,-2.32442 3.24478,-1.40406c2.32442,0.92036 1.40406,3.24478 1.40406,3.24478l-0.44507,1.12405c-2.37422,5.99621 -5.05624,12.07866 -6.4216,18.41328c-1.05457,4.89272 -0.89024,10.54605 -0.95774,15.54231c-0.02272,1.68222 1.1035,10.8602 -4.45164,10.03259c-2.34334,-0.34911 -3.00311,-3.66774 -4.41088,-5.57333c-2.78614,-3.77139 -5.76054,-8.22615 -7.89917,-12.39401c-1.86973,-3.64381 -2.76033,-8.22865 -4.04801,-12.10854c-9.75866,-19.42295 -16.42664,-40.07025 -23.67588,-60.51459c-5.45035,5.63202 -10.36246,11.71336 -12.63202,19.31562l-1.01069,3.03282c0,0 -0.79057,2.37171 -3.16228,1.58114zM268.35137,308.22051c-5.29742,-2.5534 -10.28222,-7.01202 -15.13654,-10.33382c-5.14778,-3.52261 -10.16335,-7.24383 -15.00381,-11.18c1.62687,5.33396 3.4476,10.63329 5.13876,15.83372c2.42901,7.46942 6.47749,18.19169 13.748,22.03211c8.03352,-0.01184 15.03728,-6.56027 20.89612,-12.52501c-3.30216,-1.13882 -6.5757,-2.34877 -9.64253,-3.827zM206.8334,254.42882c-7.65011,-9.00836 -14.57801,-18.49813 -20.935,-28.34511c-3.50678,-0.28189 -7.01238,-0.57512 -10.51741,-0.8735c-4.22581,10.56262 -9.26038,20.90257 -12.78997,31.68089c-2.00303,6.11666 -3.56877,12.80882 -4.88741,19.10966c-0.62955,3.00815 -1.34991,6.01932 -1.57545,9.08434c-0.06368,0.86544 -0.26228,1.91434 0.28513,2.58769c0.31235,0.38421 0.53477,-0.83351 0.80216,-1.25026c6.07311,-2.4309 12.26193,-4.73847 18.13222,-7.64111c5.21947,-2.58083 9.95443,-6.22736 15.06137,-9.02899c6.63265,-3.63862 13.52935,-7.11977 20.60055,-10.2939c-1.3865,-1.69009 -2.77109,-3.37667 -4.17618,-5.02971zM283.93956,75.46106c-9.16845,1.52839 -18.30449,3.06034 -27.40864,4.67398c0.80516,2.94722 1.60995,5.89696 2.4483,8.83462c0.70076,-0.46965 1.52078,-0.46965 1.52078,-0.46965c4.64414,0.03828 6.95055,-0.61432 11.10349,2.32837c5.10456,3.61698 8.07842,11.58207 9.67915,17.31102c2.377,8.50717 5.81172,17.76065 6.70243,26.58783c0.95779,9.49201 0.27504,19.88983 -0.283,29.41096c-0.02837,0.48226 -0.05955,0.96337 -0.0935,1.4434c0.92834,0.66772 1.84323,1.35479 2.74289,2.06333c4.0541,3.2006 8.073,6.4321 12.0346,9.72438c0.08007,-2.95877 0.16506,-5.8713 0.45873,-8.60205c1.41933,-13.19793 3.62659,-26.04073 6.6975,-38.93838c1.76072,-7.39489 2.94832,-15.52654 5.59694,-22.65151c0.06919,-0.18613 4.06049,-8.95772 4.20891,-9.28419c4.55075,-10.78939 8.83535,-21.74234 14.0651,-32.22311c-16.37502,3.78566 -32.9647,6.6454 -49.47368,9.79102zM184.2596,96.29933c-5.53926,1.61561 -11.08482,3.18426 -16.57461,4.95307c0.33459,1.30349 0.6717,2.60594 1.01136,3.90741c8.29345,-1.45194 15.87535,-5.32073 23.65783,-8.39516l2.04708,-1.01025c0,0 2.24561,-1.09875 3.34436,1.14686c1.09875,2.2456 -1.14686,3.34435 -1.14686,3.34435l-2.4075,1.16933c-7.9777,3.15154 -15.74566,7.02008 -24.21639,8.59413c3.37259,12.66368 6.98797,25.24419 10.85545,37.81351c2.55966,8.32029 5.08467,16.97344 8.10078,25.41262c2.02362,-5.2355 4.04731,-10.47098 6.07085,-15.70651l0.16618,-0.42996c0,0 0.90127,-2.33189 3.23316,-1.43061c2.33189,0.90127 1.43061,3.23316 1.43061,3.23316l-0.16618,0.42996c-2.69404,6.97036 -5.38779,13.94082 -8.08184,20.91118c1.56345,3.88454 3.26739,7.68833 5.16618,11.35484c0.10116,-0.0197 0.20246,-0.03875 0.30389,-0.05714c0.44066,-0.0799 0.88485,-0.12201 1.33128,-0.14031c1.04824,-5.24715 1.7625,-10.52528 2.64818,-15.80713c1.111,-6.62551 2.22734,-13.25448 3.3803,-19.87816c0.30092,-2.96599 0.68043,-6.4738 0.82712,-6.78508c0.17512,-0.3716 0.35904,-0.71158 0.55154,-1.02377c2.47552,-13.80716 5.1639,-27.57627 8.34906,-41.22769c1.49687,-6.4155 3.04456,-12.80203 4.72378,-19.15632c-11.58629,2.55707 -23.12112,5.42772 -34.60561,8.77768zM158.71661,104.184c-0.70618,0.45693 -1.4296,0.97791 -2.14811,1.5525c2.38087,0.07546 4.76363,0.1152 7.1447,-0.01494c-0.26708,-1.02366 -0.53284,-2.04783 -0.79734,-3.07253c-1.47718,0.3497 -2.94289,0.72205 -4.19925,1.53498zM149.07493,116.25538c-0.62988,2.85239 -0.05514,5.84196 -0.075,8.76301c-0.0173,2.54491 -0.47347,5.12988 -0.0241,7.63486c1.10178,6.14172 3.5484,12.42488 5.38404,18.39043c1.34052,4.35649 2.60378,8.35977 4.43462,12.53506c5.78805,13.22983 11.9937,26.29365 18.91407,38.94306c0.15566,-0.13971 0.3119,-0.27902 0.46871,-0.41786c0.78763,-2.40924 1.57674,-4.81665 2.38512,-7.2139c1.8648,-4.82654 3.72996,-9.65294 5.59528,-14.47927c-3.97902,-10.21922 -6.99504,-21.00794 -10.10627,-31.11777c-3.95319,-12.84789 -7.60851,-25.71413 -11.04411,-38.65433c-4.32864,0.28301 -8.70918,-0.07931 -13.06233,-0.19617c-1.37073,1.81804 -2.42603,3.80214 -2.87005,5.81288zM210.64309,251.19058c1.67749,1.97352 3.32478,3.99649 4.98151,6.01564c0.25713,-0.52251 0.51523,-1.04569 0.77391,-1.57004c3.01983,-6.05417 5.9647,-11.85271 9.88259,-17.38367l0.88495,-2.15028c0.36073,-0.93718 1.26968,-1.60223 2.33396,-1.60223c1.38071,0 2.5,1.11929 2.5,2.5v5c0.47979,2.96497 0.04506,6.15006 -0.07743,9.24992c5.96696,-1.98838 11.99225,-3.6771 18.02748,-4.98531c9.76372,-2.10982 19.33737,-4.49239 28.95687,-7.18317c3.25968,-0.9118 6.70033,-2.08241 9.95151,-3.64764l-1.18354,0.06052c-7.91009,2.22377 -17.2712,0.35321 -25.28446,-0.28188c-22.96795,-1.82031 -45.8237,-5.38738 -68.64413,-8.51953c-0.52289,-0.03897 -1.04575,-0.07831 -1.56857,-0.11798c5.66201,8.52514 11.78168,16.75999 18.46535,24.61563zM223.5067,266.32976c2.02381,2.13774 4.10036,4.22133 6.22499,6.25271c-0.28124,-2.81171 -0.66159,-6.86615 -0.74264,-7.40436c-0.08041,-0.53389 -0.87638,-4.35643 -1.43386,-7.10907c-2.82049,1.04059 -5.62383,2.14499 -8.40428,3.30358c-0.00754,0.01549 -0.01508,0.03097 -0.02262,0.04645c1.42506,1.67678 2.8766,3.32433 4.37841,4.91069zM256.03825,293.76015c4.66663,3.19255 9.51242,7.59153 14.61039,10.01934c3.55777,1.69432 7.3943,3.02491 11.22163,4.31471l0.86197,-0.86196c0,0 1.76776,-1.76776 3.53553,0c0.94486,0.94486 0.87968,1.88972 0.61424,2.56465c0.75329,0.26344 1.50114,0.53092 2.24125,0.80503c17.52941,6.49237 37.56609,6.97996 55.98943,4.67704c4.34541,-0.54318 9.51826,-0.47817 13.7286,-1.69062c3.08963,-0.88972 5.89014,-2.57993 8.84025,-3.85831c4.9925,-2.16341 9.985,-4.32684 14.9775,-6.49025c-0.48631,-1.81383 -0.90001,-3.64691 -1.53222,-5.45364c-1.37644,-3.93358 -3.12995,-7.96641 -4.90005,-11.74574c-6.69198,-14.28803 -12.57957,-28.81265 -21.3539,-41.97416c-8.6467,-12.97108 -17.50607,-25.97892 -28.20717,-37.36763c-0.05189,-0.05523 -0.10381,-0.11042 -0.15575,-0.16559c-6.37367,-1.55431 -12.79525,-2.92434 -19.19508,-4.34653c-0.10863,-0.02415 -0.21731,-0.04828 -0.32604,-0.0724c2.61782,5.47153 2.25492,10.92406 0.99184,17.17916c-0.36357,1.8005 -0.40499,3.704 -1.1221,5.39508c-5.41935,12.77989 -19.31201,17.16245 -31.41531,20.55775c-8.10122,2.2726 -16.21411,4.12881 -24.43715,5.9057c-6.2906,1.35485 -12.57399,3.14277 -18.79008,5.26236c0.4621,2.68865 1.31045,5.31812 1.71725,8.01934c0.48922,3.24847 0.30888,6.5915 0.98802,9.80563c0.27554,1.30403 0.57755,2.60897 0.90133,3.91389c6.40915,5.61088 13.18565,10.79775 20.21561,15.60712zM347.28732,55.45705c-0.2616,-1.09946 -0.60947,-2.18563 -0.82183,-3.29419c-0.46771,1.75565 -1.41097,3.54432 -2.48748,5.29213c1.16535,-0.3982 2.33459,-0.80384 3.50655,-1.20296c-0.06821,-0.26436 -0.13403,-0.52934 -0.19724,-0.79498zM209.71411,160.81461c1.45693,0.8094 3.17229,1.76238 4.62922,2.57179c11.45789,6.37011 23.6597,11.33844 35.78832,16.2664c7.6278,3.09924 15.28314,6.39392 23.11163,8.96025c1.64432,0.53904 3.30791,1.05049 4.9861,1.53892c1.67374,-5.8893 2.8917,-11.71162 3.66908,-17.67452c-0.61167,-1.99015 -1.21938,-3.98366 -1.8597,-5.96912c-5.59661,-3.51029 -11.56793,-6.46289 -17.49261,-9.32628c-6.50477,-3.14373 -13.58576,-7.10173 -20.65438,-8.75716c-3.14726,-0.73707 -6.41732,-0.7824 -9.62462,-1.18454c-6.2791,-0.78729 -11.64198,-1.35558 -17.57097,0.8561c-1.22396,0.45657 -3.07878,0.82146 -4.19552,1.88308c-0.47573,2.66702 -0.94379,5.33539 -1.40626,8.00451c-0.00309,0.70314 -0.02323,1.40282 -0.09258,2.09189c-0.00045,0.16022 -0.00011,0.32015 0.00098,0.47978c0.42407,0.09931 0.71131,0.25889 0.71131,0.25889zM308.39952,197.30558c3.86121,0.85805 7.73004,1.6978 11.59166,2.56982c-4.29252,-4.22243 -8.72025,-8.28411 -13.2471,-12.23472c-0.30897,2.99468 -0.81457,5.9161 -1.71009,8.66306c-0.02465,0.07397 -0.05145,0.15539 -0.08026,0.24368c1.15346,0.25192 2.30254,0.50418 3.4458,0.75816zM271.75673,193.38695c-7.96378,-2.60163 -15.7504,-5.95027 -23.5072,-9.10192c-12.31777,-5.00482 -24.69437,-10.06569 -36.33442,-16.52785c-0.84462,-0.46923 -1.68924,-0.93847 -2.53386,-1.4077c1.02346,8.27462 4.02123,15.86533 7.82695,23.47676c0.90854,1.81708 1.50684,3.82955 2.53684,5.56807c1.29374,-0.25472 2.58611,-0.51005 3.87628,-0.76808l0.38838,-0.07767c0,0 2.45145,-0.49029 2.94174,1.96116c0.49029,2.45145 -1.96116,2.94174 -1.96116,2.94174l-0.38838,0.07768c-0.42772,0.08554 -0.85565,0.17078 -1.28376,0.25578c7.08353,7.68169 16.86608,14.53913 26.12823,18.3434c5.92753,2.43463 12.86624,3.55721 19.04665,5.27575c5.82966,1.92369 11.62884,3.88847 17.53169,5.5746l0.02752,0.01771l0.00265,-0.00847l4.71715,1.47754c1.04359,0.30046 1.80699,1.26243 1.80699,2.4027c0,0.19657 -0.02269,0.38784 -0.06558,0.57134c4.19973,-2.60207 7.76941,-6.0516 9.74191,-10.70314c0.5843,-1.3779 0.53621,-2.94499 0.82057,-4.4144c1.00958,-5.21695 1.68748,-9.84809 -0.73194,-14.41559c-0.76168,1.77783 -1.56669,3.22603 -2.2696,3.52677c-1.67889,0.71831 -3.33733,-1.65452 -4.60249,-2.97135c-1.00339,-1.04438 -1.31979,-2.57843 -1.9719,-3.8716c-0.27307,-0.54152 -0.54353,-1.08396 -0.81174,-1.62724c-3.69414,-0.83811 -7.3864,-1.71704 -11.03354,-2.67966c-0.21006,0.68197 -0.42478,1.36431 -0.64404,2.04721c-1.10154,3.4307 -2.92149,6.71513 -5.30195,9.42002c-1.32665,1.50745 -2.33867,3.42837 -4.07526,4.43667c-1.18662,0.68897 -2.73339,0.25993 -4.10451,0.31267c-3.14083,0.1208 -6.28631,-0.01332 -9.42941,-0.03211l-3.39011,-1.09601c0,0 -2.37171,-0.79057 -1.58114,-3.16228c0.79057,-2.37171 3.16228,-1.58114 3.16228,-1.58114l2.60989,0.90399c0.8127,-0.00571 7.4784,-0.06331 8.57059,-0.03211c0.67433,0.01926 1.45761,0.54853 2.01659,0.17086c1.10084,-0.74376 1.57665,-2.14022 2.41893,-3.16764c0.9551,-1.16503 2.22953,-2.0945 2.97035,-3.40625c0.15308,-0.27106 1.17093,-3.61405 1.93399,-6.1541c-1.70063,-0.49423 -3.38687,-1.01141 -5.05417,-1.55609zM287.32539,187.58744c-0.7661,-1.66231 -1.45691,-3.34974 -2.09701,-5.05464c-0.62561,2.99652 -1.35283,5.97623 -2.17339,8.95463c2.27523,0.59994 4.56868,1.16648 6.86923,1.71051c-0.87347,-1.86517 -1.73515,-3.73649 -2.59882,-5.61049zM187.64087,207.96963c-1.93787,0.60313 -3.86833,1.24247 -5.76963,1.95574c2.21746,3.83596 4.50799,7.62814 6.88022,11.36931c1.83993,0.14562 3.6802,0.2879 5.52089,0.42598c24.45385,3.34455 48.8878,6.95202 73.4975,8.90245c3.01873,0.23925 6.02811,0.72454 9.05361,0.77796c-3.26758,-1.04609 -6.5212,-2.13527 -9.78399,-3.21296c-6.33819,-1.76046 -13.41332,-2.9377 -19.49276,-5.43473c-10.80595,-4.43836 -22.26174,-12.68624 -29.90905,-21.8496c-10.08041,1.98179 -20.19616,4.01558 -29.99679,7.06586zM177.27383,220.29432c-0.00668,0.01814 -0.01335,0.03626 -0.02004,0.05439c1.76779,0.14978 3.53573,0.29813 5.3039,0.44428c-1.1644,-1.88507 -2.30936,-3.78213 -3.43589,-5.69031c-0.59993,1.73747 -1.21368,3.46907 -1.84797,5.19164zM205,194c0,2.16573 -1.87616,2.4553 -2.37787,2.49402c-0.134,0.93948 -0.34476,1.84405 -0.86004,2.60792c4.28497,-0.97714 8.59655,-1.85394 12.90473,-2.70729c-0.66664,-1.42983 -1.22782,-2.9265 -1.93075,-4.33235c-2.75383,-5.50766 -5.05195,-10.98709 -6.59763,-16.67937c-0.0573,0.34148 -0.11458,0.68294 -0.17185,1.02439c-0.85515,5.09874 -1.46234,10.22091 -2.5086,15.27987c0.70531,0.25693 1.542,0.86652 1.542,2.3128zM183.63397,204.13291c4.01621,-1.37611 8.09759,-2.55513 12.21692,-3.60681l-0.11717,-0.24771l-0.70324,0.11084l-0.37056,-2.35112c-0.04265,-0.07001 -0.08522,-0.1401 -0.12768,-0.21027c-3.93002,1.35249 -7.53058,3.62705 -10.89827,6.30507zM283.01493,135.27279c-0.69536,-6.96865 -3.4439,-14.25238 -5.25619,-20.9873c-1.65608,-6.15443 -3.496,-15.28193 -9.07747,-19.39995c-2.71644,-2.00419 -5.04917,-1.41675 -8.18128,-1.38554c0,0 -0.07421,0 -0.19706,-0.01278c1.08436,3.59239 2.24583,7.15515 3.54753,10.66112c2.1032,5.66474 4.68662,11.06347 6.60238,16.8045c4.23959,12.71876 8.45015,25.45518 12.5324,38.22978c0.45231,-7.91188 0.79694,-16.22057 0.02968,-23.90984zM188.94246,187.07623c-1.22565,3.17078 -2.4514,6.34153 -3.67731,9.51221c2.11435,-1.39499 4.31078,-2.60198 6.58579,-3.52027c-1.02618,-1.95439 -1.99261,-3.95531 -2.90848,-5.99194zM192.81389,274.13612c-5.14324,2.82155 -9.90784,6.47472 -15.16154,9.08246c-5.96704,2.96182 -12.25837,5.31687 -18.43731,7.7867c-1.54277,0.44065 -3.2936,2.21236 -4.62831,1.32193c-0.21223,-0.14159 -0.4114,-0.29828 -0.5985,-0.46812c1.86387,5.93358 4.13342,11.57191 7.97571,16.65751c1.8819,1.392 3.46499,3.28573 5.60891,4.2253c5.52789,2.42261 9.0664,-0.27227 13.68681,-2.91251c2.20493,-1.25996 4.76998,-2.02105 6.63439,-3.74535c2.74554,-2.53922 5.32779,-6.59597 7.47781,-9.60581c5.93513,-8.30865 10.87452,-17.57339 14.66391,-27.04909c0.68073,-1.70225 1.4026,-3.3718 2.15282,-5.02456c-6.64883,3.01824 -13.13435,6.30813 -19.3747,9.73154zM151.98259,280.01975c0.52148,-3.36359 1.24862,-6.69709 2.09171,-9.9948c1.24015,-4.85082 2.20725,-9.933 3.76499,-14.68989c3.40623,-10.4016 8.20025,-20.39498 12.33401,-30.57124c-7.39041,-0.63679 -14.77963,-1.2829 -22.1733,-1.88041v2.1166c0.56322,2.94665 0,6 0,9c0,10.13405 -0.86899,20.71968 -0.00728,30.80937c0.51611,6.04304 1.80546,12.00445 3.35989,17.86435c0.21487,-0.88545 0.49332,-1.77252 0.62998,-2.65398zM227,247c0,-0.20194 -0.00631,-0.40472 -0.01664,-0.60802c-1.59475,2.69622 -3.05666,5.44517 -4.49156,8.25985c1.49824,-0.58066 3.00191,-1.14471 4.51022,-1.69082c-0.00295,-2.15438 -0.00203,-5.16628 -0.00203,-5.96101zM212.94055,143.4148c6.74097,-2.5384 12.85045,-2.02023 19.94677,-1.13583c0.40258,0.05017 10.00339,1.24475 10.22093,1.29616c7.4133,1.75188 14.79116,5.80785 21.6136,9.10512c4.35705,2.10575 8.72318,4.26544 12.95964,6.64176c-4.00245,-12.25906 -7.89333,-24.55185 -11.97205,-36.78801c-1.89781,-5.69987 -4.47419,-11.05744 -6.55989,-16.68233c-2.99925,-8.08859 -5.50886,-16.41056 -7.91825,-24.76686c-8.98854,1.62958 -17.94601,3.35381 -26.87291,5.24818c-1.92449,7.1204 -3.6681,14.28229 -5.34773,21.48108c-2.78985,11.95717 -5.19585,24.00532 -7.41166,36.09013c0.43416,-0.15658 0.88156,-0.31617 1.34156,-0.48939zM244.10937,56.73137c-1.26934,-4.04467 -2.18751,-8.20016 -3.41886,-12.25658c-0.12669,-0.41733 -0.28833,-0.82804 -0.46081,-1.23651c-2.15804,5.37895 -5.08087,10.40013 -7.4199,15.7182c-2.30629,5.24363 -3.73435,11.1623 -5.3882,16.64075c-0.53368,1.76784 -1.0524,3.53841 -1.55799,5.31165c7.97037,-1.66231 15.96498,-3.19599 23.98423,-4.65359c-1.86611,-6.5422 -3.71677,-13.08195 -5.73847,-19.52392zM287.25324,171.56932c-0.06589,-0.05215 -0.13187,-0.10419 -0.19795,-0.15609c-0.01907,0.16033 -0.03846,0.32056 -0.05815,0.48069c0.61502,1.97512 1.22619,3.95131 1.83317,5.92865c1.70837,5.56535 4.39523,10.85071 6.92296,16.09446c0.11127,0.23083 0.22371,0.46107 0.33702,0.69089c1.31209,0.29184 2.62328,0.57954 3.93151,0.8651c0.09654,-0.25618 0.18753,-0.50666 0.26878,-0.75043c1.16126,-3.38888 1.62959,-7.16548 1.85933,-11.02749c-4.88162,-4.12877 -9.86165,-8.15077 -14.89666,-12.12579z"/></g></g></svg>