<svg version="1.1" xmlns="http://www.w3.org/2000/svg" xmlns:xlink="http://www.w3.org/1999/xlink" width="51.25" height="34.0886" viewBox="0,0,51.25,34.0886"><g transform="translate(-214.375,-144.53125)"><g data-paper-data="{&quot;isPaintingLayer&quot;:true}" fill-rule="nonzero" stroke="none" stroke-linecap="butt" stroke-linejoin="miter" stroke-miterlimit="10" stroke-dasharray="" stroke-dashoffset="0" style="mix-blend-mode: normal"><path d="M230.69424,176.81019c0,-1.80907 1.80907,-1.80907 1.80907,-1.80907h1.58293c3.26497,0 6.57829,0.16 9.83746,0.0035c0.36461,-0.01751 0.9155,-0.12975 1.51354,-0.22318c-1.54834,-0.19348 -3.11201,-0.40209 -4.65711,-0.46096c-3.04045,-0.11585 -6.20493,0.57333 -9.04766,-0.8486c-2.00671,-1.00376 -4.64445,-2.78887 -3.32226,-5.86208c0.49094,-1.14112 2.14394,-1.33733 3.35106,-1.63065c2.41686,-0.58729 6.73699,-0.22571 9.2582,-0.01719c1.19452,0.0988 2.41255,0.49262 3.59323,0.37757c-1.12148,-0.14674 -2.42133,-0.55609 -3.02781,-0.61986c-0.77938,-0.08196 -1.56541,-0.11165 -2.33915,-0.23606c-1.1976,-0.19256 -2.37884,-0.47587 -3.56825,-0.71381c-1.77451,-0.56661 -6.29905,-1.32584 -6.09919,-4.47141c0.08283,-1.30374 1.91598,-1.83855 3.09106,-2.40933c0.10326,-0.05016 0.20869,-0.09587 0.3161,-0.1374c-0.02991,0.00668 -0.05981,0.01343 -0.08969,0.02025c0,0 -1.76599,0.39244 -2.15843,-1.37354c-0.39244,-1.76599 1.37354,-2.15843 1.37354,-2.15843c4.33827,-0.94253 9.70439,-1.26942 14.1387,-0.71268c1.55518,0.19526 5.13474,0.75357 5.44044,3.03093c0.62911,4.68657 -7.25127,5.46922 -10.2078,5.32598c-1.24198,-0.06017 -2.45013,-0.43676 -3.68619,-0.57193c-0.45616,-0.04988 -0.91464,-0.07987 -1.37371,-0.09524c0.0489,0.01656 0.09666,0.03175 0.1431,0.04531c3.1986,0.63956 6.79088,0.58862 9.90278,1.57168c0.99825,0.31535 2.41218,0.27081 2.90452,1.19469c1.70582,3.20101 -0.94105,4.81889 -3.20373,5.68575c-2.12601,0.8145 -3.32196,0.03184 -5.44795,-0.14669c-1.82827,-0.15352 -3.66942,0.01353 -5.50412,0.00617c-0.95872,-0.00385 -1.92062,0.05563 -2.87608,-0.02336c-0.25569,-0.02114 -0.47173,-0.34107 -0.71934,-0.27385c-0.19574,0.05314 0.3338,0.23162 0.51092,0.33043c0.37432,0.20881 0.74597,0.42695 1.14174,0.5915c1.23425,0.51314 2.6413,0.51055 3.97796,0.50595c3.53732,-0.01218 6.93412,0.27436 10.43465,0.74456c1.72812,0.84795 5.50395,1.79821 3.84961,5.26009c-0.57258,1.19818 -2.34789,1.2817 -3.61942,1.6647c-0.62539,0.18837 -1.30756,-0.02614 -1.95936,0.01568c-3.95213,0.2536 -7.90268,0.22963 -11.87134,0.22963h-1.58293c0,0 -1.80907,0 -1.80907,-1.80907zM235.0197,157.39837c2.22127,-0.03742 4.75123,0.75955 6.59537,0.8701c1.52043,0.09114 2.80092,-0.31743 4.24803,-0.6267c0.35981,-0.0769 0.71913,-0.157 1.07961,-0.23085c-1.01756,-0.0588 -2.356,-0.27511 -2.68047,-0.27433c-3.0458,0.00732 -6.20159,-0.13043 -9.24254,0.26179z" fill="#808080" stroke-width="0.5"/><path d="M214.375,157.96875v-13.4375h51.25v13.4375z" fill="#f3f3f3" stroke-width="0"/></g></g></svg>