<svg version="1.1" xmlns="http://www.w3.org/2000/svg" xmlns:xlink="http://www.w3.org/1999/xlink" width="473.07831" height="353.05566" viewBox="0,0,473.07831,353.05566"><g transform="translate(4,-44.17187)"><g data-paper-data="{&quot;isPaintingLayer&quot;:true}" fill-rule="nonzero" stroke="none" stroke-width="0" stroke-linecap="butt" stroke-linejoin="miter" stroke-miterlimit="10" stroke-dasharray="" stroke-dashoffset="0" style="mix-blend-mode: normal"><path d="M56,393.62275v-250.79463h41v250.79463z" fill="#e5e5e5"/><path d="M-4,150.82812v-38h160v38z" fill="#e5e5e5"/><path d="M192.31055,394.17188v-350h139.52015v350z" fill="#e5e5e5"/><path d="M369.07831,394.69185v-200h100v200z" fill="#e5e5e5"/><g fill="#f2f2f2"><path d="M206,99.17188v-45h30v45z"/><path d="M246,99.17188v-45h30v45z"/><path d="M286,99.17188v-45h30v45z"/></g><g fill="#f2f2f2"><path d="M206,154.17188v-45h30v45z"/><path d="M246,154.17188v-45h30v45z"/><path d="M286,154.17188v-45h30v45z"/></g><g fill="#f2f2f2"><path d="M206,209.17188v-45h30v45z"/><path d="M246,209.17188v-45h30v45z"/><path d="M286,209.17188v-45h30v45z"/></g><g fill="#f2f2f2"><path d="M206,264.17188v-45h30v45z"/><path d="M246,264.17188v-45h30v45z"/><path d="M286,264.17188v-45h30v45z"/></g><g fill="#f2f2f2"><path d="M206,319.17188v-45h30v45z"/><path d="M246,319.17188v-45h30v45z"/><path d="M286,319.17188v-45h30v45z"/></g><path d="M206,374.17188v-45h30v45z" fill="#f2f2f2"/><path d="M246,397.22754v-68.05566h30v68.05566z" fill="#f2f2f2"/><path d="M286,374.17188v-45h30v45z" fill="#f2f2f2"/><path d="M383.32246,340.87341v-135h30v135z" fill="#f2f2f2"/><path d="M423.32246,250.87341v-45h30v45z" fill="#f2f2f2"/><path d="M423.32246,395.87388v-135h30v135z" fill="#f2f2f2"/><path d="M383.32246,395.87388v-45h30v45z" fill="#f2f2f2"/></g></g></svg>