<svg version="1.1" xmlns="http://www.w3.org/2000/svg" xmlns:xlink="http://www.w3.org/1999/xlink" width="107.11339" height="126.02187" viewBox="0,0,107.11339,126.02187"><defs><linearGradient x1="238.929" y1="111.57603" x2="238.929" y2="179.99987" gradientUnits="userSpaceOnUse" id="color-1"><stop offset="0" stop-color="#a16f55"/><stop offset="1" stop-color="#c1747e"/></linearGradient><linearGradient x1="219.5085" y1="53.978" x2="219.5085" y2="116.981" gradientUnits="userSpaceOnUse" id="color-2"><stop offset="0" stop-color="#00e508"/><stop offset="1" stop-color="#00b333"/></linearGradient><linearGradient x1="248.146" y1="60.21" x2="248.146" y2="138.814" gradientUnits="userSpaceOnUse" id="color-3"><stop offset="0" stop-color="#00e508"/><stop offset="1" stop-color="#00b333"/></linearGradient><linearGradient x1="212.012" y1="79.137" x2="212.012" y2="142.14" gradientUnits="userSpaceOnUse" id="color-4"><stop offset="0" stop-color="#00e508"/><stop offset="1" stop-color="#00b333"/></linearGradient></defs><g transform="translate(-180.43198,-53.978)"><g data-paper-data="{&quot;isPaintingLayer&quot;:true}" fill-rule="nonzero" stroke="none" stroke-width="1" stroke-linecap="butt" stroke-linejoin="miter" stroke-miterlimit="10" stroke-dasharray="" stroke-dashoffset="0" style="mix-blend-mode: normal"><path d="M218.959,175.085c7.733,-12.685 11.792,-31.982 9.399,-49.202c-2.394,-17.221 12.457,-18.739 13.998,-5.4c1.541,13.339 10.743,46.802 16.543,56.318c-8.704,4.116 -31.291,4.969 -39.94,-1.716z" fill="url(#color-1)"/><path d="M221.709,116.981c-17.398,0 -32.487,-14.104 -33.702,-31.502c-1.215,-17.398 11.904,-31.501 29.301,-31.501c17.398,0 32.487,14.103 33.702,31.501c1.215,17.398 -11.903,31.502 -29.301,31.502z" fill="url(#color-2)"/><path d="M250.891,138.814c-21.706,0 -40.531,-17.596 -42.047,-39.302c-1.516,-21.706 14.852,-39.302 36.557,-39.302c21.706,0 40.531,17.596 42.047,39.302c1.516,21.706 -14.851,39.302 -36.557,39.302z" fill="url(#color-3)"/><path d="M214.212,142.14c-17.398,0 -32.486,-14.104 -33.702,-31.502c-1.215,-17.398 11.904,-31.501 29.302,-31.501c17.398,0 32.487,14.103 33.702,31.501c1.215,17.398 -11.904,31.502 -29.302,31.502z" fill="url(#color-4)"/></g></g></svg>