<svg xmlns="http://www.w3.org/2000/svg" xmlns:xlink="http://www.w3.org/1999/xlink" version="1.1" width="110.17656152487132" height="115.99695794821116" viewBox="-1.9882799935357394 -2.138279999496204 110.17656152487132 115.99695794821116">
  <defs>
    <linearGradient id="grad_1" y2="1" x2="0">
      <stop offset="0" stop-color="#DBD3BC" stop-opacity="1"/>
      <stop offset="1" stop-color="#E7DEA6" stop-opacity="1"/>
    </linearGradient>
  <linearGradient id="grad_1-0.4454749822616577,0,0,0.4454749822616577,120.8,-21" y2="45.501" x2="83.0041" x1="83.0041" y1="11.7562" gradientUnits="userSpaceOnUse">
      <stop offset="0" stop-color="#DBD3BC" stop-opacity="1"/>
      <stop offset="1" stop-color="#E7DEA6" stop-opacity="1"/>
    </linearGradient></defs>
  <!-- Exported by Scratch - http://scratch.mit.edu/ -->
  <path id="rect8769-9" fill="#A54436" stroke="none" stroke-width="4.276559998992408" d="M 83.0264 68.0776 L 83.0264 88.7784 C 83.0264 101.4923 72.7983 111.7204 60.0844 111.7204 L 48.3765 111.7204 C 35.6626 111.7204 25.4345 101.4923 25.4345 88.7784 L 25.4345 68.0776 L 83.0264 68.0776 Z "/>
  <path id="rect9302" fill="#E25D4A" stroke="none" stroke-width="4.276559998992408" d="M 80.9937 42.2597 L 26.9001 42.2597 C 23.9916 42.2597 21.6502 44.6011 21.6502 47.51 L 21.6502 87.7618 C 21.6502 90.6703 23.9916 93.0122 26.9001 93.0122 L 80.9937 93.0122 C 83.9022 93.0122 86.2441 90.6703 86.2441 87.7618 L 86.2441 47.51 C 86.2441 44.6011 83.9022 42.2597 80.9937 42.2597 Z "/>
  <path id="ID0.4224610994569957" fill="#E3DAAC" stroke="none" d="M 96.05 0 C 98.809 0 101.309 1.121 103.119 2.931 C 104.929 4.741 106.05 7.241 106.05 10 C 106.05 12.759 104.929 15.259 103.119 17.069 C 101.309 18.879 98.809 20 96.05 20 C 93.291 20 90.791 18.879 88.981 17.069 C 87.171 15.259 86.05 12.759 86.05 10 C 86.05 7.241 87.171 4.741 88.981 2.931 C 90.791 1.121 93.291 0 96.05 0 Z " stroke-width="1"/>
  <path id="rect8769" fill="url(#grad_1-0.4454749822616577,0,0,0.4454749822616577,120.8,-21)" stroke="none" stroke-width="4.276559998992408" d="M 60.0483 11.7562 C 72.7627 11.7562 83.0041 21.9839 83.0041 34.6982 L 83.0041 45.501 L 25.3989 45.501 L 25.3989 34.6982 C 25.3989 21.9839 35.6403 11.7562 48.3546 11.7562 L 60.0483 11.7562 Z "/>
  <path id="path9304" fill="#8b735c" stroke="none" stroke-width="4.276559998992408" d="M 20.4505 22.7782 C 23.6771 19.5547 67.0232 27.028 70.4003 35.6029 C 69.9588 34.0077 76.3006 22.036 77.6214 35.3401 C 78.2718 41.8881 84.7838 40.0385 83.883 37.1617 C 85.2409 12.0427 67.5938 6.9299 51.0502 8.3782 C 34.0086 7.8752 15.2349 27.9884 20.4505 22.7782 Z "/>
  <g id="ID0.25995567301288247">
    <path id="path9281" fill="#030302" stroke="none" stroke-width="4.276559998992408" d="M 57.7926 35.2067 C 57.7909 37.185 59.3941 38.7901 61.3725 38.7901 C 63.3508 38.7901 64.9541 37.185 64.9523 35.2067 C 64.9541 33.2283 63.3508 31.6233 61.3725 31.6233 C 59.3941 31.6233 57.7909 33.2283 57.7926 35.2067 Z "/>
    <path id="path9281-8" fill="#030302" stroke="none" stroke-width="4.276559998992408" d="M 41.5926 35.4067 C 41.5909 37.385 43.1941 38.9901 45.1725 38.9901 C 47.1508 38.9901 48.7541 37.385 48.7523 35.4067 C 48.7541 33.4283 47.1508 31.8233 45.1725 31.8233 C 43.1941 31.8233 41.5909 33.4283 41.5926 35.4067 Z "/>
  </g>
  <path id="ID0.4224610994569957" fill="#E3DAAC" stroke="none" d="M 10.15 4 C 12.909 4 15.409 5.121 17.219 6.931 C 19.029 8.741 20.15 11.241 20.15 14 C 20.15 16.759 19.029 19.259 17.219 21.069 C 15.409 22.879 12.909 24 10.15 24 C 7.391 24 4.891 22.879 3.081 21.069 C 1.271 19.259 0.15 16.759 0.15 14 C 0.15 11.241 1.271 8.741 3.081 6.931 C 4.891 5.121 7.391 4 10.15 4 Z " stroke-width="1"/>
</svg>