<svg version="1.1" xmlns="http://www.w3.org/2000/svg" xmlns:xlink="http://www.w3.org/1999/xlink" width="110.78128" height="126.02187" viewBox="0,0,110.78128,126.02187"><defs><linearGradient x1="239.6815" y1="111.57603" x2="239.6815" y2="179.99987" gradientUnits="userSpaceOnUse" id="color-1"><stop offset="0" stop-color="#a16f55"/><stop offset="1" stop-color="#c1747e"/></linearGradient><linearGradient x1="242.5305" y1="53.978" x2="242.5305" y2="116.981" gradientUnits="userSpaceOnUse" id="color-2"><stop offset="0" stop-color="#00e508"/><stop offset="1" stop-color="#00b333"/></linearGradient><linearGradient x1="267.71387" y1="60.21" x2="267.71387" y2="138.814" gradientUnits="userSpaceOnUse" id="color-3"><stop offset="0" stop-color="#00e508"/><stop offset="1" stop-color="#00b333"/></linearGradient><linearGradient x1="228.8405" y1="79.137" x2="228.8405" y2="142.14" gradientUnits="userSpaceOnUse" id="color-4"><stop offset="0" stop-color="#00e508"/><stop offset="1" stop-color="#00b333"/></linearGradient></defs><g transform="translate(-196.84761,-53.978)"><g data-paper-data="{&quot;isPaintingLayer&quot;:true}" fill-rule="nonzero" stroke="none" stroke-width="1" stroke-linecap="butt" stroke-linejoin="miter" stroke-miterlimit="10" stroke-dasharray="" stroke-dashoffset="0" style="mix-blend-mode: normal"><path d="M219.923,175.085c10.855,-12.685 19.665,-31.982 21.51,-49.202c1.846,-17.221 17.07,-18.739 15.328,-5.4c-1.743,13.339 -0.778,46.802 2.679,56.318c-9.717,4.116 -32.514,4.969 -39.517,-1.716z" fill="url(#color-1)"/><path d="M236.976,116.981c-17.398,0 -29.015,-14.104 -25.947,-31.502c3.068,-17.398 19.658,-31.501 37.056,-31.501c17.398,0 29.015,14.103 25.947,31.501c-3.068,17.398 -19.658,31.502 -37.056,31.502z" fill="url(#color-2)"/><path d="M260.784,138.814c-21.706,0 -36.2,-17.596 -32.372,-39.302c3.827,-21.706 24.526,-39.302 46.232,-39.302c21.706,0 36.199,17.596 32.372,39.302c-3.827,21.706 -24.526,39.302 -46.232,39.302z" fill="url(#color-3)"/><path d="M223.286,142.14c-17.398,0 -29.015,-14.104 -25.947,-31.502c3.068,-17.398 19.658,-31.501 37.056,-31.501c17.398,0 29.015,14.103 25.947,31.501c-3.067,17.398 -19.658,31.502 -37.056,31.502z" fill="url(#color-4)"/></g></g></svg>