<svg version="1.1" xmlns="http://www.w3.org/2000/svg" xmlns:xlink="http://www.w3.org/1999/xlink" width="107.37002" height="126.02187" viewBox="0,0,107.37002,126.02187"><defs><linearGradient x1="239.036" y1="111.57603" x2="239.036" y2="179.99987" gradientUnits="userSpaceOnUse" id="color-1"><stop offset="0" stop-color="#a16f55"/><stop offset="1" stop-color="#c1747e"/></linearGradient><linearGradient x1="222.77449" y1="53.978" x2="222.77449" y2="116.981" gradientUnits="userSpaceOnUse" id="color-2"><stop offset="0" stop-color="#00e508"/><stop offset="1" stop-color="#00b333"/></linearGradient><linearGradient x1="250.922" y1="60.21" x2="250.922" y2="138.814" gradientUnits="userSpaceOnUse" id="color-3"><stop offset="0" stop-color="#00e508"/><stop offset="1" stop-color="#00b333"/></linearGradient><linearGradient x1="214.39949" y1="79.137" x2="214.39949" y2="142.14" gradientUnits="userSpaceOnUse" id="color-4"><stop offset="0" stop-color="#00e508"/><stop offset="1" stop-color="#00b333"/></linearGradient></defs><g transform="translate(-182.8784,-53.978)"><g data-paper-data="{&quot;isPaintingLayer&quot;:true}" fill-rule="nonzero" stroke="none" stroke-width="1" stroke-linecap="butt" stroke-linejoin="miter" stroke-miterlimit="10" stroke-dasharray="" stroke-dashoffset="0" style="mix-blend-mode: normal"><path d="M219.096,175.085c8.175,-12.685 12.909,-31.982 11.117,-49.202c-1.792,-17.221 13.111,-18.739 14.186,-5.4c1.075,13.339 9.109,46.802 14.577,56.318c-8.848,4.116 -31.464,4.969 -39.88,-1.716z" fill="url(#color-1)"/><path d="M223.874,116.981c-17.397,0 -31.994,-14.104 -32.601,-31.502c-0.608,-17.398 13.003,-31.501 30.401,-31.501c17.398,0 31.995,14.103 32.602,31.501c0.608,17.398 -13.004,31.502 -30.402,31.502z" fill="url(#color-2)"/><path d="M252.295,138.814c-21.706,0 -39.917,-17.596 -40.675,-39.302c-0.758,-21.706 16.224,-39.302 37.93,-39.302c21.706,0 39.916,17.596 40.674,39.302c0.758,21.706 -16.223,39.302 -37.929,39.302z" fill="url(#color-3)"/><path d="M215.499,142.14c-17.397,0 -31.994,-14.104 -32.601,-31.502c-0.608,-17.398 13.003,-31.501 30.401,-31.501c17.398,0 31.994,14.103 32.602,31.501c0.608,17.398 -13.004,31.502 -30.402,31.502z" fill="url(#color-4)"/></g></g></svg>