<svg version="1.1" xmlns="http://www.w3.org/2000/svg" xmlns:xlink="http://www.w3.org/1999/xlink" width="850.85576" height="1552.82509" viewBox="0,0,850.85576,1552.82509"><defs><linearGradient x1="242.17887" y1="-1139.52185" x2="242.17887" y2="413.30327" gradientUnits="userSpaceOnUse" id="color-1"><stop offset="0" stop-color="#000427"/><stop offset="1" stop-color="#2f0065"/></linearGradient><linearGradient x1="240.00001" y1="-88.70769" x2="240.00001" y2="367.78777" gradientUnits="userSpaceOnUse" id="color-2"><stop offset="0" stop-color="#0a0c29" stop-opacity="0"/><stop offset="1" stop-color="#0a0c29" stop-opacity="0.74902"/></linearGradient><radialGradient cx="401.33219" cy="213.42551" r="113.39507" gradientUnits="userSpaceOnUse" id="color-3"><stop offset="0" stop-color="#ffc49e"/><stop offset="1" stop-color="#ffc49e" stop-opacity="0"/></radialGradient><radialGradient cx="401.33219" cy="213.42551" r="50.16734" gradientUnits="userSpaceOnUse" id="color-4"><stop offset="0" stop-color="#ffffff"/><stop offset="1" stop-color="#ffbd7f"/></radialGradient><linearGradient x1="240.00001" y1="206.50001" x2="240.00001" y2="410.50001" gradientUnits="userSpaceOnUse" id="color-5"><stop offset="0" stop-color="#000427"/><stop offset="1" stop-color="#420080"/></linearGradient><linearGradient x1="151.46173" y1="190.67556" x2="151.46173" y2="194.28386" gradientUnits="userSpaceOnUse" id="color-6"><stop offset="0" stop-color="#000000"/><stop offset="1" stop-color="#000000" stop-opacity="0"/></linearGradient><linearGradient x1="525.22201" y1="158.82726" x2="530.32084" y2="163.95445" gradientUnits="userSpaceOnUse" id="color-7"><stop offset="0" stop-color="#15ff6d"/><stop offset="1" stop-color="#aaff56"/></linearGradient><linearGradient x1="517.73713" y1="158.82726" x2="522.83583" y2="163.95445" gradientUnits="userSpaceOnUse" id="color-8"><stop offset="0" stop-color="#15ff6d"/><stop offset="1" stop-color="#aaff56"/></linearGradient><linearGradient x1="510.42612" y1="158.82726" x2="515.52492" y2="163.95445" gradientUnits="userSpaceOnUse" id="color-9"><stop offset="0" stop-color="#15ff6d"/><stop offset="1" stop-color="#aaff56"/></linearGradient><linearGradient x1="51.26381" y1="173.31576" x2="48.02921" y2="171.71676" gradientUnits="userSpaceOnUse" id="color-10"><stop offset="0" stop-color="#000000"/><stop offset="1" stop-color="#000000" stop-opacity="0"/></linearGradient><linearGradient x1="9.88681" y1="119.01335" x2="6.41931" y2="120.01145" gradientUnits="userSpaceOnUse" id="color-11"><stop offset="0" stop-color="#000000"/><stop offset="1" stop-color="#000000" stop-opacity="0"/></linearGradient><linearGradient x1="241.00001" y1="131.82081" x2="241.00001" y2="402.45685" gradientUnits="userSpaceOnUse" id="color-12"><stop offset="0" stop-color="#7f0000" stop-opacity="0"/><stop offset="1" stop-color="#7f0000"/></linearGradient></defs><g transform="translate(228.88601,1139.52182)"><g data-paper-data="{&quot;isPaintingLayer&quot;:true}" fill-rule="nonzero" stroke-linejoin="miter" stroke-miterlimit="10" stroke-dasharray="" stroke-dashoffset="0" style="mix-blend-mode: normal"><path d="M-127.22653,413.30327v-1552.82509h738.81078v1552.82509z" fill="url(#color-1)" stroke="#000000" stroke-width="0" stroke-linecap="butt"/><path d="M-82.5,367.78777v-456.49546h645v456.49546z" fill="url(#color-2)" stroke="none" stroke-width="0" stroke-linecap="butt"/><g stroke="none" stroke-width="0" stroke-linecap="butt"><path d="M290.22332,213.42551c0,-62.62637 49.74515,-113.39506 111.10887,-113.39506c61.36373,0 111.10887,50.76869 111.10887,113.39506c0,62.62637 -49.74514,113.39507 -111.10887,113.39507c-61.36373,0 -111.10887,-50.7687 -111.10887,-113.39507z" fill="url(#color-3)"/><path d="M351.16487,213.42551c0,-27.70665 22.46069,-50.16734 50.16734,-50.16734c27.70665,0 50.16734,22.46069 50.16734,50.16734c0,27.70665 -22.46069,50.16734 -50.16734,50.16734c-27.70665,0 -50.16734,-22.46069 -50.16734,-50.16734z" fill="url(#color-4)"/></g><path d="M-94,410.50001v-204h668v204z" fill="url(#color-5)" stroke="#000000" stroke-width="0" stroke-linecap="butt"/><path d="M-136.39238,361.32182l3.65631,-61.66777l16.26945,-1.84557c0,0 8.77071,4.05478 14.91579,4.52447c18.43526,1.40907 28.67179,-1.61863 28.67179,-1.61863l4.87615,26.62819l24.08666,13.03506l-1.98003,22.60472z" fill="#804040" stroke="none" stroke-width="0" stroke-linecap="butt"/><path d="M-119.74974,336.99223c0,0 -1.94672,-7.09102 3.04018,-9.0457c4.98691,-1.95468 16.20546,-1.91319 22.78391,-1.61944c3.07704,0.13741 11.59678,-3.52877 15.74175,-3.65742c4.14497,-0.12866 9.09581,0.67493 18.68004,2.75473c5.83972,1.26724 10.07361,0.31915 13.69047,5.07589c2.4548,3.22843 3.65321,12.95773 3.65321,12.95773c0,0 -9.96306,3.67926 -19.85923,4.16201c-9.70584,0.47345 -8.85304,-5.22919 -22.44252,-7.73094c-7.93873,-1.46147 -16.47453,1.88987 -21.9353,1.44158c-5.46077,-0.44829 -13.35249,-4.33845 -13.35249,-4.33845z" fill="#804040" stroke="none" stroke-width="0" stroke-linecap="butt"/><path d="M-134.48999,293.40906c4.4824,-1.75693 14.56603,-1.71963 20.47896,-1.4556c2.76574,0.1235 10.42357,-3.17178 14.14921,-3.28742c3.72564,-0.11564 8.17563,0.60665 16.79026,2.47604c5.24893,1.13904 9.0545,0.28687 12.30545,4.56239c2.20645,2.90183 3.28363,11.64685 3.28363,11.64685c0,0 -8.95513,3.30706 -17.85015,3.74096c-8.72395,0.42555 -7.95742,-4.70019 -20.17211,-6.94884c-7.1356,-1.31362 -14.80786,1.69868 -19.71619,1.29574c-4.90834,-0.40294 -12.00168,-3.89954 -12.00168,-3.89954c0,0 -1.74978,-6.37365 2.73262,-8.13058z" fill="#804040" stroke="none" stroke-width="0" stroke-linecap="butt"/><path d="M-86.578,296.97821c0,0 -7.92884,3.28936 -19.51305,3.27837c-12.25055,-0.01162 -22.41405,-3.36269 -22.41405,-3.36269l1.8237,-18.14652l10.87317,-1.07216c0,0 5.61137,1.4065 9.5429,1.56942c11.7946,0.48877 19.9373,-1.85741 19.9373,-1.85741l-0.24996,19.59098z" fill="#804040" stroke="none" stroke-width="0" stroke-linecap="butt"/><path d="M-93.68132,270.11789c6.13212,1.6014 11.22953,8.4629 11.22953,8.4629c0,0 -5.14316,7.31208 -8.41478,7.58066c-3.27162,0.26858 -10.46113,-5.89046 -15.21733,-5.01487c-8.14164,1.49883 -7.63072,4.91536 -13.44562,4.63171c-13.70855,-0.6687 -10.79114,-12.31691 -10.79114,-12.31691c0,0 11.06566,-0.04465 16.87846,0.13578c9.12905,0.28335 16.35637,-4.36836 19.76089,-3.47927z" data-paper-data="{&quot;index&quot;:null}" fill="#804040" stroke="none" stroke-width="0" stroke-linecap="butt"/><g stroke="none" stroke-linecap="butt"><path d="M151.46173,190.67556h11.5464v3.6083h-11.5464z" fill="url(#color-6)" stroke-width="0.15952"/><path d="M147.60911,185.60766h19.0721v7.3196h-19.0721z" fill="#804040" stroke-width="0.41237"/></g><path d="M69.81592,220.30346h38.6748l-17.5524,33.3743l-4.4625,-3.8757z" fill="#804040" stroke="none" stroke-width="5.96727" stroke-linecap="butt"/><g fill="#804040" stroke="none" stroke-width="0.21955" stroke-linecap="round"><path d="M100.32482,220.11356h3.9952h4.5796l-1.9066,3.0489l-2.673,-1.4292l-2.2803,1.4292z"/><path d="M93.01392,220.11356h3.9952h4.5795l-1.9065,3.0489l-2.673,-1.4292l-2.2803,1.4292z"/><path d="M85.52891,220.11356h3.9952h4.5796l-1.9066,3.0489l-2.673,-1.4292l-2.2803,1.4292z"/><path d="M78.21801,220.11356h3.9952h4.5796l-1.9066,3.0489l-2.673,-1.4292l-2.2802,1.4292z"/></g><g fill="#804040" stroke="none" stroke-width="0.21955" stroke-linecap="round"><path d="M92.79632,220.20066h3.9952h4.5796l-1.9066,3.0488l-2.673,-1.4291l-2.2802,1.4291z"/><path d="M85.48541,220.20066h3.9951h4.5796l-1.9065,3.0488l-2.6731,-1.4291l-2.2802,1.4291z"/><path d="M78.00041,220.20066h3.9952h4.5796l-1.9066,3.0488l-2.673,-1.4291l-2.2802,1.4291z"/><path d="M70.68951,220.20066h3.9952h4.5796l-1.9066,3.0488l-2.673,-1.4291l-2.2803,1.4291z"/></g><path d="M-104.18409,195.30346h38.6748l-17.5524,33.3743l-4.4625,-3.8757z" fill="#804040" stroke="none" stroke-width="5.96727" stroke-linecap="butt"/><g fill="#804040" stroke="none" stroke-width="0.21955" stroke-linecap="round"><path d="M-73.67518,195.11356h3.9952h4.5795l-1.9065,3.0489l-2.673,-1.4292l-2.2803,1.4292z"/><path d="M-80.98608,195.11356h3.9952h4.5795l-1.9065,3.0489l-2.673,-1.4292l-2.2803,1.4292z"/><path d="M-88.47109,195.11356h3.9952h4.5796l-1.9066,3.0489l-2.673,-1.4292l-2.2803,1.4292z"/><path d="M-95.78199,195.11356h3.9952h4.5796l-1.9066,3.0489l-2.673,-1.4292l-2.2802,1.4292z"/></g><g fill="#804040" stroke="none" stroke-width="0.21955" stroke-linecap="round"><path d="M-81.20369,195.20066h3.9952h4.5796l-1.9066,3.0488l-2.673,-1.4291l-2.2802,1.4291z"/><path d="M-88.51459,195.20066h3.9951h4.5796l-1.9065,3.0488l-2.6731,-1.4291l-2.2802,1.4291z"/><path d="M-95.99959,195.20066h3.9952h4.5796l-1.9066,3.0488l-2.673,-1.4291l-2.2802,1.4291z"/><path d="M-103.31049,195.20066h3.9952h4.5796l-1.9066,3.0488l-2.673,-1.4291l-2.2803,1.4291z"/></g><g stroke="none" stroke-width="0.21955" stroke-linecap="round"><path d="M560.32481,132.11354h3.9952h4.5796l-1.9066,3.0488l-2.673,-1.4291l-2.2802,1.4291z" fill="#40bb40"/><path d="M553.01393,132.11354h3.9952h4.5795l-1.9065,3.0488l-2.673,-1.4291l-2.2803,1.4291z" fill="url(#color-7)"/><path d="M545.52892,132.11354h3.9952h4.5796l-1.9066,3.0488l-2.673,-1.4291l-2.2802,1.4291z" fill="url(#color-8)"/><path d="M538.21803,132.11354h3.9952h4.5796l-1.9066,3.0488l-2.673,-1.4291l-2.2802,1.4291z" fill="url(#color-9)"/></g><g fill="#40bb40" stroke="none" stroke-width="0.21955" stroke-linecap="round"><path d="M552.79631,132.20065h3.9952h4.5795l-1.9065,3.0488l-2.673,-1.4291l-2.2803,1.4291z"/><path d="M545.48543,132.20065h3.9951h4.5796l-1.9066,3.0488l-2.673,-1.4291l-2.2802,1.4291z"/><path d="M538.00042,132.20065h3.9952h4.5796l-1.9066,3.0488l-2.673,-1.4291l-2.2802,1.4291z"/><path d="M530.68954,132.20065h3.9952h4.5796l-1.9066,3.0488l-2.673,-1.4291l-2.2802,1.4291z"/></g><path d="M-205.99999,-47.99999c0,-1.38071 1.11929,-2.5 2.5,-2.5c1.38071,0 2.5,1.11929 2.5,2.5c0,1.38071 -1.11929,2.5 -2.5,2.5c-1.38071,0 -2.5,-1.11929 -2.5,-2.5z" fill="#9966ff" stroke="none" stroke-width="0.5" stroke-linecap="butt"/><g stroke="none" stroke-linecap="butt"><path d="M48.77092,172.26386l-5.1168,10.3507l-17.322,-8.5631l5.1168,-10.3507z" fill="#804040" stroke-width="0.47862"/><g><path d="M51.26381,173.31576l-5.1168,10.3507l-3.2347,-1.599l5.1169,-10.3507z" fill="url(#color-10)" stroke-width="0.15952"/><path d="M57.51421,172.10806l-8.4519,17.097l-6.5616,-3.2437l8.4519,-17.0971z" fill="#804040" stroke-width="0.41237"/></g><path d="M-51.94915,321.23383l-5.32711,-152.14512l21.78926,-7.04743c0,0 12.65703,3.45546 20.99561,2.71696c25.01577,-2.21547 37.32509,-7.9691 37.32509,-7.9691c0,0 30.93507,-10.21049 32.17362,-3.30464c1.05366,5.87495 -27.35378,30.17887 -26.30012,36.05382c6.87662,38.34237 22.43014,125.06497 22.43014,125.06497z" data-paper-data="{&quot;index&quot;:null,&quot;origRot&quot;:0}" fill="#804040" stroke-width="0"/><path d="M-50.49083,157.62295c5.61365,-3.33615 9.00524,-2.96723 16.98685,-3.9282c3.73336,-0.44949 19.46099,-5.97964 24.42712,-6.96087c4.96612,-0.98123 47.30034,-3.717 59.26034,-3.13877c11.95999,0.57824 8.63007,14.14754 8.63007,14.14754c0,0 -37.15672,10.30009 -45.67155,12.28235c-8.51482,1.98226 -4.95527,5.66218 -21.82362,5.37789c-14.59362,-0.24595 -9.67306,-0.32346 -12.43353,0.45795c-0.92016,0.26047 -17.24224,1.01612 -18.19528,1.09515c-6.66656,0.55284 -23.15422,0.13336 -23.15422,0.13336c0,0 -0.52328,-7.99618 2.05772,-12.42291c1.96177,-3.36468 4.30246,-3.70734 9.91611,-7.04349z" data-paper-data="{&quot;index&quot;:null,&quot;origRot&quot;:0}" fill="#804040" stroke-width="0"/><path d="M7.66941,119.74925l3.194,11.0959l-18.569,5.3452l-1.3354,22.7944l-10.1134,1.1962l-1.8549,-31.7564l10.1097,-3.33z" fill="#804040" stroke-width="0.47862"/><path d="M9.88681,119.01335l3.194,11.0958l-3.4675,0.9982l-3.194,-11.0959z" fill="url(#color-11)" stroke-width="0.15952"/><path d="M13.69122,113.90916l5.2758,18.3278l-7.0339,2.0248l-5.2759,-18.3278z" fill="#804040" stroke-width="0.41237"/><path d="M-18.57509,160.42425l-33.6777,5.4839l-0.672,-3.5451l33.011,-5.3172z" data-paper-data="{&quot;origRot&quot;:0}" fill="#804040" stroke-width="0.15952"/></g><g fill="#804040" stroke="none"><path d="M57.81592,83.30345h38.6748l-17.5524,33.3743l-4.4625,-3.8757z" stroke-width="5.96727" stroke-linecap="butt"/><g stroke-width="0.21955" stroke-linecap="round"><path d="M88.32482,83.11355h3.9952h4.5796l-1.9066,3.0488l-2.673,-1.4291l-2.2803,1.4291z"/><path d="M81.01392,83.11355h3.9952h4.5795l-1.9065,3.0488l-2.673,-1.4291l-2.2803,1.4291z"/><path d="M73.52891,83.11355h3.9952h4.5795l-1.9065,3.0488l-2.673,-1.4291l-2.2803,1.4291z"/><path d="M66.21801,83.11355h3.9952h4.5796l-1.9066,3.0488l-2.673,-1.4291l-2.2802,1.4291z"/></g><g stroke-width="0.21955" stroke-linecap="round"><path d="M80.79631,83.20064h3.9952h4.5796l-1.9066,3.0488l-2.673,-1.4291l-2.2802,1.4291z"/><path d="M73.48541,83.20064h3.9951h4.5796l-1.9065,3.0488l-2.6731,-1.4291l-2.2802,1.4291z"/><path d="M66.00041,83.20064h3.9952h4.5796l-1.9066,3.0488l-2.673,-1.4291l-2.2802,1.4291z"/><path d="M58.68951,83.20064h3.9952h4.5796l-1.9066,3.0488l-2.673,-1.4291l-2.2803,1.4291z"/></g></g><g fill="#804040" stroke="none"><path d="M165.81593,132.30345h38.6748l-17.5524,33.3743l-4.4625,-3.8757z" stroke-width="5.96727" stroke-linecap="butt"/><path d="M196.32482,132.11354h3.9952h4.5796l-1.9066,3.0488l-2.673,-1.4291l-2.2803,1.4291z" stroke-width="0.21955" stroke-linecap="round"/><path d="M189.01392,132.11354h3.9952h4.5795l-1.9065,3.0488l-2.673,-1.4291l-2.2803,1.4291z" stroke-width="0.21955" stroke-linecap="round"/><path d="M181.52892,132.11354h3.9952h4.5796l-1.9066,3.0488l-2.673,-1.4291l-2.2802,1.4291z" stroke-width="0.21955" stroke-linecap="round"/><path d="M174.21801,132.11354h3.9952h4.5796l-1.9066,3.0488l-2.673,-1.4291l-2.2802,1.4291z" stroke-width="0.21955" stroke-linecap="round"/><path d="M188.79632,132.20065h3.9952h4.5796l-1.9066,3.0488l-2.673,-1.4291l-2.2802,1.4291z" stroke-width="0.21955" stroke-linecap="round"/><path d="M181.48542,132.20065h3.9951h4.5796l-1.9066,3.0488l-2.673,-1.4291l-2.2802,1.4291z" stroke-width="0.21955" stroke-linecap="round"/><path d="M174.00041,132.20065h3.9952h4.5796l-1.9066,3.0488l-2.673,-1.4291l-2.2802,1.4291z" stroke-width="0.21955" stroke-linecap="round"/><path d="M166.68952,132.20065h3.9952h4.5796l-1.9066,3.0488l-2.673,-1.4291l-2.2803,1.4291z" stroke-width="0.21955" stroke-linecap="round"/></g><g fill="#804040" stroke="none" stroke-linecap="butt"><path d="M96.17711,297.98229l-1.98003,-22.60472l24.08666,-13.03506l4.87615,-26.62819c0,0 10.23653,3.0277 28.67179,1.61863c6.14508,-0.46969 14.91579,-4.52447 14.91579,-4.52447l16.26945,1.84557l3.65631,61.66777z" stroke-width="0"/><path d="M170.03058,271.99223c0,0 -7.89172,3.89016 -13.35249,4.33845c-5.46077,0.44829 -13.99657,-2.90305 -21.9353,-1.44158c-13.58948,2.50175 -12.73668,8.20439 -22.44252,7.73094c-9.89617,-0.48275 -19.85923,-4.16201 -19.85923,-4.16201c0,0 1.19841,-9.7293 3.65321,-12.95773c3.61686,-4.75674 7.85075,-3.80865 13.69047,-5.07589c9.58423,-2.0798 14.53507,-2.88339 18.68004,-2.75473c4.14497,0.12865 12.66471,3.79483 15.74175,3.65742c6.57845,-0.29375 17.797,-0.33524 22.78391,1.61944c4.9869,1.95468 3.04018,9.0457 3.04018,9.0457z" stroke-width="0"/><path d="M187.50347,236.53968c0,0 -7.09334,3.4966 -12.00168,3.89954c-4.90833,0.40294 -12.58059,-2.60936 -19.71619,-1.29574c-12.21469,2.24865 -11.44816,7.37439 -20.17211,6.94884c-8.89502,-0.4339 -17.85015,-3.74096 -17.85015,-3.74096c0,0 1.07718,-8.74502 3.28363,-11.64685c3.25095,-4.27552 7.05652,-3.42335 12.30545,-4.56239c8.61463,-1.86939 13.06462,-2.59168 16.79026,-2.47604c3.72564,0.11564 11.38347,3.41092 14.14921,3.28742c5.91293,-0.26403 15.99656,-0.30133 20.47896,1.4556c4.4824,1.75693 2.73262,8.13058 2.73262,8.13058z" stroke-width="0"/><path d="M136.85885,231.97822l-0.24996,-19.59098c0,0 8.1427,2.34618 19.9373,1.85741c3.93153,-0.16292 9.5429,-1.56942 9.5429,-1.56942l10.87317,1.07216l1.8237,18.14652c0,0 -10.1635,3.35107 -22.41405,3.36269c-11.58421,0.01099 -19.51305,-3.27837 -19.51305,-3.27837z" stroke-width="0"/><path d="M143.96218,205.1179c3.40452,-0.88909 10.63184,3.76262 19.76089,3.47927c5.8128,-0.18043 16.87846,-0.13578 16.87846,-0.13578c0,0 2.91741,11.64821 -10.79114,12.31691c-5.8149,0.28365 -5.30398,-3.13288 -13.44562,-4.63171c-4.7562,-0.87559 -11.94571,5.28345 -15.21733,5.01487c-3.27162,-0.26858 -8.41478,-7.58066 -8.41478,-7.58066c0,0 5.09741,-6.8615 11.22953,-8.4629z" data-paper-data="{&quot;index&quot;:null}" stroke-width="0"/><path d="M151.62352,193.37646h11.5464v19.323h-11.5464z" stroke-width="0.47862"/><path d="M151.86352,212.59976l-16.7829,3.8172l-2.2335,-2.5452l18.8882,-4.6505z" data-paper-data="{&quot;origRot&quot;:0}" stroke-width="0.15952"/></g><g fill="#804040" stroke="none" stroke-linecap="butt"><path d="M263.05086,345.23383l-3.32711,-79.14512l21.78926,-7.04743c0,0 12.65703,3.45546 20.99561,2.71696c25.01577,-2.21547 37.32509,-7.9691 37.32509,-7.9691l15.30364,83.81415z" data-paper-data="{&quot;index&quot;:null,&quot;origRot&quot;:0}" stroke-width="0"/><path d="M266.50917,254.62298c5.61365,-3.33615 9.00524,-2.96723 16.98685,-3.9282c3.73336,-0.44949 19.46099,-5.97964 24.42712,-6.96087c4.96612,-0.98123 16.30034,1.283 28.26034,1.86123c11.95999,0.57824 12.63007,12.14754 12.63007,12.14754c0,0 -10.15672,7.30009 -18.67155,9.28235c-8.51482,1.98226 2.04473,-5.33782 -14.82362,-5.62211c-14.59362,-0.24595 -16.67306,10.67654 -19.43353,11.45795c-0.92016,0.26047 -17.24224,1.01612 -18.19528,1.09515c-6.66656,0.55284 -23.15422,0.13336 -23.15422,0.13336c0,0 -0.52328,-7.99618 2.05772,-12.42291c1.96177,-3.36468 4.30246,-3.70734 9.91611,-7.04349z" data-paper-data="{&quot;index&quot;:null,&quot;origRot&quot;:0}" stroke-width="0"/><path d="M337.09891,273.06417c8.27988,2.16229 15.16267,11.42703 15.16267,11.42703c0,0 -9.74712,4.26799 -14.16463,4.63063c-4.4175,0.36265 -11.32255,-2.34843 -17.74461,-1.16617c-10.99325,2.02379 -19.21349,-9.72262 -11.36476,-9.479c12.32648,0.38259 23.51438,-6.61297 28.11133,-5.41248z" data-paper-data="{&quot;index&quot;:null}" stroke-width="0"/><path d="M304.01262,239.90145l11.3345,-2.2022l3.6854,18.9682l-11.3344,2.2023z" stroke-width="0.47862"/><g><path d="M303.33862,237.28095l11.3345,-2.2022l0.6882,3.5421l-11.3344,2.2022z" stroke-width="0.15952"/><path d="M298.59021,233.04095l18.7219,-3.6376l1.3961,7.1852l-18.722,3.6376z" stroke-width="0.41237"/></g><path d="M307.64921,258.74256l-16.7829,3.8173l-0.8763,-3.1881l16.8882,-4.2934z" data-paper-data="{&quot;origRot&quot;:0}" stroke-width="0.15952"/></g><g fill="#804040" stroke="none"><path d="M438.49182,304.6033c0,0 -23.43038,11.23355 -36.46766,-3.92154c-1.27675,-1.48415 -26.00555,0.69042 -27.27071,-0.80364c-3.79546,-4.48218 12.71308,-43.83562 14.63376,-53.51045c1.7865,-8.99893 58.81797,9.94499 60.46591,0.91966c3.0996,-16.97573 3.94234,-26.49818 3.94234,-26.49818c0,0 12.30932,5.75363 37.32509,7.9691c8.33858,0.7385 20.99561,-2.71696 20.99561,-2.71696l21.78926,7.04743l-3.32711,79.14512z" data-paper-data="{&quot;index&quot;:null,&quot;origRot&quot;:0}" stroke-width="0" stroke-linecap="butt"/><path d="M527.11997,221.62298c5.61365,3.33615 7.95434,3.67881 9.91611,7.04349c2.581,4.42673 2.05772,12.42291 2.05772,12.42291c0,0 -16.48766,0.41948 -23.15422,-0.13336c-0.95304,-0.07903 -17.27512,-0.83468 -18.19528,-1.09515c-2.76047,-0.78141 -4.83991,-11.7039 -19.43353,-11.45795c-16.86835,0.28429 -6.3088,7.60437 -14.82362,5.62211c-8.51483,-1.98226 -18.67155,-9.28235 -18.67155,-9.28235c0,0 0.67008,-11.5693 12.63007,-12.14754c11.96,-0.57823 23.29422,-2.84246 28.26034,-1.86123c4.96613,0.98123 20.69376,6.51138 24.42712,6.96087c7.98161,0.96097 11.3732,0.59205 16.98685,3.9282z" data-paper-data="{&quot;index&quot;:null,&quot;origRot&quot;:0}" stroke-width="0" stroke-linecap="butt"/><path d="M456.53023,240.06418c4.59695,-1.20049 15.78485,5.79507 28.11133,5.41248c7.84873,-0.24362 -0.37151,11.50279 -11.36476,9.479c-6.42206,-1.18226 -13.32711,1.52882 -17.74461,1.16617c-4.41751,-0.36264 -74.16463,-0.63063 -74.16463,-0.63063c0,0 2.49167,-10.01994 4.30696,-11.74274c3.64574,-3.46 65.99258,-2.41427 70.85571,-3.68428z" data-paper-data="{&quot;index&quot;:null}" stroke-width="0" stroke-linecap="butt"/><path d="M399.81591,179.30346h38.6748l-17.5524,33.3743l-4.4625,-3.8757z" stroke-width="5.96727" stroke-linecap="butt"/><g stroke-width="0.21955" stroke-linecap="round"><path d="M430.32481,179.11356h3.9952h4.5796l-1.9066,3.0489l-2.673,-1.4291l-2.2802,1.4291z"/><path d="M423.01393,179.11356h3.9952h4.5795l-1.9065,3.0489l-2.673,-1.4291l-2.2803,1.4291z"/><path d="M415.52892,179.11356h3.9952h4.5796l-1.9066,3.0489l-2.673,-1.4291l-2.2802,1.4291z"/><path d="M408.21801,179.11356h3.9952h4.5796l-1.9066,3.0489l-2.673,-1.4291l-2.2802,1.4291z"/></g><g stroke-width="0.21955" stroke-linecap="round"><path d="M422.79632,179.20066h3.9952h4.5796l-1.9066,3.0488l-2.673,-1.4291l-2.2802,1.4291z"/><path d="M415.48543,179.20066h3.9951h4.5796l-1.9065,3.0488l-2.6731,-1.4291l-2.2802,1.4291z"/><path d="M408.00042,179.20066h3.9952h4.5796l-1.9066,3.0488l-2.673,-1.4291l-2.2802,1.4291z"/><path d="M400.68954,179.20066h3.9952h4.5796l-1.9066,3.0488l-2.673,-1.4291l-2.2803,1.4291z"/></g><path d="M529.81593,132.30345h38.6747l-17.5523,33.3743l-4.4625,-3.8757z" stroke-width="5.96727" stroke-linecap="butt"/></g><path d="M-61.19124,356.15814v-141.38865h61.6314v141.38866z" fill="#7f5f5f" stroke="none" stroke-width="0" stroke-linecap="butt"/><path d="M493.80878,379.15813v-116.44707h85.6314v116.44707z" fill="#7f5f5f" stroke="none" stroke-width="0" stroke-linecap="butt"/><path d="M-205.99999,-47.99999c0,-1.38071 1.11929,-2.5 2.5,-2.5c1.38071,0 2.5,1.11929 2.5,2.5c0,1.38071 -1.11929,2.5 -2.5,2.5c-1.38071,0 -2.5,-1.11929 -2.5,-2.5z" fill="#9966ff" stroke="none" stroke-width="0.5" stroke-linecap="butt"/><g fill="#7f5f5f" stroke="none" stroke-width="0" stroke-linecap="butt"><path d="M107.21351,369.81898l-51.2472,-182.77939l29.88084,-8.37791l51.24721,182.7794z"/><path d="M13.87296,205.13036l-7.7649,-27.69445l116.60817,-32.69429l7.7649,27.69445z"/></g><g stroke="none" stroke-width="0" stroke-linecap="butt"><path d="M109.11253,329.75963l193.08251,-37.90661l15.11068,76.96829l-193.08251,37.90661z" fill="#7f5f5f"/><g fill="#8c6969"><path d="M273.33615,305.36175l24.8249,-4.87371l3.24914,16.54993l-24.8249,4.87371z"/><path d="M277.66833,327.42832l24.8249,-4.87371l3.24914,16.54993l-24.8249,4.87371z"/><path d="M282.0005,349.49489l24.8249,-4.87371l3.24914,16.54994l-24.8249,4.87371z"/></g><g fill="#8c6969"><path d="M242.9946,311.3185l24.82489,-4.87371l3.24914,16.54993l-24.82489,4.87371z"/><path d="M247.32678,333.38507l24.82489,-4.87371l3.24914,16.54993l-24.8249,4.87371z"/><path d="M251.65896,355.45165l24.82489,-4.87371l3.24914,16.54994l-24.8249,4.87371z"/></g><g fill="#8c6969"><path d="M212.65306,317.27526l24.82489,-4.87371l3.24914,16.54993l-24.82489,4.87371z"/><path d="M216.98524,339.34183l24.8249,-4.87371l3.24914,16.54993l-24.8249,4.87371z"/><path d="M221.31744,361.4084l24.8249,-4.87371l3.24914,16.54994l-24.8249,4.87371z"/></g><g fill="#8c6969"><path d="M182.31152,323.23201l24.82489,-4.87371l3.24914,16.54993l-24.82489,4.87371z"/><path d="M186.6437,345.29858l24.82489,-4.87371l3.24914,16.54993l-24.82489,4.87371z"/><path d="M190.97589,367.36515l24.82489,-4.87371l3.24914,16.54994l-24.82489,4.87371z"/></g><g fill="#8c6969"><path d="M151.96998,329.18876l24.82489,-4.87371l3.24914,16.54993l-24.82489,4.87371z"/><path d="M156.30216,351.25534l24.8249,-4.87371l3.24914,16.54993l-24.8249,4.87371z"/><path d="M160.63436,373.32191l24.8249,-4.87371l3.24914,16.54994l-24.8249,4.87371z"/></g><path d="M121.62845,335.14552l24.8249,-4.87371l3.24914,16.54993l-24.8249,4.87371z" fill="#8c6969"/><path d="M113.24165,359.70912l37.54388,-7.37074l3.24914,16.54993l-37.54388,7.37074z" fill="#8c6969"/><path d="M130.29283,379.27866l24.8249,-4.87371l3.24914,16.54994l-24.8249,4.87371z" fill="#8c6969"/></g><g stroke="none" stroke-width="0" stroke-linecap="butt"><path d="M388.16162,394.75382l-42.02791,-131.66418l65.83209,-21.01395l42.02791,131.66418z" fill="#7f5f5f"/><path d="M386.22944,356.33075l-28.36884,-88.87332l19.74963,-6.30419l28.36884,88.87332z" fill="#8c6969"/><path d="M393.64974,288.67629l-9.45628,-29.62444l19.74963,-6.30419l9.45628,29.62444z" fill="#8c6969"/><path d="M424.12006,384.13313l-28.36884,-88.87332l19.74963,-6.30419l28.36884,88.87332z" fill="#8c6969"/><path d="M397.78722,392.53871l-9.45628,-29.62444l19.74963,-6.30419l9.45628,29.62444z" fill="#8c6969"/></g><path d="M-160.71763,36.88616c0,-1.38071 1.11929,-2.5 2.5,-2.5c1.38071,0 2.5,1.11929 2.5,2.5c0,1.38071 -1.11929,2.5 -2.5,2.5c-1.38071,0 -2.5,-1.11929 -2.5,-2.5z" fill-opacity="0.74902" fill="#0a0c29" stroke="none" stroke-width="0.5" stroke-linecap="butt"/><path d="M-228.88601,-52.23204c0,-0.69035 0.55964,-1.25 1.25,-1.25c0.69036,0 1.25,0.55965 1.25,1.25c0,0.69035 -0.55964,1.25 -1.25,1.25c-0.69036,0 -1.25,-0.55965 -1.25,-1.25z" fill-opacity="0.74902" fill="#135033" stroke="none" stroke-width="0.5" stroke-linecap="butt"/><path d="M249.10868,280.26475c0.52384,1.13494 -0.61111,1.65878 -0.61111,1.65878l-0.13685,0.06316c-2.63475,1.21339 -5.36503,2.10901 -8.1503,2.79207c0.60824,0.41019 0.98746,1.10652 0.87349,2.28018c-0.18563,1.91165 -3.57117,3.07757 -4.92338,3.68062c-5.14132,2.29289 -9.53858,2.55606 -15.08173,2.55606c-0.28212,0 -5.17551,0.00999 -5.28719,-0.03344c-0.08979,-0.03492 -0.17746,-0.07361 -0.26327,-0.11564l-0.00856,0.01711l-1.85195,-0.92597c-0.42281,-0.20043 -0.7152,-0.63114 -0.7152,-1.13014c0,-0.49901 0.2924,-0.92972 0.7152,-1.13015l1.85195,-0.92597c0,0 1.11804,-0.55902 1.67705,0.55901c0.23786,0.47573 0.17209,0.85024 0.01802,1.12355c3.63176,-0.47393 7.59059,0.60143 11.18264,0.07486c2.26628,-0.33222 4.67558,-1.44034 6.74941,-2.35458c1.15844,-0.51069 2.6151,-0.64267 3.44528,-1.5985c0.12679,-0.14598 -0.33343,-0.23357 -0.52653,-0.24337c-0.65789,-0.03337 -1.31426,0.09945 -1.97278,0.11662c-0.83305,0.02172 -1.66666,0 -2.5,0c-3.9943,0 -7.75948,0.67162 -11.75297,0.93149l-0.03908,-0.06414l0.00019,0.06486l-0.0937,0.00028v0.00561h-1.87617c-0.69036,0 -1.25,-0.55964 -1.25,-1.25c0,-0.68927 0.55789,-1.24824 1.24674,-1.25l1.93643,-0.00579c0.17228,-0.01132 0.34418,-0.02312 0.51575,-0.03539c1.81276,-1.02826 4.94333,-0.79649 6.82576,-0.84562c4.1929,-0.10941 7.3663,-1.74083 11.33402,-2.59799c2.60117,-0.56194 4.39853,-0.82065 6.87319,-1.96552l0.13685,-0.06316c0,0 1.13494,-0.52384 1.65878,0.6111z" fill-opacity="0.74902" fill="#135033" stroke="none" stroke-width="0.5" stroke-linecap="butt"/><path d="M136.02955,312.68353c0,-1.25 1.25,-1.25 1.25,-1.25h2.19512c3.84293,0 8.30025,0.6254 12.07941,-0.12439c1.7604,-0.34927 4.28102,-1.47769 5.72997,-2.55437c0.74718,-0.55521 1.19288,-1.51188 2.03122,-1.91652c1.13494,-0.5478 2.5551,-0.31696 3.67168,-0.90127c3.7874,-1.89346 6.81545,-3.90485 11.19222,-3.88432c1.26032,0.00592 5.50892,-0.47338 5.62614,2.17847c0.01166,0.26389 -4.05285,3.15919 -4.59993,3.55428c-3.4175,2.46806 -7.33192,4.18524 -11.06518,6.13981c-2.04633,1.07137 -5.24296,2.72771 -7.63111,2.67474c-0.95624,-0.02121 -1.82618,-0.5696 -2.73927,-0.85441c0,0 -1.18586,-0.39528 -0.79057,-1.58114c0.39529,-1.18586 1.58114,-0.79057 1.58114,-0.79057c5.00291,1.81412 12.93255,-3.5844 17.23628,-6.20545c0.83225,-0.50685 2.04896,-1.87346 3.29404,-2.60862c-0.30393,-0.00277 -0.608,-0.00883 -0.91153,-0.00711c-1.89128,0.01071 -2.32431,-0.19936 -4.1668,0.52292c-2.01033,0.78807 -3.96827,2.12778 -5.90739,3.09746c-0.716,0.34554 -1.37751,0.84064 -2.148,1.03661c-0.5447,0.13854 -1.17996,-0.30832 -1.68501,-0.06171c-0.66198,0.32323 -0.91704,1.17428 -1.50432,1.61901c-1.70581,1.29176 -4.65869,2.57793 -6.73494,2.99593c-3.93996,0.79321 -8.55095,0.17064 -12.55804,0.17064h-2.19512c0,0 -1.25,0 -1.25,-1.25z" fill-opacity="0.74902" fill="#135033" stroke="none" stroke-width="0.5" stroke-linecap="butt"/><path d="M74.60772,338.57088c-0.55902,1.11804 -1.67705,0.55902 -1.67705,0.55902l-1.60435,-0.83956c-7.31785,0.12794 -14.97757,0.73121 -22.16041,-0.73672c-0.40038,0.04034 -0.80233,0.08872 -1.20662,0.14978c-3.26523,0.49316 -6.38009,2.06696 -9.65311,2.48641c-4.06696,0.52119 -8.55466,0.01014 -12.65889,0.01014c0,0 -1.25,0 -1.25,-1.25c0,-1.25 1.25,-1.25 1.25,-1.25c3.99554,0 8.38349,0.51732 12.34111,0.01014c2.07901,-0.26643 4.09905,-1.00624 6.13508,-1.63299c-2.06483,-0.81819 -4.38744,-2.03901 -4.68283,-3.40432c-0.37562,-1.73618 2.29247,-4.12792 3.34629,-5.11273c4.53782,-4.24065 10.04014,-1.33549 14.65905,1.38142c1.7509,0.70693 7.20879,2.61394 5.96035,5.74815c-0.23436,0.58835 -0.7332,0.99563 -1.37895,1.28211c3.29945,-0.0312 6.60748,-0.15842 9.87333,-0.11451l2.148,1.03661c0,0 1.11803,0.55901 0.55902,1.67705zM49.69176,335.09674c1.07691,-0.03336 2.22347,-0.05398 2.91088,-0.14397c2.50084,-0.32738 4.65202,-0.89285 7.18842,-0.97967c0.4251,-0.01455 1.01429,0.19777 1.26793,-0.14368c0.18594,-0.25031 -0.44744,-0.43805 -0.70151,-0.61882c-1.22093,-0.86865 -2.62241,-1.46756 -4.01326,-2.02501c-3.48886,-2.03938 -8.39724,-5.25059 -11.82378,-1.82415c-0.54442,0.5444 -1.11048,1.06719 -1.64625,1.62011c-0.34719,0.3583 -1.15266,0.63691 -1.00147,1.11237c0.16994,0.53442 1.06738,0.36356 1.55747,0.63612c1.31994,0.73407 2.6668,1.48311 4.12622,1.87198c0.70777,0.18859 1.41975,0.3525 2.13537,0.49473z" fill-opacity="0.74902" fill="#135033" stroke="none" stroke-width="0.5" stroke-linecap="butt"/><path d="M345.84665,354.89742c0,1.25 -1.25,1.25 -1.25,1.25h-1.25234c-3.08764,0 -4.77537,-0.15434 -6.729,-1.28708l-0.10787,0.20391l-1.79856,-0.95147c-0.40837,-0.20567 -0.68851,-0.62867 -0.68851,-1.1171c0,-0.51078 0.30635,-0.95 0.74534,-1.14394l2.23877,-1.04817l0.00664,0.0142l0.05995,-0.04305c0.87861,-0.29246 1.83182,-0.71019 2.82201,-1.14064c-2.91226,-0.37056 -5.75152,-0.95189 -8.05057,-2.06141c0,0 -1.11804,-0.55901 -0.55902,-1.67705c0.55901,-1.11804 1.67705,-0.55901 1.67705,-0.55901c1.20547,0.63083 2.65227,0.62305 3.99859,0.81935c3.87214,0.56457 7.74952,1.38592 11.68207,1.79024l2.45975,0.0704c0.67586,0.01664 1.21864,0.56975 1.21864,1.24962c0,0.68995 -0.55898,1.24933 -1.24877,1.25c-0.00005,0 -0.00011,0 -0.00016,0l-2.49984,0.00247v-0.00012c-0.00018,0.00004 -0.00037,0.00008 -0.00055,0.00012c-0.87352,0.18458 -3.51453,-0.18947 -4.34628,-0.02528c-2.01695,0.39815 -4.22838,1.93166 -6.2086,2.59731l-0.20408,0.09555c0.48226,0.15594 0.96179,0.37336 1.444,0.4946c1.3219,0.33234 2.72595,-0.03343 4.08899,-0.03343h1.25234c0,0 1.25,0 1.25,1.25z" fill-opacity="0.74902" fill="#135033" stroke="none" stroke-width="0.5" stroke-linecap="butt"/><path d="M469.39858,335.53127c0.37234,0.78151 1.02895,1.49163 1.16194,2.33569c0.17025,-0.1013 0.39114,-0.16702 0.67776,-0.16702c1.25,0 1.25,1.25 1.25,1.25l-0.03344,2.16336c-0.59782,0.92856 -0.73032,2.48675 -1.79345,2.78566c-1.79109,0.50358 -4.11841,-2.31514 -5.05179,-3.35515c-2.44329,-2.72246 -3.6401,-5.88419 -4.11965,-9.25512c-0.55503,-1.69531 -0.86711,-3.50129 -0.88239,-5.45323c-0.00009,-0.00624 -0.00014,-0.01247 -0.00014,-0.01873c0,-0.15798 0.02931,-0.30913 0.08279,-0.44828c0.12183,-0.35858 0.42295,-0.80172 1.16721,-0.80172c0.57841,0 0.88917,0.26765 1.05614,0.55525l1.35324,1.507c2.35409,2.64598 3.61494,5.71851 5.13178,8.90229zM466.7673,335.92808c-0.85226,-1.7726 -1.61213,-3.58946 -2.62298,-5.26217c0.07346,0.38541 0.13453,0.77739 0.19304,1.17201c0.62351,1.44461 1.45565,2.79708 2.42994,4.09016z" fill-opacity="0.74902" fill="#135033" stroke="none" stroke-width="0.5" stroke-linecap="butt"/><path d="M-182.91979,-110.39339c0,-0.69035 0.55964,-1.25 1.25,-1.25c0.69036,0 1.25,0.55965 1.25,1.25c0,0.69035 -0.55964,1.25 -1.25,1.25c-0.69036,0 -1.25,-0.55965 -1.25,-1.25z" fill="#82ff66" stroke="none" stroke-width="0.5" stroke-linecap="butt"/><text transform="translate(197.85319,234.30192) rotate(-20.43648) scale(0.12395,0.12395)" font-size="40" xml:space="preserve" fill="#82ff66" fill-rule="nonzero" stroke="none" stroke-width="1" stroke-linecap="butt" stroke-linejoin="miter" stroke-miterlimit="10" stroke-dasharray="" stroke-dashoffset="0" font-family="Sans Serif" font-weight="normal" text-anchor="start" style="mix-blend-mode: normal"><tspan x="0" dy="0">sdewjfihewirffeiof</tspan><tspan x="0" dy="46.150000000000006px">efjifjef</tspan><tspan x="0" dy="46.150000000000006px">espfjsefipsefjesfesfpsejfesfijes'f</tspan><tspan x="0" dy="46.150000000000006px">jesf</tspan><tspan x="0" dy="46.150000000000006px">esfjesfesj</tspan><tspan x="0" dy="46.150000000000006px">f</tspan></text><text transform="translate(333.7985,216.21988) rotate(20.74471) scale(0.08015,0.08015)" font-size="40" xml:space="preserve" fill="#82ff66" fill-rule="nonzero" stroke="none" stroke-width="1" stroke-linecap="butt" stroke-linejoin="miter" stroke-miterlimit="10" stroke-dasharray="" stroke-dashoffset="0" font-family="Sans Serif" font-weight="normal" text-anchor="start" style="mix-blend-mode: normal"><tspan x="0" dy="0">djwiodjaidoawjdwad</tspan><tspan x="0" dy="46.150000000000006px">pawdjwadawjdwap'dwajdaw</tspan><tspan x="0" dy="46.150000000000006px">dwa</tspan><tspan x="0" dy="46.150000000000006px">jdwa</tspan><tspan x="0" dy="46.150000000000006px">dwad</tspan><tspan x="0" dy="46.150000000000006px">wa</tspan></text><text transform="translate(387.46148,223.40569) rotate(-10.9298) scale(0.06326,0.06326)" font-size="40" xml:space="preserve" fill="#82ff66" fill-rule="nonzero" stroke="none" stroke-width="1" stroke-linecap="butt" stroke-linejoin="miter" stroke-miterlimit="10" stroke-dasharray="" stroke-dashoffset="0" font-family="Sans Serif" font-weight="normal" text-anchor="start" style="mix-blend-mode: normal"><tspan x="0" dy="0">duawhduhe</tspan><tspan x="0" dy="46.150000000000006px">fwahwa</tspan><tspan x="0" dy="46.150000000000006px">dhwahwadhgrdhgrghrg</tspan><tspan x="0" dy="46.150000000000006px">h</tspan></text><text transform="translate(39.65565,327.00644) rotate(20.74205) scale(0.14097,0.14097)" font-size="40" xml:space="preserve" fill="#82ff66" fill-rule="nonzero" stroke="none" stroke-width="1" stroke-linecap="butt" stroke-linejoin="miter" stroke-miterlimit="10" stroke-dasharray="" stroke-dashoffset="0" font-family="Sans Serif" font-weight="normal" text-anchor="start" style="mix-blend-mode: normal"><tspan x="0" dy="0">dddasssssd</tspan><tspan x="0" dy="46.150000000000006px">asdopawksamk</tspan><tspan x="0" dy="46.150000000000006px">dkad'awkodw</tspan><tspan x="0" dy="46.150000000000006px">dakosaskdso</tspan></text><path d="M-130.66086,402.45687v-270.63604h743.32174v270.63604z" fill="url(#color-12)" stroke="none" stroke-width="0" stroke-linecap="butt"/><path d="M-68.93582,72.00215c-15.53143,5.91674 -32.09873,4.64318 -45.24082,-5.36919c-16.87144,-12.85359 -15.27416,-43.98657 -0.25442,-57.54156c4.46589,-4.03037 9.39057,-4.33742 14.38937,-6.83888c1.14833,-0.57464 4.71358,-5.92577 5.96477,-7.17696c5.42102,-5.42102 14.50003,-8.38324 21.75024,-9.74399c9.4279,-1.76947 20.80134,1.13508 29.4401,-3.49488c2.7445,-1.47092 4.41436,-4.40859 6.83317,-6.36954c4.50705,-3.65391 12.63234,-8.04539 18.73721,-9.72697c11.15283,-3.07204 20.98426,-3.04483 32.14965,0.14528c2.80035,0.8001 6.37462,2.05633 8.79674,3.66531c0.74169,0.49269 2.35893,2.89083 3.45627,2.90646c6.15142,0.08764 10.04273,0.24705 15.93001,1.98022c0.84959,0.25011 0.84646,-2.01862 0.9444,-2.41061c0.91988,-3.68172 2.12349,-8.32091 4.53324,-11.3331c6.80518,-8.50648 15.54783,-13.69058 26.40088,-15.26504c6.97389,-1.0117 15.20384,1.29308 21.23611,4.84081c3.9112,2.30028 7.06384,7.07823 11.60112,7.12133c0.3696,0.00351 6.62371,-3.9389 7.70892,-4.28419c2.82485,-0.89882 6.56831,-0.69544 9.50439,-0.69544c6.46033,0 13.78857,1.9469 19.44288,5.20181c3.5343,2.03452 7.01557,4.16045 10.49072,6.29443c0.51754,0.3178 0.88467,1.19975 1.4772,1.06652c6.01563,-1.35255 11.90005,-3.36915 18.15102,-3.00745c5.81252,0.33633 10.48823,2.27307 14.83612,6.14532c1.46756,1.30702 2.90956,2.73181 4.19629,4.19629c0.74063,0.84294 1.46382,1.70461 2.11992,2.6149c0.17758,0.24638 0.25773,0.94628 0.49925,0.76215c3.19382,-2.43506 5.38891,-5.73783 8.85253,-7.80699c11.99717,-7.16709 30.69285,-14.95913 45.03568,-9.58056c3.58586,1.3447 8.19384,2.85504 11.63181,5.09458c3.96577,2.58336 7.3405,6.2208 11.71983,8.01597c1.70448,0.6987 6.10129,-3.45555 6.73701,-3.80289c4.65474,-2.54321 12.57705,-3.90625 17.2696,-5.01231c10.86306,-2.56047 20.78933,0.26925 31.05009,3.40563c2.28356,0.69801 4.65724,2.1191 6.86875,2.46107c2.35351,0.36392 4.65395,-1.18643 7.03464,-1.24779c10.66737,-0.27493 21.78877,0.64278 31.39115,5.91166c0.21032,0.1154 11.79071,7.48559 13.30312,8.10961c2.32406,0.95891 7.49681,-0.34397 10.37616,0.42394c10.39947,2.77352 19.76105,5.48754 28.94513,10.90682c0.93461,0.55149 0.14595,-2.16851 0.31765,-3.24003c0.30894,-1.92803 0.15217,-3.93854 0.68123,-5.81812c1.94289,-6.9024 7.57074,-12.88745 14.04775,-15.15251c3.15614,-1.10372 6.09102,-2.78528 9.25222,-3.87442c9.10746,-3.13783 21.28356,-0.65791 29.83526,1.29058c4.89697,1.11576 9.53611,4.80602 14.19443,5.55919c4.43224,0.71662 10.16406,-1.20272 15.09392,-0.83227c8.15842,0.61306 16.07398,3.62775 23.9374,4.61729c1.74114,0.21911 3.10621,-1.65239 4.7439,-2.28288c3.44342,-1.32567 7.88176,-0.53731 11.12338,-1.89949c0.54564,-0.22929 -0.04208,-1.26155 0.28947,-1.75182c2.51284,-3.71574 4.00102,-7.13416 7.52759,-9.31106c8.49447,-5.2435 16.42675,-5.37609 26.10297,-5.37609c9.86434,0 26.17253,9.96851 31.92382,17.04701c3.60619,4.43839 7.16705,9.12734 6.42557,15.47381c-0.46074,3.94355 -3.47746,7.2049 -4.41297,11.06349c-0.64693,2.66832 1.38087,3.88626 0.93751,5.97662c-0.79362,3.74179 -0.66065,8.29673 -3.40908,10.957c-2.2825,2.20929 -4.72771,4.24966 -7.21237,6.22886c-8.07399,6.43152 -20.71287,1.0938 -28.45374,-2.33289c-2.84055,-1.25745 -5.64689,-2.59426 -8.51608,-3.78492c-0.99727,-0.41385 -2.06989,-1.4239 -3.07297,-1.02432c-0.72804,0.29002 -0.09914,1.56705 -0.22939,2.33983c-0.34261,2.03272 -1.00744,8.0678 -2.1667,10.18505c-2.2484,4.10641 -6.85712,8.56886 -11.03388,10.68369c-3.83443,1.9415 -10.30745,1.98561 -14.55522,2.22244c-1.25127,0.06977 -3.05185,-0.76095 -3.98864,-0.27852c-5.56629,2.86655 -9.69807,5.2297 -16.15488,6.39551c-1.72889,0.31216 -4.6928,-0.96293 -6.04455,-0.0828c-1.1716,0.76283 -0.25252,2.80702 -0.67642,4.13926c-0.7638,2.4005 -5.08419,7.50056 -7.32647,8.64861c-2.36875,1.2128 -6.05593,2.46733 -8.68057,2.99287c-2.22694,0.44591 -4.97448,-0.33201 -6.72073,1.12012c-1.98467,1.65039 -4.42571,8.52755 -6.83701,11.54827c-8.3292,10.43431 -19.03373,17.66262 -33.1329,16.88304c-10.24193,-0.5663 -19.7997,-8.22039 -27.06312,-14.38473c-2.45808,-2.08613 -4.94955,-4.13501 -7.3435,-6.29443c-0.87569,-0.7899 -1.27001,-2.90887 -2.40638,-2.59353c-18.99911,5.27223 -45.71734,9.95764 -60.61055,-6.88934c-3.10808,-3.51582 -4.56591,-9.07093 -5.28688,-13.66711c-0.10947,-0.69787 0.58814,-3.24607 0.34831,-3.71727c-0.02882,-0.05661 -4.46764,0.51278 -6.5016,0.34211c-3.50204,-0.29386 -7.00236,-0.62251 -10.49072,-1.04907c-3.2211,-0.39388 -5.7034,-1.96145 -8.82121,-2.72545c-0.19074,-0.04674 -5.86639,2.59284 -6.17866,2.68738c-5.12427,1.5515 -10.41034,1.84734 -15.83936,1.30444c-3.37464,-0.33746 -7.39159,-1.7919 -10.18361,-3.637c-2.01799,-1.33359 -4.01862,-2.69333 -6.03776,-4.02517c-0.40401,-0.26649 -0.7606,-0.88236 -1.23125,-0.76953c-1.88643,0.45224 -3.61184,3.62079 -5.36689,4.72924c-1.39117,0.87863 -8.53466,2.75178 -9.53852,4.96541c-0.3209,0.70762 -0.18079,2.64033 -0.33926,3.13836c-1.51237,4.75316 -5.08734,9.6761 -8.91673,12.84991c-5.02599,4.16555 -12.4184,6.80643 -18.98812,6.69438c-3.14557,-0.05365 -6.49979,-0.65797 -9.58207,-1.26465c-0.93105,-0.18326 -1.90498,-1.10568 -2.76053,-0.69524c-2.50596,1.20218 -4.50931,4.17401 -6.90994,5.82468c-4.89702,3.36718 -12.06598,6.17704 -18.1373,5.79359c-12.86535,-0.81255 -22.28722,-12.34988 -31.45911,-19.97495c-1.17293,-0.97512 -3.0513,-0.1793 -4.55554,-0.43208c-4.00223,-0.67254 -15.1919,-3.45105 -18.29319,-6.09773c-1.19162,-1.01694 -5.36366,-5.13589 -6.22886,-7.21237c-0.60219,-1.44525 -1.40903,-5.36772 -2.37333,-6.29443c-0.5642,-0.5422 -1.56565,0.03196 -2.34749,0c-2.97727,-0.12172 -6.50301,-0.61742 -9.23983,-1.4961c-2.93526,-0.94239 -6.49801,-4.00147 -9.01702,-4.62348c-2.11978,-0.52343 -5.73172,-0.38313 -8.10055,-1.03983c-0.9018,-0.25001 -4.40904,-3.61565 -4.78137,-3.36648c-2.21523,1.48247 -3.81091,3.73922 -5.88146,5.41783c-6.23507,5.05482 -15.91158,7.90908 -23.77649,6.95887c-3.93301,-0.47517 -7.73507,-4.36425 -11.45143,-4.68511c-0.40366,-0.03485 -0.26177,0.82704 -0.59225,1.06143c-0.57245,0.40602 -5.71527,3.07301 -6.44028,3.41942c-5.0776,2.42607 -10.44234,3.72953 -16.06106,3.72953c-5.94296,0 -9.79835,-3.25918 -15.06404,-4.59977c-5.31751,-1.35379 -12.51078,-2.78672 -18.02941,-2.2759c-1.34177,0.1242 -2.26384,1.46322 -3.42006,2.15525c-2.27421,1.36119 -7.57489,2.96234 -9.429,3.51299c-2.41509,0.71725 -10.12635,0.56543 -10.95718,1.0767c-1.46245,0.89996 -2.59793,2.26889 -4.05575,3.17633c-3.692,2.29814 -8.37731,1.94126 -12.35018,3.09277c-0.72401,0.20985 -0.44321,1.44797 -0.77778,2.12347c-1.37478,2.77574 -3.48673,5.71875 -5.48235,8.19199c-6.58008,8.15495 -16.46854,11.59098 -26.58309,10.57952z" fill-opacity="0.50196" fill="#400000" stroke="none" stroke-width="0.5" stroke-linecap="butt"/><path d="M-70.81199,-72.95215c-15.53143,5.91674 -32.09873,4.64318 -45.24082,-5.36919c-16.87144,-12.85359 -15.27416,-43.98657 -0.25442,-57.54156c4.46589,-4.03037 9.39057,-4.33742 14.38937,-6.83888c1.14833,-0.57464 4.71358,-5.92577 5.96477,-7.17696c5.42102,-5.42102 14.50003,-8.38324 21.75024,-9.74399c9.4279,-1.76947 20.80134,1.13508 29.4401,-3.49488c2.7445,-1.47092 4.41436,-4.40859 6.83317,-6.36954c4.50705,-3.65391 12.63234,-8.04539 18.73721,-9.72697c11.15283,-3.07204 20.98426,-3.04483 32.14965,0.14528c2.80035,0.8001 6.37462,2.05633 8.79674,3.66531c0.74169,0.49269 2.35893,2.89083 3.45627,2.90646c6.15142,0.08764 10.04273,0.24705 15.93001,1.98022c0.84959,0.25011 0.84646,-2.01862 0.9444,-2.41061c0.91988,-3.68172 2.12349,-8.32091 4.53324,-11.3331c6.80518,-8.50648 15.54783,-13.69058 26.40088,-15.26504c6.97389,-1.0117 15.20384,1.29308 21.23611,4.84081c3.9112,2.30028 7.06384,7.07823 11.60112,7.12133c0.3696,0.00351 6.62371,-3.9389 7.70892,-4.28419c2.82485,-0.89882 6.56831,-0.69544 9.50439,-0.69544c6.46033,0 13.78857,1.9469 19.44288,5.20181c3.5343,2.03452 7.01557,4.16045 10.49072,6.29443c0.51754,0.3178 0.88467,1.19975 1.4772,1.06652c6.01563,-1.35255 11.90005,-3.36915 18.15102,-3.00745c5.81252,0.33633 10.48823,2.27307 14.83612,6.14532c1.46756,1.30702 2.90956,2.73181 4.19629,4.19629c0.74063,0.84294 1.46382,1.70461 2.11992,2.6149c0.17758,0.24638 0.25773,0.94628 0.49925,0.76215c3.19382,-2.43506 5.38891,-5.73783 8.85253,-7.80699c11.99717,-7.16709 30.69285,-14.95913 45.03568,-9.58056c3.58586,1.3447 8.19384,2.85504 11.63181,5.09458c3.96577,2.58336 7.3405,6.2208 11.71983,8.01597c1.70448,0.6987 6.10129,-3.45555 6.73701,-3.80289c4.65474,-2.54321 12.57705,-3.90625 17.2696,-5.01231c10.86306,-2.56047 20.78933,0.26925 31.05009,3.40563c2.28356,0.69801 4.65724,2.1191 6.86875,2.46107c2.35351,0.36392 4.65395,-1.18643 7.03464,-1.24779c10.66737,-0.27493 21.78877,0.64278 31.39115,5.91166c0.21032,0.1154 11.79071,7.48559 13.30312,8.10961c2.32406,0.95891 7.49681,-0.34397 10.37616,0.42394c10.39947,2.77352 19.76105,5.48754 28.94513,10.90682c0.93461,0.55149 0.14595,-2.16851 0.31765,-3.24003c0.30894,-1.92803 0.15217,-3.93854 0.68123,-5.81812c1.94289,-6.9024 7.57074,-12.88745 14.04775,-15.15251c3.15614,-1.10372 6.09102,-2.78528 9.25222,-3.87442c9.10746,-3.13783 21.28356,-0.65791 29.83526,1.29058c4.89697,1.11576 9.53611,4.80602 14.19443,5.55919c4.43224,0.71662 10.16406,-1.20272 15.09392,-0.83227c8.15842,0.61306 16.07398,3.62775 23.9374,4.61729c1.74114,0.21911 3.10621,-1.65239 4.7439,-2.28288c3.44342,-1.32567 7.88176,-0.53731 11.12338,-1.89949c0.54564,-0.22929 -0.04208,-1.26155 0.28947,-1.75182c2.51284,-3.71574 4.00102,-7.13416 7.52759,-9.31106c8.49447,-5.2435 16.42675,-5.37609 26.10297,-5.37609c9.86434,0 26.17253,9.96851 31.92382,17.04701c3.60619,4.43839 7.16705,9.12734 6.42557,15.47381c-0.46074,3.94355 -3.47746,7.2049 -4.41297,11.06349c-0.64693,2.66832 1.38087,3.88626 0.93751,5.97662c-0.79362,3.74179 -0.66065,8.29673 -3.40908,10.957c-2.2825,2.20929 -4.72771,4.24966 -7.21237,6.22886c-8.07399,6.43152 -20.71287,1.0938 -28.45374,-2.33289c-2.84055,-1.25745 -5.64689,-2.59426 -8.51608,-3.78492c-0.99727,-0.41385 -2.06989,-1.4239 -3.07297,-1.02432c-0.72804,0.29002 -0.09914,1.56705 -0.22939,2.33983c-0.34261,2.03272 -1.00744,8.0678 -2.1667,10.18505c-2.2484,4.10641 -6.85712,8.56886 -11.03388,10.68369c-3.83443,1.9415 -10.30745,1.98561 -14.55522,2.22244c-1.25127,0.06977 -3.05185,-0.76095 -3.98864,-0.27852c-5.56629,2.86655 -9.69807,5.2297 -16.15488,6.39551c-1.72889,0.31216 -4.6928,-0.96293 -6.04455,-0.0828c-1.1716,0.76283 -0.25252,2.80702 -0.67642,4.13926c-0.7638,2.4005 -5.08419,7.50056 -7.32647,8.64861c-2.36875,1.2128 -6.05593,2.46733 -8.68057,2.99287c-2.22694,0.44591 -4.97448,-0.33201 -6.72073,1.12012c-1.98467,1.65039 -4.42571,8.52755 -6.83701,11.54827c-8.3292,10.43431 -19.03373,17.66262 -33.1329,16.88304c-10.24193,-0.5663 -19.7997,-8.22039 -27.06312,-14.38473c-2.45808,-2.08613 -4.94955,-4.13501 -7.3435,-6.29443c-0.87569,-0.7899 -1.27001,-2.90887 -2.40638,-2.59353c-18.99911,5.27223 -45.71734,9.95764 -60.61055,-6.88934c-3.10808,-3.51582 -4.56591,-9.07093 -5.28688,-13.66711c-0.10947,-0.69787 0.58814,-3.24607 0.34831,-3.71727c-0.02882,-0.05661 -4.46764,0.51278 -6.5016,0.34211c-3.50204,-0.29386 -7.00236,-0.62251 -10.49072,-1.04907c-3.2211,-0.39388 -5.7034,-1.96145 -8.82121,-2.72545c-0.19074,-0.04674 -5.86639,2.59284 -6.17866,2.68738c-5.12427,1.5515 -10.41034,1.84734 -15.83936,1.30444c-3.37464,-0.33746 -7.39159,-1.7919 -10.18361,-3.637c-2.01799,-1.33359 -4.01862,-2.69333 -6.03776,-4.02517c-0.40401,-0.26649 -0.7606,-0.88236 -1.23125,-0.76953c-1.88643,0.45224 -3.61184,3.62079 -5.36689,4.72924c-1.39117,0.87863 -8.53466,2.75178 -9.53852,4.96541c-0.3209,0.70762 -0.18079,2.64033 -0.33926,3.13836c-1.51237,4.75316 -5.08734,9.6761 -8.91673,12.84991c-5.02599,4.16555 -12.4184,6.80643 -18.98812,6.69438c-3.14557,-0.05365 -6.49979,-0.65797 -9.58207,-1.26465c-0.93105,-0.18326 -1.90498,-1.10568 -2.76053,-0.69524c-2.50596,1.20218 -4.50931,4.17401 -6.90994,5.82468c-4.89702,3.36718 -12.06598,6.17704 -18.1373,5.79359c-12.86535,-0.81255 -22.28722,-12.34988 -31.45911,-19.97495c-1.17293,-0.97512 -3.0513,-0.1793 -4.55554,-0.43208c-4.00223,-0.67254 -15.1919,-3.45105 -18.29319,-6.09773c-1.19162,-1.01694 -5.36366,-5.13589 -6.22886,-7.21237c-0.60219,-1.44525 -1.40903,-5.36772 -2.37333,-6.29443c-0.5642,-0.5422 -1.56565,0.03196 -2.34749,0c-2.97727,-0.12172 -6.50301,-0.61742 -9.23983,-1.4961c-2.93526,-0.94239 -6.49801,-4.00147 -9.01702,-4.62348c-2.11978,-0.52343 -5.73172,-0.38313 -8.10055,-1.03983c-0.9018,-0.25001 -4.40904,-3.61565 -4.78137,-3.36648c-2.21523,1.48247 -3.81091,3.73922 -5.88146,5.41783c-6.23507,5.05482 -15.91158,7.90908 -23.77649,6.95887c-3.93301,-0.47517 -7.73507,-4.36425 -11.45143,-4.68511c-0.40366,-0.03485 -0.26177,0.82704 -0.59225,1.06143c-0.57245,0.40602 -5.71527,3.07301 -6.44028,3.41942c-5.0776,2.42607 -10.44234,3.72953 -16.06106,3.72953c-5.94296,0 -9.79835,-3.25918 -15.06404,-4.59977c-5.31751,-1.35379 -12.51078,-2.78672 -18.02941,-2.2759c-1.34177,0.1242 -2.26384,1.46322 -3.42006,2.15525c-2.27421,1.36119 -7.57489,2.96234 -9.429,3.51299c-2.41509,0.71725 -10.12635,0.56543 -10.95718,1.0767c-1.46245,0.89996 -2.59793,2.26889 -4.05575,3.17633c-3.692,2.29814 -8.37731,1.94126 -12.35018,3.09277c-0.72401,0.20985 -0.44321,1.44797 -0.77778,2.12347c-1.37478,2.77574 -3.48673,5.71875 -5.48235,8.19199c-6.58008,8.15495 -16.46854,11.59098 -26.58309,10.57952z" fill-opacity="0.25098" fill="#400000" stroke="none" stroke-width="0.5" stroke-linecap="butt"/></g></g></svg>