<svg version="1.1" xmlns="http://www.w3.org/2000/svg" xmlns:xlink="http://www.w3.org/1999/xlink" width="58.55542" height="58.25321" viewBox="0,0,58.55542,58.25321"><defs><linearGradient x1="240" y1="156.3985" x2="240" y2="168.52344" gradientUnits="userSpaceOnUse" id="color-1"><stop offset="0" stop-color="#000000"/><stop offset="1" stop-color="#000000" stop-opacity="0"/></linearGradient></defs><g transform="translate(-210.72229,-131.13259)"><g data-paper-data="{&quot;isPaintingLayer&quot;:true}" fill-rule="nonzero" stroke="none" stroke-linecap="butt" stroke-linejoin="miter" stroke-miterlimit="10" stroke-dasharray="" stroke-dashoffset="0" style="mix-blend-mode: normal"><path d="M234.21313,189.3858v-34.92452h11.57374v34.92452z" fill="#804419" stroke-width="0"/><path d="M234.21313,168.52344v-12.12494h11.57374v12.12494z" fill="url(#color-1)" stroke-width="0"/><path d="M269.27771,131.13259v33.72298h-58.55542v-33.72298z" fill="#b36025" stroke-width="0"/><path d="M263.10768,136.5581c0,1.93722 -1.93722,1.93722 -1.93722,1.93722l-1.91086,-0.08567c-0.57456,-0.18115 -1.14911,-0.36228 -1.72367,-0.54342c-3.2247,-0.21621 -6.08029,0.84867 -9.28882,0.92669c-3.77064,0.09168 -7.01078,-1.84508 -10.83988,-1.35424c-7.7542,0.99397 -15.14691,3.27212 -22.64776,-0.16477c0,0 -1.75891,-0.81181 -0.94711,-2.57073c0.8118,-1.75892 2.57072,-0.94711 2.57072,-0.94711c6.66507,3.10202 13.65072,0.68032 20.56714,-0.16478c4.00652,-0.48955 7.36728,1.45911 11.21464,1.32807c3.49612,-0.11908 6.53349,-1.1261 10.08339,-0.86152c0.71692,0.21624 1.43385,0.43248 2.15076,0.64871l0.77144,-0.08566c0,0 1.93722,0 1.93722,1.93722z" fill="#cb6e2b" stroke-width="0.5"/><path d="M232.78271,144.66889c0.53219,1.86268 -1.33049,2.39488 -1.33049,2.39488l-2.8269,0.65935c-3.78864,-1.9075 -8.7865,-0.30214 -12.92909,0.28982c0,0 -1.91775,0.27397 -2.19172,-1.64379c-0.27397,-1.91776 1.64379,-2.19172 1.64379,-2.19172c4.15894,-0.59399 10.17008,-2.47134 13.89395,-0.30625l1.34558,-0.53278c0,0 1.86268,-0.5322 2.39488,1.33049z" fill="#cb6e2b" stroke-width="0.5"/><path d="M262.75181,145.07486c-0.46985,1.87938 -2.34922,1.40954 -2.34922,1.40954l-0.26424,-0.0961c-3.49845,-0.25947 -6.86548,0.69792 -10.33127,0.60062c-3.91387,-0.10989 -7.8015,-0.59779 -11.73422,-0.5957c0,0 -1.93722,0 -1.93722,-1.93722c0,-1.93722 1.93722,-1.93722 1.93722,-1.93722c3.96002,0.00199 7.86934,0.45853 11.81045,0.59645c3.51522,0.12301 6.96703,-0.83759 10.5311,-0.59152l0.92789,0.20194c0,0 1.87937,0.46985 1.40953,2.34923z" fill="#cb6e2b" stroke-width="0.5"/><path d="M261.16377,152.06772c-0.16088,1.93053 -2.09141,1.76966 -2.09141,1.76966l-1.47875,-0.14803c-2.18676,0.16734 -3.79209,0.37408 -5.83684,1.20831c0,0 -1.79867,0.71946 -2.51813,-1.0792c-0.71946,-1.79866 1.0792,-2.51812 1.0792,-2.51812c2.41069,-0.9486 4.41219,-1.27561 6.97862,-1.474l2.09765,0.15c0,0 1.93053,0.16087 1.76965,2.0914z" fill="#cb6e2b" stroke-width="0.5"/><path d="M262.66063,160.25179c0,1.93722 -1.93722,1.93722 -1.93722,1.93722l0.14555,-0.02253c-3.73452,0.57449 -6.36075,0.84679 -9.90579,-0.75528c0,0 -1.75548,-0.81923 -0.93626,-2.57471c0.81923,-1.75548 2.5747,-0.93625 2.5747,-0.93625c2.759,1.34304 4.73226,0.89011 7.67821,0.43685l0.44358,-0.02253c0,0 1.93722,0 1.93722,1.93722z" fill="#cb6e2b" stroke-width="0.5"/><path d="M244.93808,154.2655c-0.71946,1.79866 -2.51812,1.0792 -2.51812,1.0792l-0.16364,-0.1644c-2.80389,-0.20796 -5.62301,1.16625 -8.31147,0.73334c-1.7358,-0.2795 -3.15577,-1.56909 -4.81065,-2.16279c-1.41264,-0.50679 -3.00337,0.00017 -4.50152,0.08948c-2.54917,0.15196 -4.98621,0.50679 -7.48934,1.00925c0,0 -1.89961,0.37992 -2.27952,-1.51968c-0.37992,-1.8996 1.51969,-2.27952 1.51969,-2.27952c3.93905,-0.78509 9.97736,-2.24088 13.93809,-0.98753c1.45977,0.46194 2.62249,1.74391 4.13036,2.00968c0.85815,0.15126 3.066,-0.6435 3.59369,-0.73425c1.83266,-0.31517 2.6564,-0.14895 4.48671,-0.02257l1.32652,0.43167c0,0 1.79866,0.71947 1.07919,2.51813z" fill="#cb6e2b" stroke-width="0.5"/><path d="M243.57977,160.26366c-0.16088,1.93053 -2.09141,1.76965 -2.09141,1.76965l-1.62733,-0.14232c-1.395,-0.01249 -2.75592,0.44535 -4.14368,0.58788c-2.34949,0.24132 -4.87999,-0.36611 -7.19237,-0.59449c-3.33993,-0.32985 -6.79149,0.09057 -10.05794,0.71748c0,0 -1.90301,0.36248 -2.26549,-1.54053c-0.36248,-1.90301 1.54053,-2.26549 1.54053,-2.26549c3.61725,-0.68418 7.40684,-1.12349 11.10246,-0.7727c2.05958,0.1955 4.42091,0.83312 6.51719,0.59765c1.50377,-0.16891 2.98611,-0.59362 4.4993,-0.60425l1.94908,0.15571c0,0 1.93053,0.16088 1.76966,2.09141z" fill="#cb6e2b" stroke-width="0.5"/></g></g></svg>