<svg version="1.1" xmlns="http://www.w3.org/2000/svg" xmlns:xlink="http://www.w3.org/1999/xlink" width="780.86725" height="715.68168" viewBox="0,0,780.86725,715.68168"><defs><radialGradient cx="353.27221" cy="208.04981" r="357.84084" gradientUnits="userSpaceOnUse" id="color-1"><stop offset="0" stop-color="#ff0000" stop-opacity="0.50196"/><stop offset="1" stop-color="#ff0000" stop-opacity="0"/></radialGradient></defs><g transform="translate(69.7542,149.79103)"><g data-paper-data="{&quot;isPaintingLayer&quot;:true}" fill-rule="nonzero" stroke="none" stroke-linecap="butt" stroke-linejoin="miter" stroke-miterlimit="10" stroke-dasharray="" stroke-dashoffset="0" style="mix-blend-mode: normal"><path d="M-42.72209,290.25785c-0.51937,-0.01211 -1.03532,-0.01866 -1.54744,-0.01866c0,0 -3.75,0 -3.75,-3.75c0,-3.75 3.75,-3.75 3.75,-3.75c2.12679,0 4.24153,0.05674 6.35227,0.1375c0.33788,-0.08785 0.71969,-0.1375 1.15113,-0.1375c0.59033,0 1.08772,0.09293 1.50682,0.24953c4.25313,0.19191 8.50374,0.4256 12.81788,0.4326c3.3493,0.00543 7.16418,-0.00645 10.37917,-1.16128c9.18468,-3.29913 15.5726,-13.42791 22.19147,-19.97641c5.38607,-8.14695 11.17982,-16.04244 16.99747,-23.80483c3.62163,-4.83228 6.77603,-10.04844 11.36887,-14.129c3.09442,-2.74927 6.61393,-4.06519 9.85809,-6.38708c0.89328,-0.63933 1.42839,-1.73901 2.39142,-2.26748c0.58481,-0.32092 5.368,-1.48225 6.39514,-1.73904c5.23701,-1.30926 10.31661,-1.77619 15.54682,-2.82223c4.25911,-0.02509 9.38305,-0.80819 13.40076,0.94933c5.87693,2.57083 9.57114,7.87978 13.18819,12.84729c5.164,7.09203 9.54517,14.64906 14.40955,21.94909c1.78504,2.67883 4.23021,4.83738 6.06938,7.4032c0.55289,0.77133 0.61825,1.84522 1.23834,2.56364c2.21317,2.56403 5.76588,4.56401 8.85189,5.75793c3.83443,1.95014 8.71832,2.67429 12.93573,1.23813c3.17799,-1.0822 6.04265,-3.60338 8.96227,-5.19727c13.17892,-7.1947 26.5356,-18.19807 42.0501,-18.19807c12.14464,0.10708 23.00044,6.69033 29.76176,16.73574c1.89211,2.81115 3.41779,5.94364 5.37714,8.74794c1.08399,1.55145 4.60471,5.4837 5.53691,6.94101c0.82191,1.2849 1.23081,2.80384 2.04639,4.09277c3.4495,5.45152 8.3919,11.00035 12.94081,15.5592c2.75901,2.06925 5.04142,4.59838 7.86935,6.57537c2.73697,1.91341 5.88795,2.91568 8.69835,4.66383c3.17046,1.97211 5.91314,3.60199 9.24466,5.28754c2.51833,1.27413 4.46705,3.49293 6.947,4.84024c1.19065,0.64686 2.63342,0.69218 3.86766,1.25142c1.20764,0.54718 2.20745,1.48949 3.41064,2.04638c2.19236,1.01473 4.69089,1.1652 7.005,1.85877c6.52202,1.95475 13.16723,3.96578 20.07743,3.93731c9.63112,0.04721 21.49137,-5.81302 27.90154,-13.07565c5.15497,-5.84051 9.03527,-12.26602 13.32486,-18.6911c3.82102,-5.72323 8.57876,-10.72405 13.42072,-15.56601c6.21063,-6.21063 12.26329,-13.39158 20.08691,-17.76199c0.89063,-0.49752 2.02554,-0.37193 2.95779,-0.78625c4.38689,-1.94966 8.0688,-3.78783 12.80386,-4.94839c3.68149,-0.90232 10.0091,-1.87753 13.69155,-0.60165c1.29384,0.44828 2.17847,1.67785 3.37987,2.33483c1.1511,0.62948 2.52923,0.80098 3.63777,1.50272c2.72791,1.72685 4.4039,3.89441 7.41056,5.39774c3.92962,2.92968 7.94865,5.08337 12.14403,7.42424c4.55599,2.54206 8.48707,6.26215 13.00545,8.89337c10.68307,6.22115 22.25844,10.4368 33.97487,13.97357c3.30894,0.99885 6.26372,2.59425 9.635,3.43707c3.61818,1.43959 7.14304,2.27159 10.82884,3.38421c14.62833,4.41578 30.13123,14.06455 35.85344,28.8453c1.41459,3.65396 0.93442,7.77229 0.93442,11.58416c0,4.88691 -0.15095,9.33862 -1.39235,14.10075c0.0187,5.01502 -1.95093,7.98398 -3.61548,12.43904c-0.36703,0.98235 -0.33923,2.10365 -0.81318,3.03911c-3.63781,7.18014 -10.7432,11.8614 -16.61796,16.91026c-2.3495,2.0192 -4.57256,4.54844 -7.08563,6.34836c-6.44266,4.61438 -13.61241,7.68431 -21.11281,10.15732c-17.70677,2.58044 -35.34947,1.95088 -53.17569,2.80133c-9.81621,0.46831 -19.54867,2.2762 -29.35449,2.75135c-21.29581,1.03192 -43.35201,1.91442 -64.62887,-0.0092c-15.19754,-1.51898 -30.40145,-3.12279 -45.61357,-4.08616c-7.7969,-0.49378 -15.50255,-2.096 -23.26865,-2.73404c-12.55958,-1.03186 -25.34195,-0.72312 -37.82425,-2.76675c-5.33086,-0.90672 -10.69818,-0.87088 -16.06388,-1.32601c-5.26893,-0.44693 -10.50338,-1.56369 -15.74917,-2.05186c-2.69679,-0.25097 -5.4259,0.22629 -8.12533,0.00547c-15.11742,-1.23665 -30.15432,-2.0336 -45.39329,-2.0336c-20.15837,0 -40.38509,1.75985 -60.44358,3.40121c-2.94604,0.24107 -5.91849,-0.19907 -8.86767,0c-10.76059,0.72632 -21.50777,0.69156 -32.32586,0.69156c-9.31768,0 -18.98644,0.6907 -28.27656,-0.01278c-12.20127,-0.92392 -24.33738,-2.81623 -36.45393,-4.81214c-10.61292,-1.74822 -20.57143,-3.6119 -30.55696,-7.63529c-5.22059,-1.33094 -10.06613,-3.94426 -14.83729,-6.34782c-1.22898,-0.61912 -2.64918,-0.85183 -3.80862,-1.59303c-4.34576,-2.77814 -7.2649,-7.95334 -9.4753,-12.36766c-6.87096,-13.72181 -8.08981,-29.33958 -4.39731,-44.10958c0.99507,-4.97535 2.02372,-9.66695 5.78189,-13.42513c3.2929,-3.29289 7.76806,-3.92222 11.37304,-6.52966c3.22208,-2.33049 5.7467,-5.47305 7.83288,-8.87813z" data-paper-data="{&quot;index&quot;:null}" fill="#d18e69" stroke-width="0.5"/><path d="M210.3274,199.30686l0.84331,-0.36433c2.553,0.89918 5.82875,1.58141 7.0484,4.58094c2.12916,5.23634 -1.80534,9.1399 -6.22599,10.76836c-1.5674,0.57739 -3.26138,1.60572 -4.87323,1.16743c-6.81043,-1.85184 -6.64485,-9.32148 -2.97564,-13.74189c0.77171,-0.92971 2.01909,-1.32772 3.02863,-1.99158c0,0 1.55721,-0.93433 3.15451,-0.41894z" fill="#635d48" stroke-width="0.5"/><path d="M136.63035,207.81495c1.00955,0.66386 2.25692,1.06187 3.02863,1.99158c3.66921,4.42041 3.83478,11.89004 -2.97565,13.74189c-1.61184,0.43828 -3.30582,-0.59004 -4.87322,-1.16743c-4.42065,-1.62846 -8.35515,-5.53203 -6.22599,-10.76837c1.21965,-2.99954 4.4954,-3.68176 7.0484,-4.58094l0.84331,0.36433c1.59731,-0.51538 3.15452,0.41895 3.15452,0.41895z" data-paper-data="{&quot;index&quot;:null}" fill="#635d48" stroke-width="0.5"/><path d="M40.10575,264.94744c0,-0.69036 0.55965,-1.25 1.25,-1.25c0.69035,0 1.25,0.55964 1.25,1.25c0,0.69036 -0.55965,1.25 -1.25,1.25c-0.69035,0 -1.25,-0.55964 -1.25,-1.25z" fill="#d1a643" stroke-width="0.5"/><path d="M31.10575,296.94744c0,-0.69036 0.55964,-1.25 1.25,-1.25c0.69035,0 1.25,0.55964 1.25,1.25c0,0.69036 -0.55965,1.25 -1.25,1.25c-0.69036,0 -1.25,-0.55964 -1.25,-1.25z" fill="#d1a643" stroke-width="0.5"/><path d="M72.43908,310.28077c0,-0.69036 0.55965,-1.25 1.25,-1.25c0.69035,0 1.25,0.55964 1.25,1.25c0,0.69036 -0.55965,1.25 -1.25,1.25c-0.69035,0 -1.25,-0.55964 -1.25,-1.25z" fill="#d1a643" stroke-width="0.5"/><path d="M78.10575,279.28077c0,-0.69036 0.55965,-1.25 1.25,-1.25c0.69035,0 1.25,0.55964 1.25,1.25c0,0.69036 -0.55965,1.25 -1.25,1.25c-0.69035,0 -1.25,-0.55964 -1.25,-1.25z" fill="#d1a643" stroke-width="0.5"/><path d="M114.43908,317.6141c0,-0.69036 0.55965,-1.25 1.25,-1.25c0.69035,0 1.25,0.55964 1.25,1.25c0,0.69036 -0.55965,1.25 -1.25,1.25c-0.69035,0 -1.25,-0.55964 -1.25,-1.25z" fill="#d1a643" stroke-width="0.5"/><path d="M59.43908,326.28077c0,-0.69036 0.55965,-1.25 1.25,-1.25c0.69035,0 1.25,0.55964 1.25,1.25c0,0.69036 -0.55965,1.25 -1.25,1.25c-0.69035,0 -1.25,-0.55964 -1.25,-1.25z" fill="#d1a643" stroke-width="0.5"/><path d="M160.47186,296.83132c-0.88388,-0.88389 0,-1.76777 0,-1.76777l0.33334,-0.33333c2.56993,-2.56993 4.8441,-6.5948 7.99153,-8.23415c0,0 1.11804,-0.55901 1.67705,0.55902c0.55901,1.11804 -0.55902,1.67705 -0.55902,1.67705c-1.87836,0.88395 -2.33423,2.39779 -3.59234,4.00778c-1.06988,1.3691 -2.51951,2.52811 -3.74946,3.75807l-0.33333,0.33333c0,0 -0.88389,0.88389 -1.76777,0z" fill="#d1a643" stroke-width="0.5"/><path d="M64.10575,283.28077c0,-0.69036 0.55965,-1.25 1.25,-1.25c0.69035,0 1.25,0.55964 1.25,1.25c0,0.69036 -0.55965,1.25 -1.25,1.25c-0.69035,0 -1.25,-0.55964 -1.25,-1.25z" fill="#d1a643" stroke-width="0.5"/><path d="M75.77241,236.94744c0,-0.69036 0.55965,-1.25 1.25,-1.25c0.69035,0 1.25,0.55964 1.25,1.25c0,0.69036 -0.55965,1.25 -1.25,1.25c-0.69035,0 -1.25,-0.55964 -1.25,-1.25z" fill="#d1a643" stroke-width="0.5"/><path d="M60.10575,241.94744c0,-0.69036 0.55965,-1.25 1.25,-1.25c0.69035,0 1.25,0.55964 1.25,1.25c0,0.69036 -0.55965,1.25 -1.25,1.25c-0.69035,0 -1.25,-0.55964 -1.25,-1.25z" fill="#d1a643" stroke-width="0.5"/><path d="M70.43908,260.94744c0,-0.69036 0.55965,-1.25 1.25,-1.25c0.69035,0 1.25,0.55964 1.25,1.25c0,0.69036 -0.55965,1.25 -1.25,1.25c-0.69035,0 -1.25,-0.55964 -1.25,-1.25z" fill="#d1a643" stroke-width="0.5"/><path d="M122.43908,277.28077c0,-0.69036 0.55965,-1.25 1.25,-1.25c0.69035,0 1.25,0.55964 1.25,1.25c0,0.69036 -0.55965,1.25 -1.25,1.25c-0.69035,0 -1.25,-0.55964 -1.25,-1.25z" fill="#d1a643" stroke-width="0.5"/><path d="M125.10575,294.94744c0,-0.69036 0.55965,-1.25 1.25,-1.25c0.69035,0 1.25,0.55964 1.25,1.25c0,0.69036 -0.55965,1.25 -1.25,1.25c-0.69035,0 -1.25,-0.55964 -1.25,-1.25z" fill="#d1a643" stroke-width="0.5"/><path d="M229.50323,322.34272c-0.39529,-1.18586 0.79057,-1.58114 0.79057,-1.58114l1.39529,-0.39748c0.86669,0.01782 1.73562,-0.2437 2.53576,-0.57726c0,0 1.1606,-0.46424 1.62483,0.69636c0.46424,1.1606 -0.69636,1.62483 -0.69636,1.62483c-1.1022,0.42674 -2.28243,0.73909 -3.46424,0.75607l-0.60472,0.26919c0,0 -1.18585,0.39529 -1.58114,-0.79057z" fill="#d1a643" stroke-width="0.5"/><path d="M190.90438,297.38842c0.55901,-1.11804 1.67706,-0.55902 1.67706,-0.55902l1.28638,0.6444c1.03213,0.41285 2.05232,0.85916 3.04694,1.3556c0,0 1.11803,0.55901 0.55902,1.67705c-0.55901,1.11804 -1.67705,0.55902 -1.67705,0.55902c-0.96294,-0.48237 -1.95308,-0.91108 -2.95305,-1.31107l-1.38028,-0.68893c0,0 -1.11803,-0.55901 -0.55902,-1.67705z" fill="#d1a643" stroke-width="0.5"/><path d="M222.93908,344.6141c0,1.25 -1.25,1.25 -1.25,1.25l-0.91181,-0.02427c-1.20452,-0.27366 -2.40601,-0.8285 -3.30541,-1.67518c0,0 -0.88388,-0.88388 0,-1.76776c0.88388,-0.88389 1.76777,0 1.76777,0c0.50428,0.55846 1.28477,0.8736 2.02792,0.99149l0.42153,-0.02427c0,0 1.25,0 1.25,1.25z" fill="#d1a643" stroke-width="0.5"/><path d="M166.43908,324.6141c0,-1.25 1.25,-1.25 1.25,-1.25l-0.1309,0.0894c0.55555,-0.22222 1.11111,-0.44445 1.66666,-0.66667c0,0 1.1606,-0.46424 1.62483,0.69636c0.46424,1.1606 -0.69636,1.62483 -0.69636,1.62483c-0.55555,0.22222 -1.11111,0.44445 -1.66666,0.66667l-0.79757,0.0894c0,0 -1.25,0 -1.25,-1.25z" fill="#d1a643" stroke-width="0.5"/><path d="M209.77241,340.28077c0,-0.69036 0.55964,-1.25 1.25,-1.25c0.69036,0 1.25,0.55964 1.25,1.25c0,0.69036 -0.55964,1.25 -1.25,1.25c-0.69036,0 -1.25,-0.55964 -1.25,-1.25z" fill="#d1a643" stroke-width="0.5"/><path d="M286.46747,334.18555c-0.57144,1.11174 -1.68318,0.54029 -1.68318,0.54029l-0.87812,-0.45275c-1.13435,-0.6485 -2.2739,-1.29032 -3.44279,-1.87428c0,0 -1.11803,-0.55901 -0.55902,-1.67705c0.55901,-1.11804 1.67705,-0.55901 1.67705,-0.55901c1.20986,0.60541 2.39034,1.26875 3.56509,1.93975l0.78066,0.39989c0,0 1.11173,0.57144 0.54028,1.68318z" fill="#d1a643" stroke-width="0.5"/><path d="M239.43908,312.28077c0,-0.69036 0.55964,-1.25 1.25,-1.25c0.69036,0 1.25,0.55964 1.25,1.25c0,0.69036 -0.55964,1.25 -1.25,1.25c-0.69036,0 -1.25,-0.55964 -1.25,-1.25z" fill="#d1a643" stroke-width="0.5"/><path d="M341.47378,337.72175c0.55901,1.11804 -0.55902,1.67705 -0.55902,1.67705l-1.33333,0.66667c0,0 -1.11804,0.55901 -1.67705,-0.55902c-0.55901,-1.11804 0.55902,-1.67705 0.55902,-1.67705l1.33333,-0.66667c0,0 1.11804,-0.55902 1.67705,0.55901z" fill="#d1a643" stroke-width="0.5"/><path d="M345.13002,334.85925c-0.24514,-1.22573 0.98058,-1.47087 0.98058,-1.47087l1.66667,-0.33333c3.25119,-0.64952 6.40244,-1.51653 9.60865,-2.32029c0,0 1.21267,-0.30317 1.51584,0.90951c0.30317,1.21268 -0.90951,1.51585 -0.90951,1.51585c-3.24486,0.80882 -6.43572,1.68788 -9.72469,2.34638l-1.66667,0.33333c0,0 -1.22573,0.24514 -1.47087,-0.98058z" fill="#d1a643" stroke-width="0.5"/><path d="M296.48717,346.60404c0.3434,-1.20191 1.54531,-0.85851 1.54531,-0.85851l2.33333,0.66667c4.81032,1.375 9.52456,2.96299 14.33333,4.33333c0,0 1.20191,0.3434 0.85851,1.54531c-0.3434,1.20191 -1.54531,0.8585 -1.54531,0.8585c-4.80912,-1.37745 -9.52069,-2.95893 -14.33333,-4.33333l-2.33333,-0.66667c0,0 -1.2019,-0.3434 -0.8585,-1.5453z" fill="#d1a643" stroke-width="0.5"/><path d="M248.77241,339.28077c0,-0.69036 0.55964,-1.25 1.25,-1.25c0.69036,0 1.25,0.55964 1.25,1.25c0,0.69036 -0.55964,1.25 -1.25,1.25c-0.69036,0 -1.25,-0.55964 -1.25,-1.25z" fill="#d1a643" stroke-width="0.5"/><path d="M392.77241,298.28077c0,-0.69036 0.55964,-1.25 1.25,-1.25c0.69036,0 1.25,0.55964 1.25,1.25c0,0.69036 -0.55964,1.25 -1.25,1.25c-0.69036,0 -1.25,-0.55964 -1.25,-1.25z" fill="#d1a643" stroke-width="0.5"/><path d="M433.10575,317.94744c0,-0.69036 0.55964,-1.25 1.25,-1.25c0.69036,0 1.25,0.55964 1.25,1.25c0,0.69036 -0.55964,1.25 -1.25,1.25c-0.69036,0 -1.25,-0.55964 -1.25,-1.25z" fill="#d1a643" stroke-width="0.5"/><path d="M386.14045,322.05509c0.55901,1.11804 -0.55901,1.67705 -0.55901,1.67705l-1.75596,0.79117c-0.59096,-0.12106 -1.18194,-0.24212 -1.7729,-0.36319c0,0 -1.21268,-0.30317 -0.90951,-1.51585c0.30317,-1.21268 1.51585,-0.90951 1.51585,-0.90951c0.29793,0.10116 0.59584,0.20231 0.89377,0.30347l0.91071,-0.54217c0,0 1.11804,-0.55901 1.67705,0.55902z" fill="#d1a643" stroke-width="0.5"/><path d="M424.10575,281.6141c0,-0.69036 0.55964,-1.25 1.25,-1.25c0.69036,0 1.25,0.55964 1.25,1.25c0,0.69036 -0.55964,1.25 -1.25,1.25c-0.69036,0 -1.25,-0.55964 -1.25,-1.25z" fill="#d1a643" stroke-width="0.5"/><path d="M407.9063,348.06355c0.88389,0.88389 0,1.76777 0,1.76777l-0.91405,0.66213c-0.75988,0.06417 -1.62572,0.58487 -2.27962,0.19252c-0.65391,-0.39234 -0.64362,-1.38488 -0.90289,-2.10203c-0.69936,-1.9345 -1.31951,-3.94761 -1.97318,-5.90788c0,0 -0.39529,-1.18586 0.79057,-1.58114c1.18586,-0.39529 1.58114,0.79057 1.58114,0.79057c0.52438,1.57377 1.14997,3.11263 1.67318,4.68679c0.20749,0.62424 -0.44666,1.63152 0.11742,1.96996c0.17494,0.10496 0.25803,-0.3161 0.38705,-0.47415l-0.24739,-0.00454c0,0 0.88388,-0.88389 1.76777,0z" fill="#d1a643" stroke-width="0.5"/><path d="M448.70239,319.84668c0.76743,-0.98669 1.75412,-0.21927 1.75412,-0.21927l1.02662,0.79849c3.38529,2.6381 6.2893,5.83711 9.32207,8.86989c2.19643,2.19643 4.19581,3.94566 5.37781,6.85408c0,0 0.46424,1.16059 -0.69635,1.62483c-1.1606,0.46424 -1.62484,-0.69635 -1.62484,-0.69635c-1.00563,-2.56313 -2.89522,-4.08562 -4.82439,-6.01479c-2.9565,-2.9565 -5.78403,-6.09891 -9.08916,-8.66428l-1.02662,-0.79848c0,0 -0.98669,-0.76743 -0.21927,-1.75412z" fill="#d1a643" stroke-width="0.5"/><path d="M403.84968,295.41168c-0.46424,1.1606 -1.62484,0.69635 -1.62484,0.69635l-1.66666,-0.66666c0,0 -1.1606,-0.46424 -0.69636,-1.62484c0.46424,-1.1606 1.62484,-0.69636 1.62484,-0.69636l1.66667,0.66667c0,0 1.1606,0.46424 0.69636,1.62484z" fill="#d1a643" stroke-width="0.5"/><path d="M491.43908,333.94744c0,-1.25 1.25,-1.25 1.25,-1.25l-0.16387,0.09423c1.07581,-0.59547 2.46452,-0.90247 2.2472,-2.17757c0,0 0,-1.25 1.25,-1.25c1.25,0 1.25,1.25 1.25,1.25c-0.18606,2.66802 -1.41037,3.08482 -3.60688,4.4052l-0.97645,0.17813c0,0 -1.25,0 -1.25,-1.25z" fill="#d1a643" stroke-width="0.5"/><path d="M464.35575,298.19744c0.75,-1 1.75,-0.25 1.75,-0.25l1.13927,0.88044c0.90008,0.26849 1.90628,0.50469 2.80755,0.24022c0,0 1.21267,-0.30317 1.51585,0.90951c0.30317,1.21268 -0.90951,1.51585 -0.90951,1.51585c-1.47878,0.33057 -3.06581,-0.02083 -4.52578,-0.42645l-1.52739,-1.11957c0,0 -1,-0.75 -0.25,-1.75z" fill="#d1a643" stroke-width="0.5"/><path d="M465.10575,357.6141c0,-0.69036 0.55964,-1.25 1.25,-1.25c0.69036,0 1.25,0.55964 1.25,1.25c0,0.69036 -0.55964,1.25 -1.25,1.25c-0.69036,0 -1.25,-0.55964 -1.25,-1.25z" fill="#d1a643" stroke-width="0.5"/><path d="M396.43908,271.6141c0,-0.69036 0.55964,-1.25 1.25,-1.25c0.69036,0 1.25,0.55964 1.25,1.25c0,0.69036 -0.55964,1.25 -1.25,1.25c-0.69036,0 -1.25,-0.55964 -1.25,-1.25z" fill="#d1a643" stroke-width="0.5"/><path d="M359.80711,314.83979c-0.55901,1.11804 -1.67705,0.55901 -1.67705,0.55901l-0.99153,-0.56748c-1.81529,-1.84361 -3.29415,-3.90566 -3.36612,-6.55055c0,0 0,-1.25 1.25,-1.25c1.25,0 1.25,1.25 1.25,1.25c-0.08308,1.83099 1.37459,3.54738 2.63389,4.78278l0.3418,0.09918c0,0 1.11803,0.55901 0.55902,1.67705z" fill="#d1a643" stroke-width="0.5"/><path d="M371.43908,297.6141c0,-0.69036 0.55964,-1.25 1.25,-1.25c0.69036,0 1.25,0.55964 1.25,1.25c0,0.69036 -0.55964,1.25 -1.25,1.25c-0.69036,0 -1.25,-0.55964 -1.25,-1.25z" fill="#d1a643" stroke-width="0.5"/><path d="M431.79673,350.3988c-1.11804,-0.55901 -0.55901,-1.67705 -0.55901,-1.67705l0.23869,-0.41082c0.46516,-1.80181 0.37876,-3.68118 0.64191,-5.54027c0,0 0.17678,-1.23744 1.41421,-1.06066c1.23744,0.17678 1.06066,1.41421 1.06066,1.41421c-0.28337,1.96416 -0.2242,3.87421 -0.69143,5.79306l-0.42798,0.92252c0,0 -0.55902,1.11803 -1.67705,0.55901z" fill="#d1a643" stroke-width="0.5"/><path d="M68.77241,327.28077c0,-0.69036 0.55965,-1.25 1.25,-1.25c0.69035,0 1.25,0.55964 1.25,1.25c0,0.69036 -0.55965,1.25 -1.25,1.25c-0.69035,0 -1.25,-0.55964 -1.25,-1.25z" fill="#d1a643" stroke-width="0.5"/><path d="M118.23771,350.05509c0.55902,-1.11804 1.67705,-0.55902 1.67705,-0.55902l0.85765,0.45137c0.88889,0.66667 1.77778,1.33333 2.66667,2c0,0 1,0.75 0.25,1.75c-0.75,1 -1.75,0.25 -1.75,0.25c-0.88889,-0.66667 -1.77778,-1.33333 -2.66667,-2l-0.47568,-0.2153c0,0 -1.11803,-0.55901 -0.55901,-1.67705z" fill="#d1a643" stroke-width="0.5"/><path d="M73.20827,341.00939c-0.39529,1.18586 -1.58114,0.79057 -1.58114,0.79057l-2.15391,-0.72962c-3.27793,-2.1689 -6.86657,-3.56511 -10.14418,-5.7495c0,0 -1.04006,-0.69337 -0.34669,-1.73343c0.69338,-1.04007 1.73344,-0.34669 1.73344,-0.34669c3.18296,2.12266 6.68542,3.4531 9.85582,5.58384l1.84609,0.6037c0,0 1.18586,0.39529 0.79057,1.58114z" fill="#d1a643" stroke-width="0.5"/><path d="M24.06214,342.48054c0.80023,-0.96028 1.7605,-0.16005 1.7605,-0.16005l0.07945,0.0662c3.34742,2.79237 6.184,5.00785 10.78699,4.97741c0,0 1.25,0 1.25,1.25c0,1.25 -1.25,1.25 -1.25,1.25c-5.22343,-0.02904 -8.55673,-2.36799 -12.38745,-5.55685l-0.07944,-0.06621c0,0 -0.96027,-0.80023 -0.16005,-1.7605z" fill="#d1a643" stroke-width="0.5"/><path d="M27.43908,295.28077c1,0.75 0.25,1.75 0.25,1.75l-1,1.33333c0,0 -0.75,1 -1.75,0.25c-1,-0.75 -0.25,-1.75 -0.25,-1.75l1,-1.33333c0,0 0.75,-1 1.75,-0.25z" fill="#d1a643" stroke-width="0.5"/><path d="M53.57296,225.73022c0.80774,0.80774 0.13916,1.61548 0.01798,1.74865c-0.04044,0.8211 -0.16172,1.64112 -0.35585,2.4384c0,0 -0.30317,1.21268 -1.51585,0.90951c-1.21268,-0.30317 -0.9095,-1.51585 -0.9095,-1.51585c0.19847,-0.76878 0.30231,-1.56954 0.29601,-2.3635l0.69945,-1.21722c0,0 0.88388,-0.88388 1.76777,0z" fill="#d1a643" stroke-width="0.5"/><path d="M175.59401,333.69446c2.08013,3.12019 -1.04006,5.20031 -1.04006,5.20031l-1.47469,0.97802c-5.53846,3.26678 -12.96578,6.7705 -19.58161,6.71269c-7.20309,-0.06294 -14.69091,-4.84607 -19.42129,-9.92447c-1.03704,-1.11334 -2.40631,-2.03062 -3.01943,-3.42312c-0.54976,-1.24862 -0.1903,-2.72193 -0.28545,-4.0829c0,0 0,-3.75 3.75,-3.75c0.45583,0 0.85626,0.05541 1.20801,0.15276c0.83056,-1.32182 1.87262,-2.55645 2.77402,-3.83924c1.92522,-2.7398 3.65595,-5.58006 5.34246,-8.44984c-0.0229,-0.03192 -0.04545,-0.06417 -0.06765,-0.09675c-1.26165,-1.85116 -1.10412,-5.21997 -1.09157,-7.40616c0.0411,-7.15453 4.00686,-13.18074 7.5953,-19.14031c2.0954,-3.47998 5.01129,-8.54489 9.2755,-9.62808c0.58128,-0.14765 1.13279,-0.23649 1.65942,-0.27376c1.53256,-2.78512 3.31903,-5.46992 4.9521,-8.19171c0,0 1.92936,-3.2156 5.14496,-1.28624c2.40775,1.44465 1.93093,3.61044 1.53938,4.60748c0.92898,-0.36874 1.90365,-0.65389 2.84761,-0.97769c0.9254,-0.31743 1.84417,-0.65809 2.78524,-0.9255c6.80939,-1.93493 22.9349,-4.43143 22.40902,6.8059c-0.13297,2.84148 -3.49295,6.70867 -5.19312,8.84589c-0.18732,0.22618 -0.37787,0.45103 -0.57189,0.67381c0.66664,1.62923 1.64054,3.18509 1.83494,4.9271c0.13635,1.22176 -0.71606,2.35408 -0.99319,3.55178c-1.86331,8.05288 -5.29005,16.63472 -12.70058,21.26217c-1.64259,1.0257 -3.43597,1.59903 -5.28684,1.91946c-0.16557,1.32598 -0.38089,2.57849 -0.52866,3.21748c-0.79107,3.42082 -2.04197,7.68615 -4.0061,10.91307c0.73126,0.17862 1.48926,0.6455 2.14417,1.62786zM193.17041,276.37095c-0.45152,-0.0091 -1.02429,-0.2044 -1.53195,-0.32277c0.17039,0.33131 0.30785,0.72126 0.39956,1.17985c0.03748,0.18739 0.0635,0.36713 0.07913,0.53953c0.1555,-0.24043 0.30837,-0.48249 0.45863,-0.72602c0.10925,-0.17706 0.34807,-0.43803 0.59463,-0.67059zM189.10564,281.63867c0.01734,0.03744 0.03437,0.07495 0.05111,0.1125c0.04834,-0.05339 0.09659,-0.10773 0.14475,-0.16305c-0.10244,0.02962 -0.17181,0.04535 -0.19586,0.05054z" fill-opacity="0.50196" fill="#000000" stroke-width="0.5"/><path d="M100.65892,239.82678c-1.21268,0.30317 -1.51585,-0.90951 -1.51585,-0.90951l-0.29301,-1.20282c-2.0395,-4.07899 -3.93716,-6.52094 -7.60851,-9.45759c0,0 -0.97608,-0.78087 -0.19522,-1.75696c0.78087,-0.97609 1.75696,-0.19522 1.75696,-0.19522c4.02761,3.22257 6.14304,6.04551 8.39149,10.54241l0.37365,1.46385c0,0 0.30317,1.21268 -0.90951,1.51585z" fill="#d1a643" stroke-width="0.5"/><path d="M37.77241,277.6141c0,-0.69036 0.55965,-1.25 1.25,-1.25c0.69035,0 1.25,0.55964 1.25,1.25c0,0.69036 -0.55965,1.25 -1.25,1.25c-0.69035,0 -1.25,-0.55964 -1.25,-1.25z" fill="#d1a643" stroke-width="0.5"/><path d="M13.57105,315.17312c-0.55902,-1.11804 0.55902,-1.67705 0.55902,-1.67705l0.33523,-0.09256c1.29094,-1.27715 2.01801,-2.2485 1.97379,-4.12273c0,0 0,-1.25 1.25,-1.25c1.25,0 1.25,1.25 1.25,1.25c-0.04114,2.55372 -0.95529,4.07767 -2.69289,5.87726l-0.9981,0.5741c0,0 -1.11803,0.55902 -1.67705,-0.55902z" fill="#d1a643" stroke-width="0.5"/><path d="M45.10575,305.94744c0,-0.69036 0.55965,-1.25 1.25,-1.25c0.69035,0 1.25,0.55964 1.25,1.25c0,0.69036 -0.55965,1.25 -1.25,1.25c-0.69035,0 -1.25,-0.55964 -1.25,-1.25z" fill="#d1a643" stroke-width="0.5"/><path d="M89.77241,282.6141c0,-0.69036 0.55965,-1.25 1.25,-1.25c0.69035,0 1.25,0.55964 1.25,1.25c0,0.69036 -0.55965,1.25 -1.25,1.25c-0.69035,0 -1.25,-0.55964 -1.25,-1.25z" fill="#d1a643" stroke-width="0.5"/><path d="M93.10575,347.94744c0,-0.69036 0.55965,-1.25 1.25,-1.25c0.69035,0 1.25,0.55964 1.25,1.25c0,0.69036 -0.55965,1.25 -1.25,1.25c-0.69035,0 -1.25,-0.55964 -1.25,-1.25z" fill="#d1a643" stroke-width="0.5"/><path d="M190.43908,357.6141c0,-0.69036 0.55964,-1.25 1.25,-1.25c0.69036,0 1.25,0.55964 1.25,1.25c0,0.69036 -0.55964,1.25 -1.25,1.25c-0.69036,0 -1.25,-0.55964 -1.25,-1.25z" fill="#d1a643" stroke-width="0.5"/><path d="M187.10575,336.28077c0,-0.69036 0.55964,-1.25 1.25,-1.25c0.69036,0 1.25,0.55964 1.25,1.25c0,0.69036 -0.55964,1.25 -1.25,1.25c-0.69036,0 -1.25,-0.55964 -1.25,-1.25z" fill="#d1a643" stroke-width="0.5"/><g stroke-width="0.5"><g data-paper-data="{&quot;index&quot;:null}"><path d="M165.19015,267.6057c-0.12581,-0.05888 -0.25095,-0.11957 -0.37536,-0.18214c-3.90279,-1.96242 -6.32343,-5.62076 -8.59417,-9.19538c-3.61933,-7.95527 -4.74912,-16.55976 -5.43768,-25.20934c-0.19419,-2.4393 -0.86664,-6.47167 -0.1226,-8.82835c0.65305,-2.0685 2.59805,-4.03948 4.16206,-5.45018c5.00418,-4.51363 11.38833,-7.20261 17.97298,-8.31856c2.64219,-0.43826 5.25114,-0.66034 7.91877,-0.88264l2.10202,-0.21054c0,0 0.43722,-0.04372 0.9634,0.0888c5.56708,-0.97763 10.93598,1.1347 13.74402,6.65188c2.55913,5.02812 2.96411,11.19881 4.26251,16.60417c1.34641,5.60524 2.79781,10.97719 3.27946,16.75853c-0.05847,5.08451 -1.82537,8.85882 -4.61097,11.67117c1.25239,3.60338 2.04305,7.89765 0.7377,10.70192c-0.82783,1.77841 -3.34183,3.33058 -4.90629,4.42527c-5.56338,3.89282 -12.92989,4.96596 -19.51667,3.61428c-0.85335,-0.17512 -5.21643,-0.79514 -5.71268,-1.04932c-2.85011,-1.45988 -3.0137,-2.80448 -4.23672,-5.38242c-0.57709,-1.60217 -1.37714,-3.74647 -1.62976,-5.80714z" fill="#2e2e2e"/><path d="M189.35552,213.56779l-2.2552,0.67374c-6.87334,1.70859 -13.73457,2.7142 -20.6939,4.0988c-2.40353,0.47819 -7.45883,2.90573 -9.74134,2.02487c-2.07871,-0.80222 -3.25724,-4.18713 -3.85192,-6.10316c-1.96435,-6.32896 -2.96704,-13.60682 -0.6844,-19.8878c6.43225,-9.0933 25.03622,-9.98634 32.25005,-0.83063c3.04381,3.86318 4.53153,10.50123 5.37284,15.33749c0.51871,0.22767 1.0142,0.6875 1.28007,1.57376c0.71837,2.39457 -1.67619,3.11293 -1.67619,3.11293z" data-paper-data="{&quot;index&quot;:null}" fill="#635d48"/></g><path d="M183.49235,187.39485c0.62833,2.41976 -1.79143,3.04808 -1.79143,3.04808l-2.45905,0.42969c-3.37273,-0.5152 -6.75681,-0.56348 -10.14182,-0.94434c-3.99839,-0.44987 -7.11218,-1.54509 -10.69751,0.72413c-2.51068,1.58906 -4.15689,5.31225 -6.0916,7.53451c0,0 -1.64388,1.88352 -3.5274,0.23964c-1.88352,-1.64388 -0.23964,-3.5274 -0.23964,-3.5274c2.36894,-2.70684 4.07295,-6.39592 7.1162,-8.42754c4.6428,-3.09947 8.86548,-2.0933 14.00102,-1.51176c3.44834,0.39049 6.89403,0.44942 10.33208,0.96954l0.45106,-0.32597c0,0 2.41975,-0.62833 3.04808,1.79143z" data-paper-data="{&quot;index&quot;:null}" fill="#202020"/><path d="M181.67543,201.21141c-0.96027,0.80023 -1.76051,-0.16004 -1.76051,-0.16004l-0.85237,-1.02284c-1.73925,-2.23388 -4.5498,-1.59891 -7.052,-1.59592c0,0 -1.25,0 -1.25,-1.25c0,-1.25 1.25,-1.25 1.25,-1.25c3.46727,0.00453 6.48141,-0.36783 8.97255,2.49545l0.85237,1.02285c0,0 0.80023,0.96027 -0.16004,1.7605z" fill="#000000"/><path d="M158.48878,203.82363c-1.18586,-0.39529 -0.79057,-1.58114 -0.79057,-1.58114l0.72657,-1.58783c1.89561,-1.56162 4.3777,-3.08412 6.66886,-3.96056c0,0 1.17041,-0.43891 1.60932,0.7315c0.43891,1.17041 -0.73151,1.60932 -0.73151,1.60932c-2.02193,0.73926 -4.30138,2.14993 -5.94621,3.5403l0.04467,0.45785c0,0 -0.39528,1.18586 -1.58113,0.79057z" fill="#000000"/></g><path d="M397.91268,318.14696c-0.88389,-0.88389 0,-1.76777 0,-1.76777l0.37569,-0.34136c0.06126,-0.0389 0.14149,-0.08395 0.23262,-0.13089c-0.70171,-0.28765 -1.42038,-0.97929 -1.44883,-1.02071c-1.76806,-2.5747 0.35259,-3.81246 2.34312,-4.698c0,0 1.14893,-0.4924 1.64133,0.65653c0.4924,1.14893 -0.65654,1.64133 -0.65654,1.64133c-3.54596,1.43971 0.99759,0.45797 1.59943,2.28921c0.55925,1.70164 -1.35966,2.67789 -2.32438,3.34266l0.00532,0.02901c0,0 -0.88388,0.88389 -1.76776,0z" fill="#b4875a" stroke-width="0.5"/><path d="M406.66892,312.59501c0.50551,-0.09649 0.9636,-0.5259 1.45006,-0.74013c0,0 1.14893,-0.4924 1.64133,0.65653c0.4924,1.14893 -0.65654,1.64133 -0.65654,1.64133c-0.48726,0.20437 -0.94287,0.5134 -1.46176,0.61311c-2.87487,0.55248 -3.77263,-0.77173 -3.79916,-3.42871c-0.01136,-1.13764 -0.19199,-3.70563 1.42183,-4.15261c0.93883,-0.26003 2.01249,0.56118 2.59692,1.34057c0.45001,0.60012 0.06285,1.4989 0.09427,2.24835l-0.89705,1.44225c0,0 -0.14051,0.21078 -0.38992,0.3793z" fill="#b4875a" stroke-width="0.5"/><path d="M414.40379,309.76723c0.02769,-0.2851 0.19792,-1.16156 1.24462,-1.16156c1.25,0 1.25,1.25 1.25,1.25l-0.00241,1.37397c-0.19479,1.57806 -0.29358,2.38405 -0.68572,3.23488l0.23817,0.08931l-0.54531,1.45416c-0.17016,0.48815 -0.6345,0.83842 -1.18066,0.83842c-0.60575,0 -1.11087,-0.43088 -1.22557,-1.00288l-0.36503,-1.64263c-0.2563,-1.15371 -0.92479,-2.54488 -0.99099,-3.7399c-0.57065,0.44186 -1.13944,0.79851 -1.6941,0.50612c-3.50928,-1.8499 -0.56306,-3.21137 0.8734,-3.74698c0.17064,-0.48726 0.63454,-0.8367 1.18006,-0.8367c0.5623,0 1.03788,0.37128 1.19497,0.88206l0.54644,1.63932l-0.21132,0.07044c0.13487,0.26358 0.2586,0.52632 0.37343,0.79197z" fill="#b4875a" stroke-width="0.5"/><path d="M420.53043,300.30965c1.21268,-0.30317 1.51585,0.90951 1.51585,0.90951l0.22251,1.04391c-0.00754,4.29208 -2.86255,7.10794 -6.57833,3.66166c0,0 -0.88389,-0.88388 0,-1.76776c0.88389,-0.88389 1.76777,0 1.76777,0c1.9782,2.27676 2.31413,-0.09183 2.31056,-1.89389l-0.14786,-0.43757c0,0 -0.30317,-1.21268 0.90951,-1.51585z" fill="#b4875a" stroke-width="0.5"/><path d="M426.50895,301.06464c-0.19498,0.52783 -0.34989,0.98524 -0.10779,1.12642c0.2486,0.14497 2.38058,-1.11991 2.51597,-1.19848c0,0 1.0853,-0.62017 1.70547,0.46513c0.62018,1.08531 -0.46513,1.70548 -0.46513,1.70548c-2.33254,1.31588 -5.47409,2.60666 -6.12653,-1.1853c-0.19031,-1.10607 0.75559,-5.34941 2.42022,-5.21799c4.49698,0.35502 1.74456,2.9466 1.00705,3.97965z" fill="#b4875a" stroke-width="0.5"/><path d="M433.25359,299.72958c0.17885,0.18511 0.31149,0.45965 0.31149,0.86683c0,1.25 -1.25,1.25 -1.25,1.25l-1.42262,-1.07322c-0.30881,-2.19898 -1.07877,-4.13641 -1.94853,-6.16586c0,0 -0.49239,-1.14893 0.65654,-1.64133c1.14893,-0.4924 1.64133,0.65653 1.64133,0.65653c0.86579,2.02019 1.61653,3.96561 2.0118,6.10706z" fill="#b4875a" stroke-width="0.5"/><path d="M435.69471,300.22604c0,-0.69036 0.55964,-1.25 1.25,-1.25c0.69036,0 1.25,0.55964 1.25,1.25c0,0.69036 -0.55964,1.25 -1.25,1.25c-0.69036,0 -1.25,-0.55964 -1.25,-1.25z" fill="#b4875a" stroke-width="0.5"/><path d="M433.65342,294.44325c-0.88389,-0.88389 0,-1.76776 0,-1.76776l1.01733,-1.00872c0.59644,-0.33961 1.10313,-1.03393 1.78931,-1.01882c4.36741,0.09611 2.45272,4.23452 1.15435,6.1974c0,0 -0.69337,1.04006 -1.73344,0.34669c-1.04007,-0.69338 -0.34669,-1.73343 -0.34669,-1.73343c0.15811,-0.23498 2.12569,-3.35919 0.72144,-1.85847l-0.83453,0.84313c0,0 -0.88388,0.88389 -1.76776,0z" fill="#b4875a" stroke-width="0.5"/><path d="M376.98675,294.44325c-0.88389,-0.88389 0,-1.76776 0,-1.76776l0.26884,-0.26158c0.07093,-0.05815 0.21927,-0.14912 0.41556,-0.26407c-1.02074,-2.63139 -2.73767,-6.09896 -1.7166,-8.46045c0.70647,-1.63389 3.75881,-3.42995 5.51286,-2.00027c1.39159,1.13425 0.87929,4.17354 0.34168,6.04066c1.16369,0.15553 1.28179,2.37332 0.68501,3.63624c-0.43862,0.92822 -1.14004,1.4125 -1.89469,1.85158c0.00138,0.38293 -0.13524,0.95368 -0.9039,1.17329c-0.35926,0.10265 -0.64183,0.06722 -0.86144,-0.0329l-0.07956,0.08525c0,0 -0.88388,0.88389 -1.76777,0zM379.82941,283.57776c-0.17295,-0.57549 -1.37119,0.38158 -1.52418,0.96269c-0.16262,0.61774 -0.08951,1.29217 0.04913,1.91573c0.04629,0.20817 0.09854,0.41607 0.15574,0.62376c0.18536,-0.16904 0.42179,-0.28304 0.68343,-0.31617l0.62179,-0.08883c-0.02961,-0.94 0.2076,-2.45326 0.01409,-3.09718zM379.84188,290.78287c0.4552,-0.35627 0.76765,-0.70728 0.70761,-0.98402c-0.01953,-0.09001 -0.04861,-0.17396 -0.08594,-0.25268l-0.06885,0.18362l-1.12654,-0.42245c0.18898,0.49226 0.3849,0.98396 0.57373,1.47554z" fill="#b4875a" stroke-width="0.5"/><path d="M391.75952,276.19826c1.25,0 1.25,1.25 1.25,1.25v0.55555c0,3.05616 -0.13638,6.09269 -0.97402,9.0471c0,0 -0.3434,1.20191 -1.5453,0.85851c-0.49376,-0.14108 -0.72672,-0.42705 -0.82984,-0.71505c-1.73908,2.72456 -7.37327,4.49763 -6.71791,-0.36782c0.08693,-0.64532 0.39963,-1.26183 0.77776,-1.79193c0.18581,-0.26049 0.43333,-0.46487 0.69146,-0.65962c0.12533,-0.43347 0.48674,-0.70453 0.48674,-0.70453l1.66751,-0.79299c0.52188,0.08498 1.09089,0.02217 1.56565,0.25495c1.02208,0.50112 1.60805,1.09334 1.86753,1.71546c0.44837,-2.24683 0.51041,-4.54678 0.51041,-6.84408v-0.55555c0,0 0,-1.25 1.25,-1.25zM387.00359,285.31884c-0.14118,0.30662 -0.36976,0.4971 -0.36976,0.4971c-0.19652,0.15405 -1.67504,1.3311 -1.46896,1.8055c0.13171,0.30318 2.74351,-1.67242 2.49056,-2.07038c-0.13243,-0.20835 -0.37851,-0.24217 -0.65184,-0.23222z" fill="#b4875a" stroke-width="0.5"/><path d="M391.28759,287.01069c-0.30317,-1.21268 0.90951,-1.51585 0.90951,-1.51585l0.35053,-0.01257c1.10413,-0.65456 1.21894,-1.29714 1.5079,-2.55397c0.05953,-0.25892 0.03722,-0.6093 0.076,-0.90157c-0.39121,0.25057 -0.84147,0.40384 -1.25743,0.61363c0,0 -1.11804,0.55902 -1.67705,-0.55902c-0.55901,-1.11804 0.55902,-1.67705 0.55902,-1.67705c0.82155,-0.40767 2.9988,-1.70797 3.96197,-1.07551c2.86967,1.88435 -0.07728,7.01895 -1.78365,8.23361l-1.13094,0.3578c0,0 -1.21267,0.30318 -1.51585,-0.9095z" fill="#b4875a" stroke-width="0.5"/><path d="M382.80041,295.0996c-0.2681,1.42885 -2.8875,7.62454 0.90483,6.87036c1.44243,-0.28686 2.52732,-4.05917 2.22829,-5.27059c-0.25948,-1.05118 -1.91733,-1.43123 -3.13312,-1.59977zM380.25251,295.18678c-0.35768,0.01191 -0.80106,-0.11514 -1.0925,-0.69802c-0.55901,-1.11804 0.55901,-1.67706 0.55901,-1.67706l0.92939,-0.31715c0.45514,0.00064 0.91028,0.00128 1.36542,0.00191c1.79095,0.20634 1.9763,0.07546 3.61027,0.85733c4.13846,1.9803 3.32647,9.92247 -1.36585,11.05423c-2.80175,0.67577 -4.98243,-1.73753 -5.04502,-4.18199c-0.04694,-1.83336 0.70501,-3.31886 1.03928,-5.03926z" fill="#b4875a" stroke-width="0.5"/><path d="M392.01745,294.49045c-0.07361,0.14681 -0.14295,0.29555 -0.20407,0.448c-0.68009,1.69631 -0.6178,3.85408 0.03596,1.07176c0.11758,-0.50042 0.16485,-1.00937 0.16812,-1.51976zM391.01777,291.78183c0.00239,-0.00655 0.0048,-0.01309 0.00724,-0.01962l-0.09702,-0.02772l0.36278,-1.26973c0.14026,-0.53694 0.6286,-0.93317 1.2095,-0.93317c0.52567,0 0.97555,0.32449 1.16028,0.78408l0.54421,1.26981l-0.05483,0.0235l0.10947,0.1314c0.06023,0.40732 0.12337,0.84823 0.17428,1.30698c0.80296,0.9348 1.5572,2.26644 2.3755,2.96786c0.23227,0.01583 1.20035,0.1478 1.20035,1.24784c0,1.25 -1.25,1.25 -1.25,1.25l-1.06374,-0.20994c-0.57488,-0.38673 -1.06067,-0.78879 -1.49213,-1.21618c-0.15996,0.47114 -0.38705,0.90918 -0.70112,1.29345c-0.99676,1.2195 -2.69849,2.31657 -4.29355,0.87766c-1.68381,-1.51898 0.33855,-5.35506 1.06214,-6.81327c0,0 0.24888,-0.49777 0.74665,-0.66297z" fill="#b4875a" stroke-width="0.5"/><path d="M398.78964,300.97024c-0.55901,-1.11804 0.55902,-1.67705 0.55902,-1.67705l0.58598,-0.26905c3.01137,-0.73595 1.92457,-3.16482 1.44946,-5.30655c-1.54764,1.20272 -3.59862,0.31474 -4.84758,-2.4436c0,0 -0.4924,-1.14893 0.65653,-1.64133c1.14893,-0.4924 1.64133,0.65654 1.64133,0.65654c0.74944,1.90933 1.18001,2.12794 1.69651,0.25399l0.17378,-1.21647c0.07792,-0.61548 0.6034,-1.09142 1.24003,-1.09142c0.60575,0 1.11087,0.43088 1.22557,1.00287l0.36503,1.64263l-0.25655,0.05701c1.66809,3.96996 2.23162,8.96524 -2.65732,10.49013l-0.15476,0.10131c0,0 -1.11804,0.55902 -1.67705,-0.55901z" fill="#b4875a" stroke-width="0.5"/><path d="M404.5836,292.44826c0,-1.25 1.25,-1.25 1.25,-1.25l-0.15821,0.04809c0.64943,-0.18555 1.34893,-0.16001 1.99393,-0.36043c0.29488,-0.09163 -0.32173,-0.53524 -0.54327,-0.75034c-0.39114,-0.37977 -0.98722,-0.59061 -1.22884,-1.07932c-0.36345,-0.73512 -0.72543,-1.62229 -0.49611,-2.40964c0.19446,-0.66768 1.06065,-0.89969 1.59098,-1.34954c0,0 1.04006,-0.69338 1.73344,0.34669c0.69338,1.04007 -0.34669,1.73343 -0.34669,1.73343c-1.36705,0.28573 1.46104,1.49967 1.63677,2.7575c0.41141,2.9447 -1.59589,2.92759 -3.65341,3.51545l-0.52859,0.04809c0,0 -1.25,0 -1.25,-1.25z" fill="#b4875a" stroke-width="0.5"/><path d="M411.80582,290.41122c0,-1.01355 0.82182,-1.20527 1.13274,-1.24154c0.14376,-0.12901 0.28268,-0.26234 0.3995,-0.41528c1.83155,-2.39778 -1.1802,0.14492 -2.46242,-1.3482c-1.85937,-2.16519 0.15812,-3.06489 1.30162,-3.96098c0,0 1.04006,-0.69338 1.73344,0.34669c0.42816,0.64224 0.19535,1.15228 -0.04539,1.4485c0.58757,-0.10228 1.33179,-0.0333 1.91847,0.57549c1.79314,1.86075 -0.25648,4.23567 -1.4737,5.47919l-1.25426,0.36612c0,0 -1.25,0 -1.25,-1.25z" fill="#b4875a" stroke-width="0.5"/><path d="M420.90477,283.43001c0.18022,-0.03743 0.39287,-0.03279 0.64259,0.03856c1.2019,0.3434 0.8585,1.54531 0.8585,1.54531c-0.53049,1.41547 -0.78494,3.68895 -3.54868,2.37205c-1.1765,-0.56059 -0.75433,-4.15742 -0.75193,-5.21147l0.03991,-0.08381l-0.03049,-0.00436l0.18259,-1.2781c0.07792,-0.61548 0.6034,-1.09142 1.24004,-1.09142c0.44077,0 0.82825,0.22813 1.05082,0.57276l0.72999,1.09498z" fill="#b4875a" stroke-width="0.5"/><path d="M426.90689,290.71843c-0.4924,-1.14893 0.65653,-1.64133 0.65653,-1.64133l1.00492,-0.38038c1.222,-1.65656 -0.34545,-4.18958 -1.04622,-6.1118c-1.79175,2.81332 -4.7979,1.54964 -6.35598,-2.05167c0,0 -0.4924,-1.14893 0.65653,-1.64133c1.14893,-0.4924 1.64133,0.65653 1.64133,0.65653c0.84544,1.9949 1.67476,3.38794 2.43726,0.62433l0.17378,-1.21644c0.07792,-0.61548 0.6034,-1.09142 1.24004,-1.09142c0.44077,0 0.82825,0.22813 1.05082,0.57276l0.72999,1.09498l-0.25948,0.17298c2.51005,3.1065 3.69472,7.54383 1.29948,10.93859l-1.58767,0.73073c0,0 -1.14893,0.4924 -1.64133,-0.65653z" fill="#b4875a" stroke-width="0.5"/><path d="M-4.56863,208.04981c0,-197.63003 160.21081,-357.84084 357.84084,-357.84084c197.63004,0 357.84084,160.21081 357.84084,357.84084c0,197.63004 -160.21081,357.84084 -357.84084,357.84084c-197.63003,0 -357.84084,-160.21081 -357.84084,-357.84084z" fill="url(#color-1)" stroke-width="0"/></g></g></svg>